<svg xmlns="http://www.w3.org/2000/svg" viewBox="0 0 58 53.2"><path d="M15.6 11.7c-.4-3-1.7-6.1-4.3-7.7a1.6 1.6 0 0 1-.6-2.1c2.1-2.8 5 2.8 5.4 4.5a15 15 0 0 1 .5 5.3.5.5 0 0 1-1 0Zm4.7 1.1a12.2 12.2 0 0 0 2-9.7 1.3 1.3 0 0 1 2.7-.4 14.3 14.3 0 0 1-.2 3.1 13.8 13.8 0 0 1-2 5.4 14.2 14.2 0 0 1-1.7 2.2.5.5 0 0 1-.8-.6Zm-9.7-1-.3.8c-2.6-.1-5.5.8-7 3-1.3 2-1.9 5.5-.5 7.5A4.3 4.3 0 0 0 6 24.8c1.7 0 3.6-1.3 3.5-3.2a2 2 0 0 0-4 0 .5.5 0 0 1-.7.2.5.5 0 0 1-.3-.6A3.3 3.3 0 0 1 9 19.1c4.3 2.4 1 7.6-3 7.5-6.6-.2-7.3-7.7-4.4-12.2a9.8 9.8 0 0 1 8.5-3.9c.2 0 .4 0 .5.3a1.5 1.5 0 0 1 0 1ZM9.8 33a14 14 0 0 1 4.5-10.3l.9 1.1c-3 2-4.6 5.8-5 9.3Zm10.3 11a21 21 0 0 1-2-10.8l1.4.1c-.5 3.5-.5 7.3 1 10.5l-.4.2Zm11.5 5.4c-3-1.7-4.5-5.2-4.7-8.5h1.5a9.2 9.2 0 0 0 3.4 8.2l-.2.3ZM15.5 33.8l-.2-6.4h.9l-.3 6.4h-.4zm8.8 9.1a11.1 11.1 0 0 1-1.4-4.3h1a7.1 7.1 0 0 0 .1 2l.6 2.1-.4.2Zm11 4.3a5.4 5.4 0 0 1-3.7-3.8l1-.3a4.7 4.7 0 0 0 2.8 3.7l-.1.4Z" fill="#f55e61"/><path d="M29 20.2c7.7-.1 27.2-.5 28.5-18.4-4.9-.5-13.3.7-16.7 2.8 0-.8.1-4-.6-4C34-.1 24.7 9.9 24 15.8" fill="#f55e61" stroke="#f55e61" stroke-linejoin="round"/><path d="M33 25.1c1.6 1.5 3.8 2.5 5.5 2s4.7-3.8 5-4.8a3.3 3.3 0 0 0-1.7-3.7c-.6-.3-15-1.1-15-1.1" fill="#f55e61" stroke="#f55e61" stroke-linejoin="round"/><path d="m55.7 46.8-3-1.5 1.9-2.7c.4-.5-.3-1-.7-.7a7.7 7.7 0 0 1-5.6 1c-8.7-1.5-16.3-33-39-32.4l.7 1.9c2.8 3 3.5 6.6 4.2 10.4 2.3 17.4 19 21.5 22.1 22.5a46.8 46.8 0 0 1 9.7 3.9 9.6 9.6 0 0 0 5.4 3.95c.6 0 .8-.3.5-.7-.8-1.6-1-2.8-.8-3.6l4.5-1.2a.5.5 0 0 0 0-.9ZM22 17.8c-.2 2-.9 2.4-2.8 2.5a3.6 3.6 0 0 1-3.7-3.4c0-1.7 1.1-2.6 3.2-2.6a3.5 3.5 0 0 1 3.3 3.4Z" fill="#f55e61"/></svg>