<?xml version="1.0" standalone="no"?>
<!DOCTYPE svg PUBLIC "-//W3C//DTD SVG 20010904//EN" "http://www.w3.org/TR/2001/REC-SVG-20010904/DTD/svg10.dtd">
<!-- Created using Krita: https://krita.org -->
<svg xmlns="http://www.w3.org/2000/svg" 
    xmlns:xlink="http://www.w3.org/1999/xlink"
    xmlns:krita="http://krita.org/namespaces/svg/krita"
    xmlns:sodipodi="http://sodipodi.sourceforge.net/DTD/sodipodi-0.dtd"
    width="1002.08pt"
    height="272.423pt"
    viewBox="0 0 1002.08 272.423">
<defs/>
<path id="shape0" transform="matrix(4.99997441946561 0 0 4.98898546469756 69.0057491597927 39.6719961767959)" fill="none" stroke="#f55e61" stroke-width="2.40020001666786" stroke-linecap="round" stroke-linejoin="miter" stroke-miterlimit="0" d="M12.6752 0C14.5221 13.3191 1.27967 23.8554 0 30.3014"/><path id="shape1" transform="matrix(4.99997441946561 0 0 4.98898546469756 17.9272497737406 17.2135228305615)" fill="none" stroke="#f55e61" stroke-width="2.40020001666786" stroke-linecap="round" stroke-linejoin="miter" stroke-miterlimit="0" d="M46.0689 0C30.9458 14.6393 22.6338 -0.813547 7.4405 2.85025C-7.61415 8.76384 4.68784 13.0515 5.56533 8.92579"/><path id="shape01" transform="matrix(0.99999996589126 0 0 0.99999996589126 143.201056141837 45.6121894705397)" fill="none" stroke="#f55e61" stroke-width="10.8009000750053" stroke-linecap="round" stroke-linejoin="miter" stroke-miterlimit="0" d="M60.887 0C63.5182 42.7651 37.1247 182.135 0 141.08"/><path id="shape11" transform="matrix(0.99999996589126 0 0 0.99999996589126 186.691736413336 123.752106626032)" fill="none" stroke="#f55e61" stroke-width="10.8009000750053" stroke-linecap="round" stroke-linejoin="miter" stroke-miterlimit="0" d="M0 31.3294C47.7506 -36.6388 96.3701 19.6056 63.9641 71.4726C51.4247 84.361 42.8087 64.5677 57.0683 63.0988"/><path id="shape2" transform="matrix(0.99999996589126 0 0 0.99999996589126 258.1862027638 102.256162970676)" fill="none" stroke="#f55e61" stroke-width="10.8009000750053" stroke-linecap="round" stroke-linejoin="miter" stroke-miterlimit="0" d="M0 0C58.6679 4.17591 12.8405 64.3104 76.8512 97.0585"/><path id="shape3" transform="matrix(0.99999996589126 0 0 0.99999996589126 235.028231300074 125.422631419482)" fill="none" stroke="#f55e61" stroke-width="10.8009000750053" stroke-linecap="round" stroke-linejoin="miter" stroke-miterlimit="0" d="M129.952 10.0387C110.114 4.77888 131.345 -7.98541 133.939 7.17585C124.048 57.8583 72.6413 117.479 31.0189 129.974C-22.6837 140.671 9.24029 96.5511 11.1423 121.723"/><path id="shape4" transform="matrix(0.99999996589126 0 0 0.99999996589126 388.940061923587 60.3328282843676)" fill="none" stroke="#f55e61" stroke-width="10.8009000750053" stroke-linecap="round" stroke-linejoin="miter" stroke-miterlimit="0" d="M72.9099 19.2233C77.5099 31.8769 90.2489 22.6641 83.7628 15.7416C45.8961 -21.6925 -18.3427 12.1437 35.4453 69.878C118.881 138.715 25.4132 152.631 4.70372 135.163C-2.28645 129.611 -3.05859 116.234 13.3935 118.182"/><path id="shape5" transform="matrix(0.99999996589126 0 0 0.99999996589126 485.140424664972 24.6020513996556)" fill="none" stroke="#f55e61" stroke-width="10.8009000750053" stroke-linecap="round" stroke-linejoin="miter" stroke-miterlimit="0" d="M63.6053 0C80.9212 14.8981 42.5871 231.612 0 163.139"/><path id="shape01" transform="matrix(0.99999998294563 0 0 0.99999998294563 526.237340645224 108.368705375105)" fill="none" stroke="#f55e61" stroke-width="10.8009000750053" stroke-linecap="round" stroke-linejoin="miter" stroke-miterlimit="0" d="M15.0078 22.7422C87.2596 -70.0417 124.442 156.989 0 66.973"/><path id="shape11" transform="matrix(0.99999998294563 0 0 0.99999998294563 631.508491399556 89.0579216598269)" fill="none" stroke="#f55e61" stroke-width="10.8009000750053" stroke-linecap="round" stroke-linejoin="miter" stroke-miterlimit="0" d="M1.54428 70.5554C37.1329 75.2227 102.943 31.3907 70.25 4.8499C26.7577 -20.6408 -14.824 61.2154 5.1528 90.9511C14.5785 103.327 38.3685 111.93 58.7741 94.4074C75.3441 81.968 61.8124 70.638 60.2742 85.7066"/><path id="shape21" transform="matrix(0.99999998294563 0 0 0.99999998294563 737.906398436512 21.6392710783885)" fill="none" stroke="#f55e61" stroke-width="10.8009000750053" stroke-linecap="round" stroke-linejoin="miter" stroke-miterlimit="0" d="M5.25405 0C13.8279 23.8391 47.7666 -11.2279 36.7582 20.3664C31.2453 33.4711 5.69243 85.5386 1.0552 127.773C-4.38473 184.734 12.1561 185.7 28.9575 155.976"/><path id="shape31" transform="matrix(0.99999998294563 0 0 0.99999998294563 781.225409368161 101.418983257531)" fill="none" stroke="#f55e61" stroke-width="10.8009000750053" stroke-linecap="round" stroke-linejoin="miter" stroke-miterlimit="0" d="M70.0649 48.158C70.0649 37.2218 76.3295 5.28243 48.0013 1.24219e-31C40.7105 -8.88178e-16 7.48069 4.76293 0.6919 46.0365C-1.82534 62.2144 1.95512 88.6255 21.5663 96.3387C35.3364 101.746 66.9214 83.4365 70.0649 48.158Z"/><path id="shape41" transform="matrix(0.99999998294563 0 0 0.99999998294563 858.861038178778 103.436448994677)" fill="none" stroke="#f55e61" stroke-width="10.8009000750053" stroke-linecap="round" stroke-linejoin="miter" stroke-miterlimit="0" d="M21.8514 9.92946C35.1134 10.0355 41.8306 -2.30363 47.2033 0.382731C58.6541 23.1547 27.9836 128.097 0 84.394"/><path id="shape51" transform="matrix(0.99999998294563 0 0 0.99999998294563 908.775770741831 112.234768755334)" fill="none" stroke="#f55e61" stroke-width="10.8009000750053" stroke-linecap="round" stroke-linejoin="miter" stroke-miterlimit="0" d="M0 15.456C18.6614 -14.3294 55.2276 -2.31389 45.1538 62.4099C39.3948 87.6935 61.1693 83.1075 69.7558 67.0603"/><path id="shape6" transform="matrix(0.99999998294563 0 0 0.99999998294563 30.6025485745871 214.817890241966)" fill="none" stroke="#f55e61" stroke-width="6.6005500458366" stroke-linecap="butt" stroke-linejoin="miter" stroke-miterlimit="0" d="M0 0L264.622 0M310.676 0L958.307 0"/><circle id="shape02" transform="matrix(0.657880258694841 0 0 0.657880258694841 240.11928695458 191.217550098375)" r="3.3002750229183" cx="3.3002750229183" cy="3.3002750229183" fill="#f55e61" fill-rule="evenodd" stroke="#f55e61" stroke-width="10.8009000750053" stroke-linecap="square" stroke-linejoin="bevel"/><circle id="shape03" transform="matrix(0.657880258694841 0 0 0.657880258694841 237.661522287878 246.228697399762)" r="3.3002750229183" cx="3.3002750229183" cy="3.3002750229183" fill="#f55e61" fill-rule="evenodd" stroke="#f55e61" stroke-width="10.8009000750053" stroke-linecap="square" stroke-linejoin="bevel"/><path id="shape04" transform="matrix(0.657880258694841 0 0 0.657880258694841 466.406015339803 78.2320840101398)" sodipodi:type="arc" sodipodi:rx="3.3002750229183" sodipodi:ry="3.3002750229183" sodipodi:cx="3.3002750229183" sodipodi:cy="3.3002750229183" sodipodi:start="6.28318530717959" sodipodi:end="6.28318530717955" sodipodi:open="true" d="M6.60055 3.30028C6.60055 1.47758 5.12297 -7.01661e-14 3.30028 0C1.47758 7.01661e-14 -7.01939e-14 1.47758 0 3.30028C7.01939e-14 5.12297 1.47758 6.60055 3.30028 6.60055C5.12297 6.60055 6.60055 5.12297 6.60055 3.30028Z" fill="#f55e61" fill-rule="evenodd" stroke="#f55e61" stroke-width="10.8009000750053" stroke-linecap="square" stroke-linejoin="bevel"/>
</svg>
