<svg xmlns="http://www.w3.org/2000/svg" viewBox="0 0 1002.1 272.4"><defs><style>*{stroke:#FF4C60}circle,path:last-child{fill:#FF4C60}</style></defs><path transform="matrix(4.99997 0 0 4.98899 69 40)" fill="none" stroke-width="2.4" stroke-linecap="round" stroke-miterlimit="0" d="M13 0C15 13 1 24 0 30"/><path transform="matrix(4.99997 0 0 4.98899 18 17)" fill="none" stroke-width="2.4" stroke-linecap="round" stroke-miterlimit="0" d="M46 0C31 15 23-1 7 3-8 9 5 13 6 9"/><path fill="none" stroke-width="10.8" stroke-linecap="round" stroke-miterlimit="0" d="M204 46c3 42-24 182-61 141"/><path fill="none" stroke-width="10.8" stroke-linecap="round" stroke-miterlimit="0" d="M187 155c47-68 96-12 64 40-13 13-21-7-7-8m14-85c59 4 13 65 77 97"/><path fill="none" stroke-width="10.8" stroke-linecap="round" stroke-miterlimit="0" d="M365 135c-20-5 1-18 4-2-10 50-61 110-103 122-54 11-22-33-20-8M462 80c4 12 17 3 11-4-38-37-102-4-49 54 84 69-10 83-30 65-7-5-8-18 8-16M549 25c17 15-21 231-64 163"/><path fill="none" stroke-width="10.8" stroke-linecap="round" stroke-miterlimit="0" d="M541 131c72-93 110 134-15 44"/><path fill="none" stroke-width="10.8" stroke-linecap="round" stroke-miterlimit="0" d="M633 160c36 4 101-40 69-66-44-26-85 56-65 86 9 12 33 21 53 3 17-12 3-23 2-8m51-153c9 23 43-12 32 20-6 13-31 65-36 107-5 57 11 58 28 29m84-28c0-11 7-43-22-49-7 0-40 5-47 46-3 17 1 43 21 51 14 5 45-13 48-48Zm30-37c13 0 20-12 25-9 12 23-19 128-47 84"/><path fill="none" stroke-width="10.8" stroke-linecap="round" stroke-miterlimit="0" d="M909 128c18-30 55-18 45 47-6 25 16 20 25 4"/><path fill="none" stroke-width="6.6" stroke-miterlimit="0" d="M31 215h264m46 0h648"/><circle transform="translate(240 191) scale(.65788)" r="3.3" cx="3.3" cy="3.3" fill-rule="evenodd" stroke-width="10.8" stroke-linecap="square" stroke-linejoin="bevel"/><circle transform="translate(238 246) scale(.65788)" r="3.3" cx="3.3" cy="3.3" fill-rule="evenodd" stroke-width="10.8" stroke-linecap="square" stroke-linejoin="bevel"/><path d="M471 80a2 2 0 1 0-5 0 2 2 0 0 0 5 0Z" fill-rule="evenodd" stroke-width="7.1" stroke-linecap="square" stroke-linejoin="bevel"/></svg>