<svg xmlns="http://www.w3.org/2000/svg" viewBox="0 0 2058.75 1553.71"><path d="M1871.78,970.3l.5-20.83-81.45,4.38-.38-67.33V865.21l-97.66,8,18.74-69.93,1.93-19.36-84-6.71,7-53.32,1-22.28-71.29,0-4.72-55.24,1-22.26L43.53,946.07l12.34,45.76L205.47,1182,765,1750.21l251,293.91L1408.9,1766l552.71-487.25,132.92-90.77,7.74-37.52-175.61-53.07Zm-304.53,213.55-2.42,20.83-9.92,87.21-82.56-29.6-2.42,19.38,17.58,71-110.56-12,1.09,21.08-8,84.86-88.73-28v22.76l-9.82,84.88-86.89-22.3.25,26L405.21,1089.16l928.9-297,312.66,348.71-4.54,66.3Z" transform="translate(-43.52 -490.41)"/><polygon points="1141.09 1013.52 1237.8 950.93 1449.63 1163.74 1353.76 1230.31 1141.09 1013.52" fill="#fff"/><polygon points="1237.8 928.18 1334.51 871.3 1550.71 1076.09 1453.98 1144.36 1237.8 928.18" fill="#fff"/><polygon points="1426.4 791.16 1333.43 850.22 1556.15 1060.37 1646.2 991.13 1426.4 791.16" fill="#fff"/><polygon points="1521.3 714.17 1428.82 771.78 1653.47 974.17 1740.15 908.82 1521.3 714.17" fill="#fff"/><polygon points="1612.33 636.21 1523.72 693.34 1750.79 889.93 1836.5 826.51 1612.33 636.21" fill="#fff"/><polygon points="2058.74 659.94 1842.32 806.15 1613.78 614.9 1828.28 479.81 2058.74 659.94" fill="#fff"/><polygon points="1746.92 396.06 1534.84 527.27 1614.25 592.65 1828.75 459 1746.92 396.06" fill="#fff"/><polygon points="1668.01 312.77 1456.9 440.6 1537.76 505.49 1746.92 374.75 1668.01 312.77" fill="#fff"/><path d="M1424.41,846.27" transform="translate(-43.52 -490.41)" fill="#fff"/><polygon points="1592.94 233.36 1669.93 293.41 1454.48 419.31 1380.89 355.86 1592.94 233.36" fill="#fff"/><polygon points="1306.8 251.3 1304.38 229.51 1144.6 101.19 1336.82 0 1518.88 133.64 1306.8 251.3" fill="#fff"/><polygon points="1593.92 211.1 1517.9 155.9 1305.35 274.05 1379.91 335.53 1593.92 211.1" fill="#fff"/><polygon points="1213.35 280.35 1304.38 229.51 1128.62 90.05 1054.55 124.43 1213.35 256.12 1213.35 280.35" fill="#fff"/><polygon points="1213.35 256.12 1038.09 112.81 959.65 150.58 1120.87 284.7 1120.4 310.35 1213.35 256.12" fill="#fff"/><polygon points="940.77 136.06 860.38 179.63 1024.05 316.17 1025 340.38 1120.87 284.7 940.77 136.06" fill="#fff"/><polygon points="846.82 162.69 760.16 205.78 920.91 347.15 924.78 370.4 1024.05 316.17 846.82 162.69" fill="#fff"/><polygon points="743.7 189.32 658 234.84 813.42 377.67 819.24 402.85 920.91 347.15 743.7 189.32" fill="#fff"/><polygon points="639.61 218.85 547.11 263.89 702.54 414.47 709.8 438.17 813.42 377.67 639.61 218.85" fill="#fff"/><polygon points="432.38 296.31 531.62 246.93 702.54 414.47 588.28 474.49 586.83 452.24 432.38 296.31" fill="#fff"/><polygon points="309.88 328.29 414.44 278.9 586.83 452.24 488.06 501.62 309.88 328.29" fill="#fff"/><polygon points="0 455.61 148.63 643.48 150.08 627.5 459.98 475.47 293.89 311.32 0 455.61" fill="#fff"/><line x1="293.89" y1="311.32" x2="459.98" y2="475.47" stroke="#000" stroke-miterlimit="10" stroke-width="4"/><polygon points="208.68 702.56 150.08 627.5 459 462.4 513.24 523.88 208.68 686.57 208.68 702.56" fill="#fff"/><polygon points="272.58 765.48 208.68 686.57 524.35 518.56 580.53 580.53 271.13 748.55 272.58 765.48" fill="#fff"/><polygon points="340.85 834.73 271.13 748.55 595.54 573.26 658 643.48 337.48 820.69 340.85 834.73" fill="#fff"/><polygon points="739.33 710.78 673.01 635.74 337.48 820.69 415.92 914.14 412.52 892.83 739.33 710.78" fill="#fff"/><polygon points="412.52 892.83 752.42 699.64 821.64 775.65 490.95 971.74 493.38 990.15 412.52 892.83" fill="#fff"/><polygon points="490.95 971.74 837.15 767.43 913.64 851.19 573.74 1054.05 576.66 1075.86 490.95 971.74" fill="#fff"/><polygon points="573.74 1054.05 932.05 839.57 1019.2 936.42 668.89 1144.36 664.77 1164.46 573.74 1054.05" fill="#fff"/><polygon points="1027.31 916.79 668.89 1144.36 970.41 1519.85 1351.59 1252.45 1027.31 916.79" fill="#fff"/><line x1="1304.38" y1="229.51" x2="1128.62" y2="90.05" stroke="#000" stroke-miterlimit="10" stroke-width="4"/><line x1="1213.35" y1="256.12" x2="1038.09" y2="112.81" stroke="#000" stroke-miterlimit="10" stroke-width="4"/><line x1="1120.87" y1="284.7" x2="940.77" y2="136.06" stroke="#000" stroke-miterlimit="10" stroke-width="4"/><line x1="1024.05" y1="316.17" x2="846.82" y2="162.69" stroke="#000" stroke-miterlimit="10" stroke-width="4"/><line x1="920.91" y1="347.15" x2="743.7" y2="189.32" stroke="#000" stroke-miterlimit="10" stroke-width="4"/><line x1="813.42" y1="377.67" x2="639.61" y2="218.85" stroke="#000" stroke-miterlimit="10" stroke-width="4"/><line x1="702.54" y1="414.47" x2="531.62" y2="246.93" stroke="#000" stroke-miterlimit="10" stroke-width="4"/><line x1="586.83" y1="452.23" x2="414.44" y2="278.9" stroke="#000" stroke-miterlimit="10" stroke-width="4"/><line x1="459.01" y1="462.4" x2="150.08" y2="627.5" stroke="#000" stroke-miterlimit="10" stroke-width="4"/><line x1="208.68" y1="686.57" x2="524.35" y2="518.56" stroke="#000" stroke-miterlimit="10" stroke-width="4"/><line x1="271.13" y1="748.55" x2="595.55" y2="573.26" stroke="#000" stroke-miterlimit="10" stroke-width="4"/><line x1="337.48" y1="820.69" x2="673.01" y2="635.74" stroke="#000" stroke-miterlimit="10" stroke-width="4"/><line x1="412.52" y1="892.83" x2="752.42" y2="699.64" stroke="#000" stroke-miterlimit="10" stroke-width="4"/><line x1="490.96" y1="971.74" x2="837.15" y2="767.43" stroke="#000" stroke-miterlimit="10" stroke-width="4"/><line x1="573.74" y1="1054.05" x2="932.05" y2="839.57" stroke="#000" stroke-miterlimit="10" stroke-width="4"/><line x1="668.89" y1="1144.35" x2="1027.31" y2="916.79" stroke="#000" stroke-miterlimit="10" stroke-width="4"/></svg>