<svg xmlns="http://www.w3.org/2000/svg" viewBox="0 0 2059.91 1554.38"><path d="M1871.78,970.3l.5-20.83-81.83-63V865.21l-78.92-62,1.93-19.36-77-60,1-22.28-76-55.21,1-22.26L43.53,946.07l12.34,45.76L205.47,1182,765,1750.21l251,293.91L1408.9,1766l552.71-487.25,132.92-90.77,7.74-37.52Zm-304.53,213.55-2.42,20.83-92.48,57.61-2.42,19.38-93,59,1.09,21.08-61.7,36.29-35,20.59v22.76L1184.62,1504l.25,26L405.21,1089.16l928.9-297,312.66,348.71Z" transform="translate(-42.91 -490.41)" stroke="#fff" stroke-miterlimit="10"/><polygon points="1141.71 1013.52 1238.42 950.93 1450.25 1163.74 1354.37 1230.31 1141.71 1013.52" fill="#fff"/><polygon points="1238.42 928.18 1335.13 871.3 1551.33 1076.09 1454.59 1144.36 1238.42 928.18" fill="#fff"/><polygon points="1427.01 791.16 1334.04 850.22 1556.76 1060.37 1646.81 991.13 1427.01 791.16" fill="#fff"/><polygon points="1521.91 714.17 1429.44 771.78 1654.08 974.17 1740.76 908.82 1521.91 714.17" fill="#fff"/><polygon points="1612.94 636.21 1524.34 693.34 1751.4 889.93 1837.11 826.51 1612.94 636.21" fill="#fff"/><polygon points="2059.36 659.94 1842.93 806.15 1614.39 614.9 1828.89 479.81 2059.36 659.94" fill="#fff"/><polygon points="1747.53 396.06 1535.45 527.27 1614.86 592.65 1829.37 459 1747.53 396.06" fill="#fff"/><polygon points="1668.62 312.77 1457.52 440.6 1538.38 505.49 1747.53 374.75 1668.62 312.77" fill="#fff"/><polygon points="1381.5 355.86 1403.65 374.96 1412.73 337.82 1381.5 355.86" fill="#fff"/><polygon points="1670.55 293.41 1593.56 233.36 1412.73 337.82 1403.65 374.96 1455.09 419.31 1670.55 293.41" fill="#fff"/><polygon points="1307.41 251.3 1304.99 229.51 1145.22 101.19 1337.44 0 1519.49 133.64 1307.41 251.3" fill="#fff"/><polygon points="1305.96 274.05 1380.53 335.53 1418.72 313.32 1447.57 195.34 1305.96 274.05" fill="#fff"/><polygon points="1518.52 155.9 1447.57 195.34 1418.72 313.32 1594.53 211.1 1518.52 155.9" fill="#fff"/><polygon points="1213.96 280.35 1304.99 229.51 1129.23 90.05 1055.16 124.43 1213.96 256.12 1213.96 280.35" fill="#fff"/><polygon points="1213.96 256.12 1038.7 112.81 960.26 150.58 1121.49 284.7 1121.01 310.35 1213.96 256.12" fill="#fff"/><polygon points="941.38 136.06 861 179.63 1024.66 316.17 1025.61 340.38 1121.49 284.7 941.38 136.06" fill="#fff"/><polygon points="847.43 162.69 760.78 205.78 921.52 347.15 925.39 370.4 1024.66 316.17 847.43 162.69" fill="#fff"/><polygon points="744.31 189.32 658.61 234.84 814.03 377.67 819.85 402.85 921.52 347.15 744.31 189.32" fill="#fff"/><polygon points="640.22 218.85 547.72 263.89 703.15 414.47 710.42 438.17 814.03 377.67 640.22 218.85" fill="#fff"/><polygon points="432.99 296.31 532.24 246.93 703.15 414.47 588.89 474.49 587.44 452.24 432.99 296.31" fill="#fff"/><polygon points="310.49 328.29 415.06 278.9 587.44 452.24 488.67 501.62 310.49 328.29" fill="#fff"/><polygon points="0.61 455.61 149.25 643.48 150.69 627.5 460.59 475.47 294.5 311.32 0.61 455.61" fill="#fff"/><line x1="294.5" y1="311.32" x2="460.59" y2="475.47" stroke="#000" stroke-miterlimit="10" stroke-width="4"/><polygon points="209.29 702.56 150.69 627.5 459.62 462.4 513.85 523.88 209.29 686.57 209.29 702.56" fill="#fff"/><polygon points="273.19 765.48 209.29 686.57 524.97 518.56 581.15 580.53 271.75 748.55 273.19 765.48" fill="#fff"/><polygon points="341.46 834.73 271.75 748.55 596.16 573.26 658.61 643.48 338.09 820.69 341.46 834.73" fill="#fff"/><polygon points="739.94 710.78 673.62 635.74 338.09 820.69 416.53 914.14 413.13 892.83 739.94 710.78" fill="#fff"/><polygon points="413.13 892.83 753.03 699.64 822.25 775.65 491.57 971.74 493.99 990.15 413.13 892.83" fill="#fff"/><polygon points="491.57 971.74 837.76 767.43 914.25 851.19 574.35 1054.05 577.27 1075.86 491.57 971.74" fill="#fff"/><polygon points="574.35 1054.05 932.66 839.57 1019.82 936.42 669.5 1144.36 665.38 1164.46 574.35 1054.05" fill="#fff"/><polygon points="1027.92 916.79 669.5 1144.36 971.02 1519.85 1352.2 1252.45 1027.92 916.79" fill="#fff"/><line x1="1304.99" y1="229.51" x2="1129.23" y2="90.05" stroke="#000" stroke-miterlimit="10" stroke-width="4"/><line x1="1213.96" y1="256.12" x2="1038.7" y2="112.81" stroke="#000" stroke-miterlimit="10" stroke-width="4"/><line x1="1121.49" y1="284.7" x2="941.38" y2="136.06" stroke="#000" stroke-miterlimit="10" stroke-width="4"/><line x1="1024.66" y1="316.17" x2="847.43" y2="162.69" stroke="#000" stroke-miterlimit="10" stroke-width="4"/><line x1="921.52" y1="347.15" x2="744.31" y2="189.32" stroke="#000" stroke-miterlimit="10" stroke-width="4"/><line x1="814.03" y1="377.67" x2="640.22" y2="218.85" stroke="#000" stroke-miterlimit="10" stroke-width="4"/><line x1="703.15" y1="414.47" x2="532.24" y2="246.93" stroke="#000" stroke-miterlimit="10" stroke-width="4"/><line x1="587.44" y1="452.23" x2="415.06" y2="278.9" stroke="#000" stroke-miterlimit="10" stroke-width="4"/><line x1="459.62" y1="462.4" x2="150.69" y2="627.5" stroke="#000" stroke-miterlimit="10" stroke-width="4"/><line x1="209.29" y1="686.57" x2="524.97" y2="518.56" stroke="#000" stroke-miterlimit="10" stroke-width="4"/><line x1="271.75" y1="748.55" x2="596.16" y2="573.26" stroke="#000" stroke-miterlimit="10" stroke-width="4"/><line x1="338.09" y1="820.69" x2="673.62" y2="635.74" stroke="#000" stroke-miterlimit="10" stroke-width="4"/><line x1="413.13" y1="892.83" x2="753.03" y2="699.64" stroke="#000" stroke-miterlimit="10" stroke-width="4"/><line x1="491.57" y1="971.74" x2="837.76" y2="767.43" stroke="#000" stroke-miterlimit="10" stroke-width="4"/><line x1="574.35" y1="1054.05" x2="932.66" y2="839.57" stroke="#000" stroke-miterlimit="10" stroke-width="4"/><line x1="669.5" y1="1144.35" x2="1027.92" y2="916.79" stroke="#000" stroke-miterlimit="10" stroke-width="4"/></svg>