<svg xmlns="http://www.w3.org/2000/svg" viewBox="0 0 2046.22 1568.51"><path d="M1881.4,982.73l.5-20.7-87.37-5.75,6-56.82V878.28l-94.5,2.3,16.07-63.89,1.91-19.25-79.51-1.12,3-58.54,1-22.14-73.15-9.45-2.4-45.42,1-22.13L64.28,958.65l12.26,45.49,148.7,189,556.07,564.71L1030.83,2050l390.51-276.48,549.34-484.28L2102.79,1199l7.7-37.29-205.79-32ZM1578.73,1195l-2.41,20.71-91.92,57.25-2.4,19.27-92.41,58.65,1.08,21-61.33,36.07-34.79,20.46V1451l-96.12,62.21.24,25.86L423.76,1100.87,1347,805.64l310.76,346.58Z" transform="translate(-64.27 -481.51)"/><polygon points="1736.29 417.9 1525.5 548.32 1604.43 613.29 1817.62 480.46 1736.29 417.9" fill="#fff"/><polygon points="1657.85 335.12 1448.03 462.17 1528.4 526.67 1736.29 396.72 1657.85 335.12" fill="#fff"/><polygon points="1659.77 315.88 1583.25 256.19 1403.52 360.02 1394.5 396.93 1445.63 441.01 1659.77 315.88" fill="#fff"/><polygon points="1298.84 274.02 1296.44 252.37 1137.64 124.83 1328.69 24.25 1509.63 157.08 1298.84 274.02" fill="#fff"/><polygon points="1508.66 179.2 1438.15 218.4 1409.48 335.67 1584.22 234.07 1508.66 179.2" fill="#fff"/><polygon points="1205.96 302.89 1296.44 252.37 1121.75 113.76 1048.13 147.92 1205.96 278.81 1205.96 302.89" fill="#fff"/><polygon points="1205.96 278.81 1031.77 136.38 953.81 173.91 1114.05 307.21 1113.58 332.71 1205.96 278.81" fill="#fff"/><polygon points="935.04 159.49 855.15 202.79 1017.82 338.5 1018.76 362.56 1114.05 307.21 935.04 159.49" fill="#fff"/><polygon points="841.66 185.96 755.54 228.78 915.3 369.29 919.15 392.4 1017.82 338.5 841.66 185.96" fill="#fff"/><polygon points="739.17 212.42 653.99 257.66 808.47 399.62 814.25 424.65 915.3 369.29 739.17 212.42" fill="#fff"/><polygon points="635.72 241.77 543.78 286.53 698.26 436.19 705.48 459.76 808.47 399.62 635.72 241.77" fill="#fff"/><polygon points="429.75 318.76 528.39 269.68 698.26 436.19 584.7 495.86 583.26 473.73 429.75 318.76" fill="#fff"/><polygon points="307.99 350.54 411.92 301.45 583.26 473.73 485.09 522.82 307.99 350.54" fill="#fff"/><line x1="292.1" y1="333.68" x2="457.18" y2="496.83" stroke="#000" stroke-miterlimit="10"/><line x1="698.26" y1="436.19" x2="528.39" y2="269.68" stroke="#000" stroke-miterlimit="10"/><line x1="583.26" y1="473.73" x2="411.92" y2="301.45" stroke="#000" stroke-miterlimit="10" stroke-width="4"/><circle cx="1029.37" cy="571.4" r="571.4" fill="#fff"/><path d="M1005.51,1193.93l-14.69,8.81-63.16-26.44-58.76-27.91c-11.75-88.13-83.73-76.38-83.73-76.38-23.19-35.46-64-62.34-116-83.73-12.44,1.31-22.25,7-22,29.38l-16.16-4.4c-1.47,13-.22,24.83,7.34,33.78L610.37,1106v49.78l52.89,111.64,35.25,33.78,26.44,94,58.76,99.89,30.84,30.84,13.22-41.13,2.12-3,15.51,3,47-72-2.93-16.16c12.86-16.76,30.84-26.44,55.82-26.44l17.62-33.79,1.47-49.94,48.48-48.47Z" transform="translate(-64.27 -481.51)"/><polygon points="629.83 437.73 623.96 424.51 640.95 437.73 629.83 437.73"/><polygon points="610.74 415.7 594.58 412.76 587.23 396.61 569.61 386.32 581.36 383.38 593.95 399.54 610.74 415.7"/><polygon points="1163.78 149.09 1150.02 149.09 1150.02 127.88 1159.37 134.41 1163.78 149.09"/><path d="M1515.31,695.24l-6.7,7.34-16.16-7.34-19.09,19.09,22,29.38,23.5,1.47,3.43-8.81h8.32l7.35,26v34.18l-57.29-13.22v26.44l-74.18-30.11-1.47-17.63-17.24-7.34H1346.3l-19.1,7.34-7.34,10.28-23.51,1.47-8.81-5.87-7.34,2.94,1.46,13.22-13.22,10.28-11.75,13.22-2.93,13.22,7.34,4.41-13.31,17.62h-8.72l-17.63,22L1220,876.65l-19.1,29.79v9.87l10.29,7.34-4.41,8.82,7.35,8.81-1.47,32.31-10.29,10.29,8.82,13.22-2.94,19.09,19.1,10.29,74.91,72,27.91-16.16,27.91,5.88,42.6-22,41.13,22,17.62-4.41,11.42,7.35,3.27,20.34-13.22,25.19,1.47,16.16,22,25-2.93,14.69,10.28,4.5v54.26l-28.65,57.29,6.61,17.62-13.22,61.36v47.34l69.78-53.61,47-63.17v-23.5l14.69-19.1,20.57-20.56,17.62-57.29-4.4-17.62,14.69-42.6,7.34-46.27,4-36.73,1.79-60.9-8.81-23.5-91.07-163.05c29.48,23.81,60.35,72.49,92.54,144l-52.88-160.12V780.49l-38.19-52.88-29.38-35.25-29.38-25-25-26.44,9.33-10.29-124.57-85.77-15.88,10.8h-39.2l35.25,13.22,49.94,32.32A63.82,63.82,0,0,0,1338.79,620c-24.81-4.82-41,2.75-47.58,23.83l-26.44,13.22L1303,695.24c-27-6.33-49.59-9-61.69-2.94l-4.41,16.16,17.63,10.28-4.41,16.16c2.94,11.44,10.29,14.69,30.2,25H1300l19.09-19.1-1.47-23.5,42.6-32.32c17.38,17.63,37.41,27,58.76,32.32l-52.88-36.72,8.81-16.16,92.54,79.32-19.09-33.78,22-2.94-30.85-44.07,20.57-7.34L1491,685l7.35-2.93Z" transform="translate(-64.27 -481.51)"/><path d="M1210.42,494v-.52a574.06,574.06,0,0,0-116.78-12c-229.32,0-427.09,135.14-518.06,330l-2.66,7.08,1.47,13.22L567,852.41l-7.34,26.51V917l13.22,2.21v21.29l19.3,24.4v23.34l18.15,32.16,20.57-7.18-18.36-2.21-12.87-22.77,1.12-13.95,11.75-35.25-19.1-5.88-2.2-13.66,19.09-44.07-11,.49-11.75,27.91-14-6.66L572.86,873l23.5-61.69,27.91-25,2.94,10.28H636l1.47-8.81,10.28-2.94,10.29,10.28L661,806.87l-11.75,22,10.28,10.28,13.22-27.91V792.19l22-22,26.44-17.63,10.28-16.15,11.75-14.69,13.22-4.41,4.41-8.81,26.44-5.88,1.47-11.75,25-13.22L827,685l23.5-5.87L852,668.8l-8.81-2.94v-7.35l13.22-16.15-1.47-10.29,13.22,7.35,20.56-2.94,20.57-7.34V635l-27.91,19.1,11.75,4.4h16.16l-2.94,11.76,17.63-8.82-8.82-20.56v-8.82l11.76-8.81-17.63-29.38-11.75-22-11.75-7.35L874,571.85,821.1,610l-11.75-14.69V574.79l42.6-25,13.22-2.94L881.33,541l41.13-13.22,25-2.94-32.32,25,5.88,8.81,32.32-22h16.15l41.13-7.35L990,548.35l-4.41,19.09,19.1,11.75,39.66-27.91,54.35-7.34,23.5,7.34,7.34,8.82,16.16,2.94,17.63-7.35,4.41-13.22-13.22-4.41-14.69-29.37,23.5-11.76Z" transform="translate(-64.27 -481.51)"/><polygon points="1225.47 103.56 1226.94 125.59 1214.02 149.09 1194.52 159.38 1179.94 162.31 1184.34 141.75 1170.02 127.88 1159.37 124.12 1159.37 106.39 1174.06 121.19 1188.02 127.88 1197.52 138.49 1214.02 122.43 1205.53 106.39 1203.44 91.81 1196.1 87.4 1187.28 43.33 1212.25 65.37 1237.22 85.93 1253.38 100.62 1263.66 118.25 1251.91 125.59 1225.47 103.56"/><path d="M64.28,958.65l12.26,45.49,148.7,189,556.07,564.71L1030.83,2050l390.51-276.48,549.34-484.28L2102.79,1199l7.7-37.29L1897,1133.09,1881.4,982.73l-213.18,134.2-1.44,21.17-1.73,77.49L1578.73,1195l-2.41,20.71-1,88.29-90.94-31-2.4,19.27,4.49,85.3-96.9-26.65,1.08,21-12.1,77.19-84-20.66V1451l-5.85,89.62-90.27-27.41.24,25.86Z" transform="translate(-64.27 -481.51)"/><polygon points="1134.15 1031.6 1230.27 969.4 1440.81 1180.91 1345.52 1247.07 1134.15 1031.6" fill="#fff"/><polygon points="1230.27 946.78 1326.39 890.25 1541.28 1093.79 1445.13 1161.64 1230.27 946.78" fill="#fff"/><polygon points="1417.72 810.6 1325.31 869.29 1546.68 1078.17 1636.18 1009.35 1417.72 810.6" fill="#fff"/><polygon points="1512.04 734.08 1420.13 791.33 1643.4 992.49 1729.56 927.54 1512.04 734.08" fill="#fff"/><polygon points="1602.51 656.59 1514.45 713.37 1740.13 908.77 1825.32 845.73 1602.51 656.59" fill="#fff"/><polygon points="2046.21 680.18 1831.1 825.5 1603.95 635.41 1817.15 501.15 2046.21 680.18" fill="#fff"/><polygon points="0 477.09 147.73 663.82 149.17 647.93 457.18 496.82 292.1 333.68 0 477.09" fill="#fff"/><line x1="292.1" y1="333.68" x2="457.18" y2="496.83" stroke="#000" stroke-miterlimit="10" stroke-width="4"/><polygon points="207.41 722.53 149.17 647.93 456.21 483.84 510.11 544.94 207.41 706.64 207.41 722.53" fill="#fff"/><polygon points="270.92 785.08 207.41 706.64 521.16 539.65 577 601.25 269.48 768.24 270.92 785.08" fill="#fff"/><polygon points="338.78 853.9 269.48 768.24 591.92 594.03 653.99 663.82 335.42 839.95 338.78 853.9" fill="#fff"/><polygon points="734.83 730.7 668.91 656.12 335.42 839.95 413.38 932.83 410.01 911.65 734.83 730.7" fill="#fff"/><polygon points="410.01 911.65 747.84 719.63 816.64 795.18 487.97 990.08 490.38 1008.38 410.01 911.65" fill="#fff"/><polygon points="487.97 990.08 832.05 787.01 908.08 870.26 570.25 1071.89 573.15 1093.56 487.97 990.08" fill="#fff"/><polygon points="570.25 1071.89 926.38 858.72 1013 954.97 664.82 1161.64 660.72 1181.63 570.25 1071.89" fill="#fff"/><polygon points="1021.06 935.46 664.82 1161.64 964.5 1534.85 1343.36 1269.08 1021.06 935.46" fill="#fff"/><line x1="456.21" y1="483.84" x2="149.17" y2="647.93" stroke="#000" stroke-miterlimit="10" stroke-width="4"/><line x1="207.41" y1="706.64" x2="521.16" y2="539.65" stroke="#000" stroke-miterlimit="10" stroke-width="4"/><line x1="269.48" y1="768.24" x2="591.92" y2="594.03" stroke="#000" stroke-miterlimit="10" stroke-width="4"/><line x1="335.42" y1="839.95" x2="668.91" y2="656.12" stroke="#000" stroke-miterlimit="10" stroke-width="4"/><line x1="410.01" y1="911.65" x2="747.84" y2="719.63" stroke="#000" stroke-miterlimit="10" stroke-width="4"/><line x1="487.97" y1="990.08" x2="832.06" y2="787.01" stroke="#000" stroke-miterlimit="10" stroke-width="4"/><line x1="570.25" y1="1071.89" x2="926.38" y2="858.72" stroke="#000" stroke-miterlimit="10" stroke-width="4"/><line x1="664.82" y1="1161.64" x2="1021.06" y2="935.46" stroke="#000" stroke-miterlimit="10" stroke-width="4"/><path d="M1304.23,945.09h-24.57c-65.52-2.73-83-15.29-101.56-44.23-19.11-29.48-36-60.06-53.51-93.91-12-22.94-20.21-29.49-38.77-29.49h-8.19v96.1c0,45.87,3.27,50.24,43.68,59v8.74h-154v-8.74c40.4-8.73,43.68-12,43.68-59v-220c0-45.87-3.28-51.87-43.68-58.43v-8.73h146.88c44.78,0,72.08,4.91,94.46,20.75,20.75,14.19,32.77,36.58,32.77,64.43,0,55.15-42,79.72-69.35,91.19,8.19,14.74,37.13,65,52.42,89.55,20.75,33.3,27.85,44.22,39.86,58.42,12.56,14.74,20.2,19.66,41.5,26.76ZM1088.55,764.9c26.21,0,45.32-2.18,58.42-14.74,15.29-14.2,21.84-33.31,21.84-65,0-63.34-31.67-86.27-62.79-86.27-11.47,0-19.11,1.09-22.39,3.82-3.82,2.73-6,6.55-6,17.47V764.9Z" transform="translate(-64.27 -481.51)"/><path d="M1076.53,987.47c-6.07,25.52-20.66,74.14-29.16,92.37-15.2,3-62.6,14-103.31,14-157.4,0-224.24-97.84-224.24-204.79,0-120.32,88.72-207.83,231.53-207.83,48.62,0,93,10.94,107.56,12.15,1.22,31,5.47,68.06,8.51,93l-10.94,2.43c-12.15-43.15-27.35-66.24-61.38-82-16.4-7.9-34-10.94-58.94-10.94-91.16,0-130,81.43-130,181.7,0,117.29,54.69,201.15,144.63,201.15,56.52,0,89.33-34,116.07-94.8Z" transform="translate(-64.27 -481.51)"/><path d="M1040.76,1069h218.6c51.15,0,86.11,9.71,110.07,25.9,30.43,20.72,46.61,50.5,46.61,90.64,0,92.59-80.93,131.44-145.67,131.44a90.81,90.81,0,0,1-11.66-1.3l-38.85-8.41v102.94c0,57.63,6.48,62.16,57,69.28v10.36H1087.78v-10.36c47.91-7.77,51.8-11.65,51.8-69.28V1149.33c0-58.28-5.83-62.16-51.8-69.93-20.91-2.36-26-1.66-40.41.44m172.49,213.87c7.77,2.59,20.08,3.24,34.32,3.24,19.42,0,75.75-9.72,75.75-110.72,0-77-33-102.3-78.34-102.3-11.65,0-21.37,1.94-25.25,4.53-5.83,3.89-6.48,10.36-6.48,20.72Z" transform="translate(-64.27 -481.51)"/></svg>