<svg xmlns="http://www.w3.org/2000/svg" viewBox="0 0 1881.76 748.08"><path d="M1251.1,636.05C949.45,563.1,730.49,648,691.64,808.67s117.11,336.23,418.77,409.18" transform="translate(-151.93 -470.55)" fill="#900"/><polygon points="1087.73 261.77 1086.8 253.42 1025.56 204.24 1099.24 165.46 1169.01 216.68 1087.73 261.77" fill="#fff"/><polygon points="1046.36 275.24 1086.8 253.42 1019.44 199.97 985.5 215.48 1046.36 265.95 1046.36 275.24" fill="#fff"/><polygon points="1046.36 265.95 979.19 211.02 941.47 228.39 1003.26 279.8 1003.08 289.63 1046.36 265.95" fill="#fff"/><polygon points="934.23 222.83 898.02 240.33 960.75 292.66 961.11 301.94 1003.26 279.8 934.23 222.83" fill="#fff"/><polygon points="892.82 233.84 960.75 292.66 917.74 315.88 915.51 306.23 855.94 251.49 892.82 233.84" fill="#fff"/><polygon points="848.89 245.36 812.49 264.01 872.06 321.73 874.73 329.58 915.51 306.23 848.89 245.36" fill="#fff"/><polygon points="764.74 276.54 806.56 257.51 872.06 321.73 824.49 344.83 823.93 336.3 764.74 276.54" fill="#fff"/><polygon points="705.64 291.28 757.87 269.86 823.93 336.3 773.93 357.71 705.64 291.28" fill="#fff"/><polygon points="586.87 340.08 643.84 412.08 644.39 405.96 763.17 347.69 699.51 284.78 586.87 340.08" fill="#fff"/><line x1="699.51" y1="284.78" x2="763.17" y2="347.69" fill="none" stroke="#900" stroke-miterlimit="10" stroke-width="3"/><line x1="1086.8" y1="253.42" x2="1019.44" y2="199.97" fill="none" stroke="#900" stroke-miterlimit="10" stroke-width="3"/><line x1="1046.36" y1="265.95" x2="979.19" y2="211.02" fill="none" stroke="#900" stroke-miterlimit="10" stroke-width="3"/><line x1="1003.26" y1="279.8" x2="934.23" y2="222.83" fill="none" stroke="#900" stroke-miterlimit="10" stroke-width="3"/><line x1="960.75" y1="292.66" x2="892.82" y2="233.84" fill="none" stroke="#900" stroke-miterlimit="10" stroke-width="3"/><line x1="915.51" y1="306.23" x2="848.89" y2="245.36" fill="none" stroke="#900" stroke-miterlimit="10" stroke-width="3"/><line x1="872.06" y1="321.72" x2="806.56" y2="257.51" fill="none" stroke="#900" stroke-miterlimit="10" stroke-width="3"/><line x1="823.93" y1="336.3" x2="757.86" y2="269.86" fill="none" stroke="#900" stroke-miterlimit="10" stroke-width="3"/><polygon points="673.77 444.41 644.41 405.97 762.84 342.68 790.52 375.91 673.77 438.28 673.77 444.41" fill="#fff"/><polygon points="703.71 474.35 673.77 438.28 794.79 373.87 821.77 403.44 703.15 467.86 703.71 474.35" fill="#fff"/><polygon points="735.22 506.26 703.15 467.86 827.52 400.66 856.8 432.94 733.93 500.88 735.22 506.26" fill="#fff"/><polygon points="895.45 465.32 862.56 429.97 733.93 500.88 771.46 543.29 770.16 535.12 895.45 465.32" fill="#fff"/><polygon points="770.29 535.14 903.01 456.81 935.32 491.43 805.01 569.2 806.13 577.56 770.29 535.14" fill="#fff"/><polygon points="805.01 569.2 942.37 486.97 977.61 524.41 843.3 604.12 841.73 611.83 805.01 569.2" fill="#fff"/><polygon points="980.72 516.88 843.3 604.12 958.9 748.08 1105.03 645.57 980.72 516.88" fill="#fff"/><line x1="762.84" y1="342.68" x2="644.41" y2="405.97" fill="none" stroke="#900" stroke-miterlimit="10" stroke-width="3"/><line x1="673.77" y1="438.28" x2="794.79" y2="373.87" fill="none" stroke="#900" stroke-miterlimit="10" stroke-width="3"/><line x1="703.15" y1="467.86" x2="827.52" y2="400.66" fill="none" stroke="#900" stroke-miterlimit="10" stroke-width="3"/><line x1="733.93" y1="500.87" x2="862.56" y2="429.97" fill="none" stroke="#900" stroke-miterlimit="10" stroke-width="3"/><line x1="770.29" y1="535.14" x2="903.01" y2="456.81" fill="none" stroke="#900" stroke-miterlimit="10" stroke-width="3"/><line x1="805.01" y1="569.2" x2="942.37" y2="486.97" fill="none" stroke="#900" stroke-miterlimit="10" stroke-width="3"/><line x1="843.3" y1="604.12" x2="980.71" y2="516.88" fill="none" stroke="#900" stroke-miterlimit="10" stroke-width="3"/><polygon points="1375.93 418.39 1292.98 474.43 1205.38 401.13 1287.6 349.36 1375.93 418.39" fill="#900"/><polygon points="1256.41 317.25 1175.13 367.55 1205.57 392.6 1287.78 341.38 1256.41 317.25" fill="#900"/><polygon points="1226.17 285.33 1145.26 334.32 1176.25 359.2 1256.41 309.09 1226.17 285.33" fill="#900"/><polygon points="1144.33 326.17 1226.91 277.91 1197.4 254.9 1116.13 301.85 1144.33 326.17" fill="#900"/><polyline points="1086.8 253.42 1087.73 261.77 1169.01 216.68 1099.24 165.46 1076.79 258.82 1086.8 253.42" fill="#900"/><polygon points="1197.77 246.37 1168.64 225.21 1087.17 270.49 1115.75 294.06 1197.77 246.37" fill="#900"/><polygon points="1024.34 553.97 1074.81 520.52 1156.02 602.1 1105.87 637.08 1024.34 553.97" fill="#900"/><polygon points="1074.81 511.79 1121.53 479.85 1204.41 558.36 1157.68 594.67 1074.81 511.79" fill="#900"/><polygon points="1164.72 442.55 1122.45 472.38 1208.58 549.97 1248.62 517.17 1164.72 442.55" fill="#900"/><polygon points="1204.99 409.32 1165.65 434.56 1252.7 509.93 1290.93 482.27 1204.99 409.32" fill="#900"/><polygon points="1007.84 544.96 958.9 748.08 1105.03 645.57 1007.84 544.96" fill="#900"/><line x1="1086.8" y1="253.42" x2="1079.89" y2="247.94" fill="none" stroke="#fff" stroke-miterlimit="10" stroke-width="3"/><path d="M441.91,470.66h-290v42.78c37.29-.3,48.35,21.35,46.73,53.61v650.3H441.91Z" transform="translate(-151.93 -470.55)" fill="#900"/><path d="M500.53,868.68l-80.16,80.15,173.78,227.86c14,21.77-17.11,16.47-17.11,16.47l0,24.19H801.94l-.73-26.55s-31.15,4.59-52.29-18.12Z" transform="translate(-151.93 -470.55)" fill="#900"/><path d="M453.55,936.7a233.08,233.08,0,1,1,0-466.15c25.94,0,83.79,9.37,136.08,44.49,44.25,29.72,97,86.56,97,188.58A233.09,233.09,0,0,1,453.55,936.7Z" transform="translate(-151.93 -470.55)" fill="#900"/><circle cx="301.62" cy="233.07" r="149.71" fill="#fff"/><polygon points="356.17 95.48 264.88 42.77 264.88 148.19 356.17 95.48" fill="#fff"/><polygon points="153.36 251.34 147.64 356.61 241.66 308.93 153.36 251.34" fill="#fff"/><polygon points="391.5 231.42 490.26 268.29 408.95 335.39 391.5 231.42" fill="#fff"/><path d="M1789,470.66H1455.85v61.93c42.85,1.31,101.36,23.74,103.15,58.21V1126c-1.79,40.08-57.73,53.82-103.15,53.1v38.3H1789Z" transform="translate(-151.93 -470.55)" fill="#900"/><circle cx="1648.68" cy="233.07" r="199.57" fill="none" stroke="#900" stroke-miterlimit="10" stroke-width="67"/><circle cx="1648.68" cy="233.07" r="199.57" fill="none" stroke="#fff" stroke-miterlimit="10" stroke-width="4"/><path d="M1705,530.36l68.49-22.21,67.87.06C1932,527,2000.19,607.36,2000.19,703.62c0,110.22-89.35,199.58-199.57,199.58s-199.57-89.36-199.57-199.58a198.74,198.74,0,0,1,18.82-84.72Z" transform="translate(-151.93 -470.55)" fill="#fff"/><path d="M1769.84,752.87l-5.13,3.08-22.07-9.23L1722.12,737c-4.1-30.78-29.24-26.68-29.24-26.68-8.1-12.38-22.35-21.77-40.53-29.24-4.35.46-7.77,2.44-7.7,10.26l-5.64-1.54c-.51,4.55-.08,8.68,2.57,11.8l-9.75,20.58v17.39l18.47,39,12.31,11.8,9.23,32.83,20.53,34.89,10.77,10.77,4.62-14.36.74-1.06,5.41,1.06,16.42-25.14-1-5.65c4.49-5.85,10.77-9.23,19.49-9.23l6.16-11.8.51-17.44,16.93-16.93Z" transform="translate(-151.93 -470.55)" fill="#900"/><polygon points="1509.14 186.39 1507.08 181.77 1513.02 186.39 1509.14 186.39" fill="#900"/><polygon points="1502.47 178.69 1496.82 177.66 1494.26 172.02 1488.1 168.43 1492.21 167.4 1496.6 173.05 1502.47 178.69" fill="#900"/><polygon points="1695.63 85.57 1690.82 85.57 1690.82 78.17 1694.09 80.44 1695.63 85.57" fill="#900"/><path d="M1947.89,578.7l-2.34,2.56-5.64-2.56-6.67,6.67,7.69,10.26,8.21.51,1.2-3.08h2.91l2.56,9.1V614.1l-20-4.62v9.23l-25.9-10.51-.52-6.16-6-2.56h-14.5l-6.67,2.56-2.56,3.59-8.21.51-3.08-2-2.57,1,.52,4.62-4.62,3.59-4.1,4.61-1,4.62,2.56,1.54-4.64,6.16h-3l-6.16,7.69-.51,4.11-6.67,10.4v3.45l3.59,2.57-1.54,3.07,2.57,3.08-.52,11.29-3.59,3.59,3.08,4.62-1,6.67,6.67,3.59,26.17,25.14,9.75-5.65,9.74,2.06,14.88-7.7,14.37,7.7,6.15-1.54,4,2.56,1.15,7.11-4.62,8.8.51,5.64,7.7,8.72-1,5.13,3.59,1.57v19l-10,20,2.31,6.16-4.62,21.43V837l24.37-18.72,16.42-22.06V788l5.13-6.67,7.18-7.18,6.15-20-1.53-6.16,5.13-14.88,2.56-16.16,1.4-12.82.63-21.28-3.08-8.2-31.81-56.95C1970.19,626,1981,643,1992.21,668l-18.47-55.92v-3.6L1960.4,590l-10.26-12.31L1939.88,569l-8.72-9.23,3.26-3.6-43.51-29.95-5.54,3.77h-13.7l12.32,4.62,17.44,11.28a22.31,22.31,0,0,0-15.19,6.56c-8.67-1.68-14.31,1-16.62,8.32l-9.23,4.62,13.34,13.34c-9.43-2.21-17.32-3.16-21.55-1l-1.54,5.64,6.16,3.6-1.54,5.64c1,4,3.59,5.13,10.54,8.72h6.9l6.67-6.67-.51-8.21,14.87-11.28a41.94,41.94,0,0,0,20.53,11.28l-18.47-12.82,3.07-5.65,32.33,27.71-6.67-11.8,7.69-1-10.77-15.39,7.18-2.56,10.78,10.26,2.56-1Z" transform="translate(-151.93 -470.55)" fill="#900"/><path d="M1841.4,508.41v-.18a199.85,199.85,0,0,0-221.73,111.09l-.92,2.47.51,4.62-2.57,7.18-2.56,9.26v13.32l4.62.77v7.43l6.74,8.53v8.15l6.34,11.23,7.18-2.51-6.41-.77-4.5-8,.39-4.88,4.11-12.31-6.67-2.05-.77-4.77,6.67-15.39-3.85.17-4.1,9.74-4.88-2.32-.28-8.46,8.21-21.55,9.75-8.72,1,3.59h3.08l.51-3.08,3.59-1,3.59,3.59,1,4.11-4.11,7.69L1649,629l4.62-9.75v-6.67l7.7-7.7,9.23-6.15,3.59-5.65,4.11-5.13,4.61-1.54,1.54-3.08,9.24-2,.51-4.1,8.72-4.62,4.62,2.57,8.21-2.06.51-3.59-3.08-1v-2.57l4.62-5.64-.51-3.59,4.62,2.56,7.18-1,7.18-2.57v2l-9.75,6.67,4.11,1.54h5.64l-1,4.11,6.16-3.08-3.08-7.19v-3.07l4.11-3.08-6.16-10.26-4.1-7.7L1728,533l-4.1,2.56-18.47,13.34-4.11-5.13v-7.18l14.88-8.72,4.62-1,5.64-2,14.37-4.62,8.72-1-11.29,8.73,2.06,3.07,11.28-7.69h5.65l14.36-2.57-7.18,6.67-1.54,6.67,6.67,4.11,13.85-9.75,19-2.57,8.21,2.57,2.57,3.08,5.64,1L1825,530l1.54-4.62-4.62-1.54-5.13-10.26,8.21-4.1Z" transform="translate(-151.93 -470.55)" fill="#900"/><polygon points="1717.17 69.67 1717.69 77.36 1713.17 85.57 1706.36 89.17 1701.27 90.19 1702.81 83.01 1697.81 78.17 1694.09 76.85 1694.09 70.66 1699.22 75.83 1704.09 78.17 1707.41 81.87 1713.17 76.26 1710.21 70.66 1709.48 65.56 1706.91 64.03 1703.84 48.63 1712.56 56.33 1721.28 63.51 1726.92 68.64 1730.51 74.8 1726.41 77.36 1717.17 69.67" fill="#900"/></svg>