<svg xmlns="http://www.w3.org/2000/svg" viewBox="0 0 1851.59 611.15"><polygon points="1073.69 101.15 1072.71 92.39 1008.49 40.81 1085.76 0.14 1158.93 53.86 1073.69 101.15" fill="#900"/><polygon points="1030.31 115.27 1072.71 92.39 1002.07 36.34 966.48 52.6 1030.31 105.53 1030.31 115.27" fill="#900"/><polygon points="1030.31 105.53 959.86 47.93 920.3 66.14 985.1 120.05 984.91 130.36 1030.31 105.53" fill="#900"/><polygon points="912.71 60.31 874.73 78.66 940.52 133.54 940.9 143.27 985.1 120.05 912.71 60.31" fill="#900"/><polygon points="869.28 71.86 940.52 133.54 895.41 157.89 893.08 147.77 830.6 90.36 869.28 71.86" fill="#900"/><polygon points="823.21 83.94 785.04 103.5 847.51 164.02 850.31 172.26 893.08 147.77 823.21 83.94" fill="#900"/><polygon points="734.96 116.63 778.81 96.68 847.51 164.02 797.62 188.25 797.04 179.31 734.96 116.63" fill="#900"/><polygon points="672.98 132.09 727.75 109.64 797.04 179.31 744.6 201.76 672.98 132.09" fill="#900"/><polygon points="548.43 183.27 608.17 258.78 608.75 252.36 733.31 191.25 666.55 125.28 548.43 183.27" fill="#900"/><line x1="666.55" y1="125.28" x2="733.31" y2="191.25" fill="none" stroke="#fff" stroke-miterlimit="10" stroke-width="3.15"/><line x1="1072.71" y1="92.39" x2="1002.07" y2="36.34" fill="none" stroke="#fff" stroke-miterlimit="10" stroke-width="3.15"/><line x1="1030.31" y1="105.53" x2="959.86" y2="47.93" fill="none" stroke="#fff" stroke-miterlimit="10" stroke-width="3.15"/><line x1="985.1" y1="120.05" x2="912.71" y2="60.31" fill="none" stroke="#fff" stroke-miterlimit="10" stroke-width="3.15"/><line x1="940.52" y1="133.54" x2="869.28" y2="71.85" fill="none" stroke="#fff" stroke-miterlimit="10" stroke-width="3.15"/><line x1="893.08" y1="147.77" x2="823.21" y2="83.94" fill="none" stroke="#fff" stroke-miterlimit="10" stroke-width="3.15"/><line x1="847.51" y1="164.02" x2="778.81" y2="96.68" fill="none" stroke="#fff" stroke-miterlimit="10" stroke-width="3.15"/><line x1="797.04" y1="179.31" x2="727.75" y2="109.63" fill="none" stroke="#fff" stroke-miterlimit="10" stroke-width="3.15"/><polygon points="639.55 292.69 608.76 252.38 732.97 186 762 220.85 639.55 286.26 639.55 292.69" fill="#900"/><polygon points="670.95 324.08 639.55 286.26 766.47 218.71 794.76 249.72 670.37 317.27 670.95 324.08" fill="#900"/><polygon points="704 357.55 670.37 317.27 800.8 246.8 831.51 280.65 702.64 351.9 704 357.55" fill="#900"/><polygon points="872.04 314.62 837.55 277.54 702.64 351.9 742.01 396.38 740.64 387.81 872.04 314.62" fill="#900"/><polygon points="740.78 387.83 879.97 305.69 913.85 341.99 777.19 423.55 778.36 432.32 740.78 387.83" fill="#900"/><polygon points="777.19 423.55 921.25 337.32 958.2 376.58 817.35 460.18 815.7 468.27 777.19 423.55" fill="#900"/><polygon points="961.46 368.69 817.35 460.18 938.58 611.15 1091.84 503.64 961.46 368.69" fill="#900"/><line x1="732.97" y1="186" x2="608.76" y2="252.38" fill="none" stroke="#fff" stroke-miterlimit="10" stroke-width="3.15"/><line x1="639.55" y1="286.26" x2="766.47" y2="218.71" fill="none" stroke="#fff" stroke-miterlimit="10" stroke-width="3.15"/><line x1="670.37" y1="317.27" x2="800.8" y2="246.8" fill="none" stroke="#fff" stroke-miterlimit="10" stroke-width="3.15"/><line x1="702.64" y1="351.9" x2="837.55" y2="277.54" fill="none" stroke="#fff" stroke-miterlimit="10" stroke-width="3.15"/><line x1="740.78" y1="387.83" x2="879.97" y2="305.69" fill="none" stroke="#fff" stroke-miterlimit="10" stroke-width="3.15"/><line x1="777.19" y1="423.55" x2="921.25" y2="337.32" fill="none" stroke="#fff" stroke-miterlimit="10" stroke-width="3.15"/><line x1="817.35" y1="460.18" x2="961.46" y2="368.69" fill="none" stroke="#fff" stroke-miterlimit="10" stroke-width="3.15"/><polygon points="1007.2 416.68 1007.2 407.58 1060.13 372.5 1060.13 363.35 1109.13 329.85 1110.1 322.02 1154.43 290.73 1155.41 282.36 1196.67 255.88 1197.07 247.3 1197.27 238.35 1165.35 212.07 1166.52 203.32 1134.02 177.24 1133.05 168.68 1103.47 143.18 1103.08 135 1073.1 110.29 1073.42 105.34 1073.69 101.15 1158.93 53.86 1158.54 62.8 1189.09 84.99 1188.7 93.94 1219.64 118.08 1218.87 125.86 1250.59 150.77 1250.59 159.33 1283.48 184.63 1283.29 193 1375.93 265.4 1288.93 324.17 1286.79 332.39 1246.7 361.4 1242.42 368.99 1200.42 403.39 1196.05 412.19 1147.05 450.27 1145.3 458.06 1092.71 494.74 1091.84 503.64 1007.2 416.68" fill="#900"/><polygon points="1375.93 265.4 1288.93 324.17 1197.07 247.3 1283.29 193 1375.93 265.4" fill="#fff"/><polygon points="1250.59 159.33 1165.35 212.07 1197.27 238.35 1283.48 184.63 1250.59 159.33" fill="#fff"/><polygon points="1218.87 125.86 1134.02 177.24 1166.52 203.32 1250.59 150.77 1218.87 125.86" fill="#fff"/><polygon points="1133.05 168.68 1219.64 118.08 1188.7 93.94 1103.47 143.18 1133.05 168.68" fill="#fff"/><polyline points="1072.71 92.39 1073.69 101.15 1158.93 53.86 1085.75 0.14 1062.22 98.06 1072.71 92.39" fill="#fff"/><polygon points="1189.09 84.99 1158.54 62.8 1073.1 110.29 1103.08 135 1189.09 84.99" fill="#fff"/><polygon points="1007.21 407.58 1060.13 372.5 1145.3 458.06 1092.71 494.74 1007.21 407.58" fill="#fff"/><polygon points="1060.13 363.35 1109.13 329.85 1196.05 412.19 1147.05 450.27 1060.13 363.35" fill="#fff"/><polygon points="1154.43 290.73 1110.1 322.02 1200.42 403.39 1242.42 368.99 1154.43 290.73" fill="#fff"/><polygon points="1196.67 255.88 1155.41 282.36 1246.7 361.4 1286.79 332.39 1196.67 255.88" fill="#fff"/><polygon points="989.91 398.13 938.58 611.15 1091.84 503.64 989.91 398.13" fill="#fff"/><line x1="1072.71" y1="92.39" x2="1065.47" y2="86.64" fill="none" stroke="#900" stroke-miterlimit="10" stroke-width="3.15"/><path d="M388.74,607.57H151.93V642.5c30.45-.24,39.48,17.44,38.16,43.79v531.06H388.74Z" transform="translate(-151.93 -607.48)" fill="#900"/><path d="M436.61,932.61l-65.46,65.46,141.92,186.07c11.46,17.78-14,13.46-14,13.46l0,19.75H682.76l-.6-21.68s-25.43,3.75-42.7-14.8Z" transform="translate(-151.93 -607.48)" fill="#900"/><path d="M398.25,988.15a190.34,190.34,0,1,1,0-380.67c21.18,0,68.43,7.65,111.13,36.33,36.13,24.27,79.21,70.69,79.21,154A190.33,190.33,0,0,1,398.25,988.15Z" transform="translate(-151.93 -607.48)" fill="#900"/><circle cx="246.32" cy="190.34" r="122.26" fill="#fff"/><polygon points="290.87 77.97 216.31 34.93 216.31 121.02 290.87 77.97" fill="#fff"/><polygon points="125.24 205.26 120.57 291.22 197.35 252.28 125.24 205.26" fill="#fff"/><polygon points="319.72 188.99 400.37 219.1 333.97 273.89 319.72 188.99" fill="#fff"/><path d="M1803.68,607.57h-272v50.57c35,1.07,82.77,19.39,84.23,47.54v437c-1.46,32.73-47.14,44-84.23,43.37v31.27h272Z" transform="translate(-151.93 -607.48)" fill="#900"/><circle cx="1661.25" cy="190.34" r="162.98" fill="none" stroke="#900" stroke-miterlimit="10" stroke-width="54.72"/><path d="M1735.09,656.32,1791,638.19l55.43,0a162.92,162.92,0,1,1-180.87,90.4Z" transform="translate(-151.93 -607.48)" fill="#fff"/><path d="M1788.05,838l-4.19,2.51-18-7.54-16.75-8c-3.36-25.14-23.89-21.79-23.89-21.79-6.61-10.11-18.25-17.78-33.09-23.88-3.55.37-6.35,2-6.29,8.38l-4.61-1.26c-.42,3.72-.06,7.09,2.1,9.64l-8,16.81v14.19L1690.43,859l10.06,9.63,7.54,26.82,16.76,28.49,8.79,8.8,3.77-11.74.61-.86,4.42.86,13.41-20.53-.84-4.6c3.67-4.78,8.8-7.55,15.92-7.55l5-9.63.42-14.25,13.83-13.82Z" transform="translate(-151.93 -607.48)" fill="#900"/><polygon points="1547.29 152.21 1545.62 148.44 1550.46 152.21 1547.29 152.21" fill="#900"/><polygon points="1541.85 145.93 1537.24 145.09 1535.14 140.48 1530.12 137.55 1533.47 136.71 1537.06 141.32 1541.85 145.93" fill="#900"/><polygon points="1699.59 69.88 1695.66 69.88 1695.66 63.83 1698.33 65.69 1699.59 69.88" fill="#900"/><path d="M1965.49,855.42l-10.06,18-13.41,18-19.9,15.29v-13.5l3.77-17.5-1.88-5,8.17-16.34V838.9l-2.94-1.28.84-4.19-6.28-7.12-.42-4.61,3.77-7.19-.93-5.8-3.26-2.1-5,1.26-11.73-6.28-12.15,6.28-8-1.67-8,4.6-21.37-20.53-5.44-2.93.83-5.44-2.51-3.78,2.93-2.93L1853,766l-2.09-2.51,1.25-2.51-2.93-2.1V756l5.45-8.5.42-3.35,5-6.29h2.49l3.8-5-2.1-1.26.84-3.77,3.35-3.77,3.77-2.94-.42-3.77,2.1-.83,2.51,1.67,6.71-.42,2.09-2.93,5.45-2.1h11.84l4.92,2.1.42,5,21.15,8.59v-7.55l16.34,3.78V715l-2.09-7.43h-2.38l-1,2.51-6.71-.42-6.28-8.38,5.45-5.44,4.61,2.09,1.91-2.09-4.85-3.77-2.09.83-8.8-8.38-5.87,2.1,8.8,12.57-6.28.84,5.44,9.63L1898.87,687l-2.52,4.61,15.09,10.47a34.27,34.27,0,0,1-16.76-9.22l-12.15,9.22.42,6.7-5.45,5.45h-5.63c-5.68-2.93-7.78-3.86-8.61-7.12l1.25-4.61-5-2.93,1.25-4.61c3.45-1.74,9.9-1,17.6.84l-10.89-10.9,7.54-3.77c1.88-6,6.49-8.17,13.57-6.79A18.2,18.2,0,0,1,1901,669l-14.24-9.22L1876.66,656h11.19l4.52-3.08,85.86,63.24,5.62,115.15Z" transform="translate(-151.93 -607.48)" fill="#900"/><path d="M1846.5,638.4v-.15c-11-2.27-123.59-17.33-123.59-17.33L1664.4,730.58l.68,4.18-2.09,5.87-2.1,7.56v10.87l3.77.63v6.07l5.51,7v6.66l5.18,9.17,5.86-2-5.23-.62-3.67-6.5.31-4,3.36-10-5.45-1.68-.63-3.9,5.45-12.57-3.15.14-3.35,8-4-1.89-.22-6.92,6.7-17.59,8-7.13.84,2.94h2.51l.42-2.52,2.93-.84,2.94,2.94.83,3.35-3.35,6.28,2.94,2.94,3.77-8v-5.45l6.28-6.29,7.54-5,2.94-4.61,3.35-4.19,3.77-1.26,1.25-2.51,7.55-1.68.42-3.35,7.12-3.77,3.77,2.09,6.7-1.67.42-2.94-2.51-.83v-2.1l3.77-4.61-.42-2.93,3.77,2.1,5.87-.84,5.86-2.1v1.68l-8,5.45,3.35,1.25h4.61l-.84,3.35,5-2.51-2.51-5.87v-2.51l3.35-2.51-5-8.38-3.35-6.29-3.35-2.09-3.35,2.09-15.09,10.9-3.35-4.19v-5.87l12.15-7.12,3.77-.84,4.61-1.68,11.73-3.77,7.12-.83-9.21,7.12,1.67,2.51,9.22-6.28h4.61l11.73-2.1-5.87,5.45-1.25,5.45,5.44,3.35,11.32-8,15.5-2.1,6.7,2.1,2.1,2.51,4.61.84,5-2.1,1.26-3.77-3.77-1.25-4.19-8.38,6.7-3.35Z" transform="translate(-151.93 -607.48)" fill="#900"/><polygon points="1717.19 56.9 1717.61 63.18 1713.92 69.88 1708.36 72.82 1704.2 73.65 1705.45 67.79 1701.37 63.83 1698.33 62.76 1698.33 57.7 1702.52 61.92 1706.5 63.83 1709.21 66.86 1713.92 62.28 1711.5 57.7 1710.9 53.54 1708.81 52.29 1706.29 39.72 1713.42 46 1720.54 51.87 1725.15 56.06 1728.08 61.09 1724.73 63.18 1717.19 56.9" fill="#900"/></svg>