<svg xmlns="http://www.w3.org/2000/svg" viewBox="2900 190 600 350"><polyline points="2925.57 416.91 3280.24 203.24 3355.94 265.08 3355.38 265.37 3391.68 341.84 3490.83 409.5 3489.38 409.71 3488.45 412.78 3484.83 415.97 3477.1 414.7 3476.84 493.12 3065.94 510.99 2926.36 472.86 2926.36 460.18 2925.57 459.54 2925.57 416.91 2925.57 459.54" fill="#00ff9d"/><path d="M3253.09,380.7l6.46-5.36,3.54-4.25,37.55-79.52-152,3.9-27.66,58.38-5,8.79v.53a38.55,38.55,0,0,1-7.64,6.32v.42l-99.67,64.5,132.54,25.53Z" transform="translate(-98 -25.71)" fill="#ec00ff"/><polyline points="3050.11 269.23 3201.64 265.59 3280.24 203.24 3120.43 216.42 3118.21 217.95 3118.21 218.61 3050.11 269.23" fill="#ec00ff"/></svg>