<svg xmlns="http://www.w3.org/2000/svg" viewBox="0 25 780 785"><circle cx="389" cy="416.29" r="389" fill="#00a4ff"/><path d="M427,538l-10,6-43-18-40-19c-8-60-57-52-57-52-15.79-24.14-43.56-42.44-79-57-8.47.89-15.15,4.75-15,20l-11-3c-1,8.87-.15,16.91,5,23l-19,40.11V512l36,76,24,23,18,64,40,68,21,21,9-28,1.44-2.06L318,736l32-49-2-11c8.76-11.41,21-18,38-18l12-23,1-34,33-33Z" transform="translate(-98 -25.71)" fill="#cfffca"/><polygon points="117 325.29 113 316.29 124.57 325.29 117 325.29" fill="#cfffca"/><polygon points="104 310.29 93 308.29 88 297.29 76 290.29 84 288.29 92.57 299.29 104 310.29" fill="#cfffca"/><polygon points="480.5 128.79 471.13 128.79 471.13 114.35 477.5 118.79 480.5 128.79" fill="#cfffca"/><path d="M774.06,198.5l-4.56,5-11-5-13,13,15,20,16,1,2.33-6h5.67l5,17.73V267.5l-39-9v18L700,256l-1-12-11.74-5H659l-13,5-5,7-16,1-6-4-5,2,1,9-9,7-8,9-2,9,5,3-9.06,12H586l-12,15-1,8-13,20.28V349l7,5-3,6,5,6-1,22-7,7,6,9-2,13,13,7,51,49,19-11,19,4,29-15,28,15,12-3,7.77,5L746,481.85,737,499l1,11,15,17-2,10,7,3.06V577l-19.5,39,4.5,12-9,41.77V702l47.5-36.5,32-43v-16l10-13,14-14,12-39-3-12,10-29,5-31.5,2.73-25,1.22-41.46-6-16-62-111c20.07,16.21,41.09,49.35,63,98l-36-109v-7l-26-36-20-24-20-17-17-18,6.35-7L663,96.15l-10.81,7.35H625.5l24,9,34,22a43.46,43.46,0,0,0-29.61,12.78C637,144,626,149.15,621.5,163.5l-18,9,26,26c-18.37-4.31-33.76-6.15-42-2l-3,11,12,7-3,11c2,7.79,7,10,20.56,17H627.5l13-13-1-16,29-22c11.83,12,25.47,18.4,40,22l-36-25,6-11,63,54-13-23,15-2-21-30,14-5,21,20,5-2Z" transform="translate(-98 -25.71)" fill="#cfffca"/><path d="M566.5,61.5l0-.35A390.27,390.27,0,0,0,487,53c-156.12,0-290.76,92-352.69,224.68l-1.81,4.82,1,9-5,14-5,18.05V349.5l9,1.5v14.5l13.14,16.61V398L158,419.89,172,415l-12.5-1.5L150.74,398l.76-9.5,8-24-13-4L145,351.2l13-30-7.5.33-8,19L133,336l-.54-16.5,16-42,19-17,2,7h6l1-6,7-2,7,7,2,8-8,15,7,7,9-19v-13l15-15,18-12,7-11,8-10,9-3,3-6,18-4,1-8,17-9,9,5,16-4,1-7-6-2v-5l9-11-1-7,9,5,14-2,14-5v4l-19,13,8,3h11l-2,8,12-6-6-14v-6l8-6-12-20-8-15-8-5-8,5-36,26-8-10v-14l29-17,9-2,11-4,28-9,17-2-22,17,4,6,22-15h11l28-5-14,13-3,13,13,8,27-19,37-5,16,5,5,6,11,2,12-5,3-9-9-3-10-20,16-8Z" transform="translate(-98 -25.71)" fill="#cfffca"/><polygon points="522.5 97.79 523.5 112.79 514.7 128.79 501.43 135.79 491.5 137.79 494.5 123.79 484.75 114.35 477.5 111.79 477.5 99.72 487.5 109.79 497 114.35 503.47 121.57 514.7 110.64 508.92 99.72 507.5 89.79 502.5 86.79 496.5 56.79 513.5 71.79 530.5 85.79 541.5 95.79 548.5 107.79 540.5 112.79 522.5 97.79" fill="#cfffca"/></svg>