<svg xmlns="http://www.w3.org/2000/svg" viewBox="850 0 960 700"><path d="M1775.53,237.62l.22-9.2-36.14-27.8v-9.41l-34.85-27.37.85-8.55-34-26.51.43-9.84-33.57-24.38.43-9.83L968.12,226.92l5.45,20.21,66.07,84,247.08,250.92,110.87,129.8L1571.11,589,1815.2,373.82l58.7-40.09,3.42-16.57ZM1472.17,484.8,1127.85,290.11l410.23-131.18,138.08,154-35.12,19-1.07,9.2-40.84,25.44-1.07,8.56L1557,401.19l.48,9.31-42.71,25.12v10.05l-42.71,27.64Z" transform="translate(-98 -25.71)" fill="#8f00ff"/><polygon points="1510.32 513.94 1467.98 543.34 1374.06 447.6 1416.77 419.96 1510.32 513.94" fill="lime"/><polygon points="1416.77 409.91 1459.48 384.79 1554.96 475.23 1512.24 505.38 1416.77 409.91" fill="lime"/><polygon points="1597.13 437.71 1557.36 468.29 1459 375.48 1500.06 349.4 1597.13 437.71" fill="lime"/><polygon points="1638.62 401.36 1600.34 430.22 1501.13 340.84 1541.97 315.4 1638.62 401.36" fill="lime"/><polygon points="1681.17 365.01 1643.32 393.02 1543.04 306.2 1582.17 280.97 1681.17 365.01" fill="lime"/><polygon points="1779.32 291.45 1683.74 356.02 1582.81 271.56 1677.54 211.9 1779.32 291.45" fill="lime"/><polygon points="1641.61 174.91 1547.95 232.86 1583.02 261.73 1677.75 202.71 1641.61 174.91" fill="lime"/><polygon points="1606.76 138.13 1641.61 165.5 1549.24 223.24 1513.53 194.58 1606.76 138.13" fill="lime"/><polygon points="1573.61 103.06 1479.96 157.16 1512.46 185.18 1607.61 129.58 1573.61 103.06" fill="lime"/><polygon points="1540.9 59.02 1460.5 0 1375.61 44.69 1447.24 110.98 1540.9 59.02" fill="lime"/><polygon points="1574.04 93.23 1540.47 68.85 1446.6 121.03 1479.53 148.18 1574.04 93.23" fill="lime"/><polyline points="1368.55 39.77 1335.84 54.95 1405.97 123.81 1446.17 101.36" fill="#3fff00"/><polygon points="1328.57 49.82 1293.93 66.5 1364.92 137.06 1405.97 113.11 1328.57 49.82" fill="#64ff00"/><polygon points="1285.59 60.09 1250.09 79.33 1322.79 150.32 1365.13 125.73 1285.59 60.09" fill="#70ff00"/><polygon points="1244.1 71.85 1205.83 90.88 1278.53 163.58 1322.37 139.63 1244.1 71.85" fill="#89ff00"/><polygon points="1198.56 83.61 1160.71 103.71 1231.92 177.91 1276.82 153.31 1198.56 83.61" fill="#9cff00"/><polygon points="1152.59 96.65 1111.74 116.54 1183.59 193.51 1229.35 166.79 1152.59 96.65" fill="#afff00"/><polygon points="1061.07 130.86 1104.9 109.05 1180.38 183.04 1129.92 209.55 1061.07 130.86" fill="#c8ff00"/><polygon points="1006.97 144.98 1053.15 123.17 1129.28 199.72 1085.66 221.53 1006.97 144.98" fill="#e0ff00"/><polygon points="870.12 201.21 935.76 284.18 1073.26 209.98 999.91 137.49 870.12 201.21" fill="#ff4800"/><polygon points="962.28 310.27 936.4 277.12 1072.83 204.21 1096.78 231.36 962.28 310.27" fill="#ff2a00"/><polygon points="990.5 338.06 962.28 303.21 1101.69 229.01 1126.5 256.38 990.5 338.06" fill="#ff1200"/><polygon points="1020.65 368.64 989.86 330.58 1133.13 253.17 1160.71 284.18 1020.65 368.64" fill="red"/><polygon points="1196.63 313.9 1167.34 280.76 1019.16 362.44 1053.8 403.71 1196.63 313.9" fill="#ff001f"/><polygon points="1052.3 394.3 1202.41 308.98 1232.98 342.55 1088.01 437.28 1052.3 394.3" fill="#ff005c"/><polygon points="1086.94 429.15 1239.83 338.92 1273.61 375.91 1124.79 475.13 1086.94 429.15" fill="#ff00a4"/><polygon points="1123.5 465.5 1281.74 370.78 1320.23 413.55 1163.7 514.26 1123.5 465.5" fill="#ff00ed"/><polygon points="1165.52 505.38 1298.68 671.21 1467.02 553.12 1323.81 404.88 1165.52 505.38" fill="lime"/></svg>