<svg xmlns="http://www.w3.org/2000/svg" viewBox="0 0 2159.9342 816.1611"><defs><style>.a{fill:#900300;}.b{fill:#2dd8ff;}.c{fill:#375d00;}.d{fill:#fff;}.e{fill:#ffaf00;}</style></defs><path class="a" d="M631.302,1852.5926a128.3411,128.3411,0,0,1-46.3476-34.5576L396.31,1601.7449q85.3785-15.4365,124.4078-60.9843,39.03-45.5274,39.03-113.0235,0-73.98-64.2363-115.4629-64.2429-41.47-182.1392-41.47H32.032v32.5244q25.1939,1.6407,40.25,5.2862,15.0359,3.6576,23.1738,13.8232,8.1183,10.1763,10.57,27.6455,2.44,17.4946,2.4394,45.9414v375.6621q0,28.4722-3.2524,46.7549-3.2586,18.2945-12.6035,28.459-9.3567,10.1763-26.02,13.8232-16.6758,3.6592-43.5019,3.6592v32.5244h322.809v-32.5244q-39.03,0-62.2041-3.6592t-35.3706-14.23q-12.197-10.5585-16.2622-29.68-4.0788-19.0957-4.0659-49.1934V1608.25q12.9976,0,28.0528,8.5381,15.0366,8.5371,35.3706,32.9316L493.0716,1896.908H685.781v-32.5244A134.1779,134.1779,0,0,1,631.302,1852.5926Z" transform="translate(-23.0877 -1223.2917)"/><circle class="b" cx="295.2675" cy="220.1328" r="112.4734"/><polyline class="c" points="258.795 113.624 258.795 154.427 330.058 113.284"/><polyline class="b" points="330.058 113.284 258.795 72.14 258.795 113.624"/><polyline class="c" points="405.902 240.574 364.402 220.961 371.151 302.971"/><polyline class="b" points="371.151 302.971 438.799 256.121 405.902 240.574"/><polyline class="c" points="208.813 292.081 248.399 275.521 182.941 225.657"/><polyline class="b" points="182.941 225.657 172.487 307.277 208.813 292.081"/><path class="d" d="M1503.99,1444.772l.2195-9.6055-37.774-29.0569v-9.8354l-36.4255-28.6074.8884-8.9366-35.5372-27.719.4495-10.2744-35.0891-25.4787.45-10.2745-84.0337-61.6918-91.01,47.912-6.9415-5.5013-41.525,18.9721-6.9256-5.6631-45.8155,21.0936-8.3009-6.85-41.8159,20.2108-8.0433-6.9652-44.6668,21.3733-8.1753-7.47-43.2693,22.172-7.7668-7.6134L872.33,1357.9611l-8.1379-8.1827L801.67,1375.414l-7.663-7.5732-133.941,65.7579,68.6076,86.7211.648-7.4065,35.3966,46.3393L764.7,1551.85l36.0748,43.46-.686-7.8406,38.6406,46.27-1.5578-6.482,45.2056,51.0787-1.5423-9.8526,43.2924,51.1282-1.3439-10.0625L967,1760.8906l1.894-9.2951,139.2271,173.3855L1284.12,1801.5186l1.0037-10.225L1345.52,1749.17l2.0074-8.9495,56.2776-43.7333,5.0149-10.1032,48.2343-39.5027,4.9139-8.7194,46.0442-33.3111,2.4577-9.4427,99.8916-67.5122Zm-99.0128,62.3573-.4686,9.8577-47.3825,30.4048-1.1187,9.6185-50.9107,35.927-1.1153,8.995-56.2671,38.4744v10.5073l-60.7837,40.2839v9.7168l-51.2552-53.0544-7.7038,4.8912-38.4861-40.8912-8.6719,5.1909-38.7374-41.5135-12.0411,7.1063-36.6736-39.42-6.8044,3.7508-35.4133-39.0393-6.689,3.6142-32.728-35.8765-5.05,2.6878-20.053-24.0687,58.972-25.2542.6474,10.2837,57.4379-27.8967,3.0673,9.5259,49.1674-28.1454,2.6341,11.6526,51.8452-27.9906.3894,11.2,50.7743-26.6778-.2344,11.85,52.1644-28.5331-.0289,11.1995,47.031-25.3664,3.582-1.6939-.7964,10.8469-.669,10.5044,34.42,28.3739.4493,9.386,33.9694,29.2868,1.1185,9.8251,37.3244,29.9557-1.3483,10.0549,36.6556,30.1753Z" transform="translate(-23.0877 -1223.2917)"/><polygon class="e" points="1273.94 154.879 1274.389 164.265 1372.273 107.72 1372.723 97.445 1273.94 154.879"/><polygon class="e" points="1308.359 193.552 1309.477 203.377 1406.922 144.375 1407.811 135.438 1308.359 193.552"/><polygon class="e" points="1346.802 233.333 1345.453 243.388 1443.348 182.818 1443.348 172.982 1346.802 233.333"/><polygon class="e" points="1382.109 273.563 1381.889 283.838 1480.902 221.48 1481.122 211.875 1382.109 273.563"/><polygon class="e" points="1587.274 304.604 1487.382 372.116 1381.889 283.838 1381.421 293.695 1484.925 381.559 1585.443 312.432 1587.274 304.604"/><polygon class="e" points="1334.038 324.1 1332.919 333.719 1433.967 423.589 1438.88 414.87 1334.038 324.1"/><polygon class="e" points="1282.009 369.646 1280.894 378.641 1380.717 473.195 1385.732 463.092 1282.009 369.646"/><polygon class="e" points="1224.626 417.115 1224.626 427.622 1322.432 525.878 1324.44 516.929 1224.626 417.115"/><polygon class="e" points="706.056 291.833 706.399 287.554 842.19 214.985 770.919 144.549 636.978 210.307 705.585 297.028 706.056 291.833 706.056 291.833"/><polygon class="e" points="1087.697 164.376 1136.722 138.617 1053.531 69.963 1015.257 88.462 1087.262 150.816 1087.355 155.677 1087.355 155.677 1087.697 164.376"/><polygon class="e" points="1107.647 55.72 1065.475 75.136 1138.528 135.423 1138.413 140.009 1138.237 149.548 1188.662 121.966 1107.647 55.72"/><polygon class="e" points="1254.049 0 1166.529 46.075 1240.985 105.154 1240.189 116.001 1338.083 61.692 1254.049 0"/><polygon class="e" points="881.227 252.234 863.536 231 920.7 206.521 841.105 126.487 782.214 150.633 845.526 213.202 848.056 211.85 850.364 214.705 707.382 291.125 741.63 335.961 741.63 330.626 741.595 326.552 881.227 252.234"/><polygon class="e" points="1031.129 170.486 950.829 97.112 910.95 117.547 979.647 184.888 981.616 191.641 983.661 197.659 1031.129 170.486"/><polygon class="e" points="899.793 111.67 852.75 133.073 922.355 203.061 922.665 208.496 923.155 216.03 978.723 189.041 899.793 111.67"/><polygon class="e" points="1035.462 181.166 1085.558 154.12 1003.672 83.209 962.52 102.9 1032.204 166.573 1033.493 172.645 1033.493 172.645 1035.462 181.166"/><polygon class="e" points="1112.588 424.569 1261.032 578.227 1085.033 701.689 946.953 529.732 1112.588 424.569"/><polygon class="e" points="1156.098 42.411 1118.234 59.71 1190.407 118.726 1190.372 132.214 1237.403 106.848 1156.098 42.411"/><polygon class="e" points="945.311 530.775 946.294 525.871 1102.363 426.781 1066.398 388.569 900.887 487.64 943.912 537.599 945.311 530.775 945.311 530.775"/><polygon class="e" points="777.186 366.16 776.821 362.25 918.857 285.507 888.639 252.381 742.808 329.999 777.687 372.018 777.186 366.16 777.186 366.16"/><polygon class="e" points="814.521 405.786 814.521 405.786 814.084 403.965 814.099 403.982 813.666 402.133 960.975 320.933 928.056 284.644 778.199 365.612 815.642 410.447 814.521 405.786 814.521 405.786"/><polygon class="e" points="899.696 486.257 899.437 484.297 1055.204 391.057 1018.988 352.246 859.063 446.628 901.039 496.319 899.691 486.251 899.696 486.257"/><polygon class="e" points="858.044 447.229 858.044 447.228 857.721 445.205 857.747 445.191 857.481 443.366 1004.427 356.644 970.274 319.932 815.311 405.351 859.289 455.043 858.044 447.229 858.044 447.229"/><path class="a" d="M2119.599,1314.7137q-63.4233-43.91-187.0185-43.9092h-281.34v32.5244q24.394,1.6407,39.4365,5.2862,15.0367,3.6576,23.1739,13.8232,8.1181,10.1763,10.9775,27.6455,2.8389,17.4946,2.8457,45.9414v375.6621q0,28.4722-3.2519,46.3477-3.2594,17.8959-12.1973,27.6465-8.9575,9.7572-26.0195,13.8232-17.0757,4.0782-43.9092,4.8789v32.5244h322.81v-32.5244q-38.23,0-60.9844-3.2529-22.7739-3.24-35.7774-13.8233-13.0166-10.557-17.0752-29.6787-4.0781-19.0956-4.0654-50.0068V1624.5125h69.1152q130.0856,0,198.4014-45.9414,68.3013-45.9286,68.3018-133.7578Q2183.0219,1358.6337,2119.599,1314.7137Z" transform="translate(-23.0877 -1223.2917)"/><circle class="b" cx="1945.585" cy="1444.2292" r="130.18" transform="matrix(0.1602, -0.9871, 0.9871, 0.1602, 185.2683, 1910.0598)"/><path class="c" d="M1894.413,1465.971c-2.6751-20.07-19.0634-17.3939-19.0634-17.3939-5.281-8.0737-14.5688-14.1942-26.4219-19.0639-5.2969-1.1077-3.15,8.8-8.6948,5.6863,1.8133,6.4093-.897,15.3953-4.6863,21.107-1.8408,13.325,9.8124,36.2508,20.07,44.4459,3.2808,16.2449,13.6143,40.1113,26.4231,51.1709.1451-.4893,3.1246-10.0682,3.4911-10.0535,4.37,4.4345,12.1291-14.2316,14.2359-15.7-2.7781-10.7429,15.0828-6.7438,16.05-17.3921-3.1879-19.44,15.7365-14.51,9.7013-32.4413C1917.8937,1480.887,1902.3718,1468.1811,1894.413,1465.971Z" transform="translate(-23.0877 -1223.2917)"/><path class="c" d="M1853.2756,1410.7837l1.3378,3.01C1859.5812,1414.4258,1854.2236,1411.964,1853.2756,1410.7837Z" transform="translate(-23.0877 -1223.2917)"/><path class="c" d="M1844.9148,1404.4282c.61,2.6008,2.5651,4.517,5.3507,4.3488a49.2709,49.2709,0,0,1-6.69-7.3572C1838.0614,1402.1318,1843.6454,1403.0265,1844.9148,1404.4282Z" transform="translate(-23.0877 -1223.2917)"/><path class="c" d="M1976.1877,1348.0735c-.2689-1.7061-1.34-4.2224-3.1338-4.8305C1973.1424,1345.9114,1972.1772,1349.1357,1976.1877,1348.0735Z" transform="translate(-23.0877 -1223.2917)"/><path class="c" d="M2005.1819,1331.0162c-9.2581.0846-10.9017-.661-.9012,3.0087,9.7759,7.39,14.1457,4.5131,1.47,11.6341-9.0943-2.5789-9.6175,6.6421-16.8532,8.4347l8.696,8.6953c-7.67-1.2462-14.423-4.032-15.05,3.0108,7.9851,2.6021-2.55,11.4289,14.382,11.7066,9.0155-7.897-1.7429-7.7857,13.7114-17.0581a27.3659,27.3659,0,0,0,13.3788,7.36c-1.778-2.5339-16.3806-7.5573-10.0343-12.0425l21.07,18.0616c-1.0937-4.1547-8.6776-8.6.6691-8.3609-1.1532-3.84-12.0577-10.7941-2.3405-11.7074l7.0237,6.69c1.6428-1.8528,4.2066,1.7861,5.5375,2.34-.99,2.4486-3.6358.88-5.2032,0l-4.3475,4.3474c1.6666,3.2,8.838,11.2138,11.1476,5.0169,4.6674-.3536,3.2641,10.5016,3.5679,13.7131l-13.0458-3.0083c3.6314,12.6645-12.6016-.9515-16.8887-.8379,1.5173-7.5426-9.33-5.3259-13.7119-5.6863-4.4317,1.1313-8.6647,7.1965-13.3777,3.0114-2.2456.065-1.4052,2.2988-1.338,3.6784a30.2375,30.2375,0,0,0-5.6854,5.3506c-.4269,1.5108-1.1,3.5457,1.0032,4.0134-1.0054,1.1548-2.9436,5.0048-5.0171,4.014-3.6978,3.4891-5.42,10.5517-8.695,14.4749-.6132,1.82.9925,3.135,2.3412,3.92-1.3605,1.5076-.53,2.8113.668,4.0135l-.3349,7.3582c-4.5625,3.2512,1.2848,4.3711-1.005,9.6994,8.096,1.2781,19.2962,25.5869,27.7615,15.0512,12.0924,4.18,12.246-9.0408,25.4183,1.3375,4.5606-2.1594,7.4752.5107,7.3592,5.3-1.3288,2.1643-3.823,6.7767-2.6772,9.4144,1.6837,2.0331,6.4876,5.939,4.3492,9.03,7.2051,4.2548-.9366,20.7583-4.1818,26.4221,2.9464,3.1589-1.0947,14.2514-1.5043,17.9841l-.0014,10.7781c14.3359-8.5646,27.6586-26.0231,34.6175-40.9693.0891-.042.1727-.0941.2607-.138a129.5342,129.5342,0,0,0,8.3445-45.85c0-52.25-28.9619-93.0756-68.02-114.2276C2006.293,1329.7084,2005.3851,1329.9933,2005.1819,1331.0162Z" transform="translate(-23.0877 -1223.2917)"/><path class="c" d="M1824.011,1413.2925c5.5924.039.4413,5.0111,7.4057,10.9057-.5192,4.9131,2.408,15.7376,8.8147,11-4.5748.7135-7.8456-4.7339-6.8557-8.8629,7.4391-16.1154-9.1516-.8929,2.1744-22.5085-3.1261-1.4048-4.2,4.805-5.185,6.466-8.4612-1.75,1.0909-16.4891,1.9932-21.0821l6.3552-5.685c.3977,1.5543.7076,2.8575,2.6761,2.34,1.7094-6.8807,8.78,1.4224,3.0083,7.3581,3.5536,5.393,3.5025-2.03,5.3536-4.0127-1.5358-6.23,6.8378-10.3793,11.0362-13.3785,1.92-2.884,4.158-7.6062,8.0268-8.0264.5105-4.0482,8.4018-1.1568,7.3574-6.02,6.6756-4.9871,7.2606.0637,14.0477-2.6756.4614-1.6938.312-2.8045-1.6729-3.01-.6566-2.7485,4.27-4.76,2.6757-7.6928,3.2943,3.01,8.7945.6461,12.3754-.6693,1.624,3.0326-11.2938,5.3715-3.68,6.6883,2.3915.0925,4.5724-.6468,3.01,2.6766,4.4753-1.4286,3.9985-2.9858,2.0065-6.6894-.6954-1.7916,1.4429-3.202,2.6772-4.013-1.7777-2.76-5.219-8.8194-6.6895-11.706-6.1582-6.2339-21.0623,20.1681-20.067.6684,5.6757-4.8723,43.547-18.5734,24.0806-5.6854.6849,4.8375,7.0286-2.7288,8.6969-3.01,2.6061.2839,10.4179-1.1224,13.0428-1.6729-12.4449,10.6616-1.1341,14.2531,7.6911,5.0159,4.7691-.3605,16.4-3.7957,19.3986,2.0085,3.2642,1.216,8.455.12,8.6961-4.0141-14.2879-8.9413.89-11.2926,9.9762-11.081a129.4057,129.4057,0,0,0-26.8526-2.8757,130.1286,130.1286,0,0,0-110.3487,61.02C1827.2584,1391.87,1821.8517,1406.6808,1824.011,1413.2925Z" transform="translate(-23.0877 -1223.2917)"/><path class="c" d="M1979.8661,1351.0831c6.7085-.3133,12.1337-6.7363,10.3687-13.3777,2.1259,1.3028,6.1563,7.097,8.6955,3.3447-1.9541-4.7581-7.9133-8.8263-11.7062-12.04-8.52-8.6331-4.3772-1.224-3.6777,5.0162,2.7022,1.0355,2.0164,5.9039,4.08,7.9764-2.0943,1.7858-3.8681,5.28-5.92,1.24-3.9781.0983-7.4126-9.7669-6.5234-.8542C1979.4116,1343.29,1981.8345,1347.097,1979.8661,1351.0831Z" transform="translate(-23.0877 -1223.2917)"/><path class="a" d="M149.0076,2038.3836v-59.2012c10.2518-.5182,19.6637-2.1922,27.189,3.7832,10.045,7.6374,4.833,23.96-4.7393,29.8086,6.8025,8.0957,13.8115,22.63,24.9443,23.6143l-.083,2.66c-16.2267-1.5288-15.025-8.2864-28.52-24.6114q-8.15,0-14.8-.499v24.4453Zm16.38-27.2724c17.6654-5.2356,18.1789-33.9848-12.3887-28.6026v28.1865Q159.65,2011.1127,165.3875,2011.1112Z" transform="translate(-23.0877 -1223.2917)"/><polygon class="a" points="179.632 815.092 179.632 761.129 204.826 761.129 204.826 764.455 183.457 764.455 183.457 784.078 202.747 784.078 202.747 787.32 183.457 787.32 183.457 811.6 205.657 811.6 205.657 815.092 179.632 815.092"/><path class="a" d="M254.9363,1986.7488c-9.7242-.787-13.5641,10.12-6.4017,16.2973,6.7813,7.04,20.4164,11.16,20.5367,22.3667.6356,15.6623-21.8119,17.1933-31.3464,9.6446l1.9951-2.91c18.1587,12.0272,37.8252-5.9827,15.0906-19.3731-26.1765-14.3786-11.9956-37.6458,13.4294-26.6074l-1.4136,3.0762A26.999,26.999,0,0,0,254.9363,1986.7488Z" transform="translate(-23.0877 -1223.2917)"/><path class="a" d="M284.3689,2038.3836v-53.63c38.116-7.9489,39.6211,30.6353,6.7354,31.2637v-2.6611c26.6942-.22,24.8709-31.4666-2.91-25.6094v50.6367Z" transform="translate(-23.0877 -1223.2917)"/><path class="a" d="M352.1341,2039.2147c-35.8875-.0706-35.8819-55.557.0009-55.625C388.0215,1983.663,388.0165,2039.1485,352.1341,2039.2147Zm.0419-52.2159c-30.5863-.3186-30.6388,49.0869.0011,48.7236C382.7194,2036.0989,382.6625,1986.66,352.176,1986.9988Z" transform="translate(-23.0877 -1223.2917)"/><path class="a" d="M395.9524,2038.3836v-54.2949h1.83c3.6007,4.2892,38.4638,43.8257,40.6592,47.2275-.3479-4.1938-.0923-41.6494-.1665-46.8955h3.8247v54.2959H440.27c-2.5989-3.0246-39.789-45.4674-40.6592-46.9785.3533,4.06.0887,41.4834.1665,46.6455Z" transform="translate(-23.0877 -1223.2917)"/><path class="a" d="M472.947,1986.7488c-9.7241-.787-13.5641,10.12-6.4016,16.2973,6.7812,7.04,20.4163,11.16,20.5366,22.3667.6357,15.6623-21.8119,17.1933-31.3464,9.6446l1.9951-2.91c18.1587,12.0272,37.8253-5.9827,15.0906-19.3731-26.1764-14.3786-11.9956-37.6458,13.43-26.6074l-1.4136,3.0762A26.9991,26.9991,0,0,0,472.947,1986.7488Z" transform="translate(-23.0877 -1223.2917)"/><rect class="a" x="479.2925" y="761.129" width="3.8252" height="53.9629"/><path class="a" d="M526.0769,1984.6707c7.217-.3519,16.6482-1.8828,22.8242,2.4941,8.1737,5.3151,3.9549,18.3786-3.5341,22.2833,11.3857,2.2862,17.2,18.2421,8.0232,25.6929-6.0829,5.3512-19.9266,3.4681-27.3133,3.0766Zm23.5308,11.1416c-.1385-9.6-13.1822-8.7625-19.7061-8.2314v20.3711q7.2342,0,11.5576.415C545.7724,2006.041,549.7586,2001.0367,549.6077,1995.8123Zm-15.9644,15.2989-3.7417.083v23.8632C560.44,2040.906,562.6,2011.6351,533.6433,2011.1112Z" transform="translate(-23.0877 -1223.2917)"/><polygon class="a" points="550.632 815.092 550.632 761.129 554.457 761.129 554.457 811.6 579.235 811.6 579.235 815.092 550.632 815.092"/><polygon class="a" points="590.542 815.092 590.542 761.129 615.736 761.129 615.736 764.455 594.367 764.455 594.367 784.078 613.657 784.078 613.657 787.32 594.367 787.32 594.367 811.6 616.567 811.6 616.567 815.092 590.542 815.092"/><path class="a" d="M713.9871,2039.3817c-51.3935-4.0118-36.8481-78.9673,17.6274-58.12l-1.081,3.3252c-60.0853-20.8313-56.5687,68.7324.416,48.1426l1.2471,2.8272C727.579,2038.2557,719.5776,2039.3791,713.9871,2039.3817Z" transform="translate(-23.0877 -1223.2917)"/><path class="a" d="M769.6961,2039.2147c-35.8875-.0706-35.8819-55.557.001-55.625C805.5835,1983.663,805.5785,2039.1485,769.6961,2039.2147Zm.042-52.2159c-30.5864-.3186-30.6389,49.0869.001,48.7236C800.2814,2036.0989,800.2246,1986.66,769.7381,1986.9988Z" transform="translate(-23.0877 -1223.2917)"/><path class="a" d="M813.5144,2038.3836v-54.2949h1.83c3.6007,4.2892,38.4638,43.8257,40.6592,47.2275-.3479-4.1938-.0923-41.6494-.1665-46.8955h3.8247v54.2959h-1.8291c-2.5989-3.0246-39.789-45.4674-40.6592-46.9785.3533,4.06.0888,41.4834.1665,46.6455Z" transform="translate(-23.0877 -1223.2917)"/><path class="a" d="M890.51,1986.7488c-9.7241-.787-13.5641,10.12-6.4016,16.2973,6.7812,7.04,20.4163,11.16,20.5366,22.3667.6357,15.6623-21.8119,17.1933-31.3464,9.6446l1.9951-2.91c18.1587,12.0272,37.8253-5.9827,15.0906-19.3731-26.1764-14.3786-11.9956-37.6458,13.43-26.6074L902.4,1989.243A26.9991,26.9991,0,0,0,890.51,1986.7488Z" transform="translate(-23.0877 -1223.2917)"/><path class="a" d="M958.3567,2032.8123c-6.4272,8.5423-26.9982,8.5423-33.4253,0-8.8276-8.4671-4.5418-36.9733-5.4878-48.3913h3.8247c1.4225,15.8928-7.2647,53.2146,18.3756,51.3849,25.621,1.8607,16.9667-35.5439,18.3754-51.3849h3.8247C962.9033,1995.93,967.1745,2024.2724,958.3567,2032.8123Z" transform="translate(-23.0877 -1223.2917)"/><path class="a" d="M1008.3274,2035.5565h-2.2446c-1.2217-3.1507-17.2534-41.4546-17.7105-43.4034-.1317,1.7834-6.5306,43.1236-6.9843,46.23h-3.7417l8.8134-54.2949h2.2452c1.2648,3.1895,18.3576,43.0349,18.7915,45.0654.5171-1.9512,19.6294-42.0293,20.9531-45.0654h2.2446l8.2319,54.2949h-3.9912c-.4017-3.444-6.58-44.1277-6.4853-46.3965C1027.7874,1993.8955,1009.7918,2032.3656,1008.3274,2035.5565Z" transform="translate(-23.0877 -1223.2917)"/><path class="a" d="M1053.2259,2038.3836v-53.63c38.1159-7.9489,39.621,30.6353,6.7353,31.2637v-2.6611c26.6942-.22,24.8709-31.4666-2.91-25.6094v50.6367Z" transform="translate(-23.0877 -1223.2917)"/><polygon class="a" points="1083.686 764.538 1065.393 764.538 1065.393 761.129 1105.72 761.129 1105.72 764.538 1087.427 764.538 1087.427 815.092 1083.686 815.092 1083.686 764.538"/><rect class="a" x="1117.0273" y="761.129" width="3.8252" height="53.9629"/><path class="a" d="M1187.7586,2039.2147c-35.8879-.0711-35.8823-55.5565.001-55.625C1223.646,1983.6629,1223.641,2039.1486,1187.7586,2039.2147Zm.042-52.2159c-30.5866-.3184-30.6391,49.0866.001,48.7236C1218.3439,2036.0989,1218.2871,1986.66,1187.8006,1986.9988Z" transform="translate(-23.0877 -1223.2917)"/><path class="a" d="M1231.5769,2038.3836v-54.2949h1.8291c3.6,4.2894,38.4644,43.8253,40.6592,47.2275-.3467-4.1938-.0921-41.6494-.166-46.8955h3.8252v54.2959h-1.83c-2.5989-3.0246-39.789-45.4674-40.6592-46.9785.3547,4.06.0888,41.4834.167,46.6455Z" transform="translate(-23.0877 -1223.2917)"/><path class="a" d="M1330.2713,2019.6756l-7.7334,18.708h-3.9073l22.6162-54.2949h2.2442l22.7832,54.2949h-4.2412l-7.8154-18.708Zm11.89-29.4346c-1.4087,4.7957-8.6371,21.4164-10.56,26.1914h21.2862C1351.2109,2012.2927,1343.38,1993.7344,1342.1609,1990.241Z" transform="translate(-23.0877 -1223.2917)"/><path class="a" d="M1377.2488,2038.3836v-54.2949h1.8291c3.6,4.2894,38.4644,43.8253,40.6592,47.2275-.3467-4.1938-.0921-41.6494-.166-46.8955h3.8252v54.2959h-1.83c-2.5989-3.0246-39.789-45.4674-40.6592-46.9785.3547,4.06.0888,41.4834.167,46.6455Z" transform="translate(-23.0877 -1223.2917)"/><path class="a" d="M1458.9822,1983.9217c25.9446-1.5424,38.8915,31.42,21.4939,48.4765-9.3068,8.6273-24.6832,6.801-37.1257,5.8194v-53.7969Q1450.0022,1983.9227,1458.9822,1983.9217Zm1.6631,51.6348c22.98,1.9257,30.9589-27.1978,16.2544-41.4082-6.692-7.6078-21.0346-7.3026-29.5581-6.4844v47.3105A120.03,120.03,0,0,0,1460.6453,2035.5565Z" transform="translate(-23.0877 -1223.2917)"/><path class="a" d="M1535.7263,2038.3836v-59.1182c42.8908-8.3041,42.5216,34.1,7.4,34.4239v-2.7442c29.6388-.523,27.7112-34.7112-3.4091-28.4365v55.875Z" transform="translate(-23.0877 -1223.2917)"/><path class="a" d="M1583.0369,2038.3836v-53.7129c9.2469-.5373,17.9289-2.06,24.7783,3.3672,9.0929,6.9288,4.4548,21.6894-4.24,27.0645,11.2828,13.4587,10.4537,18.162,22.5322,21.2861l-.083,2.5771c-14.9853-1.3663-14.0442-7.8707-25.9414-22.2832q-6.7353,0-13.2207-.416v22.1172Zm14.9668-24.8613c16.8611-5.5818,14.9917-30.746-11.1416-25.7754v25.36Q1592.8489,2013.5233,1598.0037,2013.5223Z" transform="translate(-23.0877 -1223.2917)"/><path class="a" d="M1655.4578,2039.2147c-35.8879-.0711-35.8823-55.5565.001-55.625C1691.3452,1983.6629,1691.34,2039.1486,1655.4578,2039.2147Zm.042-52.2159c-30.5866-.3184-30.6391,49.0866.001,48.7236C1686.0431,2036.0989,1685.9863,1986.66,1655.5,1986.9988Z" transform="translate(-23.0877 -1223.2917)"/><path class="a" d="M1714.908,1983.9217c25.9446-1.5424,38.8915,31.42,21.4939,48.4765-9.3068,8.6273-24.6832,6.801-37.1258,5.8194v-53.7969Q1705.928,1983.9227,1714.908,1983.9217Zm1.6631,51.6348c22.98,1.9257,30.9589-27.1978,16.2544-41.4082-6.692-7.6078-21.0347-7.3026-29.5581-6.4844v47.3105A120.03,120.03,0,0,0,1716.5711,2035.5565Z" transform="translate(-23.0877 -1223.2917)"/><path class="a" d="M1799.1365,2032.8123c-6.4272,8.5427-26.9979,8.5419-33.4248,0-8.8285-8.4669-4.5421-36.9731-5.4883-48.3913h3.8252c1.4225,15.8932-7.2649,53.2146,18.3761,51.3849,25.62,1.8606,16.9664-35.5443,18.3749-51.3849h3.8252C1803.6838,1995.93,1807.956,2024.2726,1799.1365,2032.8123Z" transform="translate(-23.0877 -1223.2917)"/><path class="a" d="M1866.07,2035.7225c-57.6977,22.5337-62.3041-70.1247-.582-49.2227l-.9971,3.1592c-54.0669-18.987-51.1794,62.066.332,43.4033Z" transform="translate(-23.0877 -1223.2917)"/><polygon class="a" points="1866.264 764.538 1847.971 764.538 1847.971 761.129 1888.298 761.129 1888.298 764.538 1870.005 764.538 1870.005 815.092 1866.264 815.092 1866.264 764.538"/><rect class="a" x="1899.6045" y="761.129" width="3.8252" height="53.9629"/><path class="a" d="M1970.3357,2039.2147c-35.8878-.0711-35.8822-55.5565.001-55.625C2006.2231,1983.6629,2006.2181,2039.1486,1970.3357,2039.2147Zm.042-52.2159c-30.5865-.3184-30.6391,49.0866.0011,48.7236C2000.921,2036.0989,2000.8642,1986.66,1970.3777,1986.9988Z" transform="translate(-23.0877 -1223.2917)"/><path class="a" d="M2014.1541,2038.3836v-54.2949h1.8291c3.6,4.2894,38.4644,43.8253,40.6592,47.2275-.3468-4.1938-.0921-41.6494-.1661-46.8955h3.8252v54.2959h-1.83c-2.5989-3.0246-39.7891-45.4674-40.6592-46.9785.3547,4.06.0887,41.4834.167,46.6455Z" transform="translate(-23.0877 -1223.2917)"/></svg>