<svg xmlns="http://www.w3.org/2000/svg" viewBox="0 0 702 639"><path fill="#fffecf" d="M0 0h702v639H0z"/><path fill="#68ffb0" d="M170.4 273.1c-27.8 11.8-64.5 22.6-71.6 56.5C77 387 53.4 444 32.6 501.8c-15.2 39.9-13.3 83.7-5.5 125-2 10.2 3 12.4 9.8 12.6l635.1.2c7-35.4 8.2-73.6 24.2-106.4a20 20 0 0 0 6-14.1l.4-207.3c-13.1-27-40.5-45-62.2-65-27.8-17.7-58.8-32.8-92.6-31.2-24.4-1.3-164.4-1.5-164.4-1.5a996.1 996.1 0 0 0-213 59z"/><path fill="#b3a688" d="M592.4 485.8c11-5.3 19.8-14.3 30.1-20.8 5.1-5.3 15.4-9.5 14.1-18.2-1.5-8-4.7-15.7-5.6-24-3-11.2-7-22.1-10.1-33.3-3-7-6.2-13.8-10.3-20.3-6-12.2-14-23.3-20.6-35.2a300.9 300.9 0 0 0-44-54c-2.9-3.9-4.7-4.6-3 .1l48.6 205.6z"/><path fill="#ff4c60" d="M359.4 430.5c-2 16.7-2 33.8.5 50.5l83.4 44.8c12-2.2 24-4.3 36.2-5.5 20.8-10 45.6-6.5 65.7-18.6 14.6-8 32.6-5.1 46.1-15.4 10-24 3.7-50.8-.5-75.4-4-23.8-5.8-48.3-15.7-70.7a307.4 307.4 0 0 0-37-70.7c-8.5-15.4-16.3-31.2-25.8-46-4.4-16-17.5-27-31.3-34.8-12.2-14-32.2-13.3-46.8-23.1-15.2-6-30.4-13.6-46.5-15.5-18 1.1-33 12.5-50.4 16.5a124.6 124.6 0 0 0-40.1 27.4c-8.3 3.7-10.3 15.4-.2 5.7 14-9.3 32.1-16.1 48-12.5a98.7 98.7 0 0 1 44.2 33.4c12.7 13.5 6.7 34.8 7.1 51.8-.8 21-4.2 41.8-13.4 60.8a382.7 382.7 0 0 0-23.5 97.3z"/><path fill="#fff" d="M405 306.9c-13.8 4.3-19.4 19-24.6 31.2-4.2 10.8-7.3 22-10.6 33.2-4.7 22.8-11.9 45.7-9.2 69.3.8 12.6 4.7 24.6 7 37 6.4 20.6 18.8 40 36.3 52.7 8 5.8 18.4 8.8 27.8 5a34 34 0 0 0 22.7-24.1c4-11 4.9-22.9 8.8-33.9 4-20.2 4.8-41.1 2.7-61.6-2.2-14-4-28.2-9-41.6-5.8-18.7-9.4-38.8-20.2-55.5A34.5 34.5 0 0 0 405 307z"/><path fill="#40006b" d="M528.5 229.7c68.4.6 129.6 29.9 168.5 81 8.2 10.6 4.8 2.6 1.4-2.1A214.5 214.5 0 0 0 527.7 227c-17 .6-10 3.2.7 2.6zm-251 9.2c-59 21.7-111.5 33.1-164.9 63C96 314.2 97.4 317 114 304c52.5-26.6 110.2-43.5 164.2-63 23.2-2.6 66-3.2 94.6-8.5 5.4-.1 4-2.4-.3-2-28.4 5-75.7 5.3-95 8.4zm382.4 177c-4.6 11.6-16.9 36.6-24 43.5-15.4 15-35.7 29-56.3 36.9a1019.5 1019.5 0 0 1-136.3 35.4c-17.6 1.2-13.6 3.7.8 1.8a901 901 0 0 0 136.7-35 172.3 172.3 0 0 0 56.4-37 145 145 0 0 0 24.7-44.3c2.9-10.8.2-9.1-2-1.3zm-347.6 40.3c-3.5 2.2.5 2 8.2-.6a70 70 0 0 1 22.1-3.2c17.8-.4 16.7-2.2-.1-2-10 .3-20.4 1.2-30.2 5.8zm-110.2 43.6c-5.9 3-8.6 5.4-6 5.4 1.1 0 17.2-7.9 17.2-8.5 0-1.4-5.3 0-11.2 3.1zm498.3 13.4c-7.2 19.8-28.6 29.4-37.2 44 10.5-7.7 38.8-32.4 38.9-44.8-.3-1.4-.6-1.2-1.7.8zM171 523c-2.1 2.2-2.1 3.2-.4 3.2 1.8 0 4.9-3.4 4-4.3-1-1-1.9-.8-3.6 1.1zm-12.7 5.7c0 1.8 15.2 32.4 16.7 33.7 2.4 2 3.5.3 1.5-2.2-7.9-9.6-10.4-22.9-17.1-32-.6 0-1.1.2-1.1.5zm274.1 17.5c8.8 1.5 22.3 2.3 30.6 8.6 2.2 2.4 7.8 3.5 4.3-.3a67.1 67.1 0 0 0-33.2-10.2c-3.9-.5-5.1 1.9-1.7 2zM354.2 578c-3.5 9.2-19 46.9-17.6 61-.4 5.5 5-25.4 19.2-59 1.3-2.8 13.9-16.4 11.2-16.7a67.4 67.4 0 0 0-12.8 14.7zm-102.9 23.3c25.2 5.4 65.5 8.5 77 5.8 5.4-1.2 7.1-3.5 1.8-2.4-27 3-56.2-.4-83.5-6.8-14.8-4-7.4 1.5 4.7 3.4zm233.3 24.4c-2.1 6.2-8.2 8.3-10.7 13.4 5 .7 11.1-8.9 12.8-12.4 2.2-4.3 3.4-24.6 1.7-25.4-2.3 8-.5 16.8-3.8 24.4zM601.3 603c-25.1 11.5-51.4 25.4-73.5 33.3-6.8 2-11.8 2-19 2.6 7.9-.9 15.2 1.7 21.7-1.3 23.5-10.9 53.5-20 76.1-35zm66.6-.9c-2 3.4-7.5 35.5-6.2 36.8 1.1 1.1 1.4 0 3.1-11.5 1.4-9.8 3.1-18 5.1-24.5z"/><path fill="#fff" d="M432 537.2c-.4 6 0 12 .1 17.9l269.9 1v46l-270 1v6.2l-56-3.9-11-5.7 2-52.7 1.6-6.7 3.3-.2.2-19.5-7.4.4.3 5.1-33.3 24.6-211.5 108.9 7.6-17.2-4.7-11.7c-20.1-.4-37.8-2.2-48.6-8.2l-1-52c.1-4.5 2.4-7.3 8-7.3l.4-32.9 19.3-32.2 20.2.1c-8.7 6.3-2.8 7.4 9.1 6.4 14.1 2.1 18-1.6 24.2-6.2l47.6.4a113.6 113.6 0 0 1-45.4 27.8l-.3 4.8 2.7 20.6-16 6.5-14.2 7 22.6 11.1 7.5-5.2L340 472.5l17.8-4.2 4.8 6 3.6-2.8 49.4 11.4 2 53.7z"/><path fill="#a2ced5" d="M0 408.7c12.1 27 20 55.8 32.8 82.5 1.1 7.4 9.8 3.2 15 4.3l227 .5c22.5-24.6 45.4-49 68.1-73.5l-98.2-1c-10.3-29.4-26.1-56.4-38.2-85-6.8-7-8.1-25.3-20.5-23.5H0v95.7zm387 68.8c-15 10.7 31.2 8.3 15.7.2-3.8-3.4-11.3-1.6-15.7-.2zM68 503.8c-15.8 7.3 1.4 30.8-17 36 14.4 4.6 29.5-7.6 20.3-22.2 12 6.8 31-14.4 9.2-15.5-4.2-.4-8.6-.2-12.5 1.7zm88.4 5.2c-8.3 11.4 20.4 11.7 28.1 16.5 12.3 11 22.6-11.5 5.8-11.1-11.2-1.5-22.5-7.5-33.9-5.4zm-60.7 11.9c-20.4 5-5 30 11.5 23.7 16.1 3.9 32.5-19.6 11.1-24.8-7.5-1.1-15.3-1-22.6 1.1z"/><g stroke-width="0"><g fill="#fff"><path d="M393 478.3c0 1.7-.7 4-1.7 5-2.1 2.4-.9 3.6 1.6 1.4 1.6-1.5 1.9-1.5 2.4-.1 1 2.3 2.9 1.8 2.2-.6-.5-1.4 0-2.8 1.5-4.4 1.2-1.3 1.7-2.6 1.2-2.9s-1.5.1-2.2.9c-1.8 2.1-3 1.9-3-.6 0-.8 0-1.2.4-1.5h-3.2c.7.3.8 1.1.8 2.8zm-286 46.9c0 3.7-.1 3.9-1.6 2.5-.8-.9-2.1-1.6-2.9-1.6-.7 0-1.5-.7-1.9-1.5-.6-1.7-5.6-2.1-5.6-.5 0 1.5 3.5 4.7 5.9 5.5 1.2.3 2.1 1.1 2.1 1.6s.9.9 2 .9c1.7 0 2 .7 2 4.5 0 3.3.4 4.5 1.5 4.5s1.5-1.1 1.5-4c0-2.2.5-4 1-4 .6 0 1 .4 1 1 0 .5.7 1 1.5 1 .9 0 1.8.7 2.1 1.5 1 2.4 3.4 1.8 3.4-.9 0-1.9-.7-2.6-3-3.1-1.6-.4-3-1.1-3-1.6s-.7-.9-1.5-.9c-1.1 0-1.5-1.2-1.5-4.5s-.4-4.5-1.5-4.5-1.5 1.1-1.5 4.1z"/><path d="M115.3 527.6c-.8 2.2-.1 2.6 3.5 1.9 1.8-.4 3.2-1.3 3.2-2 0-2-5.9-1.8-6.7.1zm-21.7 5.2a8.8 8.8 0 0 0-3.4 1.9c-1.1 1.2-.9 1.4 2 1.4 5.9 0 10.8-1.2 10.8-2.6s-5.2-1.8-9.4-.7z"/></g><g fill="#40006b"><path d="M411.3 44.2a29 29 0 0 0-11.9 28.9c2.3 16.3 14 28.6 22.1 42.2 5.2 12.7 2 27.2-2.6 39.6-4.8 13.7 11.7 2.4 13.5-3.8 9-14.8 13.6-31.6 19.2-47.8 4.8-17.5 3-38.4-10.4-51.8-7.3-8.7-19.6-9.8-30-7.3zm166.2 84c-12.3 5.3-17.7 18.5-21.5 30.4-7.8 17-20.3 33.8-38.9 39.5-5.9 1.5-13.3-.8-18.5 1.7 14.3 8.6 31.7 4.5 47.2 2.6 12.5-1.9 23-9.5 33.6-16 9.8-6.8 20.3-13.8 25.9-24.8 4-10.3 2.8-23.6-5.2-31.6-6.2-3.8-16-5.3-22.6-1.8zM349.6 488c7.4 3 14.7 3.3 23.2 5 3.9.8 5.5.1 3.2-1.4-5.8-1.1-24.4-6.2-26.4-3.6zm34.6-11.1c-1.7 1.3-2.3 2.6-2 4.7.3 2.5 1 3.1 4.8 4.3 6.2 1.8 15.3 1.1 18.8-1.5 3-2.3 4-5.4 2-7-2-1.7-12.8-2.8-12.8-1.3 0 .6 1 1 2.3.9 1.2-.2 2.7-.1 3.2.2.6.4 2.2.9 3.8 1.3 2.4.6 2.6.9 1.7 2.6a6.3 6.3 0 0 1-3.8 2.6c-1.5.4-3.1.9-3.7 1.3-1.8 1-8 .6-9.3-.6a5.4 5.4 0 0 0-3.3-1.3c-1 0-1.9-.6-1.9-1.4 0-1.7 4.3-4.6 7-4.6 1.1 0 2-.5 2-1 0-1.7-6.3-1.1-8.8.8zM123 558c0 3.3 1.6 4.9 3.3 3.2.7-.7.7-1.8-.1-3.6-1.6-3.4-3.2-3.2-3.2.4zm-29.6 1.5c-1.5 3.8 1.3 6.7 4.5 4.7 2.1-1.3.6-6.1-2-6.1-1.1 0-2.2.6-2.5 1.4zm305.9-243.7c-3.1 3.7.7 6.2 1.7 1 4-8.4 19.4-5.9 25 1 20.9 27 29 59.6 28.6 107.4-.8 12.7.8 8.1 1.7.5.7-26.4 1.1-71.2-28.3-109.4-6.2-6.8-23.9-10.8-28.7-.4zm100.8 77c-5.4 15.6-19 30.2-19.1 44.8 1 12.7 6.2 15.7 15.4 19.7 2.6 1 3.6 1 3.6 0 0-.7-1.1-1.3-2.9-2-5.1-2.1-15.3-5.9-13.9-19.5 1-16.6 17.3-31.5 18.9-41.7.2-5.6 3.5-32.1-.9-33-2 1.5 1 20.4-1 31.7zM42.5 505.3a103.5 103.5 0 0 0-5.2 35.5c-.9 25 1.6 22 2 1a108 108 0 0 1 5.3-36c.6-1.9-1.4-2.4-2.1-.5zm122.1 97.8c36.3-20.8 71.5-43.4 111.2-67.9 5.4-3.8 1.6-5.3-1.5-2.3 0 0-116.1 69.8-109.7 70.2zm118.9-50-108.2 58c-10.5 6.2-6.2 6.8.8 2.5l109-58.8c4.1-2.4 0-3.3-1.6-1.8zM36.6 568.2c-.5 15-.2 56.2 5.1 70.5 1.3.5 1.2-1.3-1.4-16.2-2.4-15.4-1.3-36.9-2.7-56.2-.2-.2-.6.7-1 2zM134 619c-2.7 5.8-2.8 16.1-.2 18.4 3.2 3 6 2.1 2.8-.4-4.1-2.6-2.9-12.2-.6-16.8 2.1-4.6 2.7-11 1-11-1.9 1-.7 6.2-3 9.8z"/><path d="M359 470.6c.6.8.9 2.2.6 3.2-.7 2.2-9.4 1.3-16.6.3 3.6-2.5 12.8-7 16-3.5zm16.3 2.1c-11.2 15.3 1.8 15.8 15.6 17.1 7.8-.2 16.5 1.2 22.8-3.9 1.1-.8 1.3 4.7 1.3 28.4 0 32.4.3 30.8-6.3 33.6-17.8 2.6-27.5 1.3-35.7-7V531c0-9.2.1-9.9 2-9.9 2.5 0 2.7-2 .3-2.1l-29.3-5v-26.6c2.2-1.9 7.2-4.4 7.2-5.8-1.3-2-9.3-.9-9.7-1.9.7-3.3 4.9-2.6 9.2-2.4 6.9.5 7.3.4 9.9-2.4 4-3.2 4.6-3.4 12.7-2.2zm36.7 5.1c3.8 4.3 3.2 5.3-4.8 8.4-9.6 3.6-30.8 1.6-33.7-3.1-1.1-1.7 3.6-8.1 6.9-9.6 9.9-1.7 25-3.1 31.6 4.3zm-63.1 4.6-2.5 1.9c-2.4 2-2.5 2.1-2.2 16.6l.3 14.6c5.3 1.5 24.9 3 17.3 9l-10.6 9c-12.8 10.8-12.1 10.6-11.5 3.8a60 60 0 0 0-19.8-50.2c-3.6-2.7 8.1-6.7 10.1-6.3zm-39.3 55.3c7.7-6.6 14.8-1.1 24.4-3.8-2.4-2.8-25.7-2-27.2 3.8-.2 1.3-.8 1.2-2.9-1a23.5 23.5 0 0 1-4.9-14.5c0-3.3 1.4-4.2 2.4-1.6 7 5.5 22.1-6 22.6-12.9 0-2.3-1.7-2-2.5.4-7.4 14.2-24.4 16.5-18.9-1.4 2.5-6.2 5.5-18.4 12.5-18.6 10.7 2.2 27.5 31.2 21 54.3-2.7 12.5-28 .6-26.5-4.7zM198 498.9c-4.4 5.7-6 6.5-11.9 11.9-8.3-2.7-30-6.3-33.7-2.3a7.8 7.8 0 0 0-1.4 3.7c0 2.7 4.7 7.7 8 8.4 4.1.9 4.6 2.3 1.3 3.6-6.8 2.6-17.3-2.8-18.7-9.6.5-7.4 0-6.2 15.9-16.4l-6.5.6c0 .5-2 2-4.4 3.6-4 2.5-4.7 2.6-9.6 1.7-6-1-11.5-1-17.5-1.1l2.8-2.4c1.1-1 2-1.6 3.4-2l-6.5-.5a8.6 8.6 0 0 1-6.8 4.8c-9.3.7-13.7 12-19.5 14.4-1.8.7-1.8.6-.1-3.5 2.5-5.7 5.3-10.3 8.4-15.7l-4.2.5c0 .4-.7 1.9-1.5 3.5-1.5 2.9-3.5 4-3.5 2s-7.3-4-14.7-4c-8.7 0-14.3 2.3-17.4 7.3-1.8 2.8-1.9 4.2-1.4 12.8.9 10-.7 14.2-9.8 17.8-4.4 1.6-4.9 2-3.2 2.8 19.1 3.2 32 1.8 29.6-19.7 3.2.1 6.9-.2 9.3-2.1 1.5-1.2 2.9-2 3.1-1.7a30 30 0 0 1-4.4 9.8c-2.7 1.7-5.6 15.5-4.1 19.5 1.2 5.4 1.5 9.8 2.2 15.5-2.7-.2-5.4.6-6.8 2.5-2.3 3.5-3.7 21.3-2.3 29 1.5 10 1.9 18.7 2.4 28.9 15.7 10.3 46.6 8 47.5 9.5 0 2.5 2.3 7.1 3.7 7.1 1.8 0 1.6-1.1-.4-4-2.6-3.6-2.2-15.3.6-20.8 1.2-2.3 2.1-4.8 2.1-5.5 0-2.6 4.1-6.7 6.6-6.7 19.7 2.4 19.2 32.6 21.7 37 1.8 0 .2-17.1-2.1-22.3-3-6.9-7.2-13.4-15.6-16.3l164.8-104.4c-9.9 32.5-15.8 45.5 25.7 54.5l-134.6 69.5c-33.3 17.2-35.5 18.5-33.5 18.8 1.1.2 8.4-3 16.3-7.1l63.6-32.8 4.1-1.8c0-.3 6-3.6 13.3-7.3 20-10.2 59.1-30.5 69.1-35.8 9-4.4 37.6-28 37.6-28 1.7-1.2 1.2-3 2.3-4.7.5-.4.7-.1.5.7-.2 1 .3 1.4 1.5 1.2 1.5-.3 1.7.6 1.7 7.3 0 5.9-.3 7.7-1.5 8.2-3.2 1.2-4.5 5.9-4.5 15.9v45c9.3 10.5 13.3 8 39.3 9.2l27.7.4v-6.2h57l110 .7 7-.7 60.9.5 2.4-.5s33.8.5 32.7-1c0-.7-45.7-1-135-1H432v-37h135c89.3 0 135-.3 135-1s-45.7-1-135-1H432v-5h135c89.3 0 135-.3 135-1 1.5-1.7-21.5-1-35.5-1.1l-3 .1-197-1c-2-3.3-23.8-10-32.4-10-1.7 0-2.1-.6-2.1-3.5v-3.4l-14.5-.6-.3-28.4c-.2-28.3-.2-28.5-2.6-31.6-3.8-5-11.7-6.9-26-6.3l-18.6-.7c-2.2.8-4.4.4-6.5 1.5-.4.6-1.5 0-2.7-1.5-3.5-4.5-8.2-3.6-27.4 5.5-8.2 4.7-18.7 7.3-25.4 13.6-1.9 1.7-8.4 5.7-14.5 8.9-36.8 18.9-73.9 40.6-108.3 58L174 562l-3 1.4c-1.5.9-4.5 1.8-6.6 2.2-3 .5-5 1.8-8 5.3l-4 4.7-5.4-2.8a44 44 0 0 0-6.4-2.8 28 28 0 0 1-9.6-5.1c6.6-4.6 24-7.8 27.7-11.6 4.1-5-1.8-14.9-.8-23.3.7-2 1-2.6 2.6-3.2 1.7-.6 3.2-1.4 3.5-1.9.3-.4 1.8-1.1 3.3-1.4 1-.3 1.7-.4 2-.3l7.8 2.4c4 1 9.5 2.7 10.5 3.7 10.4 2.4 14.3-1.8 14.4-7.8 0-5.7-3-9.4-8.6-9.5-2 0-3.4-.4-3.4-.8l3.1-3c4.5-4 5.8-5.7 9.2-9.5m-115.4 4.7c4.7 2.5 5.4 3.9 3.7 8-1 2.5-2 3.4-3 3-5.2.9-9.2 5.9-13.8 3.5-3-1.6-3.3-.5-1.4 4.1 4.7 14.2-5.2 18-15.1 18-7.4-.1-7.6-.2-4.8-1.4 9.1-4.9 8.5-11.3 8-16.9-.5-8 .1-14.3 7.5-17.9 4.3-2.2 15-2.4 18.9-.4zm53 4.7c-2 15.3 5.9 14.3 15 19.8 0 1.8-9.4 7.8-26.7 17-7 3.8-13.1 5.3-22.8 5.8-12 .6-16.1-.4-20.4-5.3-2.3-2.7-3-4.4-3-7.7 0-2.3.5-4.9 1-5.7.7-1.1 1-.7 1 1.8 0 8.2 5.7 12 19 12.9 18.1 2 38-12.8 22.7-26.1-10.5-5.9-15.1-1.6-27.7-3.6 0-1.2 8.6-8.9 11.5-10.4 2.6-.8 32-3.2 30.5 1.5zm47.6 7.3c-1 2-2.7 4.1-3.1 6.5-.4 1.8-1.2 3-1.8 2.8-6.9-1.4-29.7-6.7-29.3-13-.5-7.2 38.2 1 34.2 3.7zm-43.7 78.7c-8.3 5.2-8.4 5.1-1.6-2.9 2.2-2.6 3.4-3.2 6.5-3.2 5.8.8 8.4-4.6 4.8-7.4-2.8-1 9-12 15-13.9 2.8-.9 8.7-3.6 13-6l95.5-51.4-133.2 84.8zM198 517c4.5 4.5 1.4 11-5.1 11-7 0-8.7-7.2-2.7-11.4 3-2.1 5.4-2 7.8.4zm-74.7 4.4c12 10.4 2 18.7-7.3 21.7-14 2.7-30 2.9-30-12 .8-13.3 29.3-14.4 37.3-9.7zm34.7 26.3c0 3.9-2.1 5.5-11.8 9-11.1 4.1-15.1 5.2-15.6 4.5-.7-4.8-.8-8.6-1.1-13.7 9-5 17.2-9.9 26-15 1 5 2.1 10 2.5 15.2zm272 5.3c-13-.9-26.6 1.2-39.5-.9-3.2-.7-2.1-.9 5.8-1 13.6-.1 20.7-3.3 20.7-9.3 0-2.8 0-2.8 6.5-2.8h6.5zm-47-2.3c-2.7-.2-14.3-4-15-6.1 0-1 1.3-3.6 1.7-3.6 4 4.6 9 7.4 13.3 9.7zm61-2.7c10.8 2.2 14 3.2 17.3 5.5 1.9 1.4.6 1.5-13.5 1.5H432v-4.5c0-2.5.6-4.5 1-4.5.7 0 5.5.9 11 2zm-317.1.4.6 4c1 8 1.3 14.6.8 16.4-13 7.7-38.4 5-45.3-.3l-.8-21.5c9.8 10 32 6.5 44.7 1.4zm303 6.6v52.2l-54-1.9c-3.6-1.9-6-4.3-9-7.1V547c20 10.3 14.1 7.4 63 8.1zm-350 11.4c-2.5.8 3.6 5.4 10 7.5A60.1 60.1 0 0 0 118 575l9.5-1.3a2.8 2.8 0 0 0 2.3-2.4c.4-2.5 2.4-2.9 4-.8 2 2.3-.2 5.2-5 6.9a95.7 95.7 0 0 1-31.8 1.7c-4.3-1.2-24.5-5.9-21.1-12.9 1.3-3.1 7.5-2.5 3.9.2zm55.8 10.3c4.2 11.3-34.4 5.8-34.6 10.4 0 1.5 12.7 4.6 26.3 6.5 4.3.6 4.7.8 4.7 3.4 0 1.6-1 3.7-2.5 5.1-1.3 1.2-3 3.8-3.6 5.7-1.2 3.8-3.3 7-4 11-.6 4.6-.8 5.3-7.7 5.3-7.8 0-7.6 1 .4 1.9 3.2.3 5.9 1.2 6.2 1.8.3 1-2.1 1.3-9.6 1.3-15 0-30.3-3.7-34-8.2a227 227 0 0 1-3-48.7c13.4 12 50.6 12.4 61.4 4.4zm11.3-.9c-1.2 2.5-3 4-5.1 6.1 1.8.5 9.6 1.4 7.2 3.1-.7 1.2-1.5 1.3-5.1.2-3.7-1-4.3-1-5.1.3-5.2 7.4-7.4 6.3-11.2 5.9-8-1.3-13-2.5-21.1-4 9.3-.9 21.2.7 29.3-4.2 3.3-1.3 1.8-6.4 1.9-11 3.2 1.1 6 2 9.2 3.6zm.4 5.2c.1-2 1.7-4.6 2.5-3.9.7.6-1.2 2.8-2.5 3.9zm-7.1 8.8c-2.6 3.7-6.2 7-6.2 5.6 0-1 7.2-9 7.9-8.6.2.1-.6 1.4-1.7 3z"/><path d="M-.1 312.1c.1 1 191.6.9 191.6.9 35 58.8 53.2 108.5 80.4 182.6H34.6S1.9 407.1 0 411.4l31.2 85.1c86 3.1 129.5 1.8 244 2.1l71.6-77.4c4.9-2.3-99.7-1.1-99.7-1.1-17.1-38.6-30.3-73.7-53.3-109 0 0-198.1-2.7-194 1zm275 182.3-6-14.8 48-49.2c2.5-2.6-66.2-1.8-66.2-1.8l-2.7-6.5h95.3zm-19-53.3c-3-5-3.8-10-3.8-10h14.2zm31.8-9.3-13.5 13.3s-12 .7-17.3-.6l13.5-13.3s12.5-1 17.3.6zm11.8 13.3h-21.6l14.5-13.9 20.9-.1zm-38.1 11.8s-3-6.5-2.5-9.1c4.5-1 13-.7 13-.7zm25 1.2h-22l10.9-11h22zm-2.5 2.3-15.7 15.9-5-15c-1.4-2.2 20.7-.9 20.7-.9zm89.8-318.5c-2 2.3-3.8 8.7-3.8 13.6 0 6 1.7 4.4 2.3-2.2.6-3.7 1.2-8.4 3.8-10.3 3-1 6.5-.7 9.3.8 7 6.7 11 16.1 12.2 25.5.7 7.6 2.4 10.5 2.4 4.2a49 49 0 0 0-11.4-30.1c-3.5-3.3-12.3-4.2-14.8-1.5zm59.5 54.2c-.2 3-.5 7 1.2 9.2 1.2-2.8.3-5.7 1-8.6 2.7-19.1 23.5-33.2 39.6-29 3.5 1.6 5.3 3.7 8.4 6.4l-.8 57c-1.7 1.2-2.5 5-.7 5.2 1.7-.6 2.2-2.2 2.8-3.7.6-2.1 1.8-57.9.1-59.5-2.2-3.2-5.3-6.4-8.8-7.3a37 37 0 0 0-42.8 30.3zm-85.5-12.5c43 14 55.7 57.3 56.2 88.4-4.6 36.8-14.4 50.6-20.5 69.6-14.9 46.2-23.7 72.2-15.6 115 4 24.7 5.3 14.2 2.2-.4-14.2-72.6 34.2-137.1 35.9-184.5 2.7-33.4-19-82.4-56.8-90.4-4.7-.4-6.2 2.9-1.4 2.3zm285.2.9c-4 14.7-21.5 40.9-44.8 67.4-17.7 20.1-36.3 41.6-68.9 51.4-6.9.4-3.5 2.9.5 2 24-3.5 56-30.7 70.6-51 9.8-13.2 41.9-46.6 45.6-71.2 0-1.7-2.1-.7-3 1.4zm-53.2 206.8c13.4 10.4 28 22.4 34.3 37.2 3.4 8 5 18 5.8 33.1 1.7 19.2 3.6 9 2.4-2.1a122.2 122.2 0 0 0-6.1-32.5 111 111 0 0 0-33.7-37.1c-9.2-4.8-11.3-3-2.7 1.4z"/><path d="M553.8 347.2c18.4 0 43 15 55 22.7 6.3 2.5 19 0 23 2.4 2 8.3-6.8 14.5-8.6 22-3.7 22.7 3.4 51.5-1.3 69.9-2.7 12-11.3 23.2-15.2 31.1 0 6.1 15.2-19.7 17.5-29.7 5.9-21-2.4-52.7.8-70.4 2.2-6 13.2-20.3 8.5-24.8-8.3-1.6-14.8-1.5-23.7-1.8-14.6-10.7-37-23.4-56.1-23.3-7.8 0-5.1 2.8 0 2z"/><path d="M359.4 157.1c-18.8 4.6-35.4 15.7-50.6 25.3l-34 31.8-19.5 41c-7.5 49.9 19.9 66 47.7 80.5 0 0 12.8.6 18.5-.6a68.4 68.4 0 0 0 34.7-34.6c2.2-10 1.7-16.3 1.7-26.5a47.1 47.1 0 0 0-33.7-14.1c-12.1.5-12.7 1.2-13.1 17.3-.3 8.4 0 12.3.9 12.4 1.8-1 3.6-5.6 1.9-7.4-.8-1-1.1-4-.8-9 .4-9.7 1.5-10.8 10.6-11.3 13 0 22.8 4.6 32.4 14-.8 7.6.4 16.6-1.8 23.4a66.2 66.2 0 0 1-33.4 33.5c-5.6 1-11.6 1.6-16.6 0-30.6-11-54-37-47.3-75.6l20.3-40.8 32.4-31c20.6-15.8 40.6-27.7 69.5-26.7 9 0 15.4.3 21 1.3 18 2.3 26 12.6 48.6 13.3 5.8.2 40.6 28 48.2 36.7 3.4 3.9 6.7 8.4 6.8 9.9 34.6 59.1 72.8 139.1 75.8 206.2 1.5 25.3-2.1 46.9 1.3 67.6 1.3-24.3 1.6-41.8.7-67.6-6-82.5-36.7-136.2-74.3-205-3.3-6.2-5.7-10-8.2-13-8-8.1-36.5-33.8-48-36.7-19.8-.7-36.7-12-50.6-13.7z"/><path d="M543.3 286.8c38.4 46.2 74 100.8 87.9 172 2.1 12.8 2.5 3.3 2-1.6-9.2-60.8-47.7-125.4-87.5-171.6-13-14.6-12.6-8.5-2.4 1.2zm-167 66.1c-28.6 34.6-77.8 59.5-117.2 72.7-2.3-.3-10.6 3.6-4.1 3.3 40.5-12.8 99.5-40.4 124.3-76.3 2.2-4.8-2-2-3 .3zm-23.1 54.4c-64.7 26.2-65.4 24.4-93.2 46.4.5 4.8 6.7-2.7 9-3.7 27.2-23.5 64.2-29.2 91.8-43.9 4-5.7-6.6 1.2-7.6 1.2z"/></g></g></svg>