<svg xmlns="http://www.w3.org/2000/svg" viewBox="0 0 702 639"><path fill="#fffecf" d="M0 0h702v639H0z"/><path fill="#68ffb0" d="M370.5 216.6c-43.7 6.6-87 16-128.1 32.5-24.3 7-48.5 14.6-72 24-27.8 11.8-64.5 22.6-71.6 56.5C77 387 53.4 444 32.6 501.8c-15.1 39.9-13.3 83.7-5.5 125-3.6 18.7 16.4 10.6 27.6 12.3L672 639c6.9-35.4 8-73 24.1-105.8 10.3-9.7 4.2-24.6 5.9-37-.3-61.6.6-123.2-.8-184.7-13-27-39.2-44.9-61-64.9-27.7-17.6-58.7-32.7-92.5-31-54.8-1.3-109.6-2-164.4-1.6-4.3.7-8.6 1.6-12.8 2.5z"/><path fill="#b3a688" d="M592.4 485.8c11-5.3 19.8-14.3 30.1-20.8 5.1-5.3 15.4-9.5 14.1-18.2-1.5-8-4.7-15.7-5.6-24-3-11.2-7-22.1-10.1-33.3-3-7-6.2-13.8-10.3-20.3-6-12.2-14-23.3-20.6-35.2a300.9 300.9 0 0 0-44-54c-2.9-3.9-4.7-4.6-3 .1l48.6 205.6z"/><path fill="#ff4c60" d="M359.4 430.5c-2 16.7-2 33.8.5 50.5l83.4 44.8c12-2.2 24-4.3 36.2-5.5 20.8-10 45.6-6.5 65.7-18.6 14.6-8 32.6-5.1 46.1-15.4 10-24 3.7-50.8-.5-75.4-4-23.8-5.8-48.3-15.7-70.7a307.4 307.4 0 0 0-37-70.7c-8.5-15.4-16.3-31.2-25.8-46-4.4-16-17.5-27-31.3-34.8-12.2-14-32.2-13.3-46.8-23.1-15.2-6-30.4-13.6-46.5-15.5-18 1.1-33 12.5-50.4 16.5a124.6 124.6 0 0 0-40.1 27.4c-8.3 3.7-10.3 15.4-.2 5.7 14-9.3 32.1-16.1 48-12.5a98.7 98.7 0 0 1 44.2 33.4c12.7 13.5 6.7 34.8 7.1 51.8-.8 21-4.2 41.8-13.4 60.8a382.7 382.7 0 0 0-23.5 97.3z"/><path fill="#fff" d="M405 306.9c-13.8 4.3-19.4 19-24.6 31.2-4.2 10.8-7.3 22-10.6 33.2-4.7 22.8-11.9 45.7-9.2 69.3.8 12.6 4.7 24.6 7 37 6.4 20.6 18.8 40 36.3 52.7 8 5.8 18.4 8.8 27.8 5a34 34 0 0 0 22.7-24.1c4-11 4.9-22.9 8.8-33.9 4-20.2 4.8-41.1 2.7-61.6-2.2-14-4-28.2-9-41.6-5.8-18.7-9.4-38.8-20.2-55.5A34.5 34.5 0 0 0 405 307z"/><path fill="#a2ced5" d="M0 408.7c12.1 27 20 55.8 32.8 82.5 1.1 7.4 9.8 3.2 15 4.3l227 .5c22.5-24.6 45.4-49 68.1-73.5l-98.2-1c-10.3-29.4-26.1-56.4-38.2-85-6.8-7-8.1-25.3-20.5-23.5H0v95.7zm387 68.8c-15 10.7 31.2 8.3 15.7.2-3.8-3.4-11.3-1.6-15.7-.2zM68 503.8c-15.8 7.3 1.4 30.8-17 36 14.4 4.6 29.5-7.6 20.3-22.2 12 6.8 31-14.4 9.2-15.5-4.2-.4-8.6-.2-12.5 1.7zm88.4 5.2c-8.3 11.4 20.4 11.7 28.1 16.5 12.3 11 22.6-11.5 5.8-11.1-11.2-1.5-22.5-7.5-33.9-5.4zm-60.7 11.9c-20.4 5-5 30 11.5 23.7 16.1 3.9 32.5-19.6 11.1-24.8-7.5-1.1-15.3-1-22.6 1.1z"/><g fill="#fff"><path d="M347.5 471.5c-2.7 1.4-4.8 2.5-4.5 2.6s4 .5 8.3.8c6.9.7 7.8.6 8.3-1.1.8-2.5-1.3-4.7-4.5-4.7-1.4 0-4.8 1.1-7.6 2.4z"/><path d="M362.6 474.9c-2.6 2.8-3 2.9-9.9 2.4-5.9-.3-7.5-.1-8.6 1.2-1.2 1.4-.9 1.6 2.5 1.7 2.2 0 4.7.4 5.7.8 1.6.6 1.3 1.1-2.2 3.5l-4.1 2.9V514l3.8.6c2 .3 6.8 1.3 10.5 2.2a80 80 0 0 0 15 2.2c2.4.1 2.2 2.1-.3 2.1-1.9 0-2 .7-2 9.9v9.9l3.9 3.1a32 32 0 0 0 6.5 4.1 74 74 0 0 0 25.3-.2c6.6-2.8 6.3-1.2 6.3-33.6 0-23.7-.2-29.2-1.3-28.4-.7.6-3.5 1.8-6.2 2.8a41 41 0 0 1-16.6 1.1c-18.4-.8-23.8-4.9-17.4-13.2 1.3-1.8 2.1-3.5 1.8-3.9a16 16 0 0 0-5.3-.6c-3.8 0-5.1.5-7.4 2.8z"/><path d="M380.4 473.5c-3.3 1.5-8 7.9-6.9 9.6 1.7 2.7 7.2 4.2 17.3 4.7 9.3.5 11.4.2 16.4-1.6 8-3.1 8.6-4.1 4.8-8.4a13.2 13.2 0 0 0-8.1-4.6 58.7 58.7 0 0 0-23.5.3zm12.6 4.8c0 1.7-.7 4-1.7 5-2.1 2.4-.9 3.6 1.6 1.4 1.6-1.5 1.9-1.5 2.4-.1 1 2.3 2.9 1.8 2.2-.6-.5-1.4 0-2.8 1.5-4.4 1.2-1.3 1.7-2.6 1.2-2.9s-1.5.1-2.2.9c-1.8 2.1-3 1.9-3-.6 0-2 .3-2.1 5.8-1.4 6.5.8 8.4 2 8 4.8-.8 5.4-12.4 8.3-21.8 5.5-3.8-1.2-4.5-1.8-4.8-4.3-.5-3.6 2.9-6.4 7.6-6.5 2.9 0 3.2.3 3.2 3.2zm-66.4 2.5a8.8 8.8 0 0 0-3.4 1.9c-.7.8-2 1.4-2.8 1.4s-1.4.7-1.4 1.5.4 1.5.9 1.5c1.8 0 12.1 13.8 15.1 20.2a70 70 0 0 1 4.7 30c-.6 6.8-1.3 7 11.5-3.8l10.6-9c3.7-3 2.3-4.7-4.9-6.3l-9.4-2-3-.7-.3-14.6c-.3-14.5-.2-14.6 2.2-16.6l2.5-1.9-8.7-.6c-4.8-.3-9.4-.8-10.2-1-.8-.3-2.4-.2-3.4 0z"/><path d="M310.3 489.8c-1.1 1-2.6 3.6-3.3 5.8s-1.6 4.4-2 5c-.4.5-1.5 3.3-2.4 6.1l-3.6 15.5c0 5.3 2.2 11.8 4.9 14.5 0 0 7.8 10.5 22.8 11.2 4.1.3 6.8.1 7.7-.7 2.8-2.3 3.9-11.6 2.8-22.5a49.7 49.7 0 0 0-13.7-30.4c-6.1-6.7-9.3-7.8-13.2-4.5z"/><path d="M271.5 516.2a2408.3 2408.3 0 0 1-46.9 29.6l-13.6 8.8-9 5.7c-11.6 7.4-16.6 10.6-19.1 11.9l-14.2 9.1a941.4 941.4 0 0 1-20.9 13.5l-9.2 5.7 2.9 1.2c3.8 1.6 10 9 12.7 15.1 1.4 3.1 2.2 7.7 2.6 13.5.3 4.8.7 8.8.9 8.8a8577.7 8577.7 0 0 1 36.8-19l26-13.5 99.3-51.3 9.3-4.7-4.3-.5a65 65 0 0 1-22.5-10.6c-1.2-1.3-3-4-3.9-5.9-2.5-5.4-1.4-18.6 2.4-29.3 1.6-4.5 2.7-8.2 2.3-8.1-.3 0-14.5 9-31.6 20zM97.9 503.8a86.6 86.6 0 0 0-5.1 10c-1.7 4.1-1.7 4.2.1 3.5 1.1-.4 3.3-2.5 5-4.6 4.5-5.7 10.1-9.4 14.5-9.8 2.7-.2 4.3-1 5.4-2.6l1.4-2.2h-18zm53.6-1.6c-8.2 5.5-10.7 8.6-9.9 12.4 1.4 6.8 11.9 12.2 18.7 9.6 3.3-1.3 2.8-2.7-1.3-3.6-3.3-.7-8-5.7-8-8.4 0-.9.6-2.6 1.4-3.7 2-2.6 13.2-2.6 24.9.2l8.8 2.1 3.7-3.4c7.1-6.5 8.2-7.6 8.2-8.5 0-.4-9.1-.8-20.2-.8l-20.3.1z"/><path d="M109.5 506.7A46.2 46.2 0 0 0 98 517.1c0 .3 5.4.5 11.9.5 11.8 0 11.9 0 15.8 3.1 6.1 5 7 14.1 1.9 19.7-3.7 4-15.4 7.1-24.6 6.4-13.3-.9-19-4.7-19-12.9 0-2.5-.3-2.9-1-1.8-.5.8-1 3.4-1 5.7 0 3.3.7 5 3 7.7 4.3 4.9 8.4 5.9 20.4 5.3 9.7-.5 15.8-2 22.8-5.8 17.3-9.2 26.8-15.2 26.8-17 0-.4-1.9-1.1-4.2-1.7-2.4-.6-5.9-2.6-7.8-4.3-3-2.8-3.5-3.9-3.5-7.8 0-2.5.3-5.2.5-6 .7-2-5-3-17.5-3-7.2-.1-10.9.4-13 1.5zm147 13.5c-11 6.1-25.2 13.8-31.5 17.1l-12.5 6.8a2973.1 2973.1 0 0 0-31 16.7 92.3 92.3 0 0 1-13 6c-5.9 1.9-17.8 12.9-15 13.9 1.8.7 2 4.5.3 6.2-.7.7-2.9 1.2-5.1 1.2-3.1 0-4.3.6-6.5 3.2-6.8 8-6.7 8.1 1.6 2.9a78 78 0 0 1 8.9-5.1 2948 2948 0 0 1 63.3-40.7c54-34 62.4-39.5 61-39.2-.3 0-9.5 5-20.5 11z"/><path d="M107 525.2c0 3.7-.1 3.9-1.6 2.5-.8-.9-2.1-1.6-2.9-1.6-.7 0-1.5-.7-1.9-1.5-.6-1.7-5.6-2.1-5.6-.5 0 1.5 3.5 4.7 5.9 5.5 1.2.3 2.1 1.1 2.1 1.6s.9.9 2 .9c1.7 0 2 .7 2 4.5 0 3.3.4 4.5 1.5 4.5s1.5-1.1 1.5-4c0-2.2.5-4 1-4 .6 0 1 .4 1 1 0 .5.7 1 1.5 1 .9 0 1.8.7 2.1 1.5 1 2.4 3.4 1.8 3.4-.9 0-1.9-.7-2.6-3-3.1-1.6-.4-3-1.1-3-1.6s-.7-.9-1.5-.9c-1.1 0-1.5-1.2-1.5-4.5s-.4-4.5-1.5-4.5-1.5 1.1-1.5 4.1z"/><path d="M115.3 527.6c-.8 2.2-.1 2.6 3.5 1.9 1.8-.4 3.2-1.3 3.2-2 0-2-5.9-1.8-6.7.1zm-21.7 5.2a8.8 8.8 0 0 0-3.4 1.9c-1.1 1.2-.9 1.4 2 1.4 5.9 0 10.8-1.2 10.8-2.6s-5.2-1.8-9.4-.7zm54.2 4.3-13 7.5-5.3 3c.4 4.5.3 9.2 1.1 13.7.7 1.1 20.5-5.7 24.8-8.6 3-1.9 3.2-4.6 1.3-14.1l-1.2-6zm269.2 4.8c0 6-7.1 9.2-20.7 9.3-7.9.1-9 .3-5.8 1 2.2.4 12 .8 21.8.8l17.7.1v-14h-6.5c-6.5 0-6.5 0-6.5 2.8zm-48.4.8-.6 2c0 .8 9.7 5.2 13 5.9 3.1.6 2.9.4-1.7-2a29.2 29.2 0 0 1-7.2-5.1c-2.2-2.8-2.7-2.9-3.5-.8zm-286 15.2.4 10.7 6.7 2.8c6.3 2.6 7.5 2.7 17.3 2.3 13.3-.6 20.7-2.3 21.3-4.8.3-8-.3-13-1.4-20.4l-7.1 2.4a42 42 0 0 1-18.8 2c-10.9-.3-11.9-.5-15.3-3l-3.5-2.8z"/><path d="M367 572.7v25.6l3.2 3a25 25 0 0 0 5.8 4.1 229 229 0 0 0 28.3 1.5l25.7.4v-52.2h-19.9c-22.2 0-31.6-1.3-38.8-5.6L367 547zm65-13.1v2.5h270v-5H432zm-356.1 6.6c-2.3 4.4 6.7 9.9 21.1 12.9 6.9 1.4 26 .4 31.8-1.7 4.8-1.7 7-4.6 5.1-6.9-1.7-2.1-3.7-1.7-4.1.8a2.8 2.8 0 0 1-2.3 2.4L118 575a60.1 60.1 0 0 1-28.1-1.1c-6.5-2.1-12.6-6.7-10.1-7.5 1.9-.7 1.4-2.3-.8-2.3-1 0-2.4.9-3.1 2.1zM432 582.6v18.5h270v-37H432z"/><path d="M73.8 579.5c-.3 4-.1 9.7.4 12.7s1.1 10.3 1.5 16.4c.3 6 1 11.6 1.6 12.3 3.6 4.5 19 8.2 33.9 8.2 7.5 0 9.9-.3 9.6-1.3-.3-.6-3-1.5-6.2-1.8-8-.9-8.2-1.9-.4-1.9 6.9 0 7.8-.6 7.8-5.3 0-1.2.6-3.4 1.4-4.9.8-1.4 1.9-4.2 2.5-6.1s2.3-4.5 3.6-5.7a7.7 7.7 0 0 0 2.5-5.1c0-2.6-.4-2.8-4.7-3.4-13.6-1.9-26.3-5-26.3-6.5 0-1.4 3-2 11-2 8.9 0 22-2.4 23.2-4.3.4-.7.8-2 .8-3 0-1.6-.3-1.6-2.9.4-4.1 3-25.2 4.7-36.1 2.9a51.5 51.5 0 0 1-20.3-7l-2.4-1.9z"/><path d="M137.8 576.9c.3 4.2 0 5.1-2 6.3-3 2-13.7 3.9-22.4 4l-6.9.1 8.5 1.7c16 3.3 17.3 3.3 20.3.6 1.4-1.4 3-3.2 3.5-4.1.8-1.4 1.4-1.4 5.1-.3 3.6 1.1 4.4 1 5.1-.2.7-1.1 0-1.6-3.1-2.2l-4.1-.9 2.8-2.9c1.5-1.6 2.6-3 2.3-3.2-.4-.4-8.7-3.7-9.2-3.7l.1 4.8z"/><path d="M148.1 578.7c-1.2 2.7-1.1 2.8.4 1.2 1-.9 1.6-2.1 1.3-2.8-.2-.7-1 .1-1.7 1.6zm-10.3 11.7c-4 4.1-5.3 7.4-1.7 4.1 2.4-2.1 6.3-7.4 5.8-7.7-.2-.1-2.1 1.5-4.1 3.6zm-7.7 14.3c-1.2 1.5-2.1 3.3-2.1 4.1 0 .7-.9 3.2-2.1 5.4a27.9 27.9 0 0 0-.4 21.2c1.7 3.3 2.4 3.7 5.9 3.7h23.9l-.5-7.8c-.5-8.8-3-15.3-8.4-21.9-6.2-7.5-12.6-9.4-16.3-4.7z"/></g><g fill="#40006b"><path d="M411.3 44.2a29 29 0 0 0-11.9 28.9c2.3 16.3 14 28.6 22.1 42.2 5.2 12.7 2 27.2-2.6 39.6-4.8 13.7 11.7 2.4 13.5-3.8 9-14.8 13.6-31.6 19.2-47.8 4.8-17.5 3-38.4-10.4-51.8-7.3-8.7-19.6-9.8-30-7.3zm166.2 84c-12.3 5.3-17.7 18.5-21.5 30.4-7.8 17-20.3 33.8-38.9 39.5-5.9 1.5-13.3-.8-18.5 1.7 14.3 8.6 31.7 4.5 47.2 2.6 12.5-1.9 23-9.5 33.6-16 9.8-6.8 20.3-13.8 25.9-24.8 4-10.3 2.8-23.6-5.2-31.6-6.2-3.8-16-5.3-22.6-1.8z"/><path d="M373.8 141.7a25.6 25.6 0 0 0-3.8 12.5c0 2.5-.3 2.7-6.2 3.2a107.3 107.3 0 0 0-52 23.7c-5.1 2.8-5.2 2.9-22.9 20l-14 13.5-7.7 15.2c-8.9 17.6-6 15.5-30.2 22.8-8.5 2.6-22 7.1-30 10s-18.5 6.5-23.5 8a190 190 0 0 0-22.5 9 635.6 635.6 0 0 1-38 16.6 36.7 36.7 0 0 0-12.7 7.4 31.8 31.8 0 0 1-7.3 5.5c-3.8 1.9-5.7 2-53.5 2-32.3 0-49.5.3-49.5 1 0 1.1.7 1.1 113 1l78.6-.1 2 2.3c1.2 1.3 3.6 5 5.4 8.3s4.5 8 6.1 10.5c1.5 2.5 4.4 8.5 6.4 13.5 2.1 4.9 6.3 14.2 9.5 20.5 3.1 6.3 6.3 13.1 7 15s1.9 4.2 2.6 5 2.1 3.7 3.2 6.5a943.3 943.3 0 0 1 23.2 59 405 405 0 0 1 15 42c0 .3-53.4.4-118.6.3l-118.7-.3-7.9-18c-4.3-9.9-10.6-26-13.9-35.9C6.2 421.8.7 408.7.2 411.4a54 54 0 0 0 3.7 12c2.2 5.6 6 16.3 8.4 23.7 2.5 7.4 7.9 21.2 12.1 30.7a102 102 0 0 1 7 18.7c-.6 1.4 2.9 1.6 32.5 1.6 18.2 0 33.1.2 33.1.5 0 .4-.7 1.9-1.5 3.5-1.5 2.9-3.5 4-3.5 2s-7.3-4-14.7-4c-8.7 0-14.3 2.3-17.4 7.3-1.8 2.8-1.9 4.2-1.4 12.8.7 9.3.6 9.6-1.9 12.7-1.5 1.7-5 4-7.9 5.1-4.4 1.6-4.9 2-3.2 2.8 3.3 1.4 23.8 1 24.3-.5.2-.6 1-1.2 1.8-1.2 2.5 0 4.7-6.9 4.1-12.7l-.6-5.3h3.3c1.9 0 4.5-.9 6-2.1s2.9-2 3.1-1.7a30 30 0 0 1-4.4 9.8c-2.7 1.7-5.6 15.5-4.1 19.5.4 1.1 1.1 5 1.4 8.7l.8 6.8h-2.6c-1.6 0-3.1.9-4.2 2.5-2.3 3.5-3.7 21.3-2.3 29 .6 3.3 1.4 11.2 1.8 17.5l.6 11.4 3.3 2.2c5.3 3.6 19.7 6.4 32.8 6.4 9.3 0 11.4.3 11.4 1.5 0 2.5 2.3 6.5 3.7 6.5 1.8 0 1.6-1.1-.4-4-2.6-3.6-2.2-15.3.6-20.8 1.2-2.3 2.1-4.8 2.1-5.5 0-2.6 4.1-6.7 6.6-6.7 9.4 0 19.3 14.4 20.2 29.3.3 4.2.9 7.7 1.5 7.7 1.8 0 .2-17.1-2.1-22.3-2.7-6.1-8.9-13.5-12.7-15.1l-2.9-1.2 9.2-5.7c5.1-3.2 14.5-9.2 20.9-13.5l14.2-9.1c2.5-1.3 7.3-4.4 18.6-11.6l10.5-6.7 31-19.7c23.5-15 60.1-38.1 60.4-38.1.2 0-1 3.7-2.6 8.2-3.8 10.7-4.9 23.9-2.4 29.3.9 1.9 2.7 4.6 3.9 5.9a65 65 0 0 0 22.5 10.6l4.3.5-9.3 4.7-99.3 51.3-26 13.5c-33.3 17.2-35.5 18.5-33.5 18.8 1.1.2 8.4-3 16.3-7.1l38.9-20.1 24.7-12.7 9.8 2.1c25.6 5.4 65.7 8.5 77.2 5.8 5.5-1.2 7.2-3.5 1.9-2.4-1.8.4-8.5 1-14.8 1.3a308 308 0 0 1-70-8.6c0-.3 6-3.6 13.3-7.3 20-10.2 59.1-30.5 69.1-35.8 5.5-3 14-9.1 22.7-16.4a162 162 0 0 1 16-12.6l.3-1.9c0-.5.5-1.3.9-1.8.5-.4.7-.1.5.7-.2 1 .3 1.4 1.5 1.2 1.5-.3 1.7.6 1.7 7.3 0 5.9-.3 7.7-1.5 8.2-3.2 1.2-4.5 5.9-4.5 15.9v9.7l-4.9 5.2c-6.3 6.7-8.6 11.4-15.4 31.5-5.3 15.5-9.8 36.2-8.4 37.7 1.2 1.1 1.5 0 3.1-10 1.8-11 12-42.1 16.1-49.1 1.4-2.5 4.2-6.2 6.1-8.2l3.4-3.8v32l3.3 3.1c6 5.8 6 5.7 36 6.1l27.7.4v-6.2h55.2l-.4 9.2c-.5 11-2.5 15.7-9.6 22.4-4 3.7-4.4 4.4-2.5 4.4 3.3 0 11-9.2 12.8-15.3.8-2.8 1.5-8.6 1.5-12.9v-7.8l55.8.1c30.6 0 55 .3 54.2.6l-24.5 11.8a424.4 424.4 0 0 1-42.9 18.7 35 35 0 0 1-14.5 3.8l-8.6.7 9.3.2c6.7.1 10.1-.3 12.4-1.5 1.6-.9 8.9-3.8 16.1-6.5s19.2-8 26.7-11.8c7.4-3.7 17.9-8.9 23.3-11.4l9.7-4.7h30.6c28.6 0 30.5.1 30 1.7-2.6 8.4-6.3 32.9-5.2 34s1.4-.1 3-11.2c.9-6 2.4-14 3.3-17.7l1.6-6.8h16.4c10.2 0 16.3-.4 16.3-1 0-.7-45.7-1-135-1H432v-37h135c89.3 0 135-.3 135-1s-45.7-1-135-1H432v-5h135c89.3 0 135-.3 135-1 0-.6-6.6-1-17.7-1l-17.8-.1 8.7-8.2c8-7.6 23-25.4 25.7-30.4a9 9 0 0 0 1-4c0-1.7-.1-1.7-1.2.1a275.9 275.9 0 0 1-27.1 32.3l-10.1 10.3h-98.2c-65.6 0-98.4-.3-98.8-1-2-3.3-23.8-10-32.4-10-1.7 0-2.1-.6-2.1-3.5v-3.4l-7.2-.3-7.3-.3-.3-28.4c-.2-28.3-.2-28.5-2.6-31.6-3.8-5-11.7-6.9-26-6.3-17.5.8-15.9 2-18.5-14-1.2-7.5-2.5-20.2-2.8-28.2a62 62 0 0 1 1.5-22.5c1.1-4.4 2.5-10.9 3.2-14.5.6-3.6 1.7-8.3 2.4-10.5.8-2.2 2.4-7.4 3.5-11.5l5-16.5c1.6-5 3.4-11.5 4.1-14.5s1.8-5.8 2.3-6.2c.6-.4 2.5-4.9 4.3-10 1.7-5.1 4.1-11.6 5.2-14.3 3.7-9 7.2-26.4 7.2-36.1-.1-22.8-5.2-43.9-13.3-54.4-2.4-3-5.7-7.8-7.4-10.5a76.3 76.3 0 0 0-27.3-23.1c-5.4-2.6-13-3-13.7-.7-.3.8.8 1 3.5.6s5 .1 7.9 1.6a79 79 0 0 1 28.1 24l7.9 10.9c6.8 9 12.2 31.7 12.3 51.9 0 6.4-3.6 25.1-5.9 30.8l-2.9 7a291.7 291.7 0 0 0-13.7 40.5 478 478 0 0 1-7.3 25c-1.7 4.7-4.3 13.9-5.9 20.5a94 94 0 0 0-2.7 30c.1 13.3.7 21.4 2.3 30.8l2.1 13.2c0 .3-1.3.5-2.9.5-1.7 0-3.3.5-3.6 1-.4.6-1.5 0-2.7-1.5-3.5-4.5-8.2-3.6-27.4 5.5l-19.4 9.2a31 31 0 0 0-6 4.4c-1.9 1.7-8.4 5.7-14.5 8.9l-15 8-10.5 5.7-48.8 26.3c-35.6 19.2-42.6 22.6-43.6 21.4-1.7-1.8-4.3-6.8-10.5-20.2a38.2 38.2 0 0 0-6.3-10.8c-.7 0 .1-.5 1.7-1.1 1.7-.6 3.2-1.4 3.5-1.9.3-.4 1.8-1.1 3.3-1.4 2.2-.6 2.6-.4 2.1.9-.7 1.7 1.5 2.2 3.2.7.9-.8 13.5 2.7 15 4.2 1.4 1.3 9.5.7 11.9-.9 2.1-1.4 2.5-2.4 2.5-6.9 0-4.6-.4-5.7-2.6-7.4-1.5-1.2-4.1-2.1-6-2.1s-3.4-.4-3.4-.8c0-1.4 9.3-7.8 15.4-10.6l5.9-2.7 64.7.4 3.3-3.5 19-20.5 15.7-17 7.3-2.3a74.4 74.4 0 0 1 20.7-2.7c7.4-.2 14.7-.9 16.3-1.5 3.3-1.3 3.7-3.4.5-2.3-1.3.4-8.8 1.1-16.8 1.5a129 129 0 0 0-19.3 2.3c-4.5 1.4-4.7 1.4-3.5-.1 1.3-1.9 11.6-13 21.5-23.3 3.5-3.6 6.3-7.1 6.3-7.7 0-.7-3.5-1.2-10.1-1.4l-10-.3 8.8-2.9c11.6-3.9 26.3-10.7 26.3-12.3 0-.8-2.8 0-7.7 2.3-4.3 2-13.4 5.7-20.3 8.2l-12.5 4.7-43 .4 4.2-1.9c3.9-1.7 7.8-4.2 26.8-16.5 4.4-2.9 13.2-7.7 19.5-10.7s12.9-6.7 14.5-8.2c1.7-1.6 4.8-4 7-5.4a94 94 0 0 0 28.9-25.5c2.8-4.2-.4-3.5-3.3.9a84.9 84.9 0 0 1-21.7 18.8c-4.9 3.3-10.7 7.5-12.8 9.4s-8.9 5.8-15 8.7S309 399 301 404.1s-17.8 10.8-21.8 12.7c-7 3.2-7.8 3.3-19.6 3.3h-12.3l-3.6-7.8a390.5 390.5 0 0 1-11.2-25.7c-1-2.8-5.3-12.7-9.6-22.2-4.4-9.4-7.9-17.4-7.9-17.8 0-1.3-6-12.6-7.5-14.1-.8-.9-2.7-3.6-4.1-6.2l-6-10-3.4-5.2h-87.7l3.9-4.1c2.9-3.1 6.6-5.3 14.1-8.4a592.8 592.8 0 0 0 41.2-18.5c3.3-2 29.1-11 64.5-22.6 9.1-2.9 19-6.2 22.1-7.3l5.6-1.9-1.5 4.1c-1 2.7-1.7 8.8-1.9 16.7a46.7 46.7 0 0 0 2 20.2 66.7 66.7 0 0 0 35.5 40.9l11.3 5.9h9.3c8 0 10-.3 14.1-2.5a67.2 67.2 0 0 0 20.1-16.7c10.3-13.9 11.3-16.8 11.4-32.4v-10.1l-4.3-4a40 40 0 0 0-12.7-7.2c-7.6-2.9-9.4-3.2-16.7-2.9-12.1.5-12.7 1.2-13.1 17.3-.2 6.9 0 12.5.5 12.5 1.3 0 3.1-6.8 2-7.9-.5-.5-.8-4.3-.5-8.5.4-9.8 1.5-10.9 10.6-11.4 5.9-.4 8.1.1 15.7 2.9a35.9 35.9 0 0 1 12.8 7.3l3.9 3.8-.4 11.2c-.5 12.6-.8 13.4-9.6 25.2a63.8 63.8 0 0 1-12.8 13.1c-10.2 7.5-12.2 8.3-20.8 8.3-7.1 0-8-.3-18.7-5.8a57.8 57.8 0 0 1-18.4-12.7 55.4 55.4 0 0 1-16.6-26.4 45 45 0 0 1-2.7-20.6c.3-9.2.8-11.9 2.9-16.5 2.5-5.3 2.8-5.6 10-8.4 9.9-3.8 16.1-4.6 37.4-4.6 13.1 0 21.7-.6 31.5-2.1 13-2 34.2-4.8 36.8-4.9.6 0 1.2-.5 1.2-1.1 0-.7-2.4-.8-7.2-.4a529 529 0 0 0-34.8 5.1c-1.4.3-14.4.9-29 1.3-24.8.7-27 .9-33.7 3.3-4 1.4-7.3 2.2-7.3 1.8s3-6.5 6.6-13.5c6-11.4 7.5-13.5 15.8-21.4 18.3-17.7 21.2-20.3 24.6-22.1 1.9-1 5.1-3.2 7-4.9a131 131 0 0 1 28.5-15.6 68.8 68.8 0 0 1 33.1-5.5h16.2l.6 2.5c.3 1.3.9 5.2 1.3 8.5a19 19 0 0 0 1.4 6.6c1.1.7 1.1-6.7 0-12.4-.6-2.9-.5-4.2.3-4.2 2.3 0 11.4 2.9 19.1 6a86.2 86.2 0 0 0 22.1 6.6l5.2.6-3.4 4.5c-6.1 8-9.6 16.4-9.2 22.4.2 3 .7 5.3 1.3 5.1.5-.1.8-2.2.6-4.6-.3-5.5 5.8-18.2 11.4-23.8l3.8-3.7 3.6 2.8c2 1.6 5.8 4.3 8.6 6 2.7 1.7 8.7 6.3 13.2 10.2l8.3 7.1v15.3c0 12.3-.3 15.5-1.5 16.5-1.7 1.4-2.1 5-.5 5 2.5 0 3.5-5.1 4-19.7l.5-15.3 5 3.8a49.2 49.2 0 0 1 12.4 15.5c.1.7 3.5 6.4 13.1 21.7a192 192 0 0 1 14.5 28l6.8 15.6 3.5 8.2-9.2 4.6a33.2 33.2 0 0 1-13.4 4.6c-2.3 0-4.2.4-4.2 1 0 .5 2.1 1 4.7 1 4.3 0 9.2-1.8 21.6-8.2 1.5-.7 2.4.7 6.8 9.9 4.1 8.9 15.9 37.3 15.9 38.5 0 .2-3.4.2-7.5 0-5.1-.3-7.5-.1-7.5.7 0 .7 2 1.1 4.9 1.1 10.3 0 10.5.2 13.4 9.9 3 9.8 5.5 20.3 6.7 27.6 6.2 37.3 6 34.7 5.9 73.5 0 20.1-.3 37-.7 37.6s-3.2 1.7-6.2 2.4-10.9 3.1-17.5 5.2c-6.6 2.2-16 4.9-21 5.9-4.9 1.1-13.5 3.3-19 4.9s-14.5 3.9-20 5.1a409 409 0 0 0-22 5.4 220.9 220.9 0 0 1-42.5 8.5c-1.8.6-.5.8 4.5.9 7.7.1 24.6-3.1 40.7-7.7a262 262 0 0 1 20.3-5.1c5.5-1.2 15.4-3.7 22-5.6 6.6-1.8 14.7-3.9 18-4.5 3.3-.7 12.1-3.1 19.5-5.5s14.6-4.6 16-4.8c9.9-1.8 20.9-7 35.4-16.7 7.4-5 10.6-6 7.4-2.3-.8 1-2.5 3.7-3.8 6-1.4 2.6-2.8 3.9-3.6 3.6s-1.4.1-1.4.8c0 1.6 1.7 4.6 2.2 3.9a98 98 0 0 0 9.3-14.5 33 33 0 0 1 13.9-15.6c4.4-2.8 7.2-5.8 11.1-11.6 10.3-15.6 20.5-37 20.5-43.3 0-4-1.6-1.9-3.4 4.7-2.3 7.9-9.5 22.1-17.3 34.2-8.3 12.9-8.7 13-10.7 1.8-.9-5.1-2.5-12.8-3.6-17.2s-2.4-14.5-2.9-22.4c-1.2-16.2-.9-17.4 6.3-28 3.8-5.6 4.9-11.8 2.4-13.9a52 52 0 0 0-12.5-1.4l-11.2-.4-5.3-4.1a59.2 59.2 0 0 0-8.8-5.8c-2.8-1.3-4.7-3.7-9.5-12.2-3.3-5.9-7.9-13.6-10.3-17.2s-6-9.5-7.9-13.1a166 166 0 0 0-9.9-15l-6.6-9.2c-.2-.4 3-3 7.1-5.9a142.2 142.2 0 0 0 31.6-31.8c5.9-7.9 9.7-12.1 10.9-12.1 2.4 0 20 8 26.2 12 2.6 1.6 8.7 4.4 13.6 6.1a51 51 0 0 1 20.1 12.9 291.4 291.4 0 0 1 35.5 37.4c3.6 4.8 5.2 6.3 5.2 4.9 0-4.8-24.1-31.9-41.6-46.7a47.3 47.3 0 0 0-17.5-10.4 99.1 99.1 0 0 1-20.5-10.2c-.3 0-3.3-1.4-6.7-3.1s-8.1-3.7-10.4-4.3l-4.2-1.1 12.9-17.7c7.1-9.7 13.8-19.4 14.8-21.5a69.6 69.6 0 0 0 6.8-18.1c-1.1-1-2.3 1.1-5.3 8.8-2.9 7.6-8.7 16.6-23.3 36.5-6.3 8.5-8.5 10.9-10.1 10.7-2.4-.4-21.3-5.2-32.4-8.3-6.5-1.7-11.6-2.2-27.2-2.6-15.9-.5-19.3-.3-19.3.8s3.4 1.4 17.8 1.4h17.7l21 5.4a377 377 0 0 1 21.7 6c1.2 1-15.2 22.2-23.3 30.2-7.4 7.2-21.6 17.9-23.7 17.9-.6 0-3.7-3-7-6.8a56 56 0 0 1-10.7-18c-2.6-6.2-8.2-16.9-12.6-23.7a499 499 0 0 1-11.5-19.2c-6.3-11.4-9.2-15-15.4-19.4l-6-4.2v-11.3c0-6.2-.5-12.3-1.1-13.6s-2.7-3.6-4.7-5.1c-3.5-2.8-4.1-2.9-12.2-2.5-6.8.4-9.7 1-14.3 3.3-5.6 2.8-5.9 2.8-13.2 1.7-4.1-.6-13-3.3-19.7-5.9-6.8-2.6-14.8-5.2-17.8-5.8-5.3-1.1-5.6-1.3-8.6-6.9-4.6-8.6-7.3-10.8-13.6-11.4-4.3-.3-5.6 0-7 1.4zm13.2 3c1.8 1.8 7 10.7 7 11.8 0 .3-5 .6-11.1.6h-11.2l.7-5.1c.4-2.8 1.4-6.2 2.3-7.6 1.5-2.2 2.2-2.5 6.1-2 2.4.3 5.2 1.3 6.2 2.3zm92.6 25.8 3.9 3.4.3 11.3.4 11.2-6.3-5.6c-3.4-3.2-10.4-8.5-15.6-11.9a60.9 60.9 0 0 1-9.3-6.9c0-.5 5.2-3 9-4.3a49 49 0 0 1 7.6-.5c5.5-.1 6.4.2 10 3.3zm66.3 121c-1.1 1.3-2.6-.1-3.8-3.5l-1.1-3.1 2.8 2.8c1.5 1.6 2.5 3.3 2.1 3.8zm10.4 11.2c3.8 4.9 8 11.1 9.4 13.9 1.4 2.7 5.6 9.7 9.3 15.5a411 411 0 0 1 9.8 16.3c3.7 6.7 4 6.7-8.3 1.6-3.8-1.6-7.6-2.9-8.3-2.9s-1-.5-.7-1.1c.4-.6 0-1.6-.8-2.2-.8-.7-2.3-3.7-3.2-6.7-1.8-5.4-5.9-15.4-10.8-26-6.6-14.4-7.5-16.9-6.4-17.4 2.2-.8 3.2 0 10 9zm23.2 51c10.1 4.1 11.9 5.4 14.5 10.4 1 1.9 3.9 6.6 6.5 10.5A142.6 142.6 0 0 1 619 413l5 15.2-.1 15.7c-.1 18.1-1.2 24-2.3 11.7-1.7-19.4-4.4-28.7-10.9-37.5s-22.7-24.8-28.4-28c-3.8-2.2-5.4-3.8-5.9-5.7a632 632 0 0 0-4.5-18.6c-4.5-18.1-4.3-17.1-2.6-16.4.6.4 5.3 2.3 10.2 4.3zm22.3 11.8c5.9 4.8 9.1 5.6 21.3 5.6 3.7 0 7.4.3 8.3.6 2.2.8 2 5-.3 8.3-1.1 1.5-3.4 5.4-5.3 8.6-3.2 5.9-3.3 6.3-3.1 17l.2 11-3.3-9.5c-4.8-14.1-8.2-20.6-20.9-40.3-2.1-3.1-3.4-5.7-3-5.7.5 0 3.2 2 6.1 4.4zm-7.8 37.7c20.2 20 24 28.4 25.6 57.4l.7 11-4.6 3.8a146 146 0 0 1-31.7 18.7l-2.5.7.2-37.1c.3-34.5.1-38.2-2-52.3l-2.4-15.2 4 2.2c2.2 1.2 7.9 6.1 12.7 10.8zm-330.5 20.6a145 145 0 0 1-8.6 2.8c-4.6 1.2-4.6 1.2-5.6-1.6l-1.1-2.9 9.6.1h9.7zm40.5 1.8-8.5 3.5-19.5-.1h-19.5l7.8-2.8c4.3-1.6 8.1-3.1 8.4-3.5.3-.3 9.4-.6 20.2-.6l19.6.1zm35.4.7-25.9 27.8-22.4 24.3a138.3 138.3 0 0 1-16.1 16c-.4-.5-1.9-3.9-3.4-7.8l-2.6-7 24-24a353 353 0 0 0 24-25.3c0-.8-2.3-1.2-7.7-1.3h-7.8l9-3.4c8.3-3.1 9.9-3.4 21-3.4l11.9-.1zm-77.9 9.8c-2.7 2.7-5.2 5-5.5 5s-1.2-2.3-2.2-5l-1.6-5h14.2zm26.5-4.3c0 1-5.9 5.9-12.2 10.1-4.2 2.9-5.4 3.2-11.7 3.2-3.9 0-7.1-.3-7.1-.6s3-3.5 6.8-7l6.7-6.3 8.8-.1c4.8 0 8.7.3 8.7.7zm18.5 6.3-6.9 7h-22.1l3.9-3.3c2.2-1.7 6.7-4.8 10-6.9 5.6-3.3 6.7-3.6 14.1-3.7l7.9-.1zm323.7 20.3c.3 4.5 0 5.1-3.1 7.5l-3.5 2.7.9-2.5c.4-1.4 1-8.4 1.3-15.5l.5-13 1.8 8a93 93 0 0 1 2.1 12.8zM264 450.1c-3.1 2.5-3.6 2.7-4.2 1.2-1.4-3.5-.9-4.2 3.5-4.2l4.2.1zm28 2.5-5.4 5.5h-22l10.8-11h22zm-27 1c-1.8 1.9-3.6 3.2-3.9 3-.4-.5 5.8-6.4 6.8-6.5.3 0-1 1.6-2.9 3.5zm19 6.8c0 .1-3.5 3.8-7.9 8.1l-7.8 7.8-2.2-6.9-2.7-8.1c-.4-.9 1.9-1.2 10-1.2 5.8 0 10.6.1 10.6.3zm75 10.2c.6.8.9 2.2.6 3.2-.5 1.7-1.4 1.8-8.3 1.1-4.3-.3-8-.7-8.3-.8s1.8-1.2 4.5-2.6c5.7-2.7 9.7-3.1 11.5-.9zm16.3 2.1c.3.4-.5 2.1-1.8 3.9-6.4 8.3-1 12.4 17.4 13.2a41 41 0 0 0 16.6-1.1c2.7-1 5.5-2.2 6.2-2.8 1.1-.8 1.3 4.7 1.3 28.4 0 32.4.3 30.8-6.3 33.6a74 74 0 0 1-25.3.2 32 32 0 0 1-6.5-4.1l-3.9-3.1V531c0-9.2.1-9.9 2-9.9 2.5 0 2.7-2 .3-2.1a80 80 0 0 1-15-2.2c-3.7-.9-8.5-1.9-10.5-2.2l-3.8-.6v-26.6l4.1-2.9c3.5-2.4 3.8-2.9 2.2-3.5-1-.4-3.5-.8-5.7-.8-3.4-.1-3.7-.3-2.5-1.7 1.1-1.3 2.7-1.5 8.6-1.2 6.9.5 7.3.4 9.9-2.4 2.3-2.3 3.6-2.8 7.4-2.8 2.6 0 4.9.3 5.3.6zm28.6.5c3.7.8 5.8 2 8.1 4.6 3.8 4.3 3.2 5.3-4.8 8.4-9.6 3.6-30.8 1.6-33.7-3.1-1.1-1.7 3.6-8.1 6.9-9.6a58.7 58.7 0 0 1 23.5-.3zm-63.7 8.6 8.7.6-2.5 1.9c-2.4 2-2.5 2.1-2.2 16.6l.3 14.6 3 .7 9.4 2c7.2 1.6 8.6 3.3 4.9 6.3l-10.6 9c-12.8 10.8-12.1 10.6-11.5 3.8a70 70 0 0 0-4.7-30c-3-6.4-13.3-20.2-15.1-20.2-.5 0-.9-.7-.9-1.5s.6-1.5 1.4-1.5 2.1-.6 2.8-1.4a7.7 7.7 0 0 1 6.8-1.9c.8.2 5.4.7 10.2 1zm-16.7 12.5a49.7 49.7 0 0 1 13.7 30.4c1.1 10.9 0 20.2-2.8 22.5-.9.8-3.6 1-7.7.7-9.3-.8-18.6-6.3-17.1-10.2.9-2.3 4.5-3 15.2-3.1 5 0 9.2-.3 9.2-.7 0-1.3-7.2-2.1-14-1.5-7.4.6-12.7 2.7-13.2 5.3-.2 1.3-.8 1.2-2.9-1a23.5 23.5 0 0 1-4.9-14.5c0-3.3 1.4-4.2 2.4-1.6.8 2.2 7.2 1.9 12.3-.6 4.4-2.1 10.3-9.2 10.3-12.3 0-2.3-1.7-2-2.5.4-1.6 5.1-10.4 12-15.3 12-4.3 0-6-6.1-3.6-13.4.9-2.8 2-5.6 2.4-6.1.4-.6 1.3-2.8 2-5 1.6-4.9 4.4-7.5 8.1-7.5 2.1 0 4 1.4 8.4 6.2zm-205.7 6c-1.1 1.6-2.7 2.4-5.4 2.6-4.4.4-10 4.1-14.5 9.8a17.8 17.8 0 0 1-5 4.6c-1.8.7-1.8.6-.1-3.5.9-2.3 3.2-6.8 5.1-10l3.3-5.7h18zm33.2-1.5c0 .5-2 2-4.4 3.6-4 2.5-4.7 2.6-9.6 1.7-2.9-.5-8-1-11.4-1l-6.1-.1 2.8-2.4c2.7-2.4 3.4-2.5 15.8-2.5 7.1 0 12.9.3 12.9.7zm47 .1c0 .9-1.1 2-8.2 8.5l-3.7 3.4-8.8-2.1c-11.7-2.8-22.9-2.8-24.9-.2a7.8 7.8 0 0 0-1.4 3.7c0 2.7 4.7 7.7 8 8.4 4.1.9 4.6 2.3 1.3 3.6-6.8 2.6-17.3-2.8-18.7-9.6-.8-3.8 1.7-6.9 9.9-12.4l6-4 20.3-.1c11.1 0 20.2.4 20.2.8zm6-.4c0 .2-.7.6-1.5 1-.8.3-1.5.1-1.5-.4 0-.6.7-1 1.5-1s1.5.2 1.5.4zm-117.1 5c4.7 2.5 5.4 3.9 3.7 8-1 2.5-1.9 3.4-3 3-.9-.4-2.9.5-4.7 2-3.3 2.8-5.9 3.2-9.1 1.5-2.9-1.6-3.3-.5-1.4 4.1 2 5 2 8.3.1 12-2.3 4.5-6.2 6-15.2 6-7.4-.1-7.6-.2-4.8-1.4 1.7-.8 4.3-2.7 5.9-4.4 2.9-3.1 2.9-3.1 2.2-12.5-.6-8.7-.5-9.6 1.7-12.8 1.2-1.9 3.8-4.2 5.7-5.1 4.3-2.2 15-2.4 18.9-.4zm49.6 2.5c2.8.5 3.9 1.1 3.5 2.2a34 34 0 0 0-.5 6c0 3.9.5 5 3.5 7.8 1.9 1.7 5.4 3.7 7.8 4.3 2.3.6 4.2 1.3 4.2 1.7 0 1.8-9.5 7.8-26.8 17-7 3.8-13.1 5.3-22.8 5.8-12 .6-16.1-.4-20.4-5.3-2.3-2.7-3-4.4-3-7.7 0-2.3.5-4.9 1-5.7.7-1.1 1-.7 1 1.8 0 8.2 5.7 12 19 12.9 9.2.7 20.9-2.4 24.6-6.4a13.8 13.8 0 0 0-1.9-19.7c-3.9-3.1-4-3.1-15.8-3.1a69 69 0 0 1-11.9-.5c0-1.2 8.6-8.9 11.5-10.4a75.4 75.4 0 0 1 27-.7zm35.6 4.2c5.1 1.2 10.8 2.8 12.7 3.6 3.2 1.3 3.3 1.5 1.8 3.2a11 11 0 0 0-2.2 5c-.4 1.8-1.2 3-1.8 2.8-4.5-1.6-12.2-3.9-18.1-5.3-7-1.7-12.1-5.2-11.2-7.7.5-1.6 4.6-3.7 7.4-3.7 1.2 0 6.3 1 11.4 2.1zm104.4-.2c-.6.5-27.8 17.8-60.5 38.4a2948 2948 0 0 0-63.3 40.7 78 78 0 0 0-8.9 5.1c-8.3 5.2-8.4 5.1-1.6-2.9 2.2-2.6 3.4-3.2 6.5-3.2 2.2 0 4.4-.5 5.1-1.2 1.7-1.7 1.5-5.5-.3-6.2-2.8-1 9.1-12 15-13.9 2.8-.9 8.7-3.6 13-6a2973.1 2973.1 0 0 1 31-16.7l12.5-6.8c6.3-3.3 20.5-11 31.5-17.1 20.2-11.1 21.7-11.8 20-10.2zm-78.5 7.1c4.5 4.5 1.4 11-5.1 11-7 0-8.7-7.2-2.7-11.4 3-2.1 5.4-2 7.8.4zm-74.7 4.4a13 13 0 0 1 5.7 10.6c0 4.7-4.3 8.4-13 11.1a36.1 36.1 0 0 1-23.9-.7c-4.9-1.9-6.1-4.2-6.1-11.3 0-5.9 1.6-7.5 9.7-10.2 7.8-2.6 23.4-2.3 27.6.5zm38.6 15.8c1.8 4 5.3 11.2 7.7 16l4.4 8.8-2.9 1.4c-1.6.9-4.6 1.8-6.7 2.2-3 .5-4.9 1.8-7.9 5.3l-4 4.7-5.5-2.8c-3-1.5-5.9-2.8-6.4-2.8a28 28 0 0 1-9.6-5.1c0-.3 1.7-1.1 3.8-1.7 8.5-2.4 22.8-8.3 23.9-9.9 1.6-2.1 1.6-7.9-.1-16.6-.7-3.7-1-6.7-.7-6.7.4 0 2.1 3.3 4 7.2zm-3.9 10.5c0 3.9-2.1 5.5-11.8 9-11.1 4.1-15.1 5.2-15.6 4.5-.2-.4-.5-3.6-.7-7.2l-.4-6.5 5.3-3 13-7.5 7.7-4.5 1.2 6c.7 3.3 1.2 7.5 1.3 9.2zm272-1.7v7l-17.7-.1a218 218 0 0 1-21.8-.8c-3.2-.7-2.1-.9 5.8-1 13.6-.1 20.7-3.3 20.7-9.3 0-2.8 0-2.8 6.5-2.8h6.5zm-57.9-2.6c1.1 1.3 4.3 3.6 7.2 5.1 4.6 2.4 4.8 2.6 1.7 2-3.3-.7-13-5.1-13-5.9 0-1 1.3-3.6 1.7-3.6.3 0 1.4 1.1 2.4 2.4zm72 4.6c10.7 2.2 14 3.2 17.2 5.5 1.9 1.4.6 1.5-13.5 1.5h-15.7l.1-4.5c0-2.5.5-4.5 1-4.5.6 0 5.4.9 10.9 2zM101 552.9a42 42 0 0 0 18.8-2l7.1-2.4.6 4c1 8 1.3 14.6.8 16.4-.6 2.5-8 4.2-21.3 4.8-9.8.4-11 .3-17.3-2.3l-6.7-2.8-.4-10.7-.4-10.8 3.5 2.8c3.4 2.5 4.4 2.7 15.3 3zm281.8.7a158 158 0 0 0 27.3 1.5H430v52.2l-25.7-.4a229 229 0 0 1-28.3-1.5 25 25 0 0 1-5.8-4.1l-3.2-3V547l4.3 2.5c2.3 1.4 7.5 3.2 11.5 4.1zM81 565c0 .5-.6 1.1-1.2 1.4-2.5.8 3.6 5.4 10.1 7.5A60.1 60.1 0 0 0 118 575l9.5-1.3a2.8 2.8 0 0 0 2.3-2.4c.4-2.5 2.4-2.9 4.1-.8 1.9 2.3-.3 5.2-5.1 6.9a95.7 95.7 0 0 1-31.8 1.7c-9-1.9-16.6-5-19.5-8-2.3-2.4-2.5-3.1-1.6-4.9 1.1-2.1 5.1-3 5.1-1.2zm3.3 13a72 72 0 0 0 33.1 3.3c10.5-.8 13.4-1.4 15.7-3.1 2.6-2 2.9-2 2.9-.4a7 7 0 0 1-.8 3c-1.2 1.9-14.3 4.3-23.2 4.3-8 0-11 .6-11 2 0 1.5 12.7 4.6 26.3 6.5 4.3.6 4.7.8 4.7 3.4 0 1.6-1 3.7-2.5 5.1-1.3 1.2-3 3.8-3.6 5.7s-1.7 4.7-2.5 6.1c-.8 1.5-1.4 3.7-1.4 4.9 0 4.7-.9 5.3-7.8 5.3-7.8 0-7.6 1 .4 1.9 3.2.3 5.9 1.2 6.2 1.8.3 1-2.1 1.3-9.6 1.3-14.9 0-30.3-3.7-33.9-8.2-.6-.7-1.3-6.3-1.6-12.3-.4-6.1-1-13.4-1.5-16.4s-.7-8.7-.4-12.7l.5-7.3 2.4 1.9c1.4 1 4.8 2.8 7.6 3.9zm57.9-4.2c2.4.9 4.5 1.8 4.7 2 .3.2-.8 1.6-2.3 3.2l-2.8 2.9 4.1.9c3.1.6 3.8 1.1 3.1 2.2-.7 1.2-1.5 1.3-5.1.2-3.7-1.1-4.3-1.1-5.1.3-.5.9-2.1 2.7-3.5 4.1-3 2.7-4.3 2.7-20.3-.6l-8.5-1.7 6.9-.1c8.7-.1 19.4-2 22.4-4 2-1.2 2.3-2.1 2-6.3l-.1-4.8c.2 0 2.2.7 4.5 1.7zm6.3 6.1c-1.5 1.6-1.6 1.5-.4-1.2.7-1.5 1.5-2.3 1.7-1.6.3.7-.3 1.9-1.3 2.8zm-8.3 9.9c-2.6 3.7-6.2 6.9-6.2 5.6 0-1.1 7.2-9 7.9-8.6.2.1-.6 1.4-1.7 3z"/><path d="M349.6 488c-.3.4 3.8 1.6 9.2 2.5l14 2.5c3.9.8 5.5.1 3.2-1.4-1.1-.7-21.5-4.5-24.2-4.5-.9 0-1.9.4-2.2.9zm34.6-11.1c-1.7 1.3-2.3 2.6-2 4.7.3 2.5 1 3.1 4.8 4.3 6.2 1.8 15.3 1.1 18.8-1.5 3-2.3 4-5.4 2-7-2-1.7-12.8-2.8-12.8-1.3 0 .6 1 1 2.3.9 1.2-.2 2.7-.1 3.2.2.6.4 2.2.9 3.8 1.3 2.4.6 2.6.9 1.7 2.6a6.3 6.3 0 0 1-3.8 2.6c-1.5.4-3.1.9-3.7 1.3-1.8 1-8 .6-9.3-.6a5.4 5.4 0 0 0-3.3-1.3c-1 0-1.9-.6-1.9-1.4 0-1.7 4.3-4.6 7-4.6 1.1 0 2-.5 2-1 0-1.7-6.3-1.1-8.8.8zM123 558c0 3.3 1.6 4.9 3.3 3.2.7-.7.7-1.8-.1-3.6-1.6-3.4-3.2-3.2-3.2.4zm-29.6 1.5c-1.5 3.8 1.3 6.7 4.5 4.7 2.1-1.3.6-6.1-2-6.1-1.1 0-2.2.6-2.5 1.4zm311-248.4c-2.5 1-6.4 5.7-6.4 7.6 0 2.1 1.8 1.6 2.5-.7 1.8-5.6 12.4-7.6 20.1-3.7 5.9 2.9 7.3 4.6 14.2 17.1a172.3 172.3 0 0 1 16.3 47 232 232 0 0 1 3.5 46.7c-.5 7.9-.4 9.2.6 7.5 1-1.5 1.3-7.1 1.1-20.6-.1-15.3-.6-20.9-2.8-32.5-4.3-23-10.7-40.5-20.7-56.9-3.6-5.7-5.2-7.4-9.7-9.7-5.5-2.9-14-3.7-18.7-1.8zm96.5 63.2c.2 7.8-.2 15.4-.8 18.5a90.6 90.6 0 0 1-9.2 18.5c-8.8 14.8-9.9 17.6-9.9 26.3 0 8.5 2.8 13.1 10.5 17.2 6.2 3.4 8.5 4 8.5 2.4 0-.6-2.8-2.3-6.3-4-8.4-4-11.1-8.5-10.5-17.4.4-6.6 2.1-11 7.8-19.7 1.9-3.1 5.3-9.1 7.5-13.4 4-7.9 4-7.9 4.3-21.3.4-13.1-.2-20.3-1.6-20.3-.4 0-.5 6-.3 13.2zm-458.4 131a103.5 103.5 0 0 0-5.2 35.5c-.4 12.7-.3 19.3.4 19.3.6 0 1.2-7.1 1.6-18.3a108 108 0 0 1 5.3-36c.6-1.9-1.4-2.4-2.1-.5zm207.4 42.6L193.6 583c-25.6 15.8-31.7 20.1-29 20.1 1.1 0 15.1-8.3 34.4-20.5l57.5-35.7c9.4-5.8 18-11.1 19.3-11.7 2-1.1 3.2-4.2 1.5-4a672 672 0 0 0-27.4 16.7zm33.6 5.1-108.2 58.1c-3.5 1.9-6.3 4-6.3 4.7s.1 1.3.3 1.3l6.8-3.5 102.3-55c7.3-4 8.1-4.6 8.4-5.4.4-1.3-2-1.5-3.3-.2zM36.6 568.3a336 336 0 0 0 .4 43.3c1.6 15.9 3.5 26.8 4.7 27.2 1.3.5 1.2-1.3-1.4-16.2-1-5.7-1.7-17.5-1.9-32.4-.2-12.9-.6-23.6-.8-23.8s-.6.7-1 1.9zm99.4 43.5a22 22 0 0 1-2 7.2c-2.7 5.8-2.8 16.1-.2 18.4 1 1 2.7 1.7 3.7 1.7 1.4 0 1.3-.4-.9-2.1s-2.6-2.8-2.6-7.2c0-3 .9-7.1 2-9.6 2.1-4.6 2.7-11.1 1-11.1-.5 0-1 1.2-1 2.7z"/></g></svg>