<svg viewBox="0 0 128 128" xmlns="http://www.w3.org/2000/svg"><g fill="#fcc21b"><path d="m127.88 100.37c0 15.13-12.38 27.52-27.52 27.52h-72.72c-15.14 0-27.52-12.38-27.52-27.52v-72.74c0-15.13 12.38-27.52 27.52-27.52h72.73c15.13 0 27.52 12.38 27.52 27.52v72.74z"/><path d="m4.16 4.16c-2.49 2.49-4.04 5.94-4.04 9.72v100.26c0 3.78 1.55 7.22 4.04 9.72l59.84-59.86z"/><path d="m123.84 4.16c-2.5-2.49-5.94-4.04-9.72-4.04h-100.24c-3.78 0-7.22 1.55-9.72 4.04l59.84 59.84z"/></g><path d="m64 64 59.84 59.85c2.49-2.49 4.04-5.94 4.04-9.72v-100.26c0-3.78-1.55-7.22-4.04-9.72z" fill="#f79329"/><path d="m4.16 123.85c2.49 2.49 5.94 4.04 9.72 4.04h100.25c3.78 0 7.22-1.55 9.72-4.04l-59.85-59.85z" fill="#f79329"/><path d="m127.88 100.37c0 15.13-12.38 27.52-27.52 27.52h-72.72c-15.14 0-27.52-12.38-27.52-27.52v-72.74c0-15.13 12.38-27.52 27.52-27.52h72.73c15.13 0 27.52 12.38 27.52 27.52v72.74z" fill="none"/><path d="m112.02 98.94c0 7.2-5.89 13.08-13.08 13.08h-69.88c-7.2 0-13.08-5.89-13.08-13.08v-69.88c0-7.2 5.89-13.08 13.08-13.08h69.87c7.2 0 13.08 5.89 13.08 13.08v69.88z" fill="#fcc21b"/><path d="m100.25 43-9.94-.02 1.87-12.91c.04-.31-.05-.62-.25-.86-.2-.23-.49-.37-.8-.37l-15.26-.03c-.53-.01-.98.39-1.07.91l-1.89 13.21-12.2-.03 1.86-12.91c.05-.3-.04-.61-.25-.85-.21-.23-.5-.37-.8-.37l-15.26-.03c-.53 0-.99.39-1.05.92l-1.91 13.21-10.3-.02c-.6 0-1.08.48-1.08 1.07l-.03 12.27c0 .59.48 1.07 1.07 1.07l8.28.02-1.96 13.56-11.46-.04c-.59 0-1.07.48-1.07 1.07l-.01 12.27c-.01.59.46 1.07 1.05 1.07l9.38.02-2.14 14.82c-.04.31.04.62.26.85.19.23.48.37.8.37l15.26.04c.54 0 .99-.39 1.07-.92l2.17-15.12 12.2.03-2.13 14.82c-.04.31.04.61.25.85.2.24.5.37.8.37l15.26.04c.54 0 .99-.39 1.07-.93l2.17-15.11 10.87.02c.59 0 1.07-.48 1.07-1.06l.03-12.27c0-.59-.48-1.08-1.07-1.08l-8.82-.02 1.94-13.56 11.97.03c.6 0 1.09-.48 1.08-1.07l.02-12.27c.02-.58-.46-1.07-1.05-1.06zm-29.43 14.33-1.95 13.55-12.2-.03 1.94-13.55z" fill="#fff"/></svg>