<svg viewBox="0 0 128 128" xmlns="http://www.w3.org/2000/svg"><g fill="#fcc21b"><path d="m127.88 100.37c0 15.13-12.38 27.52-27.52 27.52h-72.73c-15.13 0-27.52-12.38-27.52-27.52v-72.74c.01-15.13 12.39-27.52 27.52-27.52h72.73c15.13 0 27.52 12.38 27.52 27.52z"/><path d="m4.16 4.16c-2.49 2.49-4.04 5.93-4.04 9.72v100.25c0 3.78 1.55 7.22 4.04 9.72l59.83-59.85z"/><path d="m123.84 4.16c-2.49-2.49-5.93-4.04-9.72-4.04h-100.24c-3.78 0-7.22 1.55-9.72 4.04l59.83 59.84z"/></g><path d="m63.99 64 59.85 59.85c2.49-2.5 4.04-5.94 4.04-9.72v-100.25c0-3.79-1.55-7.23-4.04-9.72z" fill="#f79329"/><path d="m4.16 123.85c2.49 2.49 5.93 4.04 9.72 4.04h100.25c3.78 0 7.22-1.55 9.72-4.04l-59.86-59.85z" fill="#f79329"/><path d="m127.88 100.37c0 15.13-12.38 27.52-27.52 27.52h-72.73c-15.13 0-27.52-12.38-27.52-27.52v-72.74c.01-15.13 12.39-27.52 27.52-27.52h72.73c15.13 0 27.52 12.38 27.52 27.52z" fill="none"/><path d="m112.02 98.94c0 7.2-5.89 13.08-13.08 13.08h-69.88c-7.2 0-13.08-5.89-13.08-13.08v-69.88c0-7.2 5.89-13.08 13.08-13.08h69.88c7.2 0 13.08 5.89 13.08 13.08z" fill="#fcc21b"/><path d="m63.19 25.22c-19.92 0-32.79 15.47-32.79 39.42s12.87 39.43 32.79 39.43 32.79-15.47 32.79-39.43c0-23.94-12.87-39.42-32.79-39.42zm0 60.21c-9.53 0-12.91-11.2-12.91-20.79 0-9.58 3.38-20.78 12.91-20.78s12.92 11.2 12.92 20.78c0 9.59-3.39 20.79-12.92 20.79z" fill="#fff"/></svg>