<svg viewBox="0 0 128 128" xmlns="http://www.w3.org/2000/svg"><g fill="#fcc21b"><path d="m127.88 100.37c0 15.13-12.38 27.52-27.52 27.52h-72.72c-15.14 0-27.52-12.38-27.52-27.52v-72.74c0-15.13 12.38-27.52 27.52-27.52h72.73c15.13 0 27.52 12.38 27.52 27.52v72.74z"/><path d="m4.16 4.16c-2.49 2.49-4.04 5.93-4.04 9.72v100.26c0 3.78 1.55 7.22 4.04 9.72l59.84-59.86z"/><path d="m123.84 4.16c-2.5-2.49-5.94-4.04-9.72-4.04h-100.24c-3.78 0-7.22 1.55-9.72 4.04l59.84 59.84z"/></g><path d="m64 64 59.84 59.85c2.49-2.49 4.04-5.94 4.04-9.72v-100.26c0-3.78-1.55-7.22-4.04-9.72z" fill="#f79329"/><path d="m4.16 123.85c2.49 2.49 5.94 4.04 9.72 4.04h100.25c3.78 0 7.22-1.55 9.72-4.04l-59.85-59.85z" fill="#f79329"/><path d="m127.88 100.37c0 15.13-12.38 27.52-27.52 27.52h-72.72c-15.14 0-27.52-12.38-27.52-27.52v-72.74c0-15.13 12.38-27.52 27.52-27.52h72.73c15.13 0 27.52 12.38 27.52 27.52v72.74z" fill="none"/><path d="m112.02 98.94c0 7.2-5.89 13.08-13.08 13.08h-69.88c-7.2 0-13.08-5.89-13.08-13.08v-69.88c0-7.2 5.89-13.08 13.08-13.08h69.87c7.2 0 13.08 5.89 13.08 13.08v69.88z" fill="#fcc21b"/></svg>