<svg viewBox="0 0 128 128" xmlns="http://www.w3.org/2000/svg"><g fill="#fcc21b"><path d="m127.88 100.37c0 15.13-12.38 27.52-27.52 27.52h-72.73c-15.13 0-27.52-12.38-27.52-27.52v-72.74c0-15.13 12.38-27.52 27.52-27.52h72.73c15.13 0 27.52 12.38 27.52 27.52z"/><path d="m4.16 4.16c-2.49 2.49-4.04 5.93-4.04 9.72v100.26c0 3.79 1.55 7.22 4.04 9.72l59.84-59.86z"/><path d="m123.84 4.16c-2.49-2.49-5.93-4.04-9.72-4.04h-100.24c-3.78 0-7.22 1.55-9.72 4.04l59.84 59.84z"/></g><path d="m64 64 59.84 59.85c2.49-2.49 4.04-5.93 4.04-9.72v-100.26c0-3.78-1.55-7.22-4.04-9.72z" fill="#f79329"/><path d="m4.16 123.85c2.5 2.49 5.93 4.04 9.72 4.04h100.25c3.78 0 7.22-1.55 9.72-4.04l-59.85-59.85z" fill="#f79329"/><path d="m127.88 100.37c0 15.13-12.38 27.52-27.52 27.52h-72.73c-15.13 0-27.52-12.38-27.52-27.52v-72.74c0-15.13 12.38-27.52 27.52-27.52h72.73c15.13 0 27.52 12.38 27.52 27.52z" fill="none"/><path d="m112.02 98.94c0 7.2-5.89 13.08-13.08 13.08h-69.89c-7.2 0-13.08-5.89-13.08-13.08v-69.88c0-7.2 5.89-13.08 13.08-13.08h69.88c7.2 0 13.08 5.89 13.08 13.08v69.88z" fill="#fcc21b"/><path d="m88.96 82.84h-27.14c4.27-2.62 11.75-7.79 20.24-16.28 7.95-7.95 10.62-22.42 1.1-31.95-5.51-5.5-11.77-8.29-18.63-8.29-15.14 0-27.77 13.39-28.31 13.96-.34.37-.39.91-.13 1.34l6.83 11.14c.18.29.47.47.8.52.33.04.66-.05.91-.29.08-.07 8.32-7.71 15.54-7.71 2.91 0 5.18 1.22 6.95 3.74 1.45 2.05 1.87 4.32 1.3 6.9-2.76 12.33-27.09 26.29-27.34 26.42-.34.2-.56.57-.56.97v14.59c0 .62.5 1.12 1.12 1.12h47.32c.61 0 1.1-.5 1.1-1.12v-13.95c0-.62-.49-1.11-1.1-1.11z" fill="#fff"/></svg>