<svg viewBox="0 0 128 128" xmlns="http://www.w3.org/2000/svg"><g fill="#fcc21b"><path d="m127.88 100.37c0 15.13-12.38 27.52-27.52 27.52h-72.73c-15.13 0-27.52-12.38-27.52-27.52v-72.74c0-15.13 12.38-27.52 27.52-27.52h72.73c15.13 0 27.52 12.38 27.52 27.52z"/><path d="m4.16 4.16c-2.49 2.49-4.04 5.93-4.04 9.72v100.26c0 3.78 1.55 7.22 4.04 9.72l59.83-59.86z"/><path d="m123.84 4.16c-2.49-2.49-5.93-4.04-9.72-4.04h-100.24c-3.78 0-7.22 1.55-9.72 4.04l59.83 59.84z"/></g><path d="m63.99 64 59.85 59.84c2.49-2.49 4.04-5.93 4.04-9.72v-100.25c0-3.78-1.55-7.22-4.04-9.72z" fill="#f79329"/><path d="m4.16 123.84c2.49 2.49 5.93 4.04 9.72 4.04h100.25c3.78 0 7.22-1.55 9.72-4.04l-59.86-59.84z" fill="#f79329"/><path d="m127.88 100.37c0 15.13-12.38 27.52-27.52 27.52h-72.73c-15.13 0-27.52-12.38-27.52-27.52v-72.74c0-15.13 12.38-27.52 27.52-27.52h72.73c15.13 0 27.52 12.38 27.52 27.52z" fill="none"/><path d="m112.02 98.94c0 7.2-5.89 13.08-13.08 13.08h-69.88c-7.2 0-13.08-5.89-13.08-13.08v-69.88c0-7.2 5.89-13.08 13.08-13.08h69.88c7.2 0 13.08 5.89 13.08 13.08z" fill="#fcc21b"/><path d="m59.07 85.24c-6.7 0-13.93-2.32-17.61-4.62-.27-.17-.61-.2-.92-.1-.3.11-.54.36-.63.66l-4.14 12.89c-.15.46.03.95.43 1.21.51.32 12.54 7.87 25.64 7.87 2.73 0 5.34-.34 7.75-1 4.31-1.19 12.26-4.27 17.05-11.52 3.3-4.99 4.41-11.05 3.14-17.05-1.4-6.61-5.54-12.4-11.67-16.33-4.74-2.8-10.91-4.39-18.38-4.76l1.04-12.08h26.15c.59 0 1.08-.49 1.08-1.08v-13.43c0-.6-.49-1.08-1.08-1.08h-26-16.7c-.15 0-.29.03-.41.09-.04.02-.07.05-.12.07-.08.04-.16.09-.22.15-.04.04-.07.08-.1.13-.05.06-.11.12-.13.19-.02.06-.04.12-.05.18-.02.06-.05.11-.06.18l-3.85 43.11c-.02.35.11.69.37.92.2.17.46.26.71.26.09 0 .17-.01.25-.03l.26-.07c1.27-.17 6.14-.8 11.6-.8 8.45 0 14.22 1.46 16.72 4.23 1.13 1.25 1.59 2.77 1.39 4.63-.61 5.94-6.59 7.18-11.51 7.18z" fill="#fff"/></svg>