<svg viewBox="0 0 128 128" xmlns="http://www.w3.org/2000/svg"><g fill="#fcc21b"><path d="m127.88 100.37c0 15.13-12.38 27.52-27.52 27.52h-72.73c-15.13 0-27.52-12.38-27.52-27.52v-72.74c0-15.13 12.38-27.52 27.52-27.52h72.73c15.13 0 27.52 12.38 27.52 27.52z"/><path d="m4.16 4.16c-2.49 2.49-4.04 5.93-4.04 9.72v100.26c0 3.78 1.55 7.22 4.04 9.72l59.83-59.86z"/><path d="m123.84 4.16c-2.49-2.49-5.93-4.04-9.72-4.04h-100.24c-3.78 0-7.22 1.55-9.72 4.04l59.83 59.84z"/></g><path d="m63.99 64 59.85 59.85c2.49-2.49 4.04-5.94 4.04-9.72v-100.26c0-3.78-1.55-7.22-4.04-9.72z" fill="#f79329"/><path d="m4.16 123.85c2.49 2.49 5.93 4.04 9.72 4.04h100.25c3.78 0 7.22-1.55 9.72-4.04l-59.86-59.85z" fill="#f79329"/><path d="m127.88 100.37c0 15.13-12.38 27.52-27.52 27.52h-72.73c-15.13 0-27.52-12.38-27.52-27.52v-72.74c0-15.13 12.38-27.52 27.52-27.52h72.73c15.13 0 27.52 12.38 27.52 27.52z" fill="none"/><path d="m112.02 98.94c0 7.2-5.89 13.08-13.08 13.08h-69.88c-7.2 0-13.08-5.89-13.08-13.08v-69.88c0-7.2 5.89-13.08 13.08-13.08h69.88c7.2 0 13.08 5.89 13.08 13.08z" fill="#fcc21b"/><g fill="#fff"><path d="m63.99 75.11c17.58 0 29.13-11.37 29.13-25.4s-11.55-25.4-29.13-25.4c-17.56 0-29.12 11.37-29.12 25.4s11.56 25.4 29.12 25.4zm0-37.63c7.77 0 12.89 5.48 12.89 12.23 0 6.76-5.12 12.23-12.89 12.23s-12.89-5.48-12.89-12.23 5.13-12.23 12.89-12.23z"/><path d="m83.43 42.06-16.44-17.14s25.07 5.09 26.04 24.14c.91 17.68-5.68 29.24-11.48 37.1-10.35 14-24.21 19.1-24.21 19.1l-8.78-11.42s11.92-5.73 20.28-17.55c4.51-6.38 7.44-14.09 8.13-24.61z"/></g></svg>