<svg viewBox="0 0 128 128" xmlns="http://www.w3.org/2000/svg"><g fill="#40c0e7"><path d="m64 .28c-35.18 0-63.71 28.53-63.71 63.72s28.53 63.71 63.71 63.71c35.19 0 63.71-28.52 63.71-63.71s-28.52-63.72-63.71-63.72zm0 121.33c-31.77 0-57.61-25.84-57.61-57.6 0-31.78 25.84-57.62 57.61-57.62s57.61 25.84 57.61 57.61-25.84 57.61-57.61 57.61z"/><path d="m86.34 76.53c-.12-.23-.33-.39-.58-.45-.26-.05-.52 0-.72.17-4.57 3.62-12.42 6.35-18.26 6.35-11.3 0-19.2-7.65-19.2-18.6s7.9-18.6 19.2-18.6c6.11 0 12.38 1.97 16.36 5.14.2.16.46.22.71.17s.46-.21.59-.43l9.05-16.49c.21-.37.11-.83-.22-1.09-6.84-5.42-15.54-8.06-26.57-8.06-23.5 0-40.55 16.56-40.55 39.38s17.05 39.38 40.55 39.38c10.75 0 20.04-3.27 27.6-9.73.3-.26.39-.69.21-1.05z"/></g></svg>