<svg viewBox="0 0 128 128" xmlns="http://www.w3.org/2000/svg"><g fill="#40c0e7"><path d="m64 .29c-35.19 0-63.71 28.53-63.71 63.71 0 35.19 28.53 63.71 63.72 63.71 35.18 0 63.71-28.52 63.71-63.71-.01-35.18-28.54-63.71-63.72-63.71zm0 121.32c-31.76 0-57.61-25.84-57.61-57.61 0-31.76 25.85-57.61 57.61-57.61 31.77 0 57.6 25.84 57.6 57.61.01 31.77-25.83 57.61-57.6 57.61z"/><path d="m79.37 74.87c9.41-3.88 16.04-13.07 16.04-23.77 0-14.19-11.66-25.74-26-25.74h-27.37c-.11 0-.21.04-.31.06h-4.68c-.9 0-1.62.73-1.62 1.62v73c0 .89.72 1.62 1.62 1.62h15.83c.89 0 1.61-.73 1.61-1.62v-23.2h6.25l18.22 24.22c.32.43.83.68 1.37.68h15.83c.65 0 1.24-.37 1.53-.94.29-.58.23-1.28-.16-1.79zm-11.59-13.2c-.13 0-.25.04-.39.04h-12.61c-.04 0-.07-.03-.09-.04-.07-.02-.13-.03-.18-.08-.09-.08-.14-.18-.14-.31v-20.37c0-.13.05-.23.14-.31.05-.04.11-.05.16-.07.04-.01.07-.05.12-.05h12.61c.16 0 .3.04.45.05 5.43.25 9.79 4.87 9.79 10.56 0 5.72-4.4 10.36-9.86 10.58z"/></g></svg>