<svg viewBox="0 0 128 128" xmlns="http://www.w3.org/2000/svg"><path d="m102.47 54.71h18.58v18.57h-18.58z" fill="#2f2f2f"/><path d="m35.1.39h56.94v127.23h-56.94z" fill="#855c52"/><path d="m111.76 64c0 26.61-21.57 48.18-48.18 48.18s-48.18-21.57-48.18-48.18 21.56-48.18 48.18-48.18 48.18 21.57 48.18 48.18z" fill="#fff"/><g fill="#2f2f2f"><path d="m63.58 114.62c-27.92 0-50.62-22.71-50.62-50.62s22.71-50.62 50.62-50.62 50.62 22.71 50.62 50.62-22.71 50.62-50.62 50.62zm0-96.36c-25.22 0-45.74 20.52-45.74 45.74s20.52 45.74 45.74 45.74 45.74-20.52 45.74-45.74c-.01-25.22-20.52-45.74-45.74-45.74z"/><path d="m71.33 64c0 4.29-3.48 7.75-7.76 7.75s-7.75-3.46-7.75-7.75c0-4.28 3.47-7.74 7.75-7.74 4.28-.01 7.76 3.46 7.76 7.74z"/><path d="m77.22 32.7h7.44v42.74h-7.44z" transform="matrix(-.4968 -.8679 .8679 -.4968 74.228 151.1878)"/><path d="m38.19 53.58 3.72-6.44 24.71 14.31-3.72 6.44z"/></g><path d="m66.5 64c0 1.62-1.3 2.93-2.92 2.93-1.61 0-2.92-1.31-2.92-2.93 0-1.6 1.31-2.91 2.92-2.91s2.92 1.31 2.92 2.91z" fill="#fff"/><g fill="#2f2f2f"><path d="m106.05 64c0 1.62-1.31 2.93-2.92 2.93-1.62 0-2.92-1.31-2.92-2.93 0-1.6 1.3-2.91 2.92-2.91 1.61 0 2.92 1.31 2.92 2.91z"/><path d="m84.82 27.21c1.39.81 1.87 2.59 1.07 3.99-.81 1.39-2.59 1.87-3.99 1.06-1.4-.8-1.88-2.6-1.07-3.99.8-1.38 2.59-1.86 3.99-1.06z"/><path d="m42.33 27.21c1.4-.8 3.19-.33 3.99 1.06.8 1.4.33 3.19-1.06 3.99-1.4.81-3.19.34-3.99-1.07-.81-1.39-.33-3.17 1.06-3.98z"/><path d="m63.58 21.53c1.62 0 2.92 1.3 2.92 2.92s-1.3 2.92-2.92 2.92c-1.61 0-2.92-1.3-2.92-2.92s1.31-2.93 2.92-2.92z"/><path d="m26.79 42.76c.81-1.39 2.59-1.87 3.99-1.06 1.39.81 1.87 2.58 1.07 3.98s-2.59 1.88-3.99 1.07c-1.39-.81-1.88-2.59-1.07-3.99z"/><path d="m21.1 64c0-1.61 1.3-2.92 2.91-2.91 1.62 0 2.92 1.3 2.92 2.91s-1.3 2.93-2.92 2.91c-1.61 0-2.91-1.29-2.91-2.91z"/><path d="m26.79 85.24c-.8-1.4-.32-3.18 1.07-3.99 1.4-.81 3.18-.33 3.99 1.07.8 1.4.32 3.18-1.07 3.98-1.4.81-3.19.33-3.99-1.06z"/><path d="m42.33 100.79c-1.39-.81-1.87-2.59-1.07-3.98.81-1.4 2.59-1.88 3.99-1.07 1.4.8 1.87 2.6 1.07 3.99s-2.6 1.87-3.99 1.06z"/><path d="m63.58 106.48c-1.62 0-2.92-1.31-2.92-2.92s1.29-2.92 2.92-2.92c1.61 0 2.92 1.31 2.91 2.92.01 1.61-1.31 2.92-2.91 2.92z"/><path d="m84.81 100.79c-1.4.8-3.18.33-3.99-1.06-.8-1.4-.32-3.18 1.07-3.99s3.19-.33 3.99 1.07c.81 1.38.33 3.17-1.07 3.98z"/><path d="m100.37 85.24c-.82 1.39-2.6 1.87-3.99 1.07-1.41-.81-1.88-2.59-1.08-3.98.81-1.4 2.6-1.88 4-1.07 1.39.8 1.87 2.59 1.07 3.98z"/></g></svg>