<svg xmlns="http://www.w3.org/2000/svg" viewBox="0 0 128 128"><path fill="#607D8B" d="M68.324 17.126v11.04h-8.71v-11.04h8.71Z"/><path fill="#B0BEC5" d="M55.19 6.84c0-.7.39-1.35 1.02-1.66C57.3 4.63 59.54 4 64 4s6.7.63 7.8 1.18c.63.31 1.02.96 1.02 1.66v9.01c0 1.35-1.26 1.54-2.28 1.54l-13.6-.16c-1.57-.22-1.73-.36-1.73-1.38V6.84Z"/><path fill="#607D8B" d="M72.65 16.56a8.65 1.56 0 1 1-17.3 0 8.65 1.56 0 1 1 17.3 0Z"/><path fill="#FBE9E7" d="M61.41 12.61c-.1.48-1.23.78-1.48-.32-.31-1.37-.18-4.51.03-6.02.11-.8 1.49-1.07 1.59.42.08 1.21-.04 5.44-.14 5.92ZM58.37 12.7c-.08 1.02-1.86 2.3-1.95.53-.12-2.34-.04-4.51.03-5.73.08-1.46 1.89-1.73 1.91-.18.01 1.45.1 4.17.01 5.38Z"/><path fill="#78909C" d="M66.87 12.61c.1.48 1.23.78 1.48-.32.31-1.37.18-4.51-.03-6.02-.11-.8-1.49-1.07-1.59.42-.08 1.21.04 5.44.14 5.92Z"/><path fill="#607D8B" d="M69.8 12.7c.08 1.02 1.86 2.3 1.95.53.12-2.34.04-4.51-.03-5.73-.08-1.46-1.89-1.73-1.91-.18-.01 1.45-.1 4.17-.01 5.38ZM108.039 36.527l-6.555 6.555-5.176-5.176 6.555-6.555 5.176 5.176Z"/><path fill="#B0BEC5" d="M106.34 22.61a1.54 1.54 0 0 1 1.59-.38c.98.33 2.68 1.28 5.33 3.93 2.65 2.65 3.6 4.35 3.93 5.33.19.56.03 1.17-.38 1.59l-5.35 5.35c-.8.8-1.66.17-2.27-.44l-7.99-8.18c-.8-1.06-.82-1.24-.21-1.85l5.35-5.35Z"/><path fill="#607D8B" d="M106.725 32.696c2.839 2.839 4.726 5.555 4.214 6.067-.511.512-3.228-1.375-6.067-4.214-2.839-2.839-4.726-5.556-4.214-6.067.512-.512 3.228 1.375 6.067 4.214Z"/><path fill="#FBE9E7" d="M106.61 29.74c-.35.23-1.19-.27-.69-1.07.63-1 2.57-2.79 3.6-3.56.54-.41 1.52.25.7 1.19-.68.77-3.27 3.21-3.61 3.44ZM104.75 27.98c-.65.56-2.47.26-1.48-.84 1.32-1.47 2.66-2.7 3.42-3.39.92-.82 2.15.1 1.24 1.03-.84.87-2.41 2.54-3.18 3.2Z"/><path fill="#B0BEC5" d="M114.94 73.06a50.94 50.94 0 1 1-101.88 0 50.94 50.94 0 1 1 101.88 0Z"/><path fill="#FAFAFA" d="M104.87 73.06a40.87 40.87 0 1 1-81.74 0 40.87 40.87 0 1 1 81.74 0Z"/><path fill="#B2947C" d="M64 43.08c-.81 0-1.47-.66-1.47-1.47v-4.4c0-.81.66-1.47 1.47-1.47.81 0 1.47.66 1.47 1.47v4.4c0 .82-.66 1.47-1.47 1.47ZM64 110.67c-.81 0-1.47-.66-1.47-1.47v-4.4c0-.81.66-1.47 1.47-1.47.81 0 1.47.66 1.47 1.47v4.4c0 .81-.66 1.47-1.47 1.47ZM99.99 74.68h-4.4c-.81 0-1.47-.66-1.47-1.47 0-.81.66-1.47 1.47-1.47h4.4c.81 0 1.47.66 1.47 1.47 0 .81-.66 1.47-1.47 1.47ZM32.41 74.68h-4.4c-.81 0-1.47-.66-1.47-1.47 0-.81.66-1.47 1.47-1.47h4.4c.81 0 1.47.66 1.47 1.47 0 .81-.66 1.47-1.47 1.47Z"/><path fill="#B2947C" d="M64 43.08c-.81 0-1.47-.66-1.47-1.47v-4.4c0-.81.66-1.47 1.47-1.47.81 0 1.47.66 1.47 1.47v4.4c0 .82-.66 1.47-1.47 1.47ZM64 110.67c-.81 0-1.47-.66-1.47-1.47v-4.4c0-.81.66-1.47 1.47-1.47.81 0 1.47.66 1.47 1.47v4.4c0 .81-.66 1.47-1.47 1.47ZM46.93 46.58l-2.2-3.81c-.41-.7-.17-1.6.54-2.01.7-.41 1.6-.17 2.01.54l2.2 3.81c.41.7.17 1.6-.54 2.01-.7.4-1.6.16-2.01-.54ZM80.73 105.11l-2.2-3.81c-.41-.7-.16-1.6.54-2.01.7-.41 1.6-.16 2.01.54l2.2 3.81c.41.7.16 1.6-.54 2.01-.71.41-1.61.17-2.01-.54Z"/><path fill="#B2947C" d="m46.93 46.58-2.2-3.81c-.41-.7-.17-1.6.54-2.01.7-.41 1.6-.17 2.01.54l2.2 3.81c.41.7.17 1.6-.54 2.01-.7.4-1.6.16-2.01-.54ZM80.73 105.11l-2.2-3.81c-.41-.7-.16-1.6.54-2.01.7-.41 1.6-.16 2.01.54l2.2 3.81c.41.7.16 1.6-.54 2.01-.71.41-1.61.17-2.01-.54ZM35.91 58.68l-3.81-2.2c-.7-.41-.94-1.3-.54-2.01.41-.7 1.3-.94 2.01-.54l3.81 2.2c.7.41.94 1.3.54 2.01-.41.71-1.31.95-2.01.54ZM94.44 92.48l-3.81-2.2c-.7-.41-.94-1.3-.54-2.01.41-.7 1.3-.94 2.01-.54l3.81 2.2c.7.41.94 1.3.54 2.01-.41.7-1.31.94-2.01.54ZM79.06 47.12c-.7-.41-.94-1.3-.54-2.01l2.2-3.81c.41-.7 1.3-.94 2.01-.54.7.41.94 1.3.54 2.01l-2.2 3.81c-.41.7-1.31.94-2.01.54ZM45.27 105.65c-.7-.41-.94-1.3-.54-2.01l2.2-3.81c.41-.7 1.3-.94 2.01-.54.7.41.94 1.3.54 2.01l-2.2 3.81c-.41.71-1.31.95-2.01.54ZM90.09 58.15c-.41-.7-.17-1.6.54-2.01l3.81-2.2c.7-.41 1.6-.16 2.01.54.41.7.16 1.6-.54 2.01l-3.81 2.2c-.71.4-1.61.16-2.01-.54ZM31.56 91.94c-.41-.7-.16-1.6.54-2.01l3.81-2.2c.7-.41 1.6-.16 2.01.54.41.7.16 1.6-.54 2.01l-3.81 2.2c-.71.4-1.61.16-2.01-.54Z"/><path fill="#82AEC0" d="M73.79 56.12a9.79 9.79 0 1 1-19.58 0 9.79 9.79 0 1 1 19.58 0Z" opacity=".42"/><path fill="#563428" d="M65.5 38.63s.17-3.27-1.54-3.27-1.54 3.27-1.54 3.27l-1.16 34.58h5.5L65.5 38.63Z"/><path fill="#563428" d="M68.11 73.16a4.11 4.11 0 1 1-8.22 0 4.11 4.11 0 1 1 8.22 0Z"/><path fill="#ECEFF1" d="M52.04 31.4c-5.45 1.58-13.09 4-21.25 13.76-8.07 9.65-9.74 20.86-10.25 28.6 0 0-4.66 5.83-4.88 4.74-1.76-8.45 1.79-27.33 11.07-37.31 10.8-11.62 24.85-15.74 29.92-16.51.88-.13-2.95 6.24-4.61 6.72Z" opacity=".64"/></svg>