<svg xmlns="http://www.w3.org/2000/svg" viewBox="0 0 128 128"><path fill="#194FA5" d="M123.93 64a60 60 0 1 1-120 0 60 60 0 1 1 120 0Z"/><path fill="#2262DD" d="M116.13 63.1a56.1 56.1 0 1 1-112.2 0 56.1 56.1 0 1 1 112.2 0Z"/><path fill="#68ABE6" d="M23.93 29.7c4.5-7.1 14.1-13 24.1-14.8 2.5-.4 5-.6 7.1.2 1.6.6 2.9 2.1 2 3.8-.7 1.4-2.6 2-4.1 2.5a44.64 44.64 0 0 0-23 17.4c-2 3-5 11.3-8.7 9.2-3.9-2.3-3.1-9.5 2.6-18.3Z" opacity=".65"/><path fill="#FBF9F9" d="M29.6 34.15h15.01L61 77.55h.69l16.39-43.39h15.1v61.77H81.61V65.47l.69-10.26h-.69l-15.7 40.72h-9.06L41.07 55.2h-.69l.69 10.26v30.45H29.6V34.15Z"/><path fill="#68ABE6" d="M23.93 29.7c4.5-7.1 14.1-13 24.1-14.8 2.5-.4 5-.6 7.1.2 1.6.6 2.9 2.1 2 3.8-.7 1.4-2.6 2-4.1 2.5a44.64 44.64 0 0 0-23 17.4c-2 3-5 11.3-8.7 9.2-3.9-2.3-3.1-9.5 2.6-18.3Z" opacity=".3"/></svg>