<svg viewBox="0 0 128 128" xmlns="http://www.w3.org/2000/svg"><g fill="#fcc21b"><path d="m64 30.34c-18.59 0-33.66 15.07-33.66 33.65 0 18.59 15.07 33.66 33.66 33.66s33.66-15.07 33.66-33.66c0-18.58-15.07-33.65-33.66-33.65z"/><path d="m56.76 24.21h14.49c.67 0 1.29-.33 1.68-.88.38-.54.47-1.25.24-1.88l-7.25-19.62c-.3-.81-1.06-1.34-1.92-1.34s-1.62.54-1.92 1.34l-7.25 19.63c-.23.63-.14 1.33.24 1.88.39.55 1.02.87 1.69.87z"/><path d="m97.26 40.99c.38.39.91.6 1.44.6.12 0 .24-.01.36-.03.66-.12 1.21-.55 1.5-1.16l8.76-19.01c.36-.78.19-1.69-.41-2.3-.61-.61-1.53-.77-2.31-.42l-19 8.77c-.61.28-1.04.84-1.16 1.5s.1 1.33.56 1.81z"/><path d="m126.18 62.08-19.64-7.24c-.63-.23-1.33-.14-1.88.24s-.87 1-.87 1.67l.01 14.49c0 .67.33 1.3.88 1.68.35.23.76.36 1.17.36.24 0 .48-.04.71-.13l19.64-7.24c.8-.29 1.34-1.06 1.34-1.93-.02-.84-.55-1.6-1.36-1.9z"/><path d="m100.56 87.6c-.28-.61-.84-1.04-1.5-1.16-.66-.11-1.34.1-1.8.57l-10.25 10.25c-.47.47-.69 1.15-.57 1.81.12.65.55 1.22 1.16 1.5l19.01 8.76c.27.13.56.18.86.18.53 0 1.05-.21 1.44-.6.61-.61.77-1.52.41-2.3z"/><path d="m71.24 103.78-14.49.01c-.67 0-1.29.33-1.67.88s-.47 1.25-.25 1.87l7.25 19.64c.3.8 1.06 1.34 1.92 1.34s1.62-.54 1.92-1.34l7.25-19.64c.23-.63.14-1.33-.24-1.88-.39-.55-1.01-.88-1.69-.88z"/><path d="m30.74 87.01c-.47-.47-1.14-.68-1.8-.57-.66.12-1.22.55-1.5 1.16l-8.76 19.01c-.36.78-.19 1.7.42 2.3.39.39.91.6 1.44.6.29 0 .58-.06.86-.19l19.01-8.77c.61-.28 1.04-.84 1.16-1.5s-.1-1.33-.57-1.8z"/><path d="m22.17 73.29c.41 0 .82-.13 1.17-.37.55-.38.88-1.01.88-1.68l-.01-14.49c0-.67-.33-1.29-.88-1.68-.55-.38-1.25-.47-1.87-.24l-19.64 7.25c-.8.29-1.34 1.06-1.34 1.92 0 .85.53 1.62 1.34 1.92l19.65 7.24c.23.09.46.13.7.13z"/><path d="m27.45 40.4c.28.61.84 1.04 1.5 1.16.12.02.24.03.36.03.54 0 1.06-.21 1.45-.6l10.24-10.25c.47-.48.68-1.15.56-1.81-.12-.65-.55-1.21-1.16-1.49l-19.02-8.76c-.78-.36-1.69-.19-2.3.42s-.77 1.52-.41 2.3z"/></g></svg>