<svg xmlns="http://www.w3.org/2000/svg" viewBox="0 0 128 128"><defs><linearGradient id="a" x1="119.004" x2="20.644" y1="-7.841" y2="-112.887" gradientTransform="matrix(.9948 .035 .0441 -.9944 0 0)" gradientUnits="userSpaceOnUse"><stop offset="0" stop-color="#FFF" stop-opacity="0"/><stop offset=".157" stop-color="#D3F0F9" stop-opacity=".157"/><stop offset=".365" stop-color="#9FDFF3" stop-opacity=".365"/><stop offset=".561" stop-color="#76D2EE" stop-opacity=".561"/><stop offset=".738" stop-color="#58C8EA" stop-opacity=".738"/><stop offset=".89" stop-color="#46C2E8" stop-opacity=".89"/><stop offset="1" stop-color="#40C0E7"/></linearGradient><linearGradient id="b" x1="115.884" x2="17.359" y1="-10.502" y2="-114.386" gradientTransform="scale(1 -1) rotate(-2.688)" gradientUnits="userSpaceOnUse"><stop offset="0" stop-color="#FFF" stop-opacity="0"/><stop offset="1" stop-color="#B388FF"/></linearGradient><linearGradient id="c" x1="86.064" x2="22.211" y1="-46.494" y2="-109.22" gradientTransform="scale(1 -1) rotate(-2.275)" gradientUnits="userSpaceOnUse"><stop offset="0" stop-color="#FFF" stop-opacity="0"/><stop offset="1" stop-color="#E0F7FA"/></linearGradient></defs><path fill="url(#a)" d="M28.8 123.12c-7.67 5.38-17.35 6.15-23.57-.86-6.22-7.01-4.82-16.55.64-24.32C16.49 82.85 83.8 1.31 83.8 1.31s21.18-3.99 34 11.33 9.01 35.08 9.01 35.08-82.48 64.52-98.01 75.4Z"/><path fill="url(#b)" d="M3.7 106.8c6.52-9.74 33.69-41.77 49.65-55.79C69.31 37 74.04 32.55 88.93 21.64c3.5-2.56 14.38-2.51 18.6 2.92 4.73 6.08 3.24 14.42 1.28 17.76-1.41 2.4-20.34 24.63-32.45 35.35-12.11 10.72-50.52 45.07-56.8 48.04-6.28 2.96-11.61-.81-14.53-3.68-2.92-2.88-4.11-11.06-1.33-15.23Z" opacity=".5"/><path fill="url(#c)" d="M6.93 107.4s29.01-25.87 46.35-39.39c37.44-29.21 20.74-5.81-33.05 52.38 0-.01-10.74 3.77-13.3-12.99Z"/><path fill="#E0F7FA" d="M19.54 108.15c3.41 3.84 3.18 9.83-.51 13.38-3.69 3.55-9.45 3.31-12.86-.53s-3.18-9.83.51-13.38c3.7-3.55 9.45-3.31 12.86.53Z"/><path fill="#FFF" d="M22 116a1 1 0 1 1-2 0 1 1 0 1 1 2 0ZM20 102a1 1 0 1 1-2 0 1 1 0 1 1 2 0ZM20 92.25a1 1 0 1 1-2 0 1 1 0 1 1 2 0ZM12.75 116a1.75 1.75 0 1 1-3.5 0 1.75 1.75 0 1 1 3.5 0ZM25.75 107a1.75 1.75 0 1 1-3.5 0 1.75 1.75 0 1 1 3.5 0ZM31.75 97.75a1.75 1.75 0 1 1-3.5 0 1.75 1.75 0 1 1 3.5 0ZM14.5 108.75a1.75 1.75 0 1 1-3.5 0 1.75 1.75 0 1 1 3.5 0ZM41.2 103a1 1 0 1 1-2 0 1 1 0 1 1 2 0ZM53.75 90.5a1.25 1.25 0 1 1-2.5 0 1.25 1.25 0 1 1 2.5 0ZM44.5 91a1.25 1.25 0 1 1-2.5 0 1.25 1.25 0 1 1 2.5 0ZM72.5 63a1.25 1.25 0 1 1-2.5 0 1.25 1.25 0 1 1 2.5 0ZM53.5 75a1.25 1.25 0 1 1-2.5 0 1.25 1.25 0 1 1 2.5 0ZM42.25 75a1.25 1.25 0 1 1-2.5 0 1.25 1.25 0 1 1 2.5 0ZM108.25 36.25a1.25 1.25 0 1 1-2.5 0 1.25 1.25 0 1 1 2.5 0ZM92.25 35.75a1.25 1.25 0 1 1-2.5 0 1.25 1.25 0 1 1 2.5 0ZM92 48a1.25 1.25 0 1 1-2.5 0 1.25 1.25 0 1 1 2.5 0ZM64.5 57a1.25 1.25 0 1 1-2.5 0 1.25 1.25 0 1 1 2.5 0ZM68 84a1 1 0 1 1-2 0 1 1 0 1 1 2 0ZM68 72a1 1 0 1 1-2 0 1 1 0 1 1 2 0ZM47 64a1 1 0 1 1-2 0 1 1 0 1 1 2 0ZM39 67a1 1 0 1 1-2 0 1 1 0 1 1 2 0ZM73 42a1 1 0 1 1-2 0 1 1 0 1 1 2 0ZM57.75 58.5a1.25 1.25 0 1 1-2.5 0 1.25 1.25 0 1 1 2.5 0ZM54 56a1 1 0 1 1-2 0 1 1 0 1 1 2 0ZM32.75 111.5a1 1 0 1 1-2 0 1 1 0 1 1 2 0ZM34 78a1 1 0 1 1-2 0 1 1 0 1 1 2 0ZM31 87.09a1 1 0 1 1-2 0 1 1 0 1 1 2 0Z"/></svg>