<svg viewBox="0 0 128 128" xmlns="http://www.w3.org/2000/svg"><path d="m69.62 32.28-.82-16.65c-.18-2.5-2.12-4.43-4.45-4.43h-.23c-2.34 0-4.28 1.93-4.45 4.43l-.86 17.25c-.09 1.33.33 2.64 1.18 3.61.84.98 2.03 1.53 3.27 1.53h1.95.03c2.46 0 4.46-2.14 4.46-4.79.02-.31-.01-.64-.08-.95z" fill="#78a3ad"/><path d="m49.86 127.65c-9.23 0-17.23-6.25-19.46-15.2-.76-3.04 1.1-6.12 4.14-6.88 3.03-.77 6.12 1.1 6.88 4.14.97 3.88 4.44 6.59 8.44 6.59 4.8 0 8.7-3.9 8.7-8.71v-62.33c0-3.14 2.54-5.68 5.67-5.68s5.68 2.54 5.68 5.68v62.32c0 11.07-8.99 20.07-20.05 20.07z" fill="#78a3ad"/><path d="m25.44 67.47c8.32 0 15.55 4.62 19.28 11.43 3.73-6.81 10.97-11.43 19.28-11.43 8.32 0 15.55 4.62 19.28 11.43 3.73-6.81 10.96-11.43 19.28-11.43 6.71 0 12.71 3.02 16.74 7.76.12-1.13.2-2.26.2-3.41 0-22.98-24.85-41.62-55.5-41.62s-55.5 18.63-55.5 41.62c0 1.15.08 2.28.2 3.41 4.03-4.74 10.03-7.76 16.74-7.76z" fill="#006ca2"/><g fill="#40c0e7"><path d="m87.98 39.73c-.26 0-.52.06-.75.18-1.35.67-6.01 10.14-6.01 15.61 0 3.73 3.04 6.76 6.76 6.76 3.73 0 6.77-3.04 6.77-6.76-.01-4.14-4.28-15.79-6.77-15.79z"/><path d="m98.13.35c-.27 0-.54.06-.78.18-1.4.68-6.23 10.51-6.23 16.18 0 3.87 3.15 7.01 7.01 7.01s7.01-3.14 7.01-7.01c0-4.28-4.42-16.36-7.01-16.36z"/><path d="m28 .35c-.27 0-.54.06-.78.18-1.4.68-6.23 10.51-6.23 16.18 0 3.87 3.15 7.01 7.01 7.01 3.87 0 7.01-3.14 7.01-7.01.01-4.28-4.42-16.36-7.01-16.36z"/></g><path d="m83.28 81.27c-.86 0-1.66-.47-2.07-1.23-3.45-6.29-10.04-10.2-17.21-10.2-7.16 0-13.76 3.91-17.21 10.2-.83 1.52-3.32 1.52-4.15 0-3.45-6.29-10.04-10.2-17.21-10.2-5.75 0-11.19 2.53-14.94 6.93-.61.72-1.59 1-2.5.73-.9-.28-1.55-1.07-1.66-2.01-.13-1.21-.22-2.43-.22-3.67 0-24.25 25.96-43.98 57.87-43.98s57.87 19.73 57.87 43.98c0 1.23-.08 2.46-.22 3.67-.1.94-.76 1.73-1.66 2.01-.91.26-1.88-.01-2.49-.73-3.74-4.4-9.19-6.93-14.94-6.93-7.17 0-13.76 3.91-17.21 10.2-.39.76-1.18 1.23-2.05 1.23zm-57.84-16.16c7.62 0 14.71 3.56 19.28 9.49 4.57-5.93 11.66-9.49 19.28-9.49s14.71 3.56 19.28 9.49c4.56-5.93 11.66-9.49 19.28-9.49 5.28 0 10.35 1.71 14.51 4.81-1.34-20.76-24.63-37.35-53.07-37.35s-51.73 16.59-53.07 37.35c4.16-3.1 9.23-4.81 14.51-4.81z" fill="#006ca2"/></svg>