<svg viewBox="0 0 128 128" xmlns="http://www.w3.org/2000/svg"><path d="m119.16 48.55c0-13.4-10.9-24.31-24.3-24.31-2.32 0-4.55.35-6.67.96-1.22-12.29-11.6-21.91-24.19-21.91-5.85 0-11.23 2.08-15.43 5.55-4.19-3.47-9.57-5.55-15.42-5.55-13.4 0-24.3 10.91-24.3 24.3v51.45h17.75v-51.45c0-3.61 2.94-6.55 6.55-6.55s6.55 2.94 6.55 6.55v51.45h17.75v-51.45c0-3.61 2.94-6.55 6.55-6.55s6.55 2.94 6.55 6.55v57.51c0 3.56 0 7.63.56 11.8-6.84 3.91-15.15 7.6-25.32 10.96l5.56 16.85c9.99-3.3 18.85-7.06 26.6-11.32.39.45.79.9 1.23 1.34 6.29 6.3 15.65 9.36 28.6 9.36v-17.75c-4.77 0-10.92-.56-14.66-3.04 17.46-14.12 26.04-32.26 26.04-54.75zm-24.31-6.56c3.61 0 6.55 2.95 6.55 6.56 0 10.91-2.09 23.42-13.11 35.19v-35.19c.01-3.61 2.95-6.56 6.56-6.56z" fill="#fcc21b"/></svg>