<svg viewBox="0 0 128 128" xmlns="http://www.w3.org/2000/svg"><path d="m95.25 46.94c-1.43 0-2.82.14-4.2.33 1.89-3.93 2.98-8.31 2.98-12.96 0-16.55-13.47-30.03-30.03-30.03-16.55 0-30.02 13.47-30.02 30.03 0 4.64 1.09 9.03 2.98 12.96-1.38-.19-2.77-.33-4.2-.33-16.55 0-30.02 13.47-30.02 30.02-.01 16.56 13.46 30.04 30.01 30.04 8.93 0 16.94-3.94 22.45-10.15-2.93 14.28-7.7 22.99-7.77 23.12-.44.78-.43 1.73.02 2.51.45.77 1.28 1.25 2.18 1.25h28.75c.89 0 1.72-.48 2.17-1.25s.46-1.73.03-2.51c-.07-.13-4.84-8.83-7.77-23.12 5.5 6.21 13.51 10.15 22.44 10.15 16.56 0 30.02-13.47 30.02-30.03s-13.47-30.03-30.02-30.03z" fill="#2f2f2f"/><path d="m78.38 124.98h-28.75c-1.33 0-2.58-.71-3.26-1.87s-.69-2.6-.04-3.76c.17-.31 3.89-7.25 6.7-18.61-5.64 4.82-12.82 7.52-20.27 7.52-17.25 0-31.29-14.04-31.29-31.29s14.04-31.29 31.29-31.29c.69 0 1.41.03 2.17.09-1.47-3.68-2.21-7.52-2.21-11.46-.01-17.25 14.03-31.29 31.28-31.29s31.29 14.04 31.29 31.29c0 3.94-.74 7.78-2.21 11.46.76-.06 1.48-.09 2.17-.09 17.25 0 31.29 14.04 31.29 31.29s-14.04 31.29-31.29 31.29c-7.45 0-14.63-2.7-20.27-7.52 2.81 11.36 6.53 18.3 6.71 18.62.65 1.16.63 2.6-.05 3.75-.69 1.15-1.93 1.87-3.26 1.87zm-21-32.49-.94 4.61c-2.86 13.93-7.39 22.53-7.9 23.46-.23.41-.22.89 0 1.27s.64.62 1.09.62h28.75c.44 0 .86-.24 1.09-.62.22-.38.23-.86.01-1.25-.52-.96-5.05-9.56-7.91-23.48l-.94-4.61 3.12 3.52c5.48 6.18 13.31 9.73 21.5 9.73 15.86 0 28.77-12.91 28.77-28.77s-12.9-28.76-28.77-28.76c-1.19 0-2.47.1-4.02.32l-2.33.33 1.02-2.12c1.9-3.94 2.86-8.12 2.86-12.41-.01-15.88-12.92-28.79-28.78-28.79s-28.77 12.91-28.77 28.77c0 4.29.96 8.47 2.86 12.41l1.02 2.12-2.33-.33c-1.56-.22-2.84-.32-4.03-.32-15.86 0-28.77 12.9-28.77 28.76s12.9 28.77 28.77 28.77c8.18 0 16.02-3.54 21.5-9.73z" fill="#fff"/></svg>