<svg viewBox="0 0 128 128" xmlns="http://www.w3.org/2000/svg"><path d="m96.23 79.73c.89 0 1.61-.05 2.14-.1 13.5-.3 24.4-11.38 24.4-24.96 0-6.85-2.71-13.24-7.65-18l-12.41 12.9c1.4 1.35 2.17 3.16 2.17 5.1 0 3.9-3.17 7.07-7.07 7.07l-.45-.1-.85.19c-.42.02-1.81 0-3.73-.55v-49.89h-17.9v45.08l-21.93-5.67v-39.41h-17.9v35.04c-2.43-.28-4.33-.21-5.41-.11-13.51.3-24.41 11.38-24.41 24.97 0 6.85 2.72 13.24 7.67 17.99l12.41-12.9c-1.4-1.34-2.17-3.15-2.17-5.09 0-3.9 3.17-7.07 7.07-7.07l.46.1.85-.2c.41-.02 1.72.01 3.54.5v31.71c0 13.64 11.1 24.74 24.73 24.74h5.91v-17.9h-5.91c-3.76 0-6.83-3.07-6.83-6.83v-27.04l21.92 5.66v21.38c0 13.64 11.1 24.74 24.73 24.74h5.91v-17.9h-5.92c-3.77 0-6.83-3.07-6.83-6.83v-16.86c1.31.16 2.5.24 3.46.24z" fill="#fcc21b"/></svg>