<svg viewBox="0 0 128 128" xmlns="http://www.w3.org/2000/svg"><path d="m35.701 7.674c0 .034.544 38.245.544 38.245s7.034-2.584 12.035-7.283c4.541-4.265 14.387-6.463 21.005-8.838 14.651-5.261 17.414-10.716 17.414-10.716s.237 1.258-12.606-.268c-3.639-.432-12.439-2.583-17.026-3.879-5.332-1.506-6.797-2.195-10.259-3.454-7.665-2.79-9.471-3.808-9.471-3.808h-1.636z" fill="#e75625"/><path d="m3.338 82.864s3.766-7.624 33.683-13.284c27.59-5.221 48.155-3.152 61.068.806 30.279 9.274-7.582 14.529 4.016 22.11 9.765 6.383 24.706 4.579 24.895 13.077.126 5.789-14.432 9.788-34.226 11.01-44.865 2.771-73.312-8.98-83.042-15.01-8.311-5.152-11.26-13.117-6.394-18.709z" fill="#a2c02b"/><path d="m43.314 91.731 21.084-25.208c-2.791.077-5.696.235-8.707.489l-15.323 22.249z" fill="#626e30"/><ellipse cx="37.459" cy="91.099" fill="#2f2f2f" rx="16.616" ry="5.5"/><path d="m37.577 96.557c.15 0 .299-.005.454-.006v-88.055c0-.985-.801-1.783-1.786-1.783-.981 0-1.783.798-1.783 1.783v87.962c1.012.063 2.045.099 3.115.099z" fill="#fbb817"/></svg>