<svg viewBox="0 0 128 128" xmlns="http://www.w3.org/2000/svg"><path d="m109.54 93.9c1.38 1.38 1.38 3.65 0 5.03l-10.6 10.61c-1.38 1.38-3.65 1.38-5.03 0l-29.91-29.9-29.9 29.9c-1.38 1.38-3.65 1.38-5.03 0l-10.61-10.61c-1.38-1.38-1.38-3.65 0-5.03l29.9-29.9-29.9-29.9c-1.38-1.39-1.38-3.65 0-5.04l10.61-10.6c1.38-1.39 3.65-1.39 5.03 0l29.9 29.9 29.9-29.9c1.38-1.39 3.65-1.39 5.03 0l10.61 10.6c1.38 1.39 1.38 3.65 0 5.04l-29.9 29.9z" fill="#fff"/><path d="m123.83.47h-119.66c-2.03 0-3.7 1.66-3.7 3.7v119.66c0 2.04 1.66 3.7 3.7 3.7h119.66c2.03 0 3.69-1.66 3.69-3.7v-119.66c.01-2.04-1.65-3.7-3.69-3.7zm-14.29 93.43c1.38 1.38 1.38 3.65 0 5.03l-10.6 10.61c-1.38 1.38-3.65 1.38-5.03 0l-29.91-29.9-29.9 29.9c-1.38 1.38-3.65 1.38-5.03 0l-10.61-10.61c-1.38-1.38-1.38-3.65 0-5.03l29.9-29.9-29.9-29.9c-1.38-1.39-1.38-3.65 0-5.04l10.61-10.6c1.38-1.39 3.65-1.39 5.03 0l29.9 29.9 29.9-29.9c1.38-1.39 3.65-1.39 5.03 0l10.61 10.6c1.38 1.39 1.38 3.65 0 5.04l-29.9 29.9z" fill="#ed6c30"/></svg>