<svg viewBox="0 0 128 128" xmlns="http://www.w3.org/2000/svg"><g fill="#757f3f"><path d="m64 32.42c8.46 0 15.31-6.85 15.31-15.31 0-8.45-6.85-15.31-15.31-15.31s-15.31 6.86-15.31 15.31c0 8.46 6.86 15.31 15.31 15.31z"/><path d="m64 95.58c-8.46 0-15.31 6.86-15.31 15.31 0 8.46 6.85 15.31 15.31 15.31s15.31-6.85 15.31-15.31-6.85-15.31-15.31-15.31z"/><path d="m8.57 51.69c-4.36 0-7.92 3.56-7.92 7.92v8.78c0 4.36 3.56 7.92 7.92 7.92h110.86c4.36 0 7.92-3.56 7.92-7.92v-8.78c0-4.36-3.56-7.92-7.92-7.92z"/></g></svg>