<svg viewBox="0 0 128 128" xmlns="http://www.w3.org/2000/svg"><path d="m64 33.69c-22.92-8.86-44.1-5.06-53.62-2.46v15.06c.2-.08 16.69-6.31 36.84-2.49-8.82 8.32-12.78 19.59-11.06 32.49 1.78 13.43 13.71 23.56 27.93 23.56 14.04 0 25.97-10.12 27.75-23.56 1.72-12.9-2.24-24.18-11.06-32.49 20.13-3.81 36.64 2.41 36.84 2.49v-15.06c-9.52-2.6-30.71-6.41-53.62 2.46zm13.6 40.71c-.93 6.94-7.6 11.09-13.69 11.09-5.92 0-12.59-4.15-13.51-11.08-1.48-11.12 3.1-19.53 13.6-25 10.5 5.46 15.07 13.87 13.6 24.99z" fill="#40c0e7"/></svg>