<svg viewBox="0 0 128 128" xmlns="http://www.w3.org/2000/svg"><path d="m81.49 75.3 6.91 28.15-24.4-15.45-24.39 15.45 6.92-28.15-22-18.26 28.67-2.3 10.8-26.38 10.81 26.38 28.66 2.3z" fill="#fcc21b"/><path d="m127.19 49.52c-.4-1.26-1.52-2.16-2.84-2.27l-41.64-3.32-15.68-38.31c-.51-1.23-1.7-2.02-3.03-2.02s-2.51.79-3.02 2.02l-15.68 38.31-41.65 3.32c-1.32.11-2.44 1.01-2.85 2.27-.38 1.27.01 2.65 1.03 3.5l31.9 26.49-10.03 40.85c-.32 1.29.18 2.65 1.26 3.42.57.42 1.23.62 1.9.62.61 0 1.22-.17 1.75-.5l35.39-22.4 35.39 22.39c1.13.72 2.57.67 3.65-.11 1.08-.77 1.58-2.13 1.26-3.42l-10.03-40.85 31.9-26.5c1.02-.84 1.43-2.22 1.02-3.49zm-45.7 25.78 6.92 28.15-24.41-15.45-24.4 15.44 6.92-28.15-22-18.26 28.67-2.29 10.81-26.38 10.81 26.38 28.66 2.29z" fill="#f79329"/></svg>