<svg viewBox="0 0 128 128" xmlns="http://www.w3.org/2000/svg"><path d="m64 .22c-35.17 0-63.78 28.61-63.78 63.78s28.61 63.77 63.78 63.77 63.78-28.6 63.78-63.77-28.61-63.78-63.78-63.78z" fill="#d7598b"/><g fill="#fff"><path d="m102.4 91.09c-.05.01-1.83.11-3.22-.12l-.58-.17c-1.19-.34-2.05-.57-2.77-2.22-.72-1.61-.99-4.07-1.27-6.68l-.18-1.64c-.38-3.17-.79-7.43-.89-12.56h6.16c.81 0 1.47-.66 1.47-1.47v-36.5c0-.81-.66-1.47-1.47-1.47h-39.36c-.81 0-1.47.66-1.47 1.47v36.5c0 .81.66 1.47 1.47 1.47h5.11c-.69 19.46-9.38 30.08-9.47 30.19-.29.34-.41.79-.32 1.23s.37.81.77 1.02l8.69 4.5c.21.11.44.16.67.16.44 0 .87-.2 1.15-.56.45-.57 10.59-13.72 11.14-36.55h2.83c.22 18.4 3.52 26.73 3.61 26.93.1.36 2.65 8.96 14.73 8.96 1.12 0 2.3-.08 3.51-.23.73-.09 1.29-.72 1.29-1.46v-9.34c0-.41-.17-.8-.47-1.09-.31-.26-.71-.4-1.13-.37zm-30.11-35.36c-.31 0-.57-.26-.57-.57v-14.37c0-.32.26-.58.57-.58h15.36c.31 0 .57.26.57.58v14.37c0 .31-.26.57-.57.57z"/><path d="m59.76 68.4-12.02-12.33 7.81-7.44c.29-.28.46-.67.46-1.07v-10.39c0-.81-.66-1.47-1.47-1.47h-7.2v-9.45c0-.81-.66-1.47-1.47-1.47h-11.53c-.81 0-1.47.66-1.47 1.47v9.45h-10.42c-.81 0-1.47.66-1.47 1.47v10.39c0 .81.66 1.47 1.47 1.47h13.4l-18.31 17.45c-.28.27-.45.64-.46 1.03s.14.77.41 1.05l7.14 7.49c.29.3.68.46 1.07.46.36 0 .73-.14 1.02-.4l6.15-5.87v31.41c0 .81.66 1.47 1.47 1.47h11.54c.81 0 1.47-.66 1.47-1.47v-29.04l4.03 4.13c.28.28.65.44 1.05.44.39 0 .77-.16 1.04-.43l6.28-6.3c.56-.56.57-1.48.01-2.05z"/></g></svg>