<svg viewBox="0 0 128 128" xmlns="http://www.w3.org/2000/svg"><path d="m64 .33c-35.11 0-63.67 28.56-63.67 63.67s28.56 63.67 63.67 63.67 63.67-28.57 63.67-63.67c0-35.11-28.56-63.67-63.67-63.67z" fill="#ed6c30"/><g fill="#fff"><path d="m60.28 78.69-9.1-19.79h7.01c.81 0 1.47-.65 1.47-1.47v-8.63c0-.81-.66-1.47-1.47-1.47h-8.48v-8.25l7.67-2.4c.77-.24 1.2-1.06.96-1.83l-2.83-9.1c-.12-.38-.38-.68-.72-.87-.34-.18-.75-.21-1.12-.1l-27.69 8.68c-.78.25-1.2 1.06-.97 1.84l2.83 9.1c.11.37.37.68.72.87.21.11.45.17.68.17.15 0 .3-.03.44-.06l7.61-2.39v4.11l-.42.21c-.02.01-.03.03-.05.04h-11.65c-.81 0-1.47.66-1.47 1.47v8.63c0 .81.66 1.47 1.47 1.47h9.16l-13.4 27.2c-.35.73-.06 1.6.67 1.97l7.99 3.96c.2.1.43.16.66.16.16 0 .31-.03.47-.08.37-.12.67-.39.85-.74l5.73-11.66v22.27c0 .81.66 1.47 1.47 1.47h9.48c.81 0 1.47-.66 1.47-1.47v-23.39l1.97 4.29c.16.37.47.65.85.77.16.05.32.08.49.08.23 0 .45-.05.66-.15l5.93-3c.69-.35.99-1.19.66-1.91z"/><path d="m104.43 86.95-6.86-4.6c-.4-.27-.9-.32-1.34-.16-.45.16-.78.54-.9 1-1.38 5.34-3.72 5.39-3.76 5.4-.35-.04-.71.05-.99.25.27-.18.53-.22.43-.21-.25 0-.7-.04-1.28-.12l-.58-.16c-1.2-.3-2.06-.52-2.83-2.14-.55-1.14-.87-2.72-1.13-4.48 2.01-3.4 3.93-7.25 5.6-11.63.2-.52 4.82-12.83 6.13-28.33.06-.69-.39-1.34-1.06-1.53l-9.31-2.63c-.41-.12-.86-.05-1.22.19s-.59.63-.64 1.06c-.78 7.07-1.78 12.58-2.71 16.71-.35-3.11-.74-6.66-1.19-10.81-.09-.79-.78-1.38-1.58-1.3l-9.64.79c-.81.06-1.41.78-1.34 1.58 1.23 15.31 2.59 25.87 3.77 33.02-6.53 9.39-13.21 13.23-13.3 13.28-.39.21-.66.59-.74 1.04-.07.44.05.88.35 1.22l6.49 7.29c.29.32.69.49 1.1.49.26 0 .52-.07.75-.21.32-.19 4.28-2.61 9.23-7.82 1.4 2.45 5 6.91 12.74 6.91 1.03 0 2.11-.07 3.14-.23 10.91-.93 13.27-12.28 13.29-12.39.12-.56-.12-1.15-.62-1.48z"/><path d="m65.76 33.9 12.37 6.74c.22.12.46.18.7.18.52 0 1.03-.28 1.29-.76l3.6-6.6c.18-.35.23-.75.12-1.12s-.36-.68-.71-.88l-12.37-6.74c-.71-.38-1.6-.12-1.99.59l-3.6 6.6c-.19.33-.23.74-.12 1.11.11.38.36.69.71.88z"/><path d="m58.83 61.74v11.32c0 .81.66 1.47 1.47 1.47h7.52c.81 0 1.47-.65 1.47-1.47v-11.32c0-.81-.66-1.47-1.47-1.47h-7.52c-.82 0-1.47.65-1.47 1.47z"/><path d="m104.89 63.06c-.06-.38-.28-.73-.6-.96s-.71-.31-1.09-.25l-7.42 1.23c-.8.13-1.34.89-1.21 1.68l2.3 13.9c.12.72.74 1.23 1.44 1.23.08 0 .16-.01.24-.03l7.42-1.22c.39-.06.73-.28.96-.6.22-.31.32-.71.26-1.09z"/></g></svg>