<svg viewBox="0 0 128 128" xmlns="http://www.w3.org/2000/svg"><path d="m120.88 0h-114c-3.78 0-6.88 3.1-6.88 6.88v114.01c0 3.79 3.1 6.88 6.88 6.88h114.01c3.79 0 6.88-3.09 6.88-6.88v-114.01c0-3.78-3.1-6.88-6.89-6.88z" fill="#006ca2"/><path d="m89.21 62.21c5.17-4.93 8.37-11.56 8.37-18.86 0-15.15-13.68-27.48-30.49-27.48h-14.56-19.95c-1.13 0-2.04.92-2.04 2.05v13.7 24.44 13.69 26.49 13.7c0 1.13.91 2.05 2.04 2.05h19.95 18.89c16.82 0 30.5-12.33 30.5-27.48 0-9.19-5.03-17.3-12.71-22.3zm-36.75-8.99v-18.5c0-.07.05-.11.07-.17.07-.16.21-.29.4-.29h1.64 11.11c5.11 0 9.27 4.35 9.27 9.72 0 5.36-4.16 9.72-9.27 9.72h-11.11-1.64c-.19 0-.33-.13-.4-.3-.03-.07-.07-.11-.07-.18zm14.38 40.97c-.13 0-.26.04-.39.04h-11.88-1.57c-.04 0-.07-.03-.1-.04-.2-.06-.36-.21-.36-.43v-21.54c0-.23.16-.38.36-.43.04-.01.07-.05.1-.05h1.57 11.88c.13 0 .26.04.39.05 5.49.23 9.91 5.14 9.91 11.19-.01 6.06-4.42 10.98-9.91 11.21z" fill="#fff"/></svg>