<svg viewBox="0 0 128 128" xmlns="http://www.w3.org/2000/svg"><path d="m121 .11h-114.01c-3.78 0-6.87 3.09-6.87 6.88v114.01c0 3.79 3.09 6.88 6.87 6.88h114.01c3.78 0 6.88-3.09 6.88-6.88v-114.01c0-3.78-3.1-6.88-6.88-6.88z" fill="#006ca2"/><g fill="#fff"><path d="m46.57 18.11c-.16-.72-.81-1.23-1.54-1.23h-12.67c-.74 0-1.37.51-1.54 1.23l-20.38 91.09c-.1.47.01.96.3 1.33.3.37.76.59 1.23.59h13.36c.75 0 1.4-.54 1.54-1.27l3.13-15.78h17.39l3.11 15.78c.15.73.8 1.27 1.54 1.27h13.37c.47 0 .93-.22 1.22-.6.3-.37.42-.86.31-1.33zm-12.94 57.56 5.06-25.63 5.06 25.63z"/><path d="m108.01 62.43c3.32-4.89 5.36-11.59 5.36-19 0-14.89-8.3-27.01-18.5-27.01h-8.67-11.87c-.87 0-1.57.71-1.57 1.58v13.7 24.44 13.7 26.48 13.7c0 .87.7 1.58 1.57 1.58h11.87 11.24c10.2 0 18.5-12.12 18.5-27.01 0-9.18-3.14-17.28-7.93-22.16zm-21.93-27.63c0-.1.05-.19.12-.26.07-.06.14-.1.24-.1h1.34 6.25c3.09 0 5.6 4.31 5.6 9.61s-2.51 9.61-5.6 9.61h-6.25-1.34c-.09 0-.17-.04-.24-.1-.08-.07-.12-.16-.12-.27zm8.41 59.4h-6.71-1.29c-.12 0-.22-.08-.28-.17-.04-.06-.08-.12-.08-.19v-21.54c0-.07.04-.13.08-.19.07-.1.16-.17.28-.17h1.29 6.71c3.48 0 6.2 4.89 6.2 11.13s-2.72 11.13-6.2 11.13z"/></g></svg>