<svg viewBox="0 0 128 128" xmlns="http://www.w3.org/2000/svg"><path d="m120.88.11h-114c-3.79 0-6.88 3.1-6.88 6.89v114.01c0 3.78 3.09 6.88 6.88 6.88h114.01c3.78 0 6.88-3.1 6.88-6.88v-114.01c-.01-3.79-3.1-6.89-6.89-6.89z" fill="#fcc21b"/><g fill="#fff"><path d="m59.82 79.39c-.09-.3-.35-.53-.66-.58s-.63.07-.82.31c-3.47 4.49-9.39 7.88-13.78 7.88-8.44 0-14.56-9.91-14.56-23.56s6.12-23.55 14.56-23.55c4.58 0 9.3 2.43 12.31 6.35.19.25.51.37.81.31.31-.05.56-.27.66-.56l6.96-20.68c.09-.27.04-.57-.13-.79-5.24-6.77-12.19-10.2-20.67-10.2-18.45 0-31.33 20.2-31.33 49.11 0 28.92 12.88 49.12 31.33 49.12 8.38 0 15.61-4.13 21.46-12.29.16-.22.2-.49.12-.75z"/><path d="m111.9 92.45h-25.01v-74.76c0-.87-.71-1.59-1.59-1.59h-12.16c-.88 0-1.59.72-1.59 1.59v91.5c0 .88.72 1.59 1.59 1.59h8.94 3.22 26.6c.88 0 1.59-.71 1.59-1.59v-15.15c0-.88-.71-1.59-1.59-1.59z"/></g></svg>