<svg viewBox="0 0 128 128" xmlns="http://www.w3.org/2000/svg"><path d="m121.03 0h-114.01c-3.78 0-6.88 3.09-6.88 6.88v114.01c0 3.79 3.1 6.88 6.88 6.88h114.01c3.78 0 6.88-3.09 6.88-6.88v-114.01c0-3.79-3.1-6.88-6.88-6.88z" fill="#40c0e7"/><g fill="#fff"><path d="m35.69 77.11c-.25-.04-.49.1-.6.33-2 4.29-5.09 8.64-7.14 8.64-4.07 0-7.01-9.55-7.01-22.69s2.95-22.68 7.01-22.68c1.87 0 4.25 2.72 6.37 7.28.1.23.35.36.59.33.25-.03.45-.21.5-.46l3.69-18.24c.02-.12.01-.25-.04-.36-2.8-6-6.54-9.04-11.14-9.04-9.87 0-16.76 17.74-16.76 43.17 0 25.42 6.89 43.17 16.76 43.17 4.55 0 8.44-3.66 11.56-10.88.05-.1.06-.22.04-.33l-3.33-17.77c-.05-.25-.25-.44-.5-.47z"/><path d="m51.63 20.73c-7.59 0-12.34 19.32-12.34 43.16 0 23.83 4.75 43.15 12.34 43.15 7.6 0 12.34-19.32 12.34-43.15.01-23.85-4.74-43.16-12.34-43.16zm0 67.88c-2.45 0-3.98-11.07-3.98-24.73 0-13.65 1.53-24.72 3.98-24.72s3.99 11.07 3.99 24.72c0 13.66-1.54 24.73-3.99 24.73z"/><path d="m115.7 89.86h-13.02v-67.71c0-.61-.49-1.1-1.1-1.1h-6.46c-.61 0-1.1.49-1.1 1.1v82.47c0 .61.49 1.1 1.1 1.1h4.74 1.71 14.12c.61 0 1.1-.49 1.1-1.1v-13.66c.01-.61-.48-1.1-1.09-1.1z"/><path d="m78.99 20.73c-7.59 0-12.34 19.32-12.34 43.16 0 23.83 4.75 43.15 12.34 43.15 7.6 0 12.34-19.32 12.34-43.15 0-23.85-4.75-43.16-12.34-43.16zm0 67.88c-2.45 0-3.98-11.07-3.98-24.73 0-13.65 1.54-24.72 3.98-24.72 2.45 0 3.99 11.07 3.99 24.72-.01 13.66-1.54 24.73-3.99 24.73z"/></g></svg>