<svg viewBox="0 0 128 128" xmlns="http://www.w3.org/2000/svg"><path d="m120.88 0h-114c-3.78 0-6.88 3.1-6.88 6.88v114.01c0 3.78 3.1 6.88 6.88 6.88h114.01c3.78 0 6.88-3.1 6.88-6.88v-114.01c0-3.78-3.1-6.88-6.89-6.88z" fill="#fcc21b"/><g fill="#fff"><path d="m77.23 16.82h-6.59-9.63-16.36c-1.01 0-1.83.83-1.83 1.84v90.72c0 1.01.82 1.84 1.83 1.84h16.36 9.63 6.59c18.84 0 37.84-14.6 37.84-47.21 0-32.59-19-47.19-37.84-47.19zm-.97 72.25c-.21 0-.41-.06-.6-.12-.09.02-.18.06-.27.06h-2.92-1.83-1.84-4.39c-.69 0-1.27-.41-1.56-.98-.12-.25-.21-.5-.21-.8v-46.43c0-.29.09-.55.21-.8.29-.57.88-.98 1.56-.98h4.39 1.83 1.83 2.92c.1 0 .19.04.27.06.19-.06.39-.12.6-.12.32 0 .65.03.97.05.61.04 1.22.1 1.83.21 8.46 1.39 16.21 9.2 16.21 24.8 0 15.59-7.75 23.4-16.21 24.8-.61.11-1.22.17-1.83.21-.31.01-.63.04-.96.04z"/><path d="m34.2 16.8h-18.4c-1.07 0-1.93.86-1.93 1.92v91.5c0 1.07.87 1.93 1.93 1.93h18.4c1.07 0 1.93-.86 1.93-1.93v-91.5c0-1.06-.87-1.92-1.93-1.92z"/></g></svg>