<svg viewBox="0 0 128 128" xmlns="http://www.w3.org/2000/svg"><path d="m120.88 0h-114c-3.78 0-6.88 3.09-6.88 6.87v114.01c0 3.79 3.1 6.88 6.88 6.88h114.01c3.78 0 6.88-3.09 6.88-6.88v-114.01c0-3.78-3.1-6.87-6.89-6.87z" fill="#ed6c30"/><g fill="#fff"><path d="m72.06 19.15h-15.9-1.92-5.34c-.67 0-1.21.53-1.21 1.2v88c0 .67.54 1.2 1.21 1.2h5.34 1.92 15.9c.66 0 1.2-.53 1.2-1.2v-14.57c0-.67-.54-1.2-1.2-1.2h-14.68v-20.72h11.19c.66 0 1.2-.54 1.2-1.2v-14.57c0-.67-.54-1.21-1.2-1.21h-11.19v-18.76h14.69c.66 0 1.2-.53 1.2-1.2v-14.57c0-.67-.54-1.2-1.21-1.2z"/><path d="m42.93 19.08h-7.26c-.71 0-1.27.57-1.27 1.27v51.27l-12.52-51.57c-.14-.57-.65-.97-1.24-.97h-7.27c-.7 0-1.27.57-1.27 1.27v88c0 .7.57 1.27 1.27 1.27h7.27c.7 0 1.27-.57 1.27-1.27v-51.26l12.52 51.57c.14.57.65.97 1.24.97h7.26c.71 0 1.28-.57 1.28-1.27v-88c0-.71-.57-1.28-1.28-1.28z"/><path d="m115.97 19.55h-7.8c-.65 0-1.19.5-1.24 1.16l-2.6 36.34-3.64-36.38c0-.06-.03-.1-.04-.15-.01-.07-.03-.13-.06-.19-.04-.1-.09-.18-.15-.26-.03-.04-.04-.09-.07-.11-.01-.02-.04-.02-.05-.04-.08-.08-.18-.14-.27-.19-.04-.03-.08-.06-.13-.08-.15-.07-.31-.1-.47-.1h-5.64c-.17 0-.33.04-.48.1-.04.02-.08.05-.12.08-.1.05-.19.11-.27.19-.01.02-.03.02-.05.04-.03.03-.04.08-.07.11-.06.07-.11.16-.15.26-.03.06-.04.12-.06.19-.01.05-.04.09-.05.15l-3.64 36.38-2.6-36.34c-.05-.65-.59-1.16-1.24-1.16h-7.8c-.35 0-.68.14-.91.41-.24.26-.35.6-.32.95l7.8 87.13c0 .06.03.09.04.15s.03.13.06.2c.04.09.09.18.15.26.02.04.03.08.06.11.01.01.03.02.05.03.08.09.18.15.27.21.04.02.08.06.12.07.15.07.32.11.48.11h6.22c.17 0 .33-.04.47-.1.05-.02.08-.06.12-.08.09-.06.19-.11.27-.2.01-.01.03-.01.04-.03.03-.03.04-.08.07-.11.06-.08.11-.16.15-.25.02-.07.04-.13.06-.2.01-.06.04-.1.05-.17l4.07-43.62 4.07 43.62c0 .07.03.11.05.17.01.07.03.13.06.2.04.09.09.17.15.25.03.04.04.08.07.11.01.02.03.02.04.03.08.09.18.14.27.2.04.02.08.06.12.08.15.06.31.1.48.1h6.22c.17 0 .33-.04.48-.11.05-.01.08-.05.12-.07.1-.06.2-.12.28-.21.01-.01.03-.02.04-.03.03-.03.04-.08.07-.11.06-.08.11-.16.15-.26.02-.07.04-.13.06-.2.01-.05.04-.1.04-.15l7.8-87.13c.03-.35-.09-.69-.32-.95-.19-.27-.53-.41-.88-.41z"/></g></svg>