<svg viewBox="0 0 128 128" xmlns="http://www.w3.org/2000/svg"><path d="m121 0h-114.01c-3.78 0-6.87 3.1-6.87 6.88v114.01c0 3.79 3.1 6.88 6.88 6.88h114c3.78 0 6.88-3.1 6.88-6.88v-114.01c0-3.78-3.1-6.88-6.88-6.88z" fill="#ed6c30"/><g fill="#fff"><path d="m116.23 59.92h-20.99c-.43 0-.78.35-.78.78v15.49c0 .2.08.4.23.55s.35.23.55.23l6.63-.02c-.43 8.27-5.63 13.77-10.41 13.77-8.18 0-13.25-13.6-13.25-26.21 0-12.39 4.95-25.22 13.25-25.22 3.48 0 8.16 3.87 10.5 7.47.15.23.42.36.7.35.28-.02.53-.18.65-.44l7.8-15.88c.12-.24.1-.53-.03-.75-5.03-8.23-11.82-12.58-19.63-12.58-16.37 0-27.81 19.35-27.81 47.06 0 27.72 11.44 47.07 27.81 47.07 23.7 0 25.55-38.94 25.55-50.87.01-.45-.34-.8-.77-.8z"/><path d="m58.08 19.12h-10.78c-.85 0-1.54.69-1.54 1.54v52.86l-19.3-53.39c-.22-.61-.8-1.01-1.46-1.01h-10.78c-.85 0-1.54.69-1.54 1.54v87.7c0 .85.69 1.54 1.54 1.54h10.78c.85 0 1.55-.69 1.55-1.54v-52.86l19.3 53.39c.22.61.81 1.01 1.46 1.01h10.78c.85 0 1.55-.69 1.55-1.54v-87.7c-.02-.85-.71-1.54-1.56-1.54z"/></g></svg>