<svg viewBox="0 0 128 128" xmlns="http://www.w3.org/2000/svg"><path d="m120.88 0h-114c-3.78 0-6.88 3.1-6.88 6.88v114.01c0 3.78 3.1 6.88 6.88 6.88h114.01c3.78 0 6.88-3.1 6.88-6.88v-114.01c0-3.78-3.1-6.88-6.89-6.88z" fill="#006ca2"/><g fill="#fff"><path d="m99.32 59.95 15.68-39.09c.18-.46.13-.99-.15-1.4s-.75-.65-1.25-.65h-12.73c-.62 0-1.17.37-1.39.94l-13.3 33.16v-32.61c0-.82-.67-1.5-1.5-1.5h-11.4c-.83 0-1.5.67-1.5 1.5v86.96c0 .82.67 1.5 1.5 1.5h11.4c.83 0 1.5-.67 1.5-1.5v-39.9l15.31 40.43c.22.58.78.96 1.41.96h12.73c.49 0 .95-.24 1.23-.64.28-.41.35-.93.17-1.38z"/><path d="m39.65 16.88c-17.77 0-28.89 20.79-28.89 46.43s11.12 46.42 28.89 46.42 28.88-20.78 28.88-46.42-11.1-46.43-28.88-46.43zm0 73.03c-7.38 0-12-11.92-12-26.61s4.62-26.59 12-26.59c7.39 0 12 11.91 12 26.59 0 14.7-4.61 26.61-12 26.61z"/></g></svg>