<svg viewBox="0 0 128 128" xmlns="http://www.w3.org/2000/svg"><path d="m121 .12h-114.01c-3.78 0-6.87 3.09-6.87 6.88v114.01c0 3.78 3.1 6.87 6.88 6.87h114c3.79 0 6.88-3.09 6.88-6.87v-114.01c0-3.79-3.09-6.88-6.88-6.88z" fill="#bdcf46"/><g fill="#fff"><path d="m84.31 20.62h-17.68c-.09 0-.17.04-.26.06h-2.96c-.77 0-1.4.62-1.4 1.39v83.89c0 .77.63 1.39 1.4 1.39h10.22c.77 0 1.39-.63 1.39-1.39v-27.14h9.28c9.62 0 17.15-12.78 17.15-29.09.01-16.32-7.52-29.11-17.14-29.11zm-1.3 41.18h-7.98-.17c-.2 0-.37-.16-.37-.37v-23.41c0-.21.16-.37.37-.37h.17 7.98c3.7 0 6.7 5.42 6.7 12.09 0 6.65-3 12.06-6.7 12.06z"/><path d="m56.86 20.34h-11.5c-.77 0-1.4.63-1.4 1.4v41.34c0 .01-.04 5.76-.17 9.33-.99 10.97-5.02 12.24-7.97 12.24s-6.98-1.27-7.96-12.16c-.13-3.63-.18-9.39-.18-9.39v-41.36c0-.78-.63-1.4-1.39-1.4h-11.5c-.77 0-1.39.63-1.39 1.4v41.35c0 .07 0 6.44.5 13.76.74 8.33 3.19 15.95 5.29 19.79 1.41 2.6 6.79 11.05 16.63 11.05s15.22-8.46 16.64-11.05c2.1-3.85 4.55-11.46 5.29-19.81.5-7.3.5-13.67.5-13.74v-41.35c.01-.78-.62-1.4-1.39-1.4z"/><path d="m110.22 96.56c-2.91 0-5.25 2.36-5.25 5.25 0 2.91 2.35 5.26 5.25 5.26s5.25-2.35 5.25-5.26c0-2.89-2.35-5.25-5.25-5.25z"/><path d="m110.22 20.62c-3.84 0-6.96 3.72-6.96 8.29 0 .51.05 1.01.12 1.49l-.01-.02 5.47 60.71.03-.04c.08.68.64 1.22 1.34 1.22.71 0 1.27-.54 1.34-1.22l.04.04 5.47-60.71-.02.02c.08-.48.13-.98.13-1.49.01-4.57-3.1-8.29-6.95-8.29z"/></g></svg>