<svg viewBox="0 0 128 128" xmlns="http://www.w3.org/2000/svg" xmlns:xlink="http://www.w3.org/1999/xlink"><defs><path id="a" d="m100.96 10.37c-1.56 0-3.08.61-4.2 1.74-9.56 9.56-17.94 11.37-30.07 11.37-3.68 0-7.72-.18-12-.37-3.37-.15-6.85-.31-10.61-.4-.66-.02-1.3-.02-1.94-.02-30.68 0-40.49 18.56-40.89 19.35-.52 1.01-.73 2.16-.62 3.29l6.72 66.95c.22 2.22 1.67 4.13 3.75 4.95.7.27 1.43.4 2.16.4 1.43 0 2.84-.51 3.95-1.5.1-.09 12.42-10.63 32.12-10.63 2.52 0 5.09.17 7.63.51 9.26 1.23 16.04 1.78 21.95 1.78 18.93 0 32.93-6.1 46.82-20.38 1.51-1.55 2.06-3.81 1.42-5.88l-20.51-66.94c-.61-2-2.22-3.53-4.25-4.03-.47-.13-.95-.19-1.43-.19z"/><clipPath id="b"><use xlink:href="#a"/></clipPath></defs><use fill="#2f2f2f" xlink:href="#a"/><g clip-path="url(#b)"><path d="m60.11 110.71c26.61 2.07 44.56 6.93 69.48-21.69l-9.36-37.68c-22.32 25.07-36.35 25.12-66.62 22.12-25.61-2.53-43.37 13.95-49.85 19.73l4.23 37.17c10.51-8.74 26.32-21.66 52.12-19.65z" fill="#ffe000"/></g><g clip-path="url(#b)"><path d="m54.6 77.18c25.85 2.07 43.29 6.93 67.49-21.7l-7.93-29.24c-21.69 25.08-35.31 25.13-64.72 22.14-24.88-2.54-42.14 13.95-48.43 19.73l2.96 28.72c10.2-8.73 25.57-21.66 50.63-19.65z" fill="#f64e3d"/></g></svg>