<svg viewBox="0 0 128 128" xmlns="http://www.w3.org/2000/svg"><path d="m78.92 101.84c-6.41 0-13.37-.69-21.17-1.73-2.92-.39-5.73-.56-8.42-.56-22.42 0-36.08 12.13-36.08 12.13l-6.72-66.94s8.21-16.11 35.6-16.11c.59 0 1.19.01 1.8.02 8.66.22 16.09.77 22.76.77 13.08 0 23.29-2.13 34.27-13.11l20.51 66.95c-13.82 14.23-26.47 18.58-42.55 18.58z" fill="#fff"/><path d="m127.15 81.52-20.51-66.95c-.61-1.99-2.22-3.52-4.25-4.03-.48-.11-.95-.17-1.43-.17-1.56 0-3.08.61-4.2 1.74-9.56 9.56-17.94 11.37-30.07 11.37-3.68 0-7.72-.18-12-.37-3.36-.15-6.84-.31-10.61-.4-.66-.02-1.31-.02-1.95-.02-30.68 0-40.49 18.56-40.89 19.35-.52 1.01-.73 2.16-.62 3.29l6.72 66.95c.22 2.22 1.67 4.13 3.75 4.94.7.27 1.43.4 2.16.4 1.43 0 2.84-.52 3.95-1.5.1-.09 12.43-10.63 32.13-10.63 2.52 0 5.09.17 7.63.51 9.27 1.23 16.04 1.78 21.95 1.78 18.93 0 32.93-6.1 46.81-20.38 1.52-1.55 2.07-3.81 1.43-5.88zm-48.23 20.32c-6.41 0-13.37-.69-21.17-1.73-2.92-.39-5.73-.56-8.42-.56-22.42 0-36.08 12.13-36.08 12.13l-6.72-66.94s8.21-16.11 35.6-16.11c.59 0 1.19.01 1.8.02 8.66.22 16.09.77 22.76.77 13.08 0 23.29-2.13 34.27-13.11l20.51 66.95c-13.82 14.23-26.47 18.58-42.55 18.58z" fill="#2f2f2f"/><path d="m39.66 54.15c-3.63 7.72-.13 18.15 6.32 22.91 1.69 1.25 3.54 2.25 5.31 3.03 3.73 1.63 8.27 2.53 12.27 2.78 13.77.87 27.19-11.56 18.53-26.76-7.3-12.78-35.18-17.4-42.43-1.96z" fill="#e74600"/></svg>