<svg viewBox="0 0 128 128" xmlns="http://www.w3.org/2000/svg"><path d="m119.79.34h-111.59c-4.33 0-7.87 3.54-7.87 7.87v111.58c0 4.33 3.54 7.87 7.87 7.87h111.59c4.33 0 7.87-3.54 7.87-7.87v-111.58c0-4.33-3.54-7.87-7.87-7.87z" fill="#fcc21b"/><g fill="#2f2f2f"><path d="m59.27 30.26h-16.19-23.7c-.42 0-.82.17-1.11.46s-.46.7-.46 1.11v15.38c0 .41.17.82.46 1.11s.7.46 1.11.46h22.12v35.55h-22.13c-.42 0-.82.17-1.11.46s-.46.7-.46 1.11v15.38c0 .41.17.82.46 1.11s.7.46 1.11.46h23.7 16.19c.41 0 .81-.17 1.11-.46.29-.29.46-.7.46-1.11v-15.37-38.7-15.38c0-.41-.17-.82-.46-1.11-.28-.3-.69-.46-1.1-.46z"/><path d="m108.72 30.26h-16.19-23.7c-.42 0-.82.17-1.11.46s-.46.7-.46 1.11v15.38c0 .41.17.82.46 1.11s.7.46 1.11.46h22.13v35.55h-22.13c-.42 0-.82.17-1.11.46s-.46.7-.46 1.11v15.38c0 .41.17.82.46 1.11s.7.46 1.11.46h23.71 16.19c.41 0 .82-.17 1.11-.46s.46-.7.46-1.11v-15.37-38.7-15.38c0-.41-.17-.82-.46-1.11-.3-.3-.7-.46-1.12-.46z"/></g></svg>