<svg viewBox="0 0 128 128" xmlns="http://www.w3.org/2000/svg"><path d="m119.79.34h-111.58c-4.33 0-7.87 3.54-7.87 7.87v111.58c0 4.32 3.54 7.87 7.87 7.87h111.58c4.33 0 7.87-3.55 7.87-7.87v-111.58c0-4.33-3.54-7.87-7.87-7.87z" fill="#40c0e7"/><g fill="#fff"><path d="m100.24 95.14h-27.05v-7.21h16.84c.42 0 .82-.17 1.11-.46s.46-.7.46-1.12v-9.66c0-.42-.17-.82-.46-1.12-.29-.29-.7-.46-1.11-.46h-52.05c-.42 0-.82.17-1.11.46s-.46.7-.46 1.12v9.66c0 .41.17.82.46 1.12.29.29.7.46 1.11.46h16.75v7.21h-26.97c-.41 0-.82.17-1.11.46s-.46.7-.46 1.11v9.66c0 .42.17.82.46 1.11s.7.46 1.11.46h72.48c.42 0 .82-.17 1.11-.46s.46-.7.46-1.11v-9.66c0-.41-.17-.82-.46-1.11s-.69-.46-1.11-.46z"/><path d="m104.41 26.88h-12.18-19.04v-8.21c0-.42-.17-.82-.46-1.11s-.7-.46-1.12-.46h-15.31c-.42 0-.82.17-1.11.46s-.46.7-.46 1.11v8.21h-19.05-12.18c-.42 0-.82.17-1.11.46s-.46.7-.46 1.11v9.98 15.65c0 .41.17.82.46 1.11s.7.46 1.11.46h12.18c.42 0 .82-.17 1.11-.46s.46-.7.46-1.11v-14.08h53.4v14.07c0 .41.17.82.46 1.11s.7.46 1.11.46h12.18c.42 0 .82-.17 1.12-.46.29-.29.46-.7.46-1.11v-15.64-9.98c0-.42-.17-.82-.46-1.11-.29-.3-.7-.46-1.11-.46z"/><path d="m34.35 73.97c18.61-5.14 26.45-18.01 26.56-18.19.39-.63.27-1.45-.27-1.96l-7.55-7.11c-.35-.33-.83-.48-1.31-.41s-.9.36-1.14.78v.02c-.15.25-1.91 3.16-5.56 6.41-3.66 3.25-9.2 6.83-16.99 8.53-.5.11-.91.45-1.11.92s-.16 1.01.11 1.44l5.51 8.87c.37.61 1.08.89 1.75.7z"/><path d="m82.31 71.97c3.83.84 8.15.99 13.39.99.42 0 .82-.17 1.11-.46s.46-.7.46-1.11v-9.84c0-.43-.18-.86-.5-1.15-.32-.3-.75-.45-1.19-.42 0 0-.17.01-.5.02-.33.02-.81.03-1.4.03-1.34 0-3.22-.07-5.08-.36s-3.69-.82-4.89-1.59c-.73-.46-1.45-1.28-2.06-2.3-.91-1.52-1.57-3.46-1.97-4.98-.2-.76-.34-1.42-.43-1.89-.04-.24-.08-.42-.1-.54l-.02-.18c-.11-.79-.8-1.37-1.6-1.35l-10.93.25c-.42.01-.82.19-1.11.5s-.45.72-.43 1.14c0 .07.12 3 1.03 6.7.92 3.69 2.6 8.19 6.01 11.34 3.03 2.77 6.38 4.37 10.21 5.2z"/></g></svg>