<svg viewBox="0 0 128 128" xmlns="http://www.w3.org/2000/svg"><path d="m119.86.25h-111.73c-4.34 0-7.88 3.54-7.88 7.88v111.73c0 4.33 3.54 7.89 7.88 7.89h111.73c4.34 0 7.88-3.56 7.88-7.89v-111.73c.01-4.33-3.54-7.88-7.88-7.88z" fill="#f79329"/><path d="m107.05 31h-32.36v-13.46c0-.41-.17-.82-.46-1.12-.29-.29-.7-.46-1.12-.46h-16.98c-.42 0-.82.17-1.12.46-.29.29-.46.7-.46 1.12v13.46h-32.37c-.42 0-.82.17-1.12.46-.29.29-.46.69-.46 1.11v54.18c0 .41.17.82.46 1.12.29.29.7.46 1.12.46h32.37v21.81c0 .42.17.82.46 1.12.29.29.7.46 1.12.46h16.98c.42 0 .82-.17 1.12-.46.29-.29.46-.7.46-1.12v-21.81h32.37c.42 0 .82-.17 1.12-.46.29-.29.46-.71.46-1.12v-54.18c0-.42-.17-.82-.46-1.11s-.71-.46-1.13-.46zm-52.5 14.5v1.01 5.21 1 1.01h-18.07c-.26 0-.52-.11-.71-.29-.19-.19-.29-.45-.29-.71v-7.23c0-.27.11-.52.29-.71.19-.19.45-.29.71-.29h18.07zm-19.07 21.12c0-.26.11-.52.29-.71.19-.19.45-.29.71-.29h18.07v1 1.01 5.21 1 1.01h-18.07c-.26 0-.52-.11-.71-.29-.19-.19-.29-.45-.29-.71zm39.21 7.22v-1-5.21-1.01-1h18.07c.26 0 .52.11.71.29.19.19.29.44.29.71v7.22c0 .26-.11.53-.29.71s-.44.29-.71.29h-18.07zm18.77-20.4c-.19.19-.44.29-.71.29h-18.06v-1.01-1-5.22-1-1h18.07c.26 0 .52.11.71.29.19.19.29.44.29.71v7.22c0 .27-.11.53-.3.72z" fill="#fff"/></svg>