<svg viewBox="0 0 128 128" xmlns="http://www.w3.org/2000/svg"><path d="m119.85.27h-111.7c-4.33 0-7.88 3.54-7.88 7.88v111.7c0 4.34 3.54 7.88 7.88 7.88h111.7c4.33 0 7.88-3.54 7.88-7.88v-111.7c0-4.33-3.55-7.88-7.88-7.88z" fill="#f79329"/><g fill="#fff"><path d="m105.48 29.13h-12.2-1.4l3.03-7.3c.33-.8-.05-1.73-.85-2.07l-9.82-4.08c-.39-.17-.83-.17-1.22 0s-.7.48-.86.87l-5 12.57h-6.52v-12.06c0-.28-.12-.57-.32-.76-.2-.21-.48-.31-.76-.31h-11.14c-.28 0-.56.11-.76.31s-.31.48-.31.76v12.07h-6.21v-12.07c0-.28-.11-.57-.31-.76-.2-.21-.48-.31-.76-.31h-11.17c-.28 0-.56.11-.76.31s-.32.48-.32.76v12.07h-1.14-12.19c-.42 0-.82.17-1.12.46-.29.29-.46.7-.46 1.12v8.64 17.98c0 .41.17.82.46 1.12.29.29.7.46 1.12.46h12.19c.42 0 .82-.17 1.11-.46s.46-.7.46-1.12v-16.41h53.46v16.41c0 .41.17.82.46 1.12.29.29.7.46 1.12.46h12.19c.42 0 .82-.17 1.12-.46.29-.29.46-.7.46-1.12v-17.98-8.64c0-.42-.17-.82-.46-1.12-.3-.29-.71-.46-1.12-.46z"/><path d="m100.54 80.49h-36.24l2.23-6.62h18.55c.42 0 .82-.17 1.12-.46.29-.29.46-.7.46-1.12v-23.88c0-.41-.17-.82-.46-1.12-.29-.29-.7-.46-1.12-.46h-39.74c-.42 0-.82.17-1.12.46-.29.29-.46.7-.46 1.12v23.89c0 .41.17.82.46 1.12.29.29.7.46 1.12.46h6.45l-2.23 6.62h-19.68c-.42 0-.82.17-1.12.46-.29.29-.46.69-.46 1.11v26.92c0 .42.17.82.46 1.12.29.29.7.46 1.12.46h70.66c.41 0 .82-.17 1.11-.46s.46-.69.46-1.12v-26.92c0-.42-.17-.82-.46-1.11-.29-.3-.69-.47-1.11-.47zm-45.37-23.43.17-.4.41-.17h18.93l.41.17.17.4v6.59l-.17.4-.41.18h-18.94l-.41-.18-.17-.4v-6.59zm33.02 41.98-.17.41-.41.17h-44.8l-.41-.17-.17-.41v-7.04l.17-.41.41-.17h44.8l.41.17.17.41z"/></g></svg>