<svg viewBox="0 0 128 128" xmlns="http://www.w3.org/2000/svg"><path d="m64 .15c-35.26 0-63.85 28.59-63.85 63.85 0 35.27 28.59 63.85 63.85 63.85s63.85-28.58 63.85-63.85c0-35.26-28.59-63.85-63.85-63.85z" fill="#ed6c30"/><g fill="#fff"><path d="m58.29 61.52h39.65c.39 0 .77-.16 1.04-.43s.43-.66.43-1.04v-33.28c0-.39-.16-.77-.43-1.04-.27-.28-.65-.43-1.04-.43h-39.65c-.39 0-.77.15-1.04.43-.27.27-.43.65-.43 1.04v33.28c0 .38.16.77.43 1.04.28.27.65.43 1.04.43zm30.79-21.95-.38.16h-21.16l-.38-.16-.16-.38v-4.13l.16-.38.38-.16h21.16l.38.16.16.38v4.13zm.15 8.22v4.13l-.16.38-.38.16h-21.15l-.38-.16-.16-.38v-4.13l.16-.38.38-.16h21.16l.38.16z"/><path d="m104.16 65.04h-9.74-10.55-31.58c-.39 0-.77.15-1.04.43-.27.27-.43.65-.43 1.04v7.7c0 .39.16.77.43 1.04.28.28.65.43 1.04.43h30.11v3.53h-30.11c-.39 0-.77.15-1.04.43s-.43.66-.43 1.04v6.3c0 .38.16.77.43 1.04.28.28.65.43 1.04.43h30.11v6.79h-3.58c-.43 0-.84.19-1.12.52s-.4.77-.33 1.2l1.42 8.44c.12.71.74 1.22 1.45 1.22h8.31c.07 0 .85 0 1.89-.24 1.03-.26 2.36-.74 3.42-1.91 1.08-1.22 1.54-2.64 1.78-3.75.24-1.1.24-1.93.24-2v-2.01-8.27h8.27c.39 0 .77-.15 1.04-.43s.43-.66.43-1.04v-6.3c0-.38-.16-.77-.43-1.04s-.65-.43-1.04-.43h-8.27v-3.53h8.27c.39 0 .77-.16 1.04-.43s.43-.65.43-1.04v-7.7c0-.39-.16-.77-.43-1.04-.27-.26-.64-.42-1.03-.42z"/><path d="m72.26 91.83h-11.98c-.39 0-.77.16-1.04.43-.27.28-.43.65-.43 1.04v7.54c0 .39.16.77.43 1.04s.65.43 1.04.43h11.99c.39 0 .77-.16 1.04-.43.27-.28.43-.65.43-1.04v-7.54c0-.39-.16-.77-.43-1.04-.28-.27-.66-.43-1.05-.43z"/><path d="m25.47 45.31c.14.36.43.66.79.82.35.15.76.15 1.12.02l20.4-8.05c.36-.14.65-.43.81-.79.15-.36.16-.77.02-1.13l-3.51-8.89c-.3-.75-1.15-1.12-1.91-.82l-20.4 8.04c-.76.29-1.13 1.15-.83 1.91z"/><path d="m51.13 55.19-3.51-8.89c-.15-.38-.42-.66-.79-.81-.36-.16-.76-.17-1.13-.02l-22.92 9.12c-.76.3-1.12 1.15-.83 1.91l3.51 8.89c.15.37.42.66.79.81.36.15.76.16 1.13.02l5.24-2.08v39.22c0 .39.15.77.43 1.04s.65.43 1.04.43h9.5c.39 0 .77-.16 1.04-.43s.43-.65.43-1.04v-44.18l5.23-2.08c.77-.31 1.14-1.17.84-1.91z"/></g></svg>