<svg viewBox="0 0 128 128" xmlns="http://www.w3.org/2000/svg"><path d="m64 .15c-35.26 0-63.85 28.59-63.85 63.85 0 35.27 28.59 63.85 63.85 63.85s63.85-28.58 63.85-63.85c0-35.26-28.59-63.85-63.85-63.85z" fill="#40c0e7"/><g fill="#fff"><path d="m101.2 35.87h-75.6c-.39 0-.77.16-1.04.43s-.43.66-.43 1.04v11.26c0 .38.15.76.43 1.04.27.28.65.43 1.04.43h48.56v42.25h-5.26c-.43 0-.84.19-1.12.52s-.4.77-.33 1.2l1.9 11.25c.12.71.74 1.23 1.45 1.23h11.07c.08 0 1.09-.01 2.41-.33s3.01-.95 4.31-2.39c1.35-1.52 1.94-3.34 2.25-4.77s.31-2.49.31-2.57v-2.68-43.71h10.04c.39 0 .77-.16 1.04-.43s.43-.65.43-1.04v-11.26c0-.38-.16-.77-.43-1.04s-.64-.43-1.03-.43z"/><path d="m65.96 57h-31.52c-.39 0-.76.16-1.04.43-.27.27-.43.65-.43 1.04v29.23c0 .38.16.77.44 1.04.27.28.65.43 1.04.43h31.52c.39 0 .77-.15 1.04-.43.27-.27.43-.66.43-1.04v-29.23c0-.39-.16-.77-.43-1.04-.28-.28-.66-.43-1.05-.43zm-9.28 10.52v11.12l-.15.38-.38.16h-11.89l-.38-.16-.16-.38v-11.12l.16-.38.38-.15h11.88l.38.15z"/></g></svg>