<svg viewBox="0 0 128 128" xmlns="http://www.w3.org/2000/svg" xmlns:xlink="http://www.w3.org/1999/xlink"><defs><path id="a" d="m127.99 115.89c0 6.66-5.44 12.1-12.1 12.1h-103.79c-6.65 0-12.1-5.44-12.1-12.1v-103.79c0-6.66 5.44-12.1 12.1-12.1h103.8c6.65 0 12.1 5.44 12.1 12.1v103.79z"/><linearGradient id="b" gradientUnits="userSpaceOnUse" x1="63.9951" x2="63.9951" y1=".6377" y2="127.5808"><stop offset="0" stop-color="#ed6c30"/><stop offset=".5337" stop-color="#f79329"/><stop offset="1" stop-color="#fcc21b"/></linearGradient><clipPath id="c"><use xlink:href="#a"/></clipPath></defs><use fill="url(#b)" xlink:href="#a"/><g clip-path="url(#c)"><g fill="#2f2f2f"><path d="m8.58 109.28h111.49v19.87h-111.49z"/><path d="m51.99 89.68c0-4.99-4.08-9.07-9.07-9.07h-25.3c-4.99 0-9.07 4.08-9.07 9.07v30.39c0 4.99 4.08 9.07 9.07 9.07h25.3c4.99 0 9.07-4.08 9.07-9.07z"/><path d="m43.75 94.87h42.14v34.28h-42.14z"/><path d="m120.02 64.62c0-4.99-4.08-9.07-9.07-9.07h-23.99c-4.99 0-9.07 4.08-9.07 9.07v55.46c0 4.99 4.08 9.07 9.07 9.07h23.99c4.99 0 9.07-4.08 9.07-9.07z"/></g><path d="m93.82 72.95c0 1.37-1.12 2.5-2.49 2.5h-2.92c-1.37 0-2.49-1.12-2.49-2.5v-4.63c0-1.37 1.12-2.49 2.49-2.49h2.92c1.37 0 2.49 1.13 2.49 2.49z" fill="#fcc21b"/><path d="m113.31 73.86c0 .46-1.12 1.58-2.49 1.58h-2.92c-1.37 0-2.5-1.12-2.5-2.5v-4.63c0-1.37 1.12-2.49 2.5-2.49h2.92c1.37 0 2.49 1.13 2.49 1.58z" fill="#fcc21b"/><path d="m113.31 89.18c0 .46-1.12 1.58-2.49 1.58h-2.92c-1.37 0-2.5-1.12-2.5-2.49v-4.63c0-1.37 1.12-2.5 2.5-2.5h2.92c1.37 0 2.49 1.13 2.49 1.58z" fill="#f79329"/><path d="m102.64 103.04c0 .46-1.12 1.58-2.49 1.58h-2.92c-1.37 0-2.5-1.12-2.5-2.49v-4.63c0-1.37 1.12-2.5 2.5-2.5h2.92c1.37 0 2.49 1.12 2.49 1.58z" fill="#fcc21b"/><path d="m23.4 102.22c0 1.37-1.12 2.5-2.5 2.5h-2.91c-1.38 0-2.5-1.12-2.5-2.5v-4.63c0-1.37 1.12-2.49 2.5-2.49h2.91c1.37 0 2.5 1.12 2.5 2.49z" fill="#fcc21b"/><path d="m34.51 102.22c0 1.37-1.12 2.5-2.5 2.5h-2.91c-1.38 0-2.5-1.12-2.5-2.5v-4.63c0-1.37 1.12-2.49 2.5-2.49h2.91c1.37 0 2.5 1.12 2.5 2.49z" fill="#f79329"/><path d="m45.62 102.22c0 1.37-1.12 2.5-2.5 2.5h-2.91c-1.38 0-2.5-1.12-2.5-2.5v-4.63c0-1.37 1.12-2.49 2.5-2.49h2.91c1.37 0 2.5 1.12 2.5 2.49z" fill="#fcc21b"/><path d="m23.4 116.4c0 1.37-1.12 2.5-2.5 2.5h-2.91c-1.38 0-2.5-1.12-2.5-2.5v-4.63c0-1.37 1.12-2.49 2.5-2.49h2.91c1.37 0 2.5 1.12 2.5 2.49z" fill="#f79329"/><path d="m34.51 116.4c0 1.37-1.12 2.5-2.5 2.5h-2.91c-1.38 0-2.5-1.12-2.5-2.5v-4.63c0-1.37 1.12-2.49 2.5-2.49h2.91c1.37 0 2.5 1.12 2.5 2.49z" fill="#fcc21b"/><path d="m56.73 116.4c0 1.37-1.12 2.5-2.5 2.5h-2.91c-1.38 0-2.5-1.12-2.5-2.5v-4.63c0-1.37 1.12-2.49 2.5-2.49h2.91c1.37 0 2.5 1.12 2.5 2.49z" fill="#f79329"/></g></svg>