<svg viewBox="0 0 128 128" xmlns="http://www.w3.org/2000/svg"><path d="m63.8 2.38c-34.07 0-61.69 27.62-61.69 61.69s27.62 61.69 61.69 61.69 61.69-27.62 61.69-61.69-27.62-61.69-61.69-61.69z" fill="#2f2f2f"/><path d="m63.8 127c-34.69 0-62.92-28.23-62.93-62.93 0-34.7 28.23-62.93 62.93-62.93s62.93 28.23 62.93 62.93c-.01 34.7-28.23 62.93-62.93 62.93zm0-123.38c-33.33 0-60.45 27.12-60.45 60.46 0 33.33 27.12 60.45 60.45 60.45 33.34 0 60.46-27.12 60.46-60.45-.01-33.34-27.13-60.46-60.46-60.46z" fill="#fcc21b"/></svg>