<svg viewBox="0 0 128 128" xmlns="http://www.w3.org/2000/svg"><g fill="#fcc21b"><path d="m108.43 76.11 18.15-6.84-16.59-10.07 14.46-12.94-19.1-3.39 8.81-17.29-19.04 3.74 1.97-19.3-16.4 10.38-5.14-18.7-11.55 15.58-11.55-15.59-5.13 18.7-16.4-10.36 1.97 19.3-19.04-3.74 8.8 17.29-19.1 3.39 14.46 12.93-16.59 10.07 18.15 6.84-11.82 15.37 19.39-.18-5.48 18.61 18.03-7.17 1.61 19.33 14.21-13.2 8.49 17.44 8.49-17.44 14.22 13.2 1.61-19.33 18.02 7.17-5.48-18.61 19.4.18zm-44.42 30.55c-23.56 0-42.66-19.1-42.66-42.66s19.1-42.66 42.66-42.66c23.55 0 42.65 19.1 42.65 42.66s-19.1 42.65-42.65 42.66z"/><path d="m64 127.35c-.4 0-.76-.23-.94-.59l-7.87-16.18-13.18 12.24c-.29.28-.71.36-1.08.21-.38-.14-.63-.49-.67-.89l-1.49-17.93-16.72 6.65c-.37.15-.79.07-1.09-.2s-.42-.68-.3-1.07l5.08-17.25-17.98.19h-.01c-.4 0-.76-.22-.94-.58s-.14-.79.11-1.1l10.96-14.26-16.82-6.35c-.37-.14-.64-.48-.67-.88-.04-.4.16-.78.5-.99l15.38-9.33-13.41-12c-.29-.27-.42-.68-.31-1.07s.43-.67.82-.74l17.71-3.14-8.16-16.03c-.19-.36-.14-.78.1-1.1s.65-.48 1.03-.39l17.66 3.47-1.83-17.9c-.04-.4.16-.78.49-.99.35-.21.78-.21 1.11 0l15.21 9.61 4.76-17.34c.1-.38.43-.68.82-.75.41-.08.79.08 1.03.4l10.7 14.45 10.71-14.45c.24-.32.65-.48 1.03-.4.39.07.71.36.82.75l4.76 17.34 15.21-9.61c.34-.22.77-.21 1.11 0s.53.6.49.99l-1.83 17.9 17.65-3.47c.39-.09.79.08 1.03.39.24.32.28.75.1 1.1l-8.16 16.03 17.71 3.14c.39.07.71.36.83.74.11.38-.01.8-.31 1.07l-13.41 12 15.39 9.33c.34.21.54.59.5.99-.03.4-.29.74-.67.88l-16.83 6.34 10.97 14.26c.24.32.29.75.1 1.1-.17.35-.54.58-.93.58h-.01l-17.99-.17 5 16.96c.11.17.18.37.18.59 0 .58-.47 1.05-1.04 1.05h-.05c-.13 0-.26-.03-.39-.07l-16.71-6.65-1.49 17.93c-.03.4-.29.74-.67.89-.37.15-.79.07-1.08-.21l-13.19-12.24-7.87 16.18c-.2.34-.56.57-.96.57zm-8.49-19.53c.07 0 .13.01.19.02.33.06.61.27.75.57l7.55 15.51 7.55-15.51c.14-.3.42-.51.75-.57.31-.06.66.04.9.26l12.65 11.74 1.43-17.19c.03-.33.21-.63.49-.8.28-.18.63-.2.94-.08l16.03 6.38-4.88-16.55c-.09-.32-.03-.66.17-.93.19-.26.5-.41.83-.41h.01l17.25.16-10.52-13.68c-.21-.26-.27-.6-.18-.92s.33-.58.64-.69l16.14-6.08-14.75-8.95c-.28-.17-.47-.47-.5-.8-.02-.33.1-.65.35-.88l12.85-11.5-16.98-3.02c-.33-.06-.6-.27-.75-.56-.15-.3-.15-.65 0-.94l7.84-15.38-16.93 3.33c-.32.07-.66-.03-.9-.25-.25-.22-.37-.55-.34-.88l1.75-17.16-14.58 9.22c-.29.17-.64.21-.94.09-.31-.12-.54-.38-.63-.7l-4.58-16.63-10.27 13.86c-.4.53-1.28.53-1.68 0l-10.27-13.86-4.56 16.63c-.09.32-.33.58-.64.7-.3.12-.66.08-.93-.09l-14.58-9.22 1.75 17.16c.03.33-.09.65-.34.88-.24.22-.59.32-.9.25l-16.93-3.33 7.82 15.38c.15.29.15.64 0 .94-.15.29-.43.51-.75.56l-16.98 3.02 12.85 11.5c.25.22.37.55.34.88s-.22.63-.5.8l-14.74 8.95 16.14 6.08c.31.12.55.37.64.69s.02.66-.17.92l-10.52 13.68 17.24-.16h.01c.33 0 .64.15.83.41.2.27.26.61.17.93l-4.87 16.54 16.03-6.38c.31-.12.66-.09.94.08.29.17.46.47.49.8l1.43 17.19 12.64-11.73c.2-.18.45-.28.71-.28zm8.5-.12c-24.1 0-43.7-19.61-43.71-43.7 0-24.1 19.61-43.7 43.71-43.7 24.09 0 43.7 19.6 43.7 43.7 0 24.09-19.61 43.7-43.7 43.7zm0-85.31c-22.94 0-41.61 18.67-41.62 41.61 0 22.94 18.67 41.61 41.62 41.61 22.94 0 41.6-18.67 41.6-41.61s-18.66-41.61-41.6-41.61z"/><path d="m64 26.66c-20.62 0-37.34 16.72-37.34 37.34s16.72 37.34 37.34 37.34 37.34-16.72 37.34-37.34c0-20.63-16.72-37.34-37.34-37.34z"/></g><g fill="#2f2f2f"><path d="m64.92 85.81c-2.3.02-4.64-.48-6.54-1.43-.95-.47-1.93-1.11-2.69-1.85-.76-.75-1.5-2.07-.6-2.98.73-.73 1.79 0 2.49.38 1.98 1.08 4.24 1.87 6.53 1.97 2.54.11 4.6-.66 6.79-1.81.62-.33 1.86-1.13 2.59-.69 1.82 1.11-.34 3.1-1.28 3.89-2.02 1.71-4.62 2.49-7.29 2.52z"/><path d="m64.09 76.51c4.16 0 6.44-3.45 4.89-4.22-1.56-.77-1.71 2.02-4.89 2.02s-3.33-2.79-4.89-2.02c-1.55.77.74 4.22 4.89 4.22z"/><path d="m51.45 63.83c0 3.12-2.31 5.66-5.14 5.66-2.82 0-5.13-2.54-5.13-5.66 0-3.13 2.3-5.66 5.13-5.66 2.83-.01 5.14 2.53 5.14 5.66z"/><path d="m76.56 63.83c0 3.12 2.31 5.66 5.13 5.66 2.83 0 5.13-2.54 5.13-5.66 0-3.13-2.3-5.66-5.13-5.66-2.82-.01-5.13 2.53-5.13 5.66z"/></g></svg>