<svg viewBox="0 0 128 128" xmlns="http://www.w3.org/2000/svg"><path d="m43.48 97.83 5.81-23.67-18.49-15.36 24.11-1.93 9.09-22.19 9.09 22.19 24.11 1.93-18.49 15.36 5.81 23.67-20.52-12.98z" fill="#fcc21b"/><g fill="#f79329"><path d="m10.66 28.38c2.85 1.66 5.66 3.39 8.55 5 3.96 2.22 7.96 4.54 12.15 6.27 1.47.61 2.65-.45 3.24-1.7.64-1.37-.11-2.3-.74-3.51-1.64-3.13-3.21-6.3-5.09-9.29-1.9-3.04-3.36-6.38-5.6-9.2l-.2-.24c-1.11-1.4-2.49-3.31-4.47-3.15-1.92.16-3.11 1.77-4.48 2.95-2.31 1.98-4.13 4.56-5.65 7.17-.64 1.11-1.36 2.6-.48 3.82.64.86 1.87 1.36 2.77 1.88z"/><path d="m24.01 88.61c-3.2.74-6.43 1.41-9.58 2.41-3.17 1-6.53 1.53-9.61 2.89l-.25.12c-1.53.67-3.58 1.47-3.89 3.29-.31 1.78.87 3.22 1.61 4.73 1.24 2.55 3.14 4.8 5.14 6.78.86.85 2.03 1.84 3.33 1.32.94-.36 1.68-1.37 2.34-2.05 2.17-2.18 4.4-4.32 6.52-6.54 2.94-3.05 5.96-6.11 8.51-9.48.89-1.19.22-2.5-.78-3.32-1.08-.89-2.1-.43-3.34-.15z"/><path d="m96.64 39.65c4.19-1.74 8.18-4.06 12.15-6.27 2.88-1.61 5.7-3.34 8.56-5 .89-.52 2.13-1.02 2.76-1.89.89-1.22.17-2.7-.48-3.82-1.51-2.61-3.34-5.19-5.65-7.17-1.37-1.18-2.55-2.79-4.48-2.95-1.97-.16-3.36 1.75-4.47 3.15l-.2.24c-2.25 2.83-3.7 6.16-5.61 9.2-1.87 3-3.45 6.16-5.09 9.29-.63 1.22-1.38 2.15-.74 3.51.59 1.26 1.78 2.32 3.25 1.71z"/><path d="m123.44 94.04-.26-.12c-3.07-1.37-6.43-1.89-9.61-2.89-3.15-1-6.37-1.67-9.58-2.41-1.25-.28-2.27-.74-3.35.16-.99.82-1.67 2.13-.78 3.32 2.55 3.37 5.59 6.43 8.51 9.48 2.13 2.22 4.35 4.36 6.52 6.54.67.69 1.41 1.69 2.35 2.05 1.3.52 2.47-.48 3.33-1.32 2-1.98 3.91-4.23 5.15-6.78.74-1.52 1.91-2.96 1.61-4.73-.32-1.83-2.36-2.63-3.89-3.3z"/><path d="m89.46 77.7 26.84-22.29c.86-.71 1.2-1.87.86-2.93-.34-1.07-1.29-1.81-2.39-1.91l-35.03-2.79-13.2-32.23c-.42-1.03-1.44-1.7-2.54-1.7-1.11 0-2.12.67-2.54 1.7l-13.2 32.23-35.03 2.79c-1.12.09-2.05.84-2.39 1.91s0 2.22.86 2.93l26.85 22.29-8.44 34.37c-.26 1.08.16 2.22 1.06 2.88.91.65 2.13.69 3.07.09l29.76-18.84 29.76 18.83c.94.59 2.16.56 3.07-.09.9-.65 1.33-1.79 1.06-2.88zm-45.98 20.13 5.82-23.67-18.5-15.36 24.11-1.93 9.09-22.19 9.09 22.19 24.11 1.93-18.49 15.36 5.81 23.67-20.52-12.98z"/></g></svg>