<svg xmlns="http://www.w3.org/2000/svg" viewBox="0 0 128 128"><path fill="#E3EBEE" d="M105.06 18.27c5.46 4.4 7.86 10.66 6.25 16.32-.9 3.14-2.51 6.04-4.7 8.47.68 2.8.5 7.38-2.36 12.26a16.695 16.695 0 0 1-7.2 6.77c.26 2.03.15 4.09-.34 6.08-.18.7-.46 1.37-.82 2 2.15 1.77 5.14 4.92 4.57 9-.22 1.4-.82 2.71-1.75 3.78a10.52 10.52 0 0 1 .5 8.16c-.06.16-.14.36-.17.45-.87 2.08-2.13 3.98-3.72 5.58-.21 1.32-2.57 9.13-6.89 14.22-10.15 12-21.22 13-22.55 13.16-8.75 1.34-7.5-6.75.12-15.75 4.38-5 4.76-13.06 3.88-16.9-4.39-.42-10.16-1.93-12.56-3.4-3.38-2.08-5.59-3.52-7.35-5.83-.08-.11-.14-.22-.21-.33-2.68-.47-5.32-1.16-7.89-2.06-3.03-1.2-5.56-3.41-7.17-6.25a23.618 23.618 0 0 1-2.3-6.63c-5.7-2.74-9.36-6.51-10.95-9.51-1.92-3.61-2.56-8.34-2.77-10.64-1.32-1.13-2.5-2.41-3.52-3.82-3.61-5.14-3.2-9.55-2.64-11.73C13.73 27 16.93 23.26 22 20.55c6.76-3.61 14.38-5.16 19-5 5.24-4.11 13-5.26 18.52-6.07h.26c8.63-1.06 17.37-.83 25.93.69 8.71 1.71 14.29 4.06 19.35 8.1Z"/><path fill="#AFC5CC" d="M48 2c2.73.26 6.29 1.4 5.78 3.21-.45 1.64-4.78 1.36-6.13 1.29a29.2 29.2 0 0 0-17.93 5.15c-2.25 1.63-4.69 2.88-5.87 1.73-1.18-1.15 1.46-4.27 3.15-5.73C32.29 3.28 39.27 1.16 48 2ZM10 69.49C9.37 68.27 7.68 64 9.21 63c1.53-1 3.58 2.69 4.23 3.9 3.29 6.11 9.38 9.79 14.42 11.61 2.64.86 5.8 2.09 5.49 3.66-.44 1.89-4.85 1.16-7 .62-6.68-1.64-12.21-5.56-16.35-13.3ZM112.2 70.78c-1 1-4.56 3.88-5.68 2.61s1.29-4 2.24-5c4.28-4.51 5.65-9.33 6-14.68.12-2.77 1-5.42 2.29-5.42 1.83 0 2.24 3.06 2.31 5.32.22 6.86-1.88 12-7.16 17.17ZM106.61 43.06a46.264 46.264 0 0 1-23 12.76c-8.15 2-16.5 3.06-24.89 3.18-1.08 0-3.69 0-3.62-1 .07-1 3-1.28 3.94-1.44 9.1-1.56 25.68-3 39.77-14.42 11.5-9.33 10.86-18.58 7.35-22.89 3.49 3.06 5.54 7.45 5.64 12.09-.01 4.25-2.08 8.12-5.19 11.72ZM32.4 67.37a72 72 0 0 0 21.93 5.46c6.44.35 12.89-.07 19.23-1.27 3.62-.68 5.84-1.08 5.68-2-.33-1.17-4.09-.82-7-.81-10.52 0-19.74-.63-29.92-3.62C36.68 63.48 23 58.39 19 49.92c1.37 11.39 9.18 15.37 13.4 17.45ZM95.89 70.12c-.7.82-5.26 4.92-13.14 7.45a67.192 67.192 0 0 1-18.24 2.89c-.62 0-3.52 0-3.42-.85.1-.85 1.91-.9 3.5-1.08 5.88-.63 11.65-2.1 17.12-4.35 6.88-2.69 15.09-8.1 15.29-12.09.45 2.81 0 6.38-1.11 8.03ZM67.31 91.73c13.33 1 22.11-4.06 22.72-4.5.61-.44 2.6-1.64 2-2.21-.46-.4-2.2.34-3 .65-1 .38-10.77 3-18.65 2.71-7.63-.32-15.46-2.6-20.59-6.09 2.13 3.32 8.64 7 11.46 8 1.97.72 4.02 1.19 6.1 1.39M99.77 88.38c-1.3 3.15-5.8 6.07-11.58 9.09-3.14 1.64-8.72 3.55-13 3.59-.67 0-2.17 0-2.09.78.06.52 1.36.79 1.88.84 4.68.37 9.38-.28 13.79-1.9 2.3-.97 4.48-2.2 6.51-3.66 0 0 4.09-3.78 4.49-8.74Z"/><path fill="#AFC5CC" d="M73.11 20.78c-5.14-.34-17.73.5-17.75 5.69 0 4.14 11.28 4.14 11.35 3.09.11-1.62-3.75-1-3.93-2.72-.18-1.37 5-2.14 9.27-1.23 4.27.91 8.66 4.7 7.08 7.5-1.81 3.2-10.09 8.16-26.55 6C41 37.57 28.72 27.25 41 15.58c-.99-.04-1.98.06-2.94.28-5.16 1-15.9 6.72-12.49 15 3.41 8.28 17.75 14.14 33.2 14.2 12.19.09 33.3-4.66 33.3-13.55.01-5.98-6.39-9.91-18.96-10.73ZM92.88 102a1.735 1.735 0 0 1 1.033-.397c-1.151 2.978-2.991 6.82-5.483 9.757-9.015 10.658-18.18 10.422-21.049 10.348-.361-.009-.622-.016-.771.002l-.091.014c4.117-1.045 8.748-3.603 11.571-5.424 6.29-3.99 9.05-9.07 14.79-14.3Z"/><path fill="#B0BEC5" d="M102.01 124H41.709c.462-3.308 4.163-5.93 8.651-5.93.99 0 1.98.13 2.94.4 1.43-2.68 4.89-4.57 8.89-4.57 2.57-.05 5.08.8 7.09 2.4 2.18-2.57 6.2-4.25 10.8-4.25 4.75.02 8.86 1.9 10.93 4.64 5.552.072 10.178 3.18 11 7.31Z"/></svg>