<svg xmlns="http://www.w3.org/2000/svg" viewBox="0 0 128 128"><defs><radialGradient id="a" cx="100.298" cy="-12.505" r="39.73" gradientUnits="userSpaceOnUse"><stop offset=".405" stop-color="#E7EBEB"/><stop offset=".612" stop-color="#E3E9E9"/><stop offset=".815" stop-color="#D7E1E4"/><stop offset=".978" stop-color="#C8D8DD"/></radialGradient><radialGradient id="b" cx="48.275" cy="-9.321" r="63.7" gradientUnits="userSpaceOnUse"><stop offset=".405" stop-color="#E7EBEB"/><stop offset=".612" stop-color="#E3E9E9"/><stop offset=".815" stop-color="#D7E1E4"/><stop offset=".978" stop-color="#C8D8DD"/></radialGradient><radialGradient id="c" cx="93.334" cy="-65.531" r="135.286" fx="82.028" fy="-62.967" gradientUnits="userSpaceOnUse"><stop offset=".784" stop-color="#F4F4F5"/><stop offset=".834" stop-color="#EEF1F2"/><stop offset=".9" stop-color="#DDE7EA"/><stop offset=".976" stop-color="#C1D8DC"/><stop offset=".978" stop-color="#C0D8DC"/></radialGradient><radialGradient id="d" cx="24.833" cy="-4.035" r="108.708" gradientTransform="matrix(.2531 .9674 -1.5506 .4056 0 0)" gradientUnits="userSpaceOnUse"><stop offset=".471" stop-color="#F1F1F0"/><stop offset=".577" stop-color="#ECEEEE"/><stop offset=".703" stop-color="#DEE7E8"/><stop offset=".837" stop-color="#C6DBDF"/><stop offset=".867" stop-color="#C0D8DC"/></radialGradient><radialGradient id="e" cx="114.662" cy="-14.405" r="35.926" gradientTransform="matrix(.3939 .9191 -2.2871 .9802 0 0)" gradientUnits="userSpaceOnUse"><stop offset=".266" stop-color="#F1F1F0"/><stop offset=".649" stop-color="#D9E5E6"/><stop offset="1" stop-color="#C0D8DC"/></radialGradient></defs><path fill="#CFD9DB" d="M116.62 124.26H11.32c-4.15 0-7.52-3.37-7.52-7.52V11.44c0-4.15 3.37-7.52 7.52-7.52H116.62c4.15 0 7.52 3.37 7.52 7.52V116.74c.01 4.15-3.36 7.52-7.52 7.52Z"/><path fill="url(#a)" d="M69.27 17.28s4.67-6.34 7.54-9.22c2.87-2.88 4.87-4.15 4.87-4.15h34.93c4.15 0 7.52 3.37 7.52 7.52v24.32L69.27 17.28Z"/><path fill="url(#b)" d="M40.03 3.91h-28.7c-4.15 0-7.52 3.37-7.52 7.52v59.81s69.54 8.1 83.28 6.07l3.21-58.73s-6.87-7.78-22.63-8.07c-7.2-.13-16.53 2.8-17.65 2.08-1.29-.82-3.92-6.84-9.99-8.68Z"/><path fill="url(#c)" d="M47.63 102.24 22.37 53.67s2.06-17.44 19.64-25.26C57.56 21.5 69 26.68 69 26.68s11.66-14.94 31.52-13.82c19 1.08 23.63 9.28 23.63 9.28v94.59c0 4.16-76.52-14.49-76.52-14.49Z"/><path fill="url(#d)" d="M124.15 77.69v39.05c0 4.15-3.37 7.52-7.52 7.52H11.32c-4.15 0-7.52-3.37-7.52-7.52V40.79s5.32.46 12.94 4.58c7.58 4.09 12.05 10.07 12.05 10.07s11.4-7.14 27.91-4.12c18 3.29 28.67 20.59 28.67 20.59s9-2.59 20.44-.92c11.44 1.67 18.34 6.7 18.34 6.7Z"/><path fill="url(#e)" d="M124.15 85.01v31.73c0 4.15-3.37 7.52-7.52 7.52H28.6s8.57-10.52 22.5-15.16c14.34-4.78 22.7-4.18 22.7-4.18s7.83-10.97 21.9-16.13c14.14-5.18 28.45-3.78 28.45-3.78Z"/></svg>