<svg viewBox="0 0 128 128" xmlns="http://www.w3.org/2000/svg" xmlns:xlink="http://www.w3.org/1999/xlink"><defs><clipPath id="a"><use xlink:href="#b"/></clipPath><path id="b" d="m49.18 56.71c-2.48 2.06-5.82 5.22-7.99 6.58-5.11 3.2-10.57 5.54-16.12 7.2-9.21 2.75-16.34 8.37-20.21 18.06-3.63 9.34-2.74 17.31.66 23.55 4.35 8.23 11.39 12.38 18.26 14.3 8.81 2.46 23.09 3.86 36.16-13.54 5.87-7.68 12.31-24.47 14.12-34.28.2-1.08.53-2.63.75-4.21.08-.57.05-3.08-.99-4.78-.94-1.54-4.59-5.17-9.15-8.24-3.83-2.58-9.01-4.99-11.68-5.55-2.56-.54-3.37.53-3.81.91z"/></defs><path d="m63.3 5.13c-23.3 1.3-44.88 5.21-46.67 29.33-1.23 16.67 11.09 33.72 24.14 43.48 16.83 12.58 42.58 27.74 63.45 21.16 20.29-6.4 19.35-32.84 17.3-50.39-2.75-23.63-10.23-30.38-21.39-38.44-11.41-8.24-27.99-5.65-36.83-5.14z" fill="#ed6c30"/><g fill="#fff"><path d="m31.98 10.83c-.12.08-.25.14-.37.23-1.48.89-2.5 2.11-2.64 3.92-.18 2.21.41 4.78 2.17 6.32 8.2 7.22 29.68 7.52 33.35-4.69 1.09-3.66 1.07-7.52-1.58-10.64-.92-1.1-1.79-2.38-3.23-2.68-1.92-.38-4.11.41-6 .65-2.47.3-5.34.83-7.63 1.68-3.02 1.12-6.36 2.11-9.49 3.21-1.55.54-3.15 1.19-4.58 2z"/><path d="m105.71 15.25c-3.37-2.86-7.38-4.66-11.76-4.37-7.29.47-12.13 6.15-12.44 13.26-.42 9.37 5.73 18.5 13.69 22.73 4.69 2.5 10.55 4.46 15.37 1.45 5.43-3.41 6.13-12.42 4.49-18.25-1.45-5.14-4.78-10.94-9.35-14.82z"/><path d="m117 87.12c3.48-4.52 3.79-10.8 3.89-16.4.03-1.64.76-13.5-2.28-13.55-1.97-.04-3.98.55-5.69 1.33-12.5 5.66-12.1 23.57-.36 30.34 1.24.7 1.56 1.14 2.68.17.66-.6 1.25-1.23 1.76-1.89z"/></g><path d="m94.29 103.87c-21.39 0-43.83-14.92-55.3-23.81-16.35-12.69-25.44-29.1-25.59-46.24 1.77-26.43 32.7-32.37 50.98-33.57.85-.06 2.2-.1 3.89-.1 3.75 0 13.43.22 22.24 2.28 7 1.63 14.6 5.77 18.92 10.3 6.89 7.24 12.73 20.48 14.87 33.72 2.5 15.51.7 32.17-2.26 39.98-3.11 8.27-8.91 13.8-16.78 15.99-3.44.96-7.13 1.45-10.97 1.45zm-26.02-97.57c-1.51 0-2.72.04-3.48.09-16.27 1.07-43.79 6.09-45.24 27.61.1 10.53 4.2 26.44 23.21 41.18 10.85 8.41 31.97 22.52 51.53 22.52 3.28 0 6.42-.41 9.32-1.22 5.98-1.67 10.25-5.78 12.67-12.24 2.29-6.05 4.4-21.48 1.94-36.83-1.92-11.92-7.25-24.16-13.25-30.46-3.5-3.67-10.02-7.19-15.86-8.55-8.42-1.95-18.07-2.1-20.84-2.1z" fill="#ed6c30"/><path d="m26.3 40.81c-5.64 4.09 2.98 18.87 6.87 23.1 6.03 6.59 16.29 14.95 27.69 21.05 9.3 4.97 15.63 7.23 21.5 8.79 9.18 2.25 15.44 1.65 17.12-1.59.73-1.39-.07-6.56-5.49-13.35-5.7-7.16-16.22-16.01-21.26-19.78-16.45-12.43-30-17.28-32.88-18.24-6.86-2.29-11.44-1.8-13.55.02z" fill="#855c52"/><use fill="#fcd4b5" xlink:href="#b"/><path clip-path="url(#a)" d="m2.54 101.09s9.03 16.33 33.85 12.59c28.37-4.28 37.42-48.02 37.42-48.02l6.75 12.02s-3.15 25.78-15.77 40.56c-12.61 14.78-33.07 21.41-53.76 6.84-15.12-10.64-8.49-23.99-8.49-23.99z" fill="#b89278"/></svg>