<svg viewBox="0 0 128 128" xmlns="http://www.w3.org/2000/svg"><g fill="#fff"><path d="m44.566 53.062c1.963-3.663 6.871.527 6.425 3.557-.475 3.242-3.456 4.372-5.776 1.986-1.054-1.082-1.324-4.283-.649-5.543z"/><path d="m33.374 106.723c-7.291-2.656-3.854-10.882 1.297-6.636 1.308 1.076 2.368 2.17 2.287 3.967-.082 1.913-1.721 3.349-3.584 2.669z"/><path d="m39.382 71.347c-1.24-1.344-2.965-3.608-1.583-5.481 2.136-2.886 7.496.207 7.444 3.197-.055 3.331-3.637 4.695-5.861 2.284z"/><path d="m46.914 97.28c-1.794-.092-2.782-1.251-3.73-2.654-3.732-5.533 4.781-8.171 6.73-.662.501 1.925-1.084 3.417-3 3.316z"/><path d="m53.485 82.736c-1.767-.318-2.602-1.589-3.365-3.102-3.007-5.957 5.77-7.503 6.76.189.254 1.974-1.506 3.255-3.395 2.913z"/><path d="m59.752 64.42c-4.304 1.43-6.512-5.015-2.562-6.647l.382-.137c3.929-1.202 6.381 5.389 2.18 6.784z"/><path d="m63.957 48.803c-2.562 3.399-7.789.279-6.404-3.661.748-2.118 3.341-2.021 5.033-1.092 1.963 1.081 2.814 2.835 1.371 4.753z"/><path d="m120.586 35.951c-.023.022-.043.029-.065.054-.306.349-.507.831-.833 1.2-1.229 1.398-3.766 1.274-5.427.9-.601-.135-1.731-.615-2.328-.405-.516.18-.711.819-.405 1.213.385.498 1.026.538 1.589.662.625.137 1.375.493 1.819.968.358.381.504.791.565 1.254l.034.473c0 .031.007.045.007.074-.191.389-.376.776-.529 1.11-.34.745-.608 1.333-.855 1.576-.772.754-1.682 1.231-2.623 1.341-.198 0-.779-.022-1.875-.234-.139-.032-.524-.171-.779-.261-.355-.126-.707-.252-1.049-.36-.446-.14-.882-.311-1.321-.482-1.526-.585-3.429-1.317-5.747-1.405l-.592-.011c-1.834 0-3.455.329-4.885.619-.536.108-1.067.218-1.601.297-.961.145-1.857.34-2.771.518-2.105.414-4.151.878-6.177 1.391-.45.117-1.058.27-1.58.356-.84-1-1.952-2.454-2.172-3.474-.637-2.983-.855-5.662-.664-8.248l.045-.529.032-.309c.067-.689.185-1.866.367-2.533.329-.097.761-.18 1.216-.252.484-.077.997-.144 1.443-.2 1.225-.155 2.613-.331 4.014-.721.45-.126 1.054-.234 1.695-.349 2.076-.369 4.921-.878 7.427-2.868 1.573-1.247 2.886-2.998 4.014-5.351.396-.829.75-1.673 1.096-2.51.86-2.073 1.389-3.273 2.276-3.822.862-.531 1.83-.811 2.798-.811.501 0 1.006.075 1.508.223.363.106.693.286 1.135.812.018.032.045.054.063.085.223.37.372.779.45 1.216.299 1.672-.355 3.688-1.182 4.939-.239.36-.648.761-.489 1.243.149.452.579.583 1.002.477 1.038-.257 2.058-1.526 2.604-2.384.599-.948 1.54-1.173 2.593-1.024.117.05.245.108.344.149l.234.099c2.103 1.044 2.305 1.747 2.417 2.134.041.191.041.765.041 1.184l.002.583v.164c0 .198.004.441.011.698-.478 2.447-3.368 3.222-5.4 3.904-.471.157-.766.585-.556 1.11.236.596 1.094.414 1.614.407.846-.014 1.758-.193 2.566-.459.7-.227 1.459-.394 2.19-.238.558.117 1.022.54 1.553.693.617.671 1.121 1.333 1.522 1.981.222.511.074 1.884-.381 3.133z"/></g><path d="m125.907 29.857c-.646-1.058-1.387-2.015-2.229-2.927-.495-.54-.443-1.742-.45-2.427-.011-1.098.047-2.215-.261-3.282-.817-2.821-2.861-4.464-5.4-5.725-.453-.225-.932-.374-1.371-.624-1.001-.565-1.654-1.826-2.373-2.688-1.064-1.285-2.334-2.19-3.941-2.665-1.036-.309-2.091-.459-3.14-.459-2.033 0-4.039.569-5.822 1.668-3.257 2.01-3.996 5.511-5.546 8.748-.57 1.188-1.344 2.49-2.395 3.323-1.975 1.569-4.75 1.53-7.091 2.183-2.659.739-6.049.496-8.486 1.938-1.549.918-2.152 2.733-2.46 4.543-.338 0-.675 0-1.013 0-1.943 0-3.883-.005-5.826-.014-1.927-.007-3.735.299-5.644.389-7.332.345-14.416 2.621-21.35 5.009-16.596 5.715-32.349 19.555-38.022 36.366-4.151 12.298-1.479 29.075 7.523 38.8 4.383 4.732 13.097 8.034 19.621 6.578 16.856-3.759 26.928-20.019 32.061-35.329 4.565-13.619 2.149-27.351 16.309-32.934.342.41.687.811 1.022 1.187.747.84 1.812 1.11 2.938 1.11 1.245 0 2.56-.333 3.595-.595 2.807-.711 5.504-1.366 8.381-1.796 1.864-.277 3.737-.854 5.634-.854l.36.007c1.974.074 3.719 1.042 5.569 1.625.802.252 1.664.63 2.456.781.854.164 1.99.34 2.979.34.274 0 .54-.014.783-.045 2.226-.281 4.272-1.38 5.866-2.938 1.659-1.63 2.001-3.638 3.206-5.479.772-1.18 2.242-1.704 3.089-2.848 2.016-2.722 3.308-7.882 1.428-10.966zm-81.341 23.205c1.963-3.663 6.871.527 6.425 3.557-.475 3.242-3.456 4.372-5.776 1.986-1.054-1.082-1.324-4.283-.649-5.543zm-11.192 53.661c-7.291-2.656-3.854-10.882 1.297-6.636 1.308 1.076 2.368 2.17 2.287 3.967-.082 1.913-1.721 3.349-3.584 2.669zm6.008-35.376c-1.24-1.344-2.965-3.608-1.583-5.481 2.136-2.886 7.496.207 7.444 3.197-.055 3.331-3.637 4.695-5.861 2.284zm7.532 25.933c-1.794-.092-2.782-1.251-3.73-2.654-3.732-5.533 4.781-8.171 6.73-.662.501 1.925-1.084 3.417-3 3.316zm6.571-14.544c-1.767-.318-2.602-1.589-3.365-3.102-3.007-5.957 5.77-7.503 6.76.189.254 1.974-1.506 3.255-3.395 2.913zm6.267-18.316c-4.304 1.43-6.512-5.015-2.562-6.647l.382-.137c3.929-1.202 6.381 5.389 2.18 6.784zm4.205-15.617c-2.562 3.399-7.789.279-6.404-3.661.748-2.118 3.341-2.021 5.033-1.092 1.963 1.081 2.814 2.835 1.371 4.753zm56.629-12.852c-.023.022-.043.029-.065.054-.306.349-.507.831-.833 1.2-1.229 1.398-3.766 1.274-5.427.9-.601-.135-1.731-.615-2.328-.405-.516.18-.711.819-.405 1.213.385.498 1.026.538 1.589.662.625.137 1.375.493 1.819.968.358.381.504.791.565 1.254l.034.473c0 .031.007.045.007.074-.191.389-.376.776-.529 1.11-.34.745-.608 1.333-.855 1.576-.772.754-1.682 1.231-2.623 1.341-.198 0-.779-.022-1.875-.234-.139-.032-.524-.171-.779-.261-.355-.126-.707-.252-1.049-.36-.446-.14-.882-.311-1.321-.482-1.526-.585-3.429-1.317-5.747-1.405l-.592-.011c-1.834 0-3.455.329-4.885.619-.536.108-1.067.218-1.601.297-.961.145-1.857.34-2.771.518-2.105.414-4.151.878-6.177 1.391-.45.117-1.058.27-1.58.356-.84-1-1.952-2.454-2.172-3.474-.637-2.983-.855-5.662-.664-8.248l.045-.529.032-.309c.067-.689.185-1.866.367-2.533.329-.097.761-.18 1.216-.252.484-.077.997-.144 1.443-.2 1.225-.155 2.613-.331 4.014-.721.45-.126 1.054-.234 1.695-.349 2.076-.369 4.921-.878 7.427-2.868 1.573-1.247 2.886-2.998 4.014-5.351.396-.829.75-1.673 1.096-2.51.86-2.073 1.389-3.273 2.276-3.822.862-.531 1.83-.811 2.798-.811.501 0 1.006.075 1.508.223.363.106.693.286 1.135.812.018.032.045.054.063.085.223.37.372.779.45 1.216.299 1.672-.355 3.688-1.182 4.939-.239.36-.648.761-.489 1.243.149.452.579.583 1.002.477 1.038-.257 2.058-1.526 2.604-2.384.599-.948 1.54-1.173 2.593-1.024.117.05.245.108.344.149l.234.099c2.103 1.044 2.305 1.747 2.417 2.134.041.191.041.765.041 1.184l.002.583v.164c0 .198.004.441.011.698-.478 2.447-3.368 3.222-5.4 3.904-.471.157-.766.585-.556 1.11.236.596 1.094.414 1.614.407.846-.014 1.758-.193 2.566-.459.7-.227 1.459-.394 2.19-.238.558.117 1.022.54 1.553.693.617.671 1.121 1.333 1.522 1.981.222.511.074 1.884-.381 3.133z" fill="#f48120"/></svg>