<svg viewBox="0 0 128 128" xmlns="http://www.w3.org/2000/svg"><path d="m119 54.45c0 29.93-24.96 54.19-55.75 54.19s-55.74-24.27-55.74-54.19 24.96-54.18 55.74-54.18 55.75 24.25 55.75 54.18z" fill="#fcc21b"/><path d="m78.21 12.78-.24.01c-12.53 1.21-22.82 7.22-32.07 13.55-9.86 6.74-16.78 17.52-22.24 27.19-6.02 10.63-7.77 21.85-9.63 33.73l-.2 1.29c-.89 5.64-1.42 11.39-1.94 16.95l-.07.66c-.32 3.51-.32 7.11-.32 10.6v1.52l-.01 4.65c-.04 1.14-.04 2.06.37 2.69.57.88 1.51.88 1.81.88l.21-.01.17-1.1.07 1.1.22.01c2.18 0 3.02-.97 3.34-1.78.38-.96.25-1.94.14-2.81-.05-.36-.1-.72-.09-1.05.04-1.78-.02-3.59-.08-5.34-.1-2.68-.19-5.44.07-8.08.14-1.4.27-2.8.41-4.2.35-3.72.71-7.58 1.26-11.52.29-2.09.58-4.15.88-6.2.18-.28.35-.57.5-.83.62-1.07 1.39-2.01 2.13-2.89 1.84-2.17 3.76-4.27 5.73-6.21.11-.11.21-.2.32-.31 1.3-.19 2.64-.28 3.96-.34l.53-.03c2.31-.13 4.63-.1 6.93.04 2.25.16 4.43.31 6.58.6 2.24.29 4.53.8 6.74 1.29l1.38.31c.37.08.73.16 1.09.16 1.11 0 1.54-.7 1.72-1.28.16-.54.11-1.04-.13-1.48-.56-1.03-2.02-1.45-2.98-1.72l-.37-.11c-2.03-.64-4.13-1.04-6.37-1.47-4.96-.94-9.41-1.21-13.57-.88 1.17-.95 2.34-1.84 3.5-2.66 1.55-.3 3.19-.41 4.79-.49l.54-.03c2.3-.13 4.62-.11 6.93.04 2.12.14 4.39.3 6.58.6 2.27.3 4.59.82 6.82 1.31l1.29.29c.29.06.69.15 1.09.15 1.11 0 1.55-.69 1.72-1.28.16-.53.11-1.04-.13-1.49-.57-1.03-2.03-1.45-2.99-1.73l-.36-.1c-2.02-.65-4.13-1.04-6.36-1.47-3.91-.74-7.5-1.06-10.89-1.01 9.78-4.68 19.24-6.67 26.51-5.46l.33.04c1.24 0 2.09-1.14 2.19-2.22s-.52-1.97-1.51-2.16c-2.2-.43-4.49-.65-6.8-.65-8.47 0-16.79 2.96-23.8 5.85-4.54 1.88-9.04 4.76-13.75 8.8-1.98 1.7-3.98 3.6-6.14 5.79l-.84.85c-.28.29-.56.57-.85.86 1.13-4.96 2.61-9.79 4.82-14.5 2.5-5.34 5.43-10.33 8.62-14.77 1.71-.73 3.58-1.27 5.42-1.78l.57-.16c2.44-.67 4.98-1.22 7.56-1.64 2.46-.4 4.87-.78 7.31-1.02 2.53-.25 5.16-.31 7.7-.37l1.5-.03c.84-.02 2.59-.06 2.75-1.78.05-.54-.1-1.03-.44-1.41-.82-.92-2.54-.98-3.67-1.02l-.43-.02c-2.36-.14-4.63-.03-7.25.1-5.99.3-11.18 1.21-15.86 2.71 1.04-1.16 2.1-2.22 3.17-3.25 1.87-.89 3.99-1.49 6.05-2.06l.57-.16c2.44-.67 4.98-1.22 7.56-1.64 2.46-.4 4.87-.78 7.31-1.02 2.53-.25 5.16-.31 7.7-.37l1.5-.03c.84-.02 2.59-.06 2.75-1.78.05-.54-.1-1.03-.43-1.4-.82-.92-2.54-.98-3.67-1.02l-.43-.02c-2.36-.14-4.63-.02-7.25.1-4.37.22-8.3.78-11.94 1.63 6.54-4.49 15.23-9.1 24.38-10.18 1.44-.17 2.15-1.44 2.08-2.53-.07-1.16-.94-2-2.07-2z" fill="#f79329"/><path d="m77.43 83.33c-.06.37-.12.75-.12 1.14 0 4.13 3.45 7.42 7.65 7.43 2.8-.01 5.24-1.49 6.57-3.7 1.33 2.21 3.77 3.69 6.57 3.7.37 0 .73-.06 1.08-.1 2.34-.34 4.34-1.68 5.5-3.59.83 1.38 2.08 2.48 3.6 3.11.92.38 1.92.59 2.97.59 4.2-.01 7.64-3.3 7.64-7.43 0-2.17-.97-4.09-2.48-5.45-1.23-1.1-2.83-1.8-4.6-1.93.32-.82.51-1.69.51-2.61 0-.41-.06-.79-.13-1.17-.56-3.42-3.5-6.01-7.09-6.21.06-.14.1-.29.15-.42.3-.79.49-1.65.49-2.54 0-4.14-3.45-7.43-7.65-7.44-4.2.01-7.64 3.3-7.64 7.44 0 1.06.23 2.06.64 2.97-3.99.22-7.21 3.4-7.21 7.39 0 .61.1 1.19.23 1.75.07.29.17.58.28.86-.52.03-1.03.12-1.52.26-2.82.75-4.98 3.05-5.44 5.95z" fill="#fff"/><path d="m118.62 93.94h-.81-11.96-9.18-19.08c-1.03 0-1.88.84-1.88 1.88v7.21c0 .37.14.71.33 1 .34.51.89.87 1.55.87h3.78v4.05 3.53 13.39c0 1.03.84 1.87 1.88 1.87h6.25c1.03 0 1.87-.64 1.87-1.43s.84-1.43 1.88-1.43h9.71c1.03 0 1.88.65 1.88 1.43 0 .79.84 1.43 1.88 1.43h6.24c1.03 0 1.88-.84 1.88-1.87v-20.97h3.78c1.03 0 1.87-.85 1.87-1.87v-7.21c0-1.04-.84-1.88-1.87-1.88zm-20.52 25.6c-3.3 0-5.99-2.68-5.99-5.99 0-.91.22-1.76.57-2.52.95-2.04 3.01-3.47 5.41-3.47.62 0 1.2.12 1.76.29 2.44.76 4.23 3.01 4.23 5.7.01 3.31-2.67 5.99-5.98 5.99z" fill="#855c52"/></svg>