<svg xmlns="http://www.w3.org/2000/svg" viewBox="0 0 128 128"><path fill="#BDBDBD" d="M112 124H16c-6.6 0-12-5.4-12-12V16C4 9.4 9.4 4 16 4h96c6.6 0 12 5.4 12 12v96c0 6.6-5.4 12-12 12Z"/><path fill="#757575" d="M53.62 91.49a18.82 18.82 0 1 1-37.64 0 18.82 18.82 0 1 1 37.64 0Z" opacity=".7"/><path fill="#37474F" d="M50.7 91.49a15.9 15.9 0 1 1-31.8 0 15.9 15.9 0 1 1 31.8 0Z"/><path fill="#FFF" d="M50.4 88.4c-.12-.59-.27-1.16-.45-1.72l-12.24 2.43c-1.15.23-1.9 1.35-1.67 2.5.23 1.15 1.35 1.9 2.5 1.67l12.14-2.41c-.04-.81-.11-1.64-.28-2.47Z"/><g fill="#212121" opacity=".7"><path d="M19.97 107.73a1.76 1.76 0 1 1-3.52 0 1.76 1.76 0 1 1 3.52 0ZM14.19 98.25a1.76 1.76 0 1 1-3.52 0 1.76 1.76 0 1 1 3.52 0ZM13.37 87.54a1.76 1.76 0 1 1-3.52 0 1.76 1.76 0 1 1 3.52 0ZM17.49 77.44a1.76 1.76 0 1 1-3.52 0 1.76 1.76 0 1 1 3.52 0ZM26.06 70.13a1.76 1.76 0 1 1-3.52 0 1.76 1.76 0 1 1 3.52 0ZM36.56 67.66a1.76 1.76 0 1 1-3.52 0 1.76 1.76 0 1 1 3.52 0ZM47.07 70.13a1.76 1.76 0 1 1-3.52 0 1.76 1.76 0 1 1 3.52 0ZM55.63 77.44a1.76 1.76 0 1 1-3.52 0 1.76 1.76 0 1 1 3.52 0ZM59.76 87.54a1.76 1.76 0 1 1-3.52 0 1.76 1.76 0 1 1 3.52 0ZM58.93 98.25a1.76 1.76 0 1 1-3.52 0 1.76 1.76 0 1 1 3.52 0ZM53.16 107.73a1.76 1.76 0 1 1-3.52 0 1.76 1.76 0 1 1 3.52 0Z"/></g><path fill="#2F7889" d="M22.42 89.25c1.05-4.51 4.39-8.47 8.68-10.22.56-.23 1.43-.2 1.69.5.31.84.16 1.41-.79 1.95-2.81 1.61-5.11 5.07-5.96 8.6a1.855 1.855 0 0 1-2.33 1.34c-.92-.29-1.51-1.23-1.29-2.17Z"/><path fill="#757575" d="M53.62 37.23a18.82 18.82 0 1 1-37.64 0 18.82 18.82 0 1 1 37.64 0Z" opacity=".7"/><path fill="#37474F" d="M50.7 37.23a15.9 15.9 0 1 1-31.8 0 15.9 15.9 0 1 1 31.8 0Z"/><path fill="#FFF" d="M46.52 26.48c-.41-.44-.84-.85-1.28-1.24l-9.19 8.45c-.87.8-.92 2.14-.13 3.01.8.87 2.14.92 3.01.13l9.12-8.37c-.46-.69-.96-1.36-1.53-1.98Z"/><g fill="#212121" opacity=".7"><path d="M19.97 53.47a1.76 1.76 0 1 1-3.52 0 1.76 1.76 0 1 1 3.52 0ZM14.19 43.99a1.76 1.76 0 1 1-3.52 0 1.76 1.76 0 1 1 3.52 0ZM13.37 33.28a1.76 1.76 0 1 1-3.52 0 1.76 1.76 0 1 1 3.52 0ZM17.49 23.18a1.76 1.76 0 1 1-3.52 0 1.76 1.76 0 1 1 3.52 0ZM26.06 15.87a1.76 1.76 0 1 1-3.52 0 1.76 1.76 0 1 1 3.52 0ZM36.56 13.4a1.76 1.76 0 1 1-3.52 0 1.76 1.76 0 1 1 3.52 0ZM47.07 15.87a1.76 1.76 0 1 1-3.52 0 1.76 1.76 0 1 1 3.52 0ZM55.63 23.18a1.76 1.76 0 1 1-3.52 0 1.76 1.76 0 1 1 3.52 0ZM59.76 33.28a1.76 1.76 0 1 1-3.52 0 1.76 1.76 0 1 1 3.52 0ZM58.93 43.99a1.76 1.76 0 1 1-3.52 0 1.76 1.76 0 1 1 3.52 0ZM53.16 53.47a1.76 1.76 0 1 1-3.52 0 1.76 1.76 0 1 1 3.52 0Z"/></g><path fill="#2F7889" d="M22.42 34.96c1.05-4.51 4.39-8.47 8.68-10.22.56-.23 1.43-.2 1.69.5.31.84.16 1.41-.79 1.95-2.81 1.61-5.11 5.07-5.96 8.6a1.855 1.855 0 0 1-2.33 1.34c-.92-.28-1.51-1.23-1.29-2.17Z"/><path fill="#757575" d="M112.02 91.49a18.82 18.82 0 1 1-37.64 0 18.82 18.82 0 1 1 37.64 0Z" opacity=".7"/><path fill="#37474F" d="M109.1 91.49a15.9 15.9 0 1 1-31.8 0 15.9 15.9 0 1 1 31.8 0Z"/><path fill="#FFF" d="M105.99 82.05c-.36-.48-.74-.94-1.14-1.37L94.81 88.1c-.95.7-1.15 2.03-.45 2.98.7.95 2.03 1.15 2.98.45l9.95-7.35c-.37-.74-.8-1.45-1.3-2.13Z"/><g fill="#212121" opacity=".7"><path d="M78.36 107.73a1.76 1.76 0 1 1-3.52 0 1.76 1.76 0 1 1 3.52 0ZM72.59 98.25a1.76 1.76 0 1 1-3.52 0 1.76 1.76 0 1 1 3.52 0ZM71.76 87.54a1.76 1.76 0 1 1-3.52 0 1.76 1.76 0 1 1 3.52 0ZM75.89 77.44a1.76 1.76 0 1 1-3.52 0 1.76 1.76 0 1 1 3.52 0ZM84.45 70.13a1.76 1.76 0 1 1-3.52 0 1.76 1.76 0 1 1 3.52 0ZM94.96 67.66a1.76 1.76 0 1 1-3.52 0 1.76 1.76 0 1 1 3.52 0ZM105.46 70.13a1.76 1.76 0 1 1-3.52 0 1.76 1.76 0 1 1 3.52 0ZM114.03 77.44a1.76 1.76 0 1 1-3.52 0 1.76 1.76 0 1 1 3.52 0ZM118.15 87.54a1.76 1.76 0 1 1-3.52 0 1.76 1.76 0 1 1 3.52 0ZM117.33 98.25a1.76 1.76 0 1 1-3.52 0 1.76 1.76 0 1 1 3.52 0ZM111.55 107.73a1.76 1.76 0 1 1-3.52 0 1.76 1.76 0 1 1 3.52 0Z"/></g><path fill="#2F7889" d="M80.7 89.25c1.05-4.51 4.39-8.47 8.68-10.22.56-.23 1.43-.2 1.69.5.31.84.16 1.41-.79 1.95-2.81 1.61-5.11 5.07-5.96 8.6a1.855 1.855 0 0 1-2.33 1.34c-.92-.29-1.51-1.23-1.29-2.17Z"/><path fill="#757575" d="M112.02 37.23a18.82 18.82 0 1 1-37.64 0 18.82 18.82 0 1 1 37.64 0Z" opacity=".7"/><path fill="#37474F" d="M109.1 37.23a15.9 15.9 0 1 1-31.8 0 15.9 15.9 0 1 1 31.8 0Z"/><path fill="#FFF" d="M80.53 27.62c-.36.48-.69.98-.99 1.48l9.95 7.54c.94.71 2.27.53 2.98-.41s.53-2.27-.41-2.98l-9.86-7.48c-.59.57-1.16 1.18-1.67 1.85Z"/><g fill="#212121" opacity=".7"><path d="M78.36 53.47a1.76 1.76 0 1 1-3.52 0 1.76 1.76 0 1 1 3.52 0ZM72.59 43.99a1.76 1.76 0 1 1-3.52 0 1.76 1.76 0 1 1 3.52 0ZM71.76 33.28a1.76 1.76 0 1 1-3.52 0 1.76 1.76 0 1 1 3.52 0ZM75.89 23.18a1.76 1.76 0 1 1-3.52 0 1.76 1.76 0 1 1 3.52 0ZM84.45 15.87a1.76 1.76 0 1 1-3.52 0 1.76 1.76 0 1 1 3.52 0ZM94.96 13.4a1.76 1.76 0 1 1-3.52 0 1.76 1.76 0 1 1 3.52 0ZM105.46 15.87a1.76 1.76 0 1 1-3.52 0 1.76 1.76 0 1 1 3.52 0ZM114.03 23.18a1.76 1.76 0 1 1-3.52 0 1.76 1.76 0 1 1 3.52 0ZM118.15 33.28a1.76 1.76 0 1 1-3.52 0 1.76 1.76 0 1 1 3.52 0ZM117.33 43.99a1.76 1.76 0 1 1-3.52 0 1.76 1.76 0 1 1 3.52 0ZM111.55 53.47a1.76 1.76 0 1 1-3.52 0 1.76 1.76 0 1 1 3.52 0Z"/></g><path fill="#2F7889" d="M82.8 45.35c-2.02-3.2-2.34-5.34-2.21-8.48.04-.85.43-2.28 1.69-2.07 1.14.19 1.02 1.21 1.11 1.91.37 2.7 1.01 4.17 2.55 6.65.56.9.24 2.08-.69 2.6-.84.45-1.93.21-2.45-.61Z"/></svg>