<svg xmlns="http://www.w3.org/2000/svg" viewBox="0 0 128 128"><path fill="#ED6C66" d="M123.77 41.59c.08 0 .15.01.23.01v-3.46h-3.45c-4.31 0-7.9-3.06-8.72-7.13a2.205 2.205 0 0 0-2.16-1.77H18.33c-1.05 0-1.95.74-2.16 1.77a8.895 8.895 0 0 1-8.72 7.13H4v3.46c.08-.01.15-.01.23-.01a2.77 2.77 0 1 1 0 5.54c-.08 0-.15-.01-.23-.01v2.33c.08-.01.15-.01.23-.01a2.77 2.77 0 1 1 0 5.54c-.08 0-.15-.01-.23-.01v2.33c.08-.01.15-.01.23-.01C5.76 57.3 7 58.54 7 60.07a2.77 2.77 0 0 1-2.77 2.77c-.08 0-.15-.01-.23-.01v2.33c.08-.01.15-.01.23-.01C5.76 65.15 7 66.4 7 67.93a2.77 2.77 0 0 1-2.77 2.77c-.08 0-.15-.01-.23-.01v2.33c.08-.01.15-.01.23-.01a2.77 2.77 0 1 1 0 5.54c-.08 0-.15-.01-.23-.01v2.33c.08-.01.15-.01.23-.01a2.77 2.77 0 1 1 0 5.54c-.08 0-.15-.01-.23-.01v3.46h3.45c4.31 0 7.9 3.06 8.72 7.13a2.205 2.205 0 0 0 2.16 1.77h91.34c1.05 0 1.95-.74 2.16-1.77a8.895 8.895 0 0 1 8.72-7.13H124V86.4c-.08.01-.15.01-.23.01a2.77 2.77 0 1 1 0-5.54c.08 0 .15.01.23.01v-2.33c-.08.01-.15.01-.23.01a2.77 2.77 0 1 1 0-5.54c.08 0 .15.01.23.01V70.7c-.08.01-.15.01-.23.01a2.77 2.77 0 1 1 0-5.54c.08 0 .15.01.23.01v-2.33c-.08.01-.15.01-.23.01a2.77 2.77 0 1 1 0-5.54c.08 0 .15.01.23.01V55c-.08.01-.15.01-.23.01a2.77 2.77 0 1 1 0-5.54c.08 0 .15.01.23.01v-2.33c-.08.01-.15.01-.23.01a2.77 2.77 0 0 1-2.77-2.77c0-1.56 1.24-2.8 2.77-2.8Z"/><path fill="#BB303D" d="M104.4 90.97H23.6q-2.736 0-4.673-1.937-1.937-1.937-1.937-4.673V43.64q0-2.736 1.937-4.673 1.937-1.937 4.673-1.937h80.8q2.736 0 4.673 1.937 1.937 1.937 1.937 4.673v40.72q0 2.736-1.937 4.673-1.937 1.937-4.673 1.937Zm0-3q1.494 0 2.552-1.058t1.058-2.552V43.64q0-1.494-1.058-2.552T104.4 40.03H23.6q-3.61 0-3.61 3.61v40.72q0 3.61 3.61 3.61Z"/><path fill="#BB303D" d="M34.87 37.53h58.27v52.95H34.87Zm2 2v48.95h54.27V39.53Z"/><g fill="#4E342E" opacity=".8"><path d="M47.67 50.8h32.66q1.864 0 3.182 1.318 1.318 1.318 1.318 3.182 0 1.864-1.318 3.182Q82.194 59.8 80.33 59.8H47.67q-1.864 0-3.182-1.318-1.318-1.318-1.318-3.182 0-1.864 1.318-3.182Q45.806 50.8 47.67 50.8ZM52.43 68.2h23.14q1.864 0 3.182 1.318 1.318 1.318 1.318 3.182 0 1.864-1.318 3.182Q77.434 77.2 75.57 77.2H52.43q-1.864 0-3.182-1.318-1.318-1.318-1.318-3.182 0-1.864 1.318-3.182Q50.566 68.2 52.43 68.2Z"/></g><path fill="#4E342E" d="M103.53 47.2v33.6h-6V47.2h6ZM30.47 47.2v33.6h-6V47.2h6Z" opacity=".5"/></svg>