<svg viewBox="0 0 128 128" xmlns="http://www.w3.org/2000/svg"><g fill="#fff"><circle cx="93.56" cy="39" r="7.45"/><circle cx="104.26" cy="48.4" r="7.45"/><circle cx="94.53" cy="58.77" r="7.45"/><circle cx="83.52" cy="49.04" r="7.45"/></g><circle clip-rule="evenodd" cx="34.3" cy="49.34" fill="#2f2f2f" fill-rule="evenodd" r="19.44"/><path d="m46.15 45.5h-8.26v-8.26c0-.3-.24-.54-.55-.54h-5.98c-.3 0-.54.24-.54.54v8.26h-8.26c-.3 0-.54.24-.54.54v5.99c0 .3.24.54.54.54h8.26v8.26c0 .3.25.55.54.55h5.98c.3 0 .55-.25.55-.55v-8.26h8.26c.3 0 .55-.25.55-.54v-5.99c0-.29-.25-.54-.55-.54z" fill="#fff"/><path clip-rule="evenodd" d="m51.28 49.04c0 9.35-7.58 16.93-16.92 16.93-9.35 0-16.92-7.58-16.92-16.93s7.57-16.93 16.92-16.93c9.34 0 16.92 7.58 16.92 16.93zm-16.93-16.93c-9.35 0-16.92 7.58-16.92 16.93s7.57 16.93 16.92 16.93 16.92-7.58 16.92-16.93c.01-9.35-7.57-16.93-16.92-16.93zm59.3 1.59c-2.74 0-4.97 2.23-4.97 4.97s2.22 4.97 4.97 4.97c2.74 0 4.97-2.23 4.97-4.97 0-2.75-2.22-4.97-4.97-4.97zm-15.34 15.34c0 2.75 2.23 4.97 4.97 4.97s4.97-2.23 4.97-4.97-2.23-4.97-4.97-4.97-4.97 2.23-4.97 4.97zm15.34 15.34c2.74 0 4.97-2.22 4.97-4.97 0-2.74-2.23-4.97-4.97-4.97s-4.97 2.22-4.97 4.97c.01 2.75 2.23 4.97 4.97 4.97zm15.34-15.34c0-2.74-2.22-4.97-4.97-4.97-2.74 0-4.97 2.22-4.97 4.97s2.22 4.97 4.97 4.97 4.97-2.23 4.97-4.97zm-74.64-16.93c-9.35 0-16.92 7.58-16.92 16.93s7.57 16.93 16.92 16.93 16.92-7.58 16.92-16.93c.01-9.35-7.57-16.93-16.92-16.93zm92.32 53.76-3.65-39.54c-1.38-15.01-13.99-26.77-29.36-26.77h-59.3c-15.37 0-27.99 11.76-29.37 26.77l-3.66 39.54c-.85 10.2.2 18.84 8.26 21.8 5.98 2.19 12.14 0 20.98-9.12l16.93-18.46h32.98l16.93 18.46c8.84 9.12 15.01 11.31 20.98 9.12 8.07-2.97 9.13-11.6 8.28-21.8z" fill="#757f3f" fill-rule="evenodd"/></svg>