<svg viewBox="0 0 128 128" xmlns="http://www.w3.org/2000/svg"><path d="m21.46 55.03h82.56v72.97h-82.56z" fill="#40c0e7"/><path d="m84.06 55.03v-35.62h-37.77v35.62h-24.83v37.23h86.35v-37.23z" fill="#40c0e7"/><path d="m114.83 36.23-46.83-33.15c-2.19-1.55-5.78-1.55-7.98 0l-46.85 33.15c-2.2 1.55-3.99 5.02-3.99 7.71v43.67c0 .21.03.4.06.6v39.79h38.17v-24.24c0-3.04 2.47-5.52 5.52-5.52h22.15c3.04 0 5.53 2.48 5.53 5.52v24.24h38.18v-39.98c.01-.14.04-.28.04-.42v-43.66c-.01-2.69-1.8-6.16-4-7.71zm-70.25 46.78h-16.16v-11.25c0-4.46 3.62-8.08 8.08-8.08s8.08 3.62 8.08 8.08zm27.5 0h-16.16v-11.25c0-4.46 3.62-8.08 8.09-8.08 4.46 0 8.08 3.62 8.08 8.08v11.25zm27.5 0h-16.17v-11.25c0-4.46 3.62-8.08 8.09-8.08 4.46 0 8.08 3.62 8.08 8.08z" fill="#fcc21b"/><g fill="#ed6c30"><path d="m60.01 12.67c2.2-1.55 5.79-1.55 7.98 0l50.82 35.78v-4.52c0-2.69-1.79-6.16-3.99-7.71l-46.82-33.14c-2.19-1.55-5.78-1.55-7.98 0l-46.85 33.15c-2.2 1.55-3.95 5.02-3.95 7.71v4.49z"/><path d="m77.32 37.78c0 1.12-.92 2.04-2.04 2.04h-6.15c-1.12 0-2.04.92-2.04 2.04v6.15c0 1.12-.92 2.04-2.04 2.04h-2.08c-1.12 0-2.04-.92-2.04-2.04v-6.15c0-1.12-.91-2.04-2.04-2.04h-6.15c-1.12 0-2.04-.92-2.04-2.04v-2.08c0-1.12.92-2.04 2.04-2.04h22.54c1.13 0 2.04.92 2.04 2.04z"/><path d="m77.32 27.73c0 1.12-.92 2.04-2.04 2.04h-22.54c-1.12 0-2.04-.92-2.04-2.04v-2.08c0-1.12.92-2.04 2.04-2.04h22.54c1.13 0 2.04.92 2.04 2.04z"/></g></svg>