<svg viewBox="0 0 128 128" xmlns="http://www.w3.org/2000/svg"><path d="m21.48 55.06h82.52v72.94h-82.52z" fill="#40c0e7"/><path d="m84.05 55.06v-35.61h-37.76v35.61h-24.81v37.22h86.31v-37.22z" fill="#40c0e7"/><path d="m114.81 36.26-46.81-33.13c-2.19-1.55-5.79-1.55-7.98 0l-46.83 33.13c-2.19 1.56-3.99 5.02-3.99 7.71v43.65c0 .2.03.4.06.6v39.78h38.15v-24.23c0-3.04 2.47-5.52 5.52-5.52h22.13c3.04 0 5.53 2.48 5.53 5.52v24.23h38.16v-39.96c0-.14.04-.28.04-.42v-43.65c.01-2.69-1.79-6.15-3.98-7.71zm-70.22 46.77h-16.16v-11.25c0-4.46 3.62-8.08 8.08-8.08s8.08 3.62 8.08 8.08zm27.49 0h-16.16v-11.25c0-4.46 3.62-8.08 8.08-8.08s8.07 3.62 8.07 8.08v11.25zm27.48 0h-16.16v-11.25c0-4.46 3.62-8.08 8.09-8.08 4.46 0 8.08 3.62 8.08 8.08v11.25z" fill="#ed6c30"/><path d="m60.02 12.72c2.19-1.55 5.79-1.55 7.98 0l50.79 35.77.01-4.52c0-2.69-1.79-6.15-3.99-7.7l-46.81-33.14c-2.19-1.56-5.79-1.56-7.98 0l-46.83 33.13c-2.19 1.55-3.94 5.02-3.94 7.7v4.49z" fill="#855c52"/><path d="m88.67 38.41c-1.09-.89-2.19-1.35-2.46-1.03 0 0-.3.4-.34 1.02-.04.61-.13 1.75-.66 2.36-1.15 1.23-2.28 2.31-3.35 3.26.08-.62.13-1.25.13-1.89 0-8.13-6.59-14.72-14.72-14.72s-14.72 6.59-14.72 14.72c0 .33.03.65.05.98-.47-.46-.84-.87-1.06-1.21-1.55-2.45-.79-8.52-.79-8.52l-.01.01c.04-.49-.05-.88-.3-1.14-1.27-1.33-5.9 1.03-10.35 5.27-4.46 4.24-7.04 8.75-5.77 10.08.26.28.69.39 1.22.36l-.01.01s3.24-.47 7.42 1c2.05.72 8.81 5.09 12.81 6.39 9.06 2.93 13.76 1.33 13.76 1.33l-.01-.01c2.75-.42 5.25-1.59 7.28-3.32s5.15-3.59 10.68-11.16c.51-.48 1.3-.8 1.77-.97.6-.2.89-.61.89-.61.3-.33-.38-1.31-1.46-2.21zm-21.38-5.69c5.19 0 9.4 4.21 9.4 9.41s-4.21 9.41-9.4 9.41c-5.2 0-9.41-4.21-9.41-9.41s4.21-9.41 9.41-9.41z" fill="#fcc21b"/></svg>