<svg viewBox="0 0 128 128" xmlns="http://www.w3.org/2000/svg"><path d="m39.46 102.22h47.97v25.78h-47.97z" fill="#006ca2"/><path d="m80.82 44.76v-35.08h-33.46v35.08h-37.24v60.44h105.78v-60.44z" fill="#006ca2"/><path d="m113.81 36.9h-17.96c-2.03 0-3.84-.26-4.99-1.2-1.12-.92-1.44-2.71-1.47-4.12v-18.4c0-5.45-4.46-9.9-9.9-9.9h-30.99c-5.45 0-9.91 4.46-9.91 9.9v18.4c-.02 1.41-.35 3.2-1.46 4.12-1.15.95-2.96 1.2-4.99 1.2h-17.95c-5.46 0-9.91 4.45-9.91 9.91v81.19h43.12v-12.98c0-3.04 2.47-5.53 5.52-5.53h22.15c3.04 0 5.53 2.49 5.53 5.53v12.98h43.13v-81.19c-.01-5.46-4.47-9.91-9.92-9.91zm-84.93 58.22h-12.32v-15.7h12.32zm0-24.95h-12.32v-15.7h12.32zm20.64 24.95h-12.32v-15.7h12.32zm0-24.95h-12.32v-15.7h12.32zm20.63 24.95h-12.33v-15.7h12.33zm0-24.95h-12.33v-15.7h12.33zm20.63 24.95h-12.31v-15.7h12.31zm0-24.95h-12.31v-15.7h12.31zm20.64 24.95h-12.32v-15.7h12.32zm0-24.95h-12.32v-15.7h12.32z" fill="#40c0e7"/><path d="m74.99 27.2c0 1.12-.91 2.04-2.03 2.04h-3.32c-1.12 0-2.04.92-2.04 2.04v3.32c0 1.12-.92 2.04-2.04 2.04h-3.12c-1.12 0-2.04-.92-2.04-2.04v-3.32c0-1.12-.92-2.04-2.04-2.04h-3.32c-1.12 0-2.04-.92-2.04-2.04v-3.12c0-1.12.92-2.04 2.04-2.04h3.32c1.12 0 2.04-.92 2.04-2.04v-3.32c0-1.12.92-2.04 2.04-2.04h3.12c1.12 0 2.04.92 2.04 2.04v3.32c0 1.12.92 2.04 2.04 2.04h3.32c1.12 0 2.03.92 2.03 2.04z" fill="#ed6c30"/></svg>