<svg viewBox="0 0 128 128" xmlns="http://www.w3.org/2000/svg" xmlns:xlink="http://www.w3.org/1999/xlink"><defs><path id="a" d="m108.56 25.08-41.25-23.03c-1.82-1.01-4.79-1.01-6.62 0l-41.25 23.03c-1.83 1.01-3.31 3.55-3.31 5.64v29.24c0 .06.02.11.02.17v67.87h33.35v-12.51c0-2.66 2.17-4.83 4.82-4.83h19.36c2.66 0 4.83 2.17 4.83 4.83v12.51h33.36v-97.28c0-2.09-1.49-4.62-3.31-5.64zm-69.45 71.79h-12.19v-14.71h12.19zm0-25.77h-12.19v-14.71h12.19zm20.41 25.77h-12.19v-14.71h12.19zm0-25.77h-12.19v-14.71h12.19zm7.52-37.73v-.07l-.07-.29-.2-.38c-.28-.4-.65-.32-1.05-.41l-.55-.07c-.86.01-1.74.03-2.6.04l-.26.03c-.4.09-.77.01-1.05.41l-.21.38-.08.34v.03c.03 1.52.06 3.04-.04 4.56-.09 1.15-.36 2.1-1.63 2.56-.77.28-1.91.25-2.76.17-4.07-.35-3.21-3.71-3.24-6.17-.01-.37-.02-.74-.02-1.11-.02-1.73-.03-3.45-.09-5.15-.03-.78-.05-1.56-.05-2.34 0-.89-.04-1.78.07-2.66.08-.79-.04-1.63.14-2.4.22-.98.4-2.44 1.31-3.06 1.59-1.08 4.29-.96 5.61.5.31.34.49.82.6 1.38.28 1.43.07 3.32.08 4.4v.43l.02.03.09.43.21.38c.28.4.65.32 1.05.41l.44.05c.66-.01 1.32 0 1.95-.03.32-.01.62-.01.93-.01l.08-.01c.4-.09.78-.01 1.05-.41l.2-.38.1-.43.01-.01v-.45c.02-1.08-.21-2.97.08-4.4.11-.56.29-1.04.6-1.38 1.31-1.46 4.02-1.58 5.6-.5.91.62 1.09 2.09 1.31 3.06.18.77.06 1.61.14 2.4.1.89.07 1.77.07 2.66 0 .78-.01 1.56-.05 2.34-.07 1.7-.08 3.42-.09 5.15 0 .37-.01.74-.02 1.11-.03 2.47.83 5.82-3.25 6.17-.85.08-1.98.11-2.75-.17-1.27-.45-1.55-1.41-1.63-2.56-.11-1.53-.09-3.05-.05-4.57zm12.9 63.5h-12.19v-14.71h12.19zm0-25.77h-12.19v-14.71h12.19zm20.42 25.77h-12.19v-14.71h12.19zm0-25.77h-12.19v-14.71h12.19z"/><clipPath id="b"><use xlink:href="#a"/></clipPath></defs><path d="m41.75 106.52h46.45v21.48h-46.45z" fill="#fcc21b"/><path d="m103.61 47.5h-20.43v-31.76h-38.21v31.76h-22.99v54.88h22.99v.26h38.21v-.26h20.43z" fill="#fcc21b"/><path d="m48.11 14h34.09v31.84h-34.09z" fill="#fff"/><use fill="#b89278" xlink:href="#a"/><path clip-path="url(#b)" d="m112.35 28.83c-.04-2.33-1.6-5.29-3.52-6.63l-41.34-22.51c-1.94-1.36-5.11-1.36-7.04 0l-41.35 22.5c-1.93 1.35-3.47 4.36-3.47 6.7l-.02.01.02 5.37 44.82-24.77c.99-.69 2.3-1.02 3.6-1.01 1.3-.01 2.61.32 3.6 1.01l44.84 24.78.01-5.37z" fill="#803c3d"/></svg>