<svg viewBox="0 0 128 128" xmlns="http://www.w3.org/2000/svg"><path d="m11.42 41.63h106.66v86.37h-106.66z" fill="#006ca2"/><path d="m45.36 12.27h37.98v36.36h-37.98z" fill="#fff"/><path d="m113.82 34.24h-17.97c-2.03 0-3.83-.26-4.99-1.21-1.04-.85-1.38-2.44-1.44-3.79v-12.51c0-1.11-.79-2.46-1.76-3l-21.91-12.24c-.96-.54-2.55-.54-3.52 0l-21.92 12.24c-.97.54-1.76 1.89-1.76 3v12.78c-.09 1.29-.45 2.73-1.42 3.53-1.15.95-2.96 1.21-4.98 1.21h-17.96c-5.45 0-9.91 4.46-9.91 9.9v83.85h43.12v-12.98c0-3.04 2.48-5.53 5.52-5.53h22.15c3.04 0 5.53 2.48 5.53 5.53v12.98h43.13v-83.85c-.01-5.45-4.46-9.91-9.91-9.91zm-84.94 61.54h-12.32v-15.7h12.32zm0-24.95h-12.32v-15.7h12.32zm20.64 24.95h-12.32v-15.7h12.32zm0-24.95h-12.32v-15.7h12.32zm20.63 24.95h-12.32v-15.7h12.32zm0-24.95h-12.32v-15.7h12.32zm-6.16-29.46c-2.3 0-4.46-.56-6.38-1.52-2.49-1.25-4.56-3.2-5.95-5.6-1.22-2.1-1.92-4.53-1.92-7.13 0-7.88 6.38-14.26 14.26-14.26 7.87 0 14.26 6.39 14.26 14.26 0 2.6-.71 5.03-1.93 7.13-1.39 2.4-3.46 4.35-5.95 5.6-1.93.96-4.09 1.52-6.39 1.52zm26.8 54.41h-12.32v-15.7h12.32zm0-24.95h-12.32v-15.7h12.32zm20.64 24.95h-12.33v-15.7h12.32v15.7zm0-24.95h-12.33v-15.7h12.32v15.7z" fill="#f79329"/><path d="m65.37 24.99v-10.29h-2.78v10.3c-.65.43-1.09 1.12-1.14 1.95l-6.36 3.61 1.38 2.42 6.36-3.62c.36.19.74.31 1.17.31 1.42 0 2.58-1.15 2.58-2.58-.01-.89-.5-1.64-1.21-2.1z" fill="#2f2f2f"/></svg>