<svg viewBox="0 0 128 128" xmlns="http://www.w3.org/2000/svg"><path d="m19.91 88.65h59.85v39.35h-59.85z" fill="#40c0e7"/><path d="m96.32 32.1h9.48v5.71h-9.48z" fill="#78a3ad"/><path d="m96.32 98.68h9.48v5.71h-9.48z" fill="#78a3ad"/><path d="m91.72 95.08v-65.52h-81.81v69.31h-.38v25.38h24.61v-21.97h34.09v22.34h26.13v-29.54z" fill="#40c0e7"/><path d="m102.74 104.4v7.78c0 .9 2.19 3.1 4.87 3.1h12.9c2.68 0 4.88-2.2 4.88-4.89v-80.03c0-2.69-2.2-4.88-4.88-4.88h-12.9c-2.68 0-4.87 2.2-4.87 3.09v3.52 5.72 60.87z" fill="#ed6c30"/><path d="m99.39 128v-23.6-5.71-60.88-5.71-2.62c0-4.82-3.94-8.75-8.75-8.75h-79.28c-4.81 0-8.75 3.94-8.75 8.75v98.52h34.51v-13.99c0-.02 0-.04 0-.06 0-3.44 28.35-3.44 28.35 0 0 .02-.01.04-.01.06h.01v13.99zm-85.21-93.08h12.32v14.88h-12.32zm0 23.65h12.32v14.88h-12.32zm0 23.64h12.32v14.88h-12.32zm17.39 36.51h-17.49v-12.71h17.49zm15.58-21.63h-12.33v-14.88h12.33zm0-23.65h-12.33v-14.87h12.33zm0-23.64h-12.33v-14.88h12.33zm28.95-14.88h12.33v14.88h-12.33zm0 23.65h12.33v14.88h-12.33zm0 23.64h12.33v14.88h-12.33zm-5.29 23.8h17.48v12.71h-17.48zm-15.35-71.09h12.32v14.88h-12.32zm0 23.65h12.32v14.88h-12.32zm0 38.52v-14.88h12.32v14.88z" fill="#fcc21b"/></svg>