<svg viewBox="0 0 128 128" xmlns="http://www.w3.org/2000/svg"><g fill="#fcc21b"><path d="m98.5 57.55c-.87 0-1.57-.7-1.57-1.57v-20.53c0-.87.7-1.57 1.57-1.57s1.57.7 1.57 1.57v20.53c0 .86-.71 1.57-1.57 1.57z"/><path d="m98.5 44.74v-9.29l11.48 4.64z"/><path d="m98.5 46.31c-.31 0-.62-.09-.88-.27-.43-.29-.69-.78-.69-1.3v-9.3c0-.52.26-1.01.69-1.3s.98-.35 1.47-.15l11.48 4.65c.59.24.98.81.98 1.45s-.39 1.21-.98 1.45l-11.49 4.66c-.18.07-.38.11-.58.11zm1.57-8.54v4.64l5.73-2.32z"/></g><path d="m89.55 72.93h17.87v30.67h-17.87z" fill="#fff"/><path d="m106.74 105.12h-16.52c-.84 0-1.52-.68-1.52-1.52v-30.67c0-.84.68-1.52 1.52-1.52h16.53c.84 0 1.52.68 1.52 1.52v30.67c-.01.84-.69 1.52-1.53 1.52zm-15-3.04h13.49v-27.63h-13.49z" fill="#78a3ad"/><path d="m96.44 79.18h4.11v5.54h-4.11z" fill="#78a3ad"/><path d="m96.85 55.5-9.57 16.12 1.28 2.98h19.88l1.28-2.98-9.57-16.12z" fill="#40c0e7"/><g fill="#fcc21b"><path d="m28.87 57.55c-.87 0-1.57-.7-1.57-1.57v-20.53c0-.87.7-1.57 1.57-1.57s1.56.7 1.56 1.57v20.53c.01.86-.69 1.57-1.56 1.57z"/><path d="m28.87 44.74v-9.29l11.48 4.64z"/><path d="m28.87 46.31c-.31 0-.62-.09-.88-.27-.43-.29-.69-.78-.69-1.3v-9.3c0-.52.26-1.01.69-1.3s.98-.35 1.47-.15l11.48 4.65c.59.24.98.81.98 1.45s-.39 1.21-.98 1.45l-11.48 4.66c-.19.07-.39.11-.59.11zm1.57-8.54v4.64l5.74-2.32z"/></g><path d="m19.92 72.93h17.87v30.67h-17.87z" fill="#fff"/><path d="m37.12 105.12h-16.53c-.84 0-1.52-.68-1.52-1.52v-30.67c0-.84.68-1.52 1.52-1.52h16.53c.84 0 1.52.68 1.52 1.52v30.67c-.01.84-.69 1.52-1.52 1.52zm-15.01-3.04h13.48v-27.63h-13.48z" fill="#78a3ad"/><path d="m26.82 79.18h4.1v5.54h-4.1z" fill="#78a3ad"/><path d="m27.22 55.5-9.57 16.12 1.28 2.98h19.88l1.28-2.98-9.57-16.12z" fill="#40c0e7"/><g fill="#fcc21b"><path d="m63.64 26.14c-.87 0-1.57-.7-1.57-1.57v-20.53c0-.87.7-1.57 1.57-1.57s1.57.7 1.57 1.57v20.53c0 .86-.7 1.57-1.57 1.57z"/><path d="m63.64 13.33v-9.29l11.49 4.65z"/><path d="m63.64 14.9c-.31 0-.62-.09-.88-.27-.43-.29-.69-.78-.69-1.3v-9.3c0-.52.26-1.01.69-1.3s.98-.35 1.47-.15l11.48 4.65c.59.24.98.81.98 1.45s-.39 1.22-.98 1.45l-11.48 4.65c-.19.08-.39.12-.59.12zm1.57-8.54v4.64l5.73-2.32z"/></g><path d="m54.69 41.52h17.87v30.67h-17.87z" fill="#fff"/><path d="m71.89 73.71h-16.52c-.84 0-1.52-.68-1.52-1.52v-30.67c0-.84.68-1.52 1.52-1.52h16.52c.84 0 1.52.68 1.52 1.52v30.67c0 .84-.68 1.52-1.52 1.52zm-15-3.04h13.48v-27.63h-13.48z" fill="#78a3ad"/><path d="m61.59 47.77h4.1v5.54h-4.1z" fill="#78a3ad"/><path d="m62 24.09-9.57 16.12 1.27 2.98h19.89l1.28-2.98-9.58-16.12z" fill="#40c0e7"/><g fill="#78a3ad"><path d="m42.58 68.51v12.18l6.86 6.74v10.51h28.12v-10.51l6.87-6.74v-12.18z"/><path d="m42.58 65.06h5.04v4.76h-5.04z"/><path d="m79.39 65.06h5.04v4.76h-5.04z"/><path d="m61.09 65.06h5.04v4.76h-5.04z"/><path d="m51.82 65.06h5.04v4.76h-5.04z"/><path d="m70.22 65.06h5.04v4.76h-5.04z"/><path d="m111.55 96.3v-1.74h-95.1v1.74l-5.33 31.7h5.34 3.85 36.56v-13.59c0-1.31 1.07-2.37 2.37-2.37h9.52c1.31 0 2.38 1.07 2.38 2.37v13.59h36.56 3.85 5.34z"/><path d="m16.45 91.54h5.04v4.76h-5.04z"/><path d="m40.74 91.54h5.04v4.76h-5.04z"/><path d="m28.19 91.54h5.04v4.76h-5.04z"/><path d="m81.91 91.54h5.04v4.76h-5.04z"/><path d="m53.51 91.54h5.04v4.76h-5.04z"/><path d="m68.41 91.54h5.04v4.76h-5.04z"/><path d="m106.51 91.54h5.04v4.76h-5.04z"/><path d="m93.96 91.54h5.04v4.76h-5.04z"/></g></svg>