<svg xmlns="http://www.w3.org/2000/svg" viewBox="0 0 128 128"><defs><linearGradient id="a" x1="5.371" x2="122.371" y1="-22.658" y2="-105.159" gradientTransform="scale(1 -1)" gradientUnits="userSpaceOnUse"><stop offset="0" stop-color="#FFF" stop-opacity="0"/><stop offset=".165" stop-color="#C8C8C8" stop-opacity=".165"/><stop offset=".393" stop-color="#828282" stop-opacity=".393"/><stop offset=".6" stop-color="#4A4A4A" stop-opacity=".6"/><stop offset=".776" stop-color="#222" stop-opacity=".776"/><stop offset=".915" stop-color="#090909" stop-opacity=".915"/><stop offset="1"/></linearGradient></defs><path fill="red" d="M124 35.2a49.167 49.167 0 0 1-5.43 2.85c-1.78.8-3.52 1.45-5.24 1.98-1.72.53-3.4.95-5.06 1.26-1.66.32-3.29.54-4.89.68-1.6.14-3.19.2-4.75.2s-3.1-.06-4.62-.18-3.02-.28-4.5-.48c-1.48-.21-2.95-.45-4.4-.73-1.45-.28-2.89-.58-4.32-.91a138.8 138.8 0 0 1-4.25-1.05c-1.41-.37-2.81-.76-4.21-1.15-1.4-.39-2.79-.81-4.17-1.22-1.39-.41-2.77-.83-4.16-1.25-1.38-.42-2.77-.84-4.16-1.25-1.39-.41-2.78-.82-4.17-1.22-1.4-.4-2.8-.78-4.21-1.15-1.41-.37-2.83-.72-4.25-1.05-1.42-.33-2.87-.64-4.32-.91-1.45-.28-2.92-.52-4.4-.73-1.48-.21-2.98-.37-4.5-.48a63.94 63.94 0 0 0-4.62-.18c-1.56 0-3.14.06-4.75.2a47.91 47.91 0 0 0-9.95 1.94c-1.72.53-3.46 1.18-5.24 1.98-1.77.8-3.58 1.74-5.43 2.85V20.81c1.85-1.12 3.66-2.06 5.43-2.85a46.4 46.4 0 0 1 5.24-1.98c1.72-.53 3.4-.95 5.06-1.26 1.66-.32 3.29-.54 4.89-.68 1.61-.14 3.19-.2 4.75-.2s3.1.06 4.62.18c1.52.11 3.02.28 4.5.48 1.48.2 2.95.45 4.4.73 1.45.28 2.89.58 4.32.91 1.43.33 2.85.68 4.25 1.05 1.41.37 2.81.76 4.21 1.15 1.4.39 2.79.81 4.17 1.22 1.38.41 2.77.83 4.16 1.25 1.38.42 2.77.84 4.16 1.25 1.39.41 2.78.82 4.17 1.22 1.39.4 2.8.78 4.21 1.15 1.41.37 2.83.72 4.25 1.05 1.43.33 2.87.64 4.32.91 1.45.28 2.92.52 4.4.73 1.48.21 2.98.37 4.5.48 1.52.11 3.06.18 4.62.18s3.14-.06 4.75-.2a47.91 47.91 0 0 0 9.95-1.94c1.72-.53 3.46-1.18 5.24-1.98 1.78-.8 3.59-1.74 5.43-2.85V35.2Z"/><path fill="#FB8D00" d="M124 49.6a49.167 49.167 0 0 1-5.43 2.85c-1.78.8-3.52 1.45-5.24 1.98-1.72.53-3.4.95-5.06 1.26-1.66.32-3.29.54-4.89.68-1.6.14-3.19.2-4.75.2s-3.1-.06-4.62-.18-3.02-.28-4.5-.48c-1.48-.21-2.95-.45-4.4-.73-1.45-.28-2.89-.58-4.32-.91a138.8 138.8 0 0 1-4.25-1.05c-1.41-.37-2.81-.76-4.21-1.15-1.4-.39-2.79-.81-4.17-1.22-1.39-.41-2.77-.83-4.16-1.25-1.39-.42-2.77-.84-4.16-1.25-1.39-.41-2.78-.82-4.17-1.22-1.4-.4-2.8-.78-4.21-1.15-1.41-.37-2.83-.72-4.25-1.05-1.43-.33-2.87-.64-4.32-.91-1.45-.28-2.92-.52-4.4-.73-1.48-.21-2.98-.37-4.5-.48a63.94 63.94 0 0 0-4.62-.18c-1.56 0-3.14.06-4.75.2a47.91 47.91 0 0 0-9.95 1.94c-1.72.53-3.46 1.18-5.24 1.98-1.78.8-3.58 1.73-5.43 2.85V35.21c1.85-1.12 3.66-2.06 5.43-2.85 1.78-.8 3.52-1.45 5.24-1.98 1.72-.53 3.4-.95 5.06-1.26 1.66-.32 3.29-.54 4.89-.68 1.61-.14 3.19-.2 4.75-.2s3.1.06 4.62.18c1.52.11 3.02.28 4.5.48 1.48.2 2.95.45 4.4.73 1.45.28 2.89.58 4.32.91 1.43.33 2.85.68 4.25 1.05 1.41.37 2.81.76 4.21 1.15 1.4.4 2.79.81 4.17 1.22 1.39.41 2.77.83 4.16 1.25 1.38.42 2.77.84 4.16 1.25 1.39.41 2.78.82 4.17 1.22 1.39.4 2.8.78 4.21 1.15 1.41.37 2.83.72 4.25 1.05 1.43.33 2.87.64 4.32.91 1.45.28 2.92.52 4.4.73 1.48.21 2.98.37 4.5.48 1.52.11 3.06.18 4.62.18s3.14-.06 4.75-.2a47.91 47.91 0 0 0 9.95-1.94c1.72-.53 3.46-1.18 5.24-1.98 1.78-.8 3.59-1.74 5.43-2.85V49.6Z"/><path fill="#FFE000" d="M124 64a49.167 49.167 0 0 1-5.43 2.85c-1.78.8-3.52 1.45-5.24 1.98-1.72.53-3.4.95-5.06 1.26-1.66.32-3.29.54-4.89.68-1.6.14-3.19.2-4.75.2s-3.1-.06-4.62-.18-3.02-.28-4.5-.48c-1.48-.21-2.95-.45-4.4-.73-1.45-.28-2.89-.58-4.32-.91a138.8 138.8 0 0 1-4.25-1.05c-1.41-.37-2.81-.76-4.21-1.15-1.4-.39-2.79-.81-4.17-1.22-1.39-.41-2.78-.83-4.16-1.25-1.38-.42-2.77-.84-4.16-1.25-1.39-.41-2.78-.82-4.17-1.22-1.4-.4-2.8-.78-4.21-1.15-1.41-.37-2.83-.72-4.25-1.05-1.42-.33-2.87-.64-4.32-.91-1.45-.28-2.92-.52-4.4-.73-1.48-.21-2.98-.37-4.5-.48a63.94 63.94 0 0 0-4.62-.18c-1.56 0-3.14.06-4.75.2a47.91 47.91 0 0 0-9.95 1.94c-1.72.53-3.46 1.18-5.24 1.98C7.66 61.94 5.85 62.88 4 64V49.61c1.85-1.12 3.66-2.06 5.43-2.85a46.4 46.4 0 0 1 5.24-1.98c1.72-.53 3.4-.95 5.06-1.26 1.66-.32 3.29-.54 4.89-.68 1.61-.14 3.19-.2 4.75-.2s3.1.06 4.62.18c1.52.11 3.02.28 4.5.48 1.48.21 2.95.45 4.4.73 1.45.28 2.89.58 4.32.91 1.43.33 2.85.68 4.25 1.05 1.41.37 2.81.76 4.21 1.15 1.4.4 2.79.81 4.17 1.22 1.39.41 2.77.83 4.16 1.25 1.39.42 2.77.84 4.16 1.25 1.39.41 2.78.82 4.17 1.22 1.39.4 2.8.78 4.21 1.15 1.41.37 2.83.72 4.25 1.05 1.43.33 2.87.64 4.32.91 1.45.28 2.92.52 4.4.73 1.48.21 2.98.37 4.5.48 1.52.11 3.06.18 4.62.18s3.14-.06 4.75-.2a47.91 47.91 0 0 0 9.95-1.94c1.72-.53 3.46-1.18 5.24-1.98 1.78-.8 3.59-1.74 5.43-2.85V64Z"/><path fill="#43A047" d="M124 78.4a49.167 49.167 0 0 1-5.43 2.85c-1.78.8-3.52 1.45-5.24 1.98-1.72.53-3.4.95-5.06 1.26-1.66.31-3.29.54-4.89.68-1.61.14-3.19.2-4.75.2s-3.1-.06-4.62-.18c-1.52-.11-3.02-.28-4.5-.48-1.48-.21-2.95-.45-4.4-.73-1.45-.28-2.89-.58-4.32-.91a138.8 138.8 0 0 1-4.25-1.05c-1.41-.37-2.81-.76-4.21-1.15-1.4-.39-2.79-.81-4.17-1.22-1.39-.41-2.77-.83-4.16-1.25-1.38-.42-2.77-.84-4.16-1.25-1.39-.41-2.78-.82-4.17-1.22-1.4-.4-2.8-.78-4.21-1.15-1.41-.37-2.83-.72-4.25-1.05-1.42-.33-2.87-.64-4.32-.91-1.45-.28-2.92-.52-4.4-.73-1.48-.21-2.98-.37-4.5-.48a63.94 63.94 0 0 0-4.62-.18c-1.56 0-3.14.06-4.75.2a47.91 47.91 0 0 0-9.95 1.94c-1.72.53-3.46 1.18-5.24 1.98-1.77.8-3.58 1.74-5.43 2.85V64.01c1.85-1.12 3.66-2.06 5.43-2.85 1.78-.8 3.52-1.45 5.24-1.98 1.72-.53 3.4-.95 5.06-1.26 1.66-.32 3.29-.54 4.89-.68 1.61-.14 3.19-.2 4.75-.2s3.1.06 4.62.18c1.52.11 3.02.28 4.5.48 1.48.21 2.95.45 4.4.73 1.45.28 2.89.58 4.32.91 1.43.33 2.85.68 4.25 1.05 1.41.37 2.81.76 4.21 1.15 1.4.4 2.79.81 4.17 1.22 1.39.41 2.77.83 4.16 1.25 1.38.42 2.77.84 4.16 1.25 1.39.41 2.78.82 4.17 1.22 1.39.4 2.8.78 4.21 1.15 1.41.37 2.83.72 4.25 1.05 1.43.33 2.87.64 4.32.91 1.45.28 2.92.52 4.4.73 1.48.21 2.98.37 4.5.48 1.52.11 3.06.18 4.62.18s3.14-.06 4.75-.2a47.91 47.91 0 0 0 9.95-1.94c1.72-.53 3.46-1.18 5.24-1.98 1.78-.8 3.59-1.74 5.43-2.85V78.4Z"/><path fill="#1565C0" d="M124 92.8a49.167 49.167 0 0 1-5.43 2.85c-1.78.8-3.52 1.45-5.24 1.98-1.72.53-3.4.95-5.06 1.26-1.66.31-3.29.54-4.89.68-1.61.14-3.19.2-4.75.2s-3.1-.06-4.62-.18c-1.52-.11-3.02-.28-4.5-.48-1.48-.21-2.95-.45-4.4-.73-1.45-.28-2.89-.58-4.32-.91a138.8 138.8 0 0 1-4.25-1.05c-1.41-.37-2.81-.76-4.21-1.15-1.4-.4-2.79-.81-4.17-1.22-1.39-.41-2.77-.83-4.16-1.25-1.38-.42-2.77-.84-4.16-1.25-1.39-.41-2.78-.82-4.17-1.22-1.4-.4-2.8-.78-4.21-1.15-1.41-.37-2.83-.72-4.25-1.05-1.42-.33-2.87-.64-4.32-.91-1.45-.28-2.92-.52-4.4-.73-1.48-.21-2.98-.37-4.5-.48a63.94 63.94 0 0 0-4.62-.18c-1.56 0-3.14.06-4.75.2-1.61.14-3.24.36-4.89.68-1.65.32-3.34.73-5.06 1.26-1.72.53-3.46 1.18-5.24 1.98-1.78.8-3.58 1.73-5.43 2.85V78.41c1.85-1.12 3.66-2.06 5.43-2.85 1.78-.8 3.52-1.45 5.24-1.98 1.72-.53 3.4-.95 5.06-1.26 1.66-.32 3.29-.54 4.89-.68 1.61-.14 3.19-.2 4.75-.2s3.1.06 4.62.18c1.52.11 3.02.28 4.5.48 1.48.21 2.95.45 4.4.73 1.45.28 2.89.58 4.32.91 1.43.33 2.85.68 4.25 1.05 1.41.37 2.81.76 4.21 1.15 1.4.4 2.79.81 4.17 1.22 1.39.41 2.77.83 4.16 1.25 1.38.42 2.77.84 4.16 1.25 1.39.41 2.78.82 4.17 1.22 1.39.4 2.8.78 4.21 1.15 1.41.37 2.83.72 4.25 1.05 1.43.33 2.87.64 4.32.91 1.45.28 2.92.52 4.4.73 1.48.21 2.98.37 4.5.48 1.52.11 3.06.18 4.62.18s3.14-.06 4.75-.2a47.91 47.91 0 0 0 9.95-1.94c1.72-.53 3.46-1.18 5.24-1.98 1.78-.8 3.59-1.74 5.43-2.85V92.8Z"/><path fill="#7A1FA6" d="M124 107.2a49.167 49.167 0 0 1-5.43 2.85c-1.78.8-3.52 1.45-5.24 1.98-1.72.53-3.4.95-5.06 1.26-1.66.32-3.29.54-4.89.68-1.61.14-3.19.2-4.75.2s-3.1-.06-4.62-.18c-1.52-.11-3.02-.28-4.5-.48-1.48-.21-2.95-.45-4.4-.73-1.45-.28-2.89-.58-4.32-.91a138.8 138.8 0 0 1-4.25-1.05c-1.4-.37-2.81-.76-4.21-1.15-1.4-.4-2.79-.81-4.17-1.22-1.39-.41-2.77-.83-4.16-1.25-1.38-.42-2.77-.84-4.16-1.25-1.39-.41-2.78-.82-4.17-1.22-1.4-.4-2.8-.78-4.21-1.15-1.41-.37-2.83-.72-4.25-1.05-1.42-.33-2.87-.64-4.32-.91-1.45-.28-2.92-.52-4.4-.73-1.48-.21-2.98-.37-4.5-.48a63.94 63.94 0 0 0-4.62-.18c-1.56 0-3.14.06-4.75.2a47.91 47.91 0 0 0-9.95 1.94c-1.72.53-3.46 1.18-5.24 1.98-1.78.8-3.59 1.74-5.43 2.85V92.81c1.85-1.12 3.66-2.06 5.43-2.85a46.4 46.4 0 0 1 5.24-1.98c1.72-.53 3.4-.95 5.06-1.26 1.66-.31 3.29-.54 4.89-.68 1.61-.14 3.19-.2 4.75-.2s3.1.06 4.62.18c1.52.11 3.02.28 4.5.48 1.48.2 2.95.45 4.4.73 1.45.28 2.89.58 4.32.91 1.43.33 2.85.68 4.25 1.05 1.41.37 2.81.76 4.21 1.15 1.4.4 2.79.81 4.17 1.22 1.39.41 2.77.83 4.16 1.25 1.38.42 2.77.84 4.16 1.25 1.39.41 2.78.82 4.17 1.22 1.4.4 2.8.78 4.21 1.15 1.41.37 2.83.72 4.25 1.05 1.43.33 2.87.64 4.32.91 1.45.28 2.92.52 4.4.73 1.48.21 2.98.37 4.5.48 1.52.11 3.06.18 4.62.18s3.14-.06 4.75-.2c1.61-.14 3.24-.36 4.89-.68 1.65-.32 3.34-.73 5.06-1.26 1.72-.53 3.46-1.18 5.24-1.98 1.78-.8 3.59-1.74 5.43-2.85V107.2Z"/><path fill="#424242" d="M120 26.98V105.36c-1.87.91-3.69 1.66-5.49 2.27a44.79 44.79 0 0 1-5.27 1.45c-1.72.36-3.42.63-5.08.8-1.66.17-3.3.26-4.9.28-1.6.02-3.19-.03-4.75-.14-1.56-.11-3.09-.27-4.61-.47-1.52-.2-3.01-.45-4.49-.72-1.48-.27-2.95-.59-4.4-.92-1.45-.33-2.89-.69-4.32-1.06-1.43-.37-2.85-.77-4.26-1.17-1.41-.4-2.82-.81-4.22-1.23l-4.2-1.26c-1.4-.42-2.8-.85-4.2-1.26-1.4-.41-2.81-.83-4.22-1.23-1.41-.4-2.83-.79-4.26-1.17-1.43-.37-2.87-.73-4.32-1.06-1.45-.33-2.92-.64-4.4-.92-1.48-.28-2.98-.52-4.49-.72-1.52-.2-3.05-.36-4.61-.47a57.3 57.3 0 0 0-4.75-.14c-1.61.02-3.24.1-4.9.28a47.248 47.248 0 0 0-10.35 2.25c-1.79.61-3.62 1.36-5.49 2.27V22.66c1.87-.91 3.69-1.66 5.49-2.27 1.8-.61 3.55-1.09 5.27-1.45 1.72-.37 3.42-.63 5.08-.8 1.66-.17 3.3-.26 4.9-.28a57.3 57.3 0 0 1 4.75.14c1.56.11 3.09.27 4.61.47 1.52.2 3.01.45 4.49.72 1.48.28 2.95.59 4.4.92 1.45.33 2.89.69 4.32 1.06 1.43.37 2.85.77 4.26 1.17 1.41.4 2.82.81 4.22 1.23l4.2 1.26c1.4.42 2.8.85 4.2 1.26a292.76 292.76 0 0 0 8.48 2.4c1.43.37 2.87.73 4.32 1.06 1.45.33 2.92.64 4.4.92 1.48.28 2.98.52 4.49.72 1.52.2 3.05.36 4.61.47 1.56.11 3.14.16 4.75.14 1.61-.02 3.24-.1 4.9-.28a47.248 47.248 0 0 0 10.35-2.25c1.79-.61 3.62-1.38 5.49-2.29m4-6.18a49.167 49.167 0 0 1-5.43 2.85c-1.78.8-3.52 1.45-5.24 1.98-1.72.53-3.4.95-5.06 1.26-1.66.32-3.29.54-4.89.68-1.6.14-3.19.2-4.75.2s-3.1-.06-4.62-.18c-1.52-.11-3.02-.28-4.5-.48-1.48-.21-2.95-.45-4.4-.73-1.45-.28-2.89-.58-4.32-.91a138.8 138.8 0 0 1-4.25-1.05c-1.41-.37-2.81-.76-4.21-1.15-1.4-.39-2.79-.81-4.17-1.22-1.39-.41-2.77-.83-4.16-1.25-1.38-.42-2.77-.84-4.16-1.25-1.39-.41-2.78-.82-4.17-1.22-1.39-.4-2.8-.78-4.21-1.15-1.41-.37-2.83-.72-4.25-1.05-1.43-.33-2.87-.64-4.32-.91-1.45-.28-2.92-.52-4.4-.73-1.48-.21-2.98-.37-4.5-.48a63.94 63.94 0 0 0-4.62-.18c-1.56 0-3.14.06-4.75.2a47.91 47.91 0 0 0-9.95 1.94c-1.72.53-3.46 1.18-5.24 1.98-1.78.8-3.58 1.73-5.43 2.85v86.36c1.85-1.12 3.66-2.06 5.43-2.85 1.78-.8 3.52-1.45 5.24-1.98 1.72-.53 3.4-.95 5.06-1.26 1.66-.32 3.29-.54 4.89-.68 1.61-.14 3.19-.2 4.75-.2s3.1.06 4.62.18c1.52.11 3.02.28 4.5.48 1.48.21 2.95.45 4.4.73 1.45.28 2.89.58 4.32.91 1.43.33 2.85.68 4.25 1.05 1.41.37 2.81.76 4.21 1.15 1.4.4 2.79.81 4.17 1.22 1.38.41 2.77.83 4.16 1.25 1.38.42 2.77.84 4.16 1.25 1.39.41 2.78.82 4.17 1.22 1.4.4 2.8.78 4.21 1.15 1.41.37 2.83.72 4.25 1.05 1.43.33 2.87.64 4.32.91 1.45.28 2.92.52 4.4.73 1.48.21 2.98.37 4.5.48 1.52.11 3.06.18 4.62.18s3.14-.06 4.75-.2a47.91 47.91 0 0 0 9.95-1.94c1.72-.53 3.46-1.18 5.24-1.98 1.78-.8 3.59-1.74 5.43-2.85V20.8Z" opacity=".2"/><path fill="url(#a)" d="M124 107.2a49.167 49.167 0 0 1-5.43 2.85c-1.78.8-3.52 1.45-5.24 1.98-1.72.53-3.4.95-5.06 1.26-1.66.32-3.29.54-4.89.68-1.61.14-3.19.2-4.75.2s-3.1-.06-4.62-.18c-1.52-.11-3.02-.28-4.5-.48-1.48-.21-2.95-.45-4.4-.73-1.45-.28-2.89-.58-4.32-.91a138.8 138.8 0 0 1-4.25-1.05c-1.4-.37-2.81-.76-4.21-1.15-1.4-.4-2.79-.81-4.17-1.22-1.39-.41-2.77-.83-4.16-1.25-1.38-.42-2.77-.84-4.16-1.25-1.39-.41-2.78-.82-4.17-1.22-1.4-.4-2.8-.78-4.21-1.15-1.41-.37-2.83-.72-4.25-1.05-1.42-.33-2.87-.64-4.32-.91-1.45-.28-2.92-.52-4.4-.73-1.48-.21-2.98-.37-4.5-.48a63.94 63.94 0 0 0-4.62-.18c-1.56 0-3.14.06-4.75.2a47.91 47.91 0 0 0-9.95 1.94c-1.72.53-3.46 1.18-5.24 1.98-1.78.8-3.59 1.74-5.43 2.85V20.8c1.85-1.12 3.66-2.06 5.43-2.85a46.4 46.4 0 0 1 5.24-1.98c1.72-.53 3.4-.95 5.06-1.26 1.66-.32 3.29-.54 4.89-.68 1.61-.14 3.19-.2 4.75-.2s3.1.06 4.62.18c1.52.11 3.02.28 4.5.48 1.48.2 2.95.45 4.4.73 1.45.28 2.89.58 4.32.91 1.43.33 2.85.68 4.25 1.05 1.41.37 2.81.76 4.21 1.15 1.4.39 2.79.81 4.17 1.22 1.38.41 2.77.83 4.16 1.25 1.38.42 2.77.84 4.16 1.25 1.39.41 2.78.82 4.17 1.22 1.39.4 2.8.78 4.21 1.15 1.41.37 2.83.72 4.25 1.05 1.43.33 2.87.64 4.32.91 1.45.28 2.92.52 4.4.73 1.48.21 2.98.37 4.5.48 1.52.11 3.06.18 4.62.18s3.14-.06 4.75-.2a47.91 47.91 0 0 0 9.95-1.94c1.72-.53 3.46-1.18 5.24-1.98 1.78-.8 3.59-1.74 5.43-2.85V107.2Z" opacity=".3"/></svg>