<svg xmlns="http://www.w3.org/2000/svg" viewBox="0 0 128 128"><path fill="#FFF" d="M110.2 54.68s10.58-5.06 13.09-15.84c2.52-10.79-5.53-17.56-13.56-14.48C100.5 27.89 95.6 35.8 95.6 35.8l14.6 18.88Z"/><path fill="#91BDCE" d="M109.754 56.556 93.777 35.895l.548-.885q1.313-2.12 3.809-4.658 4.987-5.07 11.059-7.393 7.133-2.735 12.325 2.37 5.26 5.172 3.233 13.851-1.678 7.205-7.954 12.747-3.116 2.751-5.95 4.106Zm.862-3.79q1.991-1.142 4.195-3.088 5.558-4.908 7.018-11.178 1.644-7.041-2.414-11.032-3.817-3.752-9.148-1.707-5.465 2.09-9.994 6.695-1.75 1.779-2.826 3.28l13.169 17.03Z"/><path fill="#91BDCE" d="M106.34 52.66s6.8-11.71 8.39-15.67c1.16-2.88.67-4.21-2.81-2.84-6.06 2.39-14.49 5.88-14.49 5.88l8.91 12.63Z"/><path fill="#FFF" d="M17.8 54.68S7.22 49.62 4.71 38.84C2.2 28.06 10.24 21.28 18.27 24.36 27.5 27.89 32.4 35.8 32.4 35.8L17.8 54.68Z"/><path fill="#91BDCE" d="M17.153 56.033q-2.834-1.355-5.95-4.106-6.276-5.542-7.954-12.747-2.019-8.673 3.236-13.847 5.191-5.109 12.322-2.374 6.072 2.323 11.059 7.393 2.496 2.538 3.809 4.658l.548.885-15.977 20.661Zm.231-3.267 13.169-17.03q-1.076-1.501-2.826-3.28-4.529-4.605-9.994-6.695-5.328-2.044-9.143 1.711Q4.533 31.465 6.171 38.5q1.46 6.27 7.018 11.178 2.204 1.946 4.195 3.088Z"/><path fill="#91BDCE" d="M21.66 52.66s-6.8-11.71-8.39-15.67c-1.16-2.88-.67-4.21 2.81-2.84 6.06 2.39 14.49 5.88 14.49 5.88l-8.91 12.63Z"/><path fill="#FFF" d="M116.75 63.09c-4.75-18.3-15.1-31.76-28.67-38.59-7.73-3.89-13.54-2.45-18-.54-2.45 1.05-4.56 1.31-6.26 1.31-1.7 0-3.62-.27-6.07-1.31-4.46-1.91-10.27-3.36-18 .54-13.57 6.84-23.92 20.29-28.67 38.59-4.8 18.51 2.36 25.76 8.28 31.64 8.61 8.54 27.26 11.43 44.56 11.22 17.3.21 35.95-2.68 44.56-11.22 5.91-5.88 13.07-13.13 8.27-31.64Z"/><path fill="#91BDCE" d="M118.202 62.713q3.3 12.725-.176 21.486-2.065 5.204-8.49 11.596Q97.38 107.853 63.92 107.45q-33.46.403-45.617-11.656-6.429-6.385-8.497-11.594-3.478-8.76-.178-21.487 7.379-28.429 29.446-39.552 9.467-4.776 19.262-.582 2.805 1.191 5.484 1.191 2.895 0 5.669-1.189 9.787-4.191 19.265.579 22.064 11.105 29.448 39.553Zm-2.904.754q-7.043-27.133-27.892-37.627-8.232-4.143-16.735-.501-3.34 1.431-6.851 1.431-3.289 0-6.656-1.429-8.519-3.649-16.738.498Q19.57 36.352 12.532 63.467q-3.054 11.777.062 19.626 1.837 4.628 7.823 10.573 11.267 11.175 43.485 10.784h.036q32.218.391 43.486-10.785 5.979-5.949 7.813-10.572 3.115-7.85.061-19.626Z"/><path fill="#CFD8DC" d="M83.94 58.62C78.38 44.59 67.83 42.86 64 42.86c-3.83 0-14.38 1.73-19.94 15.76-2.97 7.5-4.87 13.28-3.65 19.09 2.42 11.57 11.9 17 23.6 17 11.7 0 21.18-5.44 23.6-17 1.2-5.81-.69-11.59-3.67-19.09Z"/><path fill="#231F20" d="M75.42 75.07c-1.19-.9-3.34-2.1-6.15-3.14-1.64-.61-2.85-2-2.77-3.74.09-1.93.16-4.02.06-4.24-.24-.53-1.71-.91-2.44-.85h-.24c-.73-.06-2.21.32-2.44.85-.08.19-.04 1.79.03 3.47.09 2.1-1.28 3.87-3.23 4.65-2.52 1-4.54 2.16-5.65 3.01-.68.51-1.22 1.5-.89 2.39.43 1.14 2.34.98 3.42.49 2.9-1.32 5.57-2.01 8.88-2.01 3.32 0 5.98.69 8.88 2.01 1.08.49 2.99.65 3.42-.49.34-.9-.2-1.89-.88-2.4Z"/><path fill="#231F20" d="M70.56 52.25c-2.97-1.87-9.55-1.79-13.36 0-1.82.85-5.98 5.12-4.8 9.68.51 1.98 1.92 3.57 3.39 4.46 1.81 1.09 7.5 2.5 8.09 2.49.59.01 6.53-1.65 8.34-2.74 1.47-.89 2.88-2.48 3.39-4.46 1.19-4.55-3.35-8.36-5.05-9.43ZM91.7 47.24a4.42 4.42 0 1 1-8.84 0 4.42 4.42 0 1 1 8.84 0ZM45.14 47.24a4.42 4.42 0 1 1-8.84 0 4.42 4.42 0 1 1 8.84 0Z"/></svg>