<svg viewBox="0 0 128 128" xmlns="http://www.w3.org/2000/svg"><path d="m28.197 48.802c12.249-23.078 37.663-30.506 60.163-17.062 15.042 9.002 20.545 30.796 14.432 56.591-2.512 10.644 4.198 12.345 3.845 17.972-.683 11.033-18.318 20.316-41.279 20.646-22.953.329-41.086-8.413-41.857-19.442-1.558-22.219-4.435-41.596 3.388-56.337z" fill="#fbb817"/><g fill="#2f2f2f"><path d="m51.635 60.468c0 3.321-2.44 6.012-5.466 6.012-3.022 0-5.475-2.691-5.475-6.012 0-3.33 2.452-6.019 5.475-6.019 3.026 0 5.466 2.689 5.466 6.019"/><path d="m73 60.468c0 3.321 2.444 6.012 5.479 6.012 3.018 0 5.474-2.691 5.474-6.012 0-3.33-2.456-6.019-5.474-6.019-3.036 0-5.479 2.689-5.479 6.019"/><path d="m63.985 85.295c-.429 0-.878-.018-1.332-.038-10.664-.638-14.709-6.421-14.874-6.668-.598-.873-.365-2.057.501-2.651.859-.588 2.039-.363 2.633.496.16.214 3.323 4.501 11.968 5.011 8.621.494 12.378-5.131 12.426-5.188.554-.883 1.75-1.138 2.629-.566.878.574 1.135 1.75.558 2.635-.184.299-4.616 6.969-14.509 6.969z"/></g><path d="m115.86 48.866c-.578-10.726-5.515-21.283-12.141-29.957-.686-.885-5.161-6.201-10.656-9.637-8.292-5.177-18.225-8.248-29.238-8.231-14.718-.02-28.492 5.387-37.065 15.364-.859.875-1.642 1.766-2.199 2.504-6.639 8.673-10.925 20.276-12.137 30.952-1.039 9.143-.333 18.526 5.435 28.416 5.884 10.096 16.732 13.104 18.671 11.187 1.533-1.509.188-4.98-1.164-8.342-4.078-10.13-4.25-20.918-1.983-30.976 19.617-4.46 29.298-7.015 39.388-13.039.867-.518 1.562-1.027 2.292-1.694.518-.478.838-.899 1.465-.566.674.35 1.356 1.634 1.726 2.253 2.279 3.936 5.185 7.5 8.468 10.662 1.822 1.746 4.391 4.451 7.04 6.113 2.231 7.527 3.006 16.688-.667 27.455-.834 2.452-3.54 6.207-1.814 8.31 3.03 3.707 13.839-5.328 15.115-6.632 6.329-6.45 10.331-18.132 9.464-34.142z" fill="#724941"/></svg>