<svg viewBox="0 0 128 128" xmlns="http://www.w3.org/2000/svg"><path d="m37.84 65.64c10.032-18.9 27.131-27.7 45.558-16.688 12.319 7.371 16.822 25.221 11.82 46.343-2.058 8.717 3.438 10.112 3.149 14.719-.559 9.036-15.002 16.639-33.81 16.908-18.795.27-33.652-6.889-34.276-15.922-1.276-18.196 1.15-33.289 7.559-45.36" fill="#fbb817"/><path d="m65.319 34.47c1.083 0 2.225.028 3.382.075 14.175.585 24.795 10.647 31.584 22.452 1.859 3.233 3.121 6.796 3.984 10.425 2.227 9.386 2.497 18.795-1.703 27.652-2.712 5.719-9.343 13.432-15.976 13.163-.444-.018-.929-.083-1.236-.411-.279-.298-.341-.754-.253-1.156.089-.399.311-.758.541-1.096 1.685-2.47 2.795-5.194 3.603-8.152.744-2.725.856-5.603.475-8.395-.745-5.473-3.346-10.804-7.354-14.573-2.465-2.319-5.208-3.828-7.282-6.585-.303-.401-.565-.769-.8-1.111-.949-1.334-2.023-2.854-4.096-2.854-1.599 0-2.958 1.016-4.074 2.003-.256.225-.504.45-.753.674-.928.847-1.79 1.644-2.725 2.148-2.912 1.527-5.999 2.445-9.455 2.8-.511.055-1.123.067-1.755.083-1.585.026-3.375.067-4.996.722-3.293 1.329-4.802 4.763-5.836 7.942-2.671 8.224-2.781 18.145 2.054 25.576.247.38.513.781.511 1.234-.001.595-.49 1.098-1.044 1.292s-1.158.14-1.739.058c-4.679-.671-9.601-3.292-12.454-7.178-5.118-6.968-6.198-14.831-5.654-23.253.954-14.803 8.208-30.056 20.866-38.137 5.69-3.633 12.946-5.398 22.185-5.398" fill="#aa8165"/><path d="m63.939 31.028c-1.026-8.605-5.785-16.3-12.425-21.742-1.177-.961-3.721-2.89-6.633-4.589-1.926-1.127-4.74-2.652-7.356-3.09-.506-.117-1.025-.225-1.558-.309-2.893-.456-5.93-.306-7.803 1.135-3.82 2.937-1.887 7.994-.861 11.795.638 2.34.967 4.751 1.282 7.157 1.368 10.545 6.449 21.33 16.455 26.115 3.734 1.788 7.521 4.233 11.82 3.244 3.043-.7 5.029-2.902 6.035-5.719 1.583-4.422 1.589-9.382 1.044-13.997z" fill="#2f2f2f"/><path d="m44.408 38c-.263-.342-.506-.687-.756-1.042-2.446-3.639-3.11-8.017-4.227-12.162-.506-1.874-3.524-7.992.171-8.544 1.926-.289 5.207 2.23 6.666 3.328.67.503 1.308 1.039 1.919 1.607 3.826 3.563 6.39 8.316 7.744 13.332.789 2.902 1.709 5.969 1.532 9.01-.066 1.209-.026 2.675-1.532 2.692-1.197.013-2.485-.75-3.478-1.354-2.997-1.818-5.876-4.073-8.039-6.867z" fill="#cc4079"/><path d="m65.648 31.028c1.032-8.605 5.792-16.3 12.425-21.742 1.177-.961 3.728-2.89 6.64-4.589 1.926-1.127 4.733-2.652 7.35-3.09.512-.117 1.032-.225 1.551-.309 2.906-.456 5.943-.306 7.81 1.135 3.826 2.937 1.894 7.994.861 11.795-.638 2.34-.966 4.751-1.275 7.157-1.374 10.545-6.449 21.33-16.461 26.115-3.734 1.788-7.521 4.233-11.82 3.244-3.043-.7-5.022-2.902-6.035-5.719-1.578-4.422-1.591-9.382-1.046-13.997z" fill="#2f2f2f"/><path d="m85.18 38c.263-.342.512-.687.756-1.042 2.485-3.701 3.333-8.139 4.509-12.362.526-1.883 3.116-7.812-.447-8.344-1.933-.289-5.207 2.23-6.672 3.328-.671.503-1.309 1.039-1.92 1.607-3.826 3.563-6.39 8.316-7.744 13.332-.782 2.902-1.709 5.969-1.532 9.01.072 1.209.026 2.675 1.532 2.692 1.203.013 2.485-.75 3.484-1.354 2.998-1.818 5.877-4.073 8.034-6.867z" fill="#cc4079"/><path d="m80.84 47.828c-1.88-1.072-3.977-1.854-5.917-2.515-10.406-3.533-22.457-1.262-30.286 6.663-.809.818-2.399 3.498-1.255 4.365.67.509 2.36.352 3.162.273 1.669-.165 3.214-.911 4.786-1.437 10.104-3.386 20.793-2.738 30.713.946.993.372 2.044.93 3.155.694 2.702-.572.631-4.392-.322-5.621-1.071-1.389-2.484-2.477-4.036-3.368z" fill="#2f2f2f"/><path d="m69.999 97.461c-.401-.237-1.06.151-1.38.381-.217.143-.503.299-.755.4-1.191.49-2.477.763-3.762.763-1.278 0-2.572-.272-3.764-.763-.243-.102-.522-.258-.748-.4-.326-.23-.979-.618-1.387-.381-.245.151-.279.6-.238.845.422 2.694 3.231 3.924 5.769 4.013.124.006.245-.013.368-.02.122.006.245.026.381.02 2.523-.089 5.34-1.319 5.755-4.013.04-.245.013-.694-.239-.845z" fill="#cc4079"/><g fill="#2f2f2f"><path d="m56.334 87.224c0 2.463-1.818 4.455-4.056 4.455-2.224 0-4.033-1.992-4.033-4.455 0-2.456 1.81-4.456 4.033-4.456 2.239.001 4.056 2.001 4.056 4.456z"/><path d="m52.278 82.829c-.401-.028-.809.117-1.196 0-.463-.136-.871-.312-1.279-.578-.279-.191-.414-.367-.762-.415-.306-.048-.66.054-.83.319-.327.531.279 1.246.693 1.573.143.115.586.23.463.497-.11.217-.613.197-.804.197-.414 0-.761-.048-1.164-.13-.319-.067-.638-.232-.945-.278-.312-.049-.51.108-.687.339-.286.381-.265.769 0 1.144.442.618 1.211 1.184 1.946 1.394 1.116.313 1.361-.237 1.918-1.041.245-.347.463-.722.75-1.034.414-.442.834-.993 1.38-1.266.238-.108.509-.171.761-.204.158-.028.389.013.402-.218.007-.217-.26-.21-.416-.251-.072-.026-.154-.035-.23-.048z"/><path d="m71.885 87.224c0 2.463 1.808 4.455 4.04 4.455s4.042-1.992 4.042-4.455c0-2.456-1.81-4.456-4.042-4.456s-4.04 2.001-4.04 4.456z"/><path d="m75.932 82.829c.401-.028.81.117 1.191 0 .475-.136.884-.312 1.292-.578.271-.191.408-.367.761-.415.294-.048.647.054.818.319.332.531-.267 1.246-.681 1.573-.158.115-.6.23-.47.497.102.217.611.197.802.197.409 0 .763-.048 1.164-.13.321-.067.633-.232.953-.278.312-.049.503.108.681.339.286.381.258.769 0 1.144-.442.618-1.211 1.184-1.946 1.394-1.109.313-1.361-.237-1.926-1.041-.245-.347-.449-.722-.741-1.034-.416-.442-.837-.993-1.389-1.266-.23-.108-.503-.171-.748-.204-.163-.028-.401.013-.407-.218-.006-.217.251-.21.407-.251.089-.026.164-.035.239-.048z"/></g></svg>