<svg viewBox="0 0 128 128" xmlns="http://www.w3.org/2000/svg"><path d="m30.152 27.207c9.47-14.484 21.311-16.668 31.398-17.288 8.989-.554 20.452 1.724 29.045 8.022 11.896 8.713 16.092 20.911 17.655 37.02.94 9.666.245 20.224-2.203 30.577-2.688 11.389 4.492 13.21 4.114 19.231-.73 11.806-19.601 21.74-44.175 22.092-24.557.352-43.965-9.002-44.785-20.804-1.151-16.425-2.534-31.343-1.237-44.285 1.337-13.404 2.097-22.186 10.188-34.565z" fill="#fbb817"/><g fill="#2f2f2f"><path d="m51.308 55.721c0 3.554-2.611 6.433-5.85 6.433-3.238 0-5.862-2.879-5.862-6.433 0-3.563 2.625-6.442 5.862-6.442 3.239 0 5.85 2.879 5.85 6.442"/><path d="m74.165 55.721c0 3.554 2.615 6.433 5.866 6.433 3.23 0 5.858-2.879 5.858-6.433 0-3.563-2.628-6.442-5.858-6.442-3.251 0-5.866 2.879-5.866 6.442"/><path d="m64.441 81.7c-.42 0-.858-.018-1.305-.039-10.402-.623-14.353-6.266-14.512-6.507-.58-.85-.356-2.005.494-2.585.833-.576 1.984-.357 2.568.48.15.213 3.238 4.394 11.673 4.89 8.418.483 12.077-5.005 12.124-5.059.545-.861 1.709-1.113 2.568-.552.863.561 1.108 1.708.546 2.57-.185.291-4.505 6.802-14.156 6.802z"/></g><path d="m80.194 67.443c-.06.206-.047.438.017.674.06.228.21.417.335.614.322.564.919.981 1.335 1.477.988 1.192 1.8 2.579 2.199 4.095.322 1.23.477 2.45.735 3.689.086.468.352.824.824.972 1.117.346 1.692-.534 1.963-1.485.906-3.215-.451-7.379-3.114-9.41-.713-.556-1.778-1.172-2.688-1.351-.447-.09-.97-.08-1.318.26-.15.137-.245.296-.288.465z" fill="#aa8165"/><path d="m46.808 67.725c.06.208.06.428-.009.677-.061.228-.215.406-.327.603-.326.565-.919.992-1.34 1.486-1 1.183-1.804 2.571-2.199 4.086-.326 1.241-.49 2.459-.739 3.689-.086.466-.352.833-.816.973-1.125.356-1.701-.526-1.967-1.488-.91-3.213.447-7.37 3.092-9.401.734-.564 1.795-1.17 2.71-1.359.442-.088.971-.08 1.31.258.147.149.246.306.285.476z" fill="#aa8165"/><path d="m105.43 23.547c-7.937-14.917-21.212-22.169-41.47-22.409-15.787-.297-33.413 7.702-41.34 22.62-3.831 7.176-5.472 13.35-6.047 21.602-.387 5.443.12 9.925.773 14.031.627 4.045 2.208 8.302 2.208 8.302s4.071-21.908 32.837-29.5c26.927-7.11 32.403-18.068 32.403-18.068s3.99 14.578 8.817 24.797c4.844 10.215 15.04 18.809 15.04 18.809s1.795-4.295 2.336-8.435c1.538-11.907-.146-18.225-3.453-27.074-.61-1.617-1.323-3.178-2.104-4.675z" fill="#878888"/></svg>