<svg viewBox="0 0 128 128" xmlns="http://www.w3.org/2000/svg"><path d="m33.376 59.349c-3.115 14.615-6.209 29.482-4.787 49.772.7 10.072 17.264 18.056 38.225 17.755 20.97-.3 37.075-8.778 37.698-18.854.322-5.139-8.148-8.51-5.854-18.231 5.583-23.553 2.899-41.638-10.838-49.859-20.547-12.279-40.886-6.532-52.072 14.543z" fill="#fbb817"/><path d="m111.656 89.833c-.103-.441-.308-.925-.48-1.4-.253-.477-.542-.933-.938-1.311-.536-.521-1.195-.806-1.906-1.056-1.415-.52-3.453-.125-4.226 1.158-.22.355-.268.781-.521 1.125-.132.19-.407.3-.612.403-1.466.669-2.708-.328-2.36-1.638.249-.938.975-1.891 1.723-2.566.726-.652 1.583-1.304 2.537-1.657 2.43-.901 5.366-.725 7.741.206.208.081.381.205.571.293.029-.036.062-.08.074-.125 2.247-4.281 1.396-9.5-.88-13.591-.788-1.422-2.36-3.16-2.39-4.816-.051-2.807.832-5.563.989-8.371.337-5.85-.931-11.729-3.156-17.212-4.787-11.744-15.493-23.246-29.348-26.141-8.588-1.796-18.389-1.913-26.999-.154-14.456 2.969-26.24 13.884-31.294 26.295-2.236 5.483-3.497 11.362-3.167 17.212.168 2.808 1.048 5.564 1.004 8.371-.037 1.657-1.609 3.394-2.405 4.816-2.265 4.09-3.115 9.31-.879 13.591.029.059.073.118.11.169.22-.103.406-.242.645-.337 2.382-.931 5.314-1.107 7.745-.206.957.353 1.822 1.004 2.533 1.657.751.675 1.478 1.627 1.727 2.566.355 1.31-.898 2.308-2.357 1.638-.208-.103-.477-.212-.619-.403-.246-.345-.297-.77-.509-1.125-.774-1.283-2.823-1.678-4.237-1.158-.711.25-1.356.535-1.906 1.056-.528.51-.905 1.142-1.188 1.78-.146.328-.235.63-.337.931-.843 3.688 1.59 7.388 4.691 9.609 4.376 3.123 12.22 3.836 17.055 1.525 5.458-2.596 8.668-8.135 8.529-13.653-.11-4.729-1.848-9.611-5.274-13.21-.942-1.004-2.188-2.045-2.881-3.174-.399-.66-.135-.909.209-1.488.704-1.173 1.389-2.492 1.891-3.738.74-1.833 1.199-6.964 1.649-8.863.873-3.739 3.761-2.353 7.367-2.668 4.871-.433 9.581-1.855 13.833-4.054 3.68-1.92 7.162-5.234 7.829-5.674 2.09 2.529 5.268 4.831 7.434 6.106 1.133.667 2.229 1.144 3.471 1.679 1.331.572 3.134.872 3.644 2.229.575 1.51.371 6.576.612 8.122.165 1.056.63 2.126 1.041 3.123.505 1.246 1.188 2.565 1.891 3.738.345.579.612.829.205 1.488-.696 1.129-1.928 2.17-2.881 3.174-3.423 3.599-5.161 8.481-5.278 13.21-.132 5.518 3.079 11.058 8.536 13.653 4.842 2.311 12.682 1.598 17.059-1.525 3.096-2.222 5.533-5.922 4.683-9.609z" fill="#2f2f2f"/><path d="m95.305 16.627c-.165-.784-.642-1.437-1.477-1.246-.653.154-1.261.242-1.818.667-.505.403-.901.923-1.389 1.356-1.609 1.437-3.618 2.844-5.754 3.108-1.323.154-2.566-.359-3.379-1.474-.399-.55-.715-1.202-.883-1.869-.26-1.034-.154-2.17-.469-3.211-.242-.762-.564-2.104-1.437-2.265-1.862-.352-3.182 2.111-4.516 3.064-.333.235-.748.396-1.107.594-.887.477-1.898.763-2.899.646-4.058-.484-2.665-6.861-4.146-9.552-.271-.484-.63-.836-1.129-.997-.234-.081-.436-.073-.62-.044-.172-.029-.366-.037-.604.044-.506.161-.861.513-1.129.997-1.488 2.69-.095 9.068-4.149 9.552-2.023.242-3.644-1.012-5.043-2.412-.491-.498-.931-1.063-1.437-1.546-.542-.542-.851-1.071-1.602-1.261-2.547-.667-1.902 4.472-2.217 5.879-.524 2.368-1.972 4.149-4.395 3.856-2.137-.264-4.138-1.671-5.754-3.108-.48-.433-.876-.953-1.385-1.356-.554-.425-1.162-.513-1.822-.667-.835-.191-1.305.462-1.477 1.246-.477 2.177 1.902 5.776 2.76 7.667 1.195 2.639 2.463 5.249 3.834 7.8 1.269 2.346 3.313.609 5.088-.161 1.788-.784 3.562-1.605 5.417-2.206 2.111-.689 4.281-1.232 6.477-1.525 7.092-.953 14.496-.711 21.372 1.525 1.848.601 3.622 1.422 5.417 2.206 1.767.77 3.819 2.507 5.08.161 1.371-2.551 2.646-5.161 3.842-7.8.848-1.891 3.237-5.491 2.75-7.668z" fill="#fbb817"/><g fill="#cc4079"><path d="m35.748 14.479c0 1.312-1.059 2.375-2.372 2.375s-2.376-1.062-2.376-2.375c0-1.305 1.063-2.368 2.375-2.368s2.373 1.064 2.373 2.368z"/><path d="m50.878 8.996c0 1.312-1.063 2.375-2.375 2.375s-2.368-1.063-2.368-2.375 1.056-2.368 2.368-2.368 2.375 1.056 2.375 2.368z"/><path d="m66.375 3.483c0 1.312-1.063 2.375-2.375 2.375s-2.368-1.063-2.368-2.375 1.056-2.368 2.368-2.368 2.375 1.056 2.375 2.368z"/><path d="m82.319 9.172c0 1.312-1.063 2.375-2.375 2.375s-2.368-1.062-2.368-2.375c0-1.304 1.056-2.367 2.368-2.367s2.375 1.063 2.375 2.367z"/><path d="m98.659 14.098c0 1.305-1.063 2.368-2.371 2.368-1.316 0-2.372-1.063-2.372-2.368 0-1.312 1.056-2.375 2.372-2.375 1.308 0 2.371 1.063 2.371 2.375z"/></g><g fill="#2f2f2f"><path d="m56.438 67.497c0 2.815-2.074 5.093-4.625 5.093-2.544 0-4.618-2.278-4.618-5.093s2.074-5.089 4.618-5.089c2.551-.001 4.625 2.273 4.625 5.089z"/><path d="m72.162 67.497c0 2.815 2.067 5.093 4.626 5.093 2.543 0 4.618-2.278 4.618-5.093s-2.074-5.089-4.618-5.089c-2.559-.001-4.626 2.273-4.626 5.089z"/><path d="m80.864 64.696c.278-.103.535-.222.785-.389.425-.271 1.224-1.241 1.781-.763.337.293.271.792.088 1.129-.476.873-1.283 1.518-2.14 1.979-.345.19-.667.484-1.026.623-.484.191-1.026.191-1.54.212-.476.029-.916-.11-1.026-.601-.095-.427.029-1.087.418-1.351.33-.22.813-.284 1.166-.394.504-.159 1.017-.269 1.494-.445z"/><path d="m47.686 64.696c-.271-.103-.535-.222-.785-.389-.418-.271-1.224-1.241-1.774-.763-.337.293-.271.792-.088 1.129.469.873 1.283 1.518 2.141 1.979.345.19.66.484 1.019.623.484.191 1.026.191 1.539.212.484.029.917-.11 1.026-.601.096-.427-.029-1.087-.421-1.351-.326-.22-.803-.284-1.155-.394-.505-.159-1.019-.269-1.502-.445z"/></g><path d="m64.377 82.451c5.337 0 6.891-3.196 6.385-4.09-.931-1.635-2.294.396-6.385.396-4.086 0-5.351-1.774-6.224-.594-.762 1.025.887 4.288 6.224 4.288z" fill="#cc4079"/></svg>