<svg viewBox="0 0 128 128" xmlns="http://www.w3.org/2000/svg"><path d="m116.84 11.17c-7.05-7.06-16.43-10.94-26.41-10.94s-19.35 3.89-26.4 10.94l-27.3 27.3-.11.11-.15.16c-.01.01-.02.02-.03.03l-3.49 3.57c-1.51 1.62-2.04 3.44-2.04 5.17l-20.4 20.4c-6.63 6.6-10.28 15.41-10.28 24.78s3.65 18.18 10.27 24.81 15.44 10.28 24.81 10.28 18.18-3.65 24.81-10.28l20.83-20.83c1.78 0 3.66-.53 5.32-2.13l2.68-2.74c.11-.09.23-.16.33-.27l27.56-27.56c14.57-14.56 14.57-38.25 0-52.8z" fill="#006ca2"/><path d="m16.9 111.11c-4.92-4.92-7.63-11.46-7.63-18.41 0-6.96 2.71-13.49 7.63-18.41l23.94-23.94c2.03.48 10.69 3.09 22.21 14.61 11.56 11.55 14.15 20.22 14.62 22.21l-23.94 23.94c-4.92 4.92-11.46 7.62-18.41 7.62s-13.5-2.7-18.42-7.62z" fill="#fff"/><path d="m102.03 14.27c-.19.01-.38.02-.51.04-1.19.15-2.36.42-3.52.73-.68.19-1.36.37-2.02.6-5.21 1.83-9.9 5.02-13.79 8.91l-21.02 21.02-.93.94c-6.35-3.74-10.26-4.26-10.26-4.26l24.96-24.96c.95-.95 1.97-1.79 3.04-2.58 4.09-3.01 8.99-4.83 14.09-5.21 2.45-.18 4.91-.04 7.33.41 1.28.24 6.38 1.04 6.15 3.12-.14 1.18-2.28 1.18-3.52 1.24z" fill="#fff"/><path d="m63.99 80.12-18.32 18.32c-3.24 3.24-7.16 5.91-11.5 7.43-1.5.53-3.04.91-4.62 1.11-.83.1-3.23-.08-3.36 1.07-.19 1.74 4.06 2.4 5.13 2.6 2.01.37 4.07.49 6.11.34 5.36-.39 10.49-2.69 14.3-6.5 0 0 11.12-11.12 17.12-17.12 0 .02-1.84-4.41-4.86-7.25z" fill="#006ca2"/></svg>