<svg viewBox="0 0 128 128" xmlns="http://www.w3.org/2000/svg" xmlns:xlink="http://www.w3.org/1999/xlink"><defs><path id="a" d="m70.93 84.91c0-3.66-2.96-6.63-6.61-6.63s-6.6 2.97-6.6 6.63v9.34h13.23v-9.34z"/><clipPath id="b"><use xlink:href="#a"/></clipPath></defs><g fill="#d7598b"><path d="m119.74 49.37-.38-.27c-1.35-.95-2.85-1.6-4.44-1.98-1.71-.41-3.21-.24-4.9-.36-.64-.04-1.26-.5-1.5-1.1-.62-1.58-.91-3.07-1.81-4.57-.84-1.41-1.91-2.65-3.22-3.64l-.38-.28c-3.37-2.5-7.26-2.38-11.18-.07-1.67.97-3.26 3.12-4.11 4.8s-1.21 3.49-1.3 5.37c-.27 6.28 3.34 11.93 4.48 17.99.12.65.22 1.32.35 1.97.13.69-.01 1.95.63 2.49.7.46 1.86-.06 2.57-.14.66-.07 1.33-.18 1.98-.26 6.12-.72 12.59 1.03 18.5-1.1 1.78-.63 3.39-1.53 4.74-2.84 1.35-1.32 2.92-3.47 3.35-5.35 1.07-4.44.03-8.18-3.38-10.66z"/><path d="m28.1 36.82c.62.23 1.24.5 1.87.72.66.25 1.67 1.02 2.46.75.76-.37.91-1.63 1.21-2.27.28-.6.53-1.23.8-1.83 2.55-5.61 7.39-10.25 8.62-16.41.37-1.85.44-3.69.02-5.52-.43-1.84-1.46-4.3-2.85-5.64-3.26-3.18-7.01-4.22-10.88-2.58l-.43.19c-1.51.66-2.84 1.61-3.99 2.77-1.24 1.23-1.87 2.6-2.85 4-.37.53-1.09.82-1.72.72-1.68-.29-3.1-.81-4.85-.82-1.63 0-3.25.27-4.79.88l-.43.18c-3.89 1.59-5.79 4.98-5.83 9.53-.03 1.93.99 4.4 1.99 6s2.36 2.85 3.93 3.88c5.24 3.46 11.94 3.3 17.72 5.45z"/><path d="m28.31 71.03c.48.17 1.2.72 1.76.53.54-.27.65-1.17.86-1.63.2-.44.37-.89.57-1.31 1.8-4.03 5.25-7.36 6.11-11.77.26-1.32.3-2.64-.01-3.95s-1.06-3.07-2.05-4.03c-2.35-2.26-5.03-2.99-7.79-1.81l-.31.14c-1.07.47-2.03 1.16-2.85 2-.87.9-1.32 1.88-2.01 2.88-.26.38-.77.59-1.23.52-1.2-.21-2.22-.57-3.48-.57-1.17 0-2.33.21-3.41.64l-.31.13c-2.78 1.16-4.12 3.58-4.14 6.84-.02 1.36.71 3.13 1.44 4.27.72 1.14 1.7 2.03 2.82 2.77 3.76 2.47 8.55 2.32 12.69 3.84.45.16.89.34 1.34.51z"/><path d="m94.99 27.1c.16.44.31.9.48 1.35.18.48.23 1.38.75 1.68.55.24 1.31-.27 1.8-.4.46-.13.91-.29 1.37-.42 4.23-1.25 9-.79 12.92-3.01 1.17-.66 2.19-1.49 2.99-2.57.8-1.09 1.65-2.8 1.73-4.18.2-3.25-.99-5.76-3.68-7.1l-.3-.15c-1.06-.51-2.2-.78-3.37-.86-1.25-.09-2.29.22-3.5.34-.46.04-.95-.2-1.19-.6-.63-1.05-1.01-2.06-1.82-3.01-.77-.89-1.67-1.64-2.71-2.18l-.3-.16c-2.68-1.36-5.4-.81-7.89 1.3-1.06.89-1.92 2.59-2.32 3.88s-.44 2.6-.27 3.94c.56 4.47 3.78 8.02 5.31 12.15z"/></g><path d="m48.53 125.24h-24.3v-35.05l24.3-12.25z" fill="#fff"/><path d="m48.53 128h-24.3c-1.52 0-2.76-1.24-2.76-2.76v-35.05c0-1.04.59-2 1.52-2.47l24.3-12.24c.86-.43 1.88-.39 2.69.12.82.5 1.31 1.39 1.31 2.35v47.3c0 1.51-1.24 2.75-2.76 2.75zm-21.54-5.52h18.78v-40.05l-18.78 9.46z" fill="#855c52"/><path d="m79.87 125.24h24.3v-35.05l-24.3-12.25z" fill="#fff"/><path d="m104.17 128h-24.3c-1.52 0-2.76-1.24-2.76-2.76v-47.3c0-.96.5-1.85 1.31-2.35.8-.5 1.83-.55 2.69-.12l24.3 12.24c.93.47 1.52 1.42 1.52 2.47v35.05c0 1.53-1.24 2.77-2.76 2.77zm-21.54-5.52h18.78v-30.59l-18.78-9.46z" fill="#855c52"/><path d="m48.53 67.04h31.34v58.21h-31.34z" fill="#fff"/><path d="m79.87 128h-31.34c-1.52 0-2.76-1.24-2.76-2.76v-58.2c0-1.52 1.24-2.76 2.76-2.76h31.34c1.52 0 2.76 1.23 2.76 2.76v58.21c0 1.51-1.24 2.75-2.76 2.75zm-28.58-5.52h25.82v-52.69h-25.82z" fill="#855c52"/><use fill="#40c0e7" xlink:href="#a"/><path clip-path="url(#b)" d="m70.95 84.92h-4.99v-6.64c0-.9-.73-1.62-1.62-1.62-.9 0-1.62.73-1.62 1.62v6.64h-4.99c-.9 0-1.63.73-1.63 1.62 0 .9.73 1.62 1.63 1.62h4.99v6.08c0 .9.73 1.62 1.62 1.62.9 0 1.62-.73 1.62-1.62v-6.08h4.99c.89 0 1.62-.73 1.62-1.62s-.73-1.62-1.62-1.62z" fill="#fff"/><g fill="#855c52"><path d="m70.93 111.46c0-3.66-2.96-6.63-6.61-6.63s-6.6 2.97-6.6 6.63v11.12h13.23v-11.12z"/><path d="m79.87 67.04h-31.34l15.67-34.19z"/><path d="m17.37 88.08v5.57l31.16-15.7v-6.3z"/><path d="m17.37 96.41c-.5 0-1.01-.14-1.45-.41-.81-.5-1.31-1.39-1.31-2.35v-5.57c0-1.02.57-1.96 1.48-2.44l31.15-16.44c.86-.45 1.89-.42 2.71.08.83.5 1.34 1.4 1.34 2.36v6.3c0 1.04-.59 2-1.52 2.46l-31.16 15.7c-.39.21-.82.31-1.24.31z"/><path d="m111.04 88.08v5.57l-31.17-15.7v-6.3z"/><path d="m111.04 96.41c-.42 0-.85-.1-1.24-.29l-31.17-15.7c-.93-.47-1.52-1.42-1.52-2.46v-6.3c0-.97.51-1.86 1.34-2.36.82-.5 1.86-.53 2.71-.08l31.17 16.43c.91.48 1.48 1.42 1.48 2.44v5.57c0 .96-.5 1.85-1.32 2.35-.45.26-.95.4-1.45.4z"/><path d="m79.87 67.04h-31.34l15.67-34.19z"/><path d="m79.96 69.79c-.02 0-.05 0-.09 0h-31.34c-.94 0-1.81-.48-2.32-1.27s-.58-1.79-.19-2.64l15.67-34.18c.9-1.96 4.12-1.96 5.02 0l15.41 33.62c.37.47.6 1.07.6 1.71 0 1.53-1.24 2.76-2.76 2.76zm-27.13-5.51h22.74l-11.37-24.81z"/><path d="m60.1.85h8.19v34.4h-8.19z"/><path d="m51.62 8.29h25.17v8.19h-25.17z"/></g><g fill="#b89278"><path d="m55.7 58.02-2.87 6.26h8.24l.01-6.24z"/><path d="m59.51 49.7-2.96 6.25h9.93v-6.24z"/><path d="m63.23 41.38-2.96 6.25h4.58l.01-6.24z"/><path d="m63.44 58.04h7.98v6.24h-7.98z"/></g></svg>