<svg viewBox="0 0 128 128" xmlns="http://www.w3.org/2000/svg"><path d="m112.278 65.236c-.46-.787-1.046-1.532-1.899-2.209-6.653-5.331-18.679-5.59-27.014-4.711-7.222.762-13.406 4.025-18.646 9.005-1.891 1.799-3.456 3.799-5.364 5.615-1.314 1.247-2.645 3.372-4.285 4.192-2.745 1.364-3.213-.243-3.205-2.72.033-5.599.912-10.737 1.598-16.214.352-2.833.77-5.603 1.088-8.423.293-2.649 1.138-3.139 3.741-3.213 4.787-.134 9.666-.59 14.06-2.009 4.376-1.415 9.122-3.347 13.791-3.347 2.552 0 4.511 1.397 6.962 1.606 2.343.201 4.628.083 6.82-.669 2.21-.761 6.52-2.343 7.566-4.686.803-1.8-.302-4.285-.486-5.862-.268-2.331-.511-3.862-1.439-6.038-.837-1.941-1.824-2.996-2.962-4.674-1.113-1.653-1.364-4.055-2.117-5.904-.745-1.85-1.406-3.85-2.41-5.49-1.331-2.176-1.992-3.368-4.46-4.167-1.582-.511-3.104-1.431-4.779-1.615-4.385-.494-8.962.561-12.871 2.033-5.674 2.143-11.716 4.143-16.746 7.616-3.59 2.477-7.029 4.954-10.569 7.632-1.992 1.515-4.176 2.82-5.925 4.569-.234.234-.46.511-.686.795-3.875 1.356-8.544 13.047-10.311 15.867-4.1 6.536-8.619 12.812-11.967 19.792-5.573 11.649-9.39 27.792-4.728 40.391 1.782 4.816 6.402 10.021 11.758 10.603 5.858.641 11.448 1.084 17.172 3.05 3.891 1.339 7.716 2.942 11.774 3.766 4.929 1.004 9.992.653 15.005.653 5.113 0 4.954.561 10.804.766 1.155.042 3.917.31 5.071.226l2.201.08 30.528 1.071v-54.096zm-72.731-36.353 1.322-1.101c-.393.448-.811.859-1.322 1.101z" fill="#fff"/><g fill="#cc4079"><path d="m119.349 78.032v-10.494c-5.222-5.347-13.808-11.716-25.541-12.394-23.716-1.39-34.261 12.988-38.277 19.248l2.301-25.165c12.118 1.85 22.135-1.624 26.412-3.481 2.828 1.908 8.636 3.615 19.473-.896 3.85-1.607 5.339-4.26 5.908-6.201 1.456-4.954-1.473-10.302-2.578-12.084-2.125-8.653-3.975-14.594-6.987-19.164-.678-1.038-7.13-9.984-23.256-4.678-9.624 3.164-20.444 9.29-32.177 18.21-21.416 16.294-32.738 52.421-35.023 63.794-2.334 11.674-.042 17.624 3.206 24.185.929 1.875 5.13 6.586 11.582 8.385 7.423 2.076 47.726 9.256 94.958 9.649v-6.661c-45.935-.394-86.229-7.465-93.167-9.398-4.402-1.23-7.113-4.444-7.406-4.929-2.845-5.766-4.569-10.268-2.636-19.926 2.703-13.49 14.209-45.868 32.52-59.793 11.139-8.477 21.306-14.26 30.228-17.188 6.645-2.193 10.737-1.289 13.063-.084 1.465.552 2.812 1.498 3.699 3.096.469.854.962 2.101 1.397 3.28.611 1.699 1.08 3.264 1.08 3.264 1.08 2.896 2.109 6.728 2.259 7.23.151.486.075.871-.092 1.189-.226.427-.628.736-1.08.929-.795.326-2.151.427-2.82-.536-.661-.962-1.933-4.034-2.192-4.962l-2.427-6.21s-.519-.979-1.364-1.188c-.669-.167-1.757.142-2.143.745-.494.77-.1 1.933-.1 1.933s4.226 10.737 4.427 11.323c.376 1.113-.327 1.774-1.104 2.125-.787.343-2.125.46-2.804-.477-.661-.904-4.711-10.569-5.013-11.281l-.025-.076s-.519-.979-1.364-1.179c-.669-.167-1.766.133-2.143.736-.594.971-.15 1.958-.15 1.958.879 1.95 4.887 10.821 5.08 11.339.41 1.071-.259 1.749-1.013 2.117-.753.36-2.067.527-2.77-.368-.703-.904-5.891-11.222-5.891-11.222s-.611-.92-1.473-1.038c-.678-.101-1.791.293-2.05.954-.31.803.092 1.941.092 1.941s5.197 10.436 5.481 11.005c.519 1.071-.101 1.824-.837 2.268-.737.444-2.067.728-2.879-.125-.644-.687-4.82-7.917-6.527-10.879-3.264 2.51-1.339 5.808-.728 7.757.368 1.155.452 5.105-1.473 6.846-1.297 1.18-2.82 1.448-4.008 1.439-.569-.05-1.146-.134-1.724-.217-.142-.034-.243-.067-.243-.067s.042.034.059.042c-1.138-.159-2.285-.36-3.457-.645-.946-.226-1.933-.025-2.711.536-.787.561-1.289 1.439-1.38 2.402l-3.264 35.658c-.083.895.201 1.774.778 2.46.577.678 1.406 1.105 2.293 1.164.469.042 4.594.243 7.59-2.996.469-.51.887-1.171 1.515-2.176 3.172-5.062 11.624-18.486 32.972-17.273 15.171.879 24.427 13.976 25.924 16.244zm-27.791-42.404c1.046-.787 7.632-3.841 10.151-4.996.603-.284.979-.452.979-.452s1.564 2 1.205 4.603c-.075.519-.284.971-.561 1.381-.619.896-1.59 1.54-2.418 1.891-2.82 1.18-5.247 2.184-5.85 2.335-2.251.578-3.414.008-3.967-1.004-.56-1.013-.836-2.779.461-3.758z"/><path d="m108.471 90.174c-6.746 4.804-16.612 5.816-23.691 5.816-6.62 0-11.708-.871-11.758-.879-.753-.134-1.498.268-1.807.962-.31.703-.101 1.523.501 1.992.385.302 9.657 7.381 21.959 7.381 1.958 0 3.908-.185 5.808-.552 9.339-1.791 11.683-9.541 11.615-13.39-.008-.619-.359-1.18-.912-1.457-.552-.283-1.213-.232-1.715.127z"/></g></svg>