<svg viewBox="0 0 128 128" xmlns="http://www.w3.org/2000/svg"><path d="m123.85 31.44h-119.7c-1.82 0-3.29 1.47-3.29 3.29v58.54c0 1.81 1.47 3.29 3.29 3.29h119.69c1.81 0 3.29-1.47 3.29-3.29v-58.54c0-1.82-1.47-3.29-3.28-3.29z" fill="#bdcf46"/><path d="m25.31 61.17h-7.09c-.38 0-.68.31-.68.69v4.7c0 .38.31.69.68.69h10.86v2.98h-10.85c-.38 0-.68.31-.68.69v4.7c0 .39.31.69.68.69h10.86v7.98c0 .48.39.86.86.86h8.5c.47 0 .86-.39.86-.86v-7.98h10.78c.39 0 .7-.31.7-.69v-4.7c0-.38-.31-.69-.7-.69h-10.78v-2.98h10.78c.39 0 .7-.31.7-.69v-4.7c0-.38-.31-.69-.7-.69h-7.01l9.34-14.9c.17-.27.18-.61.03-.89s-.44-.45-.77-.45h-7.98c-.29 0-.57.15-.73.4l-8.77 13.46-8.76-13.46c-.16-.25-.44-.4-.74-.4h-7.99c-.32 0-.61.18-.77.45-.15.28-.15.62.03.89z" fill="#fff"/></svg>