<svg viewBox="0 0 128 128" xmlns="http://www.w3.org/2000/svg"><path d="m123.58 6.12c-1.22-1.75-3.62-2.17-5.37-.96l-22.04 15.38c-.66.46-1.16 1.13-1.43 1.9l-10.11 29.04-17.33-31.43c-.74-1.35-2.25-2.11-3.73-1.98-1.53.14-2.83 1.18-3.32 2.63l-24.38 73.97-11.9-9.96c-1.55-1.29-3.82-1.18-5.24.26l-15.88 16.2v9.46c.97-.03 1.93-.4 2.66-1.15l16.24-16.57 13.53 11.31c.98.82 2.31 1.1 3.54.75s2.2-1.29 2.6-2.5l23.4-70.96 17.23 31.26c.74 1.33 2.17 2.12 3.71 1.99 1.52-.13 2.82-1.14 3.31-2.58l12.54-36.03 21.02-14.67c1.75-1.21 2.18-3.62.95-5.36z" fill="#006ca2"/><path d="m122.62 128h-119.86c-1.52 0-2.76-1.23-2.76-2.76v-119.06c0-1.52 1.24-2.76 2.76-2.76s2.76 1.23 2.76 2.76v116.31h117.11c1.52 0 2.76 1.23 2.76 2.75-.01 1.53-1.24 2.76-2.77 2.76z" fill="#2f2f2f"/><path clip-rule="evenodd" d="m35.22 29.15c.27 0 .54 0 .82.01 1 .02 1.99.03 3 .05 1.25.02 2.48 0 3.69-.19.52-.08.96-.22 1.27-.45 1.34-.99 1.46-3.02.46-4.21-.57-.69-1.92-.82-2.82-.99-.71-.13-1.47-.04-2.2-.11-.13-.01-.26-.01-.4-.02 1.28-1.82 2.84-4 3.52-5.3.63-1.22 1.35-2.39 1.96-3.62.59-1.22 1.49-2.78.9-4.17-.21-.48-.62-.9-1.31-1.19-.78-.33-1.61-.45-2.45-.54-1.62-.17-3.46-.48-4.68.85-1.11 1.2-1.67 2.79-2.54 4.16-1.27 2.01-2.32 4.15-3.66 6.13-1.38 2.04-2.37 1.58-3.39-.34-1.09-2.06-2.1-4.13-3.33-6.12-.79-1.27-1.3-2.7-2.32-3.82-1.23-1.33-3.06-1.02-4.68-.85-.84.09-1.67.21-2.45.54-.7.29-1.11.71-1.31 1.19-.58 1.38.3 2.95.9 4.17.6 1.23 2.96 4.32 3.59 5.53.61 1.18 1.25 2.33 1.91 3.47-.08 0-.16 0-.24 0-2.27.02-5.35-.63-5.68 2.44-.07.64-.1 1.49.15 2.07.42.96 1.3 1.16 2.36 1.22 1.08.06 2.15.07 3.23.05 1.25-.02 2.49-.01 3.72-.02.34.7.61 1.43.7 2.21 0 .03.01.06.02.09-1.49.03-2.99.05-4.51.07-2.27.02-5.35-.63-5.68 2.44-.07.63-.1 1.49.15 2.07.42.96 1.3 1.17 2.36 1.22 1.08.06 2.15.06 3.23.05 1.52-.02 3.04-.01 4.56-.02 0 2.75.02 6.98.1 8.22.12 1.61.5 2.97 2.3 3.61.77.28 1.8.33 2.76.3.96.03 2-.03 2.77-.3 1.8-.64 2.18-2 2.29-3.61.09-1.22.11-5.42.11-8.17.54.01 1.08.01 1.63.02 1 .02 1.99.03 3 .05 1.25.02 2.48 0 3.69-.19.52-.08.96-.22 1.27-.45 1.34-.99 1.46-3.02.46-4.21-.57-.69-1.92-.82-2.82-.99-.71-.13-1.47-.04-2.2-.1-.82-.08-1.63-.05-2.45-.05-.72 0-1.44.01-2.15.04-.1 0-.2 0-.3 0 0-.02 0-.05.01-.07.09-.75.35-1.47.68-2.17z" fill="#ed6c30" fill-rule="evenodd"/></svg>