<svg viewBox="0 0 128 128" xmlns="http://www.w3.org/2000/svg" xmlns:xlink="http://www.w3.org/1999/xlink"><defs><path id="a" d="m73.79 42.33s5.7 18.94.27 20.85l19.1 1.14s5.36-1.95-1.66-20.97z"/><clipPath id="b"><use xlink:href="#a"/></clipPath><clipPath id="c"><use xlink:href="#d"/></clipPath><path id="d" d="m60.53 78.48s-2 27.28-2.4 28.47-4 2.54-4.8 1.19c-.8-1.36-.8-29.48-.8-29.48zm32-1.74s5.33.48 7.33 11.27c1.64 8.85 4.13 24.93 4.53 27 .4 2.06 4 .63 4.67-.8s-2.53-26.2-3.2-31.6c-.66-5.4-2-11.12-5.86-12.7zm-20.13 4.76s2.93.4 3.6 10 2.94 35.2 2.94 35.2 1.2 1.33 3.07.53 3.47-1.6 3.33-3.2c-.13-1.6-.4-31.74-.53-35.6-.14-3.87.53-7.47-2.8-9.73zm-44.96-9.29s-3.27 4.61-4.27 10.8c-.53 3.23-2.18 12.03-3.65 19.73-.86 4.52-2.21 12.48-2.14 13.25.22 2.32 6.28-.57 6.84-1.69.94-1.86 1.15-4.33 1.77-6.53 1-3.51 6.24-30.02 12.8-33.74z"/></defs><use fill="#ed6c30" xlink:href="#a"/><path clip-path="url(#b)" d="m64.4 4.41c-2.25.15-4.96.96-7.39 3.38-5.38 5.38-12.36 20.53-10.96 29.49s13.35 11.56 30.7 13.63c11.52 1.38 29.29 1.91 32.07-12.23 3.3-16.75 4.78-31.68-10.77-32.1-2.4-.06-10.29.31-16.73-.17-7.64-.58-15.44-2.1-16.92-2z" fill="#855c52"/><use fill="#ed6c30" xlink:href="#d"/><path clip-path="url(#c)" d="m23.31 65.83c3.85-1.71 16.19-4.29 24.99-4.23 8.22.06 14.26 2.56 16.53 3.29 4.88 1.55 8.43 2.38 16.35 2.27 11.61-.16 24.35-4.08 26.93.46 1.3 2.27 1.17 4.32.23 6.03-.95 1.72-13.61 17.29-49.07 12.81-14.24-1.8-29.72-5.86-35.8-10.69-4.27-3.37-2.74-8.8-.16-9.94z" fill="#855c52"/><path d="m64.05.51c-2.25.15-4.96.96-7.39 3.38-5.38 5.38-12.35 20.53-10.96 29.49s13.35 11.56 30.7 13.63c11.52 1.38 29.29 1.92 32.07-12.23 3.3-16.76 4.78-31.68-10.77-32.11-2.4-.06-10.29.31-16.73-.17-7.63-.57-15.44-2.09-16.92-1.99z" fill="#ed6c30"/><path d="m22.64 61.1c3.85-1.71 16.19-4.29 24.99-4.23 8.22.06 14.26 2.56 16.53 3.29 4.88 1.55 8.43 2.38 16.36 2.27 11.61-.16 24.34-4.08 26.92.46 1.3 2.27 1.17 4.32.23 6.03-.95 1.72-13.61 17.29-49.08 12.81-14.24-1.8-29.72-5.86-35.81-10.69-4.24-3.38-2.72-8.8-.14-9.94z" fill="#ed6c30"/><g fill="#f79329"><path d="m101.59 16.56c0 4.01-.63 10.77-2.48 17.48-1.58 5.76-3.95 7.82-9.16 7.65s-12.45-2.02-7.4-9.25c3.78-5.43 8.25-9.16 11.31-13.22 2.07-2.75 4.02-5.53 5.38-6.63.88-.71 1.43-.62 1.77-.11.58.84.58 2.82.58 4.08z"/><path d="m54.03 73.43s13.3 3.48 23.7 1.84 17.66-6.12 18.5-7.61c.85-1.49-1.57-1.42-5.56-.24s-14.88 3.5-18.38 3.74c-2.4.16-14.95.02-18.63-.27-3.49-.28-2.13 1.97.37 2.54z"/></g></svg>