<svg viewBox="0 0 128 128" xmlns="http://www.w3.org/2000/svg" xmlns:xlink="http://www.w3.org/1999/xlink"><defs><path id="a" d="m12.47 63.07c-2.4 0-4.35-1.96-4.35-4.36v-40.59c0-2.4 1.95-4.36 4.35-4.36h79.36c2.39 0 4.35 1.96 4.35 4.36v40.59c0 2.4-1.96 4.36-4.35 4.36z"/><clipPath id="b"><use xlink:href="#a"/></clipPath></defs><g fill="#78a3ad"><path d="m125.52 109.7c-2.86-4.07-9.18-6.24-14.01-6.11-1.97.05-3.78.58-5.15 1.77-1.58-.34-3-.97-3.56-2.19-.45-.95-.13-2.08.45-3.81.59-1.75 1.26-3.74.57-5.86-.87-2.66-3.75-5.85-12.8-5.7-.98.01-1.78.82-1.76 1.81.01.98.81 1.77 1.78 1.77h.03c5.25-.08 8.66 1.12 9.35 3.23.32.99-.09 2.2-.56 3.6-.63 1.85-1.4 4.15-.3 6.48.99 2.1 2.87 3.21 4.91 3.84-.74 4.12 4.04 8.41 7.21 10.28 3.42 2.01 8.1 3.27 11.88 1.75 4.86-1.93 4.55-7.15 1.96-10.86z"/><path d="m90.93 97.13h-76.67c-1.07 0-2.12.85-2.33 1.9l-4.4 21.55c-.21 1.04.48 1.9 1.55 1.9h87.03c1.06 0 1.76-.85 1.55-1.9l-4.4-21.55c-.22-1.05-1.26-1.9-2.33-1.9z"/><path d="m46.21 84.49h-14.97c-2.29 0-4.16 1.74-4.16 3.88v3.74h19.13 11.89 19.13v-3.74c0-2.13-1.88-3.88-4.17-3.88h-14.96v-6.69h39.86c3.13 0 5.7-2.57 5.7-5.71v-60.85c0-3.14-2.57-5.71-5.7-5.71h-91.61c-3.14 0-5.71 2.57-5.71 5.71v60.86c0 3.14 2.57 5.71 5.71 5.71h39.86z"/></g><use fill="#006ca2" xlink:href="#a"/><g fill="#fff"><path clip-path="url(#b)" d="m50.73 11.35-17.88 56.76-27.63-.28v-55.91z"/><path d="m18.67 102.69h68.42c1.07 0 1.94.87 1.94 1.94s-.87 1.94-1.94 1.94h-68.42c-1.06 0-1.94-.87-1.94-1.94 0-1.08.88-1.94 1.94-1.94z"/><path d="m88.95 115.92h-72.13c-1.07 0-1.94-.87-1.94-1.94s.87-1.94 1.94-1.94h72.14c1.06 0 1.93.87 1.93 1.94s-.87 1.94-1.94 1.94z"/></g><path d="m91.64 18.3v40.22h-78.98v-40.22zm.2-4.54h-79.37c-2.4 0-4.35 1.96-4.35 4.36v40.59c0 2.4 1.95 4.36 4.35 4.36h79.36c2.39 0 4.35-1.96 4.35-4.36v-40.59c0-2.4-1.96-4.36-4.34-4.36z" fill="#006ca2"/></svg>