<svg viewBox="0 0 128 128" xmlns="http://www.w3.org/2000/svg"><path d="m3.95 26.99h120.1v84.65h-120.1z" fill="#fff"/><path d="m124.05 114.84h-120.1c-1.77 0-3.2-1.43-3.2-3.2v-84.65c0-1.77 1.43-3.2 3.2-3.2h120.1c1.77 0 3.2 1.43 3.2 3.2v84.65c0 1.77-1.43 3.2-3.2 3.2zm-116.9-6.4h113.7v-78.25h-113.7z" fill="#2f2f2f"/><path d="m99.07 111.64v-16.63s8.98-.14 14.53-1.62c5.34-1.42 10.44-6.65 10.44-6.65s-3.11 8.27-11.3 16.18c-5.77 5.57-13.67 8.72-13.67 8.72z" fill="#78a3ad"/><path d="m99.07 114.84c-.63 0-1.26-.19-1.8-.55-.88-.59-1.4-1.59-1.4-2.65v-16.63c0-1.75 1.4-3.17 3.15-3.2.09 0 8.65-.15 13.76-1.51 3.69-.98 7.73-4.51 8.98-5.79 1.06-1.09 2.73-1.27 4.01-.47 1.28.81 1.81 2.41 1.28 3.83-.14.36-3.46 9.04-12.08 17.35-6.16 5.94-14.37 9.25-14.71 9.39-.38.15-.79.23-1.19.23zm3.2-16.74v8.43c2.5-1.38 5.64-3.38 8.25-5.9 1.42-1.37 2.68-2.76 3.79-4.1-3.77.98-8.82 1.39-12.04 1.57z" fill="#2f2f2f"/><path d="m90.51 30.19c-.02 0-.05 0-.08 0h-52.85c-1.4 0-2.63-.9-3.05-2.23s.07-2.78 1.21-3.58l26.42-18.63c1.1-.78 2.58-.78 3.68 0l26.03 18.34c1.09.51 1.84 1.62 1.84 2.9 0 1.77-1.43 3.2-3.2 3.2zm-42.84-6.4h32.66l-16.33-11.51z" fill="#2f2f2f"/><path d="m17.6 50.9h8.8v3.29h-8.8z" fill="#ed6c30"/><g fill="#2f2f2f"><path d="m31.6 50.9h8.8v3.29h-8.8z"/><path d="m45.6 50.9h8.8v3.29h-8.8z"/><path d="m59.6 50.9h8.8v3.29h-8.8z"/><path d="m65.16 37.02v1.23h-2.32v-1.23h-3.24v8.56h3.24v-1.14h2.32v1.14h3.24v-8.56z"/><path d="m73.6 50.9h8.8v3.29h-8.8z"/><path d="m87.61 50.9h8.8v3.29h-8.8z"/></g><path d="m101.61 50.9h8.8v3.29h-8.8z" fill="#006ca2"/><path d="m75.8 61.62h4.4v4.27h-4.4z" fill="#2f2f2f"/><path d="m89.81 61.62h4.4v4.27h-4.4z" fill="#2f2f2f"/><path d="m103.81 61.62h4.4v4.27h-4.4z" fill="#006ca2"/><path d="m19.8 72.22h4.4v4.27h-4.4z" fill="#ed6c30"/><g fill="#2f2f2f"><path d="m33.8 72.22h4.4v4.27h-4.4z"/><path d="m47.8 72.22h4.4v4.27h-4.4z"/><path d="m61.8 72.22h4.4v4.27h-4.4z"/><path d="m75.8 72.22h4.4v4.27h-4.4z"/><path d="m89.81 72.22h4.4v4.27h-4.4z"/></g><path d="m103.81 72.22h4.4v4.27h-4.4z" fill="#006ca2"/><path d="m19.8 82.82h4.4v4.27h-4.4z" fill="#ed6c30"/><g fill="#2f2f2f"><path d="m33.8 82.82h4.4v4.27h-4.4z"/><path d="m47.8 82.82h4.4v4.27h-4.4z"/><path d="m61.8 82.82h4.4v4.27h-4.4z"/><path d="m75.8 82.82h4.4v4.27h-4.4z"/><path d="m89.81 82.82h4.4v4.27h-4.4z"/></g><path d="m103.81 82.82h4.4v4.27h-4.4z" fill="#006ca2"/><path d="m19.8 93.42h4.4v4.27h-4.4z" fill="#ed6c30"/><g fill="#2f2f2f"><path d="m33.8 93.42h4.4v4.27h-4.4z"/><path d="m47.8 93.42h4.4v4.27h-4.4z"/><path d="m61.8 93.42h4.4v4.27h-4.4z"/></g></svg>