<svg viewBox="0 0 128 128" xmlns="http://www.w3.org/2000/svg"><path d="m121.08 114.88-22.86-19.14-12.13-26.1c-.61-1.32-1.92-2.19-3.38-2.23-.04 0-.08 0-.12 0-1.41 0-2.72.78-3.39 2.03l-12.22 22.7-28.56-72.83c-.45-1.13-1.39-1.98-2.56-2.31-1.17-.32-2.42-.08-3.38.66l-10.65 8.17-16.26-16.17c-.75-.75-1.73-1.13-2.72-1.13v9.3l15.92 15.85c1.37 1.37 3.54 1.5 5.07.33l9.27-7.11 29.73 75.81c.55 1.4 1.86 2.35 3.36 2.44 1.59.1 2.92-.7 3.63-2.02l12.52-23.26 9.25 19.9c.24.51.59.97 1.02 1.33l23.52 19.69c.72.6 1.6.9 2.48.9 1.1 0 2.19-.47 2.96-1.38 1.35-1.62 1.14-4.06-.5-5.43z" fill="#006ca2"/><path d="m122.63 128h-119.87c-1.52 0-2.76-1.23-2.76-2.76v-119.06c0-1.52 1.24-2.76 2.76-2.76s2.75 1.23 2.75 2.76v116.31h117.12c1.52 0 2.76 1.23 2.76 2.76 0 1.52-1.24 2.75-2.76 2.75z" fill="#2f2f2f"/></svg>