<svg viewBox="0 0 128 128" xmlns="http://www.w3.org/2000/svg"><path d="m107.83 22.03s.49 14.81 1.28 20.85 2.85 9.72 2.85 9.72c.41 3.71-1.09 7.34-1.09 7.34s-22.41 54.29-26.51 60.6c-1.09 1.67-2.83 3.27-4.79 3.52-3.67.46-12.17-1.84-16.83-3.13-16.78-4.63-38.27-11.5-44.94-13.82-3.38-1.17-6.84-4.13-8.13-5.94-5.86-8.17-3.07-18.53-3.07-18.53z" fill="#fff"/><path d="m78.53 127.59c-4.1 0-10.41-1.57-16.71-3.31-16.56-4.57-38.19-11.47-45.15-13.88-4.02-1.4-8.06-4.75-9.81-7.19-6.74-9.39-3.73-20.97-3.59-21.45.5-1.85 2.4-2.95 4.25-2.45s2.95 2.4 2.45 4.25c-.05.17-2.23 8.97 2.53 15.61.97 1.36 3.9 3.8 6.45 4.68 6.88 2.39 28.31 9.22 44.72 13.75 3.07.84 12.36 3.41 15.48 3.03.55-.07 1.53-.77 2.32-1.97 2.88-4.43 17.25-38.32 26.2-60.03.01-.02 1-2.51.9-5.06-.71-1.49-2.22-5.13-2.88-10.22-.81-6.14-1.29-20.58-1.3-21.19-.06-1.92 1.44-3.52 3.35-3.58 1.94-.13 3.52 1.44 3.58 3.35.01.15.5 14.71 1.25 20.52.68 5.21 2.43 8.46 2.44 8.49.22.4.37.85.42 1.3.5 4.46-1.14 8.59-1.33 9.05-2.3 5.59-22.65 54.78-26.81 61.17-1.87 2.88-4.52 4.72-7.26 5.07-.47.03-.97.06-1.5.06z" fill="#2f2f2f"/><path d="m79.58 126.38c-.75 0-1.47-.36-1.93-1.02-7.63-11.29-3.91-28.39-3.75-29.11.28-1.25 1.53-2.03 2.77-1.75 1.25.28 2.03 1.51 1.75 2.76-.04.16-3.44 15.88 3.07 25.51.71 1.06.43 2.5-.62 3.21-.4.27-.85.4-1.29.4z" fill="#2f2f2f"/><path d="m101.95 58.65-4.33 9.81s12.41 3.09 24.21 8.4l3.69-10.42c.01 0-6.59-4.74-23.57-7.79z" fill="#fcc21b"/><path d="m102.81 12.87c-5.71-2.1-25.48-8.71-40.92-11.37l-.82-.14c-2.39-.42-5.37-.95-8.64-.95-2.38 0-4.52.27-6.53.84-2.41.67-5.67 2.04-7.49 4.76-11.35 16.87-34.06 72.96-35.02 75.34-.32.78-.32 1.63-.07 2.38.04.04.04.08.08.12 1.7 1.53 4.14.47 6.02-.01.58-.15 1.19-.25 1.8-.31.36-.09.75-.15 1.21-.15 1.31 0 2.91.36 4.59.73.64.14 1.29.29 1.94.42 1.2.24 6.89 2.18 11.9 3.89 3.53 1.2 7.22 2.46 10.26 3.45l1.36.44c9.62 3.13 17.92 5.83 20.23 6.47 5.04 1.4 8.37 2.02 10.79 2.02.86 0 1.61-.08 2.29-.24 4.16-1 6.43-4.51 7.78-7.06.26-.49 2.84-6.65 17.58-42.2 4.18-10.06 7.52-18.13 7.79-18.75.66-1.52 1.46-3.62 1.97-5.82.78-3.34 1.26-5.62.25-8.01-1.24-2.88-4.34-4.36-8.35-5.85z" fill="#ed6c30"/></svg>