<svg viewBox="0 0 128 128" xmlns="http://www.w3.org/2000/svg" xmlns:xlink="http://www.w3.org/1999/xlink"><defs><path id="a" d="m100.125 23.741c20.464 21.007 28.285 52.831 9.274 72.278-19.003 19.448-53.433 16.613-76.922-6.332-23.463-22.94-27.095-57.304-8.08-76.751 19.003-19.448 54.898-10.561 75.728 10.805z"/><clipPath id="b"><use xlink:href="#a"/></clipPath><clipPath id="c"><use xlink:href="#d"/></clipPath><path id="d" d="m98.956 26.264c0 2.845-2.312 5.152-5.148 5.152-2.849 0-5.148-2.307-5.148-5.152 0-2.84 2.299-5.148 5.148-5.148 2.836 0 5.148 2.307 5.148 5.148z"/></defs><path d="m70.903 41.476c-11.5-4.031-37.679 34.458-37.679 34.458s-11.465 23.086-12.217 24.615c-1.13 2.271-2.316 5.686-1.293 8.642 4.194 12.153 21.573 16.392 37.112 15.949 15.539-.447 27.15-5.707 28.542-10.111 1.392-4.402-1.917-13.771-1.917-13.771l-1.899-6.792s.859-48.959-10.649-52.99z" fill="#66949e"/><path d="m43.426 83.555-10.64 35.088-12.213-12.617 14.98-29.171z" fill="#fff"/><path d="m69.245 46.68c3.729 4.269 6.729 26.613 6.368 48.112-.013.688.078 1.375.267 2.035l1.977 7.06c.035.151.086.299.133.445 1.177 3.344 2.045 7.658 1.964 9.4-1.874 1.691-9.772 5.595-23.171 5.976-.679.021-1.366.03-2.062.03-11.775 0-26.583-3.101-29.591-11.824-.104-.323.034-1.612.988-3.537.722-1.463 10.863-21.875 12.483-25.137 11.193-16.376 25.4-31.417 30.644-32.56m.498-7.161c-12.711 0-37.283 36.129-37.283 36.129s-11.913 23.998-12.707 25.59c-1.182 2.359-2.402 5.909-1.345 8.983 4.16 12.045 20.773 16.614 36.312 16.614.765 0 1.521-.013 2.277-.033 16.153-.462 28.225-5.932 29.668-10.511 1.444-4.577-1.977-14.317-1.977-14.317l-1.985-7.062s.885-50.896-11.078-55.087c-.593-.205-1.221-.306-1.882-.306z" fill="#2f2f2f"/><path d="m110.653 97.197c-24.873 25.451-60.343 25.339-84.502 1.73-24.159-23.608-27.846-61.774-2.965-87.227z" fill="#2f2f2f"/><use fill="#fff" xlink:href="#a"/><g clip-path="url(#b)"><path d="m36.817 89.335s-9.188-11.063-9.85-30.089c-1.091-31.203 16.717-50.562 34.619-53.02l-11.714-7.309s-23.541-1.738-28.796 9.856c-22.05 48.658.975 65.065 11.968 81.21z" fill="#66949e"/></g><g fill="#2f2f2f"><path d="m97.792 26.041c18.379 18.863 27.979 49.083 9.553 67.929-7.499 7.677-18.131 11.904-29.939 11.904-15.096 0-30.657-6.741-42.676-18.496-21.186-20.7-25.754-51.203-10.752-69.623 2.51-3.088 6.708-6.072 8.887-7.287 14.302-7.982 30.386-4.819 41.955-.206 9.624 3.836 16.255 8.821 22.972 15.779zm-78.225-10.125c-15.371 20.47-10.605 52.736 11.926 74.766 13.386 13.077 30.218 19.804 45.912 19.804 12.638 0 24.525-4.366 33.248-13.29 19.557-20.014 11.508-52.76-9.548-74.375-8.423-8.524-15.023-12.11-23.184-16.006-6.081-2.908-18.173-7.078-32.183-5.167-5.914.808-10.894 2.196-15.806 5.093-1.319.771-4.297 2.709-6.747 4.959-1.718 1.582-3.162 3.61-3.618 4.216z"/><path d="m90.881 28.717-19.17 41.147.83 3.028 3.562-.437 18.194-42.552z"/><path d="m72.541 73.992c-.49 0-.929-.327-1.062-.81l-.83-3.027c-.068-.251-.047-.518.064-.754l19.17-41.146c.236-.514.812-.756 1.358-.576l3.42 1.186c.288.101.52.316.645.595s.125.597.004.876l-18.198 42.551c-.154.361-.485.613-.876.66l-3.562.436c-.044.007-.091.009-.133.009zm.339-4.029.468 1.721 1.994-.243 17.485-40.885-1.375-.475z"/><path d="m89.592 28.396-44.967 45.577.847 3.755 3.82-.473 43.338-45.622z"/><path d="m45.472 78.829c-.507 0-.962-.351-1.074-.857l-.847-3.756c-.082-.368.03-.748.296-1.017l44.958-45.577c.215-.213.546-.251.799-.326.301.004.584.128.791.348l3.034 3.238c.404.425.4 1.087 0 1.51l-43.342 45.622c-.172.185-.408.303-.662.333l-3.824.473c-.039.006-.086.009-.129.009zm.357-4.513.494 2.198 2.441-.303 42.354-44.583-1.547-1.648z"/><path d="m90.92 25.381-41.916 21.853.627 3.896 3.627-.264 40.408-21.59z"/><path d="m49.631 52.23c-.533 0-.993-.389-1.083-.924l-.631-3.896c-.073-.468.159-.933.58-1.152l41.916-21.854c.481-.255 1.091-.107 1.401.342l2.75 3.895c.181.258.245.58.172.888-.073.307-.275.567-.55.718l-40.408 21.59c-.137.071-.288.114-.438.127l-3.622.264c-.031.002-.056.002-.087.002zm.585-4.387.344 2.116 2.381-.174 39.11-20.894-1.474-2.09z"/><path d="m103.777 26.264c0 5.505-4.469 9.965-9.97 9.965-5.509 0-9.957-4.46-9.957-9.965 0-5.502 4.447-9.963 9.957-9.963 5.501-.001 9.97 4.46 9.97 9.963z"/></g><use fill="#66949e" xlink:href="#d"/><g clip-path="url(#c)"><path d="m95.651 24.122c0 1.992-1.603 3.605-3.605 3.605-1.994 0-3.593-1.614-3.593-3.605 0-1.99 1.599-3.601 3.593-3.601 2.002 0 3.605 1.611 3.605 3.601z" fill="#fff"/></g></svg>