<svg viewBox="0 0 128 128" xmlns="http://www.w3.org/2000/svg"><path d="m92.4 33.99c3.68-.42 13.15-.87 14.86-.61 1.39.21 3.03.76 4.82 2.09 1.65 1.23 3.86 2.8 5.58 4.07 2.04 1.51 4.04 3.2 5.91 4.98.42.4.83.81 1.24 1.22 1.31 1.32 1.47 4.11 1.6 6.54.33 6.81-.08 26.91-.08 37.42 0 4.21-5 4.07-5.78 4.11-5.7.23-13.84.01-16.96.08-2.54.05-5.08-2.17-5.08-2.17l-11.67-8.64-.04-44.35c.01-.02-.37-4.48 5.6-4.74z" fill="#fff"/><path d="m124.31 47.92-21.47.37v42.93l20.74 1.45z" fill="#78a3ad"/><path d="m86.01 37.71.03 46.14 12.15 8.99s2.64 2.31 5.28 2.26c3.24-.07 11.71.15 17.65-.08.81-.03 6 .11 6-4.27 0-10.94.43-31.84.09-38.93-.12-2.52-.3-5.43-1.66-6.8-.42-.42-.85-.85-1.29-1.27-1.94-1.85-4.03-3.61-6.15-5.18-1.79-1.32-4.09-2.96-5.81-4.24-1.85-1.38-3.57-1.95-5.01-2.17-1.78-.26-11.63.2-15.46.64-6.22.27-5.82 4.91-5.82 4.91zm19.78 47.38c0-2.3 0-4.6 0-6.89 0-7.85-.06-24.98-.04-25.7.01-.45.1-1.04.44-1.36.38-.37 12.14-.67 14.12-.21 1.62.37 1.46 3.06 1.48 4.13.15 7.55.32 15.1.11 22.65-.04 1.34-.06 2.68-.09 4.02-.03 1.12-.01 2.25-.05 3.37-.04.99.04 2.28-.53 3.14-.39.58-.94.61-1.58.7-2.35.33-4.69.35-7.06.35-1.85 0-4.36.3-6.08-.54-.1-.05-.18-.11-.26-.18-.85-.74-.46-2.53-.46-3.48zm-1.22-40.62c-.46-.16-6.3-4.39-8.97-6.74-.83-.73.27-1.08.93-1.16 2.45-.33 8.65-.34 9.23-.34 1.07 0 2.16.18 3.13.91.92.69 10.56 7.16 8.89 7.65-.38.11-11.34.15-11.8.06-.48-.1-1-.24-1.41-.38z" fill="#2f2f2f"/><path d="m102.81 64.48v-12.12c0-2.19-1.62-4.04-3.8-4.33-.19-.03-15.95-2.18-29.42-8.44-3.06-1.42-16.34-10.53-19.3-12.77-7.15-5.4-10.4-8.23-10.45-8.25-4.27-1.26-6.64-1.86-6.64.07l-8.43 85c0 1.85 10.96 8.79 15.66 5.27 7.02-5.26 13.81-10.41 20.57-15.32 13.23-9.6 37.93-12.36 38.18-12.39 2.22-.24 3.9-2.11 3.9-4.34v-10.94c0-.51-.1-.99-.27-1.44z" fill="#2f2f2f"/><path d="m98.44 65.92v-13.56s-24.83-3.29-40.01-14.14c-15.18-10.86-20.87-19.57-20.87-19.57v89.67s6.14-7.58 20.87-18.26c14.36-10.42 40.28-13.19 40.28-13.19v-10.95z" fill="#ed6c30"/><path d="m49.25 38.48s7.53 8.1 24.6 12.9c13.65 3.84 24.18 4.44 24.18 4.44l.63 5.25s-32.5.59-47.32-6.89z" fill="#fff"/><path d="m91.76 50.56s5.56 4.06 5.56 13.98c0 10.07-6.94 14.43-6.94 14.43l3.69 3.78 6.86-6.89-1.06-24.44-5.78-5.21z" fill="#2f2f2f"/><path d="m3.55 64c0 26.21 10.91 47.47 24.37 47.47 13.45 0 24.37-21.26 24.37-47.47 0-26.23-10.92-47.48-24.37-47.48-13.47.01-24.37 21.25-24.37 47.48z" fill="#ed6c30"/><g fill="#2f2f2f"><path d="m.66 64c0 27.61 12.36 50 27.62 50s27.63-22.38 27.63-50-12.37-50-27.63-50-27.62 22.38-27.62 50zm5.12 0c0-23.82 9.36-43.12 20.9-43.12 11.55 0 20.91 19.3 20.91 43.12 0 23.81-9.37 43.11-20.91 43.11s-20.9-19.3-20.9-43.11z"/><path d="m15.77 62.62c0 5.7 2.69 10.33 6.02 10.33 3.32 0 6.02-4.62 6.02-10.33 0-5.7-2.7-10.32-6.02-10.32s-6.02 4.62-6.02 10.32z"/><path d="m21.79 52.3 30.5-3.55 1.32 5.94-27.82 1.7z"/><path d="m39.03 52.28s-3.29-10.98-10.48-17.71c-4.88-4.57-12.7-6.96-15.02-4.08l-.98-3.18s8.54-12.5 19.73-8.64c11.19 3.87 19.73 29.79 19.73 29.79z"/><path d="m21.05 72.87 30.96 10.75 2.8-5.1-32.01-9.82z"/><path d="m50.96 92.56s-.52 3.46 3.48.48l.9 2.96-9.26 6.24-1.65-2.97 3.14-6.68z"/></g></svg>