<svg viewBox="0 0 128 128" xmlns="http://www.w3.org/2000/svg" xmlns:xlink="http://www.w3.org/1999/xlink"><linearGradient id="a" gradientUnits="userSpaceOnUse" x1="63.9995" x2="63.9995" y1="104.7666" y2="22.7144"><stop offset="0" stop-color="#fff"/><stop offset="1" stop-color="#00a0d6"/></linearGradient><path d="m88.46 6.33c-4.24-1.9-16.61-3.11-24.46-3.11-7.84 0-20.23 1.21-24.46 3.11-4.15 1.86-5.82 5.54-5.82 8.99v97.35c0 3.46 1.67 7.13 5.82 8.99 4.23 1.9 16.62 3.11 24.46 3.11 7.85 0 20.22-1.21 24.46-3.11 4.15-1.86 5.82-5.54 5.82-8.99v-97.34c0-3.46-1.67-7.13-5.82-9z" fill="#006ca2"/><path d="m69.57 10.75h-11.13c-.58 0-1.04-.47-1.04-1.04s.46-1.04 1.04-1.04h11.13c.58 0 1.04.46 1.04 1.04 0 .57-.46 1.04-1.04 1.04z" fill="#fff"/><path d="m85.88 10.49c0 1.1-.9 1.99-1.99 1.99-1.1 0-1.99-.89-1.99-1.99s.89-1.99 1.99-1.99c1.09 0 1.99.89 1.99 1.99z" fill="#fff"/><path d="m39.21 22.71h49.57v82.05h-49.57z" fill="url(#a)"/><g fill="#fff"><path d="m48.37 108.93v.7l-1.53-1.11 1.53-1.12v.7h.88c1.72 0 2.83.51 2.83 1.99 0 1.49-1.11 2-2.83 2h-1.98v-.83h1.98c1.46 0 2-.32 2-1.17 0-.84-.53-1.16-2-1.16z"/><path d="m66.91 111.81h-5.73v-2.89l2.87-1.21 2.87 1.21v2.89zm-4.9-.84h4.07v-1.51l-2.03-.86-2.04.86z"/><path d="m80.55 111.81h-4.8v-3.04h4.8zm-3.96-.84h3.14v-1.37h-3.14z"/><path d="m81.91 110.1h-.83v-1.8h-3.55v-.83h4.38z"/></g></svg>