<svg viewBox="0 0 128 128" xmlns="http://www.w3.org/2000/svg" xmlns:xlink="http://www.w3.org/1999/xlink"><linearGradient id="a" gradientUnits="userSpaceOnUse" x1="23.1196" x2="23.1196" y1="94.0942" y2="33.5269"><stop offset="0" stop-color="#fff"/><stop offset="1" stop-color="#00a0d6"/></linearGradient><path d="m89.29 26.06c-20.96 0-37.95 16.99-37.95 37.94 0 20.96 16.99 37.95 37.95 37.95 20.95 0 37.95-16.99 37.95-37.95-.01-20.96-17-37.94-37.95-37.94zm29.37 37.94c0 7.03-2.48 13.48-6.59 18.53l-41.32-41.31c5.06-4.11 11.5-6.59 18.53-6.59 16.23 0 29.38 13.14 29.38 29.37zm-58.75 0c0-5.85 1.73-11.28 4.67-15.86l40.56 40.56c-4.57 2.94-10.01 4.67-15.86 4.67-16.22.01-29.37-13.14-29.37-29.37z" fill="#ed6c30"/><path d="m106.64 46.87c-3.05-2.79-7.01-4.5-11.1-5.04-.78-.1-2.2-.04-2.69.74-.51.82-.44 1.95-.3 2.85.96 6.4 1.25 12.57-.1 18.96-.22 1.08-.44 2.16-.78 3.21-.31.94-.78 2.36-1.67 2.92-.75.46-1.54-.21-2.07-.69-3.06-2.84-7.44-4.63-11.67-4.03-1.25.17-2.66.57-3.77 1.2-1.14.65-2.49 1.82-3.14 2.99-1.34 2.44-1.61 5.39-.6 8 .27.72.63 1.45 1.05 2.09 2.33 3.53 6.85 5.1 10.92 5.12 3.53.02 7.23-1.1 9.58-3.87 1.01-1.2 1.74-2.6 2.28-4.05.62-1.67 1.25-3.33 1.9-4.98.64-1.6 1.1-3.28 1.49-4.96.1-.42.19-.85.27-1.28.33-1.67.54-3.36.67-5.06.07-.81.09-1.63.16-2.44.15-1.67-.14-3.31 2.14-2.99.7.09 1.37.47 1.98.79 1.55.82 2.97 2.02 3.88 3.53 1.05 1.76.89 3.67.25 5.55-.11.32-.18.75-.12 1.09.15.88.73 1.33 1.61 1.19 2.03-.33 4.3-4.45 4.6-6.85.63-4.98-1.14-10.66-4.77-13.99z" fill="#fcc21b"/><path d="m41.17 21.43c-3.13-1.4-12.27-2.3-18.06-2.3s-14.94.9-18.06 2.3c-3.05 1.38-4.28 4.09-4.28 6.65v71.85c0 2.56 1.23 5.26 4.29 6.64 3.12 1.4 12.27 2.3 18.06 2.3s14.93-.89 18.06-2.3c3.06-1.38 4.29-4.08 4.29-6.64v-71.85c0-2.56-1.24-5.27-4.3-6.65z" fill="#006ca2"/><path d="m27.23 24.69h-8.22c-.42 0-.77-.34-.77-.77 0-.42.35-.77.77-.77h8.22c.42 0 .77.35.77.77 0 .43-.35.77-.77.77z" fill="#fff"/><path d="m39.27 24.5c0 .81-.67 1.47-1.47 1.47-.81 0-1.47-.66-1.47-1.47s.65-1.47 1.47-1.47c.8 0 1.47.66 1.47 1.47z" fill="#fff"/><path d="m4.82 33.53h36.6v60.57h-36.6z" fill="url(#a)"/><g fill="#fff"><path d="m11.58 97.17v.52l-1.12-.82 1.12-.83v.52h.65c1.27 0 2.09.37 2.09 1.47s-.82 1.47-2.09 1.47h-1.46v-.61h1.46c1.07 0 1.48-.23 1.48-.86 0-.62-.4-.86-1.48-.86z"/><path d="m25.26 99.29h-4.23v-2.14l2.12-.89 2.11.89zm-3.61-.61h3v-1.12l-1.5-.64-1.5.64z"/><path d="m35.34 99.29h-3.55v-2.24h3.55zm-2.94-.61h2.32v-1.01h-2.32z"/><path d="m36.34 98.03h-.62v-1.32h-2.62v-.62h3.24z"/></g></svg>