<svg viewBox="0 0 128 128" xmlns="http://www.w3.org/2000/svg"><path d="m1.99 64c0 34.24 27.77 62.01 62.01 62.01s62.01-27.76 62.01-62.01-27.77-62.01-62.01-62.01c-34.25 0-62.01 27.76-62.01 62.01z" fill="#fff"/><path d="m.24 64c0 35.21 28.55 63.76 63.76 63.76s63.76-28.55 63.76-63.76-28.55-63.76-63.76-63.76c-35.22 0-63.76 28.55-63.76 63.76zm13.67 0c0-27.67 22.42-50.09 50.09-50.09 27.66 0 50.09 22.43 50.09 50.09s-22.43 50.09-50.09 50.09c-27.67 0-50.09-22.42-50.09-50.09z" fill="#ed6c30"/><path d="m85.93 12.12c-3.76-1.68-14.77-2.77-21.74-2.77s-17.98 1.08-21.75 2.77c-3.68 1.66-5.16 4.92-5.16 8v86.52c0 3.08 1.48 6.34 5.16 7.99 3.77 1.69 14.78 2.76 21.75 2.76s17.97-1.07 21.74-2.76c3.69-1.65 5.17-4.92 5.17-7.99v-86.52c0-3.08-1.49-6.34-5.17-8z" fill="#006ca2"/><g fill="#fff"><path d="m69.13 16.05h-9.89c-.5 0-.92-.41-.92-.92s.42-.92.92-.92h9.89c.51 0 .93.42.93.92s-.41.92-.93.92z"/><path d="m83.63 15.81c0 .98-.8 1.78-1.77 1.78s-1.77-.8-1.77-1.78c0-.97.79-1.77 1.77-1.77s1.77.8 1.77 1.77z"/><path d="m42.15 26.68h44.07v72.93h-44.07z"/><path d="m50.29 103.31v.62l-1.35-.99 1.35-1v.62h.79c1.52 0 2.52.45 2.52 1.77 0 1.33-.99 1.77-2.52 1.77h-1.76v-.73h1.76c1.3 0 1.77-.28 1.77-1.04 0-.75-.47-1.03-1.77-1.03h-.79z"/><path d="m66.78 105.87h-5.1v-2.58l2.56-1.08 2.54 1.08zm-4.37-.74h3.62v-1.34l-1.8-.77-1.82.77z"/><path d="m78.9 105.87h-4.27v-2.7h4.27zm-3.53-.74h2.79v-1.22h-2.79z"/><path d="m80.11 104.35h-.74v-1.59h-3.16v-.74h3.9z"/></g><path d="m102.92 113.15 11.12-11.12-87.52-88.29-11.13 11.13z" fill="#ed6c30"/></svg>