<svg xmlns="http://www.w3.org/2000/svg" viewBox="0 0 128 128"><path fill="#90A4AE" d="M25.24 39.27H12.99c-1.63 0-2.95-1.32-2.95-2.95V29.1c0-1.63 1.32-2.95 2.95-2.95h12.25c1.63 0 2.95 1.32 2.95 2.95v7.22a2.962 2.962 0 0 1-2.95 2.95Z"/><path fill="#94D1E0" d="M16.28 40.52h-4v-10.4c0-1.1.9-2 2-2s2 .9 2 2v10.4Z"/><path fill="#546E7A" d="M42.36 35.8h-5.51c-1.1 0-1.99-.89-1.99-1.99V28.3c0-1.1.53-1.58 1.99-1.99 1.46-.41 4.12-.46 5.51 0 1.14.38 1.99.89 1.99 1.99v5.51c0 1.1-.9 1.99-1.99 1.99Z"/><path fill="#212121" d="M4 58.9h120v60.14H4V58.9Z"/><path fill="#B0BEC5" d="M4 117.68v2.73c0 1.98 1.61 3.59 3.59 3.59h112.83c1.98 0 3.59-1.61 3.59-3.59v-2.73H4Z"/><path fill="#90A4AE" d="M43.34 40.55h-7.49c-2.44 0-4.42-1.98-4.42-4.42v-.65c0-2.44 1.98-4.42 4.42-4.42h7.49c2.44 0 4.42 1.98 4.42 4.42v.65a4.409 4.409 0 0 1-4.42 4.42Z"/><path fill="#B0BEC5" d="M121.73 34.16H8.05C5.81 34.16 4 35.97 4 38.21v21.72h120v-23.5c0-1.26-1.02-2.27-2.27-2.27Z"/><path fill="#78909C" d="M112.49 55.24H94.34a1.92 1.92 0 0 1-1.92-1.92V40.67c0-1.06.86-1.92 1.92-1.92h18.15c1.06 0 1.92.86 1.92 1.92v12.66c0 1.05-.85 1.91-1.92 1.91Z"/><path fill="#757575" d="M92.42 52.84V40.88c0-1.18.95-2.13 2.13-2.13h17.79c1 0 1.41.55 1.41.55L93.11 54.72s-.69-.42-.69-1.88Z"/><path fill="#212121" d="M96.44 41.76h13.95v10.47H96.44V41.76Z"/><path fill="#616161" d="M10.58 115.87H5.7c-.94 0-1.7-.76-1.7-1.7V68.28c0-.94.76-1.7 1.7-1.7h4.88c.94 0 1.7.76 1.7 1.7v45.89c0 .94-.77 1.7-1.7 1.7ZM122.28 115.87h-4.88c-.94 0-1.7-.76-1.7-1.7V68.28c0-.94.76-1.7 1.7-1.7h4.88c.94 0 1.7.76 1.7 1.7v45.89c0 .94-.76 1.7-1.7 1.7Z"/><path fill="#B9E4EA" d="M8.04 122.64c-1.1 0-2-.9-2-2v-2.44h4v2.44a2 2 0 0 1-2 2ZM121.86 58.52h-4v-20.4c0-1.1.9-2 2-2s2 .9 2 2v20.4ZM11.16 58.52h-4v-20.4c0-1.1.9-2 2-2s2 .9 2 2v20.4ZM119.86 122.64c-1.1 0-2-.9-2-2v-2.44h4v2.44a2 2 0 0 1-2 2Z"/><path fill="#616161" d="M105.18 88.31a32.79 32.79 0 1 1-65.58 0 32.79 32.79 0 1 1 65.58 0Z"/><path fill="#E0E0E0" d="M100.86 88.31a28.47 28.47 0 1 1-56.94 0 28.47 28.47 0 1 1 56.94 0Z"/><path fill="#2F7889" d="M92.72 88.31a20.33 20.33 0 1 1-40.66 0 20.33 20.33 0 1 1 40.66 0Z"/><path d="M98.55 88.31a26.16 26.16 0 1 1-52.32 0 26.16 26.16 0 1 1 52.32 0Z"/><path fill="#2F7889" d="M92.33 88.31a19.94 19.94 0 1 1-39.88 0 19.94 19.94 0 1 1 39.88 0Z"/><path fill="#94D1E0" d="M67.67 71.58c-6.31 1.43-10.08 7.57-10.08 12.1 0 3.67 2.43 2.75 3.21 1.42 2.01-3.41 4.44-6.25 8.63-7.44 1.68-.48 3.64-1.53 3.44-3.49-.28-2.79-3.05-3.08-5.2-2.59Z"/><path d="M81.29 88.31a8.9 8.9 0 1 1-17.8 0 8.9 8.9 0 1 1 17.8 0Z" opacity=".25"/><path fill="#FF8F00" d="M41.89 46.73c-.45-.08-.55-.68-.16-.9l12.99-6.56c2.41-1.37 2.62-2.04 1.83-4.17l-7.67-22.22c-.16-.47.4-.85.78-.53l16.91 14.32c3.17 2.56 4.22 1.49 5.09-.02l9.37-16.57a.49.49 0 0 1 .91.23l.07 16.65c-.07 3.21 1.3 2.62 5.77 1.47l14.49-4.05c.48-.14.83.44.49.8L86.82 41.76c-1.03 1.32-.92 1.74-.48 3.57l3.23 9.39c.12.35-.18.71-.55.64l-10.77-3.13c-1.61-.28-2.4-.28-3.42 1.38L67.22 66c-.25.3-.92.63-1.13.02l-4.04-14.37c-.51-1.67-1.21-1.7-2.93-2.02l-17.23-2.9Z"/><path fill="#FFEE58" d="m52.07 44.84 12.75-4.29-9.67-19.26L70.5 36.12l7.06-12.69-.83 14.03 14.53-5.45-11.18 10.76 4.42 7.59-10-3.04-6.61 11.64-2.05-12.65Z"/></svg>