<svg xmlns="http://www.w3.org/2000/svg" viewBox="0 0 128 128"><path fill="#874D36" d="M107.354 63.71c.093 3.528-2.58 6.46-5.97 6.549-3.39.089-6.214-2.698-6.306-6.226-.093-3.528 2.58-6.461 5.97-6.55 3.39-.089 6.213 2.699 6.306 6.227Z"/><path fill="#D1593F" d="M105.874 63.043c.079 3.009-2.202 5.51-5.095 5.586-2.893.077-5.303-2.301-5.382-5.31-.079-3.009 2.202-5.51 5.095-5.586 2.894-.076 5.303 2.301 5.382 5.31Z"/><path fill="#FF7759" d="M101.06 60.5c.42 1.56-1.14 2.85-2.44 2.71-1.18-.13-2.28-1.41-1.45-2.96 1.09-2.01 3.49-1.23 3.89.25Z"/><path fill="#874D36" d="M116.903 56.318c.178 3.491-2.397 6.46-5.75 6.631-3.354.171-6.216-2.521-6.394-6.012-.178-3.492 2.396-6.461 5.749-6.632 3.354-.171 6.217 2.521 6.395 6.013Z"/><path fill="#D1593F" d="M115.314 55.763c.152 2.984-2.045 5.521-4.908 5.667-2.862.146-5.306-2.155-5.458-5.139-.152-2.984 2.045-5.521 4.908-5.667 2.862-.146 5.306 2.155 5.458 5.139Z"/><path fill="#FF7759" d="M110.11 53.12c.78 1.33-.47 2.97-1.8 3.2-1.2.2-2.6-.69-2.13-2.35.61-2.18 3.18-2.12 3.93-.85Z"/><path fill="#874D36" d="M124 34.86a5.99 6.24 0 1 1-11.98 0 5.99 6.24 0 1 1 11.98 0Z"/><path fill="#D1593F" d="M122.3 34.5a5.11 5.32 0 1 1-10.22 0 5.11 5.32 0 1 1 10.22 0Z"/><path fill="#FF7759" d="M117.29 32.43c.46 1.55-1.08 2.88-2.38 2.77-1.18-.1-2.31-1.36-1.51-2.92 1.03-2.05 3.45-1.32 3.89.15Z"/><path fill="#874D36" d="M118.81 24.02a5.95 6.2 0 1 1-11.9 0 5.95 6.2 0 1 1 11.9 0Z"/><path fill="#D1593F" d="M117.38 23.48a5.08 5.29 0 1 1-10.16 0 5.08 5.29 0 1 1 10.16 0Z"/><path fill="#FF7759" d="M112.33 21.78c.56 1.6-.86 3.05-2.15 2.99-1.17-.06-2.37-1.32-1.69-2.99.88-2.17 3.31-1.51 3.84 0Z"/><path fill="#874D36" d="M109.39 16.53a5.92 6.17 0 1 1-11.84 0 5.92 6.17 0 1 1 11.84 0Z"/><path fill="#D1593F" d="M108 16.03a5.05 5.26 0 1 1-10.1 0 5.05 5.26 0 1 1 10.1 0Z"/><path fill="#FF7759" d="M102.72 13.94c.72 1.5-.57 3.09-1.88 3.19-1.19.08-2.53-1.01-2.01-2.73.68-2.23 3.21-1.88 3.89-.46Z"/><path fill="#874D36" d="M98.5 12.34a5.89 6.14 0 1 1-11.78 0 5.89 6.14 0 1 1 11.78 0Z"/><path fill="#D1593F" d="M97.15 11.78a5.03 5.24 0 1 1-10.06 0 5.03 5.24 0 1 1 10.06 0Z"/><path fill="#FF7759" d="M92.08 9.96c.28 1.59-.82 2.77-2.38 2.77-1.27 0-2.29-1.76-1.33-3.23 1.16-1.79 3.41-1.23 3.71.46Z"/><path fill="#874D36" d="M86.86 10.78a5.87 6.12 0 1 1-11.74 0 5.87 6.12 0 1 1 11.74 0Z"/><path fill="#D1593F" d="M85.18 10.17a5.01 5.22 0 1 1-10.02 0 5.01 5.22 0 1 1 10.02 0Z"/><path fill="#FF7759" d="M80.3 8.44c.47 1.61-1.05 2.98-2.35 2.85-1.18-.12-2.31-1.43-1.53-3.04 1.02-2.1 3.44-1.33 3.88.19Z"/><path fill="#874D36" d="M75.15 10.75a5.86 6.1 0 1 1-11.72 0 5.86 6.1 0 1 1 11.72 0Z"/><path fill="#D1593F" d="M73.85 10.05a5 5.21 0 1 1-10 0 5 5.21 0 1 1 10 0Z"/><path fill="#FF7759" d="M68.66 8.08c.68 1.46-.64 3.01-1.94 3.09-1.19.07-2.49-1-1.93-2.66.72-2.17 3.23-1.82 3.87-.43Z"/><path fill="#874D36" d="M63.85 12.21a5.85 6.09 0 1 1-11.7 0 5.85 6.09 0 1 1 11.7 0Z"/><path fill="#D1593F" d="M62.25 11.65a4.99 5.2 0 1 1-9.98 0 4.99 5.2 0 1 1 9.98 0Z"/><path fill="#FF7759" d="M57.48 9.69c.46 1.55-1.08 2.88-2.38 2.77-1.18-.1-2.31-1.36-1.51-2.92 1.04-2.05 3.46-1.32 3.89.15Z"/><path fill="#874D36" d="M52.76 14.49a5.85 6.09 0 1 1-11.7 0 5.85 6.09 0 1 1 11.7 0Z"/><path fill="#D1593F" d="M51.47 13.65a4.99 5.2 0 1 1-9.98 0 4.99 5.2 0 1 1 9.98 0Z"/><path fill="#FF7759" d="M42.54 13.31c-.36-1.75 1.38-2.82 2.6-2.72 1.12.09 2.16 1.55 1.17 3.08-1.36 2.09-3.46 1.17-3.77-.36Z"/><path fill="#874D36" d="M42.23 19.27a5.85 6.09 0 1 1-11.7 0 5.85 6.09 0 1 1 11.7 0Z"/><path fill="#D1593F" d="M40.82 18.48a4.99 5.2 0 1 1-9.98 0 4.99 5.2 0 1 1 9.98 0Z"/><path fill="#FF7759" d="M36.37 16.83c.08 1.67-1.58 2.73-2.87 2.37-1.12-.31-2.1-1.79-1.03-3.21 1.33-1.77 3.83-.74 3.9.84Z"/><path fill="#874D36" d="M32.83 26.42a5.86 6.1 0 1 1-11.72 0 5.86 6.1 0 1 1 11.72 0Z"/><path fill="#D1593F" d="M31.52 25.79a5 5.21 0 1 1-10 0 5 5.21 0 1 1 10 0Z"/><path fill="#FF7759" d="M28.04 23.12c.26 1.66-1.74 2.54-3.08 2.37-1.24-.15-2.27-1.58-1.05-2.95 1.65-1.86 3.9-.87 4.13.58Z"/><path fill="#874D36" d="M24.978 33.888c.962 3.24-.777 6.615-3.884 7.539-3.108.923-6.408-.955-7.37-4.195-.963-3.24.776-6.615 3.884-7.538 3.108-.924 6.407.954 7.37 4.194Z"/><path fill="#D1593F" d="M23.672 33.335c.821 2.764-.664 5.643-3.316 6.431-2.653.788-5.468-.814-6.289-3.577-.821-2.764.663-5.643 3.316-6.431 2.652-.788 5.468.813 6.289 3.577Z"/><path fill="#FF7759" d="M20.16 32.37c.08.89-.45 1.77-1.17 2.26-.7.48-1.62.58-2.42.33a2.047 2.047 0 0 1-.78-3.1c1.07-1.63 4.15-1.93 4.37.51Z"/><path fill="#874D36" d="M19.48 44.518c.941 3.258-.831 6.63-3.956 7.532-3.126.902-6.422-1.007-7.362-4.266-.94-3.258.831-6.63 3.957-7.532 3.125-.902 6.421 1.008 7.361 4.266Z"/><path fill="#D1593F" d="M18.203 43.947c.803 2.781-.711 5.659-3.38 6.429-2.669.771-5.483-.859-6.286-3.639-.802-2.781.711-5.659 3.38-6.43 2.669-.77 5.484.86 6.286 3.64Z"/><path fill="#FF7759" d="M15.17 43.56c-.2.87-.98 1.54-1.82 1.78-.81.23-1.72.05-2.4-.44-.5-.36-1.31-1.98.22-3.19s4.55-.54 4 1.85Z"/><path fill="#874D36" d="M16.391 56.676c.59 3.356-1.542 6.536-4.762 7.102-3.22.567-6.309-1.695-6.899-5.051-.59-3.356 1.542-6.536 4.762-7.102 3.22-.567 6.309 1.695 6.899 5.051Z"/><path fill="#D1593F" d="M15.155 56.047c.503 2.861-1.316 5.572-4.063 6.055-2.747.483-5.382-1.445-5.885-4.306-.503-2.861 1.316-5.572 4.063-6.055 2.747-.483 5.381 1.445 5.885 4.306Z"/><path fill="#FF7759" d="M12.47 55.13c-.37.81-1.27 1.31-2.14 1.38-.84.06-1.69-.3-2.26-.92-.41-.45-.88-2.21.86-3.08 1.74-.87 4.56.39 3.54 2.62Z"/><path fill="#874D36" d="M15.9 70.1a5.95 6.2 0 1 1-11.9 0 5.95 6.2 0 1 1 11.9 0Z"/><path fill="#D1593F" d="M14.96 69.1a5.08 5.29 0 1 1-10.16 0 5.08 5.29 0 1 1 10.16 0Z"/><path fill="#FF7759" d="M12.2 67.4c-.27.86-1.09 1.46-1.95 1.63-.83.16-1.72-.1-2.37-.64-.49-.41-1.13-2.16.53-3.32 1.56-1.11 4.54-.09 3.79 2.33Z"/><path fill="#874D36" d="M18.38 81.97a5.99 6.24 0 1 1-11.98 0 5.99 6.24 0 1 1 11.98 0Z"/><path fill="#D1593F" d="M17.64 81.01a5.11 5.32 0 1 1-10.22 0 5.11 5.32 0 1 1 10.22 0Z"/><path fill="#FF7759" d="M14.44 78.62c-.29 1.41-1.4 1.71-2.26 1.91-2.1.49-3.97-1.31-2.1-3.13 1.13-1.11 4.89-1.36 4.36 1.22Z"/><path fill="#874D36" d="M24.35 91.72a6.03 6.28 0 1 1-12.06 0 6.03 6.28 0 1 1 12.06 0Z"/><path fill="#D1593F" d="M23.54 90.8a5.15 5.36 0 1 1-10.3 0 5.15 5.36 0 1 1 10.3 0Z"/><path fill="#FF7759" d="M20.8 88.6c-.08.9-.83 1.72-1.69 1.9-1.46.31-4.2-.32-2.53-3.15.96-1.64 4.48-1.67 4.22 1.25Z"/><path fill="#874D36" d="M34.36 98.84a6.08 6.33 0 1 1-12.16 0 6.08 6.33 0 1 1 12.16 0Z"/><path fill="#D1593F" d="M33.3 97.87a5.19 5.41 0 1 1-10.38 0 5.19 5.41 0 1 1 10.38 0Z"/><path fill="#FF7759" d="M29.93 95.63c-.13.89-.86 1.58-1.68 1.91-1.21.49-4.26.03-2.74-3.1.81-1.67 4.82-1.58 4.42 1.19Z"/><path fill="#874D36" d="M45.75 101.12a6.14 6.39 0 1 1-12.28 0 6.14 6.39 0 1 1 12.28 0Z"/><path fill="#D1593F" d="M44.74 100.13a5.24 5.45 0 1 1-10.48 0 5.24 5.45 0 1 1 10.48 0Z"/><path fill="#FF7759" d="M41.47 97.55c-.12.89-.58 1.34-1.66 1.92-1.64.89-4.33-.63-2.93-3.08.96-1.67 4.97-1.69 4.59 1.16Z"/><path fill="#874D36" d="M57.25 98.89a6.19 6.45 0 1 1-12.38 0 6.19 6.45 0 1 1 12.38 0Z"/><path fill="#D1593F" d="M56.05 97.92a5.29 5.51 0 1 1-10.58 0 5.29 5.51 0 1 1 10.58 0Z"/><path fill="#FF7759" d="M53.13 95.85c-.11.9-.82 1.65-1.65 1.93-.82.28-1.75.13-2.5-.31-.64-.37-1.17-1.03-1.18-1.79 0-.41.28-.89.53-.9 1.05-1.95 5.17-1.89 4.8 1.07Z"/><path fill="#874D36" d="M69.28 95.73a6.26 6.52 0 1 1-12.52 0 6.26 6.52 0 1 1 12.52 0Z"/><path fill="#D1593F" d="M67.94 94.96a5.34 5.56 0 1 1-10.68 0 5.34 5.56 0 1 1 10.68 0Z"/><path fill="#FF7759" d="M64.26 92.59c-.01.91-.62 1.74-1.41 2.11-.79.37-1.73.32-2.54-.02-.7-.3-1.42-1.47-1.18-2.38.67-2.52 5.15-2.78 5.13.29Z"/><path fill="#874D36" d="M81.16 95.53a6.33 6.59 0 1 1-12.66 0 6.33 6.59 0 1 1 12.66 0Z"/><path fill="#D1593F" d="M79.85 94.58a5.4 5.63 0 1 1-10.8 0 5.4 5.63 0 1 1 10.8 0Z"/><path fill="#FF7759" d="M76.5 92.39c-.15.9-.79 1.67-1.62 1.96-.83.29-1.83.41-2.81-.28-.64-.45-1.28-1.58-.75-2.61 1.1-2.18 5.66-1.97 5.18.93Z"/><path fill="#874D36" d="M93.32 82.42a6.26 6.52 0 1 1-12.52 0 6.26 6.52 0 1 1 12.52 0Z"/><path fill="#D1593F" d="M88.207 76.519c2.79.955 4.247 4.084 3.253 6.989-.993 2.906-4.061 4.487-6.852 3.533-2.79-.954-4.247-4.083-3.253-6.989.994-2.905 4.061-4.487 6.852-3.533Z"/><path fill="#FF7759" d="M86.71 80.38c-.36 1.77-2.31 2.37-3.36 1.65-.95-.66-1.29-2.45.14-3.64 1.87-1.55 3.56.32 3.22 1.99Z"/><path fill="#874D36" d="M123.86 46.79a6.03 6.28 0 1 1-12.06 0 6.03 6.28 0 1 1 12.06 0Z"/><path fill="#D1593F" d="M122.34 46.5a5.15 5.36 0 1 1-10.3 0 5.15 5.36 0 1 1 10.3 0Z"/><path fill="#FF7759" d="M116.94 44.2c.46 1.55-.91 3.27-2.21 3.16-1.18-.1-2.31-1.36-1.51-2.92 1.04-2.04 3.28-1.71 3.72-.24Z"/><path fill="#874D36" d="M92.97 94.67a6.33 6.59 0 1 1-12.66 0 6.33 6.59 0 1 1 12.66 0Z"/><path fill="#D1593F" d="M91.46 93.7a5.4 5.63 0 1 1-10.8 0 5.4 5.63 0 1 1 10.8 0Z"/><path fill="#FF7759" d="M86.97 90.73c.3.84.01 1.86-.61 2.51-.62.65-1.53.97-2.4.97-.78 0-1.85-.62-1.79-2.15.08-2.46 3.75-4.27 4.8-1.33Z"/><path fill="#874D36" d="M82.48 97.94c.47.51 1.75.88 2.39.63 1.27-.5 1.23-1.67 3.18-2.84 1.25-.75 1.78-.58 2.82-1.06.75-.35.57-1.29.51-1.9 0 0 2.35 3.66-2.22 6.4-4.53 2.71-6.68-1.23-6.68-1.23ZM98.79 71.76a6.19 6.45 0 1 1-12.38 0 6.19 6.45 0 1 1 12.38 0Z"/><path fill="#D1593F" d="M97.04 71.3a5.29 5.51 0 1 1-10.58 0 5.29 5.51 0 1 1 10.58 0Z"/><path fill="#FF7759" d="M92.16 68.53c.26 1.59-1.07 2.76-2.38 2.77-1.29.01-2.51-1.48-1.51-2.92 1.39-2.02 3.65-1.37 3.89.15Z"/><path fill="#FFCA28" d="M91.19 95.91c-2.41-.26-4.56 1.98-4.79 4.29-.47 4.73 4.78 6.41 4.78 6.41.45.21 1.61.75 2.92 2.83 4.54 7.24 11.83 12.96 20.33 13.88 2.76.3 9.35-14.38 4.15-16.31-1.56-.58-3.29-.32-4.93-.11-3.02.39-6.09.6-9.1.13-2.23-.35-7.07-2.6-8.16-4.9 0-.01-.27-5.69-5.2-6.22Z"/><path fill="#FFCA28" d="M95.144 102.283q5.356 3.6 11.627 2.014 1.215-.31 3.691-1.27 5.744-2.226 8.885-1.572 1.235.257.978 1.492-.257 1.235-1.492.978-2.411-.502-7.459 1.455-2.618 1.014-3.985 1.363-7.362 1.862-13.653-2.366-1.047-.704-.343-1.751t1.751-.343ZM94.22 106.902q.385 8.36 4.002 11.103 5.138 3.911 10.663 1.202 1.132-.555 1.688.578.555 1.132-.578 1.688-6.923 3.394-13.297-1.458-4.559-3.456-4.998-12.997-.058-1.26 1.202-1.318 1.26-.058 1.318 1.202Z"/><path fill="#E2A610" d="M116.62 107.37c-1.55.87-1.07 5.34-1.15 6.28-.28 3.33-2.65 2.4-3.64 5.41-.52 1.57-.29 4.04 1.58 4.24 6.42.69 7.55-6.32 7.71-7.92.67-6.44-2.09-9.36-4.5-8.01Z"/><path fill="#E2A610" d="M115.59 114.36c-6.91 0-13.86-2.26-18.62-7.04-1.94-1.95-.79-2.57-.28-2.11 5.55 4.98 13.68 7.69 21.31 6.98l.19 2.05c-.85.09-1.72.12-2.6.12ZM115.71 120.34c-5.01-.82-10.92-3.41-13.84-5.81-1.83-1.5-2.16-2.45-2.16-2.45 4.21 3.42 10.82 5.66 16.17 6.53l-.17 1.73ZM91.83 106.96s.47-1.22 2.11-2.55c1.95-1.59 2.87-1.63 2.87-1.63-.29-.45-.4-2.12-1.12-3.46 0 0 .2 2.08-2.58 4.07-1.82 1.3-5.06 1.28-5.06 1.28 1.37 1.42 3.78 2.29 3.78 2.29Z"/></svg>