<svg viewBox="0 0 128 128" xmlns="http://www.w3.org/2000/svg"><g fill="#40c0e7"><path d="m11.08 60.57 12.26.81c-1.23 18.74 10.46 35.8 28.41 41.48 9.45 2.98 19.63 2.35 28.62-1.61l-13.28-14.2 36.93 1.23-3.12 34.88-11.79-12.59c-7.8 4.2-16.43 6.45-25.15 6.45-5.34 0-10.71-.8-15.9-2.44-23.38-7.39-38.58-29.6-36.98-54.01z"/><path d="m76.25 25.15c-9.45-2.98-19.64-2.36-28.64 1.6l13.29 14.19-36.93-1.22 3.13-34.88 11.76 12.56c12.58-6.79 27.41-8.29 41.09-3.98 23.36 7.37 38.57 29.57 36.98 54l-12.26-.8c1.21-18.75-10.47-35.81-28.42-41.47z"/></g></svg>