<svg viewBox="0 0 128 128" xmlns="http://www.w3.org/2000/svg"><g fill="#fcc21b"><path d="m63.98 33.91c-16.55 0-29.98 13.42-29.98 29.97 0 16.56 13.43 29.98 29.98 29.98 16.56 0 29.98-13.42 29.98-29.98 0-16.55-13.42-29.97-29.98-29.97zm0 47.45c-9.65 0-17.48-7.83-17.48-17.47 0-9.65 7.82-17.47 17.48-17.47 9.64 0 17.47 7.82 17.47 17.47 0 9.64-7.83 17.47-17.47 17.47z"/><path d="m71.03 14.98c0-1.61-1.31-2.92-2.91-2.92h-8.27c-1.61 0-2.92 1.31-2.92 2.92v8.12c0 1.6 1.31 2.92 2.92 2.92h8.27c1.6 0 2.91-1.32 2.91-2.92z"/><path d="m34.31 24.36c-1.14-1.14-3-1.14-4.14 0l-5.85 5.84c-1.13 1.14-1.13 3 0 4.13l5.74 5.74c1.14 1.14 3 1.14 4.14 0l5.84-5.84c1.14-1.14 1.14-3 0-4.13z"/><path d="m14.98 56.96c-1.61 0-2.93 1.31-2.93 2.92v8.27c0 1.6 1.31 2.92 2.92 2.92h8.12c1.6 0 2.92-1.32 2.92-2.92v-8.26c0-1.61-1.32-2.92-2.92-2.92z"/><path d="m24.36 93.68c-1.14 1.13-1.14 2.99 0 4.13l5.85 5.85c1.13 1.14 2.99 1.14 4.13 0l5.74-5.74c1.13-1.14 1.13-3 0-4.13l-5.84-5.84c-1.14-1.13-3-1.13-4.14 0z"/><path d="m56.96 113.02c0 1.61 1.32 2.92 2.93 2.92h8.27c1.6 0 2.92-1.31 2.92-2.92v-8.13c0-1.61-1.32-2.92-2.92-2.92h-8.26c-1.61 0-2.93 1.32-2.93 2.92v8.13z"/><path d="m93.68 103.64c1.13 1.14 3 1.14 4.13 0l5.85-5.84c1.14-1.14 1.14-3 0-4.13l-5.75-5.74c-1.14-1.14-3-1.14-4.13 0l-5.84 5.84c-1.14 1.13-1.14 3-.01 4.13z"/><path d="m113.02 71.04c1.61 0 2.93-1.31 2.93-2.92v-8.27c0-1.61-1.32-2.92-2.92-2.92h-8.13c-1.61 0-2.92 1.32-2.92 2.92v8.26c0 1.61 1.32 2.92 2.93 2.92z"/><path d="m103.64 34.31c1.14-1.13 1.14-2.99 0-4.13l-5.84-5.85c-1.14-1.14-2.99-1.14-4.13 0l-5.74 5.75c-1.14 1.14-1.14 3 0 4.13l5.83 5.84c1.14 1.13 2.99 1.13 4.13 0z"/></g></svg>