<svg viewBox="0 0 128 128" xmlns="http://www.w3.org/2000/svg"><g fill="#fcc21b"><path d="m64 33.94c-16.56 0-29.98 13.42-29.98 29.98s13.42 29.98 29.98 29.98 29.98-13.42 29.98-29.98-13.42-29.98-29.98-29.98zm0 47.45c-9.65 0-17.48-7.82-17.48-17.48 0-9.65 7.83-17.47 17.48-17.47 9.64 0 17.47 7.82 17.47 17.47 0 9.66-7.83 17.48-17.47 17.48z"/><path d="m71.05 4.16c0-1.61-1.31-2.92-2.91-2.92h-8.27c-1.61 0-2.92 1.31-2.92 2.92v18.97c0 1.6 1.31 2.92 2.92 2.92h8.27c1.6 0 2.91-1.32 2.91-2.92z"/><path d="m26.68 16.69c-1.14-1.13-3-1.13-4.13 0l-5.84 5.84c-1.13 1.14-1.13 3 0 4.13l13.41 13.42c1.14 1.14 3 1.14 4.13 0l5.84-5.84c1.14-1.14 1.14-3 0-4.13z"/><path d="m4.16 56.94c-1.61 0-2.92 1.32-2.92 2.92v8.27c0 1.61 1.32 2.92 2.93 2.92h18.96c1.61 0 2.93-1.31 2.93-2.92v-8.26c0-1.6-1.31-2.92-2.92-2.92h-18.98z"/><path d="m16.7 101.32c-1.13 1.14-1.13 3 0 4.13l5.84 5.84c1.13 1.13 2.99 1.13 4.13 0l13.41-13.42c1.14-1.14 1.14-3 0-4.13l-5.84-5.84c-1.14-1.13-3-1.13-4.13 0z"/><path d="m56.95 123.84c0 1.61 1.31 2.92 2.93 2.92h8.26c1.6 0 2.91-1.32 2.91-2.92v-18.98c0-1.6-1.31-2.92-2.92-2.92l-8.26.01c-1.61 0-2.92 1.31-2.92 2.92z"/><path d="m101.33 111.29c1.14 1.13 3 1.13 4.13 0l5.84-5.84c1.14-1.13 1.14-2.99 0-4.13l-13.42-13.41c-1.13-1.13-2.99-1.13-4.13 0l-5.84 5.84c-1.14 1.14-1.14 3 0 4.13z"/><path d="m123.84 71.05c1.61 0 2.92-1.32 2.92-2.92v-8.26c0-1.61-1.32-2.92-2.92-2.92h-18.97c-1.61 0-2.92 1.32-2.92 2.92v8.27c0 1.6 1.31 2.92 2.92 2.92z"/><path d="m111.3 26.67c1.14-1.14 1.14-3 0-4.13l-5.85-5.84c-1.13-1.13-3-1.13-4.12 0l-13.42 13.42c-1.13 1.13-1.13 2.99 0 4.13l5.84 5.84c1.14 1.14 3 1.14 4.13 0z"/></g></svg>