<svg viewBox="0 0 128 128" xmlns="http://www.w3.org/2000/svg"><path d="m64.79 15.5c-7.7 0-13.18 14.26-14.98 33.93 5.16.04 8.63 7.24 8.63 16.13 0 8.66-4.1 15.72-8.32 16.1 2.06 18.11 7.37 30.95 14.67 30.95 5.27 0 14.04-21.74 14.04-48.55 0-26.82-8.76-48.56-14.04-48.56z" fill="#2f2f2f"/><path d="m39.84 64.06c0-23.58 6.5-43.29 15.23-48.56-1.04 0-2.07 0-3.29 0-3.38 0-10.21 9.87-14.31 24.51l-12.25 15.37c-1.46.22-2.91.57-4.38.9-.56-6.23-1.84-10.57-4.23-10.91.1-.01-.31-.04-.31-.04h-6.72-1.47c-4.43 0-8.02 8.99-8.02 20.09 0 11.09 3.59 20.09 8.02 20.09h1.46 6.72s.41-.03.31-.05c2.43-.35 3.71-4.85 4.26-11.25l4.35 1.25 14.06 17.75s.11.04.27.08c4.35 11.73 10.02 19.32 11.73 19.32h3.79c-8.73-5.27-15.22-24.98-15.22-48.55z" fill="#78a3ad"/><g fill="#40c0e7"><path d="m84.93 44.93c2.97 4.29 4.72 11.24 4.72 19.07s-1.76 14.78-4.72 19.06l4.73 4.76c4.22-5.42 6.65-14 6.65-23.83s-2.42-18.41-6.65-23.83z"/><path d="m102.52 27.22-4.85 4.88c4.61 7.73 7.31 19.17 7.31 31.9 0 12.72-2.7 24.16-7.3 31.9l4.84 4.88c5.83-8.85 9.12-21.93 9.12-36.78s-3.29-27.93-9.12-36.78z"/><path d="m115.83 13.82-4.86 4.89c6.49 11.12 10.28 27.33 10.28 45.29 0 17.97-3.79 34.18-10.28 45.29l4.86 4.89c7.64-12.23 12.07-30.34 12.07-50.19.01-19.84-4.43-37.95-12.07-50.17z"/></g></svg>