<svg viewBox="0 0 128 128" xmlns="http://www.w3.org/2000/svg" xmlns:xlink="http://www.w3.org/1999/xlink"><defs><path id="a" d="m4.69 123.27c4.4 4.42 10.12 5.86 12.75 3.23 0 0 25.5-25.56 25.53-25.59 6.2-6.2-9.47-22.47-15.97-15.97l-25.53 25.59c-2.64 2.63-1.19 8.34 3.22 12.74z"/><clipPath id="b"><use xlink:href="#a"/></clipPath></defs><path d="m35.09 101.54 18.97-18.96c18.01 13.79 43.86 12.49 60.35-3.99 17.93-17.94 17.93-47.02 0-64.96-17.95-17.93-47.03-17.93-64.97 0-16.47 16.48-17.77 42.33-3.99 60.34l-18.98 18.96z" fill="#78a3ad"/><path d="m56.26 71.77c-14.16-14.18-14.16-37.15 0-51.31 14.18-14.16 37.13-14.17 51.3 0 14.16 14.16 14.16 37.13 0 51.31-14.16 14.16-37.12 14.16-51.3 0z" fill="#fff"/><use fill="#f79329" xlink:href="#a"/><path clip-path="url(#b)" d="m16.77 125.77c-.18-2.04-1.51-4.45-2.37-5.81-2.57-4.07-5.8-7.44-10.62-8.72-4.9-1.31-5.39 2.38-4.22 6.12 1.42 4.51 4.22 7.9 8.36 10.27.97.56 2.26 1.35 3.38 1.52 2.74.39 5.76.04 5.47-3.38z" fill="#855c52"/></svg>