<svg viewBox="0 0 128 128" xmlns="http://www.w3.org/2000/svg"><path d="m24.84 48.9c0-6.98 5.67-12.65 12.64-12.65s12.65 5.67 12.65 12.65v13.35h12.52v-13.35c0-13.88-11.29-25.17-25.17-25.17s-25.17 11.29-25.17 25.17v13.35h12.52v-13.35z" fill="#78a3ad"/><path d="m50.13 62.26v.15h-25.29v-.15h-12.53v.15h-1.58c-2.99 0-5.41 2.42-5.41 5.4v36.98c0 2.98 2.42 5.41 5.41 5.41h53.49c2.99 0 5.41-2.42 5.41-5.41v-36.98c0-2.98-2.42-5.4-5.41-5.4h-1.58v-.15z" fill="#fcc21b"/><path d="m43.19 82.76c0-3.15-2.56-5.71-5.71-5.71s-5.71 2.55-5.71 5.71c0 2.39 1.48 4.44 3.57 5.28l-.13.54-1.84 7.87h8.23l-1.84-7.87-.12-.54c2.08-.84 3.55-2.88 3.55-5.28z" fill="#2f2f2f"/><path d="m104.77 62.39c3.79-1.21 7.37-3.3 10.38-6.31 10.03-10.03 10.03-26.3 0-36.33s-26.3-10.03-36.33 0-10.03 26.3 0 36.33c3.01 3.01 6.59 5.1 10.38 6.31v19.64l5.19 5.2-5.19 5.19 5.19 5.19-5.19 5.19v5.19l7.79 7.79 7.79-7.79v-45.6zm-12.98-29.67c-2.86-2.86-2.86-7.51 0-10.38s7.51-2.87 10.38 0 2.87 7.52 0 10.38c-2.87 2.87-7.51 2.87-10.38 0z" fill="#fcc21b"/></svg>