<svg viewBox="0 0 128 128" xmlns="http://www.w3.org/2000/svg"><g fill="#fff"><path d="m51.82 54.37c0 .46-.38.84-.83.84h-10.13c-.46 0-.83-.37-.83-.84v-1.69c-2.86 1.54-6.29 2.43-10.19 2.43-12.21 0-19.84-8.62-19.84-19.26 0-10.63 7.63-19.25 19.84-19.25 3.9 0 7.33.89 10.19 2.43v-2.43c0-.46.38-.83.83-.83h10.13c.46 0 .83.38.83.83z"/><path d="m113.25 120.86c0 .43-.35.78-.78.78h-10.46c-.43 0-.77-.35-.77-.78v-1.58c-2.68 1.44-5.89 2.27-9.54 2.27-11.43 0-18.56-8.07-18.56-18.02s7.14-18.02 18.56-18.02c3.64 0 6.86.83 9.54 2.27v-17.58c0-.43.34-.78.77-.78h10.46c.43 0 .78.35.78.78z"/><path d="m64 .22h63.78v63.78h-63.78z"/><path d="m.22 64h63.78v63.77h-63.78z"/></g><g fill="#ed6c30"><path d="m.22.22v63.78h63.78v-63.78zm51.6 54.15c0 .46-.38.84-.83.84h-10.13c-.46 0-.83-.37-.83-.84v-1.69c-2.86 1.54-6.29 2.43-10.19 2.43-12.21 0-19.84-8.62-19.84-19.26 0-10.63 7.63-19.25 19.84-19.25 3.9 0 7.33.89 10.19 2.43v-2.43c0-.46.38-.83.83-.83h10.13c.46 0 .83.38.83.83z"/><path d="m29.83 26.95c-5.64 0-9.18 3.99-9.18 8.91s3.54 8.91 9.18 8.91c5.65 0 9.18-3.99 9.18-8.91s-3.53-8.91-9.18-8.91z"/><path d="m64 64v63.77h63.78v-63.77zm49.25 56.86c0 .43-.35.78-.78.78h-10.46c-.43 0-.77-.35-.77-.78v-1.58c-2.68 1.44-5.89 2.27-9.54 2.27-11.43 0-18.56-8.07-18.56-18.02s7.14-18.02 18.56-18.02c3.64 0 6.86.83 9.54 2.27v-17.58c0-.43.34-.78.77-.78h10.46c.43 0 .78.35.78.78z"/><path d="m91.71 95.62c-5.02 0-8.17 3.55-8.17 7.92 0 4.38 3.14 7.92 8.17 7.92s8.17-3.55 8.17-7.92c-.01-4.38-3.14-7.92-8.17-7.92z"/></g><g fill="#2f2f2f"><path d="m77.39 57.87h10.45c.43 0 .78-.35.78-.78v-1.57c2.68 1.44 5.88 2.27 9.53 2.27 11.43 0 18.57-8.07 18.57-18.02s-7.14-18.02-18.57-18.02c-3.65 0-6.85.83-9.53 2.27v-17.58c0-.43-.35-.78-.78-.78h-10.45c-.43 0-.78.35-.78.78v50.65c-.01.43.34.78.78.78zm20.76-26.03c5.02 0 8.17 3.55 8.17 7.93s-3.14 7.93-8.17 7.93c-5.02 0-8.17-3.55-8.17-7.93.01-4.37 3.15-7.93 8.17-7.93z"/><path d="m46.67 107.28-.4.09c-2.47 1.96-6.72 3.44-9.88 3.44-6.11 0-10.39-4.14-10.39-10.07s4.28-10.07 10.39-10.07c3.31 0 6.7 1.06 8.86 2.78l.38.09.32-.23 4.9-8.92-.12-.59c-3.71-2.94-8.42-4.37-14.38-4.37-12.71 0-21.94 8.97-21.94 21.31 0 12.35 9.23 21.31 21.94 21.31 5.82 0 10.84-1.77 14.93-5.26l.12-.57-4.42-8.7z"/></g></svg>