<svg viewBox="0 0 128 128" xmlns="http://www.w3.org/2000/svg"><g fill="#f79329"><path d="m104.74 64 16.25-27.32c.86-1.45.88-3.25.05-4.71-.83-1.47-2.39-2.37-4.08-2.37h-32.69l-16.24-27.3c-.84-1.43-2.37-2.3-4.03-2.3s-3.19.87-4.03 2.3l-16.24 27.3h-32.68c-1.69 0-3.24.9-4.08 2.37-.83 1.47-.82 3.27.05 4.71l16.24 27.32-16.25 27.32c-.87 1.45-.88 3.25-.05 4.72s2.39 2.37 4.08 2.37h32.69l16.24 27.3c.84 1.42 2.38 2.29 4.03 2.29s3.18-.87 4.03-2.29l16.24-27.3h32.69c1.69 0 3.24-.91 4.08-2.37.83-1.47.82-3.27-.05-4.72zm3.96-25.02-9.42 15.84-9.43-15.84zm-14.88 25.02-14.89 25.03h-29.87l-14.88-25.03 14.89-25.02h29.87zm-29.82-50.13 9.35 15.72h-18.7zm-44.71 25.11h18.85l-9.42 15.84zm0 50.05 9.43-15.85 9.42 15.85zm44.71 25.1-9.36-15.72h18.71zm25.85-25.1 9.43-15.85 9.42 15.85z"/><circle cx="64" cy="64.51" r="14.03"/></g></svg>