<svg viewBox="0 0 128 128" xmlns="http://www.w3.org/2000/svg" xmlns:xlink="http://www.w3.org/1999/xlink"><defs><path id="a" d="m104.27.48c-1.47 0-3.73.47-6.19 2.73l-32.27 29.6c-.9.83-2.72.83-3.62 0l-32.27-29.6c-2.46-2.26-4.72-2.73-6.19-2.73-3.46 0-7.18 2.69-7.18 8.61v70.42c0 5.21 2.9 11.78 6.74 15.3l32.26 29.49c2.28 2.08 5.28 3.23 8.46 3.23s6.18-1.14 8.46-3.23l32.25-29.49c3.85-3.52 6.74-10.09 6.74-15.3v-70.42c0-5.92-3.73-8.61-7.19-8.61z"/><clipPath id="b"><use xlink:href="#a"/></clipPath></defs><use fill="#fcc21b" xlink:href="#a"/><g clip-path="url(#b)"><path d="m119.33-23.68-55.06 48.56v116l55.06-48.41z" fill="#757f3f"/></g></svg>