<svg viewBox="0 0 128 128" xmlns="http://www.w3.org/2000/svg" xmlns:xlink="http://www.w3.org/1999/xlink"><defs><path id="a" d="m115.17 105.67c0 5.48-4.48 9.96-9.96 9.96h-83.26c-5.48 0-9.96-4.48-9.96-9.96v-83.27c0-5.47 4.48-9.95 9.96-9.95h83.26c5.47 0 9.96 4.48 9.96 9.95z"/><clipPath id="b"><use xlink:href="#a"/></clipPath><clipPath id="c"><path d="m32.37 100.91c-3.12 0-5.65-2.54-5.65-5.64v-62.45c0-3.11 2.54-5.64 5.65-5.64h62.43c3.11 0 5.65 2.53 5.65 5.64v62.45c0 3.11-2.54 5.64-5.65 5.64z"/></clipPath></defs><path d="m127.56 113.88c0 7.53-6.16 13.69-13.69 13.69h-99.75c-7.53 0-13.69-6.16-13.69-13.69v-99.76c0-7.53 6.16-13.69 13.69-13.69h99.75c7.53 0 13.69 6.16 13.69 13.69z" fill="#bdcf46"/><use fill="#fff" xlink:href="#a"/><path clip-path="url(#b)" d="m117.56 8.7-109.62 110.89h109.62l2.83-2.83v-105.44z" fill="#757f3f"/><path d="m32.37 100.91c-3.12 0-5.65-2.54-5.65-5.64v-62.45c0-3.11 2.54-5.64 5.65-5.64h62.43c3.11 0 5.65 2.53 5.65 5.64v62.45c0 3.11-2.54 5.64-5.65 5.64z" fill="#fff"/><path clip-path="url(#c)" d="m26.34 101.44 77.28-78.18h-77.28l-2 2v74.34z" fill="#757f3f"/><path d="m41 45.43c0-2.18 1.79-3.97 3.98-3.97h37.22c2.19 0 3.97 1.78 3.97 3.97v37.22c0 2.18-1.78 3.97-3.97 3.97h-37.22c-2.19 0-3.98-1.79-3.98-3.97z" fill="#bdcf46"/></svg>