<svg viewBox="0 0 128 128" xmlns="http://www.w3.org/2000/svg"><path d="m64 121.73c-31.84 0-57.73-25.9-57.73-57.73s25.89-57.73 57.73-57.73c31.83 0 57.73 25.9 57.73 57.74 0 31.83-25.89 57.72-57.73 57.72z" fill="#fff"/><path d="m64 .1c-35.23 0-63.9 28.67-63.9 63.9s28.67 63.89 63.9 63.89 63.89-28.66 63.89-63.89c.01-35.23-28.66-63.9-63.89-63.9zm0 121.63c-31.84 0-57.73-25.9-57.73-57.73s25.89-57.73 57.73-57.73c31.83 0 57.73 25.9 57.73 57.74 0 31.83-25.89 57.72-57.73 57.72z" fill="#40c0e7"/><g fill="#2f2f2f"><path d="m76.67 32.87-8.06 13.95v-35.49h-9.21v44.08c-3.07 1.65-5.18 4.85-5.18 8.58 0 5.41 4.37 9.78 9.78 9.78 5.4 0 9.78-4.38 9.78-9.78 0-1.89-.56-3.64-1.5-5.14l12.35-21.38zm-14.07 34.55c-.02-.01-.04-.02-.06-.02-.57-.25-1.05-.64-1.43-1.12-.49-.63-.8-1.41-.8-2.27 0-2.03 1.65-3.68 3.69-3.68s3.69 1.65 3.69 3.68c0 1.52-.92 2.82-2.24 3.39-.02 0-.04.01-.06.02-.43.17-.9.27-1.39.27-.19 0-.35-.03-.52-.05-.3-.05-.6-.11-.88-.22z"/><path d="m113.93 60.32c-2.03 0-3.69 1.65-3.69 3.69 0 2.03 1.65 3.68 3.69 3.68 2.03 0 3.68-1.65 3.68-3.68.01-2.04-1.64-3.69-3.68-3.69z"/><path d="m109.08 42.23c1.76-1.02 2.36-3.27 1.35-5.04-1.02-1.76-3.27-2.37-5.03-1.35s-2.37 3.27-1.35 5.04c1.02 1.76 3.27 2.37 5.03 1.35z"/><path d="m90.81 17.57c-1.76-1.02-4.02-.42-5.03 1.35-1.02 1.76-.41 4.02 1.35 5.03 1.76 1.02 4.01.41 5.03-1.35 1.01-1.76.41-4.01-1.35-5.03z"/><path d="m37.19 17.57c-1.77 1.02-2.36 3.27-1.35 5.03 1.01 1.77 3.27 2.37 5.03 1.35 1.77-1.02 2.37-3.27 1.34-5.03-1-1.77-3.25-2.36-5.02-1.35z"/><path d="m22.6 35.85c-1.76-1.02-4.01-.41-5.03 1.34-1.02 1.76-.41 4.02 1.35 5.03 1.76 1.02 4.01.42 5.03-1.35 1.02-1.76.4-4.01-1.35-5.02z"/><path d="m14.06 60.32c-2.03 0-3.68 1.65-3.68 3.68s1.65 3.68 3.68 3.68c2.04 0 3.69-1.65 3.69-3.69 0-2.02-1.65-3.67-3.69-3.67z"/><path d="m18.91 85.78c-1.75 1.02-2.36 3.27-1.34 5.03 1.02 1.77 3.27 2.37 5.03 1.35s2.37-3.27 1.35-5.04c-1.02-1.76-3.27-2.36-5.04-1.34z"/><path d="m40.87 104.05c-1.77-1.02-4.02-.41-5.03 1.35-1.01 1.75-.41 4.01 1.35 5.03s4.02.41 5.03-1.35c1.02-1.75.41-4.01-1.35-5.03z"/><path d="m63.99 110.25c-2.04 0-3.67 1.65-3.68 3.69.01 2.03 1.65 3.68 3.68 3.68s3.69-1.65 3.68-3.68c.01-2.04-1.64-3.69-3.68-3.69z"/><path d="m87.12 104.06c-1.77 1.02-2.37 3.26-1.34 5.03 1.02 1.76 3.27 2.37 5.03 1.35 1.76-1.01 2.37-3.28 1.35-5.03-1.02-1.76-3.28-2.37-5.04-1.35z"/><path d="m109.08 85.78c-1.76-1.02-4.02-.41-5.03 1.35-1.02 1.77-.42 4 1.35 5.03 1.76 1.02 4.01.42 5.03-1.34s.42-4.03-1.35-5.04z"/></g></svg>