<svg viewBox="0 0 128 128" xmlns="http://www.w3.org/2000/svg"><path d="m64 121.73c-31.84 0-57.73-25.9-57.73-57.73 0-31.84 25.89-57.73 57.73-57.73 31.83 0 57.73 25.9 57.73 57.74 0 31.83-25.89 57.72-57.73 57.72z" fill="#fff"/><path d="m64 .1c-35.23 0-63.9 28.66-63.9 63.9 0 35.23 28.67 63.89 63.9 63.89s63.89-28.67 63.89-63.89c.01-35.24-28.66-63.9-63.89-63.9zm0 121.63c-31.84 0-57.73-25.9-57.73-57.73 0-31.84 25.89-57.73 57.73-57.73 31.83 0 57.73 25.9 57.73 57.74 0 31.83-25.89 57.72-57.73 57.72z" fill="#40c0e7"/><g fill="#2f2f2f"><path d="m69.15 55.71c-.17-.11-.36-.2-.54-.3v-44.08h-9.21v44.09c-3.07 1.64-5.18 4.84-5.18 8.57 0 5.41 4.37 9.79 9.78 9.79 5.4 0 9.78-4.38 9.78-9.79 0-.1-.03-.2-.03-.31l21.38-12.34-4.6-7.97zm-3.7 11.68c-.02.01-.04.01-.06.02-.43.18-.9.28-1.39.28-.5 0-.97-.1-1.4-.28-.02-.01-.04-.01-.06-.02-.3-.13-.57-.3-.82-.5-.73-.57-1.22-1.41-1.36-2.37-.03-.17-.05-.34-.05-.52 0-2.04 1.65-3.68 3.69-3.68s3.69 1.65 3.69 3.68c0 1.52-.92 2.82-2.24 3.39z"/><path d="m113.93 60.32c-2.03 0-3.69 1.65-3.69 3.68 0 2.04 1.65 3.69 3.69 3.69 2.03 0 3.68-1.65 3.68-3.69.01-2.04-1.64-3.68-3.68-3.68z"/><path d="m109.08 42.23c1.76-1.02 2.36-3.27 1.35-5.03-1.02-1.77-3.27-2.37-5.03-1.35s-2.37 3.27-1.35 5.03 3.27 2.36 5.03 1.35z"/><path d="m87.13 23.95c1.76 1.02 4.01.41 5.03-1.35 1.02-1.77.41-4.01-1.35-5.03s-4.02-.41-5.03 1.35c-1.02 1.76-.42 4.01 1.35 5.03z"/><path d="m37.19 17.57c-1.77 1.02-2.36 3.26-1.35 5.03s3.27 2.37 5.03 1.35c1.77-1.02 2.37-3.27 1.34-5.03-1-1.77-3.25-2.37-5.02-1.35z"/><path d="m22.6 35.84c-1.76-1.02-4.01-.41-5.03 1.35s-.41 4.02 1.35 5.03c1.76 1.02 4.01.41 5.03-1.35s.4-4.01-1.35-5.03z"/><path d="m14.06 60.31c-2.03 0-3.68 1.65-3.68 3.68 0 2.04 1.65 3.68 3.68 3.68 2.04.01 3.69-1.65 3.69-3.68s-1.65-3.68-3.69-3.68z"/><path d="m18.91 85.78c-1.75 1.02-2.36 3.27-1.34 5.03s3.27 2.36 5.03 1.35c1.76-1.02 2.37-3.28 1.35-5.04s-3.27-2.36-5.04-1.34z"/><path d="m40.87 104.05c-1.77-1.02-4.02-.41-5.03 1.35s-.41 4.01 1.35 5.03 4.02.41 5.03-1.35c1.02-1.75.41-4.01-1.35-5.03z"/><path d="m63.99 110.25c-2.04 0-3.67 1.65-3.68 3.68.01 2.03 1.65 3.68 3.68 3.68s3.69-1.65 3.68-3.68c.01-2.03-1.64-3.68-3.68-3.68z"/><path d="m87.12 104.06c-1.77 1.02-2.37 3.26-1.34 5.03 1.02 1.76 3.27 2.37 5.03 1.35 1.76-1.01 2.37-3.27 1.35-5.03-1.02-1.77-3.28-2.37-5.04-1.35z"/><path d="m109.08 85.78c-1.76-1.02-4.02-.41-5.03 1.35-1.02 1.77-.42 4.01 1.35 5.03 1.76 1.01 4.01.41 5.03-1.35s.42-4.02-1.35-5.03z"/></g></svg>