<svg viewBox="0 0 128 128" xmlns="http://www.w3.org/2000/svg"><path d="m64 121.73c-31.83 0-57.73-25.89-57.73-57.73s25.9-57.73 57.73-57.73 57.73 25.89 57.73 57.73-25.89 57.73-57.73 57.73z" fill="#fff"/><path d="m64 .1c-35.23 0-63.9 28.67-63.9 63.9s28.67 63.9 63.9 63.9 63.89-28.67 63.89-63.9-28.65-63.9-63.89-63.9zm0 121.63c-31.83 0-57.73-25.89-57.73-57.73s25.9-57.73 57.73-57.73 57.73 25.89 57.73 57.73-25.89 57.73-57.73 57.73z" fill="#40c0e7"/><g fill="#2f2f2f"><path d="m73.78 63.99c0-3.73-2.11-6.92-5.17-8.57v-44.09h-9.21v44.08c-3.07 1.64-5.18 4.85-5.18 8.57 0 5.41 4.37 9.79 9.78 9.79.11 0 .21-.04.31-.04l12.34 21.39 7.98-4.6-12.34-21.37c.93-1.5 1.49-3.26 1.49-5.16zm-9.78 3.7c-.5 0-.97-.11-1.4-.28-.02-.01-.03-.01-.06-.02-1.31-.57-2.23-1.87-2.23-3.39 0-.87.31-1.66.81-2.28.57-.71 1.39-1.21 2.33-1.35.17-.03.36-.05.55-.05 2.03 0 3.69 1.65 3.69 3.68 0 1.52-.92 2.82-2.24 3.39-.02.01-.03.01-.05.02-.43.17-.9.28-1.4.28z"/><path d="m113.93 60.32c-2.04 0-3.69 1.65-3.69 3.68 0 2.04 1.65 3.69 3.69 3.69 2.03 0 3.68-1.65 3.68-3.69.01-2.03-1.64-3.68-3.68-3.68z"/><path d="m109.08 42.22c1.76-1.01 2.37-3.27 1.35-5.03-1.01-1.77-3.27-2.36-5.03-1.35-1.76 1.02-2.36 3.27-1.35 5.03 1.02 1.77 3.27 2.38 5.03 1.35z"/><path d="m90.81 17.56c-1.76-1.01-4.01-.41-5.03 1.35-1.02 1.77-.42 4.02 1.35 5.04 1.76 1.01 4.02.41 5.03-1.35s.41-4.02-1.35-5.04z"/><path d="m37.2 17.56c-1.77 1.02-2.36 3.27-1.35 5.03 1.01 1.77 3.27 2.37 5.03 1.35 1.77-1.02 2.37-3.27 1.35-5.03-1.02-1.75-3.27-2.36-5.03-1.35z"/><path d="m22.6 35.84c-1.76-1.02-4.01-.42-5.03 1.35-1.02 1.76-.41 4.01 1.35 5.03s4.02.41 5.03-1.35c1.02-1.76.41-4.01-1.35-5.03z"/><path d="m14.07 60.32c-2.03 0-3.68 1.65-3.68 3.68s1.65 3.68 3.68 3.68 3.68-1.65 3.68-3.68c-.01-2.04-1.65-3.68-3.68-3.68z"/><path d="m18.91 85.78c-1.76 1.02-2.36 3.27-1.35 5.03 1.02 1.77 3.27 2.36 5.03 1.35 1.77-1.01 2.37-3.27 1.36-5.03-1.02-1.77-3.27-2.37-5.04-1.35z"/><path d="m40.87 104.06c-1.77-1.02-4.01-.42-5.04 1.35-1.01 1.76-.41 4.01 1.35 5.03 1.75 1.02 4.02.41 5.03-1.35 1.03-1.76.43-4.02-1.34-5.03z"/><path d="m63.99 110.25c-2.04 0-3.67 1.65-3.68 3.68 0 2.03 1.65 3.68 3.68 3.68 2.03.01 3.69-1.65 3.68-3.68.02-2.03-1.64-3.68-3.68-3.68z"/><path d="m87.12 104.06c-1.77 1.02-2.36 3.27-1.34 5.03s3.27 2.36 5.02 1.35c1.77-1.01 2.37-3.27 1.35-5.03-1.01-1.77-3.26-2.37-5.03-1.35z"/><path d="m109.08 85.78c-1.76-1.01-4.02-.41-5.04 1.35-1.02 1.77-.41 4.01 1.35 5.03 1.76 1.01 4.01.42 5.03-1.35 1.03-1.76.43-4.01-1.34-5.03z"/></g></svg>