<svg viewBox="0 0 128 128" xmlns="http://www.w3.org/2000/svg"><path d="m64 121.74c-31.84 0-57.74-25.9-57.74-57.73.01-31.84 25.9-57.75 57.74-57.75 31.83 0 57.73 25.9 57.73 57.74 0 31.83-25.89 57.74-57.73 57.74z" fill="#fff"/><path d="m64 .11c-35.23 0-63.9 28.66-63.9 63.9 0 35.23 28.67 63.89 63.9 63.89s63.9-28.66 63.9-63.89c0-35.24-28.66-63.9-63.9-63.9zm0 121.63c-31.84 0-57.74-25.9-57.74-57.73.01-31.84 25.9-57.75 57.74-57.75 31.83 0 57.73 25.9 57.73 57.74 0 31.83-25.89 57.74-57.73 57.74z" fill="#40c0e7"/><g fill="#2f2f2f"><path d="m68.61 55.42v-44.09h-9.21v44.08c-1.69.91-3.07 2.29-3.98 3.98l-24.71-.01v9.21h24.71c1.65 3.07 4.85 5.17 8.58 5.17 5.4 0 9.78-4.37 9.78-9.78.01-3.71-2.11-6.91-5.17-8.56zm-1.2 9.96c-.36.9-1.07 1.62-1.96 2.01-.02 0-.04.01-.06.02-.43.18-.9.28-1.39.28-.5 0-.96-.1-1.4-.28-.02-.01-.04-.02-.06-.02-1.31-.56-2.23-1.87-2.23-3.39 0-2.04 1.65-3.68 3.69-3.68 1.55 0 2.87.96 3.41 2.31.17.43.28.89.28 1.38 0 .48-.11.94-.28 1.37z"/><circle cx="113.93" cy="64.01" r="3.68"/><path d="m109.08 42.23c1.76-1.02 2.36-3.27 1.35-5.03-1.01-1.77-3.27-2.37-5.03-1.35-1.76 1.01-2.36 3.27-1.35 5.03 1.02 1.77 3.27 2.37 5.03 1.35z"/><path d="m90.81 17.57c-1.76-1.02-4.02-.42-5.03 1.35-1.02 1.76-.41 4.02 1.35 5.03 1.77 1.02 4.02.42 5.04-1.35 1-1.76.4-4.01-1.36-5.03z"/><path d="m40.88 23.95c1.77-1.02 2.36-3.27 1.34-5.03-1.02-1.77-3.27-2.36-5.03-1.35-1.77 1.01-2.37 3.27-1.35 5.03 1.02 1.77 3.28 2.37 5.04 1.35z"/><path d="m22.6 35.84c-1.76-1.02-4.02-.41-5.03 1.34-1.02 1.77-.41 4.02 1.35 5.03 1.76 1.02 4.02.42 5.03-1.35 1.02-1.75.41-4-1.35-5.02z"/><path d="m14.07 60.32c-2.03 0-3.68 1.65-3.68 3.68 0 2.04 1.65 3.68 3.68 3.68s3.68-1.65 3.68-3.69c0-2.03-1.65-3.67-3.68-3.67z"/><path d="m18.91 85.78c-1.76 1.01-2.36 3.27-1.35 5.03 1.02 1.76 3.27 2.36 5.03 1.35 1.77-1.02 2.37-3.27 1.35-5.04-1.01-1.76-3.26-2.36-5.03-1.34z"/><path d="m40.87 104.05c-1.77-1.02-4.01-.41-5.03 1.35-1.01 1.76-.41 4.01 1.35 5.03s4.02.41 5.03-1.35c1.02-1.75.41-4.01-1.35-5.03z"/><path d="m63.99 110.25c-2.04 0-3.68 1.64-3.68 3.68 0 2.03 1.65 3.68 3.68 3.68s3.69-1.65 3.68-3.68c.02-2.03-1.64-3.68-3.68-3.68z"/><path d="m87.12 104.06c-1.77 1.02-2.37 3.26-1.35 5.03 1.02 1.76 3.27 2.37 5.03 1.35 1.77-1.01 2.37-3.27 1.35-5.03-1.01-1.77-3.27-2.37-5.03-1.35z"/><path d="m109.08 85.78c-1.76-1.02-4.02-.41-5.03 1.35-1.02 1.77-.42 4.01 1.35 5.03 1.76 1.01 4.01.41 5.03-1.35 1.02-1.75.42-4.02-1.35-5.03z"/></g></svg>