<svg viewBox="0 0 128 128" xmlns="http://www.w3.org/2000/svg"><path d="m64 121.73c-31.84 0-57.74-25.9-57.74-57.73.01-31.84 25.91-57.73 57.74-57.73s57.73 25.9 57.73 57.74c.01 31.83-25.89 57.72-57.73 57.72z" fill="#fff"/><path d="m64 .1c-35.23 0-63.89 28.67-63.89 63.9s28.67 63.89 63.9 63.89 63.89-28.67 63.89-63.89c-.01-35.23-28.66-63.9-63.9-63.9zm0 121.63c-31.84 0-57.74-25.9-57.74-57.73.01-31.84 25.91-57.73 57.74-57.73s57.73 25.9 57.73 57.74c.01 31.83-25.89 57.72-57.73 57.72z" fill="#40c0e7"/><g fill="#2f2f2f"><path d="m68.61 55.42v-44.09h-9.21v44.08c-.18.1-.37.19-.54.3l-21.38-12.35-4.61 7.97 21.38 12.34c0 .11-.03.2-.03.31 0 5.41 4.38 9.79 9.78 9.79s9.78-4.37 9.78-9.79c.01-3.71-2.1-6.91-5.17-8.56zm-.98 9.12c-.14.95-.63 1.77-1.35 2.34-.25.2-.53.38-.83.51-.02.01-.04.01-.06.02-.43.18-.9.28-1.39.28-.5 0-.97-.1-1.4-.28-.02-.01-.04-.01-.06-.02-1.31-.56-2.23-1.87-2.23-3.39 0-2.04 1.65-3.68 3.69-3.68 2.03 0 3.69 1.65 3.69 3.68 0 .18-.03.36-.06.54z"/><path d="m113.94 60.32c-2.04 0-3.69 1.65-3.69 3.68 0 2.04 1.65 3.69 3.69 3.69 2.03 0 3.68-1.65 3.68-3.69 0-2.03-1.65-3.68-3.68-3.68z"/><path d="m109.09 42.23c1.76-1.02 2.36-3.27 1.35-5.03-1.02-1.77-3.27-2.36-5.04-1.35-1.76 1.02-2.36 3.27-1.35 5.03 1.02 1.76 3.28 2.36 5.04 1.35z"/><path d="m90.81 17.57c-1.76-1.02-4.02-.41-5.03 1.35-1.02 1.76-.41 4.02 1.35 5.04s4.02.41 5.03-1.35c1.02-1.77.41-4.02-1.35-5.04z"/><path d="m40.88 23.95c1.77-1.02 2.36-3.27 1.35-5.03-1.02-1.76-3.27-2.36-5.03-1.35-1.77 1.02-2.36 3.27-1.35 5.03s3.27 2.36 5.03 1.35z"/><path d="m22.6 35.84c-1.76-1.02-4.01-.41-5.03 1.35s-.41 4.02 1.35 5.03c1.76 1.02 4.02.41 5.03-1.35 1.02-1.76.41-4.01-1.35-5.03z"/><path d="m14.07 60.31c-2.03 0-3.68 1.65-3.68 3.68 0 2.04 1.65 3.68 3.68 3.68 2.04 0 3.68-1.65 3.68-3.68s-1.65-3.68-3.68-3.68z"/><path d="m18.91 85.78c-1.76 1.02-2.36 3.27-1.35 5.03 1.02 1.76 3.28 2.36 5.03 1.35 1.77-1.02 2.37-3.27 1.35-5.04-1.01-1.76-3.26-2.36-5.03-1.34z"/><path d="m40.88 104.05c-1.77-1.02-4.01-.41-5.03 1.35-1.01 1.76-.41 4.01 1.34 5.03 1.76 1.02 4.02.41 5.04-1.34 1.01-1.76.41-4.02-1.35-5.04z"/><path d="m64 110.25c-2.04 0-3.67 1.65-3.68 3.68 0 2.03 1.65 3.68 3.69 3.68 2.03 0 3.68-1.65 3.68-3.68s-1.66-3.68-3.69-3.68z"/><path d="m87.12 104.06c-1.77 1.02-2.36 3.26-1.34 5.03 1.01 1.76 3.27 2.36 5.02 1.34 1.77-1.01 2.37-3.27 1.35-5.03-1.01-1.76-3.27-2.36-5.03-1.34z"/><path d="m109.09 85.78c-1.76-1.02-4.02-.41-5.04 1.35-1.02 1.77-.41 4.01 1.35 5.03 1.77 1.01 4.02.41 5.04-1.35 1.01-1.76.41-4.02-1.35-5.03z"/></g></svg>