<svg viewBox="0 0 128 128" xmlns="http://www.w3.org/2000/svg"><path d="m64 121.74c-31.84 0-57.74-25.9-57.74-57.73.01-31.84 25.9-57.75 57.74-57.75 31.83 0 57.73 25.9 57.73 57.74 0 31.83-25.89 57.74-57.73 57.74z" fill="#fff"/><path d="m64 .11c-35.23 0-63.9 28.66-63.9 63.89s28.67 63.89 63.9 63.89 63.9-28.66 63.9-63.89-28.66-63.89-63.9-63.89zm0 121.63c-31.84 0-57.74-25.9-57.74-57.73.01-31.84 25.9-57.75 57.74-57.75 31.83 0 57.73 25.9 57.73 57.74 0 31.83-25.89 57.74-57.73 57.74z" fill="#40c0e7"/><g fill="#2f2f2f"><path d="m68.61 55.42v-44.09h-9.21v35.49l-8.05-13.95-7.97 4.6 12.34 21.38c-.94 1.5-1.5 3.25-1.5 5.14 0 5.41 4.37 9.78 9.78 9.78 5.4 0 9.78-4.37 9.78-9.78.01-3.72-2.11-6.92-5.17-8.57zm-4.08 12.21c-.17.03-.35.05-.53.05-.5 0-.97-.1-1.4-.28-.02-.01-.04-.02-.06-.02-1.31-.56-2.23-1.87-2.23-3.39 0-2.04 1.65-3.68 3.69-3.68s3.69 1.65 3.69 3.68c0 .86-.31 1.65-.81 2.28-.38.48-.86.87-1.42 1.11-.02 0-.04.01-.06.02-.28.13-.57.19-.87.23z"/><path d="m113.93 60.32c-2.04 0-3.69 1.65-3.69 3.68s1.65 3.68 3.69 3.68c2.03 0 3.68-1.65 3.68-3.68.01-2.03-1.64-3.68-3.68-3.68z"/><path d="m109.08 42.23c1.76-1.02 2.36-3.27 1.35-5.03-1.02-1.77-3.27-2.37-5.03-1.35-1.76 1.01-2.36 3.27-1.35 5.03 1.02 1.77 3.27 2.36 5.03 1.35z"/><path d="m90.81 17.57c-1.76-1.02-4.02-.42-5.03 1.35-1.02 1.76-.41 4.02 1.35 5.03 1.76 1.02 4.02.42 5.03-1.35 1.01-1.76.41-4.01-1.35-5.03z"/><path d="m37.19 17.57c-1.77 1.01-2.36 3.27-1.35 5.03 1.01 1.77 3.27 2.37 5.03 1.35 1.77-1.02 2.36-3.27 1.34-5.03-1-1.77-3.25-2.37-5.02-1.35z"/><path d="m22.6 35.84c-1.76-1.02-4.01-.41-5.03 1.34-1.02 1.77-.41 4.02 1.35 5.03 1.76 1.02 4.02.42 5.03-1.35 1.02-1.75.41-4-1.35-5.02z"/><path d="m14.07 60.32c-2.03 0-3.68 1.65-3.68 3.68 0 2.04 1.65 3.68 3.68 3.68s3.68-1.65 3.68-3.69c0-2.03-1.65-3.67-3.68-3.67z"/><path d="m18.91 85.78c-1.76 1.01-2.36 3.27-1.35 5.03 1.02 1.76 3.27 2.36 5.03 1.35 1.77-1.02 2.37-3.27 1.35-5.04-1.01-1.76-3.26-2.36-5.03-1.34z"/><path d="m40.87 104.05c-1.77-1.02-4.01-.41-5.03 1.35-1.01 1.76-.41 4.01 1.35 5.03s4.02.41 5.03-1.35c1.02-1.75.41-4.01-1.35-5.03z"/><path d="m63.99 110.25c-2.04 0-3.67 1.64-3.68 3.68 0 2.03 1.65 3.68 3.68 3.68s3.69-1.65 3.68-3.68c.01-2.03-1.64-3.68-3.68-3.68z"/><path d="m87.12 104.06c-1.77 1.02-2.36 3.26-1.34 5.03 1.02 1.76 3.27 2.36 5.03 1.35s2.37-3.27 1.35-5.03c-1.02-1.77-3.28-2.37-5.04-1.35z"/><path d="m109.08 85.78c-1.76-1.02-4.02-.41-5.03 1.35-1.02 1.77-.42 4.01 1.35 5.03 1.76 1.01 4.01.41 5.03-1.35 1.02-1.75.42-4.02-1.35-5.03z"/></g></svg>