<svg viewBox="0 0 128 128" xmlns="http://www.w3.org/2000/svg"><path d="m64 121.74c-31.84 0-57.74-25.9-57.74-57.74.01-31.83 25.9-57.73 57.74-57.73 31.83 0 57.73 25.9 57.73 57.73 0 31.84-25.89 57.74-57.73 57.74z" fill="#fff"/><path d="m64 .1c-35.23 0-63.9 28.67-63.9 63.9 0 35.24 28.67 63.9 63.9 63.9s63.9-28.66 63.9-63.9c0-35.23-28.66-63.9-63.9-63.9zm0 121.64c-31.84 0-57.74-25.9-57.74-57.74.01-31.83 25.9-57.73 57.74-57.73 31.83 0 57.73 25.9 57.73 57.73 0 31.84-25.89 57.74-57.73 57.74z" fill="#40c0e7"/><g fill="#2f2f2f"><path d="m69.97 56.3v-26.47h-1.36v-18.5h-9.21v18.49h-1.37v26.48c-2.3 1.78-3.81 4.55-3.81 7.69 0 5.41 4.37 9.79 9.78 9.79 5.4 0 9.78-4.38 9.78-9.79.01-3.14-1.51-5.9-3.81-7.69zm-9.03 9.75c-.07-.1-.12-.21-.17-.32-.28-.51-.45-1.1-.45-1.73 0-.62.17-1.21.45-1.72.62-1.16 1.83-1.96 3.24-1.96s2.62.81 3.24 1.97c.27.51.45 1.09.45 1.71 0 .63-.17 1.21-.45 1.72-.06.12-.11.23-.17.33-.4.59-.95 1.06-1.61 1.34-.02.01-.04.02-.06.03-.43.17-.9.27-1.39.27-.5 0-.97-.1-1.4-.27-.02-.01-.04-.02-.06-.03-.67-.29-1.23-.75-1.62-1.34z"/><path d="m113.93 60.32c-2.04 0-3.69 1.65-3.69 3.69 0 2.03 1.65 3.68 3.69 3.68 2.03 0 3.68-1.65 3.68-3.68.01-2.04-1.64-3.69-3.68-3.69z"/><path d="m109.08 42.23c1.76-1.02 2.36-3.27 1.35-5.04-1.02-1.76-3.27-2.36-5.03-1.35-1.76 1.02-2.36 3.27-1.35 5.04 1.02 1.76 3.27 2.36 5.03 1.35z"/><path d="m90.81 17.57c-1.76-1.02-4.02-.42-5.03 1.35-1.02 1.76-.41 4.01 1.35 5.03 1.76 1.01 4.02.41 5.03-1.35s.41-4.02-1.35-5.03z"/><path d="m37.19 17.56c-1.77 1.02-2.36 3.27-1.35 5.03 1.01 1.77 3.27 2.37 5.03 1.35 1.77-1.01 2.36-3.27 1.34-5.03-1-1.75-3.25-2.36-5.02-1.35z"/><path d="m22.6 35.84c-1.76-1.02-4.01-.41-5.03 1.35s-.41 4.01 1.35 5.03 4.02.42 5.03-1.35c1.02-1.76.41-4.01-1.35-5.03z"/><path d="m14.07 60.32c-2.03 0-3.68 1.65-3.68 3.68s1.65 3.68 3.68 3.68c2.03.01 3.68-1.65 3.68-3.68s-1.65-3.68-3.68-3.68z"/><path d="m18.91 85.77c-1.76 1.02-2.36 3.27-1.35 5.03 1.02 1.77 3.27 2.37 5.03 1.35 1.77-1.01 2.37-3.27 1.35-5.03-1.01-1.76-3.26-2.36-5.03-1.35z"/><path d="m40.87 104.05c-1.77-1.02-4.01-.42-5.03 1.35-1.01 1.76-.41 4.01 1.35 5.03s4.02.41 5.03-1.35c1.02-1.75.41-4.01-1.35-5.03z"/><path d="m63.99 110.25c-2.04 0-3.67 1.65-3.68 3.69 0 2.03 1.65 3.67 3.68 3.68 2.03 0 3.69-1.65 3.68-3.68.01-2.04-1.64-3.69-3.68-3.69z"/><path d="m87.12 104.05c-1.77 1.02-2.36 3.27-1.34 5.03s3.27 2.37 5.03 1.35c1.76-1.01 2.37-3.27 1.35-5.03-1.02-1.75-3.28-2.36-5.04-1.35z"/><path d="m109.08 85.78c-1.76-1.02-4.02-.42-5.03 1.35-1.02 1.77-.42 4 1.35 5.02 1.76 1.02 4.01.42 5.03-1.34 1.02-1.75.42-4.01-1.35-5.03z"/></g></svg>