<svg viewBox="0 0 128 128" xmlns="http://www.w3.org/2000/svg"><path d="m63.83 6.15c-31.76 0-57.6 25.85-57.6 57.61s25.85 57.6 57.6 57.6c31.77 0 57.6-25.84 57.6-57.6.01-31.77-25.83-57.61-57.6-57.61z" fill="#fff"/><path d="m63.83 127.51c-35.15 0-63.75-28.6-63.75-63.75 0-35.16 28.6-63.76 63.75-63.76 35.16 0 63.76 28.6 63.76 63.76 0 35.15-28.6 63.75-63.76 63.75zm0-121.36c-31.76 0-57.6 25.85-57.6 57.61s25.85 57.6 57.6 57.6c31.77 0 57.6-25.84 57.6-57.6.01-31.77-25.83-57.61-57.6-57.61z" fill="#3bb2df"/><g fill="#2f2f2f"><path d="m117.33 63.76c0 2.03-1.65 3.67-3.67 3.67-2.03 0-3.67-1.65-3.67-3.67 0-2.03 1.65-3.68 3.67-3.68s3.67 1.65 3.67 3.68z"/><path d="m110.17 37.01c1.01 1.76.41 4.01-1.35 5.02s-4.01.41-5.02-1.35c-1.02-1.76-.42-4.01 1.35-5.02 1.75-1.01 4-.41 5.02 1.35z"/><path d="m90.58 17.43c1.76 1.01 2.36 3.26 1.35 5.02s-3.26 2.36-5.02 1.35c-1.75-1.01-2.36-3.26-1.35-5.02 1.02-1.77 3.27-2.37 5.02-1.35z"/><path d="m37.08 17.42c1.76-1.01 4-.41 5.02 1.35s.42 4.01-1.35 5.02c-1.75 1.02-4.01.42-5.02-1.35-1-1.75-.41-4 1.35-5.02z"/><path d="m17.5 37.01c1.02-1.75 3.27-2.36 5.02-1.34 1.76 1.01 2.36 3.26 1.35 5.02s-3.26 2.36-5.02 1.35c-1.76-1.03-2.37-3.28-1.35-5.03z"/><path d="m10.34 63.76c0-2.03 1.65-3.67 3.67-3.67 2.03 0 3.67 1.64 3.67 3.67s-1.65 3.68-3.67 3.68c-2.03-.01-3.68-1.65-3.67-3.68z"/><path d="m17.5 90.51c-1.01-1.76-.41-4.01 1.35-5.02s4-.42 5.02 1.34.42 4.01-1.35 5.02c-1.75 1.02-4.01.42-5.02-1.34z"/><path d="m37.08 110.09c-1.76-1.02-2.35-3.27-1.35-5.02 1.02-1.76 3.26-2.36 5.02-1.35 1.75 1.01 2.36 3.27 1.35 5.02-1.01 1.76-3.26 2.37-5.02 1.35z"/><path d="m90.58 110.09c-1.76 1.01-4 .41-5.02-1.35s-.42-4 1.35-5.02c1.75-1.01 4.01-.41 5.02 1.35 1.02 1.75.4 4.01-1.35 5.02z"/><path d="m110.17 90.51c-1.02 1.76-3.27 2.35-5.02 1.34-1.76-1.02-2.36-3.25-1.35-5.02 1.01-1.76 3.26-2.36 5.02-1.35 1.75 1.02 2.36 3.28 1.35 5.03z"/><path d="m59.25 60.37h9.18v55.93h-9.18z"/><path d="m73.6 63.75c0 5.4-4.37 9.76-9.77 9.76s-9.76-4.36-9.76-9.76c0-5.39 4.37-9.75 9.76-9.75s9.77 4.36 9.77 9.75z"/><path d="m73.6 63.75c0 5.4-4.37 9.76-9.77 9.76s-9.76-4.36-9.76-9.76c0-5.39 4.37-9.75 9.76-9.75s9.77 4.36 9.77 9.75z"/><path d="m60.27 59.35 8.94 2.11-8.43 35.64-8.93-2.11z"/></g><path d="m67.52 63.76c0 2.03-1.65 3.68-3.68 3.68s-3.67-1.65-3.67-3.68 1.65-3.67 3.67-3.67c2.03-.01 3.68 1.64 3.68 3.67z" fill="#fff"/><path d="m63.83 10.25c-2.03 0-3.67 1.65-3.67 3.67 0 2.03 1.64 3.67 3.67 3.67 2.04 0 3.68-1.65 3.68-3.67s-1.65-3.67-3.68-3.67z" fill="#2f2f2f"/></svg>