<svg viewBox="0 0 128 128" xmlns="http://www.w3.org/2000/svg"><path d="m64 6.26c-31.84 0-57.73 25.91-57.73 57.74s25.89 57.73 57.73 57.73c31.83 0 57.73-25.9 57.73-57.73s-25.9-57.74-57.73-57.74z" fill="#fff"/><path d="m64 127.89c-35.23 0-63.9-28.66-63.9-63.89 0-35.24 28.67-63.9 63.9-63.9s63.89 28.66 63.89 63.9c.01 35.23-28.66 63.89-63.89 63.89zm0-121.63c-31.84 0-57.73 25.91-57.73 57.74s25.89 57.73 57.73 57.73c31.83 0 57.73-25.9 57.73-57.73s-25.9-57.74-57.73-57.74z" fill="#40c0e7"/><g fill="#2f2f2f"><path d="m117.62 64c0 2.03-1.65 3.68-3.68 3.68-2.04 0-3.69-1.65-3.69-3.68s1.65-3.68 3.69-3.68c2.03 0 3.68 1.65 3.68 3.68z"/><path d="m110.43 37.2c1.01 1.76.41 4.01-1.35 5.03s-4.01.42-5.03-1.35-.42-4.02 1.35-5.03c1.76-1.02 4.02-.42 5.03 1.35z"/><path d="m90.81 17.57c1.76 1.02 2.36 3.28 1.34 5.03-1.01 1.77-3.27 2.37-5.03 1.35-1.76-1.01-2.37-3.27-1.35-5.03 1.02-1.77 3.28-2.37 5.04-1.35z"/><path d="m37.19 17.57c1.76-1.01 4.01-.42 5.03 1.35s.42 4.01-1.35 5.03c-1.76 1.02-4.02.42-5.03-1.35-1.01-1.76-.42-4.01 1.35-5.03z"/><path d="m17.57 37.19c1.02-1.76 3.27-2.36 5.03-1.34 1.76 1.01 2.36 3.27 1.35 5.02-1.02 1.77-3.27 2.37-5.04 1.35-1.76-1.01-2.36-3.26-1.34-5.03z"/><path d="m10.38 64c0-2.04 1.65-3.68 3.68-3.68 2.04 0 3.68 1.64 3.68 3.67 0 2.04-1.65 3.69-3.68 3.69s-3.69-1.64-3.68-3.68z"/><path d="m17.56 90.81c-1.02-1.77-.41-4.02 1.35-5.03 1.76-1.02 4.01-.42 5.04 1.34 1.02 1.77.41 4.02-1.35 5.04-1.76 1.01-4.02.42-5.04-1.35z"/><path d="m37.19 110.44c-1.77-1.02-2.36-3.27-1.35-5.03 1.02-1.77 3.27-2.37 5.03-1.35 1.77 1.01 2.37 3.27 1.35 5.03-1.01 1.76-3.27 2.37-5.03 1.35z"/><path d="m90.8 110.44c-1.77 1.01-4.02.41-5.03-1.35-1.02-1.77-.43-4.01 1.34-5.03 1.75-1.02 4.02-.42 5.03 1.35 1.03 1.76.43 4.02-1.34 5.03z"/><path d="m110.43 90.81c-1.02 1.77-3.27 2.36-5.03 1.35-1.77-1.02-2.37-3.27-1.35-5.03 1.01-1.76 3.27-2.37 5.03-1.35 1.77 1.01 2.37 3.27 1.35 5.03z"/><path d="m59.4 60.61h9.2v56.05h-9.2z"/><path d="m73.79 64c0 5.4-4.38 9.78-9.78 9.78s-9.78-4.37-9.78-9.78 4.38-9.78 9.78-9.78c5.39 0 9.78 4.37 9.78 9.78z"/><path d="m73.79 64c0 5.4-4.38 9.78-9.78 9.78s-9.78-4.37-9.78-9.78 4.38-9.78 9.78-9.78c5.39 0 9.78 4.37 9.78 9.78z"/><path d="m44.99 49.58h9.2v36.7h-9.2z" transform="matrix(-.2628 -.9648 .9648 -.2628 -2.9275 133.6324)"/></g><path d="m67.69 64c0 2.03-1.65 3.68-3.69 3.68s-3.69-1.65-3.69-3.68 1.65-3.68 3.69-3.68 3.69 1.65 3.69 3.68z" fill="#fff"/><path d="m64 10.38c-2.04 0-3.68 1.65-3.69 3.68 0 2.03 1.64 3.68 3.67 3.68 2.04 0 3.7-1.65 3.69-3.68.01-2.03-1.64-3.69-3.67-3.68z" fill="#2f2f2f"/></svg>