<svg xmlns="http://www.w3.org/2000/svg" viewBox="0 0 128 128"><path fill="#563428" d="M5.65 113.36v3.52c0 1.66 1.34 3 3 3h18.49c1.66 0 3-1.34 3-3v-3.52H5.65ZM98.86 113.36v3.52c0 1.66 1.34 3 3 3h18.49c1.66 0 3-1.34 3-3v-3.52H98.86Z"/><path fill="#8B5738" d="M124.27 96.21c-1.26-6.22-5.51-9.3-6.53-10.36-4.8-4.98-9.98-7.13-9.98-27 0-24.21-19.58-43.83-43.76-43.93-24.18.1-43.76 19.72-43.76 43.93 0 19.87-5.18 22.03-9.98 27C9.24 86.91 5 89.99 3.73 96.21c-1.26 6.22-.5 18.28-.5 18.28h121.54s.77-12.06-.5-18.28Z"/><path fill="#563428" d="M101.378 58.825c1.113 19.806-14.747 36.804-35.424 37.966-20.678 1.162-38.343-13.952-39.456-33.758-1.112-19.807 14.748-36.805 35.425-37.967 20.678-1.162 38.343 13.953 39.455 33.759Z"/><path fill="#FCEBCD" d="M98.19 59.2a33.42 33.42 0 1 1-66.84 0 33.42 33.42 0 1 1 66.84 0Z"/><path fill="#E2A610" d="M99.566 58.85q0 14.657-10.364 25.022Q78.837 94.236 64.18 94.236q-14.657 0-25.022-10.364Q28.794 73.507 28.794 58.85q0-14.657 10.364-25.022Q49.523 23.464 64.18 23.464q14.657 0 25.022 10.364Q99.566 44.193 99.566 58.85Zm-3.932 0q0-13.029-9.213-22.241-9.212-9.213-22.241-9.213t-22.241 9.213q-9.213 9.212-9.213 22.241t9.213 22.241q9.212 9.213 22.241 9.213t22.241-9.213q9.213-9.212 9.213-22.241Z"/><path fill="#FFE36C" d="M32.584 45.213q2.001-5.134 6.434-9.876 4.788-5.12 10.527-7.637.9-.395 1.295.505.198.45.071.774-.126.324-.576.521-5.369 2.355-9.881 7.18-4.174 4.465-6.038 9.247-.357.916-1.273.559-.916-.357-.559-1.273Z"/><path fill="#BA793E" d="M24.08 46.49c2.46-9.38 11.27-21.68 24.04-26.59.86-.33 1.77.48 1.47 1.36-1.2 3.47-3.4 4.36-4.11 4.75-7.78 4.33-13.41 11.75-16.15 17.83-.19.41-.94 2.88-3.79 4.03-1.2.48-1.7-.47-1.46-1.38ZM3.01 105.98h120.87v3.47H3.01v-3.47Z"/><path fill="#563428" d="M112.17 80.11a23.89 23.89 0 0 1-2.44-5.08c-.57-1.69-.96-3.43-1.24-5.19-.34-2.15-.88-4.73-.65-6.9-1.54 14.37-9.98 26.67-21.97 33.49-.42.24-.63.73-.5 1.2.16.59.8.93 1.38.72 4.31-1.53 8.45-3.52 12.29-5.99 3.73-2.4 6.7-5.82 10.73-7.69 1.62-.75 3.41-1.24 5.2-1.13-1.04-.97-1.98-2.15-2.8-3.43ZM17.97 75.7s1.88-6.95 2.12-12.75c1.54 14.37 9.98 26.67 21.97 33.49.42.24.63.73.5 1.2-.16.59-.8.93-1.38.72-10.74-3.81-21.12-13.47-23.21-22.66Z"/><g fill="#3E2723" opacity=".5"><path d="m50.912 33.919 2.64 4.58q.491.852-.361 1.343t-1.343-.361l-2.64-4.58q-.491-.852.361-1.343t1.343.361ZM76.512 78.249l2.64 4.58q.491.852-.361 1.343t-1.343-.361l-2.64-4.58q-.491-.852.361-1.343t1.343.361ZM40.212 43.889l4.58 2.65q.851.492.359 1.343t-1.343.359l-4.58-2.65q-.851-.492-.359-1.343t1.343-.359ZM84.551 69.488l4.58 2.64q.852.491.361 1.343t-1.343.361l-4.58-2.64q-.852-.491-.361-1.343t1.343-.361ZM79.152 34.901l-2.64 4.58q-.491.852-1.343.361-.426-.246-.516-.581-.09-.336.155-.762l2.64-4.58q.491-.852 1.343-.361.426.246.516.581.09.336-.155.762ZM53.552 79.231l-2.64 4.58q-.246.426-.581.516-.336.09-.762-.155-.852-.491-.361-1.343l2.64-4.58q.246-.426.581-.516.336-.09.762.155.852.491.361 1.343ZM89.132 45.591l-4.58 2.65q-.851.492-1.343-.359t.359-1.343l4.58-2.65q.851-.492 1.343.359t-.359 1.343ZM44.791 71.192l-4.58 2.64q-.852.491-1.343-.361-.245-.426-.155-.762.09-.335.516-.581l4.58-2.64q.852-.491 1.343.361.245.426.155.762-.09.335-.516.581ZM92.42 59.843h-5.28q-.983 0-.983-.983t.983-.983h5.28q.983 0 .983.983t-.983.983ZM41.23 59.843h-5.29q-.983 0-.983-.983t.983-.983h5.29q.983 0 .983.983t-.983.983ZM65.163 30.63v5.28q0 .983-.983.983t-.983-.983v-5.28q0-.983.983-.983t.983.983ZM65.163 81.82v5.28q0 .983-.983.983t-.983-.983v-5.28q0-.983.983-.983t.983.983Z"/></g><path fill="#BA793E" d="M20.34 87.9c.28 1.04.35 2.16-.01 3.17-.58 1.63-2.14 2.66-3.48 3.75-1.6 1.3-3 2.84-4.14 4.56-.52.79-1 1.62-1.68 2.29-.68.66-1.6 1.15-2.54 1.04-1.2-.14-2.11-1.24-2.38-2.41-.27-1.17-.02-2.41.32-3.56 1.11-3.74 3.23-7.15 6.03-9.85 1.06-1.02 3.02-3.14 4.61-3.09 1.81.05 2.88 2.65 3.27 4.1Z"/><path fill="#3E2723" d="M67.3 58.86a3.12 3.12 0 1 1-6.24 0 3.12 3.12 0 1 1 6.24 0Z"/><path fill="#3E2723" d="M83.27 47.77a.538.538 0 0 0-.51-.26c-.48.05-1.04.09-1.63.09-1.34.02-2.79-.28-3.61.25-1.32.85-1.43 2.08-1.29 2.96l-12.08 5.74.89 1.56 1.12 1.91 10.96-7.68c.69.56 1.81 1.07 3.2.36.87-.45 1.34-1.85 2.02-3 .3-.5.61-.97.89-1.36.14-.19.13-.4.04-.57Z"/><path fill="#3E2723" d="M56.02 53.02c.13-.88 0-2.08-1.3-2.92-.82-.53-2.27-.24-3.61-.25-.58-.01-1.14-.05-1.63-.09-.23-.02-.4.1-.51.26-.09.17-.1.38.03.57.28.39.6.86.89 1.36.68 1.15 1.16 2.55 2.02 3 1.37.71 2.48.21 3.18-.33l7.22 5.42 1.12-1.91.89-1.56-8.3-3.55Z"/></svg>