<svg xmlns="http://www.w3.org/2000/svg" viewBox="0 0 128 128"><defs><radialGradient id="a" cx="46.465" cy="-5.176" r="60.973" gradientUnits="userSpaceOnUse"><stop offset="0" stop-color="#2F7889"/><stop offset="1" stop-color="#424242"/></radialGradient></defs><path fill="#B7D5E5" d="M71.59 68.58H58.75c0 20.36-4.21 28.52-4.21 28.52H75.8c0-.01-4.21-8.17-4.21-28.52Z"/><path fill="#2F7889" d="M39.41 98.17c-.07-1.14.1-2.64.1-2.64s45.24-1.88 48.83-.09c0 0 .48 1.66.15 2.74-.79 2.53-10.99 4.8-24.55 4.8s-24.37-2.16-24.53-4.81Z"/><path fill="#B7D5E5" d="M88.55 95.96a24.55 4.8 0 1 1-49.1 0 24.55 4.8 0 1 1 49.1 0Z"/><path fill="#69A1BA" d="M71.59 68.58H58.75c0 6.64-.45 11.98-1.05 16.16l15.31 2.3c-.78-4.47-1.42-10.54-1.42-18.46Z"/><path fill="#EEE" d="M55.49 91.46s-3.72 1.52-2.88 2.63c1.3 1.74 4.93 2.83 13.71 3.42 6.17.41 3.75 2.13-2.05 2.48-4.07.24-23.58.4-24.74-3.67-.94-3.31 13.18-4.86 15.96-4.86ZM99.4 106.51H28.49c-.97 0-1.94.54-2.48 1.4l-7.78 10.7c-.72.98-.01 2.36 1.2 2.36h89.13c1.22 0 1.92-1.38 1.2-2.36l-7.88-10.8c-.53-.76-1.5-1.3-2.48-1.3Z"/><g fill="#69A1BA" opacity=".57"><path d="M35.61 111.26h-4.86l.65-1.18h4.86ZM43.28 111.26h-4.86l.54-1.18h5.07ZM50.62 111.26h-4.97l.76-1.18h4.85ZM57.85 111.26h-4.86l.76-1.18h4.64ZM65.08 111.26h-4.97l.44-1.18h4.1ZM72.31 111.26h-4.86l-.54-1.18h4.65ZM79.87 111.26H74.9l-.86-1.18h4.86ZM87.1 111.26h-4.97l-.86-1.18h4.97ZM96.92 111.26h-7.45l-.86-1.18h7.56ZM93.14 113.21H98l-.86-1.3h-4.97ZM85.16 113.21h4.85l-.97-1.3h-4.86ZM77.82 113.21h4.85l-.75-1.3h-4.97ZM69.94 113.21h4.85l-.86-1.3h-4.64ZM62.92 113.21h4.86l-.54-1.3h-4.1ZM55.9 113.21h4.86l.33-1.3h-4.75ZM48.24 113.21h4.86l.65-1.3H49ZM39.61 113.21h4.96l.76-1.3h-4.97ZM29.68 113.21h7.34l.75-1.3h-7.45ZM76.09 115.15h4.96l-.86-1.3h-4.96ZM68.32 115.15h4.85l-.64-1.3h-4.64ZM59.03 115.15H64l-.11-1.3h-4.42ZM50.29 115.15h4.97l.43-1.3h-4.75ZM41.12 115.15h4.85l.76-1.3h-4.86ZM28.7 115.15h9.83l.75-1.3h-9.82ZM84.4 115.15h14.68l-.86-1.3H83.54ZM95.52 117.09h4.96l-.97-1.29h-4.96ZM86.45 117.09h4.86l-.97-1.29h-4.86ZM47.27 117.09h33.35l-.75-1.29H48.02ZM36.8 117.09h4.96l.54-1.29h-4.75ZM27.52 117.09h4.85l.54-1.29h-4.75Z"/></g><path fill="#2F7889" d="M108.69 124H19.31c-.88 0-1.64-.76-1.64-1.62v-2.4h92.68v2.4c-.01.86-.78 1.62-1.66 1.62Z"/><path fill="#B7D5E5" d="M99.4 107.52c.61 0 1.3.36 1.67.88l8.22 11.27c.05.06.05.13.02.2-.04.07-.09.1-.17.1H18.86c-.08 0-.13-.03-.17-.1a.166.166 0 0 1 .02-.2l8.12-11.16.02-.03.02-.03c.35-.57.99-.93 1.63-.93h70.9m0-1.01H28.49c-.97 0-1.94.54-2.48 1.4l-8.12 11.16c-.57.79-.01 1.9.97 1.9h90.29c.98 0 1.54-1.11.97-1.9l-8.22-11.27c-.55-.75-1.52-1.29-2.5-1.29Z"/><path fill="#69A1BA" d="M113.46 79.66H14.54a3.44 3.44 0 0 1-3.44-3.44v-67c0-1.9 1.54-3.44 3.44-3.44h98.91c1.9 0 3.44 1.54 3.44 3.44v67c.01 1.9-1.53 3.44-3.43 3.44Z"/><path fill="#B7D5E5" d="M113.46 77.89H14.54a3.44 3.44 0 0 1-3.44-3.44v-67c0-1.9 1.54-3.44 3.44-3.44h98.91c1.9 0 3.44 1.54 3.44 3.44v67a3.431 3.431 0 0 1-3.43 3.44Z"/><path fill="url(#a)" d="M15.25 9.38h97.5V72.5h-97.5V9.38Z"/><path fill="#EEE" d="M16.39 5.483h11.19q1.507 0 1.507 1.507T27.58 8.497H16.39q-1.507 0-1.507-1.507t1.507-1.507Z"/></svg>