<svg xmlns="http://www.w3.org/2000/svg" viewBox="0 0 128 128"><defs><linearGradient id="a" x1="117.05" x2="117.05" y1="68.631" y2="111.352" gradientUnits="userSpaceOnUse"><stop offset=".337" stop-color="#616161"/><stop offset="1" stop-color="#616161" stop-opacity="0"/></linearGradient></defs><path fill="#BDBDBD" d="M6.81 35.5v75.03c0 3.12 2.9 5.21 6.32 7.61 3.53 2.48 5.48 2.25 7.17 2.25l95.86.62c3.77 0 5.03-2.57 5.03-5.34V35.5H6.81Z"/><path fill="url(#a)" d="m121.19 115.66-8.28-8.51V35.5l8.28 5.02Z" opacity=".29"/><path fill="#C62828" d="m121.19 41.22-6.46-4.05L104.62 14h5.44c9.65 0 11.13 5.57 11.13 7.47v19.75Z"/><path fill="#FAFAFA" d="M9.75 36.33v72.13c0 2.7 2.19 4.88 4.88 4.88h94.85c2.7 0 5.22-2.01 5.22-4.71v-72.3H9.75Z"/><path fill="#F44336" d="M114.73 37.17H6.81V18.55c0-2.51 2.57-4.55 5.75-4.55h96.59c3.19 0 5.77 2.05 5.75 4.58l-.17 18.59Z"/><path fill="#757575" d="M103.71 116.62c-3.18.39-6.36.55-9.54.83-3.18.2-6.36.38-9.54.49-3.18.16-6.36.19-9.54.28l-9.54.09-9.54-.09c-3.18-.09-6.36-.13-9.54-.28-3.18-.11-6.36-.29-9.54-.49-3.18-.28-6.36-.45-9.54-.83v-.2l38.15-.1 38.15.1v.2Z"/><path fill="#B3E5FC" d="M42.46 45.08V57.2h-26.3v49.25h52.15V94.18h38.74v-49.1Z"/><path fill="#AF1E1E" d="M22.07 19.8a2.96 3.3 0 1 1-5.92 0 2.96 3.3 0 1 1 5.92 0Z"/><path fill="#94D1E0" d="M20.48 17.08c-.41-.86-.69-1.93-.69-3.08 0-2.67 1.39-4.93 3.04-4.93 1.65 0 3.04 2.26 3.04 4.93h4.48c0-5.47-3.37-9.93-7.51-9.93S15.33 8.52 15.33 14c0 1.95.43 3.76 1.16 5.3.67 1.39 2.1 2.01 3.37 1.34 1.06-.58 1.2-2.36.62-3.56Z"/><path fill="#2F7889" d="M30.35 14c0-3.35-1.27-6.31-3.19-8.11.02.06.57 1.49-.21 2.86-.79 1.4-2.43 1.18-2.43 1.18.81.9 1.35 2.4 1.35 4.07h4.48Z"/><path fill="#AF1E1E" d="M38.55 19.8a2.96 3.3 0 1 1-5.92 0 2.96 3.3 0 1 1 5.92 0Z"/><path fill="#94D1E0" d="M36.96 17.08c-.41-.86-.69-1.93-.69-3.08 0-2.67 1.39-4.93 3.04-4.93 1.65 0 3.04 2.26 3.04 4.93h4.48c0-5.47-3.37-9.93-7.51-9.93S31.81 8.52 31.81 14c0 1.95.43 3.76 1.16 5.3.67 1.39 2.1 2.01 3.37 1.34 1.06-.58 1.2-2.36.62-3.56Z"/><path fill="#2F7889" d="M43.64 5.89c.02.06.57 1.49-.21 2.86C42.64 10.14 41 9.93 41 9.93c.81.9 1.35 2.4 1.35 4.07h4.49c0-3.35-1.28-6.31-3.2-8.11Z"/><path fill="#AF1E1E" d="M55.02 19.8a2.96 3.3 0 1 1-5.92 0 2.96 3.3 0 1 1 5.92 0Z"/><path fill="#94D1E0" d="M53.44 17.08c-.41-.86-.69-1.93-.69-3.08 0-2.67 1.39-4.93 3.04-4.93 1.65 0 3.04 2.26 3.04 4.93h4.48c0-5.47-3.37-9.93-7.51-9.93S48.29 8.52 48.29 14c0 1.95.43 3.76 1.16 5.3.67 1.39 2.1 2.01 3.37 1.34 1.06-.58 1.2-2.36.62-3.56Z"/><path fill="#2F7889" d="M60.11 5.89c.02.06.57 1.49-.21 2.86-.79 1.4-2.43 1.18-2.43 1.18.81.9 1.35 2.4 1.35 4.07h4.51c.01-3.35-1.29-6.31-3.22-8.11Z"/><path fill="#AF1E1E" d="M71.5 19.8a2.96 3.3 0 1 1-5.92 0 2.96 3.3 0 1 1 5.92 0Z"/><path fill="#94D1E0" d="M69.92 17.08c-.41-.86-.69-1.93-.69-3.08 0-2.67 1.39-4.93 3.04-4.93 1.65 0 3.04 2.26 3.04 4.93h4.48c0-5.47-3.37-9.93-7.51-9.93S64.77 8.52 64.77 14c0 1.95.43 3.76 1.16 5.3.67 1.39 2.1 2.01 3.37 1.34 1.06-.58 1.19-2.36.62-3.56Z"/><path fill="#2F7889" d="M76.59 5.89c.02.06.57 1.49-.21 2.86-.79 1.4-2.43 1.18-2.43 1.18.81.9 1.35 2.4 1.35 4.07h4.52c.01-3.35-1.3-6.31-3.23-8.11Z"/><path fill="#AF1E1E" d="M87.98 19.8a2.96 3.3 0 1 1-5.92 0 2.96 3.3 0 1 1 5.92 0Z"/><path fill="#94D1E0" d="M86.39 17.08c-.41-.86-.69-1.93-.69-3.08 0-2.67 1.39-4.93 3.04-4.93 1.65 0 3.04 2.26 3.04 4.93h4.48c0-5.47-3.37-9.93-7.51-9.93S81.24 8.52 81.24 14c0 1.95.43 3.76 1.16 5.3.67 1.39 2.1 2.01 3.37 1.34 1.06-.58 1.2-2.36.62-3.56Z"/><path fill="#2F7889" d="M93.07 5.89c.02.06.57 1.49-.21 2.86-.79 1.4-2.43 1.18-2.43 1.18.81.9 1.35 2.4 1.35 4.07h4.54c0-3.35-1.33-6.31-3.25-8.11Z"/><path fill="#AF1E1E" d="M104.46 19.8a2.96 3.3 0 1 1-5.92 0 2.96 3.3 0 1 1 5.92 0Z"/><path fill="#94D1E0" d="M102.87 17.08c-.41-.86-.69-1.93-.69-3.08 0-2.67 1.39-4.93 3.04-4.93 1.65 0 3.04 2.26 3.04 4.93h4.48c0-5.47-3.37-9.93-7.51-9.93S97.72 8.52 97.72 14c0 1.95.43 3.76 1.16 5.3.67 1.39 2.1 2.01 3.37 1.34 1.06-.58 1.2-2.36.62-3.56Z"/><path fill="#2F7889" d="M112.8 14.18c-.15-4.02-1.45-6.6-3.26-8.28.02.06.57 1.49-.21 2.86-.79 1.4-2.43 1.18-2.43 1.18.81.9 1.21 2.4 1.21 4.07h1.53c1.27-.02 3.16.17 3.16.17Z"/><path fill="#1E88E5" d="M17.16 45.12v61.83h-1V44.62h1ZM30.07 45.12v61.83h-1V44.62h1ZM42.98 45.12v61.83h-1V44.62h1ZM55.9 45.12v61.83h-1V44.62h1ZM68.81 45.12v61.83h-1V44.62h1ZM81.72 45.12v61.83h-1V44.62h1ZM94.64 45.12v61.83h-1V44.62h1ZM107.55 45.12v61.83h-1V44.62h1Z"/><path fill="#1E88E5" d="M16.66 105.95h90.89v1H16.16v-1ZM16.66 93.68h90.89v1H16.16v-1ZM16.66 81.42h90.89v1H16.16v-1ZM16.66 69.15h90.89v1H16.16v-1ZM16.66 56.89h90.89v1H16.16v-1ZM16.66 44.62h90.89v1H16.16v-1ZM104.94 48.12a1.26 1.26 0 1 1-2.52 0 1.26 1.26 0 1 1 2.52 0ZM91.96 48.12a1.26 1.26 0 1 1-2.52 0 1.26 1.26 0 1 1 2.52 0ZM78.98 48.12a1.26 1.26 0 1 1-2.52 0 1.26 1.26 0 1 1 2.52 0ZM65.99 48.12a1.26 1.26 0 1 1-2.52 0 1.26 1.26 0 1 1 2.52 0ZM53.01 48.12a1.26 1.26 0 1 1-2.52 0 1.26 1.26 0 1 1 2.52 0ZM40.03 48.12a1.26 1.26 0 1 1-2.52 0 1.26 1.26 0 1 1 2.52 0ZM27.05 48.12a1.26 1.26 0 1 1-2.52 0 1.26 1.26 0 1 1 2.52 0ZM104.94 60.39a1.26 1.26 0 1 1-2.52 0 1.26 1.26 0 1 1 2.52 0ZM91.96 60.39a1.26 1.26 0 1 1-2.52 0 1.26 1.26 0 1 1 2.52 0ZM78.98 60.39a1.26 1.26 0 1 1-2.52 0 1.26 1.26 0 1 1 2.52 0ZM65.99 60.39a1.26 1.26 0 1 1-2.52 0 1.26 1.26 0 1 1 2.52 0ZM53.01 60.39a1.26 1.26 0 1 1-2.52 0 1.26 1.26 0 1 1 2.52 0ZM40.03 60.39a1.26 1.26 0 1 1-2.52 0 1.26 1.26 0 1 1 2.52 0ZM27.05 60.39a1.26 1.26 0 1 1-2.52 0 1.26 1.26 0 1 1 2.52 0ZM104.94 72.65a1.26 1.26 0 1 1-2.52 0 1.26 1.26 0 1 1 2.52 0ZM91.96 72.65a1.26 1.26 0 1 1-2.52 0 1.26 1.26 0 1 1 2.52 0ZM78.98 72.65a1.26 1.26 0 1 1-2.52 0 1.26 1.26 0 1 1 2.52 0ZM65.99 72.65a1.26 1.26 0 1 1-2.52 0 1.26 1.26 0 1 1 2.52 0ZM53.01 72.65a1.26 1.26 0 1 1-2.52 0 1.26 1.26 0 1 1 2.52 0ZM40.03 72.65a1.26 1.26 0 1 1-2.52 0 1.26 1.26 0 1 1 2.52 0ZM27.05 72.65a1.26 1.26 0 1 1-2.52 0 1.26 1.26 0 1 1 2.52 0ZM104.94 97.18a1.26 1.26 0 1 1-2.52 0 1.26 1.26 0 1 1 2.52 0ZM91.96 97.18a1.26 1.26 0 1 1-2.52 0 1.26 1.26 0 1 1 2.52 0ZM78.98 97.18a1.26 1.26 0 1 1-2.52 0 1.26 1.26 0 1 1 2.52 0ZM65.99 97.18a1.26 1.26 0 1 1-2.52 0 1.26 1.26 0 1 1 2.52 0ZM53.01 97.18a1.26 1.26 0 1 1-2.52 0 1.26 1.26 0 1 1 2.52 0ZM40.03 97.18a1.26 1.26 0 1 1-2.52 0 1.26 1.26 0 1 1 2.52 0ZM27.05 97.18a1.26 1.26 0 1 1-2.52 0 1.26 1.26 0 1 1 2.52 0ZM104.94 84.92a1.26 1.26 0 1 1-2.52 0 1.26 1.26 0 1 1 2.52 0ZM91.96 84.92a1.26 1.26 0 1 1-2.52 0 1.26 1.26 0 1 1 2.52 0ZM78.98 84.92a1.26 1.26 0 1 1-2.52 0 1.26 1.26 0 1 1 2.52 0ZM65.99 84.92a1.26 1.26 0 1 1-2.52 0 1.26 1.26 0 1 1 2.52 0ZM53.01 84.92a1.26 1.26 0 1 1-2.52 0 1.26 1.26 0 1 1 2.52 0ZM40.03 84.92a1.26 1.26 0 1 1-2.52 0 1.26 1.26 0 1 1 2.52 0ZM27.05 84.92a1.26 1.26 0 1 1-2.52 0 1.26 1.26 0 1 1 2.52 0Z"/></svg>