<svg xmlns="http://www.w3.org/2000/svg" viewBox="0 0 128 128"><path fill="#1976D2" d="m66.13 68.34 56.04-29.23s.02-.74 0-1.26L59.86 10.83a.914.914 0 0 0-.79.03L4.89 39.52c-.21.11-.33.32-.33.55v52.95c0 .62.35 1.19.89 1.47l1.68.87c1.52.78 55.95 29.27 57.75 28.62.53-.19.93-.55 1.25-.98V68.34Z"/><path fill="#039BE5" d="M64.7 67.32c6.65-3.21 57.55-27.78 57.47-29.47L59.82 10.81a.829.829 0 0 0-.72.03L4.87 39.53c-.13.07-.13.26.01.32l58.38 27.47c.46.21.98.21 1.44 0Z"/><path fill="#0D47A1" d="m122.72 94.41-56.76 29.26c-.9.46-1.96-.19-1.96-1.2V68.93c0-1.27.85-1.73 1.3-1.96L121.48 38c.9-.46 1.96-.15 1.96 1.2v54.02c.01.5-.27.96-.72 1.19Z"/><path fill="#212121" d="M74.89 46.1 42.64 29.99l6.05-3.01 32.25 16.11Z"/><path fill="#0D47A1" d="m78.23 41.74-23.81-11.9s5.34-4.95 17.4-11.33c.45-.24 2.67-1.53 3.15-1.28l28.27 12.3c-11.5 1.46-25.01 12.21-25.01 12.21Z"/><path fill="#0D47A1" d="m48.69 28.78 30.44 15.2 1.81-.89-32.25-16.11-6.05 3.01 1.8.9Z"/><path fill="#DFECF5" d="M98.96 17.94c-11.65 7.11-26.53 26.93-26.53 26.93l-24.8-12.39S60.78 10.94 76.15 4.15c.46-.2 1.01-.22 1.49.04l21.18 11.2c1.08.57 1.12 1.95.14 2.55Z"/><path fill="#0D47A1" d="M63.98 74.86 4.55 46.9v2.19l59.43 27.96.43-.2Z" opacity=".7"/><path fill="#0A3160" d="M64 74.85v2.19l59.45-30.5v-2.23Z"/><path fill="#616161" d="M39.24 48.13c0-3.48 2.07-4.14 4.63-4.14s4.63.81 4.63 4.14c0 1.54-2.07 2.78-4.63 2.78s-4.63-1.24-4.63-2.78Z"/><path fill="#E0E0E0" d="M48.29 46.65a4.42 2.78 0 1 1-8.84 0 4.42 2.78 0 1 1 8.84 0Z"/></svg>