<svg viewBox="0 0 128 128" xmlns="http://www.w3.org/2000/svg"><path d="m16.32 33.04c19.11-28.61 51.01-41.66 84.83-24.46 22.64 11.52 30.5 38.85 20.67 70.98-4.05 13.25 6.08 15.5 5.43 22.53-1.29 13.77-28.23 25.05-63.06 25.05s-62.14-11.25-63.07-25.05c-1.88-27.79 3.01-50.77 15.2-69.05" fill="#fcc21b"/><path d="m53.58 31.2c-3.16 4.31-8.61 5.67-12.17 3.08-3.55-2.62-3.89-8.22-.73-12.51 3.16-4.32 8.6-5.67 12.15-3.05 3.55 2.58 3.89 8.2.75 12.48" fill="#2f2f2f"/><path d="m91.83 44.07c-.43-.02-.85-.13-1.25-.35-7.48-4.12-15.81-6.07-15.9-6.09-1.23-.27-2.13-1.35-2.21-2.62s.68-2.44 1.87-2.87c8.67-3.18 18.85-4.12 19.28-4.16 1.62-.14 2.97 1.02 3.11 2.59.15 1.58-1.02 2.97-2.6 3.13-.06 0-3.89.35-8.7 1.32 2.5.96 5.24 2.19 7.91 3.66 1.39.77 1.9 2.52 1.13 3.9-.54.99-1.58 1.54-2.64 1.49z" fill="#2f2f2f"/><path d="m78.7 63.19c-.81.12-1.6.27-2.34.41-1.99.39-2.72.36-2.62-1.71.06-1.32.32-2.66.47-3.97.33-2.88 1.39-5.69 3.56-7.66 3.08-2.82 7.66-3.73 11.03-.7 1.66 1.49 3.41 4.46 3.69 6.71.17 1.31-.07 1.9-1.23 2.43-.89.4-1.78.4-2.76.97-.79.47-1.6.93-2.38 1.44-2.21 1.44-4.85 1.65-7.42 2.08" fill="#d7598b"/><path d="m57.03 67.79c-12.62-1.51-21.58-6.35-22.24-6.71-1.6-.89-2.18-2.9-1.3-4.5.89-1.61 2.93-2.18 4.51-1.31.17.09 10.2 5.49 23.7 6.17 7.42.38 15.89-.68 24.33-4.82.83-.41 5.83-2.93 5.83-2.93s.84.96.8 2.68c-.01.69-.15 1.95-.93 3.18-1.62 2.55-5.12 4.09-5.26 4.14-10.82 4.78-20.47 5.17-29.44 4.1z" fill="#2f2f2f"/></svg>