<svg viewBox="0 0 128 128" xmlns="http://www.w3.org/2000/svg"><path d="m16.13 32.91c19.18-28.73 51.21-41.83 85.17-24.56 22.73 11.57 30.62 39.01 20.75 71.27-4.07 13.31 6.11 15.56 5.45 22.62-1.3 13.82-28.34 25.15-63.32 25.15-34.97 0-62.4-11.3-63.33-25.15-1.87-27.9 3.04-50.97 15.28-69.33" fill="#fcc21b"/><path d="m37.65 29.23h.07c3.41.22 6.74.73 9.69 1.32-3.94-3.77-7.33-6.37-7.38-6.42-1.42-1.1-1.7-3.12-.61-4.54 1.08-1.43 3.11-1.7 4.54-.61.38.3 9.51 7.32 15.83 15.55.86 1.14.88 2.72.04 3.87-.66.9-1.7 1.38-2.77 1.33-.32-.01-.63-.07-.93-.17-.09-.04-9.22-3.24-18.83-3.86-1.79-.12-3.15-1.66-3.04-3.45.12-1.75 1.64-3.1 3.39-3.02z" fill="#2f2f2f"/><path d="m99.76 41.72c-.07.01-5.39.17-11.92 1.15 3.24 1.43 6.89 3.25 10.4 5.45 1.52.95 1.99 2.95 1.04 4.48-.65 1.03-1.76 1.57-2.9 1.51-.54-.02-1.08-.18-1.57-.48-9.03-5.65-19.25-8.65-19.36-8.68-1.38-.4-2.33-1.67-2.33-3.1-.01-1.43.93-2.7 2.31-3.12 10.95-3.25 23.61-3.66 24.14-3.67 1.81-.09 3.28 1.36 3.34 3.15.05 1.78-1.35 3.26-3.15 3.31z" fill="#2f2f2f"/><path d="m72.59 63.69c.11-1.89-5.61-1.97-6.82-2.34-1.73-.51-3.31-1.21-5.12-1.54-5.41-1.01-10.3-4.45-15.89-4.59-6.07-.15-10.63 3.62-13.63 8.63-1.6 2.64-2.52 6.44-1.41 9.5.68 1.9 1.69 3.43 3.6 4.73 2.9 1.96 8.42 2.48 12.34.91 6.21-2.51 9.02-6.89 13.42-10.51 5.67-4.69 10.97-4.66 13.51-4.79z" fill="#d7598b"/><path d="m87.45 65.91c-39.98 0-55.09-15.58-55.72-16.25-1.1-1.17-1.05-3.02.13-4.12 1.17-1.1 3.01-1.05 4.12.12.22.23 14.41 14.42 51.49 14.42.23 0 .42.04.68 0 1.61 0 2.91 1.3 2.92 2.91s-1.29 2.93-2.91 2.93c-.24-.01-.47-.01-.71-.01z" fill="#2f2f2f"/></svg>