<svg viewBox="0 0 128 128" xmlns="http://www.w3.org/2000/svg"><path d="m112.75 37.62h-.01c-10.07-13.75-29.04-23.09-48.74-23.09s-38.66 9.34-48.74 23.09h-.01s-14.99 12.21-14.99 31.27c0 19.52 12.7 28.79 12.7 28.79s.04.01.05.01c5.53 9.05 26.23 15.78 50.98 15.78 24.76 0 45.45-6.73 50.98-15.78.01 0 .05-.01.05-.01s12.69-9.27 12.69-28.79c.02-19.06-14.96-31.27-14.96-31.27z" fill="#fcc21b"/><path d="m32.85 87.4c-11.77 4.23-24.74-1.73-29.02-13.34-4.27-11.59 1.78-24.44 13.53-28.69 11.74-4.21 24.74 1.76 29.04 13.37 4.25 11.61-1.82 24.45-13.55 28.66z" fill="#fcc21b"/><path d="m32.53 86.52c-11.27 4.05-23.71-1.66-27.8-12.79-4.09-11.11 1.7-23.42 12.97-27.48 11.24-4.04 23.7 1.68 27.81 12.8 4.07 11.13-1.74 23.44-12.98 27.47z" fill="#fcc01c"/><path d="m32.2 85.64c-10.78 3.87-22.67-1.59-26.59-12.23-3.91-10.62 1.63-22.4 12.4-26.28 10.75-3.86 22.66 1.61 26.6 12.25 3.9 10.63-1.66 22.4-12.41 26.26z" fill="#fcbe1c"/><path d="m31.88 84.76c-10.29 3.7-21.64-1.52-25.38-11.67-3.73-10.13 1.56-21.37 11.84-25.08 10.26-3.69 21.63 1.54 25.38 11.69 3.72 10.15-1.58 21.38-11.84 25.06z" fill="#fbbb1d"/><path d="m31.55 83.88c-9.8 3.51-20.6-1.45-24.16-11.11-3.55-9.65 1.48-20.35 11.27-23.88 9.77-3.51 20.59 1.46 24.17 11.13 3.54 9.66-1.51 20.36-11.28 23.86z" fill="#fbb91e"/><path d="m31.23 83c-9.3 3.34-19.56-1.38-22.94-10.55-3.37-9.17 1.41-19.33 10.7-22.68 9.27-3.33 19.56 1.39 22.95 10.57 3.36 9.18-1.43 19.33-10.71 22.66z" fill="#fbb71e"/><path d="m30.91 82.12c-8.81 3.16-18.53-1.3-21.73-9.99-3.2-8.68 1.33-18.3 10.14-21.48 8.78-3.16 18.52 1.32 21.74 10.01 3.17 8.69-1.37 18.31-10.15 21.46z" fill="#fbb51f"/><path d="m30.58 81.25c-8.32 2.98-17.49-1.23-20.51-9.44-3.02-8.2 1.26-17.28 9.57-20.28 8.29-2.98 17.49 1.24 20.52 9.45 3 8.2-1.28 17.28-9.58 20.27z" fill="#fab220"/><path d="m30.26 80.37c-7.82 2.81-16.46-1.16-19.3-8.88-2.84-7.71 1.18-16.26 9-19.08 7.8-2.8 16.45 1.17 19.31 8.89 2.82 7.72-1.21 16.26-9.01 19.07z" fill="#fab020"/><path d="m29.93 79.49c-7.33 2.63-15.42-1.08-18.09-8.32-2.66-7.23 1.11-15.23 8.44-17.88 7.31-2.63 15.42 1.1 18.09 8.33 2.66 7.23-1.12 15.24-8.44 17.87z" fill="#faae21"/><path d="m29.61 78.61c-6.84 2.45-14.38-1.01-16.87-7.76-2.48-6.74 1.04-14.21 7.87-16.68 6.82-2.45 14.38 1.02 16.88 7.77 2.47 6.75-1.06 14.21-7.88 16.67z" fill="#faac22"/><path d="m29.28 77.73c-6.35 2.27-13.35-.94-15.66-7.2-2.3-6.25.96-13.19 7.3-15.48 6.33-2.28 13.34.95 15.66 7.21 2.31 6.26-.96 13.19-7.3 15.47z" fill="#f9a922"/><path d="m28.96 76.85c-5.85 2.1-12.31-.87-14.44-6.64-2.12-5.77.89-12.16 6.74-14.28 5.84-2.1 12.31.87 14.45 6.65 2.11 5.78-.91 12.17-6.75 14.27z" fill="#f9a723"/><path d="m28.64 75.97c-5.36 1.92-11.28-.8-13.23-6.08-1.94-5.28.81-11.14 6.17-13.08 5.35-1.92 11.27.8 13.23 6.09 1.94 5.29-.83 11.14-6.17 13.07z" fill="#f9a524"/><path d="m28.31 75.09c-4.87 1.74-10.24-.72-12.01-5.53-1.76-4.8.74-10.12 5.6-11.87s10.25.72 12.02 5.53c1.77 4.8-.75 10.12-5.61 11.87z" fill="#f9a324"/><path d="m27.99 74.21c-4.38 1.57-9.21-.65-10.8-4.97-1.59-4.31.67-9.09 5.04-10.67 4.37-1.57 9.2.65 10.8 4.97 1.58 4.32-.68 9.1-5.04 10.67z" fill="#f8a025"/><path d="m27.66 73.33c-3.88 1.39-8.17-.58-9.58-4.41s.59-8.07 4.47-9.47c3.87-1.39 8.17.58 9.59 4.41 1.4 3.83-.6 8.07-4.48 9.47z" fill="#f89e26"/><path d="m27.34 72.45c-3.39 1.21-7.13-.51-8.37-3.85-1.23-3.34.52-7.05 3.9-8.27s7.14.5 8.37 3.85c1.24 3.34-.52 7.05-3.9 8.27z" fill="#f89c26"/><path d="m27.02 71.57c-2.9 1.03-6.1-.43-7.15-3.29s.44-6.03 3.34-7.07c2.89-1.04 6.1.43 7.16 3.29 1.04 2.86-.46 6.03-3.35 7.07z" fill="#f89a27"/><path d="m26.69 70.69c-2.4.86-5.06-.36-5.94-2.73-.87-2.37.37-5 2.77-5.87s5.07.36 5.94 2.73c.88 2.37-.37 5-2.77 5.87z" fill="#f79728"/><path d="m26.37 69.81c-1.91.68-4.03-.29-4.73-2.17s.29-3.98 2.21-4.67c1.91-.69 4.03.28 4.73 2.17.69 1.89-.3 3.98-2.21 4.67z" fill="#f79528"/><path d="m26.04 68.93c-1.42.5-2.99-.22-3.51-1.61-.51-1.4.22-2.96 1.64-3.47s2.99.21 3.51 1.61-.22 2.96-1.64 3.47z" fill="#f79329"/><path d="m111.48 87.4c-11.77 4.22-24.74-1.74-29.02-13.35-4.26-11.59 1.78-24.44 13.54-28.68 11.73-4.21 24.73 1.76 29.03 13.36 4.25 11.62-1.81 24.46-13.55 28.67z" fill="#fcc21b"/><path d="m111.16 86.52c-11.28 4.05-23.71-1.66-27.81-12.79-4.08-11.11 1.7-23.42 12.97-27.48 11.24-4.04 23.7 1.68 27.81 12.8 4.08 11.13-1.73 23.44-12.97 27.47z" fill="#fcc01c"/><path d="m110.83 85.64c-10.78 3.87-22.67-1.59-26.59-12.23-3.91-10.62 1.63-22.4 12.4-26.28 10.75-3.86 22.66 1.61 26.6 12.25 3.9 10.63-1.66 22.4-12.41 26.26z" fill="#fcbe1c"/><path d="m110.51 84.76c-10.29 3.69-21.63-1.52-25.38-11.67-3.73-10.14 1.56-21.37 11.84-25.08 10.26-3.69 21.63 1.54 25.38 11.69 3.72 10.15-1.58 21.38-11.84 25.06z" fill="#fbbb1d"/><path d="m110.18 83.88c-9.8 3.51-20.6-1.45-24.16-11.11-3.55-9.65 1.48-20.35 11.27-23.88 9.77-3.51 20.59 1.46 24.17 11.13 3.54 9.66-1.51 20.36-11.28 23.86z" fill="#fbb91e"/><path d="m109.86 83c-9.3 3.34-19.56-1.38-22.95-10.55-3.37-9.17 1.41-19.33 10.7-22.68 9.28-3.33 19.56 1.39 22.95 10.57 3.37 9.18-1.42 19.33-10.7 22.66z" fill="#fbb71e"/><path d="m109.54 82.12c-8.81 3.16-18.53-1.3-21.73-9.99-3.19-8.68 1.33-18.3 10.14-21.48 8.79-3.16 18.52 1.32 21.74 10.01 3.17 8.69-1.37 18.31-10.15 21.46z" fill="#fbb51f"/><path d="m109.21 81.25c-8.32 2.98-17.49-1.23-20.52-9.44-3.01-8.2 1.26-17.28 9.57-20.28 8.29-2.98 17.49 1.24 20.52 9.45 3.01 8.2-1.27 17.28-9.57 20.27z" fill="#fab220"/><path d="m108.89 80.37c-7.83 2.81-16.46-1.16-19.3-8.88-2.84-7.71 1.18-16.26 9-19.08 7.8-2.8 16.45 1.17 19.31 8.89 2.82 7.72-1.21 16.26-9.01 19.07z" fill="#fab020"/><path d="m108.56 79.49c-7.33 2.63-15.42-1.08-18.09-8.32-2.66-7.23 1.11-15.23 8.44-17.88 7.31-2.63 15.42 1.1 18.09 8.33 2.66 7.23-1.12 15.24-8.44 17.87z" fill="#faae21"/><path d="m108.24 78.61c-6.84 2.45-14.38-1.01-16.87-7.76-2.48-6.74 1.03-14.21 7.87-16.68 6.82-2.45 14.38 1.02 16.88 7.77 2.47 6.75-1.06 14.21-7.88 16.67z" fill="#faac22"/><path d="m107.92 77.73c-6.35 2.27-13.35-.94-15.66-7.2-2.3-6.25.96-13.19 7.3-15.48 6.33-2.28 13.34.95 15.66 7.21 2.3 6.26-.98 13.19-7.3 15.47z" fill="#f9a922"/><path d="m107.59 76.85c-5.85 2.1-12.31-.87-14.44-6.64-2.12-5.77.89-12.16 6.74-14.28 5.84-2.1 12.31.87 14.45 6.65 2.11 5.78-.91 12.17-6.75 14.27z" fill="#f9a723"/><path d="m107.27 75.97c-5.36 1.92-11.28-.8-13.23-6.08-1.94-5.28.81-11.14 6.17-13.08 5.35-1.92 11.27.8 13.23 6.09 1.94 5.29-.83 11.14-6.17 13.07z" fill="#f9a524"/><path d="m106.94 75.09c-4.87 1.74-10.24-.72-12.01-5.53-1.76-4.8.74-10.12 5.6-11.87s10.24.73 12.02 5.53c1.76 4.8-.75 10.12-5.61 11.87z" fill="#f9a324"/><path d="m106.62 74.21c-4.38 1.57-9.21-.65-10.8-4.97-1.59-4.31.66-9.09 5.03-10.67 4.37-1.57 9.2.65 10.8 4.97 1.59 4.32-.67 9.1-5.03 10.67z" fill="#f8a025"/><path d="m106.29 73.33c-3.88 1.39-8.17-.58-9.58-4.41s.59-8.07 4.47-9.47c3.88-1.39 8.18.58 9.59 4.41s-.6 8.07-4.48 9.47z" fill="#f89e26"/><path d="m105.97 72.45c-3.39 1.21-7.13-.51-8.37-3.85-1.23-3.34.51-7.05 3.9-8.27s7.14.5 8.37 3.85c1.24 3.34-.52 7.05-3.9 8.27z" fill="#f89c26"/><path d="m105.65 71.57c-2.9 1.03-6.1-.43-7.15-3.29s.44-6.03 3.33-7.07c2.9-1.04 6.1.43 7.16 3.29 1.05 2.86-.46 6.03-3.34 7.07z" fill="#f89a27"/><path d="m105.32 70.69c-2.41.86-5.06-.36-5.94-2.73-.87-2.37.36-5 2.77-5.87s5.07.36 5.94 2.73c.88 2.37-.37 5-2.77 5.87z" fill="#f79728"/><path d="m105 69.81c-1.91.69-4.03-.29-4.72-2.17-.69-1.89.29-3.98 2.2-4.67s4.03.28 4.73 2.17c.69 1.89-.31 3.99-2.21 4.67z" fill="#f79528"/><path d="m104.67 68.93c-1.42.5-2.99-.22-3.51-1.61-.52-1.4.22-2.96 1.63-3.47 1.42-.51 2.99.21 3.51 1.61s-.21 2.96-1.63 3.47z" fill="#f79329"/><g fill="#2f2f2f"><path d="m85.25 56.89c-5.95 7.13-2.84 14.07-2.7 14.36.4.88.03 1.92-.85 2.33-.24.11-.49.17-.74.17-.66 0-1.28-.37-1.58-1-.1-.22-1.54-3.37-1.2-7.73-.15-.06-.3-.04-.43-.13-.02-.01-4.02-2.59-12.87-2.35-8.92.24-12.29 2.27-12.33 2.29-.34.21-.71.27-1.08.27.3 4.31-1.1 7.43-1.21 7.64-.3.63-.93 1-1.58 1-.25 0-.51-.06-.75-.17-.86-.42-1.24-1.46-.83-2.33.14-.29 3.25-7.23-2.71-14.36-.62-.74-.53-1.85.22-2.47.74-.62 1.84-.52 2.46.22 1.87 2.24 3.01 4.47 3.67 6.57 1.24-.67 5.33-2.48 14.03-2.71 7.7-.19 12.28 1.52 14.21 2.46.67-2.02 1.78-4.18 3.58-6.33.61-.74 1.72-.84 2.47-.22.74.64.84 1.75.22 2.49z"/><path d="m95.99 32.92c-.23-.67-.74-1.2-1.38-1.48-.65-.28-1.38-.27-2.02.03l-16.29 7.44s-1.06.5-2.15.48c-2.24-.03-2.48-1.33-3.06-2.31-.27-.47-.92-.94-1.54-.68-1.06.44-.99 2.75-.91 3.33.24 1.71.74 3.04 1.22 4 .58 1.17 1.89 2.78 2.33 3.22 2.42 2.41 6.58 3.91 10.81 3.67 1.74-.1 3.42-.48 4.99-1.12 8.83-3.63 9.63-11.91 8-16.58z"/><path d="m33.43 32.92c.23-.67.74-1.2 1.38-1.48.65-.28 1.38-.27 2.03.03l16.29 7.44s1.06.5 2.15.48c2.24-.03 2.48-1.33 3.05-2.31.27-.47.92-.94 1.55-.68 1.06.44.99 2.75.91 3.33-.24 1.71-.74 3.04-1.21 4-.58 1.17-1.89 2.78-2.33 3.22-2.43 2.41-6.58 3.91-10.82 3.67-1.75-.1-3.42-.48-4.99-1.12-8.84-3.63-9.63-11.91-8.01-16.58z"/></g></svg>