<svg viewBox="0 0 128 128" xmlns="http://www.w3.org/2000/svg"><path d="m37.63 10.71c-30.75 6.47-43.86 37.19-33.39 65.42 4.28 11.51-.92 12.84-.92 19.19 0 13.37 27.63 24.22 61.73 24.22 34.09 0 61.73-10.85 61.73-24.22 4.55-40.11-20.04-99.13-89.15-84.61z" fill="#fcc21b"/><g fill="#2f2f2f"><path d="m26.37 75.68c-6.76.26-10.42-4.08-10.58-4.27-.86-1.04-.72-2.58.32-3.44s2.57-.72 3.43.32c.08.11 2.66 3.07 7.61 2.42 4.91-.62 6.72-4.21 6.74-4.25.57-1.22 2.03-1.76 3.26-1.17 1.22.57 1.73 2.03 1.16 3.26-.11.24-2.91 6.05-10.53 7.02-.48.05-.95.09-1.41.11z"/><path d="m74.26 94.67c-.59.69-1.44 1.06-2.26 1.08-.72.02-1.44-.22-2.03-.7-.72-.61-18.1-14.78-36.07-.86-1.32 1.03-3.23.78-4.26-.55-1.04-1.32-.79-3.22.55-4.25 21.89-16.96 43.48.82 43.69 1.01 1.28 1.08 1.44 2.99.38 4.27z"/><path d="m68.96 71.63c-7.3.28-11.25-4.4-11.43-4.6-.92-1.1-.75-2.72.34-3.63 1.1-.91 2.71-.76 3.62.34.09.12 2.94 3.32 8.33 2.67 5.33-.69 7.3-4.52 7.38-4.69.62-1.26 2.15-1.79 3.43-1.19 1.25.61 1.8 2.11 1.21 3.39-.13.27-3.14 6.52-11.36 7.59-.53.06-1.03.11-1.52.12z"/></g><path d="m90.95 91.37c-1.89.9-4.28.96-6.08.01-2.19-1.2-2.74-3.06-3.41-5.35-.38-1.34-.63-2.64-.76-3.75-.31-2.84-1.44-5.46-1.81-8.23-.11-.79 0-1.88.96-1.83.81.02 1.97.59 2.72.92 4.92 2.1 10.3 6 11.09 11.77.46 3.35-.92 5.62-2.71 6.46z" fill="#fff"/></svg>