<svg viewBox="0 0 128 128" xmlns="http://www.w3.org/2000/svg" xmlns:xlink="http://www.w3.org/1999/xlink"><defs><path id="a" d="m37.25 12.85c-29.33 5.37-44.39 31.48-33.8 60.05 4.32 11.65-.96 13-.96 19.42 0 13.53 27.99 24.52 62.49 24.52 34.54 0 62.52-10.99 62.52-24.52 4.6-40.59-27.29-91.06-90.25-79.47z"/><clipPath id="b"><use xlink:href="#a"/></clipPath></defs><use fill="#fcc21b" xlink:href="#a"/><g clip-path="url(#b)"><path d="m35.48 90.83c-5.32 10.5-18.82 15.59-29.69 10.81-10.68-4.74-13.79-16.89-7.39-26.63 6-9.13 18.36-12.98 28.03-8.96 9.82 4.05 14.03 14.92 9.05 24.78z" fill="#fcc21b"/><path d="m34.83 90.6c-5.14 10.15-18.19 15.07-28.69 10.44-10.31-4.58-13.32-16.31-7.14-25.72 5.8-8.83 17.74-12.54 27.08-8.66 9.5 3.91 13.57 14.41 8.75 23.94z" fill="#fcc01c"/><path d="m34.19 90.37c-4.97 9.79-17.55 14.54-27.69 10.08-9.96-4.43-12.86-15.75-6.89-24.83 5.59-8.52 17.12-12.1 26.14-8.36 9.16 3.77 13.08 13.91 8.44 23.11z" fill="#fcbe1c"/><path d="m33.54 90.14c-4.79 9.44-16.92 14.02-26.69 9.71-9.6-4.26-12.4-15.17-6.64-23.93 5.39-8.21 16.5-11.66 25.19-8.06 8.83 3.64 12.62 13.42 8.14 22.28z" fill="#fbbb1d"/><path d="m32.9 89.9c-4.61 9.08-16.28 13.49-25.68 9.35-9.24-4.1-11.93-14.6-6.4-23.03 5.19-7.9 15.88-11.22 24.25-7.75 8.49 3.5 12.13 12.91 7.83 21.43z" fill="#fbb91e"/><path d="m32.25 89.67c-4.43 8.73-15.65 12.96-24.68 8.98-8.88-3.93-11.47-14.03-6.15-22.13 4.99-7.59 15.26-10.79 23.3-7.45 8.17 3.37 11.67 12.41 7.53 20.6z" fill="#fbb71e"/><path d="m31.61 89.44c-4.25 8.37-15.01 12.44-23.68 8.62-8.52-3.78-11-13.47-5.9-21.23 4.78-7.29 14.64-10.35 22.36-7.15 7.83 3.23 11.19 11.9 7.22 19.76z" fill="#fbb51f"/><path d="m30.96 89.21c-4.07 8.02-14.38 11.91-22.68 8.25-8.16-3.62-10.54-12.9-5.65-20.34 4.58-6.98 14.03-9.91 21.41-6.85 7.5 3.1 10.72 11.41 6.92 18.94z" fill="#fab220"/><path d="m30.31 88.98c-3.89 7.66-13.74 11.38-21.68 7.89-7.8-3.46-10.07-12.33-5.4-19.44 4.38-6.67 13.41-9.48 20.47-6.54 7.17 2.95 10.25 10.89 6.61 18.09z" fill="#fab020"/><path d="m29.67 88.75c-3.71 7.31-13.11 10.86-20.68 7.52-7.44-3.3-9.61-11.76-5.15-18.54 4.18-6.36 12.79-9.04 19.52-6.24 6.84 2.82 9.78 10.39 6.31 17.26z" fill="#faae21"/><path d="m29.02 88.52c-3.53 6.96-12.47 10.33-19.67 7.16-7.08-3.14-9.14-11.19-4.9-17.64 3.97-6.05 12.17-8.6 18.58-5.94 6.5 2.68 9.29 9.88 5.99 16.42z" fill="#faac22"/><path d="m28.38 88.28c-3.35 6.6-11.84 9.8-18.67 6.79-6.72-2.97-8.68-10.61-4.66-16.73 3.77-5.74 11.55-8.16 17.63-5.64 6.18 2.54 8.83 9.38 5.7 15.58z" fill="#f9a922"/><path d="m27.73 88.05c-3.17 6.25-11.2 9.28-17.67 6.43-6.36-2.82-8.21-10.05-4.4-15.84 3.57-5.44 10.93-7.73 16.69-5.34 5.84 2.41 8.34 8.88 5.38 14.75z" fill="#f9a723"/><path d="m27.08 87.82c-2.99 5.89-10.57 8.75-16.67 6.06-6-2.66-7.74-9.48-4.15-14.95 3.37-5.13 10.31-7.29 15.74-5.03 5.51 2.28 7.88 8.38 5.08 13.92z" fill="#f9a524"/><path d="m26.44 87.59c-2.81 5.54-9.93 8.23-15.67 5.7-5.64-2.5-7.28-8.91-3.9-14.05 3.16-4.82 9.69-6.85 14.8-4.73 5.17 2.14 7.4 7.88 4.77 13.08z" fill="#f9a324"/><path d="m25.79 87.36c-2.63 5.18-9.3 7.7-14.67 5.34-5.27-2.34-6.81-8.34-3.65-13.15 2.96-4.51 9.07-6.41 13.85-4.43 4.85 1.99 6.93 7.37 4.47 12.24z" fill="#f8a025"/><path d="m25.15 87.13c-2.45 4.83-8.66 7.17-13.67 4.97-4.92-2.18-6.35-7.77-3.4-12.25 2.76-4.2 8.45-5.97 12.91-4.13 4.51 1.86 6.45 6.87 4.16 11.41z" fill="#f89e26"/><path d="m24.5 86.9c-2.27 4.47-8.03 6.65-12.67 4.61-4.56-2.02-5.88-7.2-3.16-11.35 2.56-3.9 7.83-5.54 11.96-3.82 4.2 1.71 6 6.35 3.87 10.56z" fill="#f89c26"/><path d="m23.86 86.67c-2.09 4.12-7.39 6.12-11.66 4.24-4.2-1.87-5.43-6.63-2.91-10.46 2.35-3.59 7.22-5.1 11.02-3.52 3.84 1.59 5.5 5.86 3.55 9.74z" fill="#f89a27"/><path d="m23.21 86.43c-1.91 3.77-6.76 5.59-10.66 3.88-3.83-1.7-4.95-6.06-2.66-9.56 2.15-3.28 6.6-4.66 10.07-3.22 3.52 1.46 5.04 5.36 3.25 8.9z" fill="#f79728"/><path d="m22.56 86.2c-1.74 3.41-6.12 5.07-9.66 3.51-3.47-1.54-4.49-5.49-2.41-8.66 1.95-2.97 5.98-4.22 9.13-2.92 3.19 1.32 4.56 4.86 2.94 8.07z" fill="#f79528"/><path d="m21.92 85.97c-1.56 3.06-5.49 4.54-8.66 3.15-3.11-1.38-4.02-4.92-2.16-7.76 1.74-2.66 5.36-3.79 8.18-2.62 2.86 1.18 4.09 4.35 2.64 7.23z" fill="#f79329"/></g><g clip-path="url(#b)"><path d="m63.68 92.6c9.27 10.63 25.64 12.43 35.86 3.49 10.06-8.83 9.42-24-.77-33.42-9.55-8.84-24.27-9.52-33.45-1.84-9.35 7.75-10.32 21.77-1.64 31.77z" fill="#fcc21b"/><path d="m64.31 92.13c8.95 10.28 24.77 12.01 34.65 3.37 9.72-8.53 9.1-23.19-.74-32.29-9.23-8.54-23.44-9.18-32.32-1.78-9.03 7.51-9.98 21.04-1.59 30.7z" fill="#fcc01c"/><path d="m64.93 91.66c8.64 9.92 23.91 11.59 33.44 3.25 9.38-8.23 8.78-22.38-.72-31.16-8.9-8.24-22.62-8.86-31.19-1.72-8.7 7.25-9.62 20.3-1.53 29.63z" fill="#fcbe1c"/><path d="m65.56 91.19c8.33 9.56 23.04 11.17 32.23 3.14 9.04-7.94 8.47-21.57-.69-30.03-8.58-7.94-21.8-8.54-30.06-1.66-8.39 6.98-9.28 19.56-1.48 28.55z" fill="#fbbb1d"/><path d="m66.18 90.72c8.02 9.2 22.18 10.75 31.02 3.02 8.7-7.64 8.15-20.76-.66-28.91-8.26-7.64-20.98-8.22-28.94-1.6-8.07 6.73-8.92 18.84-1.42 27.49z" fill="#fbb91e"/><path d="m66.81 90.25c7.7 8.84 21.32 10.33 29.81 2.9 8.36-7.34 7.83-19.95-.64-27.78-7.94-7.35-20.16-7.9-27.81-1.53-7.75 6.46-8.57 18.1-1.36 26.41z" fill="#fbb71e"/><path d="m67.44 89.78c7.39 8.48 20.45 9.92 28.6 2.78 8.02-7.04 7.51-19.14-.61-26.65-7.62-7.05-19.35-7.58-26.68-1.47-7.45 6.2-8.24 17.36-1.31 25.34z" fill="#fbb51f"/><path d="m68.06 89.31c7.08 8.12 19.59 9.5 27.39 2.67 7.68-6.75 7.2-18.33-.58-25.52-7.29-6.75-18.53-7.26-25.55-1.41-7.13 5.93-7.89 16.62-1.26 24.26z" fill="#fab220"/><path d="m68.69 88.84c6.77 7.77 18.72 9.08 26.18 2.55 7.34-6.45 6.88-17.52-.56-24.4-6.97-6.45-17.71-6.94-24.42-1.35-6.82 5.68-7.54 15.9-1.2 23.2z" fill="#fab020"/><path d="m69.31 88.37c6.45 7.41 17.86 8.66 24.97 2.43 7-6.15 6.56-16.71-.53-23.27-6.65-6.15-16.89-6.62-23.3-1.28-6.49 5.41-7.18 15.16-1.14 22.12z" fill="#faae21"/><path d="m69.94 87.9c6.14 7.05 16.99 8.24 23.76 2.31 6.67-5.85 6.24-15.9-.51-22.14-6.33-5.86-16.08-6.29-22.17-1.22-6.18 5.15-6.83 14.42-1.08 21.05z" fill="#faac22"/><path d="m70.56 87.43c5.83 6.69 16.13 7.82 22.55 2.2 6.33-5.56 5.93-15.09-.48-21.02-6-5.56-15.26-5.98-21.04-1.16-5.86 4.89-6.48 13.69-1.03 19.98z" fill="#f9a922"/><path d="m71.19 86.96c5.52 6.33 15.26 7.4 21.34 2.08 5.99-5.26 5.61-14.28-.45-19.89-5.68-5.26-14.44-5.65-19.91-1.1-5.56 4.63-6.14 12.96-.98 18.91z" fill="#f9a723"/><path d="m71.82 86.49c5.2 5.97 14.4 6.98 20.13 1.96 5.65-4.96 5.29-13.47-.43-18.76-5.36-4.96-13.62-5.33-18.78-1.03-5.24 4.36-5.79 12.22-.92 17.83z" fill="#f9a524"/><path d="m72.44 86.02c4.89 5.62 13.53 6.56 18.93 1.85 5.31-4.66 4.97-12.67-.4-17.63-5.04-4.66-12.8-5.01-17.66-.97-4.93 4.09-5.44 11.47-.87 16.75z" fill="#f9a324"/><path d="m73.07 85.55c4.58 5.26 12.67 6.14 17.72 1.73 4.97-4.36 4.65-11.85-.37-16.51-4.72-4.37-11.98-4.69-16.53-.91-4.62 3.84-5.11 10.75-.82 15.69z" fill="#f8a025"/><path d="m73.69 85.08c4.27 4.9 11.8 5.72 16.51 1.61 4.63-4.07 4.34-11.04-.35-15.38-4.39-4.07-11.17-4.37-15.4-.85-4.29 3.58-4.75 10.02-.76 14.62z" fill="#f89e26"/><path d="m74.32 84.61c3.95 4.54 10.94 5.3 15.3 1.49 4.29-3.77 4.02-10.24-.32-14.25-4.07-3.77-10.35-4.05-14.27-.79-3.99 3.32-4.41 9.28-.71 13.55z" fill="#f89c26"/><path d="m74.94 84.14c3.64 4.18 10.07 4.89 14.09 1.38 3.95-3.47 3.7-9.43-.3-13.12-3.75-3.47-9.53-3.73-13.14-.72-3.66 3.04-4.05 8.53-.65 12.46z" fill="#f89a27"/><path d="m75.57 83.67c3.33 3.82 9.21 4.47 12.88 1.26 3.61-3.17 3.38-8.62-.27-12-3.43-3.17-8.71-3.41-12.02-.66-3.35 2.79-3.7 7.81-.59 11.4z" fill="#f79728"/><path d="m76.2 83.2c3.02 3.46 8.34 4.05 11.67 1.14 3.27-2.88 3.07-7.81-.24-10.87-3.1-2.88-7.9-3.09-10.89-.6-3.04 2.53-3.36 7.08-.54 10.33z" fill="#f79528"/><path d="m76.82 82.73c2.71 3.11 7.48 3.63 10.46 1.02 2.93-2.58 2.75-7-.22-9.74-2.78-2.58-7.08-2.78-9.76-.54-2.72 2.26-3 6.34-.48 9.26z" fill="#f79329"/></g><g fill="#2f2f2f"><path d="m36.47 64.8c-.09.25-2.27 6.06-9.31 7.28-.62.12-1.23.18-1.8.2-5.97.24-9.48-3.65-9.64-3.83-.91-1.04-.83-2.62.21-3.55 1.04-.92 2.61-.82 3.54.2.13.16 2.61 2.73 6.82 2.04 4.15-.72 5.46-4.01 5.46-4.06.48-1.3 1.92-1.98 3.21-1.51 1.31.49 1.98 1.92 1.51 3.23z"/><path d="m55.1 82.13c-1 .63-1.94 1.37-2.9 2.12-1.74 1.44-3.88 3.68-6.26 3.53-2.08-.12-3.79-1.81-5.37-3.03-1.04-.8-2.12-1.52-3.38-1.88-1.07-.31-2.21-.14-3.16-.97-.85-.79-.98-2.23.05-2.94.86-.58 2.71-.09 3.65.14s1.89.63 2.8.89c2.15.65 4.46 4.99 6.71 2.65 1.27-1.3 2.75-2.69 4.33-3.53 1.85-.99 3.88-2.05 5.96-2.05 1.17.01 2.29.07 2.43 1.6.18 1.95-3.6 2.7-4.86 3.47z"/><path d="m63.18 67.29c-.64.11-1.29.17-1.89.2-6.37.26-10.18-3.89-10.35-4.09-.96-1.06-.88-2.69.19-3.64 1.06-.96 2.69-.88 3.65.17.13.15 2.94 3.04 7.54 2.25 4.57-.79 6-4.35 6.06-4.5.51-1.32 2-2 3.33-1.51 1.32.51 2.01 1.97 1.52 3.31-.1.25-2.43 6.49-10.05 7.81z"/></g></svg>