<svg viewBox="0 0 128 128" xmlns="http://www.w3.org/2000/svg"><path d="m28.66 64.9h76.51v19.2h-76.51z" fill="#2f2f2f"/><path d="m41.43 95.16h45.56v19.2h-45.56z" fill="#2f2f2f"/><path d="m125.08 85.23-7.85-1.42c.07-1.88.04-3.78-.08-5.68l8.07-1.2c1.16-.17 1.97-1.26 1.8-2.43s-1.27-1.96-2.42-1.79l-7.96 1.19c-.99-5.66-3.23-11.27-6.52-16.35 1.05-10.02 3.05-37.17-5.09-42.64-6.49-4.36-21.95 11.83-26.94 17.63-1.15 1.34-2.2 2.55-3.16 3.65-3.48-.53-7.02-.82-10.55-.82-3.52 0-7.06.29-10.54.82-.97-1.1-2.01-2.31-3.16-3.65-4.98-5.81-20.44-21.99-26.94-17.64-8.15 5.47-6.13 32.64-5.09 42.65-3.31 5.11-5.55 10.76-6.53 16.45l-8.71-1.3c-1.17-.16-2.25.63-2.43 1.79-.17 1.17.63 2.26 1.8 2.43l8.83 1.32c-.11 1.81-.14 3.63-.08 5.43l-8.61 1.55c-1.16.21-1.93 1.32-1.72 2.48.19 1.03 1.09 1.75 2.1 1.75.12 0 .25-.01.38-.03l8.2-1.48c.27 2.11.71 4.18 1.33 6.2l-6.56 2.08c-1.12.36-1.75 1.56-1.39 2.68.29.91 1.12 1.49 2.03 1.49.22 0 .43-.03.65-.1l6.8-2.16c1.97 4.25 4.98 8.15 9.4 11.45 6.05 4.51 13.58 7.57 21.33 9.23 2.95.63 10.56 2.1 18.55 2.1s16.35-1.47 19.3-2.1c7.75-1.66 15.28-4.72 21.33-9.23 4.35-3.24 7.33-7.07 9.3-11.24l6.13 1.95c.21.07.43.1.65.1.9 0 1.74-.58 2.03-1.49.35-1.12-.27-2.32-1.39-2.68l-5.86-1.86c.65-2.04 1.1-4.14 1.38-6.28l7.45 1.34c.13.02.26.03.38.03 1.01 0 1.91-.72 2.1-1.75.19-1.15-.58-2.26-1.74-2.47zm-92.57-10.04c0-4.58 3.3-8.29 7.37-8.29 4.06 0 7.36 3.71 7.36 8.29s-3.3 8.3-7.36 8.3c-4.07 0-7.37-3.71-7.37-8.3zm51.32 23.55c-.27 1.67-.7 3.42-1.46 4.96-1.1 2.21-2.83 4.18-5.03 5.49-4.26 2.53-9.23 3.2-14.18 3.21-7.55.02-15.09-3.94-17.54-10.87-.17-.48-.61-1.78-.72-2.9-.09-.98.08-1.84.93-1.9 1.12-.07 1.93.81 2.73 1.41.74.55 1.66.85 2.53 1.15 1.07.36 2.13.74 3.24.96 1.19.24 2.53.09 3.7-.16 1.7-.36 2.93-1.3 4.35-2.16.88-.53 1.87-.88 2.97-.7.65.11 1.32.43 1.9.7.85.38 1.66.95 2.48 1.4.72.39 1.5.54 2.35.56 1.88.05 3.78.24 5.61-.34.87-.28 1.69-.56 2.48-1 1.52-.84 4.15-2.84 3.66.19zm5.07-15.25c-4.07 0-7.37-3.71-7.37-8.3 0-4.58 3.3-8.29 7.37-8.29 4.06 0 7.36 3.71 7.36 8.29 0 4.59-3.3 8.3-7.36 8.3z" fill="#f79329"/></svg>