<svg viewBox="0 0 128 128" xmlns="http://www.w3.org/2000/svg"><path d="m107.84 81.88c0 15.9-19.34 28.8-43.2 28.8s-43.2-12.9-43.2-28.8c0-15.91 19.34-28.8 43.2-28.8 23.85 0 43.2 12.89 43.2 28.8z" fill="#2f2f2f"/><path d="m125.08 92.17-10.3-1.86c.31-1.64.52-3.3.63-4.98l9.81-1.46c1.16-.18 1.97-1.26 1.8-2.43s-1.25-1.95-2.43-1.8l-9.07 1.36c-.02-1.03-.05-2.05-.12-3.08-.52-7.78-3.55-15.69-8.47-22.46-.69-10.66-3.24-36.41-11.93-40.37-6.81-3.1-18.65 13.69-23.13 20.87-3.05-.4-6.15-.6-9.23-.6-2.94 0-5.89.19-8.8.56-4.49-7.24-16.22-23.95-23.02-20.88-8.57 3.87-11.25 28.91-12.03 39.84-5.17 6.89-8.37 15.03-8.91 23.04-.06.89-.1 1.79-.12 2.68l-6.36-.95c-1.16-.15-2.25.63-2.42 1.8s.63 2.25 1.8 2.43l7.06 1.05c.12 1.98.35 3.94.75 5.86l-7.68 1.38c-1.16.21-1.93 1.32-1.72 2.48.19 1.03 1.09 1.75 2.1 1.75.12 0 .25-.01.38-.03l8.03-1.45c.67 2 1.55 3.94 2.65 5.8l-7.71 2.45c-1.12.35-1.75 1.55-1.39 2.68.29.91 1.13 1.49 2.03 1.49.21 0 .43-.03.65-.1l8.98-2.85c1.53 1.85 3.33 3.6 5.48 5.2 6.05 4.51 13.57 7.57 21.33 9.23 2.95.63 10.56 2.1 18.55 2.1s16.35-1.47 19.3-2.1c7.75-1.66 15.28-4.72 21.33-9.23 2.41-1.8 4.38-3.78 6.01-5.89l11.16 3.55c.21.07.43.1.65.1.9 0 1.74-.58 2.03-1.49.35-1.12-.27-2.33-1.39-2.68l-10.01-3.18c.98-1.78 1.78-3.63 2.38-5.53l10.59 1.91c.13.02.26.03.38.03 1.01 0 1.91-.72 2.1-1.75.21-1.16-.56-2.27-1.72-2.49zm-88.14-9.4c-5.48 0-9.94-4.21-9.94-9.41 0-1.18.25-2.3.68-3.34l17.72 8.25c-1.76 2.69-4.88 4.5-8.46 4.5zm55.18 19.13c-.38 1.11-1.41 1.82-2.53 1.82-.28 0-.57-.04-.85-.14-2.37-.8-4.19-1.87-5.6-3.03-6.84 4.31-13.38 5.71-18.9 5.71-9.12 0-15.47-3.72-15.89-3.97-1.26-.76-1.67-2.39-.91-3.66.76-1.26 2.39-1.67 3.65-.92.56.33 13.55 7.76 28.6-1.32-1.05-1.92-1.27-3.45-1.29-3.59-.19-1.46.83-2.8 2.3-3 1.45-.18 2.78.82 2.99 2.26.04.25.85 4.47 6.76 6.46 1.39.47 2.14 1.98 1.67 3.38zm-3.78-19.13c-4.02 0-7.46-2.27-9.03-5.52l17.79-8.28c.74 1.31 1.2 2.79 1.2 4.38-.01 5.21-4.47 9.42-9.96 9.42z" fill="#f79329"/></svg>