<svg viewBox="0 0 128 128" xmlns="http://www.w3.org/2000/svg"><path d="m104.95 83.35c0 17.91-19.34 32.42-43.2 32.42s-43.2-14.51-43.2-32.42c0-17.9 19.34-32.41 43.2-32.41s43.2 14.51 43.2 32.41z" fill="#2f2f2f"/><path d="m125.08 92.17-10.3-1.86c.31-1.64.52-3.3.63-4.98l9.81-1.46c1.16-.17 1.97-1.26 1.8-2.42-.18-1.17-1.25-1.96-2.43-1.8l-9.07 1.35c-.02-1.02-.05-2.05-.12-3.08-.52-7.71-3.49-15.55-8.33-22.28-.44-8.56-2.65-38.39-12.06-42.68-7.12-3.24-19.73 15.25-23.7 21.79-.23.38-.45.73-.67 1.09-2.65-.3-5.33-.48-8-.48-2.53 0-5.06.17-7.58.44-.2-.34-.4-.67-.62-1.02-3.94-6.56-16.49-25.09-23.62-21.88-9.25 4.18-11.65 33.04-12.18 42.18-5.08 6.85-8.22 14.91-8.76 22.83-.06.9-.1 1.79-.12 2.68l-6.36-.95c-1.16-.16-2.25.63-2.42 1.8-.18 1.17.63 2.25 1.8 2.42l7.06 1.05c.12 1.98.35 3.94.75 5.86l-7.68 1.38c-1.16.21-1.93 1.32-1.72 2.48.19 1.03 1.09 1.75 2.1 1.75.12 0 .25-.01.38-.03l8.03-1.45c.67 2 1.55 3.94 2.65 5.8l-7.7 2.45c-1.12.35-1.75 1.55-1.39 2.68.29.91 1.13 1.49 2.03 1.49.21 0 .43-.03.65-.1l8.98-2.85c1.53 1.85 3.33 3.6 5.48 5.2 6.05 4.51 13.57 7.57 21.33 9.23 2.95.63 10.56 2.1 18.55 2.1s16.35-1.47 19.3-2.1c7.75-1.66 15.28-4.72 21.33-9.23 2.41-1.8 4.38-3.78 6.01-5.89l11.16 3.55c.21.07.43.1.65.1.9 0 1.74-.58 2.03-1.49.35-1.12-.27-2.33-1.39-2.68l-10.01-3.18c.98-1.78 1.78-3.63 2.38-5.53l10.59 1.91c.13.02.26.03.38.03 1.01 0 1.91-.72 2.1-1.75.2-1.15-.57-2.26-1.73-2.47zm-88.14-9.4c-5.48 0-9.94-4.21-9.94-9.41 0-1.18.25-2.3.67-3.34l17.72 8.25c-1.75 2.69-4.87 4.5-8.45 4.5zm47.86 19.96c-.76 1.27-2.39 1.67-3.65.92-.58-.34-14.33-8.25-29.94 2.12-.45.3-.97.45-1.48.45-.86 0-1.71-.42-2.22-1.19-.82-1.23-.48-2.88.74-3.7 18.49-12.29 34.94-2.67 35.64-2.26 1.26.76 1.67 2.4.91 3.66zm3.54-19.96c-4.02 0-7.46-2.27-9.03-5.52l17.78-8.28c.74 1.31 1.2 2.79 1.2 4.38 0 5.21-4.46 9.42-9.95 9.42z" fill="#f79329"/></svg>