<svg viewBox="0 0 128 128" xmlns="http://www.w3.org/2000/svg" xmlns:xlink="http://www.w3.org/1999/xlink"><defs><path id="a" d="m127.38 51.82c0-7.55-4.09-14.64-22.55-14.64h-29.13-23.4-29.03c-18.47 0-22.56 7.09-22.56 14.64v15.57c0 .04.02.06.02.1-.08 1.07-.11 2.15-.11 3.23v35.68c0 1.81 1.45 3.26 3.26 3.26h120.24c1.8 0 3.26-1.45 3.26-3.26 0-8.62 0-22.65 0-35.68 0-.96-.03-1.91-.09-2.86.05-.15.09-.3.09-.48 0-3.75 0-9.87 0-15.56z"/><clipPath id="b"><use xlink:href="#a"/></clipPath></defs><use fill="#fcc21b" xlink:href="#a"/><path clip-path="url(#b)" d="m-2.52 51.88h133.89v30.46h-133.89z" fill="#f79329"/><path d="m39 108.81c0 6.62-5.37 11.97-11.98 11.97-6.62 0-11.99-5.36-11.99-11.97 0-6.63 5.37-11.97 11.99-11.97 6.61 0 11.98 5.35 11.98 11.97z" fill="#2f2f2f"/><path d="m110.21 108.81c0 6.62-5.37 11.97-11.98 11.97-6.62 0-11.99-5.36-11.99-11.97 0-6.63 5.37-11.97 11.99-11.97s11.98 5.35 11.98 11.97z" fill="#2f2f2f"/><path d="m35.33 75.08c0 1.75-1.41 3.16-3.17 3.16h-10.3c-1.75 0-3.17-1.41-3.17-3.16v-16.79c0-1.75 1.42-3.17 3.17-3.17h10.3c1.75 0 3.17 1.42 3.17 3.17zm28.45-16.79c0-1.75-1.42-3.17-3.18-3.17h-10.3c-1.75 0-3.16 1.42-3.16 3.17v16.79c0 1.75 1.41 3.16 3.16 3.16h10.3c1.75 0 3.18-1.41 3.18-3.16zm23.05 0c0-1.75-1.43-3.17-3.18-3.17h-10.3c-1.75 0-3.17 1.42-3.17 3.17v16.79c0 1.75 1.42 3.16 3.17 3.16h10.31c1.75 0 3.18-1.41 3.18-3.16v-16.79zm22.32 0c0-1.75-1.41-3.17-3.18-3.17h-10.3c-1.75 0-3.17 1.42-3.17 3.17v16.79c0 1.75 1.42 3.16 3.17 3.16h10.29c1.77 0 3.18-1.41 3.18-3.16v-16.79z" fill="#fff"/></svg>