<svg viewBox="0 0 128 128" xmlns="http://www.w3.org/2000/svg"><path d="m43.57 122.22c0 2.79-2.26 5.06-5.06 5.06-2.78 0-5.04-2.27-5.04-5.06v-19.42c0-2.78 2.26-5.05 5.04-5.05 2.8 0 5.06 2.27 5.06 5.05z" fill="#2f2f2f"/><path d="m84.44 122.22c0 2.79 2.26 5.06 5.05 5.06s5.05-2.27 5.05-5.06v-19.42c0-2.78-2.26-5.05-5.05-5.05s-5.05 2.27-5.05 5.05z" fill="#2f2f2f"/><path d="m115.23 87.76c0 12.81-10.38 23.18-23.18 23.18h-56.1c-12.79 0-23.19-10.38-23.19-23.18v-63.86c0-12.81 10.39-23.18 23.19-23.18h56.1c12.81 0 23.18 10.38 23.18 23.18z" fill="#fcc21b"/><path d="m105.01 36.75c0 6.9-5.58 12.5-12.5 12.5h-57.01c-6.9 0-12.5-5.6-12.5-12.5v-15.81c0-6.9 5.6-12.49 12.5-12.49h57.01c6.92 0 12.5 5.59 12.5 12.49z" fill="#40c0e7"/><g fill="#fff"><path d="m40.05 87.78c0 4.64-3.77 8.4-8.41 8.4-4.65 0-8.42-3.76-8.42-8.4 0-4.65 3.77-8.42 8.42-8.42 4.64 0 8.41 3.77 8.41 8.42z"/><path d="m87.96 87.78c0 4.64 3.76 8.4 8.41 8.4 4.64 0 8.4-3.76 8.4-8.4 0-4.65-3.76-8.42-8.4-8.42-4.65 0-8.41 3.77-8.41 8.42z"/></g></svg>