<svg viewBox="0 0 128 128" xmlns="http://www.w3.org/2000/svg"><path d="m127.64 64c0 35.15-28.49 63.64-63.65 63.64-35.13 0-63.63-28.49-63.63-63.64s28.5-63.64 63.63-63.64c35.16 0 63.65 28.49 63.65 63.64z" fill="#006ca2"/><path d="m49.72 106.98c0 1.97-1.6 3.57-3.57 3.57s-3.56-1.6-3.56-3.57v-13.7c0-1.97 1.6-3.56 3.56-3.56 1.97 0 3.57 1.6 3.57 3.56z" fill="#fff"/><path d="m78.57 106.98c0 1.97 1.59 3.57 3.56 3.57s3.56-1.6 3.56-3.57v-13.7c0-1.97-1.6-3.56-3.56-3.56-1.97 0-3.56 1.6-3.56 3.56z" fill="#fff"/><path d="m100.3 83.77c0 9.04-7.32 16.36-16.37 16.36h-39.59c-9.04 0-16.37-7.33-16.37-16.36v-45.08c0-9.03 7.33-16.36 16.37-16.36h39.59c9.05 0 16.37 7.33 16.37 16.36z" fill="#ed6c30"/><path d="m93.08 47.76c0 4.87-3.94 8.83-8.83 8.83h-40.23c-4.87 0-8.82-3.95-8.82-8.83v-11.15c0-4.87 3.95-8.83 8.82-8.83h40.24c4.88 0 8.83 3.95 8.83 8.83v11.15z" fill="#40c0e7"/><g fill="#fff"><path d="m47.24 83.78c0 3.27-2.67 5.93-5.94 5.93-3.29 0-5.94-2.66-5.94-5.93 0-3.28 2.65-5.94 5.94-5.94 3.27 0 5.94 2.66 5.94 5.94z"/><path d="m81.04 83.78c0 3.27 2.66 5.93 5.94 5.93s5.94-2.66 5.94-5.93c0-3.28-2.66-5.94-5.94-5.94-3.27 0-5.94 2.66-5.94 5.94z"/></g></svg>