<svg viewBox="0 0 128 128" xmlns="http://www.w3.org/2000/svg"><path d="m44.08 124.37c0 2-1.63 3.63-3.63 3.63s-3.62-1.63-3.62-3.63v-13.97c0-2 1.62-3.64 3.62-3.64 2.01 0 3.63 1.63 3.63 3.64z" fill="#2f2f2f"/><path d="m73.48 124.37c0 2 1.62 3.63 3.63 3.63 2 0 3.64-1.63 3.64-3.63v-13.97c0-2-1.63-3.64-3.64-3.64s-3.63 1.63-3.63 3.64z" fill="#2f2f2f"/><path d="m95.62 99.57c0 9.22-7.46 16.67-16.67 16.67h-40.35c-9.2 0-16.67-7.46-16.67-16.67v-45.92c0-9.21 7.47-16.67 16.67-16.67h40.34c9.21 0 16.67 7.46 16.67 16.67v45.92z" fill="#fcc21b"/><path d="m88.26 62.9c0 4.96-4.02 8.99-8.99 8.99h-41c-4.96 0-8.98-4.03-8.98-8.99v-11.37c0-4.97 4.03-8.99 8.98-8.99h41c4.97 0 8.99 4.02 8.99 8.99z" fill="#40c0e7"/><path d="m41.56 99.59c0 3.34-2.72 6.04-6.04 6.04-3.36 0-6.06-2.71-6.06-6.04 0-3.34 2.7-6.05 6.06-6.05 3.32 0 6.04 2.71 6.04 6.05z" fill="#fff"/><path d="m76 99.59c0 3.34 2.71 6.04 6.05 6.04 3.33 0 6.05-2.71 6.05-6.04 0-3.34-2.72-6.05-6.05-6.05-3.34 0-6.05 2.71-6.05 6.05z" fill="#fff"/><path d="m127.89 100.05v-65.1c0-1.78-.9-3.42-2.39-4.37l-45.39-29.23c-2.41-1.55-5.62-.85-7.18 1.55-1.55 2.42-.86 5.63 1.56 7.18l43.01 27.69v58.11h-12.22c-2.84 0-5.16 2.32-5.16 5.15v25.97h27.88v-25.97c0-.33-.05-.66-.11-.98z" fill="#78a3ad"/></svg>