<svg viewBox="0 0 128 128" xmlns="http://www.w3.org/2000/svg"><g fill="#2f2f2f"><path d="m24.88 112.2c0 4.8-3.89 8.7-8.69 8.7s-8.7-3.9-8.7-8.7c0-4.81 3.9-8.7 8.7-8.7s8.69 3.88 8.69 8.7z"/><path d="m42.29 112.2c0 4.8-3.89 8.7-8.7 8.7-4.8 0-8.71-3.9-8.71-8.7 0-4.81 3.9-8.7 8.71-8.7 4.8 0 8.7 3.88 8.7 8.7z"/><path d="m102.17 112.2c0 4.8-3.89 8.7-8.7 8.7-4.8 0-8.7-3.9-8.7-8.7 0-4.81 3.9-8.7 8.7-8.7 4.81 0 8.7 3.88 8.7 8.7z"/><path d="m119.56 112.2c0 4.8-3.89 8.7-8.69 8.7s-8.7-3.9-8.7-8.7c0-4.81 3.9-8.7 8.7-8.7s8.69 3.88 8.69 8.7z"/></g><path d="m51.42 60.6c-.91 0-1.82-.34-2.51-1.03-1.38-1.38-1.38-3.62 0-5l13.22-13.22-10.85-10.87c-1.38-1.38-1.38-3.62 0-5s3.62-1.38 5 0l13.37 13.37c1.38 1.38 1.38 3.62 0 5l-15.73 15.72c-.69.69-1.59 1.03-2.5 1.03z" fill="#78a3ad"/><path d="m42.97 31.31v-5.31c0-1.83 1.5-3.34 3.34-3.34h21.02c1.84 0 3.34 1.51 3.34 3.34v5.31z" fill="#78a3ad"/><path d="m127.54 70.13.01-7.6c.02-7.35-5.99-13.37-13.34-13.37h-100.41c-7.36 0-13.37 6.02-13.35 13.37l.02 7.59c0 .11-.04.21-.04.31l.08 35.42c.01 3.67 3.02 6.68 6.7 6.68h113.57c3.68 0 6.69-3 6.7-6.68l.08-35.42c.01-.1-.02-.2-.02-.3z" fill="#757f3f"/><g fill="#fff"><path d="m95.82 84.49c0 3.2 2.62 5.81 5.81 5.81h9.18c3.2 0 5.81-2.62 5.81-5.81v-16c0-3.2-2.62-5.81-5.81-5.81h-9.18c-3.2 0-5.81 2.62-5.81 5.81z"/><path d="m73.42 62.68c-3.2 0-5.81 2.62-5.81 5.81v16c0 3.2 2.62 5.81 5.81 5.81h9.17c3.2 0 5.81-2.62 5.81-5.81v-16c0-3.2-2.62-5.81-5.81-5.81z"/><path d="m45.22 62.68c-3.2 0-5.81 2.62-5.81 5.81v16c0 3.2 2.62 5.81 5.81 5.81h9.17c3.2 0 5.81-2.62 5.81-5.81v-16c0-3.2-2.62-5.81-5.81-5.81z"/><path d="m17.01 62.68c-3.2 0-5.81 2.62-5.81 5.81v16c0 3.2 2.62 5.81 5.81 5.81h9.17c3.2 0 5.81-2.62 5.81-5.81v-16c0-3.2-2.62-5.81-5.81-5.81z"/></g></svg>