<svg viewBox="0 0 128 128" xmlns="http://www.w3.org/2000/svg"><path d="m93.44 120.95c0 3.64 2.95 6.6 6.59 6.6s6.59-2.96 6.59-6.6v-26.72c0-3.63-2.95-6.59-6.59-6.59s-6.59 2.96-6.59 6.59z" fill="#2f2f2f"/><path d="m34.56 120.95c0 3.64-2.95 6.6-6.59 6.6s-6.59-2.96-6.59-6.6v-26.72c0-3.63 2.95-6.59 6.59-6.59s6.59 2.96 6.59 6.59z" fill="#2f2f2f"/><path d="m113.87 17.12c-.11-2.13-1.57-4.97-3.24-6.3 0 0-12.97-10.37-47.3-10.37s-46.06 10.24-46.06 10.24c-1.61 1.41-3.02 4.31-3.13 6.44l-2.72 50.76c-.11 2.14-.21 5.63-.21 7.77v31.77c0 2.14 1.75 3.89 3.89 3.89h97.82c2.14 0 3.89-1.75 3.89-3.89v-31.79c0-2.14-.09-5.63-.21-7.77z" fill="#fcc21b"/><path d="m35.75 92.4c0 4.07-3.32 7.39-7.4 7.39-4.09 0-7.39-3.32-7.39-7.39 0-4.08 3.31-7.39 7.39-7.39 4.09 0 7.4 3.31 7.4 7.39z" fill="#fff"/><path d="m92.73 92.4c0 4.07 3.31 7.39 7.4 7.39 4.08 0 7.39-3.32 7.39-7.39 0-4.08-3.31-7.39-7.39-7.39-4.09 0-7.4 3.31-7.4 7.39z" fill="#fff"/><path d="m105.91 32.33c-.11-4.27-3.71-7.77-7.98-7.77h-67.85c-4.28 0-7.87 3.5-7.98 7.77l-.87 32.45c-.11 4.27 3.29 7.77 7.57 7.77h70.43c4.28 0 7.68-3.5 7.57-7.77z" fill="#40c0e7"/><path d="m88.25 18.63h-49.87c-2.4 0-4.36-1.95-4.36-4.36s1.96-4.36 4.36-4.36h49.87c2.41 0 4.35 1.95 4.35 4.36.01 2.41-1.94 4.36-4.35 4.36z" fill="#fff"/></svg>