<svg viewBox="0 0 128 128" xmlns="http://www.w3.org/2000/svg" xmlns:xlink="http://www.w3.org/1999/xlink"><defs><path id="a" d="m128 51.34c0-7.6-4.11-14.74-22.71-14.74h-29.33-23.56-29.22c-18.6 0-22.72 7.14-22.72 14.74v15.68c0 .03.02.06.02.09-.07 1.08-.12 2.17-.12 3.26v32.87c0 1.82 1.46 3.29 3.29 3.29h121.06c1.81 0 3.29-1.46 3.29-3.29 0-8.68 0-19.74 0-32.87 0-.96-.04-1.92-.1-2.88.06-.15.1-.32.1-.48 0-3.79 0-9.94 0-15.67z"/><clipPath id="b"><use xlink:href="#a"/></clipPath></defs><g fill="#78a3ad"><path d="m60.72 35.67c-.88 0-1.73-.44-2.23-1.24-.76-1.24-.37-2.84.85-3.61l38.82-23.95c1.23-.76 2.84-.37 3.61.86.76 1.23.38 2.85-.85 3.6l-38.82 23.95c-.43.26-.91.39-1.38.39z"/><path d="m55.13 28.94h20.22v9.34h-20.22z"/><path d="m75.35 40.23h-20.22c-1.08 0-1.95-.87-1.95-1.94v-9.34c0-1.07.87-1.95 1.95-1.95h20.22c1.07 0 1.95.87 1.95 1.95v9.34c0 1.07-.88 1.94-1.95 1.94zm-18.28-3.89h16.33v-5.44h-16.33z"/></g><use fill="#006ca2" xlink:href="#a"/><path clip-path="url(#b)" d="m-2.8 33.18h134.8v48.03h-134.8z" fill="#40c0e7"/><path d="m37.04 108.72c0 6.66-5.4 12.07-12.06 12.07-6.67 0-12.07-5.4-12.07-12.07s5.4-12.06 12.07-12.06c6.66 0 12.06 5.4 12.06 12.06z" fill="#2f2f2f"/><path d="m114.85 108.72c0 6.66-5.4 12.07-12.06 12.07-6.67 0-12.08-5.4-12.08-12.07s5.4-12.06 12.08-12.06c6.66 0 12.06 5.4 12.06 12.06z" fill="#2f2f2f"/><path d="m34.24 72.89c0 1.82-1.48 3.31-3.31 3.31h-10.76c-1.83 0-3.31-1.49-3.31-3.31v-17.54c0-1.82 1.48-3.3 3.31-3.3h10.76c1.83 0 3.31 1.48 3.31 3.3zm29.72-17.54c0-1.82-1.48-3.3-3.32-3.3h-10.77c-1.82 0-3.3 1.48-3.3 3.3v17.54c0 1.82 1.47 3.31 3.3 3.31h10.77c1.83 0 3.32-1.49 3.32-3.31zm24.08 0c0-1.82-1.49-3.3-3.33-3.3h-10.75c-1.83 0-3.32 1.48-3.32 3.3v17.54c0 1.82 1.48 3.31 3.32 3.31h10.75c1.84 0 3.33-1.49 3.33-3.31zm23.3 0c0-1.82-1.48-3.3-3.32-3.3h-10.75c-1.83 0-3.32 1.48-3.32 3.3v17.54c0 1.82 1.49 3.31 3.32 3.31h10.75c1.84 0 3.32-1.49 3.32-3.31z" fill="#fff"/></svg>