<svg viewBox="0 0 128 128" xmlns="http://www.w3.org/2000/svg"><path d="m50.57 49.04.2.02c.28 0 .54-.11.74-.3.24-.24.36-.59.31-.93l-.95-6.15c-.05-.36-.29-.67-.62-.81-.33-.15-.72-.12-1.02.08l-7.03 4.68c-.36.24-.54.67-.45 1.1.08.42.42.76.85.83z" fill="#ed6c30"/><path d="m11.96 49.06.19-.02 7.99-1.48c.42-.08.76-.41.85-.83.09-.43-.1-.86-.46-1.1l-7.03-4.68c-.29-.2-.68-.23-1.02-.08-.33.14-.57.45-.62.81l-.94 6.15c-.05.34.06.69.31.93.2.19.46.3.73.3z" fill="#ed6c30"/><path d="m120.78 70.65h-45.04v-25.49l45.04 5.79z" fill="#2f2f2f"/><path d="m112.53 65.05-96.51-46.26 7.15-14.91 96.5 46.26z" fill="#fff"/><path d="m113.53 67.9-100.35-48.1 8.99-18.76 100.35 48.1zm-94.66-50.11 92.66 44.41 5.3-11.06-92.66-44.41z" fill="#2f2f2f"/><path d="m17.46 3.08h4.26v16.53h-4.26z" fill="#2f2f2f" transform="matrix(.9019 .4319 -.4319 .9019 6.8216 -7.3511)"/><path d="m112.53 65.05 7.14-14.91" fill="#fff"/><path d="m113.97 49.33h4.27v16.53h-4.27z" fill="#2f2f2f" transform="matrix(.9015 .4327 -.4327 .9015 36.3525 -44.5646)"/><path d="m96.44 57.34 7.15-14.91" fill="#fff"/><path d="m97.89 41.62h4.26v16.53h-4.26z" fill="#2f2f2f" transform="matrix(.9019 .4319 -.4319 .9019 31.3511 -38.3018)"/><path d="m80.36 49.64 7.15-14.92" fill="#fff"/><path d="m81.8 33.91h4.27v16.53h-4.27z" fill="#2f2f2f" transform="matrix(.9015 .4327 -.4327 .9015 26.5144 -32.1645)"/><path d="m64.27 41.92 7.15-14.9" fill="#fff"/><path d="m65.72 26.2h4.26v16.53h-4.26z" fill="#2f2f2f" transform="matrix(.9017 .4323 -.4323 .9017 21.5682 -25.9432)"/><path d="m48.19 34.21 7.15-14.9" fill="#fff"/><path d="m49.63 18.49h4.26v16.53h-4.26z" fill="#2f2f2f" transform="matrix(.9017 .4323 -.4323 .9017 16.655 -19.7477)"/><path d="m32.11 26.51 7.14-14.92" fill="#fff"/><path d="m33.55 10.79h4.26v16.53h-4.26z" fill="#2f2f2f" transform="matrix(.9014 .433 -.433 .9014 11.77 -13.5714)"/><path d="m39.25 11.59-23.23 7.2" fill="#fff"/><path d="m25.51 3.03h4.27v24.32h-4.27z" fill="#2f2f2f" transform="matrix(.296 .9552 -.9552 .296 33.9736 -15.7045)"/><path d="m55.34 19.31-23.23 7.2" fill="#fff"/><path d="m41.59 10.74h4.27v24.32h-4.27z" fill="#2f2f2f" transform="matrix(.296 .9552 -.9552 .296 52.6583 -25.6388)"/><path d="m71.42 27.02-23.23 7.19" fill="#fff"/><path d="m57.68 18.45h4.27v24.32h-4.27z" fill="#2f2f2f" transform="matrix(.296 .9552 -.9552 .296 71.3451 -35.5759)"/><path d="m87.51 34.72-23.23 7.2" fill="#fff"/><path d="m73.76 26.17h4.27v24.31h-4.27z" fill="#2f2f2f" transform="matrix(.296 .9552 -.9552 .296 90.0311 -45.5121)"/><path d="m103.59 42.43-23.23 7.21" fill="#fff"/><path d="m80.99 51.67-1.26-4.07 23.23-7.21 1.27 4.08z" fill="#2f2f2f"/><path d="m119.67 50.14-23.22 7.2" fill="#fff"/><path d="m105.93 41.58h4.27v24.32h-4.27z" fill="#2f2f2f" transform="matrix(.2959 .9552 -.9552 .2959 127.4228 -65.3865)"/><path d="m23.26 49.69c0-6.31 1.89-11.42 7.85-11.42s7.84 5.11 7.84 11.42z" fill="#ed6c30"/><path d="m38.21 52.15h-14.21c-1.47 0-2.68 1.2-2.68 2.67v5.09c0 1.48 1.21 2.68 2.68 2.68h14.21c1.48 0 2.68-1.2 2.68-2.68v-5.09c0-1.47-1.2-2.67-2.68-2.67z" fill="#2f2f2f"/><path d="m61.22 65.98c-1.66 0-3.03-1.36-3.03-3.02v-2.33c0-1.67-1.36-3.03-3.03-3.03h-.38c-1.66 0-3.03 0-3.03 0 0-.01-1.36-.01-3.02-.01 0 0-29.07 0-32.03 0s-7.28 2.25-7.95 7.4c-.98 7.57-2.64 15.91-2.64 15.91-.33 1.63-.6 4.32-.6 5.99 0 0-.04 21.34-.04 25.7 0 1.92 2.36 4.54 4.14 4.54h23.82 16.74 1 3.61.38 6.05 56.54c1.66 0 3.02-1.36 3.02-3.03v-45.1c0-1.67-1.36-3.03-3.02-3.03h-56.53z" fill="#ed6c30"/><path d="m36.87 117.14c0 5.43-4.4 9.82-9.82 9.82-5.43 0-9.83-4.39-9.83-9.82s4.4-9.82 9.83-9.82c5.42 0 9.82 4.39 9.82 9.82z" fill="#2f2f2f"/><path d="m109.09 117.14c0 5.43-4.4 9.82-9.82 9.82-5.43 0-9.83-4.39-9.83-9.82s4.4-9.82 9.83-9.82c5.42 0 9.82 4.39 9.82 9.82z" fill="#2f2f2f"/><g fill="#fff"><path d="m95.91 69.61c-8.63 0-15.66 7.03-15.66 15.66 0 3.95 1.49 7.56 3.92 10.32h-23.72v5.33h35.46c8.63 0 15.66-7.02 15.66-15.65s-7.03-15.66-15.66-15.66zm0 25.98c-5.69 0-10.32-4.62-10.32-10.32 0-5.69 4.63-10.32 10.32-10.32s10.33 4.63 10.33 10.32c-.01 5.69-4.64 10.32-10.33 10.32z"/><path d="m31.76 83.41c0 1.66-1.36 3.02-3.02 3.02h-11.84c-1.66 0-2.83-1.34-2.59-2.99l2.09-14.42c.24-1.65 1.79-3 3.46-3h8.89c1.66 0 3.02 1.37 3.02 3.02v14.37zm20.26-14.87c0-1.43-1.17-2.61-2.61-2.61h-9.71c-1.44 0-2.62 1.17-2.62 2.61v10.04c0 1.43 1.18 2.62 2.62 2.62h9.71c1.44 0 2.61-1.18 2.61-2.62z"/></g></svg>