<svg viewBox="0 0 128 128" xmlns="http://www.w3.org/2000/svg"><path d="m95.97 119.36c0 4.76 3.85 8.64 8.61 8.64s8.61-3.87 8.61-8.64v-34.93c0-4.75-3.85-8.61-8.61-8.61s-8.61 3.86-8.61 8.61z" fill="#2f2f2f"/><path d="m15.4 119.36c0 4.76 3.85 8.64 8.61 8.64s8.62-3.87 8.62-8.64v-34.93c0-4.75-3.85-8.61-8.62-8.61-4.76 0-8.61 3.86-8.61 8.61z" fill="#2f2f2f"/><path d="m119.24 69.46c-1.94-4.37-7.45-7.94-12.23-7.94h-86.02c-4.78 0-10.28 3.57-12.23 7.94l-1.04 2.33c-1.94 4.37-3.53 11.27-3.53 15.33s.8 10.78 1.77 14.94 5.68 7.56 10.46 7.56h95.14c4.78 0 9.49-3.4 10.47-7.56s1.78-10.88 1.78-14.94-1.59-10.96-3.53-15.33z" fill="#ed6c30"/><path d="m32.71 89.16c0 4.56-3.71 8.26-8.27 8.26-4.58 0-8.28-3.7-8.28-8.26 0-4.57 3.7-8.27 8.28-8.27 4.56 0 8.27 3.7 8.27 8.27z" fill="#fff"/><path d="m96.41 89.16c0 4.56 3.71 8.26 8.28 8.26 4.55 0 8.26-3.7 8.26-8.26 0-4.57-3.71-8.27-8.26-8.27-4.57 0-8.28 3.7-8.28 8.27z" fill="#fff"/><path d="m116.64 61.54c0-.01 0-.02 0-.04l-7.81-30.42c-1.1-4.27-4.74-7.9-8.84-9.29-.52-.2-11.28-4.26-36.38-4.26-21.68 0-31.93 3.02-34.64 3.98-4.48 1.1-8.6 4.96-9.78 9.56l-7.82 30.43v.06l-2.53 9.84h9.72 90.88 9.72z" fill="#ed6c30"/><path d="m104.26 56.07-5.14-22.25c-.5-2.15-2.49-3.97-4.67-4.4h.19s-9.07-2.79-30.96-2.79c-21.5 0-29.79 2.7-30.08 2.79-2.2.41-4.22 2.24-4.73 4.41l-5.12 22.25c-.57 2.47 1.03 4.5 3.57 4.5h73.35c2.55-.01 4.16-2.04 3.59-4.51z" fill="#40c0e7"/></svg>