<svg viewBox="0 0 128 128" xmlns="http://www.w3.org/2000/svg"><path d="m127.56 41.19c0-1.78-1.45-3.23-3.23-3.23h-69.17c-1.77 0-3.23 1.45-3.23 3.23v50.58h75.63z" fill="#757f3f"/><path d="m75.27 40.96h3.42v47.45h-3.42z" fill="#2f2f2f"/><path d="m100.13 40.96h3.42v47.45h-3.42z" fill="#2f2f2f"/><path d="m51.93 91.77v-46.05c-6.73 0-15.63 0-17.54 0-3.16 0-7.77 2.4-8.48 7.9-1.05 8.08-3.45 20.15-3.45 20.15l-15.86 5.94s-6.16 1.99-6.16 9.57v15.15c0 2.05 2.52 4.85 4.42 4.85h119.47c1.78 0 3.23-1.45 3.23-3.23v-14.28z" fill="#78a3ad"/><path d="m47.99 70.16c0 1.78-1.45 3.23-3.23 3.23h-12.64c-1.78 0-3.02-1.44-2.77-3.19l2.23-15.4c.25-1.76 1.92-3.2 3.69-3.2h9.49c1.77 0 3.23 1.46 3.23 3.23z" fill="#fff"/><g fill="#2f2f2f"><path d="m37.54 109.29c0 6.21-5.04 11.24-11.25 11.24s-11.25-5.03-11.25-11.24c0-6.22 5.04-11.24 11.25-11.24s11.25 5.02 11.25 11.24z"/><path d="m105.3 109.29c0 6.21-5.04 11.24-11.25 11.24s-11.25-5.03-11.25-11.24c0-6.22 5.04-11.24 11.25-11.24s11.25 5.02 11.25 11.24z"/></g></svg>