<svg viewBox="0 0 128 128" xmlns="http://www.w3.org/2000/svg"><g fill="#2f2f2f"><path d="m65.21 62.13c-.56 0-1.12-.21-1.55-.64-.86-.86-.86-2.25 0-3.11l7.01-7c.86-.86 2.25-.86 3.1 0 .86.86.86 2.25 0 3.11l-7 7.01c-.43.42-1 .63-1.56.63z"/><path d="m77.98 59.78c-.57 0-1.13-.21-1.56-.64l-10.71-10.71c-.86-.86-.86-2.25 0-3.11s2.25-.86 3.1 0l10.72 10.72c.86.86.86 2.25 0 3.11-.43.42-.99.63-1.55.63z"/><path d="m39.59 45.34h11.87v44.24h-11.87z"/><path d="m55.6 57.43h11.87v35.45h-11.87z"/><path d="m43.15 47.54h5.09v-7.12c.01-.1.14-2.72-1.81-4.83-1.47-1.57-3.6-2.37-6.33-2.37v5.08c.85 0 1.99.13 2.57.73.5.5.49 1.26.49 1.26z"/><path d="m99.9 67.02c-1.74 0-3.15-1.42-3.15-3.15v-22.29c0-1.73 1.41-3.15 3.15-3.15h3.13c1.74 0 3.16 1.42 3.16 3.15v22.29c0 1.73-1.42 3.15-3.16 3.15z"/></g><g fill="#ed6c30"><path d="m66.95 11.31v6.23h35.16l6.6 6.96h10.25v-13.19z"/><path d="m110.89 19.37h5.15v46.7h-5.15z"/><path d="m70.09 73.2-4.84-3.04c6.77-10.78 18.4-17.21 31.13-17.21 11.04 0 21.39 4.9 28.39 13.44l-4.41 3.62c-5.91-7.22-14.66-11.35-23.98-11.35-10.75 0-20.58 5.44-26.29 14.54z"/><path d="m55.6 90.38v-32.92c-26.68 0-38.45 0-39.34 0-6.67 0-11.27 4.41-11.27 10.89s0 30.3 0 30.3h117.33v-8.27z"/></g><path d="m35.66 103.24c0 9.75-7.91 17.65-17.66 17.65-9.76 0-17.67-7.9-17.67-17.65 0-9.76 7.91-17.64 17.67-17.64 9.75 0 17.66 7.88 17.66 17.64z" fill="#2f2f2f"/><path d="m25.07 103.24c0 3.91-3.17 7.08-7.08 7.08s-7.07-3.17-7.07-7.08 3.17-7.07 7.07-7.07c3.91 0 7.08 3.16 7.08 7.07z" fill="#ed6c30"/><path d="m127.67 89.62c0 17.28-14.02 31.27-31.28 31.27-17.29 0-31.3-13.99-31.3-31.27s14.01-31.26 31.3-31.26c17.26 0 31.28 13.98 31.28 31.26z" fill="#2f2f2f"/><path d="m111.38 89.62c0 8.28-6.71 14.99-14.99 14.99-8.27 0-14.97-6.71-14.97-14.99s6.7-14.96 14.97-14.96c8.28 0 14.99 6.68 14.99 14.96z" fill="#ed6c30"/></svg>