<svg viewBox="0 0 128 128" xmlns="http://www.w3.org/2000/svg" xmlns:xlink="http://www.w3.org/1999/xlink"><defs><path id="a" d="m119.27 74.71c.74-1.41.52-3.59-.48-4.83l-16.65-20.71c-1-1.24-3.12-2.26-4.71-2.26h-66.86c-1.6 0-3.72 1.02-4.72 2.26l-16.64 20.7c-.99 1.25-1.21 3.42-.48 4.84l2.85 5.5c.73 1.41 2.63 2.57 4.23 2.57h.14c1.59 0 4.18.22 5.75.49 0 0 1.52.26 2.89 1.6 1.18 1.15 3.07 4.9 3.76 6.81 1.17 3.25 2.45 3.44 2.45 3.44 1.58.23 4.18.42 5.77.42h54.74c1.59 0 4.18-.19 5.77-.42 0 0 1.28-.19 2.46-3.44.69-1.92 2.58-5.66 3.76-6.81 1.37-1.34 2.88-1.6 2.88-1.6 1.57-.27 4.16-.49 5.76-.49h.25c1.59 0 3.49-1.16 4.23-2.57z"/><clipPath id="b"><use xlink:href="#a"/></clipPath></defs><g fill="#78a3ad"><path d="m.19 82.72h127.63v17.29h-127.63z"/><path d="m70.27 127.64h-12.53l1.77-44.79h8.98z"/><path d="m106.8 127.64h-12.53l1.77-44.79h8.98z"/><path d="m33.74 127.64h-12.52l1.77-44.79h8.98z"/></g><path d="m.19 86.78h127.63v2.44h-127.63z" fill="#2f2f2f"/><use fill="#006ca2" xlink:href="#a"/><path clip-path="url(#b)" d="m4.21 74.33h119.57v3.88h-119.57z" fill="#40c0e7"/><g fill="#fff"><path d="m34.6 53.87c-1.6 0-3.85 1.26-5.01 2.81l-8.32 11.07c-1.16 1.54-.53 2.81 1.4 2.81h11.33c1.93 0 3.51-1.58 3.51-3.51v-9.67c0-1.93-1.31-3.51-2.91-3.51z"/><path d="m48.42 53.87c-2.16 0-3.93 1.77-3.93 3.93v8.82c0 2.16 1.77 3.93 3.93 3.93h7.9c2.16 0 3.93-1.77 3.93-3.93v-8.82c0-2.16-1.77-3.93-3.93-3.93z"/><path d="m71.17 53.87c-2.16 0-3.93 1.77-3.93 3.93v8.82c0 2.16 1.77 3.93 3.93 3.93h7.9c2.16 0 3.93-1.77 3.93-3.93v-8.82c0-2.16-1.77-3.93-3.93-3.93z"/><path d="m92.88 53.87c1.6 0 3.85 1.26 5.01 2.81l8.33 11.08c1.16 1.54.53 2.81-1.4 2.81h-11.33c-1.93 0-3.51-1.58-3.51-3.51v-9.67c0-1.94 1.31-3.52 2.9-3.52z"/></g></svg>