<svg viewBox="0 0 128 128" xmlns="http://www.w3.org/2000/svg" xmlns:xlink="http://www.w3.org/1999/xlink"><defs><path id="a" d="m124.54 73.09h-121.09c-1.8 0-3.26-1.47-3.26-3.27v-43.79c0-1.8 1.46-3.27 3.26-3.27h121.09c1.81 0 3.27 1.46 3.27 3.27v43.79c0 1.8-1.46 3.27-3.27 3.27z"/><clipPath id="b"><use xlink:href="#a"/></clipPath></defs><g fill="#fcc21b"><path d="m104.22 128h13.61l-17.93-59.45h-13.61z"/><path d="m85.28 128h-13.82l16.12-59.45h13.83z"/><path d="m43.23 128h13.6l-17.93-59.45h-13.6z"/><path d="m24.29 128h-13.83l16.12-59.45h13.83z"/><use xlink:href="#a"/></g><g fill="#2f2f2f"><g clip-path="url(#b)"><path d="m-6.03 85.67-10.58-7.96 56.13-78.57 10.58 7.96z"/><path d="m27.42 85.67-10.58-7.96 56.13-78.57 10.59 7.96z"/><path d="m60.87 85.67-10.58-7.96 56.13-78.57 10.58 7.96z"/><path d="m94.31 85.67-10.57-7.96 56.14-78.57 10.58 7.96z"/></g><path d="m31.65 13.66c0 5.43-4.4 9.83-9.83 9.83-5.42 0-9.82-4.4-9.82-9.83s4.4-9.82 9.82-9.82c5.43 0 9.83 4.4 9.83 9.82z"/><path d="m21.82 25.81c-6.69 0-12.13-5.45-12.13-12.15 0-6.69 5.44-12.14 12.13-12.14 6.7 0 12.15 5.44 12.15 12.14s-5.45 12.15-12.15 12.15zm0-19.65c-4.13 0-7.5 3.37-7.5 7.51s3.36 7.51 7.5 7.51c4.15 0 7.51-3.37 7.51-7.51s-3.37-7.51-7.51-7.51z"/><path d="m18.59 3.84h3.22v19.65h-3.22z"/><path d="m21.82 25.85h-3.22c-1.3 0-2.36-1.05-2.36-2.35v-19.66c0-1.3 1.06-2.35 2.36-2.35h3.22c1.31 0 2.36 1.06 2.36 2.35v19.65c0 1.31-1.06 2.36-2.36 2.36z"/></g><path d="m28.58 13.66c0 5.43-4.41 9.83-9.83 9.83-5.43 0-9.83-4.4-9.83-9.83s4.39-9.82 9.83-9.82c5.43 0 9.83 4.4 9.83 9.82z" fill="#ed6c30"/><g fill="#2f2f2f"><path d="m18.76 25.81c-6.7 0-12.14-5.45-12.14-12.15 0-6.69 5.45-12.14 12.14-12.14 6.7 0 12.15 5.44 12.15 12.14-.01 6.7-5.46 12.15-12.15 12.15zm0-19.65c-4.14 0-7.51 3.37-7.51 7.51s3.37 7.51 7.51 7.51c4.13 0 7.51-3.37 7.51-7.51s-3.38-7.51-7.51-7.51z"/><path d="m120.62 13.66c0 5.43-4.4 9.83-9.83 9.83s-9.83-4.4-9.83-9.83 4.4-9.82 9.83-9.82 9.83 4.4 9.83 9.82z"/><path d="m110.79 25.81c-6.7 0-12.14-5.45-12.14-12.15 0-6.69 5.44-12.14 12.14-12.14s12.14 5.44 12.14 12.14c.01 6.7-5.44 12.15-12.14 12.15zm0-19.65c-4.14 0-7.51 3.37-7.51 7.51s3.37 7.51 7.51 7.51 7.51-3.37 7.51-7.51-3.37-7.51-7.51-7.51z"/><path d="m107.57 3.84h3.23v19.65h-3.23z"/><path d="m110.79 25.85h-3.23c-1.3 0-2.35-1.05-2.35-2.35v-19.66c0-1.3 1.05-2.35 2.35-2.35h3.23c1.3 0 2.35 1.06 2.35 2.35v19.65c.01 1.31-1.04 2.36-2.35 2.36z"/></g><path d="m117.55 13.66c0 5.43-4.41 9.83-9.83 9.83-5.43 0-9.83-4.4-9.83-9.83s4.4-9.82 9.83-9.82 9.83 4.4 9.83 9.82z" fill="#ed6c30"/><path d="m107.73 25.81c-6.7 0-12.14-5.45-12.14-12.15 0-6.69 5.45-12.14 12.14-12.14 6.7 0 12.15 5.44 12.15 12.14-.01 6.7-5.45 12.15-12.15 12.15zm0-19.65c-4.14 0-7.51 3.37-7.51 7.51s3.37 7.51 7.51 7.51 7.51-3.37 7.51-7.51c-.01-4.14-3.37-7.51-7.51-7.51z" fill="#2f2f2f"/></svg>