<svg viewBox="0 0 128 128" xmlns="http://www.w3.org/2000/svg"><path d="m64 36.04c-22.48 0-33.16 17.6-33.16 60.38h66.33c0-42.78-10.69-60.38-33.17-60.38z" fill="#ed6c30"/><path d="m46.13 56.73c-.31-.32-.8-.42-1.22-.24-.42.17-.69.58-.69 1.04v29.38c0 .45.27.86.69 1.04.14.06.28.09.43.09.29 0 .58-.11.79-.33l14.84-14.69c.21-.21.34-.5.34-.8s-.12-.59-.34-.8z" fill="#fff"/><path d="m83.09 56.49c-.43-.18-.91-.08-1.23.24l-14.83 14.7c-.21.21-.33.5-.33.8s.12.59.33.8l14.83 14.69c.21.21.5.33.79.33.14 0 .29-.03.43-.09.42-.18.69-.59.69-1.04v-29.39c.01-.46-.27-.87-.68-1.04z" fill="#fff"/><g fill="#ed6c30"><path d="m33.74 5.25c-.21-.54-.66-.95-1.22-1.1-.54-.16-1.15-.04-1.61.32l-12.79 9.93c-.46.35-.72.91-.71 1.48.01.58.29 1.12.77 1.46l22.93 16.29c.32.23.7.34 1.07.34h.05c1.01 0 1.83-.82 1.83-1.83 0-.38-.11-.73-.31-1.02z"/><path d="m31.79 46.34-22.31-16.66c-.47-.35-1.07-.45-1.62-.29-.56.16-1 .58-1.2 1.13l-5.54 15.22c-.19.55-.12 1.15.19 1.64.32.48.85.79 1.43.82l28.09 1.61h.11.03c1.07-.06 1.85-.82 1.85-1.83-.01-.72-.43-1.34-1.03-1.64z"/><path d="m110.59 15.89c.01-.58-.25-1.13-.71-1.48l-12.78-9.95c-.46-.36-1.06-.47-1.61-.32-.56.16-1.01.56-1.22 1.1l-10.15 26.24c-.29.75-.06 1.61.58 2.11.33.26.73.39 1.13.39.37 0 .74-.11 1.06-.34l22.93-16.29c.47-.34.76-.88.77-1.46z"/><path d="m126.88 45.74-5.55-15.22c-.2-.54-.64-.96-1.2-1.13s-1.16-.06-1.62.29l-22.53 16.83c-.65.49-.9 1.34-.63 2.1.26.73.96 1.2 1.72 1.2h.11l28.09-1.61c.58-.03 1.11-.34 1.42-.82.32-.49.39-1.09.19-1.64z"/></g><path d="m27.53 97.42h72.96v26.92h-72.96z" fill="#fff"/><path d="m100.48 128h-72.95c-2.02 0-3.67-1.64-3.67-3.66v-26.92c0-2.03 1.64-3.66 3.67-3.66h72.96c2.02 0 3.66 1.64 3.66 3.66v26.92c-.01 2.02-1.65 3.66-3.67 3.66zm-69.29-7.33h65.62v-19.59h-65.62z" fill="#78a3ad"/></svg>