<svg viewBox="0 0 128 128" xmlns="http://www.w3.org/2000/svg"><path d="m4.48 64c0 32.88 26.64 59.53 59.52 59.53s59.52-26.65 59.52-59.53-26.64-59.53-59.52-59.53-59.52 26.65-59.52 59.53z" fill="#fff"/><path d="m.43 64c0 35.11 28.46 63.58 63.57 63.58s63.57-28.47 63.57-63.58-28.46-63.58-63.57-63.58-63.57 28.47-63.57 63.58zm103.51 26.95-66.89-66.89c7.69-5.2 16.96-8.24 26.95-8.24 26.6 0 48.18 21.57 48.18 48.18 0 9.99-3.04 19.26-8.24 26.95zm-88.12-26.95c0-9.98 3.04-19.26 8.24-26.95l66.9 66.89c-7.7 5.2-16.98 8.24-26.96 8.24-26.6 0-48.18-21.57-48.18-48.18z" fill="#ed6c30"/></svg>