<svg viewBox="0 0 128 128" xmlns="http://www.w3.org/2000/svg"><path d="m2.89 64c0 33.75 27.35 61.11 61.11 61.11 33.75 0 61.11-27.36 61.11-61.11s-27.35-61.11-61.11-61.11-61.11 27.36-61.11 61.11z" fill="#006ca2"/><path d="m.47 64c0 35.08 28.44 63.53 63.53 63.53s63.53-28.45 63.53-63.53-28.44-63.53-63.53-63.53-63.53 28.45-63.53 63.53zm13.55 0c0-27.6 22.38-49.98 49.98-49.98 27.61 0 49.97 22.38 49.97 49.98s-22.37 49.98-49.97 49.98-49.98-22.38-49.98-49.98z" fill="#ed6c30"/><path d="m94.24 50.05c-3.65 0-7.07.95-10.04 2.61l-6.03-8.11v-1c.6.03 1.22.05 1.82.03 2.12-.06 4.33-1.26 5.26-3.23.96-2.04.03-4.41-1.95-5.49l-.41-.19c-1.12-.42-2.26-.09-3.46.05-1.46.17-2.92.34-4.38.48-2.43.24-4.84.83-7.25 1.09-1.39.15-2.55 1.39-2.82 2.7-.38 1.79.95 2.66 2.49 3.2.96.33 1.95.53 2.94.67h-21.06c.19-.93.37-1.86.53-2.78l.18-1.06c.35-2.14.64-3.25 1.08-3.83.71.51 1.53.64 2.66.5 3.35-.44 7.4.95 9.67-2.4.37-.53.4-1.39.31-2-.22-1.44-1.54-2.77-3.01-2.81-1.95-.05-3.95-.08-5.91-.01-1.37.05-3.43.21-4.54 1.09-.19.16-.35.33-.49.52-3.61 1.42-4.29 5.49-4.7 8.12l-.18 1c-.76 4.28-1.69 8.61-3.07 12.79-2.66-1.25-5.62-1.96-8.74-1.96-11.45 0-20.77 9.32-20.77 20.77s9.32 20.76 20.77 20.76c11.44 0 20.76-9.32 20.76-20.76 0-6.48-2.98-12.27-7.65-16.08.51-1.47.98-2.96 1.39-4.47l14.37 21.3c.11.16.24.29.36.42.05.04.09.07.13.11.11.08.21.16.32.23.06.03.11.06.17.08.12.06.25.11.37.15.05.02.1.03.15.04.18.04.37.07.56.07h.65c-.19.61-.33 1.21-.37 1.86-.03.51-.15 1-.26 1.49-.32-.01-.64-.03-.96-.01-1.65.14-3.8 1.31-3.67 3.22.17 2.38 1.95 2.09 3.78 2.09s4.92.46 6.44-.82c1.13-.95.84-3.29-.45-4-.65-.35-1.43-.38-2.21-.38.24-.92.38-1.86.56-2.78.04-.18.11-.42.19-.67h5.79c.95 10.58 9.85 18.91 20.67 18.91 11.45 0 20.77-9.32 20.77-20.76s-9.31-20.75-20.76-20.75zm-45.87 20.76c0 8.4-6.83 15.24-15.23 15.24s-15.25-6.84-15.25-15.24c0-8.41 6.85-15.24 15.25-15.24 2.41 0 4.7.58 6.74 1.6-1.85 4.06-4.29 7.88-7.63 11.23l-.09.11-.3.15c-1.19.71-1.58 2.24-.86 3.43.48.81 1.3 1.31 2.23 1.33h.08c1.42 0 2.24-1.08 2.62-1.63 3.51-3.55 6.1-7.48 8.08-11.64 2.68 2.76 4.36 6.52 4.36 10.66zm31.78-15.21c-3.36 3.12-5.69 7.33-6.42 12.07h-5.73l8.16-17.44zm3.31 4.46 5.65 7.61h-9.78c.62-2.93 2.08-5.57 4.13-7.61zm-11.72-12.19-8.06 17.24-11.62-17.24zm22.5 38.18c-7.77 0-14.19-5.85-15.11-13.38h14.96c.95 0 1.81-.53 2.23-1.37.42-.85.34-1.86-.22-2.61l-8.57-11.53c2.03-1 4.3-1.57 6.71-1.57 8.41 0 15.23 6.83 15.23 15.24 0 8.39-6.82 15.22-15.23 15.22z" fill="#fff"/><path d="m109.24 86.42-7.21 10.7-84.71-56.66 7.21-10.69z" fill="#ed6c30"/></svg>