<svg xmlns="http://www.w3.org/2000/svg" viewBox="0 0 128 128"><path fill="#ED6D30" d="M12.24 114.81c-1.33 0-1.15 1.59-1.15 4.59s-.18 4.68 1.41 4.68c1.59 0 102.24-.18 103.3-.26 1.06-.09.79-3.97.79-5.47 0-1.85.26-3.44-1.23-3.53-1.5-.09-102.59-.01-103.12-.01Z"/><path fill="#F78A51" d="m12.58 90.36.1 24.54 102.14-.1.23-25.1-2.25-2.52-99.4-.17Z"/><path fill="#ED6D30" d="m14.67 88.61-2.09 1.75-.01 3.89s.68.48 1.36.14c.68-.34 1.63-1 2.47-1.07 1.34-.1 1.23 1.18 2.52 1.18s2.46-1.29 3.55-1.29c1.09 0 1.59 1.38 2.75 1.31 1.16-.07 1.81-1.24 3.26-1.2 1.16.03 1.36 1.2 2.79 1.2s2.16-1.36 3.38-1.36c1.22 0 1.62 1.44 2.98 1.44 1.36 0 1.73-1.44 3.29-1.44s1.43 1.36 2.72 1.22c1.29-.14 1.42-1.26 2.98-1.33 1.56-.07 1.72 1.47 3.08 1.47s1.32-1.11 2.48-1.11 22.68-.05 23.5-.05c.82 0 2.08 1.44 3.44 1.44 1.36 0 .98-1.54 2.47-1.58.89-.02 2.62 1.48 3.64 1.48s1.39-1.54 2.54-1.61c1.15-.07 2.86 1.7 4.22 1.56 1.36-.14.68-1.5 1.7-1.63 1.02-.14 3.06 1.5 4.42 1.56 1.36.07.48-1.77 1.9-1.77s2.52 1.56 4.01 1.63c1.49.07.48-1.56 1.97-1.7 1.49-.14 2.58 2.04 4.01 1.9 1.43-.14.82-1.7 2.04-1.77 1.22-.07 2.92 1.02 2.92 1.02l.06-4.22-58.76-18.56-41.59 17.5Z"/><path fill="#51362F" d="M51.87 123.96s.25-29.46.21-30.18c-.05-.87.72-1.08 1.34-1.08h21.8c.62 0 .98.46 1.03 1.03.05.57-.1 30.18-.1 30.18l-24.28.05Z"/><path fill="#6C4D43" d="M8.45 76.25s-4.12 9.11-4.08 9.8c.04.69 1.19 4.88 3.03 4.99 2.52.15 2.98-2.06 3.4-2.06.42 0 .98 2.16 2.42 2.37 1.68.24 2.89-2.46 3.54-2.46.65 0 .97 2.35 2.49 2.35 1.52 0 3.14-2.54 3.74-2.49.6.05 1.18 2.7 2.42 2.7 1.25 0 2.47-2.26 3.55-2.37.56-.05 1.09 2.53 2.11 2.57 1.02.05 2.76-2.67 3.64-2.67.88 0 1.57 2.81 2.91 2.68 1.34-.13 3.15-2.63 3.79-2.63.64 0 1.34 2.53 2.39 2.58.95.04 2.52-2.38 3.16-2.42.64-.04 1.41 2.47 2.47 2.47 1.06 0 2.21-2.72 3.09-2.77.88-.05 1.25 2.56 2.31 2.56s2.63-2.63 3.6-2.67c.97-.05 1.5 2.52 2.47 2.52.97 0 2.05-2.61 2.74-2.64 1.07-.04 1.75 2.54 3.23 2.59 1.48.05 2.08-2.49 3.23-2.49s1.48 2.4 2.77 2.45c1.29.05 2.35-2.49 3.32-2.45.97.05 1.61 2.35 2.68 2.35s2.12-2.35 2.91-2.31c.78.05 1.85 2.4 2.91 2.4s1.94-2.43 2.45-2.45c.98-.03 1.98 2.54 3 2.45 1.02-.09 2.2-2.62 3.08-2.58.88.05 2.23 2.87 3.29 2.78 1.06-.09 1.96-2.77 2.93-2.73.97.04 1.75 2.47 2.98 2.47 1.13 0 1.76-2.32 2.78-2.37 1.02-.05 1.97 2.22 3.03 2.11 1.06-.11 1.49-2.22 2.42-2.26.92-.05 2.28 2.39 3.62 2.34 1.34-.05 2.03-1.94 2.77-1.98.74-.04 1.38 2.06 3.18 2.03 1.62-.02 3.74-3.05 3.32-5.17-.42-2.12-6.18-10.57-6.18-10.57l-108.91.98Z"/><path fill="#A37F69" d="M17.18 52.1s-5.37 7.54-8.56 14.43C5.43 73.42 4.2 77.5 4 81.52c-.2 3.93.37 4.53.37 4.53l5.83-6.37s.06 6.02.49 6.08c.43.06 4.92-6.21 5.22-6.27.31-.06.31 6.33.74 6.33s5.04-6.45 5.35-6.45c.31 0 .43 6.39.8 6.39.37 0 4.55-6.51 4.86-6.45.31.06 1.41 6.82 1.78 6.82.37 0 4.24-6.88 4.67-6.88.43 0 .92 7.13 1.41 7.13.49 0 4.3-6.88 4.61-6.88.31 0 1.54 6.82 2.03 6.76.49-.06 3.87-6.76 4.18-6.64.31.12 1.11 6.58 1.66 6.58.55 0 3.5-6.76 3.99-6.76.49 0 1.73 6.56 2.1 6.56.37 0 3.44-6.58 3.81-6.64.37-.06 2.34 7.25 2.95 7.25.61 0 2.46-6.76 2.89-6.7.43.06 3.32 6.45 3.56 6.45.24 0 2.4-6.7 2.64-6.7.24 0 3.13 6.08 3.56 6.15.43.06 2.03-6.08 2.34-5.96.31.12 3.26 6.45 3.63 6.51.37.06 1.66-6.64 2.03-6.64.37 0 4.42 7.37 4.73 7.31.31-.06.68-7.44 1.04-7.5.37-.06 5.22 7.25 5.59 7.19.37-.06.18-7.44.43-7.44s4.24 6.88 4.79 6.82c.55-.06 1.04-6.45 1.41-6.45.37 0 4.79 7.5 5.35 7.44.56-.06.12-7.01.37-7.07.25-.06 5.22 6.27 5.47 6.21.25-.06.18-6.82.61-6.88.43-.06 5.04 6.58 5.47 6.45.43-.12.49-6.76.74-6.82.25-.06 6.01 6.85 6.01 6.85s1.12-6.01-.86-11.77-6.79-13.85-9.12-17.29c-2.32-3.44-3.68-5.03-3.68-5.03l-56.81-7.28-35.86 7.64Z"/><path fill="#BD9177" d="M36.88 28.99s-7.59 7.47-11.21 11.79c-3.62 4.32-8.5 11.31-8.5 11.31s-1.77 8.18-1.25 8.24c.53.06 5.72-7.76 6.19-7.71.47.06-.76 7.88-.29 8 .47.12 6.25-8.11 6.54-8.17.29-.06-.93 8.11-.53 8.23.4.12 6.25-8.17 6.6-8.17.35 0 .82 7.65 1.28 7.65.46 0 4.32-7.76 4.67-7.71.35.06 1.17 8 1.75 8.11.58.12 3.27-8.23 3.74-8.29.47-.06 1.63 8.76 2.16 8.76.53 0 3.33-8.64 3.68-8.64.35 0 1.23 8.64 1.81 8.64.58 0 3.21-8.81 3.56-8.81.35 0 2.86 8.46 3.27 8.35.41-.12 2.63-8.46 3.04-8.41.41.06 2.33 8.17 3.04 8.29.7.12 2.57-7.88 3.15-7.88.58 0 2.1 8.87 2.8 8.87.7 0 2.28-8.87 2.63-8.87.35 0 3.56 8.76 4.09 8.81.53.06 1.11-8.35 1.75-8.41.64-.06 4.09 8.41 4.44 8.35.35-.06.64-8.29.99-8.35.35-.06 4.26 7.71 4.9 7.71.64 0 .23-8.06.82-8 .58.06 6.42 8.46 6.95 8.46.53 0-1.52-8.76-1.05-8.87.47-.12 6.6 9.34 7.24 9.16.64-.18-1.63-8.58-1.23-8.7.41-.12 6.77 8.23 7.36 8 .58-.23-1.38-8.99-1.38-8.99s-5.86-7.65-8.89-11.38c-3.04-3.74-7.82-8.7-7.82-8.7L69.61 19.89l-32.73 9.1Z"/><path fill="#D2A590" d="M36.88 28.99s-2.87 5.41-2.29 5.75c.58.34 7.69-6.49 8.38-6.32.69.17-2.3 7.23-1.32 7.46.98.23 5.68-7.75 6.26-7.64.57.11-1.21 7.75-.29 8.04.92.29 4.88-8.33 5.51-8.21.63.11.46 8.61 1.03 8.67.57.06 3.5-8.27 3.9-8.27.4 0 1.55 8.79 2.24 8.84.69.06 2.75-9.15 3.21-9.15.46 0 2.76 8.69 3.51 8.69s1.2-8.77 1.6-8.94c.4-.17 3.76 8.42 4.72 8.42.83 0-.58-8.55-.06-8.67.52-.11 5.28 8.84 6.26 8.79.98-.06-.72-8.35-.26-8.35.46 0 5.72 8.29 6.58 8.29.86 0-1.8-8.43-1.28-8.55.52-.11 8.35 7.39 8.81 7.27.46-.11-.23-3.46-.23-3.46S74.27 12.23 63.7 12.18c-10.8-.06-26.82 16.81-26.82 16.81Z"/></svg>