<svg xmlns="http://www.w3.org/2000/svg" viewBox="0 0 128 128"><path fill="#B0BEC5" d="M16.77 19.75c-1 0-1.7.8-1.7 1.8v.1c-1.5 25.91 3.03 59.27 24.01 83.52 12.1 14.7 23.91 18.53 24.51 18.73 0 0 .28.09.54.09s.57-.1.57-.1c.5-.2 12.48-4.02 24.49-18.72 19.91-24.21 24.01-58.82 24.01-83.52v-.1c0-1-.8-1.8-1.7-1.8-.3 0-29.11-1-46.01-15.3-.7-.6-1.7-.6-2.4 0-17.11 14.2-46.02 15.2-46.32 15.3Z"/><path fill="#84B0C1" d="M111.49 19.75c-.3 0-29.11-1-46.01-15.3-.4-.35-.83-.45-1.24-.45h-.11v120c.27-.01.62-.11.62-.12.6-.25 12.44-4 24.44-18.7 19.91-24.21 24.01-58.82 24.01-83.52v-.1c0-1.01-.8-1.81-1.71-1.81Z"/><path fill="#2F7889" d="M26.33 28.31c-.82 0-1.02 1.02-1.02 1.74v.1c0 19.72 3.06 47.4 19 66.71 9.6 11.75 19 14.81 19.41 14.91l.41.1.41-.1c.41-.1 9.81-3.17 19.41-14.91 15.94-19.31 19-46.89 19-66.71v-.1c0-.82-.41-1.43-1.23-1.43h.1c-.2 0-23.19-.82-36.67-12.16-1.19-.98-1.94-.2-1.94-.2C49.63 27.6 26.64 28.31 26.33 28.31Z"/><path fill="#C9E3E6" d="M29.18 30.07c-.76 0-.94.96-.94 1.64v.1c0 18.57 2.83 44.65 17.57 62.84 8.88 11.07 17.57 13.95 17.95 14.05l.38.1.38-.1c.38-.1 9.07-2.98 17.95-14.05 14.73-18.19 17.57-44.17 17.57-62.84v-.1c0-.77-.38-1.35-1.13-1.35H99c-.19 0-21.44-.77-33.91-11.45-.94-.95-1.79-.19-1.79-.19C50.72 29.4 29.47 30.07 29.18 30.07Z"/><path fill="#B0BEC5" d="M98.89 30.36h.09c-.19 0-21.44-.77-33.91-11.45-.34-.34-.66-.46-.94-.47v90.35l.38-.1c.38-.1 9.07-2.98 17.95-14.05 14.73-18.19 17.57-44.17 17.57-62.84v-.1c-.01-.76-.38-1.34-1.14-1.34Z"/><path fill="#37474F" d="M72.56 14.44a1.93 1.93 0 1 1-3.86 0 1.93 1.93 0 1 1 3.86 0ZM84.14 19.67a1.93 1.93 0 1 1-3.86 0 1.93 1.93 0 1 1 3.86 0ZM96.94 23.21a1.93 1.93 0 1 1-3.86 0 1.93 1.93 0 1 1 3.86 0ZM110.08 25.14a1.93 1.93 0 1 1-3.86 0 1.93 1.93 0 1 1 3.86 0ZM110.5 36.94a1.93 1.93 0 1 1-3.86 0 1.93 1.93 0 1 1 3.86 0ZM108.95 50.76a1.93 1.93 0 1 1-3.86 0 1.93 1.93 0 1 1 3.86 0ZM66.01 118.11a1.93 1.93 0 1 1-3.86 0 1.93 1.93 0 1 1 3.86 0ZM77.33 112.71a1.93 1.93 0 1 1-3.86 0 1.93 1.93 0 1 1 3.86 0ZM87.67 102.71a1.93 1.93 0 1 1-3.86 0 1.93 1.93 0 1 1 3.86 0ZM95.74 91.27a1.93 1.93 0 1 1-3.86 0 1.93 1.93 0 1 1 3.86 0ZM101.6 79a1.93 1.93 0 1 1-3.86 0 1.93 1.93 0 1 1 3.86 0ZM106.2 64.65a1.93 1.93 0 1 1-3.86 0 1.93 1.93 0 1 1 3.86 0Z"/><path fill="#B9E4EA" d="M72.08 13.8a1.93 1.93 0 1 1-3.86 0 1.93 1.93 0 1 1 3.86 0ZM83.66 19.03a1.93 1.93 0 1 1-3.86 0 1.93 1.93 0 1 1 3.86 0ZM96.46 22.57a1.93 1.93 0 1 1-3.86 0 1.93 1.93 0 1 1 3.86 0ZM109.59 24.5a1.93 1.93 0 1 1-3.86 0 1.93 1.93 0 1 1 3.86 0ZM110.02 36.3a1.93 1.93 0 1 1-3.86 0 1.93 1.93 0 1 1 3.86 0ZM108.46 50.12a1.93 1.93 0 1 1-3.86 0 1.93 1.93 0 1 1 3.86 0Z"/><path fill="#EEE" d="M65.53 117.47a1.93 1.93 0 1 1-3.86 0 1.93 1.93 0 1 1 3.86 0Z"/><path fill="#B9E4EA" d="M76.85 112.07a1.93 1.93 0 1 1-3.86 0 1.93 1.93 0 1 1 3.86 0ZM87.19 102.07a1.93 1.93 0 1 1-3.86 0 1.93 1.93 0 1 1 3.86 0ZM95.26 90.63a1.93 1.93 0 1 1-3.86 0 1.93 1.93 0 1 1 3.86 0ZM101.12 78.36a1.93 1.93 0 1 1-3.86 0 1.93 1.93 0 1 1 3.86 0ZM105.72 64.01a1.93 1.93 0 1 1-3.86 0 1.93 1.93 0 1 1 3.86 0Z"/><path fill="#2F7889" d="M59.9 14.44a1.93 1.93 0 1 1-3.86 0 1.93 1.93 0 1 1 3.86 0ZM48.32 19.67a1.93 1.93 0 1 1-3.86 0 1.93 1.93 0 1 1 3.86 0ZM35.52 23.21a1.93 1.93 0 1 1-3.86 0 1.93 1.93 0 1 1 3.86 0ZM22.38 25.14a1.93 1.93 0 1 1-3.86 0 1.93 1.93 0 1 1 3.86 0ZM21.95 36.94a1.93 1.93 0 1 1-3.86 0 1.93 1.93 0 1 1 3.86 0ZM23.51 50.76a1.93 1.93 0 1 1-3.86 0 1.93 1.93 0 1 1 3.86 0ZM55.12 112.71a1.93 1.93 0 1 1-3.86 0 1.93 1.93 0 1 1 3.86 0ZM44.79 102.71a1.93 1.93 0 1 1-3.86 0 1.93 1.93 0 1 1 3.86 0ZM36.72 91.27a1.93 1.93 0 1 1-3.86 0 1.93 1.93 0 1 1 3.86 0ZM30.85 79a1.93 1.93 0 1 1-3.86 0 1.93 1.93 0 1 1 3.86 0ZM26.26 64.65a1.93 1.93 0 1 1-3.86 0 1.93 1.93 0 1 1 3.86 0Z"/><path fill="#EEE" d="M59.47 13.8a1.93 1.93 0 1 1-3.86 0 1.93 1.93 0 1 1 3.86 0ZM47.88 19.03a1.93 1.93 0 1 1-3.86 0 1.93 1.93 0 1 1 3.86 0ZM35.09 22.57a1.93 1.93 0 1 1-3.86 0 1.93 1.93 0 1 1 3.86 0ZM21.95 24.5a1.93 1.93 0 1 1-3.86 0 1.93 1.93 0 1 1 3.86 0ZM21.52 36.3a1.93 1.93 0 1 1-3.86 0 1.93 1.93 0 1 1 3.86 0ZM23.08 50.12a1.93 1.93 0 1 1-3.86 0 1.93 1.93 0 1 1 3.86 0ZM54.69 112.07a1.93 1.93 0 1 1-3.86 0 1.93 1.93 0 1 1 3.86 0ZM44.35 102.07a1.93 1.93 0 1 1-3.86 0 1.93 1.93 0 1 1 3.86 0ZM36.29 90.63a1.93 1.93 0 1 1-3.86 0 1.93 1.93 0 1 1 3.86 0ZM30.42 78.36a1.93 1.93 0 1 1-3.86 0 1.93 1.93 0 1 1 3.86 0ZM25.82 64.01a1.93 1.93 0 1 1-3.86 0 1.93 1.93 0 1 1 3.86 0Z"/></svg>