<svg xmlns="http://www.w3.org/2000/svg" viewBox="0 0 128 128"><path fill="#2F7889" d="M51.24 75.33S3.98 57.62 4 57.25L5.12 23.6c.02-.45.47-.75.89-.59l46.35 17.12c.38.14.62.51.61.91l-1.13 33.9c-.01.3-.31.5-.6.39Z"/><path fill="#37474F" d="m9.29 59.89 41.95 15.44c.28.11.59-.09.6-.4l1.13-33.9-7.57-2.85L9.29 59.89Z"/><path fill="#9DD4E0" d="m50.886 76.288-46.69-17.25q-1.254-.479-1.217-1.806l1.12-33.666q.039-.867.751-1.34.718-.477 1.524-.17l46.34 17.116q1.312.484 1.277 1.894l-1.13 33.908q-.026.755-.656 1.169-.62.406-1.319.145Zm-.04-2.192 1.101-33.03L6.124 24.141 5.025 57.167l45.821 16.929Z"/><path fill="#9DD4E0" d="m52.233 58.439-47.84-17.69.354-.958 47.84 17.69-.354.958Z"/><path fill="#9DD4E0" d="m30.05 32.728-1.17 34.02-1.02-.036 1.17-34.02 1.02.036ZM17.45 27.405l-1.06 35.2-1.02-.03 1.06-35.2 1.02.03ZM42.53 35.965l-1.06 35.44-1.02-.03 1.06-35.44 1.02.03Z"/><path fill="#BF8904" d="m82.81 38.76 1.46-2.49c.59-1.01 1.82-1.5 2.93-1.13 2.04.68 5.21 2.43 7.46 6.88 2.27 4.49 1.93 8.12 1.37 10.17a2.53 2.53 0 0 1-2.38 1.88l-2.04.04-8.8-15.35Z"/><path fill="#875D00" d="M91.15 40.25c-.63.82.08 4.67-.76 5.61-.42.46-1.01.9-1.58.65l2.29 7.61 2.57-.04a2.51 2.51 0 0 0 2.38-1.88c.55-2.05.9-5.68-1.37-10.17-.3-.57-2.06-3.71-3.53-1.78Z"/><path fill="#FFCA28" d="M89.28 41.23 68.9 33.46l-21.19 9.97L53.65 86l22.18-9.48 16.91-13.77Z"/><path fill="#E2A610" d="m89.28 41.22-21.33 9.92-14.1 35.25 22.18-9.48 16.91-13.77Z"/><path fill="#BF8904" d="m67.99 51.25-20.37-7.77-16.91 13.76 3.46 21.53 20.37 7.76 16.91-13.76Z"/><path fill="#875D00" d="m93.17 63.12-21.82 9.67-3.44 2.85c.01-.14.6-6.87-4.9-15.06-3.95-5.89-12.89-9.2-12.89-9.2l4.45 35.3 22.17-9.48 16.43-14.08Z"/><path fill="#2F7889" d="M122.27 105.01S75.01 87.3 75.03 86.93l1.12-33.66c.02-.45.47-.75.89-.59l46.35 17.12c.38.14.62.51.61.91l-1.13 33.9c-.01.31-.31.51-.6.4Z"/><path fill="#37474F" d="m80.32 89.57 41.95 15.44c.28.11.59-.09.6-.4L124 69.95l-6.99-2.43-36.69 22.05Z"/><path fill="#9DD4E0" d="m121.916 105.968-46.69-17.25q-1.253-.479-1.217-1.816l1.12-33.666q.039-.867.751-1.34.718-.477 1.524-.17l46.34 17.116q1.312.484 1.277 1.894l-1.13 33.908q-.025.757-.65 1.173-.621.414-1.325.151Zm-.04-2.192 1.101-33.04-45.823-16.925-1.099 33.036 45.821 16.929Z"/><path fill="#9DD4E0" d="m123.263 88.109-47.84-17.68.354-.958 47.84 17.68-.354.958Z"/><path fill="#9DD4E0" d="m101.08 62.408-1.17 34.02-1.02-.036 1.17-34.02 1.02.036ZM88.48 57.075l-1.06 35.2-1.02-.03 1.06-35.2 1.02.03ZM113.56 65.645l-1.06 35.44-1.02-.03 1.06-35.44 1.02.03Z"/><path fill="#E2A610" d="M75.03 39.47c0-1.57-2.67-2.85-5.96-2.85s-5.96 1.27-5.96 2.85v2.23c0 1.57 2.67 2.85 5.96 2.85s5.96-1.27 5.96-2.85v-2.23Z"/><path fill="#E2A610" d="M75.03 39.47a5.96 2.85 0 1 1-11.92 0 5.96 2.85 0 1 1 11.92 0Z"/><path fill="#FFCA28" d="M74.08 39.27a5.01 2.2 0 1 1-10.02 0 5.01 2.2 0 1 1 10.02 0Z"/><path fill="#E2A610" d="M70.02 39.3s-.19.4-.94.4-.94-.4-.94-.4.27-10.28.35-10.95c.08-.67 1.02-.65 1.05 0 .02.65.48 10.95.48 10.95Z"/><path fill="#BF8904" d="M75.03 39.47s-.37 1.63-3.68 2.29c-2.43.48-4.17.29-4.59 1.56-.32.96 1.98 1.75 5.23.87 2.93-.8 3.04-2.26 3.04-2.48v-2.24Z"/><path fill="#9DD4E0" d="M53.94 92.43 36.62 46.49c7.54-2.84 21.56 3.62 26.34 16.3 4.78 12.68-1.48 26.8-9.02 29.64Z"/><path fill="#2F7889" d="m51.7 86.49 2.24 5.94c7.54-2.84 13.81-16.95 9.02-29.64-.4-1.06-.87-2.08-1.4-3.06 1.9 8.89-1.6 19.92-9.86 26.76Z"/><path fill="#F5F5F5" d="M57.626 64.885c4.597 12.196 2.772 24.175-4.075 26.756-6.847 2.581-16.124-5.213-20.722-17.409-4.597-12.196-2.772-24.175 4.075-26.756 6.847-2.581 16.124 5.213 20.722 17.409Z"/><path fill="#BDBDBD" d="M37.04 68.06c-3.51-6.56-5.78-16.39-1.43-20.05 4.59-3.86 11.08.68 14.34 3.57 1.81 1.6 2.76 2.85 3.7 4.13 5.36 7.3 9.97 21.66 3.79 26.91-4.31 3.66-15.15-4.74-20.4-14.56Z"/><path fill="#6392A5" d="M33.52 73.89c-4.31-11.44-2.57-23.13 3.81-25.53 6.38-2.4 15.4 5.23 19.71 16.67 4.31 11.44 2.57 23.13-3.81 25.53-6.38 2.4-15.4-5.23-19.71-16.67m-1.34.51c4.78 12.69 14.77 20.67 22.31 17.82 7.54-2.84 9.78-15.43 4.99-28.12-4.79-12.69-14.77-20.66-22.31-17.82-7.54 2.84-9.77 15.43-4.99 28.12Z"/><path fill="#6392A5" d="m26.416 75.614 26.06-11.54q.686-.303.99.382.152.343.056.591-.095.247-.438.399l-26.06 11.54q-.686.303-.99-.382-.152-.343-.056-.591.095-.247.438-.399Z"/><path fill="#6392A5" d="m26.161 75.8 15.19-17.01q.499-.559 1.059-.059.559.499.059 1.059L27.279 76.8q-.499.559-1.059.059-.279-.249-.294-.514-.015-.265.235-.545Z"/><path fill="#6392A5" d="m26.833 75.559 23.25 3.54q.741.112.628.854-.112.741-.854.628l-23.25-3.54q-.741-.112-.628-.854.112-.741.854-.628Z"/><path fill="#6392A5" d="m28.4 74.49.79 2.08a.85.85 0 0 1-.5 1.1l-4.13 1.56a.85.85 0 0 1-1.1-.5l-.79-2.08a.85.85 0 0 1 .5-1.1L27.3 74a.85.85 0 0 1 1.1.49Z"/></svg>