<svg xmlns="http://www.w3.org/2000/svg" viewBox="0 0 128 128"><path fill="#82AEC0" d="m109.732 78.505-27.74-15.26 3.856-7.01 27.74 15.26-3.856 7.01ZM54.097 106.85l-26.51-15.03 3.946-6.96 26.51 15.03-3.946 6.96Z"/><path fill="#F44336" d="M43.3 94.91c2.97-4.49 7.69-5.74 11.31-4.2 5.54 2.35 6.41 4.3 6.41 4.3-1.48 2.24-10.91 15.79-10.91 15.79s-3.93-1.74-6.26-3.84c-2.91-2.63-3.52-7.56-.55-12.05Z"/><path fill="#C62828" d="M42.14 97.08s-.42 2.63 1.39 3.51c2.94 1.43 4.55-1.43 4.55-1.43s2.19-3.51 6.11-4.92c5.51-1.99 7.53 1.81 7.53 1.81s-1.46-4.53-7.96-5.63c-1.83-.31-5.83 1-7.04 1.7-3.9 2.25-4.58 4.96-4.58 4.96Z"/><path fill="#FF7555" d="M59.938 94.06c3.28 2.169 3.53 7.568.559 12.059-2.971 4.491-8.038 6.373-11.317 4.204-3.28-2.17-3.53-7.569-.559-12.06 2.971-4.491 8.038-6.373 11.317-4.203Z"/><path fill="#C62828" d="M53.1 103.95c.79-1.02 1.43-1.72 2.16-.7.31.49.61 1.22 1.21 1.34 1.82.38 2.38-2.08 2.21-3.34-.44-2.98-4.01-2.67-5.63-.07-.94 1.42-.84 3.26-.47 4.12 0 .01.36-1.11.52-1.35Z"/><path fill="#F44336" d="M17.39 82.77c2.97-4.49 7.69-5.74 11.31-4.2 5.54 2.35 6.41 4.3 6.41 4.3-1.48 2.24-10.91 15.79-10.91 15.79s-3.93-1.74-6.26-3.84c-2.91-2.63-3.52-7.56-.55-12.05Z"/><path fill="#C62828" d="M34.035 81.917c3.28 2.169 3.53 7.568.559 12.059-2.97 4.491-8.037 6.373-11.317 4.204-3.279-2.17-3.53-7.569-.559-12.06 2.971-4.491 8.038-6.373 11.317-4.203Z"/><path fill="#F44336" d="M100.42 66.75c2.98-4.48 7.71-5.71 11.33-4.16 5.53 2.37 6.4 4.33 6.4 4.33-1.49 2.24-10.96 15.75-10.96 15.75s-3.93-1.75-6.25-3.86c-2.91-2.65-3.5-7.58-.52-12.06Z"/><path fill="#C62828" d="M99.26 68.92s-.43 2.63 1.38 3.51c2.94 1.44 4.56-1.42 4.56-1.42s2.5-3.86 6.47-5.15c5.07-1.65 7.19 2.08 7.19 2.08s-1.48-3.74-7.57-5.4c-3.84-1.05-7.35.81-8.32 1.59-3.54 2.81-3.71 4.79-3.71 4.79Z"/><path fill="#FF7555" d="M117.062 65.94c3.273 2.181 3.505 7.581.519 12.062-2.985 4.481-8.059 6.347-11.331 4.166-3.273-2.18-3.505-7.581-.519-12.062 2.986-4.481 8.059-6.346 11.331-4.166Z"/><path fill="#C62828" d="M110.21 76.02c.53-.61 1.33-1.63 2.06-.6.31.49.69.98 1.29 1.06 1.89.26 2.39-2.07 2.22-3.34-.43-2.98-4-2.68-5.63-.09-.94 1.41-.85 3.2-.49 4.12 0 0 .21-.75.55-1.15Z"/><path fill="#DDB98C" d="M124.01 39.89c-3.52-10.2-9.89-11.48-12.39-12.37 0 0 4.48 3.82 6.53 8.46 2.64 6 2.49 13.52-3.24 17.58l-75.44 35.3C21.89 93.17 3.28 75.53 3.28 75.53c-.61 4.05-2.06 11.58 12.93 17.16 13.47 5.01 26.84 3.89 32.53 1.04l68.21-32.59c6.74-3.85 9.94-12.92 7.06-21.25Z"/><path fill="#424242" d="M121.49 36.46c-3.52-10.2-15.25-10.61-21.92-8.92-5.54 1.41-11.8 6.57-16.41 10.44-2.48 2.08-6.4 3.87-6.4 3.87L20.18 68.92s-1.64.69-4.4.76c-2.82.07-10.92-.36-12.24 4.46-1.18 4.33.65 10.08 13.79 15.04 13.45 5.08 23.2 3.97 28.9 1.13l68.21-32.59c6.73-3.85 9.93-12.92 7.05-21.26Z"/><path fill="#757575" d="M37.598 79.37c1.471.165 2.563 1.189 2.44 2.287-.124 1.097-1.416 1.853-2.887 1.688-1.471-.165-2.563-1.189-2.44-2.287.124-1.097 1.416-1.853 2.887-1.688ZM28.328 73.831c1.471.166 2.564 1.19 2.44 2.287-.123 1.098-1.416 1.854-2.886 1.688-1.471-.165-2.563-1.189-2.44-2.286.123-1.098 1.416-1.854 2.886-1.689ZM47.08 74.914c1.471.165 2.563 1.189 2.44 2.287-.124 1.097-1.416 1.853-2.887 1.688-1.471-.166-2.563-1.189-2.44-2.287.124-1.098 1.416-1.853 2.887-1.688ZM37.809 69.385c1.471.166 2.563 1.189 2.44 2.287-.123 1.098-1.416 1.853-2.887 1.688-1.47-.165-2.563-1.189-2.439-2.287.123-1.097 1.415-1.853 2.886-1.688ZM89.041 54.268c1.471.165 2.563 1.189 2.44 2.286-.123 1.098-1.416 1.854-2.887 1.689-1.47-.166-2.563-1.19-2.439-2.287.123-1.098 1.416-1.854 2.886-1.688ZM79.771 48.739c1.471.165 2.563 1.189 2.44 2.287-.124 1.097-1.416 1.853-2.887 1.688-1.471-.166-2.563-1.189-2.44-2.287.124-1.098 1.416-1.853 2.887-1.688ZM98.677 49.897c1.471.166 2.563 1.189 2.44 2.287-.123 1.098-1.416 1.853-2.887 1.688-1.47-.165-2.563-1.189-2.439-2.287.123-1.097 1.415-1.853 2.886-1.688ZM89.407 44.369c1.471.165 2.563 1.189 2.439 2.286-.123 1.098-1.415 1.854-2.886 1.688-1.471-.165-2.563-1.189-2.44-2.286.124-1.098 1.416-1.854 2.887-1.688Z"/></svg>