<svg xmlns="http://www.w3.org/2000/svg" viewBox="0 0 128 128"><path fill="#2F7C31" d="M21.74 24.77 8.57 41.04s-3.95 4.95-2.93 9.84c1.15 5.46 4.05 5.79 4.05 5.79S9.5 60.91 12 64.52c2.5 3.61 3.69 5.32 12.77 8.07s25.46 5.84 25.46 5.84l4.22 16.38s1.13 4.05 6.16 6.16c5.03 2.11 8.96 1.56 8.96 1.56s2.08 5.75 8.99 7.35c5.98 1.39 10.75-1.62 10.75-1.62s5.03 3.08 11.51 1.62c7.52-1.69 9.24-6.32 9.24-6.32s6.16-.65 10.21-6.49c4.05-5.84 1.13-12.48 1.13-12.48s3.59-5.32 2.59-11.35c-.9-5.46-3.07-7.32-3.07-7.32l-12.98-9.06s5.51-2.27 7.46-12c1.95-9.73-2.92-14.59-2.92-14.59s1.91-5.49-1.3-10.38c-3.08-4.7-7.46-2.43-9.57-4.54-2.6-2.6-17.35-4.22-17.35-4.22L67.25 25.26l-45.51-.49Z"/><path fill="#709921" d="M28 8.45s5.09-5.58 11.92-5.09c6.83.49 8.07 4.61 8.07 4.61s4.19-.69 6.82.48c5.38 2.4 4.81 5.19 6.44 5 1.63-.19 1.63-7.11 9.23-9.52 7.6-2.41 11.73 1.25 13.36 1.15 1.63-.1 3.65-2.03 9.42-.19 5.19 1.66 6.3 5.1 6.54 6.15.28 1.27.28 2.69 1.82 4.32 1.54 1.63-.11 7.54-2.32 9.94-2.21 2.4-6.52 2.65-6.52 2.65s1.01 8.3-5.89 12.86c-4.85 3.2-10.07 1.94-10.07 1.94s-5.57 4.82-11.82 2.8c-6.25-2.02-6.92-4.61-3.46-7.5 3.46-2.88 5-8.46.87-9.52-4.13-1.06-8.36.96-9.8 5.48-1.44 4.52-1.54 8.46-6.25 11.82-4.71 3.36-8.17 2.31-12.88 3.56-4.71 1.25-7.88 5.29-11.82 5.38-3.94.1-7.02-2.79-9.04-2.5-2.02.29-6.15 1.25-6.15 1.25s-1.83-3.46-.67-7.69c1.16-4.23 2.78-4.8 2.78-4.8s-9.37-9.06-.76-22.88C15.6 5.66 28 8.45 28 8.45ZM79.71 73.23s3.65-1.54 6.06-5.67c2.4-4.13 3.65-7.21 7.5-9.23 3.84-2.02 8.17-1.83 13.75-1.54 5.58.29 6.99 1.99 8.36 3.36 2.69 2.69 5.58 5.77 5.58 5.77s-4.71.38-7.21 4.23c-2.5 3.85-4.04 9.13-4.04 9.13s-3.36 1.25-6.92 3.17-11.44 7.02-16.63 5.67c-5.19-1.35-7.88-7.31-7.88-7.98-.01-.66 1.43-6.91 1.43-6.91Z"/><path fill="#9FB525" d="M35.34 81.83c-.24.72-25.28 28.89-25.28 28.89s3.01 4.57 5.66 6.74c2.65 2.17 6.95 5.41 9.68 6.15 2.96.8 5.24 1.68 7.89-1.81 2.65-3.49 4.69-8.06 11.92-15.77 7.23-7.71 12.4-12.4 18.17-15.17 5.77-2.77 14.08-4.69 16.25-4.93 2.17-.24 4.93-.48 4.93-.48s1.63-3.29 1.08-5.9c-.61-2.91-4.69-4.21-4.69-4.21l-20.7 3.01 2.45-.82s-.97-1.43.32-3.28c1.12-1.61 6.26-7.83 7.95-10.12 1.69-2.29 5.12-6.73 5.05-7.45-.12-1.32-3.25-3.01-4.21-3.61-.96-.6-3.01-1.44-3.01-1.44L46.65 74.6l-1.2-1.08s-1.44-.07-2.29-2.29c-.6-1.56-.84-6.26-1.32-10.35-.3-2.56-.48-5.54-.48-5.54s-3.49-1.56-5.78-1.32-4.93 2.77-4.93 2.77l4.69 25.04Z"/><path fill="#B7D118" d="M26.91 57.51c-.36.96.24 5.3.24 11.07 0 5.77-.33 11.12-3.13 14.56-3.61 4.45-9.75 10.71-14.44 14.92-2.03 1.82-3.37 2.53-3.49 3.01-.12.48.87 4.86 1.81 6.74 1.7 3.4 4.82 6.49 4.82 6.49s12.51-14.07 17.81-19.49c5.3-5.42 8.18-9.03 9.39-7.82 1.2 1.2-2.79 5.89-5.66 9.15-4.33 4.93-16.47 22.92-16.47 22.92s.67.7 2.03 1.63c1.2.83 2.14 1.26 2.14 1.26s6.4-10.41 15.31-19.8 13.96-13.72 20.1-15.77c6.14-2.05 28.28-6.86 28.28-6.86s-.96-3.37-1.56-4.81c-.6-1.44-1.93-3.13-1.93-3.13s-11.07 2.89-13 3.49c-1.93.6-12.88 1.93-13.36.72-.48-1.2 7.34-10.95 9.63-13.96 2.29-3.01 6.43-8.79 6.43-8.79s-2.45-1.68-5.46-2.4-4.09-.12-4.09-.12-7.34 9.87-9.51 12.76c-2.17 2.89-6.38 9.15-10.23 10.23-3.85 1.08-4.81.12-5.3-2.77-.48-2.89-1.69-16.73-1.69-16.73s-3.85.24-5.3.96c-1.45.72-3.01 1.58-3.37 2.54Z"/><path fill="#2F7C31" d="M102.96 75.13s2.24-4.05 4.17-2.36c1.94 1.69-1.75 7.02-2.54 7.2-.79.18-6.95-1.87-6.05-4.17.92-2.3 4.42-.67 4.42-.67ZM44.78 34.49c2.3-.08 7.13-4.8 5.09-7.25-1.65-1.98-5.09 1.86-5.09 1.86s-3.64-3.75-5.08-1.94c-2.05 2.62 3.39 7.39 5.08 7.33ZM31.96 39.21s2-4.11 4.29-2.36c2.3 1.75-1.69 7.68-2.9 8.04-1.21.36-7.71-3.36-5.99-5.99 1.4-2.11 4.6.31 4.6.31ZM14.36 35.46c.72.12 5.87-2.78 4.41-5.32-1.46-2.54-4.41.67-4.41.67s-2.79-2.47-3.99-.97c-1.93 2.42 2.91 5.44 3.99 5.62ZM15.27 43.81s1.94-3.99 3.99-2.48c2.06 1.51-1.51 7.56-2.06 7.8-.54.24-7.81-1.81-6.23-4.72 1.1-1.99 4.3-.6 4.3-.6ZM79.21 39.31c1.59-.69 4.25-6.07 1.76-7.16-2.01-.88-3.06 2.4-3.06 2.4s-2.23-1.96-3.76-.35c-2.35 2.47 4.1 5.53 5.06 5.11ZM90.51 18.38s.13-2.34 1.93-2.22c1.98.14 1.72 5.02.21 5.94-1.51.92-6.49-1.72-5.36-3.56.72-1.17 3.35-.37 3.22-.16Z"/></svg>