<svg xmlns="http://www.w3.org/2000/svg" viewBox="0 0 128 128"><path fill="#04841F" d="m34.99 79.34-5.49 3.1s.56 13.09-.99 18.16-3.8 8.73-4.79 10.14c-.99 1.41-3.8 2.5-2.67 6.05.67 2.1 3.8 2.82 8.87 2.67 5.07-.14 14.36-6.9 14.36-6.9l2.96-14.64 17.6 6.76s-.42 2.25-.7 3.1c-.28.84-1.97 3.24-1.83 4.5.14 1.27 1.8 2.01 9.71 1.83 7.78-.18 9.15-9.57 9.15-9.57l-6.48-14.22-39.7-10.98Z"/><path fill="#02AB47" d="M20.3 11.48c1.84-.77 3.33-7.65 10.42-6.57 7.23 1.1 6.01 7.27 6.76 8.02s6.39 2.77 6.21 7.13c-.19 4.34-1.79 8.21-6.68 9.06-4.89.85-10.42-.94-12.86-.28-2.44.66-4.69 3.33-4.22 7.6.27 2.43 2.84 15.4 11.17 22.24 9.48 7.79 14.83 7.41 26.84 7.98 12.01.56 19.85 2.49 26.94 8.82 5.05 4.51 9.21 17.15 22.15 14.55 11.92-2.39 5.82-14.73-2.16-16.52-4.6-1.03-9.01-.94-9.1-2.63-.09-1.69 3.34-3.41 9.34-3.14 7.32.33 18.25 6.01 18.07 16.94-.18 10.63-10.23 14.83-10.23 14.83l-12.29 3.47-12.68 2.11s.18 2.12 1.58 4.75c1.4 2.63 3.1 7.88 1.65 10.63-.94 1.78-3.27 2.43-9.68 2.5-5.22.06-9.94-.67-10.1-2.64-.19-2.35.83-3.18 2.25-4.15 1.5-1.03 1.28-1.61 1.48-3.17.2-1.56-.1-4.44-.53-5.81-.42-1.34-1.65-3.31-1.65-3.31l-22.63.21s-.38.84-.56 4.5c-.19 3.66.55 8.77-.09 10.23-.89 2.02-3.57 3.94-10.14 4.04-6.57.09-10.61-1.5-10.32-5.07.28-3.57 3-4.13 3.94-5.73.94-1.6 3.24-7.27 3.47-9.71.2-2.07-.19-4.93-.09-6.52.1-1.59-3.49-11.34-3.49-11.34s-7.51-9.48-10.79-12.86c-3.07-3.16-9.1-10.7-9.1-10.7S4.73 47.05 5.76 33.91C6.79 20.77 13.55 14.3 20.3 11.48Z"/><path fill="#BDCE46" d="M12.33 32.25c3.07-7.3 8.66-9.43 11.26-10.28 2.6-.85 7.88-1.55 10.14-1.9 2.26-.35 9.92-.84 9.92-.84s.24.59.14 1.79c-.11 1.34-.56 2.01-.56 2.01s-8.45 1.2-8.45 2.75 2.46 1.41 3.45 1.41c.99 0 2.96-.07 2.96-.07s-.46 1.34-2.99 2.04c-2.51.7-6.3.63-9.47.77-3.17.14-5.21.7-6.12 1.9-.92 1.2-4.36 3.8-2.46 17.46 1.9 13.66 11.3 28.88 13.55 33.08.81 1.51 3.55 4.96 3.7 6.23.06.58-.59 1.91-.81 3.73-.26 2.17-.11 4.82-.11 4.82s-3.04-3.97-4.36-6.41c-2.11-3.87-2.6-7-2.6-7s-11.19-10.8-16.26-21.72c-5.07-10.92-3.89-22.73-.93-29.77Z"/><path fill="#303030" d="M35.2 18.38c.03 1.61-1.67 2.84-3.55 2.39-1.2-.28-1.93-1.29-1.69-2.89.24-1.59 1.11-2.65 2.57-2.82 1.51-.16 2.64 1.17 2.67 3.32Z"/><path fill="#BDCE46" d="M49.88 106.86s-.21-3.31 1.06-4.96c.65-.85 1.13-1.34 1.13-1.34s6.86.51 9.96.6c3.8.11 10.84-.14 10.84-.14l.6 2.57c.42 1.83 1.16 3.66 1.16 3.66s-6.12.66-12.53.56c-7.01-.1-12.22-.95-12.22-.95ZM87.12 101.76s.32.81.46 1.62c.13.72.32 1.79.32 1.79s11.09.28 19.32-1.97c8.24-2.25 12.92-8.35 13.87-10.21.99-1.94 1.57-3.84.53-2.43-2.04 2.78-5.53 7.5-14.39 9.75s-20.11 1.45-20.11 1.45Z"/><path fill="#7CDB8A" d="M50.835 75.25a2.329 2.329 0 1 1-.669 4.611 2.329 2.329 0 1 1 .669-4.611ZM61.004 73.853c1.003.223 1.62 1.282 1.379 2.366-.241 1.083-1.249 1.781-2.252 1.558-1.003-.224-1.62-1.283-1.379-2.367.241-1.083 1.25-1.781 2.252-1.557ZM74.77 82.33a2.22 2.29 0 1 1-4.44 0 2.22 2.29 0 1 1 4.44 0ZM70.87 74.83a1.68 1.76 0 1 1-3.36 0 1.68 1.76 0 1 1 3.36 0ZM64.14 83.1a1.76 1.87 0 1 1-3.52 0 1.76 1.87 0 1 1 3.52 0ZM81.74 76.93a1.64 1.84 0 1 1-3.28 0 1.64 1.84 0 1 1 3.28 0ZM84 85.964c.063.798-.546 1.498-1.361 1.563-.815.064-1.527-.53-1.59-1.329-.064-.798.546-1.498 1.36-1.562.815-.065 1.527.53 1.591 1.328ZM42.191 67.764c.837.181 1.349 1.097 1.144 2.047-.205.951-1.05 1.574-1.887 1.394-.837-.181-1.349-1.098-1.143-2.048.205-.95 1.05-1.574 1.886-1.393ZM54.685 67.788c.799.171 1.296 1.018 1.109 1.893-.187.875-.986 1.446-1.785 1.276-.8-.171-1.296-1.018-1.11-1.893.187-.875.986-1.447 1.786-1.276Z"/></svg>