<svg xmlns="http://www.w3.org/2000/svg" viewBox="0 0 128 128"><defs><radialGradient id="a" cx="56.959" cy="45.199" r="52.142" gradientUnits="userSpaceOnUse"><stop offset=".195" stop-color="#F77EAE"/><stop offset=".354" stop-color="#F678AA"/><stop offset=".564" stop-color="#F568A1"/><stop offset=".801" stop-color="#F24C90"/><stop offset=".842" stop-color="#F2478D"/></radialGradient><linearGradient id="b" x1="69.227" x2="81.181" y1="39.489" y2="67.652" gradientUnits="userSpaceOnUse"><stop offset=".162" stop-color="#F77EAE"/><stop offset=".37" stop-color="#F982A4"/><stop offset=".664" stop-color="#FC8A8F"/></linearGradient></defs><path fill="#F77EAE" d="m66.57 64.7 4.5-.38s.75 50.49 0 52.37c-.75 1.88-8.26 9.76-12.95 4.32-4.69-5.44 0-6.19 3.75-6.57 3.75-.38 4.88.38 5.07-.94.2-1.31-.37-48.8-.37-48.8ZM38.7 9s5.73-6.05 13.8-3.8 8.63 12.53 3.85 20.46C52.26 32.44 43.9 44.42 44.06 51c.14 6.03 5.63 5.44 8.07.94 2.44-4.5 3.21-6.52 3.21-6.52l9.71 23.65s-14.62 9.07-27.38-2.58c-11.92-10.89 2.11-32.01 4.97-37.26 1.69-3.1 2.86-5.68 2.53-8.54-.19-1.68-2.42-3.12-3.94-3.73-1.46-.58-9.5-3.19-9.5-3.19L38.7 9Z"/><path fill="#F2478D" d="M66.29 70.7S85.52 81.58 84.5 82.06c-1.41.66-9.1 2.25-13.14 3.1-3.21.67-7.79 1.22-9.57 2.25-1.78 1.03-4.6 5.07-5.16 6.38-.56 1.31-1.03 3.85 2.72 5.63 3.75 1.78 5.91-.66 5.91-2.82 0-2.16-.66-5.16 0-5.54.87-.49 7.13-2.06 10.89-2.91 3.76-.85 11.36-2.91 12.48-3.19 1.13-.28 3.19-.38 3.57-2.16.38-1.78-2.44-2.44-3.85-3.28-1.41-.84-5.73-3.75-7.6-4.88-1.88-1.13-7.88-5.73-7.88-5.73l-6.19-.56-.39 2.35Z"/><path fill="#FFD4AC" d="M38.7 7.54s.56-.56 2.91-.56 6.48 1.88 8.54 2.82c2.06.94 4.13 1.88 4.13 2.53 0 .66-4.97 1.6-7.41 2.16-2.44.56-6.85 1.97-6.85 1.97l-6.01-5.35 4.69-3.57Z"/><path fill="#1A191E" d="M50.43 11.62c0 1.37-1.16 2.49-2.58 2.49-1.43 0-2.67-1.16-2.67-2.53 0-1.37 1.11-2.53 2.53-2.53 1.42 0 2.72 1.2 2.72 2.57Z"/><path fill="#F2478D" d="m41.28 6.95-5.16.21-7.09 7.88-.19 3.1s2.67-1.03 5.4-1.45c2.72-.42 3.65-.43 4.27-.38 1.03.09 1.69.19 1.69.19s1.8-2.68 1.88-4.5c.14-3.15-.8-5.05-.8-5.05Z"/><path fill="#5F6369" d="M28 7.87c-1.59 1.02-3.24 4.04-4.27 5.91-1.03 1.87-2.61 6.25-.56 7.23 1.38.66 4.22-2.11 6.1-2.91 1.83-.78 3.12-1.03 3.12-1.03s.19-.75.49-.94c.3-.19 5.63-1.17 5.63-1.17v-1.31s-6.24 1.17-6.34.75c-.09-.42 1.48-3.05 2.7-4.32 1.22-1.27 4.08-3 4.08-3s-2.6-.23-5.47-.42c-2.61-.18-3.79.13-5.48 1.21Z"/><path fill="#1A191E" d="m36.31 14.44 1.92-1.08s1.27-1.13 2.11-.28c.87.87-.33 2.53-1.55 1.97-.9-.42-2.48-.61-2.48-.61Z"/><path fill="url(#a)" d="M54.49 58.86c1.27 3.8 3.45 13.02 18.65 13.02 10.98 0 14.27-.17 17.53.56 2.18.49 4.58 2.04 6.62 2.6.63.17-.21-2.53-.63-4.01-.24-.85-.99-2.46-.99-2.46s1.9.49 3.52 1.2c1.33.58 3.03 1.34 4.08 1.97.69.41-.19-2.86-1.06-5-.61-1.49-2.67-4.08-2.67-4.08s1.97.77 2.82 1.13c.51.21 1.57.73 2.42.96.72.2-3.61-7.65-5.44-9.83-1.83-2.18-5.7-5.77-7.53-6.9-1.83-1.13-15.98-.84-15.98-.84l-20.98 1.06c-.01-.01-1.98 5.76-.36 10.62Z"/><path fill="url(#b)" d="M66.11 37.88c8.55-1.06 16.26 3.38 20.98 6.12 4.72 2.75 10.49 8.94 10.49 8.94s-3.26.5-5.75.45c-2.3-.05-5.44-.52-5.44-.52s2.82 2.3 4.36 4.79c.59.94 2.11 3.87 2.11 3.87s-5.49.07-10.77-2.18C78.87 57.98 74 54.92 74 54.92s1.69 4.43 2.11 5.49c.42 1.06 1.13 3.38 1.13 3.38s-5.35-.21-9.71-3.87c-4.36-3.66-4.22-4.55-4.22-4.55s1.27 4.62 1.62 5.82c.35 1.2.84 4.36.84 4.36s-5.8-.56-8.87-3.8c-2.02-2.13-3.38-5.35-3.45-7.95-.09-2.62.69-14.44 12.66-15.92Z"/></svg>