<svg xmlns="http://www.w3.org/2000/svg" viewBox="0 0 128 128"><defs><linearGradient id="h" x1="78.727" x2="84.184" y1="-49.578" y2="-36.286" gradientTransform="scale(1 -1)" gradientUnits="userSpaceOnUse"><stop offset=".003" stop-color="#0063B2"/><stop offset="1" stop-color="#170D1F"/></linearGradient><linearGradient id="a" x1="63.901" x2="63.901" y1="-34.311" y2="-110.857" gradientTransform="scale(1 -1)" gradientUnits="userSpaceOnUse"><stop offset="0" stop-color="#691B66"/><stop offset="1" stop-color="#C735C1"/></linearGradient><linearGradient id="i" x1="63.076" x2="63.076" y1="-56.013" y2="-91.604" gradientTransform="scale(1 -1)" gradientUnits="userSpaceOnUse"><stop offset="0" stop-color="#170D1F"/><stop offset=".997" stop-color="#0063B2"/></linearGradient><linearGradient id="j" x1="63.596" x2="63.596" y1="-23.96" y2="-64.154" gradientTransform="scale(1 -1)" gradientUnits="userSpaceOnUse"><stop offset=".003" stop-color="#0063B2"/><stop offset="1" stop-color="#170D1F"/></linearGradient><linearGradient id="l" x1="63.891" x2="63.891" y1="-26.3" y2="-4.93" gradientTransform="scale(1 -1)" gradientUnits="userSpaceOnUse"><stop offset="0" stop-color="#D1D1D1"/><stop offset=".155" stop-color="#E0E0E0"/><stop offset=".408" stop-color="#F1F1F1"/><stop offset=".679" stop-color="#FCFCFC"/><stop offset="1" stop-color="#fff"/></linearGradient><linearGradient id="m" x1="63.886" x2="63.886" y1="-20.73" y2="-24.17" gradientTransform="scale(1 -1)" gradientUnits="userSpaceOnUse"><stop offset="0" stop-color="#4D4D4D"/><stop offset=".255" stop-color="#2F2F2F"/><stop offset=".541" stop-color="#151515"/><stop offset=".799" stop-color="#060606"/><stop offset="1"/></linearGradient><linearGradient id="r" x1="29.379" x2="55.438" y1="-31.846" y2="-27.83" gradientTransform="scale(1 -1)" gradientUnits="userSpaceOnUse"><stop offset=".003" stop-color="#0063B2"/><stop offset="1" stop-color="#170D1F"/></linearGradient><linearGradient id="s" x1="23.308" x2="34.921" y1="-4.24" y2="-29.988" gradientTransform="scale(1 -1)" gradientUnits="userSpaceOnUse"><stop offset="0" stop-color="#17CB1F"/><stop offset=".356" stop-color="#0BB42E"/><stop offset=".719" stop-color="#03A438"/><stop offset=".997" stop-color="#009E3C"/></linearGradient><linearGradient id="t" x1="90.434" x2="101.31" y1="-24.06" y2="-48.186" gradientTransform="scale(1 -1)" gradientUnits="userSpaceOnUse"><stop offset="0" stop-color="#17CB1F"/><stop offset=".356" stop-color="#0BB42E"/><stop offset=".719" stop-color="#03A438"/><stop offset=".997" stop-color="#009E3C"/></linearGradient><linearGradient id="b" x1="43.569" x2="43.569" y1="-14.589" y2="-36.805" gradientTransform="matrix(1.0651 -.1281 -.1293 -1.0755 0 0)" gradientUnits="userSpaceOnUse"><stop offset=".003" stop-color="#0063B2"/><stop offset=".136" stop-color="#0160AC"/><stop offset=".311" stop-color="#03569C"/><stop offset=".508" stop-color="#084681"/><stop offset=".722" stop-color="#0E305B"/><stop offset=".948" stop-color="#15142B"/><stop offset="1" stop-color="#170D1F"/></linearGradient><linearGradient id="c" x1="38.395" x2="38.395" y1="-27.432" y2="-46.302" gradientTransform="matrix(.9919 -.2786 -.2895 -1.0307 0 0)" gradientUnits="userSpaceOnUse"><stop offset=".003" stop-color="#0063B2"/><stop offset=".136" stop-color="#0160AC"/><stop offset=".311" stop-color="#03569C"/><stop offset=".508" stop-color="#084681"/><stop offset=".722" stop-color="#0E305B"/><stop offset=".948" stop-color="#15142B"/><stop offset="1" stop-color="#170D1F"/></linearGradient><linearGradient id="d" x1="30.25" x2="30.25" y1="-40.82" y2="-58.887" gradientTransform="scale(1 -1) rotate(24.638)" gradientUnits="userSpaceOnUse"><stop offset=".003" stop-color="#0063B2"/><stop offset=".136" stop-color="#0160AC"/><stop offset=".311" stop-color="#03569C"/><stop offset=".508" stop-color="#084681"/><stop offset=".722" stop-color="#0E305B"/><stop offset=".948" stop-color="#15142B"/><stop offset="1" stop-color="#170D1F"/></linearGradient><linearGradient id="e" x1="-74.719" x2="-74.719" y1="-.504" y2="-22.714" gradientTransform="matrix(-1.0651 -.1281 .1293 -1.0755 0 0)" gradientUnits="userSpaceOnUse"><stop offset=".003" stop-color="#0063B2"/><stop offset=".136" stop-color="#0160AC"/><stop offset=".311" stop-color="#03569C"/><stop offset=".508" stop-color="#084681"/><stop offset=".722" stop-color="#0E305B"/><stop offset=".948" stop-color="#15142B"/><stop offset="1" stop-color="#170D1F"/></linearGradient><linearGradient id="f" x1="-81.028" x2="-81.028" y1="4.852" y2="-14.018" gradientTransform="matrix(-.9919 -.2786 .2895 -1.0307 0 0)" gradientUnits="userSpaceOnUse"><stop offset=".003" stop-color="#0063B2"/><stop offset=".136" stop-color="#0160AC"/><stop offset=".311" stop-color="#03569C"/><stop offset=".508" stop-color="#084681"/><stop offset=".722" stop-color="#0E305B"/><stop offset=".948" stop-color="#15142B"/><stop offset="1" stop-color="#170D1F"/></linearGradient><linearGradient id="g" x1="-85.911" x2="-85.911" y1="12.458" y2="-5.612" gradientTransform="scale(-1) rotate(24.638)" gradientUnits="userSpaceOnUse"><stop offset=".003" stop-color="#0063B2"/><stop offset=".136" stop-color="#0160AC"/><stop offset=".311" stop-color="#03569C"/><stop offset=".508" stop-color="#084681"/><stop offset=".722" stop-color="#0E305B"/><stop offset=".948" stop-color="#15142B"/><stop offset="1" stop-color="#170D1F"/></linearGradient><radialGradient id="k" cx="63.81" cy="19.352" r="8.954" gradientUnits="userSpaceOnUse"><stop offset=".004" stop-color="#656464"/><stop offset="1" stop-color="#1C1E1E"/></radialGradient><radialGradient id="n" cx="63.4" cy="13.328" r="9.207" gradientTransform="matrix(.9997 -.0245 .0212 .8639 0 0)" gradientUnits="userSpaceOnUse"><stop offset=".004" stop-color="#656464"/><stop offset="1" stop-color="#1C1E1E"/></radialGradient><radialGradient id="o" cx="62.222" cy="17.242" r="3.376" gradientTransform="matrix(.9263 .3768 .1497 -.368 0 0)" gradientUnits="userSpaceOnUse"><stop offset=".003" stop-color="red"/><stop offset=".072" stop-color="#F50000"/><stop offset=".712" stop-color="#980000"/><stop offset="1" stop-color="#730000"/></radialGradient><radialGradient id="p" cx="-56.134" cy="-103.941" r="3.376" gradientTransform="matrix(-.9263 .3768 -.1497 -.368 0 0)" gradientUnits="userSpaceOnUse"><stop offset=".003" stop-color="red"/><stop offset=".072" stop-color="#F50000"/><stop offset=".712" stop-color="#980000"/><stop offset="1" stop-color="#730000"/></radialGradient><radialGradient id="q" cx="65.969" cy="-37.501" r="3.837" gradientTransform="matrix(.9649 -.0175 -.0701 -1.0351 0 0)" gradientUnits="userSpaceOnUse"><stop offset=".003" stop-color="red"/><stop offset=".072" stop-color="#F50000"/><stop offset=".712" stop-color="#980000"/><stop offset="1" stop-color="#730000"/></radialGradient></defs><path fill="url(#a)" d="M48.65 31.81 31.4 108.17c5.32 1.53 10.92 3.01 16.42 3.6 8.01.87 15.75-3.36 23.77-1.92 5.83 1.05 9.46 2.13 15.28.37 3.26-.98 6.47-2.24 9.54-3.71L75.9 31.81H48.65Z"/><path fill="#611A5E" d="M47.851 30.81h28.811l20.934 76.241-.754.361q-4.795 2.296-9.683 3.765-5.352 1.619-13.733.032-1.313-.249-2.013-.375-4.036-.724-12.141.865-7.614 1.494-11.559 1.065-6.31-.677-16.589-3.633l-.907-.261 17.458-77.28Zm1.598 2-16.865 74.658q9.483 2.679 15.343 3.308 3.644.396 10.96-1.039 8.474-1.662 12.88-.871.709.127 2.031.378 7.899 1.496 12.783.019 4.357-1.31 8.642-3.299L75.138 32.81H49.449Z"/><path fill="url(#b)" d="m35.64 14.45 12.56-4.43 16.01 22.97-6.75.54-9.87-19.94Z"/><path fill="#0E2B52" d="m35.413 13.805 13.05-4.603 16.989 24.375-8.399.672-9.872-19.944-16.566 1.192Zm5.252-.402 7.334-.528 9.868 19.936 5.101-.408-15.031-21.565-7.272 2.565Z"/><path fill="url(#c)" d="m36.62 21.46 10.35-4.24 14.37 17.53-5.82 1.37-9.16-15.52Z"/><path fill="#0E2B52" d="m36.388 20.893 10.769-4.411 15.279 18.639-7.214 1.699-9.193-15.576-13.382 1.182Zm4.205-.399 6.098-.538 9.127 15.464 4.426-1.041-13.461-16.421-6.19 2.536Z"/><path fill="url(#d)" d="m36.81 29.32 7.67-4.89 15.93 13.11-5.37 2.21-10.75-11.72Z"/><path fill="#0E2B52" d="m36.496 28.828 8.028-5.117 17.009 13.998-6.648 2.735-10.81-11.785-10.025 1.729Zm3.074-.576 4.935-.851 10.69 11.655 4.092-1.685-14.851-12.222-4.866 3.103Z"/><path fill="url(#e)" d="m92.16 14.45-12.55-4.43-16.02 22.97 6.75.54 9.88-19.94Z"/><path fill="#0E2B52" d="m97.181 15.497-16.552-1.192-9.882 19.944-8.4-.672 17-24.375 13.041 4.603Zm-10.042-2.094-7.266-2.565-15.04 21.565 5.1.408 9.878-19.936 7.328.528Z"/><path fill="url(#f)" d="m91.18 21.46-10.34-4.24-14.38 17.53 5.82 1.37 9.17-15.52Z"/><path fill="#0E2B52" d="m95.15 22.426-13.369-1.182-9.203 15.575-7.215-1.698 15.291-18.64 10.758 4.412Zm-7.94-1.932-6.184-2.535-13.469 16.42 4.425 1.042 9.137-15.465 6.091.538Z"/><path fill="url(#g)" d="m90.99 29.32-7.66-4.89-15.94 13.11 5.37 2.21 10.76-11.72Z"/><path fill="#0E2B52" d="m93.747 30.388-10.013-1.729-10.82 11.785-6.647-2.735 17.02-13.999 8.017 5.118Zm-5.514-2.136-4.86-3.102-14.86 12.221 4.093 1.685 10.7-11.655 4.927.851Z"/><path fill="url(#h)" d="M86.25 52.93c-.67 0-1.3-.25-1.76-.72L70.34 38.07c-.97-.97-.97-2.56 0-3.54l1.94-1.94c.31-.31.99-.49 1.87-.49 1.44 0 3.04.47 3.64 1.07l9.85 13.81 3.19-4.09c.38-.32.96-.53 1.56-.53.73 0 1.42.32 1.9.87l.22.25c.9 1.04.78 2.63-.26 3.53l-6.19 5.33c-.45.39-1.01.59-1.62.59h-.19Z"/><path fill="#0E2B52" d="M74.16 32.6c1.36 0 2.74.45 3.24.88l9.44 13.25.78 1.09.82-1.06 2.71-3.48c.35-.27.78-.42 1.23-.42.59 0 1.14.25 1.52.69l.22.25c.72.84.63 2.1-.21 2.82l-6.19 5.33c-.45.39-.96.47-1.31.47h-.18c-.54 0-1.04-.2-1.41-.57L70.7 37.71c-.78-.78-.78-2.05 0-2.83l1.94-1.94c.17-.17.71-.34 1.52-.34m0-1c-.94 0-1.78.19-2.23.64l-1.94 1.94a3 3 0 0 0 0 4.24l14.14 14.14c.58.58 1.35.86 2.12.86h.18c.69 0 1.39-.22 1.95-.71l6.19-5.33a3.015 3.015 0 0 0 .32-4.23l-.22-.25a2.983 2.983 0 0 0-2.28-1.04 3 3 0 0 0-1.95.72l-2.78 3.56-9.5-13.33c-.73-.72-2.49-1.21-4-1.21Z"/><path fill="url(#i)" d="M83.08 89.35c-1.68-2.64-9.48-11.79-14.32-16.87a4.28 4.28 0 0 0-3.12-1.34c-1.14 0-2.22.45-3.02 1.25-6.19 6.2-13.52 13.79-15.4 15.89-3.62-.65-8.31-2.38-9.86-2.97 1.12-2.11 5.6-10.49 9.47-16.72.03-.05.45-.67 1.08-1.62 5.25-7.88 6.92-10.42 7.46-11.29.99.35 3.94 1.48 8.28 3.93.76.43 1.54.65 2.31.65 2.25 0 3.81-1.83 4.5-2.82.23.24.55.58 1.01 1.07.47.49 1.1 1.15 1.22 1.31.87 1.87 12.23 17.46 16.12 22.78-.72 1.08-3.36 4.98-5.73 6.75Z"/><path fill="#0E2B52" d="M55.58 56.27c1.23.46 3.97 1.58 7.83 3.76.84.47 1.7.71 2.55.71 2.12 0 3.68-1.46 4.54-2.55.17.18.37.39.6.63.45.47 1.07 1.12 1.18 1.27a.876.876 0 0 1-.14-.33c.22 1.04 8.74 12.85 16.03 22.83-.84 1.26-2.99 4.33-5 6.02-2.36-3.43-10.13-12.34-14.07-16.49-.92-.96-2.15-1.5-3.48-1.5-1.28 0-2.48.5-3.38 1.4-6 6.01-13.08 13.34-15.23 15.7-3.19-.61-7.12-2.01-8.97-2.7 1.44-2.71 5.58-10.38 9.18-16.18.04-.07.45-.68 1.07-1.6 4.65-6.94 6.52-9.77 7.29-10.97m-.43-1.21c-.04.2-8.65 13.1-8.75 13.25-4.5 7.25-9.75 17.25-9.75 17.25s6.25 2.5 10.75 3.25c1.53-1.75 9.16-9.66 15.57-16.08.74-.74 1.7-1.11 2.67-1.11 1 0 2.01.4 2.76 1.18 5.55 5.86 14.17 16.09 14.5 17.26 2.97-1.89 6.5-7.5 6.5-7.5s-16.04-21.93-16.27-23c-.04-.18-2.69-2.8-2.73-3 0 0-1.69 3.18-4.44 3.18-.63 0-1.32-.17-2.06-.58-5.5-3.1-8.75-4.1-8.75-4.1Z"/><path fill="url(#j)" d="M66.09 63.87c-.97 0-1.89-.37-2.59-1.04l-7.09-6.78c-.63-.6-1.03-1.4-1.13-2.26-.17-1.42-.55-3.75-1.38-6.86-1.4-5.21-3.1-9.75-4.22-12.76-.41-1.1-.73-1.96-.91-2.52-.75-2.32-.7-4.08.13-5.22.85-1.17 2.58-1.77 5.12-1.77 4.58 0 10.17 1.97 10.23 1.99 1.08.41 2.26.78 3.51 1.17 5.56 1.75 11.87 3.73 11.13 10.02-.02.21-.07.43-.15.69-.8 2.51-4.81 15.26-5.76 19.22-.17.7-.52 1.33-1.01 1.82-.83.82-2.06 2.05-3.21 3.2-.73.71-1.67 1.1-2.67 1.1Z"/><path fill="#0E2B52" d="M54.01 25.17c4.49 0 10.01 1.94 10.04 1.95 1.1.42 2.29.79 3.55 1.18 5.64 1.77 11.48 3.61 10.79 9.48-.02.18-.07.38-.13.6-.8 2.52-4.82 15.28-5.77 19.26-.15.61-.45 1.15-.88 1.58-.83.82-2.07 2.05-3.22 3.2-.61.61-1.43.95-2.3.95-.84 0-1.64-.32-2.25-.9l-7.1-6.78c-.54-.52-.89-1.21-.98-1.96-.17-1.43-.55-3.79-1.4-6.93-1.41-5.23-3.11-9.79-4.24-12.8-.41-1.09-.73-1.95-.9-2.49-.7-2.16-.68-3.77.06-4.77.76-1.04 2.35-1.57 4.73-1.57m0-1c-4.21 0-7.67 1.6-5.73 7.64.66 2.06 3.2 8.1 5.12 15.25.83 3.1 1.2 5.41 1.37 6.79.12.98.57 1.88 1.28 2.56l7.1 6.78a4.22 4.22 0 0 0 2.94 1.18c1.09 0 2.17-.41 3-1.24 1.15-1.15 2.39-2.38 3.21-3.2.57-.56.96-1.27 1.15-2.05.95-3.96 5-16.83 5.75-19.19.08-.25.14-.52.17-.78.95-8.14-8.9-9.42-14.97-11.72 0 0-5.67-2.02-10.39-2.02Z"/><path fill="url(#k)" d="M72.03 22.73c-.37-.81.11-1.53.91-2.32.9-.89 2.44-4.27 1-7.13-.29-.05-4.47.15-5.53.12-1.28-.04-3.23-.1-4.52-.15-1.28-.04-3.23-.1-4.52-.15-1.06-.03-5.24-.51-5.53-.48-1.62 2.76-.28 6.24.56 7.19.75.84 1.18 1.59.76 2.38-.28.52-.68.68-.96.72.07.12.17.23.28.3.4.26.91.33 1.24.35.2.01.34.15.47.31 1.36 1.65 2.33 2.01 7.29 2.17 4.96.16 5.95-.14 7.41-1.7.14-.15.29-.28.49-.28.33 0 .85-.04 1.26-.27.12-.07.22-.17.3-.28-.28-.06-.66-.25-.91-.78Z"/><path d="m72.482 22.517.002.002.001.003q.201.422.56.499l.752.161-.453.622q-.194.267-.459.422-.596.334-1.505.334-.011 0-.125.122-1.916 2.047-7.791 1.858-5.878-.19-7.662-2.355-.102-.125-.112-.126-.906-.055-1.478-.427-.27-.172-.444-.47l-.374-.642.735-.105q.37-.053.59-.46.345-.65-.694-1.814-3.038-3.436-.614-7.497l.145-.244 10.198.016 10.197.086.143.249q1.384 2.416.765 5.018-.45 1.891-1.568 2.997-1.104 1.09-.809 1.751Zm-.907.421q-.592-1.298 1.014-2.884.914-.903 1.297-2.516.496-2.085-.524-4.04l-9.616-.082-9.617-.016q-1.818 3.293.646 6.079 1.5 1.68.826 2.946-.177.329-.415.55.248.067.564.086.445.022.828.494 1.492 1.81 6.918 1.985 5.422.175 7.029-1.542.409-.438.855-.438.322 0 .575-.051-.22-.232-.377-.566Z"/><path fill="#C9C9C9" d="M63.98 30.46c-1.42 0-2.58-1.14-2.58-2.54v-3.19h5.74v3.19c0 1.4-1.16 2.54-2.57 2.54h-.59Z"/><path fill="#A3A3A3" d="M66.79 25.08v2.83c0 1.21-1 2.19-2.22 2.19h-.59c-1.22 0-2.22-.98-2.22-2.19v-2.83h5.03m.71-.71h-6.44v3.54c0 1.6 1.31 2.9 2.93 2.9h.59c1.62 0 2.93-1.3 2.93-2.9v-3.54h-.01Z"/><path fill="#C9C9C9" d="M56.75 20.46c-1.4 0-2.54-1.22-2.54-2.72 0-1.5 1.14-2.72 2.54-2.72h14.28c1.4 0 2.54 1.22 2.54 2.72 0 1.5-1.14 2.72-2.54 2.72H56.75Z"/><path fill="#A3A3A3" d="M71.02 15.28c1.26 0 2.28 1.1 2.28 2.46 0 1.36-1.02 2.46-2.28 2.46H56.75c-1.26 0-2.28-1.1-2.28-2.46 0-1.36 1.02-2.46 2.28-2.46h14.27m0-.53H56.75c-1.54 0-2.8 1.34-2.8 2.98s1.26 2.98 2.8 2.98h14.28c1.54 0 2.8-1.34 2.8-2.98s-1.27-2.98-2.81-2.98Z"/><path fill="url(#l)" d="M63.89 26.48c-4.09 0-8.5-3.17-8.5-10.14 0-5.58 3.25-11.6 8.5-11.6s8.5 6.02 8.5 11.6c-.01 6.95-4.41 10.14-8.5 10.14Z"/><path fill="#BDBDBD" d="M63.89 4.99c5.09 0 8.23 5.88 8.23 11.34 0 4.76-2.58 9.88-8.23 9.88-5.66 0-8.23-5.12-8.23-9.88-.01-5.45 3.14-11.34 8.23-11.34m0-.52c-4.55 0-8.76 4.86-8.76 11.86 0 6.96 4.34 10.4 8.76 10.4s8.76-3.44 8.76-10.4c-.01-7-4.22-11.86-8.76-11.86Z"/><path fill="#828282" d="M62.68 19.71c.08.19 1.21 1.21 1.21 1.21s1.13-1.02 1.21-1.21c.07-.19-2.5-.19-2.42 0Z"/><path fill="url(#m)" d="M68.82 20.72c-3.13 1.71-6.4 1.71-9.87 0-.24-.12 1.1 3.43 4.94 3.43 3.84.01 5.17-3.56 4.93-3.43Z"/><path fill="url(#n)" d="M60.47 4.25c-3.08 1.18-3.43-.76-3.43-.76-1.66.88-.51 2.66-.51 2.66s-1.71-.08-2.41 1.41c-.73 1.56-.02 2.73-.02 2.73s-1.62 1.08-.93 2.97c.46 1.25 1.75 1.72 1.75 1.72-.09 2.72.8 4.02.8 4.02s.2-3.26.48-5.23c.28-1.97.63-3.08 2.57-3.84C60.39 9.3 64 11.11 64 11.11s1.81-1.39 3.5-1.6c1.69-.21 3.46.13 4.09 3.58.25 1.37.35 5.37.35 5.37-.02-.12.85-1.64.97-3.16.04-.57.87-1.96 1.1-2.99.51-2.24-.27-3.98-.63-4.49-.66-.94-2.2-2.23-3.33-2 .03-1.22-.96-2.32-2.12-2.68-3.19-1-6.55.76-7.46 1.11Z"/><path d="M60.688 3.617q4.397-1.893 7.38-.955 2.222.69 2.448 2.613 1.695.024 3.262 2.257 1.378 1.952.71 4.887-.063.283-.226.724l-.692.617-.336-.727q.213-.539.278-.832.57-2.505-.55-4.093-1.458-2.076-2.822-1.798l-.615.125.015-.627q.04-1.629-1.768-2.19-2.633-.828-6.688.917-.319.137-.435.182-2.176.834-3.34.002-.281-.2-.462-.446-.258.329-.19.806.065.446.293.8l.527.816-.97-.046q-1.377-.064-1.934 1.124-.617 1.316-.046 2.258l.249.409-.399.266q-1.292.862-.737 2.383.127.345.332.619l-.352 1.022-.2-.123q-.466-.487-.72-1.176-.743-2.035.764-3.29-.52-1.249.203-2.794.671-1.427 2.104-1.657-.068-.226-.103-.469-.211-1.458 1.138-2.173l.605-.32.121.673q.051.285.359.505.726.518 2.4-.123.098-.038.397-.166Z"/><path d="M62.38 16.47c-.24 0-.48-.02-.71-.05l-.34-.05-.33-.07c-.22-.04-.43-.11-.65-.17-.22-.06-.42-.13-.63-.2-.82-.31-1.61-.69-2.35-1.17l-.51-.33.13-.43c.06-.19.12-.37.2-.55l.11-.28.13-.27c.08-.18.18-.36.28-.54.1-.18.22-.35.35-.53l.09.02-.18 1.15-.2 1.15-.04-.08 1.17.55 1.18.58 1.18.59c.39.19.78.4 1.17.6l-.05.08Z"/><path fill="url(#o)" d="M60.53 18.01c-.42 0-.89-.11-1.3-.31-1.13-.54-1.95-1.51-1.99-1.55l-.34-.4.52-.06s.36-.04.85-.04c.63 0 1.17.07 1.6.21.43.14 1.46.52 1.75 1.09.08.17.1.34.05.5-.11.35-.54.56-1.14.56Z"/><path d="M58.28 15.93c.46 0 1.03.04 1.51.19.97.31 1.75.81 1.62 1.23-.08.24-.42.38-.87.38-.35 0-.77-.09-1.18-.28-1.1-.52-1.9-1.48-1.9-1.48s.35-.04.82-.04m0-.57c-.5 0-.87.04-.89.05l-1.05.12.68.81c.04.04.9 1.06 2.08 1.63.45.22.96.34 1.43.34.73 0 1.26-.29 1.41-.77.24-.75-.48-1.46-1.98-1.95-.45-.16-1.02-.23-1.68-.23ZM65.39 16.47c.24 0 .48-.02.71-.05l.34-.05.33-.07c.22-.04.43-.11.65-.17.22-.06.42-.13.63-.2.82-.31 1.61-.69 2.35-1.17l.51-.33-.13-.43c-.06-.19-.12-.37-.2-.55l-.11-.28-.13-.27c-.08-.18-.18-.36-.28-.54-.1-.18-.22-.35-.35-.53l-.09.02.18 1.15.2 1.15.04-.08-1.18.57-1.18.58-1.18.59c-.39.19-.78.4-1.17.6l.06.06Z"/><path fill="url(#p)" d="M67.24 18.01c-.6 0-1.03-.21-1.14-.57a.68.68 0 0 1 .05-.5c.29-.57 1.32-.96 1.75-1.09.43-.14.96-.21 1.6-.21.49 0 .85.04.85.04l.52.06-.34.4c-.04.04-.86 1.01-1.99 1.55-.41.22-.88.32-1.3.32Z"/><path d="M69.49 15.93c.47 0 .82.04.82.04s-.81.96-1.89 1.48c-.41.19-.83.28-1.18.28-.45 0-.8-.14-.87-.38-.14-.42.64-.92 1.62-1.23.47-.15 1.04-.19 1.5-.19m0-.57c-.66 0-1.23.07-1.68.22-1.5.48-2.22 1.2-1.98 1.95.16.48.68.77 1.41.77.47 0 .97-.12 1.43-.34 1.19-.57 2.05-1.58 2.08-1.63l.68-.81-1.05-.12c-.02 0-.39-.04-.89-.04Z"/><path fill="#B3B3B3" d="M62.952 13.603q.479 1.798-.16 2.834l-.444-.274q.521-.844.1-2.426ZM65.292 13.737q-.421 1.582.1 2.426l-.444.274q-.639-1.036-.16-2.834Z"/><path fill="url(#q)" d="m64.23 36.37 1.67-3.92 2.26 3.82-1.57 6.6Z"/><path d="m65.94 33.16 1.88 3.16-1.29 5.44-1.96-5.38 1.37-3.22m-.09-1.41-.5 1.16-1.37 3.22-.1.23.09.24 1.95 5.38.73 2.01.49-2.08 1.29-5.44.06-.25-.13-.22-1.88-3.16-.63-1.09Z"/><path fill="url(#r)" d="M33.44 39.98c-1.67 0-3.2-1.04-3.8-2.59l-4.12-10.63c-.19-.5-.18-1.04.04-1.54.22-.49.61-.87 1.11-1.06l2.74-1.07c.23-.09.47-.14.72-.14.83 0 1.58.52 1.88 1.28l2.82 7.26 16.09-4.28c.33-.09.67-.13 1.02-.13 1.81 0 3.39 1.22 3.85 2.96.27 1.02.13 2.09-.41 3.02-.54.92-1.39 1.58-2.42 1.85l-18 4.79c-.55.19-1.03.28-1.52.28Z"/><path fill="#0E2B52" d="M30.12 23.34c.67 0 1.28.41 1.51 1.03l2.69 6.93.26.66.68-.18 15.75-4.19a3.589 3.589 0 0 1 4.38 2.54c.24.92.11 1.89-.37 2.72-.48.83-1.25 1.42-2.18 1.67L34.88 39.3h-.04l-.1.02-.04.02c-.41.16-.85.24-1.29.24-1.51 0-2.89-.94-3.44-2.34l-4.12-10.63c-.32-.83.09-1.77.92-2.09l2.74-1.06c.22-.09.41-.12.61-.12m0-.79c-.29 0-.58.05-.86.16l-2.74 1.06a2.412 2.412 0 0 0-1.37 3.11l4.12 10.63a4.479 4.479 0 0 0 4.17 2.85c.52 0 1.05-.09 1.57-.29.02 0 .04 0 .06-.01l18-4.79a4.381 4.381 0 0 0 3.1-5.35 4.394 4.394 0 0 0-4.23-3.25c-.37 0-.74.05-1.12.15l-15.75 4.19-2.69-6.93a2.431 2.431 0 0 0-2.26-1.53ZM40.87 123.2c-5.94 0-9.06-1.2-10.64-2.2a.517.517 0 0 1-.24-.53c.02-.1.09-.34.4-.4 17.72-3.73 18.31-5.13 18.53-5.66.12-.28.09-.58-.07-.84-3.9-6.06-12.39-21.71-15.86-28.15a.477.477 0 0 1 .01-.5c.07-.12.23-.25.43-.25.05 0 .1.01.15.02l13.13 3.78c.17.05.29.17.35.34l9.65 31.01c.06.29.01.56-.17.81-.9 1.25-4.5 1.63-6.43 1.84-.42.04-.8.08-1.1.12-2.96.4-5.7.61-8.14.61Z"/><path d="m33.69 85.38 12.78 3.68 9.61 30.89c.03.17-.01.24-.06.31-.73 1.02-4.41 1.41-5.99 1.58-.43.05-.81.09-1.12.13-2.94.4-5.65.6-8.05.6-5.47 0-8.46-1.02-10.04-1.94 17.75-3.75 18.35-5.19 18.68-5.97.2-.48.15-.99-.12-1.42-3.83-5.98-12.14-21.27-15.69-27.86m-.26-1.35c-.82 0-1.43.9-1 1.69 3.27 6.08 11.94 22.06 15.88 28.2.89 1.39-12.71 4.41-18.06 5.53-1.01.21-1.24 1.54-.37 2.09 1.7 1.08 4.96 2.3 10.98 2.3 2.31 0 5.03-.18 8.23-.61 2.28-.31 8.91-.54 8.22-3.6l-9.65-31.01c-.11-.37-.41-.65-.78-.76l-13.13-3.78a.927.927 0 0 0-.32-.05Z"/><path fill="#0E2B52" d="M101.36 118.52c-.75 0-1.53-.02-2.33-.07-6.89-.39-9.03-1.91-9.62-3.11l-8.55-23.95a.326.326 0 0 1 .07-.34l8.83-9.88c.07-.08.15-.12.25-.12.15 0 .32.09.34.3.75 6.56 2.59 22.44 3.39 28.2.07.51.24 1.7 15.39 7.56.21.08.22.27.22.35-.01.08-.04.25-.26.3-1.68.34-4.39.76-7.73.76Z"/><path d="M89.85 81.88c.78 6.79 2.54 22.04 3.34 27.75.11.79.28 1.99 15.06 7.73a38.984 38.984 0 0 1-9.2.54c-7.08-.4-8.75-2.02-9.14-2.76l-8.5-23.82 8.44-9.44M90 80.5c-.24 0-.47.09-.66.3l-8.83 9.88c-.22.24-.28.58-.17.89l8.57 24.01c1.41 2.89 8.08 3.3 10.08 3.42.82.05 1.61.07 2.36.07 3.3 0 5.99-.39 7.83-.77.87-.18.96-1.38.13-1.7-4.86-1.88-14.87-5.89-15.05-7.12-.83-5.94-2.74-22.49-3.39-28.19a.86.86 0 0 0-.87-.79Z"/><path fill="url(#s)" d="M34.13 9.11c.36.36.96.36 1.33 0 .36-.36.36-.96 0-1.33l-1.27-1.57c-1.32-1.57-2.54-.82-2.54-.82.03-.16.03-.32-.03-.48a.937.937 0 0 0-1.2-.55s-1.58.26-1.68.13a.947.947 0 0 0-1.32-.14l-2.23 1.82c-.25.2-2.31 4.39-2.71 7.97-.67 6 .7 13.92 4.17 21.01 0 0 1.39-3.67 3.04-5.4 1.18-1.26 3.18-2.39 5.26-2.43 0 0-.53-2.46-4.36-8.13-1.65-2.44-2.19-4.07-2.13-5.37h2.87a.939.939 0 1 0 0-1.88H29.7c-2.12-1.19.04-3.15 1.15-3.92.67-.47 1.35-.22 1.35-.22l1.93 1.31Z"/><path fill="#009245" d="m33.812 9.498-1.836-1.246q-.41-.123-.841.179-1.172.813-1.636 1.637-.249.443-.181.76.071.331.519.612h1.493q.597 0 1.019.421.421.422.421 1.019 0 1.44-1.44 1.44h-2.36q.157 1.814 2.034 4.59 3.884 5.75 4.435 8.305.01.047.011.095.01.5-.49.51-2.828.054-4.908 2.275-1.58 1.657-2.934 5.232-.07.185-.248.272-.449.22-.669-.229-5.37-10.971-4.218-21.286.266-2.379 1.443-5.379 1.008-2.571 1.448-2.922l2.234-1.823q.46-.369 1.054-.307.598.062.974.532l-.11-.16q.196-.007.532-.048.373-.044.735-.103 1.272-.45 1.774.805 1.251-.283 2.512 1.217l1.256 1.553q.975 1.018-.026 2.019-1.01.983-1.997.03Zm.672-.742q.307.308.627-.004.303-.303-.009-.623l-.031-.035-1.27-1.57q-1.036-1.232-1.889-.708-.426.262-.688-.164-.101-.165-.065-.354.024-.13-.007-.212-.153-.409-.556-.258-.046.017-.095.025-1.875.309-2.157-.058-.266-.331-.612-.055l-2.226 1.817q-.239.191-1.149 2.513-1.129 2.877-1.38 5.126-1.066 9.543 3.633 19.707 1.252-2.961 2.718-4.498 2.129-2.273 4.979-2.549-.777-2.421-4.131-7.386-2.319-3.429-2.215-5.673.022-.477.499-.477h2.87q.44 0 .44-.44t-.44-.44H29.7q-.131 0-.245-.064-.94-.528-1.115-1.337-.148-.688.288-1.462.577-1.024 1.937-1.968.882-.619 1.808-.278.057.021.108.055l1.93 1.31q.039.027.073.06Z"/><path fill="url(#t)" d="m103.83 24.65-2.92-2.59c-.92-.42-.78-.55-1.42 0-1.17 1 1.17 2.5 1.17 2.5-.07.09-2.78-1.57-2.78-1.57a.85.85 0 0 0-1.19.19l-.03.04a.85.85 0 0 0 .19 1.19l1.82 1.33c.11.08-2.85-.89-2.85-.89-.45-.14-.93.1-1.07.55l-.02.05c-.15.45.1.93.55 1.07l1.85.6c0 .01 0 .01.01.02 0 0 .33.82.67 1.71.43 1.12.39 2.46-.81 2.54l-1.33-.08c-.81-.06-2.25 1.5.08 1.92l3.28.45c-.2 1.44-1.16 2.86-4.27 4.78-5.51 3.42-6.97 5.3-6.97 5.3 1.7.76 2.87 2.4 3.33 3.87.64 2.03-.22 6.58-.22 6.58 5.79-4.73 10.22-13.04 11.86-17.59 1.28-3.55.76-7.55.84-7.96 0 0 .43-3.71.23-4.01Z"/><path fill="#009245" d="M104.162 24.276q.048.043.084.097.302.452-.149 4.345l-.006.038q-.006.027.015.562.173 4.562-.876 7.472-4.083 11.328-12.014 17.807-.18.148-.409.104-.491-.093-.398-.584.836-4.426.234-6.338-.799-2.553-3.057-3.563-.055-.024-.103-.061-.197-.153-.219-.329-.022-.175.131-.373 1.515-1.95 7.102-5.418 3.312-2.045 3.924-3.934l-2.739-.376-.021-.003q-.981-.177-1.396-.647-.453-.515-.198-1.167.462-1.184 1.633-1.097l1.295.078q.436-.043.533-.486.124-.569-.185-1.375-.298-.778-.588-1.504l-1.624-.527q-.538-.167-.795-.666-.259-.502-.08-1.039l.01-.028.013-.032q.196-.614.605-.833.429-.23 1.092-.024l.18.059q-.185-.241-.224-.504-.07-.471.328-1.01l.027-.037q.332-.45.88-.539.545-.089.991.23.257.158.517.314-.1-.703.489-1.207.774-.665 1.555-.27.236.12.399.194.068.031.124.081Zm-3.772.705q-.188-.121-.364-.254-.859-.362-2.407-1.311l-.036-.023q-.114-.085-.255-.062-.146.024-.235.146l-.033.043q-.202.275.087.487l1.818 1.329q.133.097.183.252.093.285-.114.502-.107.111-.257.143-.099.021-.206.003-.045-.008-.121-.028-.109-.029-.324-.095-.353-.107-.992-.312-.728-.233-1.47-.476-.137-.043-.268.024-.127.065-.169.2-.005.018-.013.037l-.013.033q-.04.131.023.253.066.128.205.171l1.855.601q.276.09.332.339.326.811.661 1.689.416 1.084.228 1.945-.261 1.191-1.472 1.272-.031.002-.063 0l-1.33-.08q-.448-.033-.642.463-.033.084.018.142.182.207.813.322l3.269.449q.495.068.427.563v.001q-.358 2.578-4.502 5.136-4.771 2.962-6.436 4.718 2.184 1.238 3.01 3.878.574 1.821.027 5.455 6.95-6.176 10.666-16.486.983-2.726.816-7.094-.022-.577-.002-.754h-.001q.384-3.31.321-3.644l-2.791-2.475q-.159-.075-.366-.18-.184-.093-.451.136-.182.155-.146.338.047.242.342.578.392.447.918.784.21.135.248.308.038.172-.097.383-.012.019-.026.037-.124.159-.602.017l-.063.097Z"/></svg>