<svg xmlns="http://www.w3.org/2000/svg" viewBox="0 0 128 128"><defs><radialGradient id="a" cx="-10.55" cy="-63.44" r="46.169" gradientTransform="matrix(-.7728 .6347 -.8463 -1.0304 0 0)" gradientUnits="userSpaceOnUse"><stop offset=".1" stop-color="#FFF" stop-opacity=".9"/><stop offset="1" stop-color="#FCFCFC" stop-opacity="0"/></radialGradient><radialGradient id="b" cx="87.736" cy="4.419" r="54.634" gradientTransform="matrix(.8254 .5645 -.6684 .9774 0 0)" gradientUnits="userSpaceOnUse"><stop offset=".152" stop-color="#32AFE0" stop-opacity=".9"/><stop offset=".963" stop-color="#32AFE0" stop-opacity="0"/></radialGradient><radialGradient id="c" cx="-49.608" cy="31.013" r="47.148" gradientTransform="matrix(-.002 -1 2.0491 -.0041 0 0)" gradientUnits="userSpaceOnUse"><stop offset=".256" stop-color="#67CCF9" stop-opacity=".9"/><stop offset=".416" stop-color="#6CCDF9" stop-opacity=".674"/><stop offset=".616" stop-color="#7CD1F9" stop-opacity=".392"/><stop offset=".837" stop-color="#95D8F9" stop-opacity=".081"/><stop offset=".895" stop-color="#9DDAF9" stop-opacity="0"/></radialGradient></defs><path fill="#FFF" d="M63.03 5.38 16.79 20.85l-6.58 3.79-.83 24.84 5.95 43.37 30.91 16.7 19.7 7.1 14.53-5.95 34.17-15.67s3.34-.27 1.78-5.38c-1.56-5.11.42-53.34.42-53.34l.18-11.58s-.02-2.73-9.07-4.71S63.03 5.38 63.03 5.38Z" opacity=".5"/><path fill="#7EC8EE" d="m9.31 25.82 54.45 24.9 52.26-23.8s.27 63.47-.55 63.75c-.41.14-51.16-19.7-51.16-19.7l-49.79 19.7-4.93-54.73-.28-10.12Z" opacity=".7"/><path fill="#63ABDE" d="m65.95 116.65-25.45-9.3-25.17-14.5-.82-2.19 47.88-21.62 53.08 21.62-.82 4.38-21.61 10.39Z" opacity=".7"/><path fill="#B0E4FF" d="M62.94 5.02 15.33 21.16l-6.02 4.66 8.21 3.83L61.57 48.8l3.56-.55 50.89-24.35Z" opacity=".7"/><path fill="#37B4E2" d="M116.84 89.59c-1.5-1.5-31.75-13.7-37.53-16.24-5.78-2.54-8.33-4.16-9.37-6.71-1.04-2.55-3.12-45.8-3.12-48.57 0-2.77-.33-10.85-3.46-10.86-2.57-.01-3.12 7.34-3.12 11.19 0 3.85-1.03 44.81-1.98 48.35-1.16 4.36-12.04 7.97-21.39 12.37-9.36 4.4-21.84 7.83-22.36 11.53-.51 3.7 2.06 4.62 6.83 7.92 1.95 1.35 8.17 4.83 15.41 8.42 10.49 5.2 23.16 10.42 28.38 10.51 7.35.13 18.19-5.83 29.67-11.2 11.27-5.27 21.34-9.5 22.15-11.46 1.25-3.01 1.4-3.75-.11-5.25Zm-22.96 12.67c-7.5 3.42-24.98 11.1-29.03 11.45-4.05.35-18.52-6.52-24.98-9.6-7.29-3.47-21.39-10.76-20.59-12.61.81-1.85 9.6-4.86 21.74-9.83 12.14-4.97 23.01-9.14 23.01-9.14s7.52 2.68 20.7 8.33C97.68 86.41 112.83 93 112.83 93s-9.81 5.09-18.95 9.26Z"/><path fill="#58C4FD" d="M63.56 3.92c-4.11-.57-12.68 3.86-24.4 7.86-12.51 4.27-23.06 7.12-26.74 8.96-3.03 1.52-4.55 4-4.69 7.31-.13 3.3-.41 12.67 2.07 36.65.76 7.3 3.53 25.86 3.89 27.17 1.85 6.73 4.93 1.91 4.24-3.33-.49-3.7-2.07-12.13-3.45-26.33-1.38-14.2-2.76-32.11-1.52-35.15 1.24-3.04 9.19-5.38 14.75-7.03 17.23-5.1 32.53-11.85 35.84-11.85 3.31 0 25.77 8.13 29.5 9.51 3.72 1.38 19.71 5.93 20.54 8.13.83 2.2.14 58.58.28 61.61.14 3.03-.65 6.83 1.59 7.24 2.25.4 2.82-3.38 2.82-6s-.14-27.7.14-39.14c.28-11.44 2.07-22.6-1.1-26.6s-12.96-6.06-29.22-11.72C77.96 7.7 67.55 4.47 63.56 3.92Z"/><path fill="url(#a)" d="m15.32 29.69 47.96 21.92 2.48 61.2-5.36 1.23-36.54-16.26-8.53-4.93-5.74-56.91 1.31-8.31Z"/><path fill="url(#b)" d="m64.52 51.89.97 63.54 43.41-17.51 6.48-4.55-.37-5.52 2.02-63.12-6.61 1.66Z"/><path fill="url(#c)" d="m15.87 31.2 25.91 11.85 21.71 8.75 51.07-25.7 1.18-1.11L62.67 6.11 13.8 21.96l-4.96 3.59.14 3.17Z"/><path fill="#37B5E1" d="M7.81 102.12c.91 2.5 3.8 5.52 9.68 6.45 4.86.77 7.96-.11 10.3-1.49 2.12-1.25 2.74-4.09 2.65-5.39-.12-1.63-1.83-4.04-3.8-5.05-1.98-1.02-19.46 3.76-18.83 5.48Z"/><path fill="#B0E3FD" d="M12 93.94c-3.24 1.88-6.55 6.11-3.61 9.05 2.94 2.94 13.82 3.71 18-.1 4.19-3.8-.77-7.89-4.14-9.39-3.37-1.5-6.93-1.49-10.25.44Z"/><path fill="#FDFEFE" d="M10.94 97.31c-1.22.08-3.09 2.86-.14 4.91 3.66 2.55 8.76 1.01 8.42-.53-.34-1.54-3.9-1.44-5.34-2.26-1.45-.82-1.55-2.22-2.94-2.12Z"/><path fill="#37B5E1" d="M28.71 118.38c-1.01 2.27.05 4.89 4.66 6.03 7.22 1.78 11.83-.8 13.37-2.29 1.54-1.49 1.73-3.85.91-4.62-.82-.76-18.94.88-18.94.88Z"/><path fill="#B0E4FF" d="M37.46 113.82c-5.82.3-8.46 3.15-8.7 4.5-.24 1.35 2.58 3.95 8.99 3.64 8.71-.42 10.11-4.19 10.11-4.19s-2.07-4.38-10.4-3.95Z"/><path fill="#FFF" d="M35.78 116.32c-1.22-.79-3.03-.29-4.14.48-.89.62-1.34 2.07-.72 2.84 1.01 1.25 3.03.87 4.24.1 1.19-.77 1.96-2.55.62-3.42ZM26.41 21.75c-1.74-2.56-8.72.22-11.4 1.69-2.68 1.47-4.25 3.33-3.98 5.4.27 2.07 3.76 3.11 7.58 4.8 3.82 1.69 32.87 14.9 35.06 16.08 3.12 1.69 6.47 3.86 7.47 10.41.65 4.31 2.44 45.69 2.51 47.11.16 3.36-.13 8.23 1.9 8.15 1.78-.07 1.42-4.5 1.37-8.21-.05-3.71.31-44.05.32-46.78.02-3.41 1.12-7.25 3.41-9.27 2.29-2.02 6.64-4.58 11.8-7.21 6.18-3.14 19.97-9.92 25.2-12.26s8.23-3.05 8.23-5.62c0-2.57-11.89-6.11-13.3-6.22-1.42-.11-2.94.38-2.62 2.13.33 1.74 1.66 4.71-1.01 7.05s-8.45 5.52-11.75 7.18c-5.69 2.85-19.41 10.09-24.1 9.76-4.69-.33-7.63-1.15-14.67-4.09-7.03-2.94-15.49-7.2-19.63-9.43-2.94-1.59-4.96-3.93-4.8-6.38.18-2.44 3.92-2.08 2.41-4.29ZM43.75 15.86c.67 1.73 6.71-.05 9.6-.93 2.89-.87 7.85-2.45 10.8-2.62 2.94-.16 12.81 2.84 15.32 3.33 2.51.49 4.69.6 5.23-.27s-3-2.78-7.96-4.47S66 6.54 63.54 6.86c-2.54.34-7.99 2.83-12.32 4.36-2.62.93-8.29 2.51-7.47 4.64Z"/></svg>