<svg xmlns="http://www.w3.org/2000/svg" viewBox="0 0 128 128"><path fill="#2196F3" d="M32.33 67.91s4.16-21.83 11.44-31.19C48.37 30.8 68.73 18 88.48 23.2l1.8.29c2.21 4.6 7.34 16.38 7.16 22.74C97.17 56.19 92 85.62 92 85.62S79.94 81.12 72.98 78C49.44 67.47 32.33 67.91 32.33 67.91Z"/><path fill="#1E88E5" d="M97.1 42.89c-.33-1.56-7.05-19.4-7.05-19.4s13.19 3.42 22.99 13.75c4.67 4.92 10.09 11.17 10.79 18.19 1.04 10.39-3.11 32.2-3.12 32.23-.14.73-7.38.78-7.95.79-3.26.07-14.55-.36-21.04-3.01.01 0 6.63-36.55 5.38-42.55Z"/><path fill="#0F60B2" d="M47.8 71.16q0-2.418 4.075-15.929 4.922-16.325 9.326-20.431 6.334-5.917 21.905-13.466l.321-.155 7.426 1.58.222.457q6.759 13.922 7.272 21.564.699 10.383-5.176 41.205l-2.042-.39q5.825-30.558 5.144-40.675-.479-7.116-6.847-20.339l-5.733-1.22Q68.661 30.677 62.619 36.32q-3.993 3.724-8.754 19.511Q49.88 69.048 49.88 71.16Z"/><path fill="#0F60B2" d="M82.03 21.18c.26-1.24 2.79-2.14 5.65-1.54 2.86.6 4.97 2.48 4.71 3.72-.26 1.24-2.72.62-5.58.01s-5.04-.95-4.78-2.19Z"/><path fill="#0D47A1" d="M5.26 93.26c-.09 1.02-.03 4.01 3.65 2.27 3.68-1.74 11.31-7.5 11.31-7.5s-7.42-2.77-11.33-.44-3.54 4.65-3.63 5.67Z"/><path fill="#76C8FF" d="m7.56 86.27 24.78-18.36s5.16-.98 17 .97c14.38 2.37 49.52 18.28 49.52 18.28l-17.42 14.5s-10.96 8.52-22.04 3.42c-16.56-7.63-34.47-17.56-39.66-18.73-10.11-2.3-12.18-.08-12.18-.08Z"/><path fill="#2196F3" d="M62.94 108.11c-7.83-1.94-34.43-16.84-43.1-19.5-2.59-.79-7.01-1.69-9.77-.23-2.4 1.27-4.45 3.77-3.8 6.64.1.44.31.92.74 1.04-.97.38-2.11-.24-2.61-1.15-.5-.91-.47-2.02-.26-3.04.43-2.08 1.66-4.37 3.42-5.6 2.33-1.63 6.43-2.73 13.35-.59 12.14 3.75 36.32 18.07 42.57 19.36 9.19 1.89 16.6-3.67 18.85-4.97 2.25-1.31 2.08-.27.52.88-1.55 1.15-10.02 9.61-19.91 7.16Z"/></svg>