<svg xmlns="http://www.w3.org/2000/svg" viewBox="0 0 128 128"><path fill="#00EDCD" d="M114.43 11.02a4.66 4.66 0 1 1-9.32 0 4.66 4.66 0 1 1 9.32 0Z"/><path fill="#81D4FA" d="m11.43 91.09 72.66-72.66c.11-.11.21-.28.31-.45.77-1.32.85-2.58.73-4.25-.21-2.83.46-4.36 1.83-5.38 1.81-1.36 8.08-1.08 19.81 10.65 11.73 11.73 12 17.99 10.64 19.8-1.02 1.37-2.55 2.03-5.38 1.83-1.67-.12-2.93-.05-4.25.73-.18.1-.34.2-.45.31l-72.66 72.66c-9.98 9.98-19.51 8.46-25.56 2.41l-.04-.04-.04-.04c-6.07-6.06-7.59-15.59 2.4-25.57Z" opacity=".75"/><path fill="#1D44B3" d="M99.79 23.22c-6.36-6.36-11.2-9.55-14.69-10.98-.02.45-.02.95.02 1.49.09 1.19.06 2.17-.23 3.11 3.17 1.71 7.14 4.55 12.01 9.11 7 6.56 10.34 11.51 11.73 15 .92-.34 1.86-.4 2.98-.35-.67-3.5-3.62-9.19-11.82-17.38Z" opacity=".39"/><path fill="#00BFA5" d="M54.15 48.51 11.67 90.94c-10.36 10.35-9.05 20.03-3.03 26.05 6.02 6.01 15.68 7.35 26.06-3.03L102 47.04l-47.85 1.47Z"/><path fill="#00937A" d="M50.12 76.96a5.06 5.06 0 1 1-10.12 0 5.06 5.06 0 1 1 10.12 0Z"/><path fill="#00BFA5" d="M101.34 37.04a4.76 4.76 0 1 1-9.52 0 4.76 4.76 0 1 1 9.52 0Z"/><path fill="#FFF" d="M76.2 57.3a2.93 2.93 0 1 1-5.86 0 2.93 2.93 0 1 1 5.86 0Z" opacity=".69"/><path fill="#00BFA5" d="M124.01 12.01a2.17 2.17 0 1 1-4.34 0 2.17 2.17 0 1 1 4.34 0Z"/><path fill="#00EDCD" d="M63.15 72.54a4 4 0 1 1-8 0 4 4 0 1 1 8 0ZM65.29 61.12a1.54 1.54 0 1 1-3.08 0 1.54 1.54 0 1 1 3.08 0Z"/><path fill="#FFF" d="M94.341 12.9q5.082 3.293 9.083 7.833.693.787.646 1.527-.047.74-.833 1.434-1.574 1.386-2.961-.187-3.618-4.107-8.217-7.087-.88-.57-1.035-1.295-.155-.725.416-1.606 1.14-1.76 2.901-.619Z" opacity=".6"/><path fill="#00EDCD" d="M102.02 46.96c-.84.74-3.57 1.23-10.75 2.35-3.81.6-8.47 1.2-13.82 1.64-16.77 1.39-28.08-.9-21.37-3.64 5.39-2.2 24.53-1.72 36.51-1.34 5.78.19 10.09.42 9.43.99Z"/><path fill="#FFF" d="M11.63 103.5c-1.72-.71-1.02-2.68 0-3.71l67.5-69.29c4.1-4.24 7.85-7.12 9.95-5.12 2.35 2.23 1.6 6.23-7.61 14.49l-64.68 61.17c-.51.51-3.44 3.17-5.16 2.46Z" opacity=".6"/></svg>