<svg xmlns="http://www.w3.org/2000/svg" viewBox="0 0 128 128"><defs><radialGradient id="b" cx="70.472" cy="228.163" r="11.755" gradientTransform="scale(1 .3944)" gradientUnits="userSpaceOnUse"><stop offset=".559" stop-color="#00BFA5"/><stop offset="1" stop-color="#00BFA5" stop-opacity="0"/></radialGradient><radialGradient id="c" cx="30.571" cy="241.969" r="14.461" gradientTransform="scale(1 .3944)" gradientUnits="userSpaceOnUse"><stop offset=".555" stop-color="#00BFA5"/><stop offset="1" stop-color="#00BFA5" stop-opacity="0"/></radialGradient><radialGradient id="d" cx="98.708" cy="251.879" r="20.835" gradientTransform="scale(.9185 .3707)" gradientUnits="userSpaceOnUse"><stop offset=".632" stop-color="#EA80FC"/><stop offset="1" stop-color="#EA80FC" stop-opacity="0"/></radialGradient><linearGradient id="a" x1="58.437" x2="148.641" y1="109.998" y2="109.998" gradientUnits="userSpaceOnUse"><stop offset="0" stop-color="#C62828"/><stop offset="1" stop-color="#B02424"/></linearGradient></defs><path fill="#4FC3F7" d="M124 71.52c0-4.32-5.33-6.83-18.4-8.68-10.53-1.48-25.32-2.3-41.66-2.3-17.48 0-32.19.8-42.52 2.3C9.05 64.65 4 67.17 4 71.52l.01 37.69c0 7.33 26.83 14.29 59.92 14.29 33.1 0 59.92-6.96 59.92-14.29.01 0 .15-37.29.15-37.69Z" opacity=".6"/><path fill="#FFF" d="M63.94 63.77c34.1 0 56.84 3.47 56.84 7.75 0 4.28-25.97 7.75-56.84 7.75-30.87 0-56.72-3.47-56.72-7.75 0-4.28 20.2-7.75 56.72-7.75m0-3.23c-17.48 0-32.19.8-42.52 2.3C9.05 64.65 4 67.17 4 71.52c0 3.61 3.33 6.47 19.57 8.68 10.91 1.48 25.25 2.3 40.36 2.3 15.13 0 29.48-.82 40.42-2.3 16.3-2.21 19.64-5.07 19.64-8.68 0-4.32-5.33-6.83-18.4-8.68-10.52-1.48-25.31-2.3-41.65-2.3Z" opacity=".7"/><path fill="url(#a)" d="M121.11 100.47v6.39c0 6.99-25.6 12.66-57.17 12.66s-57.17-5.67-57.17-12.66v-6.39h114.34Z"/><path fill="#FF5252" d="M121.11 100.11a57.17 9.32 0 1 1-114.34 0 57.17 9.32 0 1 1 114.34 0Z"/><path fill="#E8F5E9" d="M42.5 98.72c-.27-2.11-5.51-4.82-11.97-4.82-5.03 0-9.33 1.65-11.11 3.37 0 0-3.47.54-5.4 1.07-1.21.33-1.59 1.39-.35 1.87 1.66.64 3.21.17 5 .99.8.37 1.07 1.63 4.98 1.97 1.06.09 2.13.12 3.19.14 1.25.03 2.53.05 3.75.37.48.13 2.63.96 4.26.7 3.04-.5 3.05-1.16 3.76-1.51.68-.33 2.18-.72 2.93-.76 1.29-.07 5.49-.99 5.49-1.97-.01-.87-2.05-.69-4.53-1.42ZM79.45 91.46c-1.47-1.39-4.94-2.71-9-2.71-3.74 0-6.98 1.12-8.62 2.38-2.45.5-4 1.22-4 2.03 0 1.51 5.43 2.74 12.13 2.74 6.7 0 12.13-1.22 12.13-2.74-.01-.65-1-1.24-2.64-1.7Z"/><path fill="url(#b)" d="M80.19 92.8c0 1.73-4.36 2.22-9.75 2.22s-9.75-.49-9.75-2.22c0-1.73 4.36-4.05 9.75-4.05s9.75 2.32 9.75 4.05Z"/><path fill="url(#c)" d="M42.53 98.89c0 2.13-5.37 2.73-11.99 2.73s-11.99-.6-11.99-2.73 5.37-4.99 11.99-4.99 11.99 2.86 11.99 4.99Z"/><path fill="#F3E5F5" d="M111.34 98.68c-.2.16-.45.29-.58.46-.14.18-.14.38-.2.58-.28.96-2.02 1.64-3.78 1.97-1.76.33-3.67.44-5.38.85-1.82.44-3.4 1.21-5.38 1.33-1.9.12-3.75-.33-5.66-.32-1.95.01-3.91-.14-5.88-.15-2.09-.01-3.17.49-6.36.04-1.47-.21-2.29-1.65-3.8-1.97-1.25-.26-3.69-.58-4.37-1.72-.65-1.09.22-1.96 2.34-2.89 1.28-.56 2.83-1.17 4.45-1.55 4.46-1.05 9.53-1.4 14.38-1.4 4.56 0 9.26.32 13.51 1.21 2.07.43 8.53 2.01 6.76 3.53-.02 0-.04.01-.05.03Z"/><path fill="url(#d)" d="M105.85 97.33c0 2.77-6.82 5.01-15.23 5.01s-15.23-2.24-15.23-5.01c0-2.77 6.82-6.18 15.23-6.18s15.23 3.42 15.23 6.18Z"/><path fill="#FFF" d="M12.484 74.838q5.442 1.853 17.475 3.026.763.074 1.107.493.345.419.27 1.182-.148 1.526-1.675 1.377-12.387-1.207-18.165-3.174-.726-.247-.965-.734-.24-.486.007-1.212.495-1.452 1.946-.958Z"/><path fill="#FFEBEE" d="M52.68 95.02a4.28 1.37 0 1 1-8.56 0 4.28 1.37 0 1 1 8.56 0ZM54.83 104.64a3.66 1.17 0 1 1-7.32 0 3.66 1.17 0 1 1 7.32 0ZM67.34 101.3a6.65 2.13 0 1 1-13.3 0 6.65 2.13 0 1 1 13.3 0Z"/><path fill="#FFF" d="M31.62 121.11c-13.72-2.13-19.26-4.87-19.26-4.87V78.15s8.79 2.09 19.26 2.94v40.02Z" opacity=".46"/></svg>