<svg xmlns="http://www.w3.org/2000/svg" viewBox="0 0 128 128"><path fill="#FFF" d="m106.15 14.34-6.49-7.9-6.49 7.9-6.49-7.9-6.49 7.9-6.49-7.9-6.49 7.9-6.49-7.9-6.49 7.9-6.49-7.9-6.49 7.9-6.49-7.9-6.49 7.9-6.79-8.26h-.67l.11 116.04 79.08.12c16.68 0 13.34-34.81 13.34-34.81l.02-81.36h-.38l-6.83 8.27Z"/><path fill="#94D1E0" d="M73.6 31.23a8 8 0 1 1-16 0 8 8 0 1 1 16 0Z"/><path fill="#82AEC0" d="M32.41 45.62h38.48q2 0 2 2t-2 2H32.41q-2 0-2-2t2-2ZM88.44 45.62h11.69q2 0 2 2t-2 2H88.44q-2 0-2-2t2-2ZM88.44 58.76h11.69q2 0 2 2t-2 2H88.44q-2 0-2-2t2-2ZM59.32 58.76h10.57q2 0 2 2t-2 2H59.32q-2 0-2-2t2-2ZM32.41 58.76h17.62q2 0 2 2t-2 2H32.41q-2 0-2-2t2-2ZM82.12 95.94h18.01q2 0 2 2t-2 2H82.12q-2 0-2-2t2-2ZM88.44 71.9h11.69q2 0 2 2t-2 2H88.44q-2 0-2-2t2-2ZM32.41 71.9h31.16q2 0 2 2t-2 2H32.41q-2 0-2-2t2-2ZM32.81 85.04h.4q2 0 2 2t-2 2h-.4q-2 0-2-2t2-2ZM73.765 85.04h.751q2 0 2 2t-2 2h-.751q-2 0-2-2t2-2Zm-33.045 0h.751q2 0 2 2t-2 2h-.751q-2 0-2-2t2-2Zm8.261 0h.751q2 0 2 2t-2 2h-.751q-2 0-2-2t2-2Zm8.262 0h.751q2 0 2 2t-2 2h-.751q-2 0-2-2t2-2Zm33.045 0h.751q2 0 2 2t-2 2h-.751q-2 0-2-2t2-2Zm-24.784 0h.751q2 0 2 2t-2 2h-.751q-2 0-2-2t2-2Zm16.523 0h.75q2 0 2 2t-2 2h-.75q-2 0-2-2t2-2ZM98.55 85.04h.4q2 0 2 2t-2 2h-.4q-2 0-2-2t2-2Z"/><path fill="#6FBFF0" d="M115.12 3.04h-.25c-.08 0-1.49.03-3.7 2.4l-5.01 6.1-6.5-7.9-6.49 7.9-6.5-7.9-6.49 7.9-6.5-7.9-6.49 7.9-6.49-7.9-6.49 7.9-6.49-7.9-6.49 7.9-6.49-7.9-6.49 7.89-3.38-4.34c-3.44-4.13-5.59-3.74-5.68-3.73l-.2.04.1 103.08-5.39 5.87-5.76-6.91s-3.48 5.03 1.01 11.83c3.59 5.45 15.05 4.89 19.73 4.89l67.97.06c11.55-.07 14.7-2.51 16.94-12.86 1.54-7.13 1.53-17.64 1.53-21.6V3.04ZM70.69 105.55l-6.33 6.91-6.33-6.91-6.33 6.91-6.33-6.91-6.33 6.91-6.33-6.91-6.33 6.91-3.69-4.03-.09-98.17 5.66 6.88 6.49-7.9 6.49 7.9 6.49-7.9 6.49 7.9 6.49-7.9 6.49 7.9 6.49-7.9 6.5 7.9 6.49-7.9 6.5 7.9 6.49-7.9 6.5 7.9 5.37-6.54-.02 76.76v.9c.01 4.18.05 13.98-1.45 20.44-1.54 6.69-3.97 9.39-8.95 9.97-1.48.17-9.25.36-16.45-13.1-.12-.23-.31-.18-.35-.17-.01 0-.02.01-.03.01-.07-.3-.11-.48-.11-.48l-7.15 7.52-6.34-6.9Z"/></svg>