<svg xmlns="http://www.w3.org/2000/svg" viewBox="0 0 128 128"><path fill="#29B6F6" d="M112.44 23.63H15.56L6.91 88.04l51.98 11.61 3.6-20.25c.15-.84.83-1.25 1.5-1.24.68-.01 1.35.41 1.5 1.24l3.6 20.25 51.98-11.61-8.63-64.41Z"/><path fill="#1C3AA9" d="M113.13 12.07c-.08-2.27-1.85-4.06-4.01-4.06H18.86c-2.16 0-3.93 1.79-4.01 4.06l.71 11.56h96.85l.72-11.56Z"/><path fill="#2A56C6" d="M6.76 89.22s-2.09 16.39-2.75 21.33c-.1.79 1.2 1.69 1.2 1.69 19.15 9.75 48.13 9.72 48.13 9.72.84.17 1.65-.38 1.8-1.22.39-2.21.79-4.42 1.18-6.63.4-2.26 2.01-11.31 2.41-13.57L6.76 89.22Z"/><path fill="#4DB6AC" d="M58.52 101.73c-3.42-2.08-4.78-11.6-8.82-12.09-4.04-.49-7.56 7.25-12.25 6.58-4.69-.66-4.45-10.25-9.58-11.29-4.65-.94-8.91 7.62-13.75 5.95-3.33-1.14-2.35-6.45-6.51-8.14L5.8 96.39c1.13 2.55 3.07 5.47 7.15 6.44 5.34 1.26 7.87-2.36 10-4.38.6-.57 1.6-1.85 2.48-1.81 1.27.07 1.52 1.56 1.81 2.76.67 2.85 2.5 7.39 7.84 8.65 5.34 1.26 8.45-1.96 10.57-3.97.6-.57 1.5-2.13 2.49-1.86.99.27.95 1.37 1.41 2.68.92 2.63 2.23 6.73 6.97 8.24l2-11.41Z"/><path fill="#82E8B6" d="m58.25 103.24.98-5.48c-.74-.51-1.3-1.56-2-3.5-.96-2.64-2.27-6.26-6.46-7.25-4.19-.99-6.98 1.66-9.02 3.6-1.92 1.82-2.82 2.54-4.04 2.25-1.22-.29-1.7-1.33-2.6-3.81-.96-2.64-2.27-6.26-6.46-7.25-4.19-.99-6.98 1.66-9.02 3.6-1.92 1.82-2.82 2.53-4.03 2.25-1.22-.29-1.7-1.33-2.6-3.82-.8-2.22-1.75-5.06-4.56-6.52l-1.06 7.03c.16.39.32.83.51 1.34.96 2.64 2.27 6.26 6.46 7.25 4.19.99 6.98-1.66 9.02-3.6 1.92-1.82 2.82-2.54 4.03-2.25 1.22.29 1.7 1.33 2.6 3.81.96 2.64 2.27 6.26 6.46 7.25 4.19.99 6.98-1.66 9.02-3.6 1.92-1.82 2.82-2.53 4.04-2.25 1.22.29 1.71 1.33 2.61 3.82.91 2.55 2.28 6 6.12 7.13Z"/><path fill="#2A56C6" d="M121.24 89.22s2.09 16.39 2.75 21.33c.1.79-1.2 1.69-1.2 1.69-19.15 9.75-48.13 9.72-48.13 9.72-.84.17-1.65-.38-1.8-1.22-.39-2.21-.79-4.42-1.18-6.63-.4-2.26-2.01-11.31-2.41-13.57l51.97-11.32Z"/><path fill="#4DB6AC" d="M69.48 101.73c3.42-2.08 4.78-11.6 8.82-12.09 4.04-.49 7.56 7.25 12.25 6.58 4.69-.66 4.45-10.25 9.58-11.29 4.65-.94 8.91 7.62 13.75 5.95 3.33-1.14 2.35-6.45 6.51-8.14l1.82 13.66c-1.13 2.55-3.07 5.47-7.15 6.44-5.34 1.26-7.87-2.36-10-4.38-.6-.57-1.6-1.85-2.48-1.81-1.27.07-1.52 1.56-1.81 2.76-.67 2.85-2.5 7.39-7.84 8.65-5.34 1.26-8.45-1.96-10.57-3.97-.6-.57-1.5-2.13-2.49-1.86-.98.27-.95 1.37-1.41 2.68-.92 2.63-2.23 6.73-6.97 8.24l-2.01-11.42Z"/><path fill="#82E8B6" d="m69.75 103.24-.98-5.48c.74-.51 1.3-1.56 2-3.5.96-2.64 2.27-6.26 6.46-7.25 4.19-.99 6.98 1.66 9.02 3.6 1.92 1.82 2.82 2.54 4.04 2.25 1.22-.29 1.7-1.33 2.6-3.81.96-2.64 2.27-6.26 6.46-7.25 4.19-.99 6.98 1.66 9.02 3.6 1.92 1.82 2.82 2.53 4.03 2.25 1.22-.29 1.7-1.33 2.6-3.82.8-2.22 1.75-5.06 4.56-6.52l1.06 7.03c-.16.39-.32.83-.51 1.34-.96 2.64-2.27 6.26-6.46 7.25-4.19.99-6.98-1.66-9.02-3.6-1.92-1.82-2.82-2.54-4.03-2.25-1.22.29-1.7 1.33-2.6 3.81-.96 2.64-2.27 6.26-6.46 7.25-4.19.99-6.98-1.66-9.02-3.6-1.92-1.82-2.82-2.53-4.04-2.25-1.22.29-1.71 1.33-2.61 3.82-.91 2.55-2.28 6-6.12 7.13Z"/><path fill="#212121" d="M78.43 19.08H56.15a2.5 2.5 0 0 1-2.5-2.5v-2.22c0-1.37 1.12-2.5 2.5-2.5h22.28a2.5 2.5 0 0 1 2.5 2.5v2.22c0 1.38-1.13 2.5-2.5 2.5Z" opacity=".57"/><path fill="#FAFAFA" d="M59.555 13.588q4.472.589 9.108 3.371 4.417-2.798 8.308-3.358 1.005-.144 1.579.286.574.43.719 1.434.144 1.005-.286 1.579-.43.574-1.434.719-2.429.349-5.216 1.867 2.245 1.741 4.527 3.982 10.116 9.936 6.745 18.06-.803 1.937-2.916 2.933-2.244 1.059-4.687.352-5.219-1.509-7.837-9.98-.483 3.983-1.117 6.724Q64.542 52.395 58.566 54q-5.036 1.358-8.526-2.84-3.98-4.789-.642-13.375 1.868-4.814 9.965-13.05 2.923-2.973 5.662-5.162-3.082-1.577-6-1.961-1.006-.132-1.443-.702-.437-.569-.304-1.575.265-2.012 2.277-1.747Zm5.403 11.38q-1.321 1.208-2.701 2.612-7.51 7.639-9.075 11.675-2.472 6.36-.02 9.31 1.825 2.196 4.352 1.515 5.965-1.602 7.434-24.954l.01-.158Zm5.611-1.703q.11.857.18 1.855.352 5.054.913 7.181 2.013 7.614 5.468 8.613 2.086.603 2.725-.942 2.321-5.592-5.84-13.608-1.746-1.715-3.446-3.099Z"/></svg>