<svg xmlns="http://www.w3.org/2000/svg" viewBox="0 0 128 128"><path fill="#BDBDBD" d="M61.379 101.183q-12.452 3.582-22.474-9.101-5.051-6.393-10.316-19.084-.23-.556-.338-.813-2.875-6.906-12.526-18.774-6.205-7.632-8.392-11.374-3.895-6.666-3.275-12.361 1.056-9.711 10.895-12.779 4.537-1.414 8.93-1.057l-.486 5.98q-3.232-.263-6.658.805-6.085 1.898-6.717 7.699-.405 3.728 2.492 8.686 1.953 3.343 7.867 10.615 10.199 12.544 13.408 20.25l.342.824q4.946 11.923 9.482 17.664 7.525 9.523 16.108 7.054Z"/><path fill="#BDBDBD" d="M58.731 95.4q8.126-2.155 9.469-12.847.832-6.625-1.2-19.236-.288-1.785-.399-2.544-1.202-8.265 1.109-24.266 1.34-9.277 1.299-13.148-.06-5.74-2.321-8.729-3.519-4.649-9.713-3.156-3.485.84-6.132 2.727l-3.486-4.882.001-.001q3.594-2.564 8.211-3.677 10.013-2.414 15.903 5.369 3.456 4.567 3.537 12.286.045 4.334-1.361 14.069-2.186 15.14-1.109 22.542.104.715.384 2.455 2.17 13.461 1.231 20.938-1.848 14.707-13.885 17.9Z"/><path fill="#878787" d="M117.09 32.23a15.25 15.25 0 1 1-30.5 0 15.25 15.25 0 1 1 30.5 0Z"/><path fill="#BDBDBD" d="M115.79 31.13a13.41 13.41 0 1 1-26.82 0 13.41 13.41 0 1 1 26.82 0Z"/><path fill="#03A9F4" d="M73.356 59.454q-.144 1.085.951 6.816 2.27 11.887 1.562 18.107-1.388 12.201-11.983 16.375-11.959 4.718-21.445-4.492-4.831-4.692-10.826-16.388-2.674-5.216-3.511-6.115l5.852-5.454q1.597 1.713 4.778 7.92 5.394 10.524 9.28 14.297 5.781 5.613 12.94 2.788 6.122-2.411 6.966-9.835.57-5.011-1.471-15.703-1.337-6.999-1.025-9.364Z"/><path fill="#03A9F4" d="M34.444 71.82q2.399 2.53 6.29 4.524 7.516 3.851 14.343 1.035 6.62-2.732 10.124-9.691 1.776-3.528 2.184-6.399l4.95.702q-.522 3.684-2.668 7.946-4.342 8.621-12.684 12.064-8.96 3.696-18.529-1.207-4.652-2.384-7.638-5.534Z"/><path fill="#212121" d="M100.96 21.43c-5.24 1.22-8.49 6.45-7.28 11.69.18.78.46 1.54.83 2.26l.68 1.34c-1.92 2.51-3.48 3.47-4.01 6.38 1.36 1.33 2.95 2.39 4.69 3.13 0-.01.01-.02.01-.03 0 .01.01.02.01.04 2.87 1.22 6.14 1.59 9.42.83.37-.09.72-.2 1.07-.31l-.31-2.8s.4-3.55.49-3.74c.23-.45 1.16-.69 1.64-.97 1.16-.7 2.17-1.65 2.95-2.76a9.802 9.802 0 0 0 1.5-7.78c-1.22-5.24-6.46-8.5-11.69-7.28Z" opacity=".22"/><path fill="#03A9F4" d="M64.086 94.43q10.633 24.359 30.798 20.849 7.124-1.247 12.537-6.582 6.306-6.215 6.289-15.189-.014-6.671-2.513-10.586-1.536-2.407-6.232-6.143-7.088-5.64-9.989-10.784-6.138-10.889-1.929-23.167 2.055-5.991 5.395-9.984l6.136 5.132q-2.39 2.857-3.963 7.446-3.045 8.882 1.329 16.643 2.135 3.785 8.002 8.454 5.74 4.567 7.995 8.099 3.75 5.875 3.769 14.874.024 12.331-8.673 20.903-7.191 7.087-16.781 8.766-11.145 1.939-20.604-3.051-11.804-6.227-18.898-22.48Z"/><path fill="#212121" d="M94.74 38.77s1.9-.97 3.72.07c2.88 1.64 3.16 3.98 3.16 3.98s1.74-3.46 2.67-4.4c.92-.95-5.57-5.66-7.04-3.85-1.47 1.81-2.51 4.2-2.51 4.2Z" opacity=".22"/><path fill="#616161" d="M27.83 14.04c-1.5.01-2.82.73-3.69 1.82l-1.24-.98c-1.13-.89-2.79-.08-2.78 1.36l.04 5.19c.01 1.44 1.68 2.23 2.79 1.32l1.21-.98c.88 1.09 2.22 1.8 3.73 1.79a4.767 4.767 0 0 0 4.73-4.8 4.75 4.75 0 0 0-4.79-4.72ZM53.13 12.22l-2.65-4.46c-.74-1.24-2.58-1.07-3.08.27l-.55 1.48c-1.31-.49-2.81-.42-4.1.35a4.76 4.76 0 0 0-1.66 6.53 4.76 4.76 0 0 0 6.53 1.66c1.3-.77 2.08-2.07 2.27-3.46l1.54.21c1.42.19 2.44-1.34 1.7-2.58Z"/><path fill="#424242" d="M113.31 29.3a9.12 9.12 0 1 1-18.24 0 9.12 9.12 0 1 1 18.24 0Z"/><path fill="#D1D1D1" d="M111.73 28.59a7.08 7.08 0 1 1-14.16 0 7.08 7.08 0 1 1 14.16 0Z"/><path fill="#757575" d="M42.37 15.11c-.83-1.19-.67-3.41.76-4.42 1.43-1.01 3.59-.57 4.42.76.93 1.48-1.5.15-2.93 1.16-1.43 1.01-1.25 3.94-2.25 2.5ZM25.01 17.25c.36-1.41 2.13-2.74 3.83-2.32 1.7.42 2.78 2.33 2.32 3.83-.51 1.67-1.1-1.04-2.8-1.45-1.69-.42-3.78 1.64-3.35-.06Z"/></svg>