<svg xmlns="http://www.w3.org/2000/svg" viewBox="0 0 128 128"><path fill="#EF8720" d="M50.26 115.48c1.31-6.35 4.55-16.81 12.45-26.55C72.39 77 59.9 68.95 59.9 68.95S49.44 58.4 39.76 70.34c-7.89 9.74-17.45 15.07-23.39 17.67-4.69 2.05-7.37 7.08-6.3 12.08.97 4.54 3.89 9.98 10.94 15.69.2.16.38.29.58.44.19.16.35.32.55.48 7.05 5.71 12.97 7.44 17.61 7.45 5.11.01 9.47-3.66 10.51-8.67Z"/><path fill="#EF8720" d="M114.73 61.7 85.19 37.75 55.64 13.8 38.71 55.56c-1.5 4.52-3.41 14.56 10.3 25.68s24.27 8.08 28.38 5.67l.04.04 37.3-25.25Z"/><path fill="#424242" d="M56.2 30.575q-.224 1.58.824 3.528 1.595 2.954 4.496 4.535.532.29.242.822-.29.532-.822.242-3.217-1.753-4.984-5.025-1.236-2.298-.956-4.272.042-.3.214-.429.171-.129.471-.086.6.085.515.685ZM64.672 40.8q-.105.909.745 2.304 3.147 5.147 7.819 5.735.601.075.525.677-.075.601-.677.525-5.25-.66-8.701-6.305-1.068-1.752-.915-3.076.07-.602.672-.532.602.07.532.672ZM76.409 51.191q.967 3.136 3.631 5.025 2.675 1.895 5.943 1.749.605-.028.632.578.014.303-.131.461-.144.158-.447.171-3.684.166-6.697-1.971-3.001-2.126-4.089-5.655-.179-.58.4-.758.58-.179.758.4ZM89.577 60.181q-.077.458.288 1.144 1.442 2.659 5.903 3.623 1.537.328 2.255-.076.528-.297.825.231.297.528-.231.825-1.117.629-3.105.204-5.005-1.081-6.717-4.237-.559-1.052-.412-1.916.05-.299.225-.423t.473-.073q.598.101.496.698ZM101.018 65.576q.993 1.64 3.749 2.231 1.031.216 1.33-.138.392-.463.854-.072.463.392.072.854-.766.906-2.51.542-3.267-.702-4.531-2.789-.314-.518.204-.832.518-.314.832.204ZM52.272 23.043q-.252.159-.266.869-.014 2.703 2.15 4.345.242.183.271.395.029.213-.154.454-.366.483-.849.117-2.648-2.008-2.63-5.335.026-1.364.834-1.871.513-.323.835.191.161.256.114.465-.048.209-.305.37Z"/><path fill="#FFCC80" d="M94.07 27.05c17.57 14.242 27.621 30.959 22.45 37.339-5.171 6.38-23.607.008-41.178-14.234-17.57-14.241-27.621-30.958-22.45-37.338 5.171-6.381 23.607-.008 41.178 14.233Z"/><path fill="#424242" d="m89.33 52.57-.14.26-3.55 6.46s1.76 1.13 1.99.54c.23-.6 4.28-4.93 4.28-4.93M56.75 16.42c-.49 1.15-1.69 1.8-2.52 3.27-.83 1.47-.37 1.92-.98 2.79-.97 1.38-1.72 1-2.07.72-.82-.66-.7-2.64 1.29-5.2.38-.49 1.62-2.09 1.86-2.41"/><path fill="#424242" d="M52.811 22.079q-11.428 25.73-14.182 34.747-1.702 5.584.819 12.804.3.858-.558 1.158-.858.3-1.158-.558-2.718-7.782-.841-13.936 2.786-9.122 14.258-34.953.185-.415.485-.531.3-.115.715.069.831.369.462 1.2ZM60.16 24.16l.72 1.98s-.46.65-1.34 1.25c-.32.22-.65.44-.93.63-.51.34-.9.84-1.07 1.43-.13.46-.32.98-.58 1.22-.5.47-1.78 1.39-1.9 1.22-.12-.17-1.11-1.73-1.11-1.73l2.49-3.34 2.3-3.11 1.42.45ZM111.78 61.02c-1.03.72-1.41 2.02-2.68 3.14-1.27 1.12-1.8.75-2.53 1.54-1.15 1.24-.62 1.89-.27 2.17.82.66 2.72.14 4.82-2.34.4-.47 1.71-2.02 1.97-2.32"/><path fill="#424242" d="M108.054 67.466Q85.167 84.059 76.798 88.657q-6.567 3.598-15.93 1.357-.442-.106-.61-.38-.168-.274-.062-.716.212-.884 1.096-.672 8.68 2.077 14.63-1.183 8.27-4.542 31.064-21.069.736-.534 1.27.202t-.202 1.27ZM67.35 35.16l1.91 1.55-4.75 4.83-1.06-2.08ZM102.59 59.16c-.79-.11-1.58.28-1.93.99-.06.13-.13.27-.19.41-.19.46-.38.93-.52 1.3-.17.43-.48.78-.9.99-.46.23-1.04.57-1.25.91-.36.59-1 2.03-.8 2.11.07.03.36.14.7.26.73.28 1.56.07 2.08-.52l1.9-2.15 2.57-2.89-.28-.49c-.3-.5-.81-.84-1.38-.92Z"/><path fill="#FFCC80" d="M57.76 7.93c5.51-6.79 20.09-5.89 41.63 11.57 21.54 17.46 26.15 32.12 20.65 38.91-5.51 6.79-23.36 1.44-40.76-12.65S52.25 14.72 57.76 7.93Z"/><path fill="#E64A19" d="M120.371 59.934q-4.669 5.754-17.218 1.9-12.079-3.71-25.246-14.372-13.224-10.708-19.642-21.995-6.712-11.804-2.056-17.541.382-.47.808-.515.426-.044.897.338.941.764.177 1.705-3.612 4.451 2.281 14.814 6.193 10.89 19.061 21.31 12.802 10.367 24.432 13.938 10.985 3.374 14.624-1.11.764-.941 1.705-.177.47.382.515.808.044.426-.338.897Z"/><path fill="#FEF6E0" d="M98.994 20.717c14.868 12.05 23.373 26.194 18.998 31.592s-19.974.005-34.841-12.046C68.284 28.213 59.778 14.069 64.153 8.671s19.974-.005 34.841 12.046Z"/><path fill="#424242" d="M68.408 50.067q1.404-1.733 3.625-1.963 2.217-.229 3.95 1.174 1.733 1.404 1.963 3.625.229 2.217-1.174 3.95-.84 1.034-15.579 15.436-7.933 7.753-10.017 9.83-.909.908-1.903.096-.997-.814-.282-1.887 1.63-2.511 7.751-12.155 10.843-17.085 11.664-18.104Zm1.886 1.524-.002.002q-.745.928-11.504 17.88-1.653 2.605-2.98 4.692l3.691-3.61Q74.138 56.25 74.888 55.327q.773-.954.646-2.175-.126-1.22-1.077-1.99-2.303-1.866-4.163.429ZM51.032 81.636l-.023.036.023-.036Z"/><path fill="#424242" d="M77.5 50.22c.22-.81.76-1.49 1.51-1.87.67-.34 1.43-.79 1.75-1.2.46-.57.37-1.4-.19-1.86L78.97 44c-.57-.46-1.29-.51-1.86.19-.39.48-.67 1.28-.84 1.97-.21.8-.76 1.48-1.49 1.86-.66.34-1.16.48-1.49.9-.46.57-.61 1.44-.05 2.15.56.72 1.05 1.02 1.59 1.29.71.35 1.59.13 2.1-.49.34-.42.38-.94.57-1.65ZM87.341 66.335l-.01.008-15.352 11.349-13.96 10.253q-.793.615-1.482-.128-.685-.739-.018-1.489Q77.586 62.47 81.384 59.153q3.773-3.274 7.038-.629 1.892 1.532 1.811 3.433-.092 2.182-2.892 4.378Zm-1.112-1.438q2.131-1.675 2.188-3.017.041-.987-1.139-1.944-2.08-1.685-4.702.591-3.298 2.879-20.289 22.028l8.616-6.329 15.326-11.329ZM95.828 72.437l-.601.385Q64.942 92.249 62.015 91.007l-1.458-.619L89.9 68.491q6.963-6.029 10.079-4.597 2.664 1.223 1.848 3.253-.785 1.953-5.997 5.289Zm-.978-1.533.002-.001q4.72-3.022 5.288-4.435.17-.421-.919-.922-2.058-.945-8.155 4.341l-.026.022-23.757 17.729q7.503-3.864 26.963-16.347l.604-.387Z"/><path fill="#424242" d="M103.05 63.63c1.3-1.43 2.09-.53 3.08-2.32.69-1.24.03-2.07-.74-2.54-.77-.47-2.58-1.37-3.65-.01 0 0 1.16.59.61 1.79-.31.67-1.85 1.56-2.34 2.42-1.01 1.76-1.64 2.3-2.24 2.64-.35.19-.81.24-.48.66.45.58 1.27.94 1.96 1.15 1.05.32 2.2-.24 2.93-1.46.39-.65.03-1.41.87-2.33ZM90.8 59.29c.16-.82.05-1.21.76-1.65.64-.39 1.49-.72 2.18-1.66.75-1.02-.44-2.18-1.39-2.8-.95-.62-1.77-1.15-3.02-.61 0 0 .81.75.32 2.14-.52 1.48-1.68 2.53-2.51 3.1-.94.64-1.5 1.48-1.5 1.48s.1.59.8 1.18c1.08.92 1.66.96 2.22 1 1.3.09 1.99-1.38 2.14-2.18ZM116.5 62.55c.52-1.82-.19-2.8-1.85-3.04-1.81-.26-2.84 1.38-2.84 1.38s1.67.11.94 1.51c-.48.92-2.91 2.13-3.42 3.06-.81 1.48-2.73 2.99-2.75 3.12 0 0 2.67.45 4.45-1.22.92-.86.62-1.8 2.22-2.55 1.21-.57 2.99-1.33 3.25-2.26ZM56.614 41.429q1.569-3.192 3.684-3.735 1.843-.472 3.734 1.06 3.275 2.652.831 7.02-2.54 4.55-21.444 29.949-.585.794-1.444.298-.868-.502-.453-1.417l7.154-15.791 7.932-17.372Zm1.638.791-7.92 17.343-4.413 9.743q15.149-20.463 17.358-24.42 1.695-3.031-.389-4.72-1.181-.956-2.139-.71-1.301.333-2.497 2.764ZM48.879 34.389q2.184-5.791 3.936-6.962 1.819-1.216 3.566 1.142 2.044 2.754-2.41 10.812L38.62 72.611l-.906-1.301q-1.819-2.612 10.952-36.357l.213-.562Zm1.702.64v.002l-.214.566Q42.152 57.3 39.921 65.461l12.428-26.902.016-.029q3.906-7.058 2.554-8.879-.715-.966-1.094-.713-1.267.847-3.244 6.091Z"/><path fill="#424242" d="M56.01 25.5c1.13-1.57.08-2.15 1.63-3.49 1.07-.93 2.01-.46 2.64.2.63.66 1.87 2.24.76 3.56 0 0-.82-1.02-1.88-.22-.59.44-1.15 2.13-1.89 2.79-1.52 1.35-1.91 2.08-2.12 2.74-.12.38-.06.84-.55.61-.66-.32-1.19-1.05-1.53-1.68-.53-.97-.22-2.2.82-3.17.57-.52 1.39-.33 2.12-1.34ZM62.77 36.6c.77-.33 1.19-.32 1.47-1.11.25-.71.39-1.61 1.17-2.48.84-.94 2.22-.02 3.03.78.8.81 1.49 1.49 1.22 2.83 0 0-.9-.63-2.16.13-1.34.82-2.12 2.16-2.51 3.1-.43 1.05-1.14 1.78-1.14 1.78s-.6.02-1.32-.54c-1.12-.87-1.33-1.49-1.4-2.01-.21-1.55.97-2.19 1.64-2.48ZM54.28 12.11c1.67-.89 2.78-.4 3.36 1.18.63 1.72-.47 3-.47 3s-.75-1.55-1.96-.55c-.8.66-1.48 3.29-2.29 3.98-1.28 1.09-2.36 3.29-2.48 3.34 0 0-.99-2.51.27-4.6.66-1.08 1.63-.98 2.03-2.7.31-1.29.68-3.19 1.54-3.65ZM45.02 86.09c-9.19-7.45-9.89-11.74-9.94-12.2-.09-.85.53-1.61 1.38-1.71.84-.09 1.59.5 1.7 1.33.03.16.87 3.73 8.82 10.17 8.36 6.78 13.51 7.28 13.56 7.29.85.07 1.49.81 1.42 1.66-.06.85-.79 1.49-1.64 1.43-.25-.02-6.06-.49-15.3-7.97Z"/><path fill="#424242" d="M47.04 84.2C37.92 76.8 35.87 71.22 35.79 71c-.3-.8.1-1.69.9-2 .8-.3 1.69.1 1.99.89.04.1 1.94 4.66 10.25 11.4 8.37 6.78 14.11 7.61 14.17 7.62.85.11 1.45.89 1.34 1.73-.11.85-.87 1.45-1.72 1.34-.26-.02-6.54-.37-15.68-7.78Z"/></svg>