<svg xmlns="http://www.w3.org/2000/svg" viewBox="0 0 128 128"><defs><radialGradient id="a" cx="83.882" cy="89.628" r="6.257" gradientTransform="rotate(3.308)" gradientUnits="userSpaceOnUse"><stop offset=".165" stop-color="#FFC107"/><stop offset="1" stop-color="#F19534"/></radialGradient></defs><path d="M105.24 101.72H44.21L6.58 121.47c-.37.19-.23.76.19.76h18.12l-1.47 1.97s.33.03 1.75-.19c1.42-.23 4.09-1.77 4.09-1.77H64.5c.43 0 .86-.1 1.24-.3l39.5-20.22Z" opacity=".4"/><path fill="#5D4037" d="M105.24 101.72H44.21L4 43.5h61.03Z"/><path fill="#3E2723" d="m48.22 38.67 14.75 21.97-18.76 41.08h61.03l-1.86-63.15Z"/><path fill="#A06841" d="m63.96 45.55 37.37 54.12H45.28L7.91 45.55h56.05m1.07-2.05H4l40.21 58.22h61.03L65.03 43.5Z"/><path fill="#D68B52" d="M4 43.5 28.91 5.33h58.22L65.03 43.5Z"/><path fill="#A06841" d="M87.13 5.33C87.45 6.3 124 60.64 124 60.64l-18.76 41.08L65.03 43.5l22.1-38.17Z"/><path fill="#F19534" d="M77.12 104.56c.14 0 3.3.05 4.88-.1 1.58-.15 2.62-.79 2.62-.79L78.5 99.5l-1.38 5.06Z"/><path fill="#D1762C" d="M64.75 84.6h1.31c.31 0 .62.11.85.32l3.36 2.88-4.15.55-1.37-3.75Z"/><path fill="#FFC107" d="M87.35 88.13c-.09-1.36-.47-3.36-4.47-3.36l-10.24-.1c-.24 0-.46.13-.54.36-.16.48-.45.92-.86 1.29-1.22 1.09-3.03 1.04-4.04-.1-.31-.34-.5-.75-.59-1.18a.566.566 0 0 0-.55-.44l-5.94-.06c-1.02-.01-1.96.54-2.45 1.44l-9.09 16.78c-.25.4-.38.87-.37 1.34l.4 12.59c.05 1.59 1.56 2.76 3.82 2.05L87.65 97.5l-.3-9.37Z"/><path fill="#FFE959" d="M87.35 88.13c-.04-1.16-1.19-1.95-2.28-1.56l-34.18 16.01c-.71.25-1.17.93-1.15 1.67l.41 12.93c.04 1.16 1.19 1.95 2.28 1.56l25.47-11.93c.38-.18.63-.55.65-.98.06-1.1.41-3.16 2.21-3.17.83-.01 1.41.51 1.76.98.32.43.9.58 1.39.35l2.7-1.27c.71-.25 1.17-.93 1.15-1.68l-.41-12.91Z"/><path fill="#F19534" d="M63.078 90.049c.443 1.108-.428 2.498-1.946 3.105-1.518.607-3.108.202-3.551-.906-.443-1.108.428-2.498 1.946-3.105 1.518-.607 3.108-.201 3.551.906Z"/><path fill="url(#a)" d="M79.43 89.2s1.25 5.68-2.44 6.67c-3.26.87-3.88-3.41-3.88-3.41s-3.87-1.64-1.25-2.86c4.12-1.92 7.57-.4 7.57-.4Z"/><path fill="#FFC107" d="M71.335 103.501c.06 1.883-1.189 3.45-2.79 3.501-1.601.051-2.947-1.433-3.007-3.316-.06-1.882 1.189-3.449 2.79-3.5 1.6-.052 2.947 1.433 3.007 3.315Z"/><path fill="#4E342E" d="M20.29 33.8c.73-.2 2.38-.05 3.38 1.34 1.25 1.72.19 5.84 2.02 8.56 1.03 1.52 2.61 1.81 2.61 1.81-1.13.16-7.23 1.84-8.25-4.61"/><path fill="#FFB74D" d="M25.62 45.58c-3.21-1.08-4.11-4.99-3.85-7.26.4-3.36-.72-4.07-1.55-4.33-2.75-.89-4.77 1.33-4.77 6.55 0 6.42 5.67 8.68 5.67 8.73v73.7c0 .25.12.48.33.62.38.25 1.06.6 1.97.6.91 0 1.62-.35 2.01-.61.21-.14.34-.38.34-.63V50.57c.22.01 6.23.2 9.12-5.05l-9.27.06Z"/><path fill="#BA793E" d="M29.65 47.63c.6 1.42-.72 2.51-.72 2.51 2.7-.67 4.7-2.33 5.96-4.62l-9.27.07c0-.01 3.13-.1 4.03 2.04Z"/></svg>