<svg xmlns="http://www.w3.org/2000/svg" viewBox="0 0 128 128"><defs><linearGradient id="a" x1="-99.065" x2="-87.897" y1="26.259" y2="15.091" gradientTransform="scale(-1 1)" gradientUnits="userSpaceOnUse"><stop offset="0" stop-color="#FAFAFA"/><stop offset=".73" stop-color="#EEE"/></linearGradient></defs><path fill="#E65100" d="M116.59 13.85 85.34 37.56c-1.37 2.54-.8 4.99.11 6.88.51 1.06-.12 2.33-1.27 2.6-5.04 1.19-14.82 2.65-18.98 6.81 0 0-53.81 50.45-56.67 53.09-2.86 2.64-4.42 6.41-2.86 10.18.89 2.16 3.08 4.56 5.91 5.55 5.72 2 8.74.71 14.2-4.75 0 0 55.62-53.7 67.77-65.32 1.1-1.06 2.48-1.75 3.96-2.11 1.48-.36 3.6-1.22 5.67-3.3l15.27-15.37c6.43-6.43 1.98-14.12-1.86-17.97Z"/><path fill="#FB8C00" d="M86.53 43.1c4.94 4.94 10.38 1.56 12.27-.33l17.74-17.74c1.89-1.89 4.36-6.86.04-11.18-2.8-2.8-7.67-2.69-10.79.43L88.06 32.02c-1.9 1.89-4.85 7.75-1.53 11.08Z"/><path fill="#69B6C9" d="m105.78 6.14-3.16 5.24s7.33 6.41 8.85 7.6c1.13.88 2.13.81 2.94 0s.81-2.13 0-2.94-8.63-9.9-8.63-9.9Z"/><path fill="#69B6C9" d="M91.356 42.02 80.757 31.421l23.051-23.052 10.6 10.599L91.356 42.02Z"/><path fill="#69B6C9" d="M84.16 29.84 78.92 33s8.37 7.45 9.89 8.64c1.13.88 2.13.81 2.94 0s.81-2.13 0-2.94c-.81-.82-7.59-8.86-7.59-8.86Z"/><path fill="#A5CEDA" d="m105.29 8.54-3.13 5.23s8.54 7.62 10.07 8.81c1.13.88 2.13.81 2.94 0s.81-2.13 0-2.94-9.88-11.1-9.88-11.1Z"/><path fill="#A5CEDA" d="m102.18 13.04-4.2 4.2s8.89 7.98 10.42 9.16c1.13.88 2.13.81 2.94 0s.81-2.13 0-2.94-9.16-10.42-9.16-10.42Z"/><path fill="#A5CEDA" d="m98.3 16.82-4.2 4.2s8.95 8.03 10.47 9.21c1.13.88 2.13.81 2.94 0s.81-2.13 0-2.94-9.21-10.47-9.21-10.47Z"/><path fill="#A5CEDA" d="m93.99 20.17-4.2 4.2s9.43 8.51 10.95 9.69c1.13.88 2.13.81 2.94 0s.81-2.13 0-2.94-9.69-10.95-9.69-10.95Z"/><path fill="#A5CEDA" d="m90.17 24-4.2 4.2s9.43 8.51 10.95 9.69c1.13.88 2.13.81 2.94 0s.81-2.13 0-2.94S90.17 24 90.17 24Z"/><path fill="#A5CEDA" d="m87.25 28.73-5.65 3.01s9.97 8.78 11.49 9.97c1.13.88 2.13.81 2.94 0s.81-2.13 0-2.94-8.78-10.04-8.78-10.04Z"/><path fill="url(#a)" d="M79.33 29.45c.21-.92-.71-2.58.07-3.62.63-.84 1.15-.69 1.77-.69.94 0 1.74-.8 1.74-1.74 0-.61.12-1.2.5-1.58.38-.38.97-.5 1.58-.5.94 0 1.74-.8 1.74-1.74 0-.61.12-1.2.5-1.58.38-.38.97-.5 1.58-.5.94 0 1.74-.8 1.74-1.74 0-.61.12-1.2.5-1.58.38-.38.97-.5 1.58-.5.94 0 1.74-.8 1.74-1.74 0-.61.12-1.2.5-1.58.38-.38.97-.5 1.58-.5.94 0 1.74-.8 1.74-1.74 0-.61.13-1.45.85-1.9 1.15-.7 2.38.2 3.29.2.96 0 2.03-1.55 3.25-.41 1.16 1.08-.03 2.55.07 3.25.09.62.91 1.97.28 3.17-.49.93-1.58 1.23-2.19 1.24-.94 0-1.74.8-1.74 1.74 0 .61-.12 1.2-.5 1.58-.38.38-.97.5-1.58.5-.94 0-1.74.8-1.74 1.74 0 .61-.12 1.2-.5 1.58-.38.38-.97.5-1.58.5-.94 0-1.74.8-1.74 1.74 0 .61-.12 1.2-.5 1.58-.38.38-.97.5-1.58.5-.94 0-1.74.8-1.74 1.74 0 .61-.12 1.2-.5 1.58-.38.38-.97.5-1.58.5-.94 0-1.74.8-1.74 1.74 0 .61-.24 1.49-.8 1.88-1.79 1.25-3.02-.49-3.88-.17-.59.22-2.15 1.6-3.29.37-1.25-1.34.48-2.85.58-3.32Z"/><path fill="#FB8C00" d="M7.11 116.71c4.11 4.11 9.86.76 11.92-1.3 1.6-1.6 53.84-53.37 53.84-53.37 5.11-5.11 6.89-6.5 5.01-9.15-1.88-2.65-9.38-2.33-13.54 1.84 0 0-52.56 48.89-54.83 51.16-2.27 2.27-5.85 7.37-2.4 10.82Z"/></svg>