<svg xmlns="http://www.w3.org/2000/svg" viewBox="0 0 128 128"><defs><linearGradient id="a" x1="28.813" x2="28.813" y1="-53.763" y2="-89.131" gradientTransform="scale(1 -1)" gradientUnits="userSpaceOnUse"><stop offset=".153" stop-color="#1E88E5"/><stop offset="1" stop-color="#1565C0"/></linearGradient></defs><path fill="#B9E4EA" d="M4 93.33V34.67c0-4.68 3.83-8.5 8.5-8.5h103c4.68 0 8.5 3.83 8.5 8.5v58.67c0 4.68-3.83 8.5-8.5 8.5h-103c-4.67 0-8.5-3.83-8.5-8.51Z"/><path fill="#FFF" d="M42.43 89.13H15.19c-.85 0-1.54-.69-1.54-1.54V50.57c0-.85.69-1.54 1.54-1.54h27.24c.85 0 1.54.69 1.54 1.54V87.6c0 .84-.69 1.53-1.54 1.53Z"/><path fill="url(#a)" d="M43.87 87.95v1.18H13.75v-1.18c0-4.63 5.87-6.87 12.38-7.34v-.32c-2.74-.83-5.19-2.89-6.4-6.28-1.24-.44-1.95-4.51-1.62-5.04-.24-1.71-1.86-15.12 10.7-15.21 12.53.06 10.93 13.44 10.67 15.18.32.53-.38 4.6-1.62 5.04-1.18 3.39-3.63 5.48-6.37 6.31v.29c6.55.53 12.38 3.01 12.38 7.37Z"/><path fill="#2F7889" d="M115.5 26.16h-103c-4.68 0-8.5 3.83-8.5 8.5v5.33h120v-5.33c0-4.67-3.83-8.5-8.5-8.5Z"/><path fill="#82AEC0" d="M79.09 53.76H54.33c-1.31 0-2.37-1.06-2.37-2.37s1.06-2.37 2.37-2.37h24.76c1.31 0 2.37 1.06 2.37 2.37a2.381 2.381 0 0 1-2.37 2.37ZM87.96 65.55H54.33c-1.31 0-2.37-1.06-2.37-2.37s1.06-2.37 2.37-2.37h33.63c1.31 0 2.37 1.06 2.37 2.37a2.381 2.381 0 0 1-2.37 2.37ZM75.27 77.34H54.33c-1.31 0-2.37-1.06-2.37-2.37s1.06-2.37 2.37-2.37h20.94c1.31 0 2.37 1.06 2.37 2.37a2.381 2.381 0 0 1-2.37 2.37ZM69.57 89.13H54.33c-1.31 0-2.37-1.06-2.37-2.37s1.06-2.37 2.37-2.37h15.24c1.31 0 2.37 1.06 2.37 2.37s-1.06 2.37-2.37 2.37Z"/><path fill="#94D1E0" d="M124 53.79c-.17-.01-.34-.03-.52-.03-7.84 0-14.19 6.35-14.19 14.19s6.35 14.19 14.19 14.19c.17 0 .34-.02.52-.03V53.79Z"/></svg>