<svg xmlns="http://www.w3.org/2000/svg" viewBox="0 0 128 128"><path fill="#3F51B5" d="M21.1 23.79c-.46.11-2.08-1.23-7.01-.76-1.87.18-2.55.66-2.55.66s.18-2.66 2.42-4.45c1.57-1.26 3.01-1.75 4-1.94.71-.14 1.16-.81 1.05-1.53-.27-1.71-.32-4.52 1.83-5.95 2.02-1.35 4.19-.42 5.52.46.66.44 1.54.23 1.92-.48.5-.94 1.33-2.17 2.62-3.17 2.51-1.94 4.85-.62 4.85-.62s-2.15 1.86-2.25 6.6c-.01.52.19 1.82-.09 2.28-3.28 2.33-5.38 4.13-8.66 6.47-1.37.98-1.75 1.24-3.14 2.19-.18.13-.35.2-.51.24Z"/><path fill="#3F51B5" d="M74.05 39.44a30.22 30.22 0 1 1-60.44 0 30.22 30.22 0 1 1 60.44 0Z"/><path fill="#303F9F" d="M61.17 14.69c1.58 3.03 4.1 5.07 2.28 14.8-1.41 7.54-7.71 15.42-20.65 16.26-11.01.71-18.79-5.3-21.02-12.6-2.12-6.94-.87-12.82 3.53-17.6-11.22 7.48-11.7 20.41-11.7 23.88 0 16.69 13.53 30.22 30.22 30.22 16.69 0 30.22-13.53 30.22-30.22.01-10.23-5.09-19.28-12.88-24.74Z"/><path fill="#5064C9" d="M123.51 59.75a33.12 33.12 0 1 1-66.24 0 33.12 33.12 0 1 1 66.24 0Z"/><path fill="#4054B0" d="M123.47 61.06c-5.69 14.41-18.79 25.92-39.19 19.6-16.67-5.17-25.41-25-20.49-40.55a33.056 33.056 0 0 0-4.83 9.49c-5.56 17.42 4.02 36.05 21.41 41.6 17.39 5.55 36-4.07 41.56-21.49.91-2.87 1.41-5.77 1.54-8.65Z"/><path fill="#8092F2" d="M100.36 46.17s3.48 8 9.12 6.08c3.38-1.15 2.5-6.79 2.5-6.79s8.99-.41 8.58-4.36c-.42-4.05-6.07-5.37-6.07-5.37s-.49-5.85-2.51-7.4c-3.37-2.57-7.56 1.42-7.56 1.42s-3.23-5.41-8.11-4.36c-3.91.84-1.77 9.2-1.77 9.2s-5.66-.07-3.31 4.58c2.57 5.1 9.13 7 9.13 7Z"/><path fill="#2F3E82" d="M107.309 33.395c3.621 1.822 5.259 5.879 3.658 9.061-1.601 3.182-5.834 4.285-9.455 2.463-3.622-1.822-5.259-5.878-3.659-9.06 1.601-3.183 5.835-4.285 9.456-2.464Z"/><path fill="#5064C9" d="M106.974 35.598c2.906 1.974 3.873 5.618 2.161 8.14-1.713 2.522-5.457 2.967-8.363.994-2.906-1.973-3.873-5.618-2.161-8.14 1.713-2.522 5.457-2.967 8.363-.994Z"/><path fill="#6678D9" d="M72.85 88.24a34.18 34.18 0 1 1-68.36 0 34.18 34.18 0 1 1 68.36 0Z"/><path fill="#5366CF" d="M70.98 77.09c.19 1.32.67 35.28-33.79 36.26-14.12.4-23.69-8.91-28.13-19.59C4.5 82.79 9.9 69.8 9.9 69.8s-2.89 4.66-3.53 7.29c-1.21 3.5-1.87 7.25-1.87 11.15 0 18.88 15.3 34.18 34.18 34.18s34.18-15.3 34.18-34.18c-.01-3.91-.68-7.66-1.88-11.15Z"/><path fill="#9AA7ED" d="M35.42 81.76s-4.05 7.91-11.4 5.77c-3.4-.99-1.81-6.31-1.81-6.31s-4.75-.39-6.47-4.48c-1.54-3.66 6.7-5.12 6.7-5.12s-3.26-6 .19-8.42c3.45-2.42 7.21 3.02 7.21 3.02s3.07-8.86 7.06-5.93c3.82 2.81 2.85 10.91 2.85 10.91s6.88 1.16 4.56 5.81c-2.56 5.12-8.89 4.75-8.89 4.75Z"/><path fill="#2C3F9E" d="M37.79 73.508c.842 3.869-1.874 7.746-6.067 8.659-4.193.914-8.275-1.483-9.117-5.352-.843-3.869 1.873-7.746 6.066-8.659 4.193-.913 8.275 1.483 9.118 5.352Z"/><path fill="#5366CF" d="M37.838 74.304c.74 3.4-1.534 6.782-5.079 7.554-3.545.772-7.02-1.358-7.76-4.758-.741-3.399 1.533-6.781 5.079-7.553 3.545-.773 7.019 1.357 7.76 4.757Z"/></svg>