<svg xmlns="http://www.w3.org/2000/svg" viewBox="0 0 128 128"><defs><radialGradient id="k" cx="74.947" cy="130.409" r="14.318" gradientTransform="scale(1 .8296)" gradientUnits="userSpaceOnUse"><stop offset=".145" stop-color="#424242"/><stop offset="1" stop-color="#616161"/></radialGradient><radialGradient id="l" cx="75.077" cy="255.176" r="54.786" gradientTransform="scale(1 .2689)" gradientUnits="userSpaceOnUse"><stop offset=".207" stop-color="#424242"/><stop offset=".939" stop-color="#616161"/></radialGradient><radialGradient id="a" cx="33.774" cy="63.748" r="25.535" gradientTransform="scale(1 .7219)" gradientUnits="userSpaceOnUse"><stop offset=".301" stop-color="#BD3D15"/><stop offset=".661" stop-color="#E64A19"/></radialGradient><radialGradient id="c" cx="75.012" cy="69.923" r="15.638" gradientTransform="scale(1 1.432)" gradientUnits="userSpaceOnUse"><stop offset="0" stop-color="#FFE082"/><stop offset="1" stop-color="#616161"/></radialGradient><radialGradient id="e" cx="66.367" cy="100.341" r="27.272" gradientTransform="scale(1 .9695)" gradientUnits="userSpaceOnUse"><stop offset=".417" stop-color="#F7D881"/><stop offset="1" stop-color="#9E9E9E"/></radialGradient><radialGradient id="g" cx="-84.419" cy="100.341" r="27.272" gradientTransform="scale(-1 .9695)" gradientUnits="userSpaceOnUse"><stop offset=".417" stop-color="#F7D881"/><stop offset="1" stop-color="#9E9E9E"/></radialGradient><radialGradient id="h" cx="75.393" cy="45.972" r="6.288" gradientTransform="scale(1 2.1007)" gradientUnits="userSpaceOnUse"><stop offset=".255" stop-color="#FF9100"/><stop offset=".714" stop-color="#EF6C00"/><stop offset="1" stop-color="#DD2C00"/></radialGradient><radialGradient id="i" cx="75.517" cy="54.045" r="4.886" gradientTransform="scale(1 1.8024)" gradientUnits="userSpaceOnUse"><stop offset=".398" stop-color="#FFEE58"/><stop offset=".823" stop-color="#FFB604"/><stop offset="1" stop-color="#FFB604" stop-opacity="0"/></radialGradient><radialGradient id="j" cx="75.436" cy="55.055" r="2.79" gradientTransform="scale(1 1.7715)" gradientUnits="userSpaceOnUse"><stop offset=".401" stop-color="#FFFDE7"/><stop offset=".842" stop-color="#FFEE58"/><stop offset="1" stop-color="#FFEE58" stop-opacity="0"/></radialGradient><linearGradient id="m" x1="63.471" x2="22.081" y1="50.857" y2="52.498" gradientUnits="userSpaceOnUse"><stop offset=".491" stop-color="#FFE082" stop-opacity="0"/><stop offset=".904" stop-color="#FFE082"/></linearGradient><linearGradient id="n" x1="-87.031" x2="-128.422" y1="50.857" y2="52.498" gradientTransform="scale(-1 1)" gradientUnits="userSpaceOnUse"><stop offset=".491" stop-color="#FFE082" stop-opacity="0"/><stop offset=".904" stop-color="#FFE082"/></linearGradient><linearGradient id="o" x1="35.554" x2="33.531" y1="26.874" y2="29.879" gradientUnits="userSpaceOnUse"><stop offset=".333" stop-color="#BDBDBD"/><stop offset=".892" stop-color="#9E9E9E"/></linearGradient><linearGradient id="p" x1="90.269" x2="92.223" y1="32.325" y2="35.023" gradientUnits="userSpaceOnUse"><stop offset=".407" stop-color="#BDBDBD"/><stop offset="1" stop-color="#9E9E9E"/></linearGradient><linearGradient id="q" x1="80.151" x2="82.397" y1="30.572" y2="32.677" gradientUnits="userSpaceOnUse"><stop offset=".361" stop-color="#BDBDBD"/><stop offset="1" stop-color="#9E9E9E"/></linearGradient><linearGradient id="b" x1="21.819" x2="22.228" y1="42.982" y2="29.427" gradientUnits="userSpaceOnUse"><stop offset=".116" stop-color="#FFE082" stop-opacity="0"/><stop offset=".688" stop-color="#FFE082"/></linearGradient><linearGradient id="d" x1="65.737" x2="56.677" y1="107.681" y2="114.254" gradientUnits="userSpaceOnUse"><stop offset="0" stop-color="#212121"/><stop offset="1" stop-color="#232323" stop-opacity="0"/></linearGradient><linearGradient id="f" x1="-85.049" x2="-94.11" y1="107.681" y2="114.254" gradientTransform="scale(-1 1)" gradientUnits="userSpaceOnUse"><stop offset="0" stop-color="#212121"/><stop offset="1" stop-color="#232323" stop-opacity="0"/></linearGradient></defs><path fill="url(#a)" d="M26.63 37.48c-4.7-1.03-10.31-1.65-15.31-2.24-4.82-.57-7.05 1.97-7.05 6.39 0 3.6 1.5 6.17 2.45 7.45.43.58 1.07.96 1.79 1.07 2.35.38 7.04.86 11.8.86 5.67 0 11.84-1.66 17.02-2.4 1.88-.27 2.06 2.02 1.91.26-.5-6.04-7.51-10.27-12.61-11.39Z"/><path fill="url(#b)" d="M26.63 37.48c-4.7-1.03-10.31-1.65-15.31-2.24-4.82-.57-7.05 1.97-7.05 6.39 0 3.6 34.98 7.23 34.98 7.23-.51-6.03-7.52-10.26-12.62-11.38Z"/><path fill="url(#c)" d="M68.19 106.21c-.1.05-.19.11-.29.16.21-9.91 3.31-19.83 9.69-27.3-1.17 1.37-8.25-1.4-9.54 0-12.38 13.45-9.85 32.55-8.75 38.19.18.95 1 1.64 1.97 1.65 1.86.02 4.89 0 6.62-.01.75-.01 1.41-.51 1.59-1.25 1.09-4.42 3.14-9.35 7.28-11.45-2.25 1.15-6.28-1.16-8.57.01Z"/><path fill="#616161" d="M63.86 106.37c-10.11 2.11-14.8 10.36-14.8 10.36-.46-3.66-.22-8.13 0-9.43 3.02-18.38 11.91-25.88 11.91-25.88l-8.65-1.68C44.8 87.3 41.6 96.23 40.54 106.73c-.32 3.14-.26 12.64 1.57 13.85 0 0 7.71 4.62 8.88 3.33 5.91-6.49 12.27-13.28 21.71-14.38 3.33-.4-6.07-3.74-8.84-3.16Z"/><path fill="url(#d)" d="M64.11 106.32c-6.21 1.12-10.58 5.02-12.54 7.15l8.18 1.82c2.52-2.01 5.27-3.68 8.37-4.73l3.04-1.73-3.32-1.22c-2.72-.52-2.52-1.51-3.73-1.29Z"/><path fill="url(#e)" d="M50.61 124.29c-.14 0-.26-.02-.35-.04-.37-.08-1.03-.37-1.36-1.39-.86-2.71-1.85-9.99-.11-20.04 2.51-14.49 10.07-21.27 10.39-21.55l1.75.98c-.07.06-7.77 7.11-10.16 20.9-1.64 9.46-.8 16.27-.01 18.96.16-.17.33-.36.53-.57 3.43-3.69 12.55-13.49 21.39-13.49v1.94c-7.96 0-16.64 9.34-19.91 12.85-.28.3-.52.55-.71.76-.53.55-1.06.69-1.45.69Z"/><path fill="#616161" d="M86.93 106.37c10.11 2.11 14.8 10.36 14.8 10.36.46-3.66.22-8.13 0-9.43-3.02-18.38-11.91-25.88-11.91-25.88l8.65-1.68c7.52 7.56 10.72 16.49 11.78 26.99.32 3.14.26 12.64-1.57 13.85 0 0-7.71 4.62-8.88 3.33-5.91-6.49-12.27-13.28-21.71-14.38-3.33-.4 6.07-3.74 8.84-3.16Z"/><path fill="url(#f)" d="M86.68 106.32c6.21 1.12 10.58 5.02 12.54 7.15l-8.18 1.82c-2.52-2.01-5.27-3.68-8.37-4.73l-3.04-1.73 3.32-1.22c2.72-.52 2.52-1.51 3.73-1.29Z"/><path fill="url(#g)" d="M100.17 124.29c.14 0 .26-.02.35-.04.37-.08 1.03-.37 1.36-1.39.86-2.71 1.85-9.99.11-20.04-2.51-14.49-10.07-21.27-10.39-21.55l-1.75 1.05c-.59-.62 7.78 7.04 10.17 20.83 1.64 9.46.8 16.27.01 18.96-.16-.17-.33-.36-.53-.57-3.43-3.69-12.55-13.49-21.39-13.49v1.94c7.96 0 16.64 9.34 19.91 12.85.28.3.52.55.71.76.52.55 1.05.69 1.44.69Z"/><path fill="#424242" d="M87.99 97.4a12.6 2.43 0 1 1-25.2 0 12.6 2.43 0 1 1 25.2 0Z"/><path fill="#FFE082" d="M75.39 95.5c7.04 0 11.1 1.18 11.96 1.9-.87.72-4.92 1.9-11.96 1.9-7.04 0-11.1-1.18-11.96-1.9.87-.72 4.92-1.9 11.96-1.9m0-1.07c-7.26 0-13.14 1.33-13.14 2.97 0 1.64 5.88 2.97 13.14 2.97 7.26 0 13.14-1.33 13.14-2.97 0-1.64-5.88-2.97-13.14-2.97Z"/><path fill="url(#h)" d="M82.3 95.94c-.54-5.45-6.9-15.61-6.9-15.61s-6.36 10.16-6.9 15.61c-.57 5.71 5.09 6.48 6.9 6.48 1.81 0 7.47-.77 6.9-6.48Z"/><path fill="url(#i)" d="M79.73 96.84c-.45-4.11-4.33-9.69-4.33-9.69s-3.88 5.58-4.33 9.69c-.42 3.77 2.7 4.81 4.33 4.81s4.75-1.04 4.33-4.81Z"/><path fill="url(#j)" d="M78.26 97.66c-.3-2.72-2.87-6.41-2.87-6.41s-2.57 3.7-2.87 6.41c-.28 2.5 1.78 3.18 2.87 3.18s3.15-.69 2.87-3.18Z"/><path fill="url(#k)" d="M88.53 105.86c0 1.88-.68 4.56-13.14 4.56s-13.14-2.58-13.14-4.56V97.4s2.23 2.53 12.85 2.53 13.43-2.53 13.43-2.53v8.46Z"/><path fill="#FFE082" d="M87.36 97.4c-.87.72-4.92 1.9-11.96 1.9-7.04 0-11.1-1.18-11.96-1.9.14-.11-1.18-.13-1.18 0 0 1.64 5.88 2.97 13.14 2.97 7.26 0 13.14-1.33 13.14-2.97-.01-.13-1.32-.12-1.18 0Z"/><path fill="url(#l)" d="M102.78 77.37c0 1.17-.73 2.22-1.83 2.61-3.72 1.29-14.49 3.27-25.69 3.27-11.2 0-21.97-1.98-25.69-3.27-1.11-.38-1.83-1.44-1.83-2.61v-7.61h55.05v7.61Z"/><path fill="#FFE082" d="M49.58 79.91c2.14.43 4.26.84 6.41 1.1 2.13.34 4.27.6 6.41.77 4.28.36 8.56.6 12.85.58 4.29.02 8.57-.22 12.85-.58 2.14-.17 4.28-.44 6.41-.77 2.15-.26 4.27-.67 6.41-1.1l.05.14c-4.13 1.39-8.41 2.27-12.71 2.89-4.31.61-8.66.9-13.01.92-4.35-.02-8.7-.31-13.01-.92-4.3-.61-8.58-1.5-12.71-2.89l.05-.14Z"/><path fill="#E64A19" d="M75.25 27.6c-43.16 0-43.58 6.1-43.13 10.4l2.98 23.12c1.64 10.64 18.25 13.65 40.14 13.39 21.89.26 38.5-2.75 40.14-13.39l3-23.12c.45-4.3.03-10.4-43.13-10.4Z"/><path fill="url(#m)" d="m32.12 38 2.98 23.12c1.24 8.05 11.04 11.72 25.21 12.93l-.93-46.1c-2.1.1-4.05.23-5.89.37C31.96 30.06 31.76 34.6 32.12 38Z"/><path fill="url(#n)" d="m118.38 38-2.98 23.12c-1.24 8.05-11.04 11.72-25.21 12.93l.93-46.1c2.1.1 4.05.23 5.89.37 21.53 1.74 21.73 6.28 21.37 9.68Z"/><path fill="#424242" d="M114.8 36.37a39.59 6.21 0 1 1-79.18 0 39.59 6.21 0 1 1 79.18 0Z"/><path fill="#FFF9C4" d="M114.28 37.37a39.07 5.21 0 1 1-78.14 0 39.07 5.21 0 1 1 78.14 0Z"/><path fill="url(#o)" d="m12.09 14.3 39.12 27c1.92.23 3.98.43 6.16.61L13.79 11.83l-1.7 2.47Z"/><path fill="url(#p)" d="M105.92 23.66c-.47-.68-1.4-.85-2.09-.39l-28.06 19.3c1.83 0 3.63-.03 5.39-.07l24.37-16.76c.68-.46.86-1.39.39-2.08Z"/><path fill="#BF855E" d="m104.04 21.92 15.78-10.85c1.14-.78 2.69-.5 3.48.64.78 1.14.49 2.69-.64 3.48l-15.78 10.85c-1.43.95-4.5-3.03-2.84-4.12Z"/><path fill="url(#q)" d="M92.38 19.8a1.5 1.5 0 0 0-2.12.07L69.16 42.5l4.04.06 19.25-20.64c.57-.6.54-1.55-.07-2.12Z"/><path fill="#BF855E" d="m90.17 18.51 13.06-14a2.488 2.488 0 0 1 3.53-.12c1.01.94 1.06 2.52.12 3.53l-13.06 14c-1.17 1.24-5.03-1.99-3.65-3.41ZM27.28 26.01 11.52 15.13a2.503 2.503 0 0 1 2.84-4.12l15.76 10.88c1.69 1.23-1.2 5.24-2.84 4.12Z"/></svg>