<svg xmlns="http://www.w3.org/2000/svg" viewBox="0 0 828.86 582.6" xmlns:v="https://vecta.io/nano"><style><![CDATA[.B{fill:#f01975}.C{fill:#fff}.D{fill:#24bdcc}.E{fill:#bf1030}.F{fill:#efef70}.G{stroke-miterlimit:10}]]></style><path fill="#ffd464" d="M0 0h828.86v546.39H0z"/><path fill="#fff7db" d="M50.92 33.56h727.03v479.26H50.92z"/><path d="M431.53 35.86h332.68v224.16H431.53zM665.24 275.1l-.41-.15-.06.79a2.86 2.86 0 0 1 .47-.64z"/><path d="M606.97 206.28h0v.07z"/><path d="M601.17 208.2l7.42-1.82-1.62-.1v.07-.07l-5.8 1.92zm17.75-17.78a6.19 6.19 0 0 0 .65.73l-.65-.73zm-45.64 125.99a1 1 0 0 0 .39-.11.88.88 0 0 0-.39.11z"/><path d="M747.94 172.2c-10.2 2.35-30.44 7.75-40.28 10v-.15c-5.58 1.57-11.87 3-17.54 4.3l.09.13-24.63 6.05v-.15l-1.39.34v.09l-4.46 1.07h0l-2.42.59v.09c-4.94 1.36-12.34 2.83-17.3 4.15v.06l-6.1 1.57a.69.69 0 0 0 0-.13l-4.62 1.14h0l-2.84.7-.15.4c-.18-.08-.38-.15-.58-.22l-13.76 3.37.07.14a10.65 10.65 0 0 0-2.56.47l.13.27c-3.76.15-9.56 2.19-13.13 3.34v-.41c-.24.06-2.69.64-2.83.76v-.06l-15.32 3.7v.23c-.48-.23-3 .55-3.52.64v.13c-9.52 2.1-23.24 5.82-32.49 8v-.1c-9.8 2.58-20.12 5-30.12 7.39v.06c-4.51 1.21-9.14 2.2-13.59 3.27l.07.09c-6.4 1.68-13.88 3.24-20.24 4.86a1.47 1.47 0 0 0 .1.22l-.22-.19-32.5 8h.07l-12.26 3v-.06l-2 .49v252.33h332.6V168.39l-5.58 1.3a.5.5 0 0 0 0-.13c-1.36.25-9.5 2.54-10.7 2.64z" class="E"/><g class="C"><path d="M764.22 139.25c-7.64.83-13.76-2.22-18.21-8.08-24.47-35.11-81.23-33.51-103.36 2.69-4.58 7.13-8 15-13.24 21.79-11.63 16.59-31.87-9.7-57.81 15.34-5.14 4.82-10.43 5.82-16.48 2.82-36.91-26.39-83.71-31.29-108.29 13.39-5.85 11-7.39 24.07-15.29 34 2.42-26.43-6.87-59.34 8.14-82.17-2.57 7.94-5 15.89-5.34 23.93l5.16-13.67 1 .24c-4.46 15.39-5.59 30.75.24 46.83 3-7.67 6.09-13.73 6.08-21.85.05-3.57 3.51-7.4 3.77-11.21 1.35-8.69 10.57-13 15.72-19l-5.18 1.13-.16-.64 10-2.59-1.49-.34v-.38l6-.94v-.17l-5.64.3-.07-.66 12.3-1.51-2.57-.91c4.15-1.43 6-1.26 10.09-.27l-4.31-2.38.17-.27 9.77 3.13.19-.55-2.15-1.52.21-.47 4.6 1.75-.6-1 9 1-2.9-2.75 10.24 4.56-1-3.44 5.2 2.63-1.47-5.1 7.56 5.46c-3.25-7.8-6.88-14.88-14.81-18.68l.71-.79 10.47 7.91-10.9-17.27.55-.4 8.31 9.32.41-.35q-3.45-5.54-6.88-11.08l.45-.22 8.73 9.71.37-.34-7-11.22.7-.5 9.37 11 .43-.33-9.6-15.21.36-.3 12.46 14.77.51-.41-9.27-14.95.55-.38 11.05 13.16.28-.26-8.22-14.65.58-.34 8.61 11.13.46-.28-7.65-14.33.48-.31 11 14.56.31-.21-7.64-15.27.61-.32 9 13.18.4-.23-6.43-14.13.39-.17 9.95 15.25.42-.23-8.21-18.28.46-.23 10.5 16.76.3-.16-7.52-17.58.64-.29 10.45 17.39.26-.14L543 81.9l.63-.27q4.54 9.39 9.07 18.77l.47-.22-6.39-18.86.73-.29q4.47 9.45 8.95 18.89l.25-.11-6.43-21.4.6-.2q4.13 9.38 8.26 18.77l.49-.21-5.88-20.4.54-.17 8.77 21 .31-.13-4.29-18 .42-.1 6.79 17.52.56-.18-4.51-20.88.53-.14q3.63 10.49 7.25 21l.52-.16-3.65-21 .53-.12q2.73 9.47 5.45 18.93l.44-.11-2-18.76.54-.11q2.07 9.83 4.16 19.64l.52-.09q-.6-8.39-1.21-16.76l.61-.06 3.38 16.22.58-.12q-.57-8.43-1.13-16.87h.45q1.74 7.66 3.47 15.35l.49-.11-1.2-14.55.64-.09q1.7 8.43 3.4 16.87l.37-.07-1.08-17 .55-.09q1.67 8.28 3.35 16.57l.27-.07-1-15.72h.57l3.18 17.39V73.73l.4-.06 2.08 19.9h.88V80.12h.61q.78 6.87 1.57 13.74h.56V73.81h.7q.65 9 1.3 18h.37q.57-6.24 1.15-12.5h.43q.42 6.56.85 13.12h.21q.63-6.78 1.28-13.56h.54v12.19l.56.05q1-7.55 1.93-15.09h.24v15.23h.31q1-6.15 2-12.31l.7.2c-.68 17.35-5.55 33.22-17.17 46.74 4.16-1.74 6.86-5.42 10.35-8.13 3.37-.58 4.91-4.81 7.42-7l.42.28-5.55 9.58c8.47-8 14.54-17.75 20.71-27.54v2.44h.32l2.68-7.57.5.17-1.26 6.82c3.73-6.92 5.81-9.72 9.24-11.43-7.51 7.65-9.73 16.43-8.38 26.83l1.41-10.63.7.06v6.58h.36l.82-3.91 1.69 3.19 2.69-7 .31.1-.5 3.9h.32l3-7.78.55.18-1.7 7.89 5.25-5-.25 2.06.32.1 2.41-4.51.3.17-.75 2.71 6.94-5.1v1.47l3.52-4.13.32.26-1.11 2.63 5.94-5-1.11 2.71 10.45-5.79.56.3q-3 7.86-6 15.71c6.49-5.81 10.19-23.11 20.88-19.16 6-1.18 11.93-.65 17.88.54l-1 .27c9.7 4.81 17 12.56 22.16 22.37l-1.57-.58c1.33 1.65 3 2.89 3.48 4.5 1.76 5.38 6 8.42 10.57 12.19-.7-19.82-12.7-36.05-22.46-51.54l4.18 3.73.3-.36-7-9.2.37-.28 3.17 2.26.42-.41-10.26-12.91.14-.13 8 7 .51-.44-13.07-16.15.31-.28 11.24 9.75.43-.37q-5-6.36-10-12.74l.25-.21 7.71 6.54.3-.35-7.11-9.67h30.24l8.46 11.22-.87.75-6-6.7-.25.28 9.9 13.53-.55.41-6.38-6.78-.28.23 7.54 11.68-.5.34-5.94-6.41c9.09 27.67 24 54.99 22.31 84.83zm-210.55-19.1c.13 2.74.68 5.43.27 7.95-.62 3.84 1.05 6.58 3.36 9.12 3.49 1.35 4.39-3.86 2.63-6.11-.1 1.58-1 2.67-1.79 4-6.01-2.74-.88-10.43-4.47-14.96zm24.88-4.93c4.11 11.25 10.56.77 2.89-5 .69 2.42 4.1 5.33 1.05 7.1-.78.34-2.46-1.28-3.94-2.1z"/><path d="M637.74 35.87c.4 27.92-10.58 53.24-19.15 66 4.19-11 8.22-22 10.59-33.61-6 17.5-11.75 36.09-25 49.59a90 90 0 0 0 19.63-56.63c-1.52 11.68-3.59 23.21-8.57 34.07l1.06-4.94-6.9 15.3-.64-.26c9.36-22.58 5.64-46.45 1-69.51h5c2.83 11.89 3.63 24 4.08 36.19h.83l-1.28-33 2.85 13.68h.38q-1-8.39-1.91-16.77h.55q1.21 4.84 2.44 9.69l.4-.06-1.19-9.63h1.1l1.94 8.16.43-.06-.72-8.1h2.75l1.35 21.06h.6V39.81h.81l1 10.74h.68V35.87h.55q.51 10.11 1 20.21h.23q.51-8.82 1-17.65h.33l.36 3.7h.31v-6.31zm-179.26 0c-1.58 22.77 5.07 45.73 20.34 62.95-7.24-5.33-17.63-19.48-22.36-36.13 1.52 9.89 5.67 18.7 11.56 26.81l-.85.47q-5.1-7.83-10.18-15.66l-.28.11c2.31 5.36 5.62 10 7.92 15.4-12.8-15.29-18.28-34.32-18.8-53.95h3.85l1.07 13.39h.58V35.87h1.08l.5 10.73h.46l.69-10.71h.55l.51 11.75h.51l.63-11.72zm228.2 0c-1.57 14.05-3.52 28-8 41.42l-.69-.19c3.57-13.49 2.93-27.4 3.21-41.23h2.21v14.39h.71l.39-14.4zm77.54 29.69l-4.39-13.39.33-.23 2.66 3.35.38-.2q-3-7.86-6-15.71l.46-.26 3.55 5.49.26-.11q-1.62-4.32-3.26-8.63h6zM661.41 35.87c-2.6 9.75-5.42 19.74-11.2 28.13 4-9 6.91-18.24 7.35-28.13zm-10.47 0a110.74 110.74 0 0 1-6.24 25.63q1.76-12.81 3.49-25.63zm-219.4 108.87l5.42-11.47.21.14c-1.92 8.17-3.29 16.48-5.63 24.53zM689.41 35.87q-1.5 11-3 21.9l-.56-.09 1.38-21.81zm3.32 0q-2 10.26-4.06 20.53l-.65-.13 2.51-20.4zm-39.04 0a44.23 44.23 0 0 1-3.65 15.94q.72-8 1.45-15.94zm110.53 132.52l-5.58 1.3a14.9 14.9 0 0 1 5.58-7.9zM436.49 35.87l-4.95 7.7v-7.7zm-4.95 97.88l4.05-6.66.51.19-4.56 13.07zM585.5 35.87c-1.19 3.26-1.48 4.48-5.11 2.5l.26-.87 1.88.37-.32-2zm178.72 45.09q-2.32-5.61-4.66-11.21l.45-.21c1.87 3.72 4.94 7.02 4.21 11.42zM656.41 35.87l-2.2 8.69v-8.69zm107.81 53.34l-3.67-9.27.27-.18 3.4 5.05zm-271.26 84.03l14.15-1.06v-.29l-4.37-.49v-.55h7.93v-.7l-9.46-1v-.71l15.52.68-4.65-1.44c8.11-.28 15.12 3 22.25 6.73-16.12-18.92-60.79-13.43-74.38 10.89 23.35-21.43 14.1 15.2 1.08 22.14-7.21 5.14-8.61-3-7.49-8.72-5.91 7.74-3.72 28.39 4.58 44.28-1.62 1.26-2.63 1.1-3.73-.87a54.93 54.93 0 0 1 28.43-78.32c36.52-15.32 79.06 15.28 75.39 54.72-6.89 3.27-10 3-14.62-3.34-9.39-9.62-18.55-19.56-32.14-23-9.7-3.68-20.22 2.84-29.24-3.14 5.52 2.75 10.05-1.07 15-1.92 13.19-2.27 25.22 2.3 35 11.15-6.54-15-31.74-20.83-47.54-15.62 4.32-1.58 8.74-2.35 13-4.08l-8.75.71-.06-.45 9.82-2v-.45l-10.39.7-.07-.55 16.84-2.41v-.19h-12.19zm176.45-32.6c4-2.33 7.38-6.51 11.7-7.78l-7.46 6.35.22.26 11.09-6.55.37.59-5.92 4.3 13-4.95.29.64c-14.9 5.84-25.39 15.59-28.95 32.53 10.66-16.75 22.27-22.41 40.79-27l.38.64c-19.85 9.52-35.35 15.31-41.31 38.73-1.32 5.94-7.64 9.44-6.35 16.13-3.57.35-8.07 3.85-10.53.07-7.56-13.72-9.43-28.1-4.78-43.2 19.06-60.9 110.68-46.12 108.43 18.25.17 2.08-1 2.73-3.17 2.5 1.27-17.08-4-31.6-17-43 10.74 14.63-5.32 12.75-14 7.26-8.91-5.29-21.48-20.77-1.25-16.75-22.76-11.84-59.26.72-68.37 28.82l9-11.85.6.43-4.66 7.09.3.21 9.68-10.3.55.49-6.15 7.81.18.16q6.33-5.9 12.65-11.8l.49.52q-4.53 5.06-9.08 10.1l.36.31 12.71-10.84.57.61-10.15 9.12.85.9 10.47-8.49.51.57-6.48 6.91zm-190.87 83.8l4.21.58-4.85-2.21.19-.8 4.56.21-4.64-2.09.38-1 4.46.37.09-.29-4.15-1.6v-.69h4.67l.07-.51-4.12-1.46.18-1 5.55.41v-.23l-4.73-1.56v-.65h4.39l.07-.4-3.56-1.27c2.11-2.47 4.46-.15 6.64-1l-4.23-1.44-.08-.74 4.47-.46-2.53-1.14.11-.86 7.28 1-5-2 .08-.64 5.28.59.11-.26-3.13-1.36.11-.56 5.06.43-1.89-1.11v-.48l4.57.42-1.63-1.21c21.56-7.55 36.68 9.72 52.11 21.63l-6.44 1.74-1.83-6.2c-.35.37-.53.48-.52.57.93 6.06.93 6-5 7.44l-19.32 4.62c3-6.66-.06-13-6.22-15.9-12.15-4.69-21.43 10.82-10.77 20.18-6.31.93-12.44 5.26-18.19 1.12l.29-.83 3.44.51c-1.53-1.55-4.46-1.21-5.08-4.29l4.47 1 .1-.25-5.35-2.64.35-.81 4.38.56-5-2.62zm243.62-62.27l-2.21 3 2.51-1.39.77.42-1.7 3.78a20.45 20.45 0 0 0 2.1-1.44c1.49 2.24-.82 3.07-1.5 4.79l2.22-1.45.64.22-1.43 4.06 1.48-.68c1.16 7.81-12.59 6.49-17.38 8.78 5.89-27.52-35.73-18.77-17.45 4.28l-24.63 6.05-1.42-6.55v6.77l-4.46 1.07c-2.27-4.94 4.6-7.07 5-11.91 4-11.13 10.6-22.88 22.3-27.18 2.17-.34 4.06-2.47 6.08-3.79l.52.67-3.43 3.07.21.33 7.17-4.51.43.58-3.6 2.81.16.22 7.47-3.91.38.63-3.12 2.7 6.19-3 .37.62-2.73 2.33 5.6-2.15.39.8-5.09 3.46c3.22-.46 5.11-3.36 8.58-2.58l-3.94 2.74.13.31c2.63-1 3.88-2.33 7-1.64l-3.82 2.84 5.19-1.41.28.82-2.57 2 .16.35a7.67 7.67 0 0 1 4-1l-.61 1.86h3.01l-3.35 3.11.16.21 3.45-1.61z"/></g><path d="M584.17 280.54c11.59-8.33 10.37 24.37-3.3 31.9l-1.78-.08c.18-10.98-1.53-22.06 5.08-31.82z" stroke="#fff" stroke-width=".51" class="E G"/><path d="M610.25 182.44l1.46 4-.35.15-2.9-3.79-.3.17 1 3.82-.33.15-4.57-6-.35.16 1.84 5.77-.37.22-4-5.8 1.2 5.63-.42.17-4-6.26 1.5 7.1-.54.22-3.14-6.34-.32.1.91 6.08-.54.13-2.35-5.09-.37.06.25 5.78-.29.09-1.92-6.15h-.33v7.81l-.8.12-1.19-7.51-.65 7.87h-.49l-1-6.05-.84 8.07h-.41l-.85-5.59-1.35 6h-.45v-4c-4.23 7.64-3.32 16.27-4.66 24.44l-.92-.08c-.49-8.83 4.1-17-4.16-23.33 12.7 1.63 4.18-11.06 25.78-13 7-2 13.33 6.41 17.55 2.7.51-.47 1.41-.51 2.74-.95-.35 4.28-3.4 8.16.29 11.78-2.95-3.05-4.76-7-9.36-8.65zm-26.08 98.1c-6.61 9.76-4.9 20.84-5.08 31.82l1.78.08c-3.3 5.5-4.51 11.57-6.6 17.73 7.18 2.18 15 4.15 23.24 3.43-12.76 5-22-4.17-31.41-.09l3-2.61c-5-1.78-10.8-4.72-14.36.72 3 3.6 7.4 1.8 11.43 1.81-3.46 3.24-16.41 1.19-10.23-4.52 14-6.6 14.86 9.95 20.61-13.06l-3.13.48v.06c7.17-3.44.27-28.44 10.75-35.85zm118.55-68.61l-4.22-17.61c14.1-4.85 11.55 1.34 14.61 12.26.88 5.23-6.84 3.72-10.39 5.35zm7.45-4.61l-2.85-12.1-5.23 1.41c1 4.32 1.89 7.74 3 11.89zm9.04.8l-4.27-17.67c14.89-5.31 11.41.95 14.85 12.36.78 5.07-7.01 3.53-10.58 5.31zm7.72-4.87c-1.46-2.77-1-13.08-4.86-11.54-1.19.57-3.69-.21-3.26 2.24.63 3.55 1.68 7 2.59 10.66zm-210.73-6.67c-26.47-8.19-50.94 13.69-37.72 42-5.66-5.47-5.76-14.33-4.48-21.63 3.17-19.65 25.03-29.08 42.2-20.37zm-8.71 63.4l-4.29-17.11 2.76-.76 2 7.47 6-1.46-1.64-7.52 2.85-.86 4.39 17.43-2.84 1-2.07-7-5.9 1.37c.08 2.85 3.78 8.04-1.26 7.44zm164.58-96.05c16.56-27.47 59.8-22.59 56.31 13-1.72-35.22-36.88-36.27-56.31-13zm1.1 36.53l2.76-.66 1.62 6.11c2.92-2.07 1.26-7.87 6.89-8-4.63 7.31 1.05 10.63 4.33 16.91-4.39 3.27-5.54-5-8-7.37-3.23 3.11-1 6.33-.68 9.62l-2.51 1-4.41-17.61zm-137.67 45.7l1.7 6.84-3 .85-4.3-17.61c8.51-2.16 11.38-4.59 12.44 5.57 1.46 3.76-4.49 3.36-6.84 4.35zm-.51-3.12l4.42-1.23-1.27-4.3c-5.06.71-5.18.93-3.15 5.53zm26.28-63.35c3.94-1.54 7.61-2.25 10.77-5.33 15.2-12.82 32.81-11.05 51.29-9-19.62 2.66-31.29-3.69-50.12 10.32-3.38 2.37-6.8 4.78-11.94 4.01zm-63.93 64.41l.59 2.8-7.15 2 2.88 11.76 7.27-1.63.91 2.69c-3.41.26-8.28 4.11-10.62.63-2-11.26-9.07-16.04 6.12-18.25zm109.58-37.82l-10.51 3.53-1.1-9.8.54-.13 2.28 6.33.36-.08-1-7.26.46-.14 3.08 7.47.33-.1-1.44-7.66.39-.17 3.41 7.57.32-.11-1.54-7.41.39-.14 4.05 8.2zm86.36-23.81c1.69-11 15.31-1.4 8.62 1.24-2.78.1-9.02 3.95-8.62-1.24zm-247.45 63.89l-12.26 3-1.48-7.18c5-.37 9.16 1.27 13.74 4.18zm66.31-16.26c-2.76 0-10.11 4.55-10.37.35-.46-6.76 9.85-8.21 10.37-.35zm109.11 23.89c-2.83 9 .44 19-2.11 28l-.86-.06c-1.24-8.64.25-17.74.14-26.53.09-2.47.37-5 3-6.56.29 1.78-2.53 3.71-.17 5.15zm-96.74 1.93c.06-3.58-7.58-19.35-1.24-17.75l3.92 15.84c.49 2.08-1.18 1.8-2.68 1.91zm172.5-42.62l-3 .58-4.23-17.29 2.73-.9 4.5 17.61zm-23.55 90.84c9.58-1.64-1.08-8.1 1.45-12.9 1.94 5 8.76 9.32 1.89 13.38 4.72.81 8.75-.61 12.9-2.61-3.53 3.45-12.14 4.48-16.24 2.13zm-91.24-124.43c3.32-7.15 18.2-11 25.47-5.14-9.52-2.71-17.82-1.19-25.47 5.14zm57.81 19.03l-6.1 1.57c-5.47-11.5.42-9.04 6.1-1.57zm-66.55 16.07c.34-7.46 2-15.06-2.53-22 8.5 4.27 3.09 14.51 3.82 22zm142.06 176l6.11-2 .81.57-1.56 3.09 3.11 1.66-.31.93-6.18 1.93-.43-1 2.27-1.37-2.93-.49-.37-.74 2.32-1.38-2.68-.34-.16-.86zm-64.41-86c-.61 5.74 5 3.82 7.22.77-2 5.45-6.55 4.32-10.86 4 .23-3.94-.4-12.46 5.83-11-4.17-1.56-2.89 4.35-2.91 6.64zm-15.66-3c-.62 4.28 1.67 9.77-1.67 13.06l-.85-.43c.72-4.21-1.86-10.13 1.74-13.07zm-22.28-37.19c.19 2.55-.81 6.19 1.38 7.94-3.34 3.17-.32 7.38-1.78 10.85-1.79-1.26-2.01-16.5.4-18.79zm14.62 49.61c-5 7.14-4.54-2.44-4.39-6.26l-2 .54 3.94-5.14v12.05l.48.23 1.45-2zm-14.91-7.6v12.71c-5.09-.67-2.75-9.85-1.06-13.07zm110.86 96.52c3.94 2.94 2.48 5.67-1.86 5.48-1.72.25-3-.53-2.86-2.4.14-2.66 2.37-2.26 4.72-3.08zm-81.9-89.95c-3-3.81-.52-8.23-2-12.67 4.95-3.05 2.17 9.56 2.85 12.11zm-19.11-133.23c.2 1 .81 2.14.52 3-2.26 7.22 3.33 12.34 6.68 17.89l-.69.47c-4.85-7.54-10.61-11.69-7-21.11zm-10.06 294.52c-3.35-2.91-2.52-5.15.26-7.55.68-.48 2.48.62 4.37 1.19l-4.63 6.36zm53.78-180.3c.48 4.66-1 8.55.83 12.25-4.62 2.46-3.15-5.55-3.25-8.05.19-1.25 1.36-2.36 2.42-4.2zm56.3 124.09l-3.12-.44v-.83c2.08-1.16 4.35.29 6.48-.19l.48.85-2.87 2.37 2.44.86-.16 1-6.65-.45-.26-.78zM621.3 348.81c2.15.24 4.11 3.71 3.37 6.42l-1.9-2.37h-.63v3.57l-1 .15c-1-2-2.71-3.79-2.7-6.25l.92-.65 1.28 2.22.64-.18zm45.85-6.39l.73 3.24 2.27-2.66.72.34c-.56 2.23-.18 4.87-2.1 6.48-.58-1.33-.19-1.82-1-3.3l-2 2.59c-1.36-1.46-.58-5.53 1.38-6.69zm-75.18-28.78c-.92 7.32.07 9.1 5.12 9.55-6.53 4.33-9.84-4.38-5.12-9.55zm40.52 37.99l-2.07-6.69 4.46-1.17.37.74-2.38 1.76 2.41.55-2.27 2.45 3.75-.23.32 1zm59.22 8.31l-4.13-2.53 3.79-5.8 3.83 2.69-.47.84-3.18-1.09 1.53 2.48-3.38-.24 2.63 2.93zm30.42 71.92l1.48 2.83-.57.58c-1.68-2.31-3.77-2.53-6.21-1.05l-.29-1.08 3-2.06-2-1.3.33-1.05c1.93.58 10.06 2.08 4.26 3.13zm-45.23-79.57l2.63-6.42 4.25 1.93-.28.91-3-.43 1.56 2.15-3.31.43 3.08 2.17-.35.86zm31.35 24.4l-3.08-3.77 5.6-4.17 2.61 3.79-.62.63-2.56-1.95.44 2.85-3.18-1.64 1.58 3.68zm7.16 69.12l-.16-3.46-2.34 3.14-.85-.34c1.46-6.22 3.6-2.88 8.23-1.91l-2.21 4.45-.81-.19.38-3.18zm-122.4-71.33c2.33-6 3.94-.87 7.77.34l-3.88.47 1.87 2.16-.47.64zm63.85-30.96l-2.37-.76v3.68l2.3-.73.57.77c-6.63 7.07-6.61-10.57 0-3.75zm-90.34-126.93c-.59-4.07.12-6.28 2.4-7.49 1.84 3.86.81 7.09-2.4 7.49zm135.16 250.13l1.64-1.78c-2-.29-5 1.63-4.92-2.07 0-1.68 1.45-2.59 3.8-1.81l-2.53 2c2 .72 5.24-1.7 5.07 2.2 0 .77-1.57 1.47-2.41 2.21zm2.08-103.52l-1.35-1.21-1.44 4.65c-1.63.42-3-1.29-3.34-3l.87-.41 1.84 2.22c.62-2-2.05-5 1.76-5.23.82-.05 1.72 1.4 2.58 2.17zm-98.69-52.11c-.13 2.78-2.63 10.28 2.74 8.12l.32.71c-7.72 4.45-5.65-4.95-3.65-9.05z" class="C"/><path d="M651.13 304.81l-.72.38c0-2.29-1.26-8.2 2.91-6.64z" stroke="#fff" stroke-width=".51" class="E G"/><path d="M587.55 423.1l-6.14-1.41-.17-1 5.89-2.74.42 5.15zm-14.14-106.77c-7.45 3.64-17.41 2.54-22.28-2.39 6.85 4.34 14.64 3.32 22.32 2.45zm70.19 163.14l1.17 2.71 2.7-2.9-.87 7.56-1.84-3.44-2.54 2.68.84-6.94zm-46.53-30.89c1.15 1.42 2.08 2.08 2.29 2.92.36 1.47-2.44 4.11-4.26 3.83-4.47-2.05-.02-4.04 1.97-6.75zm-3.22 5l.66 1c1.19-1.22 4.44-1.65 3.2-3.78-1.3.88-3.39 1.09-3.86 2.74zm12.96 6.49c0 3.62-4.65 6.89-6.15 2.85-.2-2.72 4.21-5.67 6.15-2.85zm-.92 0c-2.39-.35-4.89 1.92-3.56 3.72 1.4-1.3 3.27-1.54 3.56-3.73zm-14.97-17.97l2.88-.81.27.83-6 2.67-.36-.66 2-1.61-3.42-1.49-.22-.91c3.11 1.57 5.08.77 5.74-2.76l.8.86-1.69 3.88zm22.31-80l-5.67-4.37 3.2-2.46 2.82 6.37zm100.58 93.19l-2.62.47.23 3.4c-6-6.69-6.55-8.24 2.22-4.46zm-119.24-70.35l-1.71 3.79-6.25-2.79 1.77-3.75.55.21-.54 3.07.6.27 1.78-1.56 1 3.7 2.2-3.43zm40.84 92.17l-2.17 6.54-3.83-1.22.11-.62h3.74l-2.08-2 3.37-1.5-3.44-1.62.17-.61zm-5-206.3c.08 6.25.37 6.74 3.84 6.85-4.62 3.81-7.21-2.85-3.84-6.85zm-5 9.93c-2.82-1.76-1.53-5.35-1.88-8.15 2.91-3.22 1.64 6.17 2.28 7.6zm-31.85-70.61l-.57-8.47c2.7 3.43 3.1 7.62.57 8.47zm32.7-7.72c-3.49-.87-3.63-5-4.64-8l5 7.05zm-19.27 3.94q-.83-3.82-1.63-7.64l.46-.19 3.74 7.92-2.64-.16zm51.94 280.1l-3.18.19 1.27-7.28 1.91 7.09zm-77.85-76.54l.48-4.33 1.76 3.32 1.23-1.54 3.49 3zm8.89-12.1h-7.14l1-4c.68 3.7 4.42 2 6.14 4zm-111.87-205h9.31v.61h-9.36zM590.69 298.2c1.8-5.52 2.11-11 0-16.56.5.78 1.41 1.55 1.43 2.34-.5 4.61 1.37 10.33-1.43 14.22zm.21-87.75v-7.18c2.29 3.54 2.35 6.82 0 7.18zm-115.6-13.34l7.36-1.89.27 1.25-7.52 1.34zm189.53 77.84l-.85 11.31c-1.35-2.35-1-8.43 1.23-11.16.03-.03.25.09-.38-.15zm-192.99-73.03l7.44-3.18.43 1-7.53 3zm73.64 99.25l2.91 9.89c-2.05-1.14-3.59-6.18-2.91-9.89zm66.51-95.47c-2.28-.15-3-1.53-2.94-5.81l2.94 5.81zm90.51-62.96l6.94-3.54.39.68-6.82 3.81zM509.18 55.16l2 13.28 2-2.17 1.53 4.74 1.89-2.65.66.31c-.68 2.4-2.85 4.66-5.19 3.16-4.25-4.37-2.58-11-3.26-16.55zm-48.91 57.76c3.3-2.49 2.73 1.26 4.9 2.67-7.37 6.13-7.23-9.34-5.62-13.62zm209.21-53.41l-3.58-7.88c3.59 3.1 5.38 7.86 2.71 12.18-1.67-1.09-3.17-1-4-3.17l2.63 1.7c-.16-1.53-1.3-3.66 2.24-2.83z" class="C"/><path d="M566.19 333.43c-4 0-8.41 1.79-11.43-1.81 3.56-5.44 9.39-2.5 14.36-.72l-2.93 2.53zm143.98-126.11l-5.06 1.2a299.01 299.01 0 0 1-3-11.89l5.23-1.41 2.83 12.1zm16.76-4.07l-5.52 1.36c-.91-3.64-2-7.11-2.59-10.66-.43-2.45 2.07-1.67 3.26-2.24 3.87-1.54 3.39 8.76 4.85 11.54zm-191.94 39.79c-2-4.6-1.91-4.82 3.14-5.57l1.28 4.34zm58.86 210.5c.47-1.65 2.59-1.86 3.86-2.79 1.24 2.13-2 2.56-3.2 3.78zm12.04 6.52c-.29 2.19-2.17 2.43-3.56 3.72-1.33-1.8 1.17-4.07 3.56-3.72z" class="E"/><path d="M316.82 500.02H59.59l.68-445-1-.26c.73-4.19.23-8.55.37-12.82h298.22v414.47"/><path d="M202.41 461.13l-11.87 20.4c-1.6-2.13 2.54-4.61 1.49-6.19 3.08-1.86.75-6.44 3.13-9a6.13 6.13 0 0 0 1.38-4.87 6.65 6.65 0 0 1-3.55 4.17c-2.6 2.88-4.45 7.44-7 10.66l-.43-.26c3.94-5.81 4.47-12.75 7.79-18.79l-11.55 17h-.18l.67-2.22-.46-.22c-1.44 3.19-4.67 5-6.26 8.08l-.4-.24 17.47-30.37c13.81-22.76 30.27-47.23 43.81-71.27 3.9-7.39 17.49-25.21 21.7-8.38.12 15.12-5.8 29.55-8.85 44.22-6 21.66-11.31 43.94-18.83 64.94.7-8 3.44-15.58 4.59-23.5l-6.3 20.3-.6-.06-.17-2.83-.61-.1-3.51 15h-.14v-5.9l-4.44 8-.78-.28c2.06-9.4 7.16-18.05 8.57-27.57-4.37 12.36-8.51 24.82-15.25 36.79 1.22-7.22 3.39-14.08 3.14-21.63q-3.47 8.26-6.94 16.55l-.54-.22a109.48 109.48 0 0 0 4.52-12c.71-2.08 1.34-2.09-1.34-2.56-5.87 5.84-7.42 14.57-11.92 21.43h-1.1l1.57-7.12-1 .38c-1.53-2.59.37-4.72 1.21-6.79 5.66-13.27 11.68-26.32 16.67-39.87-2 4.45-10.15 12.17-7.9 16.68-.25 0-.6.21-.72.1-1.26-1.29-3 2.15-3.13 3 0 1.44-.65 1.77-1.74 2.48-1.7 1.78-2 4.35-3.78 6.61.64-2.91 1.37-5.28.78-7.62 1.73-1.82 2.13-4.4 2.74-6.77 2-.4 1.84-2.17 2.32-3.54a52.67 52.67 0 0 0 4-9.35c-2.56 2.74-3.35 7-5.38 9.83 1.22.9-.81 1.64-.88 2.9zm114.41 38.89c-4.43-35.14-3.85-70.74-7.6-105.87-.68-8-5.37-38.52 9.54-32.66 8.85 6.21 9.58 18.33 15.32 26.85 6.76 24.05 19.61 47.44 23.78 72.1l-4.88-11.49c.12 6.24 5.07 12.07 4.88 18.46l-1-.9c-.64 1.64.13 2.93 1 4.19v13.2c-3.34-8.4-4.93-17.31-8-25.78 2.21 12.46 6.51 24.55 8 37.14-2.51-2.8-2.67-6.85-4.29-10.16-1.18-2.45-3.27-4.46-3.9-7.21l-.54.26-1-2h-.17q1.93 9 3.88 17.93l-.41.09q-2.1-7.95-4.19-15.89c-.25 1.08-.35 2-1.56 1.48-2.43 6.51 1.22 13.54 1.93 20.22h-5.13c-4.05-16.27-6.71-32.82-10.93-49.08h-.14l2.94 38.39h-.07l-1.5-8.55c-.63.23-.42.63-.85.64-.2-3-1.81-5.6-2.56-8.44-.61-5.48-.55-11.13-3.42-16.09 1 3.12-.28 6.75 2.2 9.61-1.67 1.07-1.82 2.39-.43 3.7l-.18-1.6c2.74 8.12 1.93 18.73 3.44 27.67-2-4.06-1.77-8.4-3.41-12.49-.71-1.68.95-4.93-1-5.58 1.21-4.45-.31-9.55-1-14.11l-.51.12 2.49 24.9-.71.1-.78-5h.17l.32.8.38-.12-1.77-6.91c-3.93 4-.6 11.88-1.22 17.2h-.51l-.51-11.69h-.13l-.17 2.5-1.83-5.54h-.29v5.32h-.44l-.65-12.8h-.32v20.1l-.6-2h-.28l-.61 9zM281.79 71.86l1.25-3 .2 1h.23l-.57-4.81-.74 5c-1.14-7.57-2.33-14.07-1.6-21.36h.61c-.17 6.78 5.6 23.1 2.42 27.63h1.92c-.29.83-1.57.94-1.34 2.25.53 3.08.84 6.19 1.24 9.28.65-9.09-.62-17.92.19-27.14l.13.76h.54l.17-3.54h.25l.94 9.74.47-1.33 3.32 22c1.88-15.21-.91-31 .12-46.27h4.76c1.83 4.68-.62 10.15 1.25 14.93l.95-.62v2.32l2.64 1.66V44.4h.52c.91 2.74-1.54 16.24 1.65 15.77 1.22-6.16 3.36-11.8 3.25-18.18h.73c1.76 12.68.42 25.35.86 38.1q.83-14.07 1.66-28.12l.72-.14c1 3.14 1.05 6.32 1.25 9.58l2.23-5.51h.26q-1.16 7.51-2.32 15l.39.2a7.34 7.34 0 0 0 1.3-2.66l.68.09q-.81 10.83-1.63 21.66h.25q2.14-12 3.71-24.09l.85.09c-3.6 35.37-6 71.13-12.88 106-1 5.48-5.84 13.27-12.23 8.88-5.9-5-5.19-15.29-8.36-22.07-3-37.44-14.55-76.22-17.58-114.53l1.37 5.91.52-1.74 1.13 5.9h.34l.17-1.95.32-.07q2.34 10.62 4.69 21.24h.16c-1-8.05.61-16.19-.95-24.15l1.48 5.75 1.1.27c-1.44 3.24.68 6.26.64 9.45l.32-.87.41-.1 1.37 5.36c.93-4.81-.14-10.24-1.11-15.05l.72-.08v4.08h.19l.27-1.73c1.37 7.44 2 15 3 22.46l.55-.06a8.31 8.31 0 0 0-.06-2.87c-.62-1.41.4-3.27-1.29-4.36z" class="D"/><path d="M248.3 500.02c5.83-29.87 12.12-59.66 20.1-89 3.84-15.44 3.66-33.18 13.53-46.16 15.8-4.11 12.38 28.31 14.89 38 2.09 26.19 3.39 52.7 3.83 78.79l-1.51-2.4c.58-7.55-1.36-14.91-1.56-22.38v22.37l-.38.12-1.17-3-.57.13q.76 7.71 1.54 15.42l-.22.06-1.77-5.56-1.77 9.13h-.65l-.32-29.51h-.66c.07 11.35-.42 22.67-1.17 34h-1.84c.44-4.85-2.6-9.09-2.41-13.91l-.34 1.06-.21-.05v-3.26h-.52q-.45 8.1-.91 16.2h-.74v-12.83l-1.87.91-.47 2.35-.64-.69c-1.65 2.9-.78 6.9-1.41 10.21h-5.5l3.22-44.23c-2.38 5.87-3 12.52-3.74 18.77a26.19 26.19 0 0 0-2.89 9.73l-1.72.26c-1.08-7.17 2.25-14 1.11-21 0-1.22.37-2.47.51-3.7-1.22 3.85-2.28 7.5-2 11.57-2.07-.79-.38-3.2-1.32-4.89l-3.51 17.78c-1.42-1.91 1.21-4.1-.87-6.13l-1 2.56-.25-.06.35-2.65h-.06l-4.17 16.6-.53-.14 2.06-7.59-1.05.9a17.16 17.16 0 0 0-.18-8.15c.38-2.57 1.13-5.19 1.62-7.77l-.37-.08-5.9 21.19-.33-2.47c-.59 3.82-3.22 5.94-3.48 9.52zM213.12 41.98c.1.76-.07 1.71.32 2.26 5.12 7 6.69 15.42 10.81 22.91l.79-.7 1 1.66 2.55.45-4.75-14.52.36-.14q3.17 8.35 6.34 16.7h.23c0-7.32-1.27-14.41-2.67-21.58 6.19 11.74 10 24.36 14.23 36.88-1.81-9.55-6.41-18.54-7.89-28l.6-.26 4 7.62a42.07 42.07 0 0 0 .71-4.59q1.49 7.22 3 14.43h.48l.49-2.78.38-.15q2.86 10.4 5.75 20.78c-1-8.07-3.27-15.93-4.16-24l.62-.12 12.19 47.5 7.43 32.25a2.74 2.74 0 0 0 1.8 2.16l-1.29 1c.86 8.71 11.39 39.32-6.88 32.72-4.44-3-6.76-7.74-10.06-11.74-.51-.71-1.89-1-1.08-2.42-17.71-35.33-40.8-68.3-57.4-104.25l6.58 8.63-.61-2.6.26-.1 10.82 17.3.35-.14c-.88-2.68-3.09-4.52-3.08-7.66-.14-1.81-1.87-3.59-1.75-5.3.22-2.84-2.38-4-2.4-6.58l7.42 12.48v-1.06c2.07 1.19 2.31 3.6 3.48 5.37l.43-.2-3.18-8.54.43-.19 7.18 13.64h.38l-.13-1.63.93-1.51c.15 3.74 2.48 6.33 4.06 9.24-.33-3.9-3.18-11.84-6.14-14.35a81.57 81.57 0 0 0-1.65-8.17c7.62 6.11 10.29 18.17 16.25 26-4.89-14.87-11.4-28.58-16.24-43.24-.52-1.4-1.79-2.64-.22-4.18l1.46.66-3.62-11.94zm144.74 95.27c-8.2 15.05-14.22 32-26 44.73-14.94 6.36-10.16-18-8.8-25.83 7.71-37.35 10.7-76.11 19.76-113v10.66h.23l.64-2.36.34.07-2.37 20.38.38.07c.72-4.74 2.85-9.15 4.72-13.51l.28 1.44 1-7.64.55.07-2.13 14.87h.24l.28-1.46h.28c.21 1 .81 2.68.56 2.82-1.59.87-.46 2.55-1.34 3.44l.75.32 2.42-8.52.66.15-3.33 16.9.35.14 1.31-3.58h.4c1.23 3.49-2.21 7.47-1.84 11.2 1.59-4.62 4.88-9 4-14.12l-.05.05c2.47-2.6 2.58-6.52 4.11-10 .5.8.66 1.42 1.39 1.55l-4.86 29 6-16.53zm0 266.4c-6.63-14.1-16.53-26.69-21.35-41.61-4.29-19.07 15-10.07 21.35-1.27z" class="B"/><path d="M59.22 54.81l1 .26-.68 445-.32-445.26zm.37-12.83c-.2 4.13.46 8.41-.37 12.46.26-4.11-.55-8.51.37-12.46z" class="C"/><path d="M131.79 161.47c-.49-2-3.15-2.5-4.45-4.16l7.3 3.62.27-.46c-.61-.65-1.53-1.2-1.76-2-2.52-4.46-8.53-5.26-11.37-9.55 5.75 5 13.59 5 19.38 9.74l.26-.4-16.91-12.34.15-.29 1.87.61.15-.22-7.6-6.77.12-.22c32.06 19 61.89 41.45 93.45 61.07a183.93 183.93 0 0 1 17 12.76c3.33 2.92 4.63 6.36 2.52 10-4.05 5.92-12.93 2.39-18.74 1.44a2.66 2.66 0 0 0-1.93.48c-2.44 2.13-2.09-3.72-4.93-1.65-29.64-9.5-59.46-18.18-88.83-28.66 5.1-.9 16.8 4.47 23.11 5.35-6.43-2.88-13.33-4.56-19.77-7.4l.18-.52 3.18.15.11-.61-15.14-4.17h5.82l-7.82-4.67.33-.73c9.17 2.6 17.74 7.37 27 9.55-12-5-24.32-9.17-35.26-16.33l.2-.51c6.85 3 14.15 3.88 21.54 4.58l-16-7.45.15-.35 13.52 5.55c.15-5.75-6.42-7.15-10.76-9-4.74-3.08-9.43-6.66-14.71-8.82 4.2.32 7.7 2.18 11.8 3.89l-.64-1.67c4-2.51 26.36 13.42 26.92 9.67l.28 1.74 17.76 8.09.17-.29c-3.28-3-25-13.89-23.19-17.24 2.25.61 4.34 2.34 6.7 1.78l3.36 1.89c.69 2 9.64 5.53 11.79 5.66a65.3 65.3 0 0 1-8.15-5.27l4.36 1.4c-3.34-2.29-9.07-7.13-12.84-7.33zm12.06 265.22l-3.08 2.18c1.09-2.6 4-3.63 5.07-6.64-1.33 1-2.24 2-3.37 2.34-5.13 1.28-8.08 7-12.85 8.09l5.92-4.34-1.55.18c4.15-3.16 5.53-8.58 10.39-10.89l-.42-.43-17.26 12.54 2-2.66-9.59 5.75-.18-.17c32.72-28.6 67.12-55.32 101.31-82.1 4.79-4.11 16.07-3.86 14.27 4.7-.77 7.85-7.17 13.38-9.78 20.38q-25.87 37.79-52.82 74.79l-.84-.75c2.24-3 3-6.38 5.67-8.81l-1.05-.59-5.56 7.3-1.41-1.18-6 9-.28-.08 1.5-4.59-.23-.19c-2.12 2.2-3.27 4.79-6.77 5.6 1.77-4.19 6.09-7.55 8.44-11.69l-.37-.33-8.8 9.78.42.84c-.22.11-.58.36-.66.29-1.06-1.26-6.63 6.08-8.24 7.08l-.53-.48c4.9-5.77 7.86-12.37 10.94-19.31l-12.82 14.1-.33-.29 9.93-11.79-1.83-1.3-1.68 1.43-.81-.87c-6.05 6.35-12.18 12.35-18.65 18.21l-.55-.52 6.29-8.57-1.55.35c-.43-4.72 10.39-12.55 13.1-16.66l.14-2.5 2.16.51 17.44-19.28-.14-.22-25.13 20.74c-.28-1.55 2.26-1.4.7-2.82a1.11 1.11 0 0 1 .22-.42c4.41-6.52 11.21-10.75 15.06-17.45a70.56 70.56 0 0 1-7.35 5.9c.72-1 1.43-2 2.14-3.07-4.02 2.41-7.07 5.95-10.63 8.91z" class="B"/><g class="D"><path d="M168.28 99.29c2.5.83 3.15 3.51 5.2 4.71.18-5.35-5-9.36-7.09-14l.61-.35c1 1.3 1.95 5.09 3.81 4.87 1 1.07 1.36 3.05 3.5 2.44 2 2.62 4.38 5.41 6.51 8.09l.18-.12-10.68-17.29.34-.24 1.19 1.42.37-.18a55.64 55.64 0 0 1-4.48-9.39c7.18 8.08 12 17.7 19.49 25.42-.7 1.93 1.48 3.15 2.53 4.75l15.41 22.23c4.12 6.87 9.63 13.14 13.11 20.26a1.87 1.87 0 0 0 2.4.84l-.85 1.67 1.59.82c0 1.68 6.19 9.63 7.5 9.9 3.32 8.76 15.1 17.33 10.27 27.1-2.47 3.17-6.43 2.9-9.57 1.32-30.23-17.59-57.07-41.56-83.68-64 6.66 3.59 12.26 8.7 18.75 12.56l-11.41-9.79c-.43-.05-2.06 1.71-1.17-.77-.34-.91-3.67-2.11-2-3.57l2.41 1.9.52-.66-11.19-8.16.09-.28 4 1.39-4.86-6.68.6-.57 20.13 17.79.37-.44c-8.68-8.66-19.14-15.87-25.33-26.56 5.13 5.16 11.73 7.88 18 11.21l-12.61-12.84.41-.4 11.23 10.69c-.4-1.28-.56-2.22.66-2.18-1.8-6.76-8.63-11.09-12.75-16.43l-.86.22c-.16-3.4-2.93-5-4.42-7.83l9.83 8.21.33-1.14c4.08.38 6.58 5.74 9.91 8.06 7.69 8.55 15.85 16.67 23.53 25.24l.49-.41a193.55 193.55 0 0 1-16.49-23.49c2.68-2 4.43 4.32 7.3 4l.42.42c1.33 3.72 5.17 7.82 9.44 10.35-1-2-6.21-6.18-4.68-7.46l-.06.05 2.51 2.38c-2.42-3.48-4.25-7.73-7.61-10.16l.67 2.63h-.31c-5.46-3.95-8.52-10.65-12.93-15.79 3.56 1.68 6.54 8 9.54 8.2zm-21.35 286.6l.73-3.19.63 1.08 7-6.55-.14-.18-1.07.6-.19-.23 1.65-1.75c-8.41 4.54-16.19 10.22-25.14 13.7l-.45-.73c7.87-6 16.5-11 24.06-17.45-11.19 7.4-22 15.37-34.44 20.71l-.31-.34c12-10.61 26.3-18.35 38.65-28.56l-.38-.51-37.77 23-.26-.41c12.13-8.42 24.9-16 36.61-25l-.37-.52c-18.41 9.56-36.26 21.67-55.38 29q18.25-12.22 37.36-23l-.22-.4-18.87 9.54-.28-.22c7.89-6.46 18-10.69 26.64-16.46 1.52-.89 1.19-2.65 2-4-5.09 2.79-10.66 4.66-15.34 8.43-1.66-1.48-3.05.79-4.71 1.23a13.53 13.53 0 0 0-2.83 1.5l-.4-.29c5.13-7.51 15.19-8.32 22.38-12.77-5.52-.28-10.73 2.54-15.29 5.54l-.31-.35.9-2.39c2.85.7 3.88-2.44 6.31-2.89l-.23-.46-10 4.59.86 1.59c-5.59 4.09-12.25 6-18.22 9.21l-.29-.49c5.11-3.82 11-6.54 16.55-9.17 2.2-3.4 6.62-3.6 9.62-6l-.36-.67-6.41 3.29-.14-.29 1-.54c-2.16.42-3.91 2.1-6.62 1.62l19.95-9.07-.18-.64-3.72.41-.08-.17 1.75-.73-.88-.44 2.23-1-.12-.26-33.1 12.13-.18-.3 2.18-1.6-10.4 2.6-.13-.24c37.14-17.84 76.54-30.8 114.22-47.48-.53-1.63.6-2.39 1-.44 4.08-1.56 8.54-1.3 12.49-3.31l.42 1.63c17.33 8.87-24 34-30.46 41.21-16.81 13.44-33.77 26.7-51.26 39.22z"/><path d="M124.8 229.55l-5.33-1.57 1.63-.53-1.85-1 .62-.31-2.21-.86.12-.49 21.63 4.34.15-.47-2.88-1.8.09-.46 8.74 1.36v-.1l-39.71-11v-.46l2.47.2.11-.38-8.22-2.21.05-.3 2.63.34v-.28l-4.21-1.21.1-.43c28.87 6 57.78 12.35 86.08 20.57 11.74 4 42.84 5.6 48.17 16.68a6.64 6.64 0 0 1-5.43 8.2c-1.33.18-2.09.55-2.24 2.2-2.23-2.37-7.72.57-10.8.41-22.44 3.45-45.91 1.46-68.08 4.52-9.35-1.72-19.37 1.21-28.5-1l7.31-.72-1.94-.37 6.91-.72-2.17-.75 6-.72c-10.57-1.17-22.28.13-31.37-4.11h16.59v-.47c-8.9-1.15-18-1.06-26.74-3l.06-.48c17.43-1 34.85.07 52.3-.2v-.63l-49.79-3.95v-.56c14.58 1 29.19 1.05 43.78 1.8 1.16.11 2.07.24 2.86-.85-21-2.81-42.1-4.62-62.94-8.41l.1-.87 43.76 3.2v-.17l-22.51-3.58v-.27c12.34-1.08 24.08 3.67 36.58 1.59l-1.21-.71 1.27-.33v-.27l-26.94-4.62.09-.78c.92 1.32 2-.48 3 .66.17 0 1.06-.24.65-.76a6.41 6.41 0 0 1 2.8.06c3.32-1.55 11 1.47 14.85 2.17l-.36.88c2.21-.09 4.83 1.23 6.64.16-5.17-3.07-10.47-3.84-16.27-5l3.45-.7c1.56 1.44 4.45.29 6.51.64v-.38z"/></g><path d="M114.41 292.81c1.06-2.06 9.19-1.62 11.88-2.6l-.11-1.23-3.54.51 1.46.28c-1.36.78-4.19.37-6.07.45l1-.32-.08-.35c-2.29.45-4 1.94-6 0l21.32-2.64.05-.67-3.29-.9c3-.41 6.36.14 9.08-.95l-.41-.07h0l.2-.92-40.72 2.29-.08-.41 2.14-.59v-.26h-7.1v-.19l2.5-.17v-.26h-5.41v-.3c22.26-3.7 45.53-3.69 67.46-7.58 12.19 1.29 24.84-1 37.1-2.37 8.93-.74 45.52-6.64 31.6 11.61-9.07 7-20 10.28-30.15 15.31l.91 1.15c.1.56-1.24.41-1.25.38-.53-1.59-1.5-1.07-2.54-.65-22.59 9.16-45.18 18.14-68.59 25.09.26-.31.46-.77.8-.91 4.19-1.21 7.68-4.23 11-6.84-9.24 2-18.95 5.72-28.61 5.87l-.18-.68c2.81-1 6-1.23 8.42-3.13a177.19 177.19 0 0 0 23.11-7.47c-7.36 1.25-14.73 4.5-22.08 6.49-.4.12-.66.68-1 1-6.51-.13-12.83 2.6-19.34 3 4.23-2.6 9.63-2.64 13.31-5.73 7.24-2.1 16.09-3.7 21.88-7.18 4.43-.43 8.3-2.72 12.34-4.54-15.4 3.74-30.57 8.42-46.15 11.36 14.85-4.54 29.91-8.4 44.43-14-21 3.57-41.58 9.19-62.8 11.63 13.72-5 28.11-7.55 42.25-11.12l-.15-.59-20.81 3.62-.17-.65c6.94-3.61 31.53-4.65 33.19-10.75l-26.41 4.15-.06-.32c.93-1.16 3.25.39 2.89-1.93l3.19-.63-.74-.47a47.2 47.2 0 0 1 15.75-1.41c-.09-.15-.18-.29-.09-.14 2.29-.55 4.58-.82 6.88-1.32-5.93-1.14-12.25-1.33-17.88.53l-.49-.84 9.27-2.56-.1-.46c-4.29 1-8.62 1.68-13 2.25z" class="B"/><path d="M307.58 275.34c-2.21 8-5.68 15.79-6.22 24.07a23.11 23.11 0 0 0-2 4c-.35 2-1.87 1.42-3.28 2.05-2.63-1.66-1.77-3.87-.89-6.05 2.55-9.41 5.23-18.78 8.6-28 11-34.22 11.76-17 10.41 6l.48.16a161.53 161.53 0 0 0 7.63-22c.17-1.45 1-3.3 2.8-2.81 4.75 2.77-3.87 19.19-4.63 24.11-3 9.34-4.72 19.37-7.89 28.44-.6-.45-1.77 1.16-2-.56a.39.39 0 0 0-.28-.25c-2.2.81-1.87-.76-1.9-2-.39-9.06.1-18.07-.83-27.16zm-12.08 26.25l.72.21 7-24.64-.53-.16q-3.58 12.3-7.19 24.59zm4.69-54.42c2.52-14.33 6.74-28.15 9.15-42.51-.94-.15-1.12-.78-.68-1.35 2.62.11 1.43-7.26 3.32-8.59 4.51-2.65 5.75-.18 10.05.56 1.16 8.22-.46 16-4.26 23.56 5.66 3.37-1.75 18.15-2.09 23.87.58.79 1.67.84 2.5 1.31-4.06 5.94-10 5.63-7.82-2.63.28-6.73 6.43-15.76 1.44-21.4 0 2.26-1.9 4 .1 5.82-3.4 1.55-3.78 11.79-5.16 15.51-.72 3.47-.33 4.95-4.42 7l-.25-1.65zm15.22-49.36c-1.07 6.24-3.27 12.16-3 18.47 2 .11 2.33-.09 2.88-2.67.12-4.6 5.12-12.91.12-15.8zm-37.37 90.06l1.07.58-.1.36-1.36-.16c-.05 2.31-1.74 4.37-1.19 6.51a55.63 55.63 0 0 0-3.09 8.91c-.42 1.72-2 1-2.85 1.6-.6-.95-2.5-.88-2.07-2.66 1.55-8.5 4.49-15.77 7-24.1-2.1.79-6-.3-6.21 2.54-2.05 5.13-3.39 23.57-10.54 21.95 2-12.88 6.8-24.92 10.3-37.4l-1.45.21-.24-.5c1-.88 2.38-.18 2.74-1.79 1.79-3.08 1.72-9.9 6.06-10 2.05 4.1-3.87 15.32-4.83 20.46 1.62.9 6 1.48 6.36-.61 2.34-3.65 5.23-21.4 10.12-19zm65.37-15.06c-6.85-.14-1.39-9.88-.7-13.68.42-1.16-.26-1.54-1.19-1.7-3.24-.56-5.46 3.63-5.92 6.47l1 1.18-1.77.37c-1.53 5.32-3.79 11.35-5.5 16.76 1.31 2 .15 3.78-.34 5.69-.74 2.91-1.15 5.9-1.71 8.86 6.21 2.58 8.52-7.1 9.68-11.72-1.68-.36-3.41 1.49-5.07 0 .74-3.12 4.21-5.53 7.3-4.43 2.45 1.63-.5 18.59-1.1 22.22l-2.48.22-1.37-4.85c-5.73 5.67-5.4 4.85-12.79 2.84 1.4-15.65 5.32-35.75 16.69-47.16a4.26 4.26 0 0 1 4.61-1.13c9.95 1.57 1.51 14.17.66 20.06zm-17.45 11.2c-1.06 2-2.74 3.73-1.81 6.21l1.82-6.18zm-50.15-89.9c.72 11.64-1.81 22.19-1.54 33.7 2.44-5.63 7-34.2 12.52-33.75 1 0 1.18.5.92 1.47-2.87 10.25-5.25 20.66-8.8 30.71-1.66 2.86-6.76 27.89-11.11 18.33-.25-15.07 2.57-30.07 3.23-45.14-.08-4.35 1.74-3.08 4.78-5.32zm7.1 52.99c-.19-1.94-1.6-3.64-.78-5.78 2.79-8.6 4.22-17.62 6.52-26.37.77-4.55 3.69-9.13 2.46-13.62 2-.23 1.57-2 1.82-3.15.93-6.16 9.39-5 13.59-3.78.48 1.25-.45 2.78-.78 4.41-2.66.48-6.8-1.19-8.63 1.05-.78 5.2-2.13 10.51-2.5 15.67 2 .56 6.09-.27 5.71 2.84-.69 3.53-4.44 2-6.91 2.5-3.09 6-2.91 13.44-6 19.74 2.51.62 8.26-1.44 8.94 1.26.15 2.61-.89 3.72-3.56 3.87-3.38.36-6.7.16-9.88 1.36zm50.38-53.39c2.64 5.23.86 11 1.85 16.68 2.73-4.79 5-16.75 11-17.85-1.78 11.72-10.92 22.36-10.65 34.44-2 3.72-4.95 24.12-10.1 20.75.35-9.19 4.73-18.2 6.18-27.35a125 125 0 0 1-1.56-21.52c-.6-3.12-.21-4.95 3.28-5.15zm-87.2 53.35c-2.79-7.2 3.07-21.57 3.61-29.94l-.86-.44c3.28-4.62.6-13.86 4.08-17.42 1.17-1.54 2.7-3.64 4.68-3.77 2.78.68 7.38-.75 7.19 3.42 1 5.2-5.19 2.59-8.37 3.47a103.89 103.89 0 0 1-2.27 14.83c4.38-1.39 7.05-.86 5.61 4.32-3.86 1.63-7.26-.34-7.31 5.42l1.33.58-1.5.95-1.9 12.11c2.68.39 6.75-1.32 7.31 2.27.24 1.52-1 2.14-2 2.43-3.13.7-6.47.88-9.6 1.77zm8.94 32.5a11.61 11.61 0 0 1 1.58.77c-.05 1.09-.71.61-1.75.37-2 8.31-2.72 18-8.36 24.6-7-1.49 1.18-10.59-2.14-12.2-.17 0 .07-1.51.12-2.31h.63l.58 1.68.47.1c2.5-11.33 7.12-21.91 11.27-32.93l-5 .23c.88-3.31.45-5.6 5.14-5.7 4.42 0 8.61-1.1 12.93.45-.39.56-.61.72-.61.89-.07 3.57-3.23 3.48-5.33 3.92-5.15 1.49-6.85 15.5-9.53 20.13zm1.18 61.47c-2.89-1.29-2.93-1.3-2.42-3.89.8-4.09 1.66-8.17 2.15-12.38l-6 16-2-.24 2.58-19.32-.42-.1c-1 1.9-5.2 24.85-7.62 18.56 2.07-9.84 5.59-19.32 8.07-29.06.89-1.1 1.83 1.53 2.25 1.92l-1.7 17c3.52-6 4.24-13.45 9.2-18.43 3.26 3.26-3.08 24.37-4.09 29.94zm27.46-36.08l-2.11.21c5.18-16.86 11.35-33.42 16.16-50.4.41-1.53 1.54-1.23 2.42-1.12.37 0 .95 1.18.87 1.72-1.62 10-4.91 19.61-8 29.22-1.98 3.48-3.74 24.53-9.34 20.37zm22.54 36.12l2.94-13.94-.41-.35c-3.85 3.67-2.82 12.12-7.87 14.27-1.62-2.81.84-5.39 1.65-8.08 1-6.19 4.17-11.91 7.1-17.55.52-5.49 8.74-1.7 8 1.75-2.87 11.81-5.51 5.75-6.62 13.91-1.19 3.51-.46 8.29-3.92 10.45zm6.11-16.63c.46-2.64 2.24-5.59 1.87-8.16-2.48-.61-2.41 3.6-3.59 5.15h.13l-1.82 3zm9.84-1.73l-1.71-.52c1.73-.47 1.3-1.8 1.51-2.8 2.24-14.49 16.2-3.74 7.26.85v-5.57l-.71-.12c-5.29 5.84-.6 15.88-4.41 23.11-.42 3.16-8.52 5.18-9.28 1.82-.61-3-.45-7.33 3.75-7.15l-1.43 4.71c5.83 2.48 3.82-10.96 5.02-14.33zm-48.17-10.07c-1.55 8.38-3.27 17-5.17 25.44-.1 1.52-1.25 1.8-2.53 2-.73-2.75.73-5.58 1-8.35-5.42 0-3.41 8-7.7 8.51-2.55-2.68 8.47-18.71 9.83-23.17 1.23-1.81 1.45-5.62 4.57-4.43zm-4.7 9.59l-3.61 7.49.86.4c2.65-1.87 2.2-5.1 2.75-7.89z" class="C"/><path d="M88.16 467.1c1.55 6.62-6.44 15.34-11.53 7.45-7.86-13.7 9.24-28.79 12-7.57z" fill="#faad5c"/><g class="C"><path d="M300.88 325.86l-.26 1.76c-1.24.34-3.19.27-4.17 1.07l-3.14 9.22c5.08 2.28.62 2.69-2 3.46-5.36 1.44 6.87-22.95 7.14-26.32 1-2.22 4.37-.91 6.33-1.52 1.62 4.88-3.08 1.18-4.17 4.17-.84 2.69-1.9 5.31-2.95 8.16zm-28.82 15.71c1.13-9.55 5.74-17.57 7.88-26.9l-4.13-.86c1.12-2.05 4.49-2.42 10.05-1-7.18 4.43-7.13 26.88-13.8 28.76zM101.41 100.58c-4.45 2.77-5-.5-5.51-4.41-.81 1.28-.19 3.78-2.53 4.74-2.49-5.4 1.47-11.34 1.85-17a1.82 1.82 0 0 1 1.65-.93c1.26.26 2.94-1.29 3.73.35.82 2.82-.73 6.51-2 9 .23 3.18-.99 7.01 2.81 8.25zm-3.29-16l-.78-.12-.83 5.93.65.1zm196.6 228.28l.31 1.73c-.33.21-.7.64-1 .61-3.49-.26-3.32 2.95-3.73 4.69-1 3.06-4.21 6.82-3 9.94a109 109 0 0 0-3.89 10.56c-.8 2.58-3.38 1.13-2.72-1.12 2.28-7.26 5-14.4 7.47-21.6.91-2.52 1-2.51-1.55-3.43.68-1.8 1.55-1.52 8.11-1.38zM95.87 66.54c-1 2.41.29 10.18-3.21 9.8 1-5.72.2-12.81 3.62-17.5 2.65 2.38 1.19 6.53 2.68 9.53 1.06-2.23-.09-10.06 3.13-9.43a99.26 99.26 0 0 1-2.3 17.25c-4 2.64-2.78-7.45-3.57-9.63zm-9.71 32.15h1.45c1.69-5.08.67-12 4.28-16 1.47 3.77-.82 8.29-.93 12.32 0 4.36-2.49 7.89-6.72 5.14-2.87-4.83.81-10.83 1.38-16 .07-1.07 1-1.27 1.83-1.54.64 5.2-1.53 10.66-1.29 16.08zm25.14 1.12l-2.39 1.21c-3.69-1.83-.76-4.61-1.7-8.05h-.9l-1.6 8c-2.15-.93-.65-18.9 1.74-18.49 6.23-1.65 4.37 3.66 4 7.45-1.16 2.35-1.1 4.88-1.33 7.43-.34 2.09-.02 2.61 2.18 2.45zm-5.13-9.26c3.24-.69 1.73-4 2.7-6.8-3.17 1.77-1.25 4.53-2.7 6.83zM83.41 75.59c-4.89 2.71-3.54-4.21-3.39-7.15h-.46c-.81 2.81-.38 6.22-2.61 8.37-2-4.92 1.77-11 1.64-16.3.18-2.15 1.57-2 3.09-2 3.79-.33 2.37 5.34 1.47 7.21-1.87 2.57-.27 5.38-1.15 8-.12.28.81 1.09 1.41 1.87zm-1.45-15.48l-.55-.3c-1.72 1.6-1.2 4.54-1.15 6.72l.36-.06z"/><path d="M333.02 335.49c3.12-20 16.49-38.53 4.28-3.81-.6 1.74-1.13 3.83-4.28 3.81zM82.32 95.35c-.85 4.12-2.83 5.79-7.11 4.41-2.52-3.35.7-8.51.91-12.4.88-6.92 10.62-6.32 6.45.63-2.12.88-1.4-2.26-1.34-3.42l-.59-.3c-2 1.87-3.85 11.92-2.28 14.09 1.56-1.41.72-3.92 3.96-3.01zm6.81 23.1l1.4.3-2.8 1.58c-1.82-.91-.2-3.22-.31-5.13l-.52-.06c-.57 1.26 0 6.47-1.57 5.87a2 2 0 0 1-1.92-2.35c1.39-4.3.82-10.19 3.95-13.55 5-1.54 4.74 6.63 1.78 8.71-.14 1.37.06 3.04-.01 4.63zm-1.41-6.35l.74.09 1-5.55-.75-.13zm5.05-50.35c-1.64 4 .28 16.27-6.63 14.15-1.84-2.56.33-11.71 1.3-15 1.02-3.83 5.97-3.28 5.33.85zm-5.36 12.92c2.57-1.36 2.21-10.5 3.42-13.85-3.32-1.38-2.42 11.39-3.42 13.85zm31.71 25.76c-2.07.38-1.8-1.17-1.6-2.36 2-4.92-.21-18.4 8.2-15.76-.83 4.19-4.08-.31-3.78 7.26h3.31c.32 1.74.32 1.74-3.53 1.94-.37 2-1.28 4-1 6.11l1.38-1c2.15 2.19-1.41 2.97-2.98 3.81zm-4.08-17.69c1.58-.33 1.93.29 1.77 1.7-1.34 5.25.43 12-3 16.23-2.4-6.44.91-11.57 1.23-17.93zm-31.38 22.59c-1.12 4.67-2 9.41-3.6 13.95-.73 2.72-3.29 1.26-5.11.77-.76-.91.85-3.86 1.65-1.31 0 .26.66.39 1.38.78 2-4.79 1.28-11.36 5-14.72z"/></g><path d="M349.08 77.48h-.4l1.56-5.81.52 1.37.91-4.32-.45.18c-1.26-1.1-.82-2.35-.36-3.72 1.94-5.2 2.11-10.9 5.18-15.64-1.88 8.3-3.27 16.7-4.81 25.07l.05-.05-.87 2.05-.83-.9z" class="B"/><path d="M99.72 226.35c2.12 0 4.59-.7 6.29.14 4.39 1.95 11.08-.78 13.72 4.07l-20.08-3.63z" class="D"/><path d="M145.34 428.24a135.78 135.78 0 0 1-12.48 10.85c1.1-3.34 10-11.82 13.54-12.75zm68.51-347.43l-.59 1.46c-3.57-6.11-6.07-12.63-8.55-19.16l.57-.27c2.29 6.14 7.18 11.57 8.57 17.97zm-99.51 212l1.82 1.28a88 88 0 0 1-19.9 2.95c2.43-.67 4.58-1.95 7.26-1.84 3.5-.53 7.2-2.15 10.84-2.38zm16.29-129.89l-14.5-9 .22-.51c5.27 2.35 10.79 4.61 15.44 8v-.06c.31.94 2.16.28 1.88 1.82z" class="B"/><path d="M216.02 82.67c2.95 2.5 5.82 10.45 6.14 14.35-1.58-2.91-3.91-5.5-4.06-9.24l-.93 1.51-.77-1.55.35-1.59.76 1.29c.44-1.73-1-3.18-1.43-4.81z"/><path d="M125.23 102.03l-.86-1.53c1-.58 2.52-.95.9-2.47-.31-3.05 3.92-2.74 3.81.1-.74 1.68-1.33 3.68-3.85 3.9z" class="C"/><path d="M130.63 162.92c3.65-.1 6.43 2.41 9.55 4l-2.63-.66-.07.32 1.19.49-.14.45c-3.03-.71-5.59-2.6-7.9-4.6zm15.78 263.42l-2.13.77-.42-.42c3.58-3 6.61-6.5 10.62-8.91-1.29 3.27-5.19 3.75-6.22 7.08a3.78 3.78 0 0 0-1.5 1.14h0l-.4.4z" class="B"/><path d="M169.47 105.39a10.49 10.49 0 0 1 2.24 1.42h.31a21.18 21.18 0 0 1 4.43 5.15l.06-.05-1.65-1 .07 1.43c-2.4-2.38-4.06-4.05-5.46-6.95z" class="D"/><path d="M147.15 425.59c.36-.26.64-.65 1.1-.73a5.7 5.7 0 0 1 3.27-3.61l-.93 1.64 1.77-.9c-.86 2.3-4.72 5.33-7 6.25l1.06-1.9h0l.4-.4h0z" class="B"/><path d="M331.72 336.9l2.41.73c-1.72 4.85-5.72 3.8-2.41-.73z" class="C"/><path d="M216.08 82.63c.41 1.63 1.87 3.08 1.43 4.81l-.76-1.29-.35 1.59c-.48-1.05-1.63-2.42-1.31-3.09 1.18-2.42-1.67-2.93-1.22-5z" class="B"/><path d="M68.8 260.81c1.68 1.71 2.61 4.07-.16 4.16-1.89-1.1-1.23-2.43.16-4.16zm274.26 75.82c3-.76 3.45 2 1.26 3.15-2.15-.18-1.09-1.97-1.26-3.15z" class="C"/><path d="M91.55 136.37v-3.23c3.47.03 3.41 2.9 0 3.23zm-4.31-7.19l1.64-1.45c1.56 1.36 1.83 2 0 3.25zm-9.64 5.56c-1.62 1.39-2.68 1.9-3.26 0 .69-1.93 1.55-1.63 3.26 0zM93.3 131l-1.12-1.19-.62 1.22h-.29v-3.09c3.14-.87 1.79 1.72 2.03 3.06zm-12.5 3.49c-1.54 1.94-2.23 1.88-3.16.17.43-1.8 1.6-1.49 3.16-.17zm174.94 215.04l1.77-1.57c1.09 1.2 1.26 2.08 0 3.24zM98.68 129.4l-1.81 1.58c-2.15-2.31-.57-4.94 1.81-1.58zm-17.39 6.92v-3.3c2.91.29 2.91 3.09 0 3.3zm20.51.16v-3.33c2.98-.01 2.87 2.8 0 3.33zm153.3 211.53v2.95l-1.48-1-.45.92h-.3v-3l1.5 1.24.43-1.08zM89.41 133.92l-1-.1 1.19 1.78-1.8.52-.58-2.45 2.17-.46z" class="B"/><path d="M91.93 120.66c-.16-2.47.06-2.77 1.94-2.68.13 2.18-.2 2.66-1.94 2.68z" class="C"/><path d="M263.02 350.9v-2.82h2l.08.3-1.19.48 1.64.57-1.71.52 1.26.39v.47zM97.32 133.81l-.91.23.28 1.09-.5.2 1.12.37v.32h-2l-.39-2.55h2.42z" class="B"/><path d="M124.8 229.55l6.52.71v.38c-2.06-.35-5 .8-6.51-.64z"/><path d="M86.6 127.81v3.09l-1.19-1.33-1.08 1.69-.16-3.42c.86.97 1.53 1.88 2.43-.03z" class="B"/><path d="M121.13 291.81l6.19-1.27.1.46-5.89 1.63z"/><path d="M318.12 87.31c1.29-1.16 2.39-1.83 2.93-.12-.91 1.38-1.5 1.62-2.93.12z" class="C"/><path d="M75.92 127.81l1.15 3.27c-1.1-.51-1.91-1.52-2.49.39l-.32-.57 1.12-3.19zM98 135.95l1.23-2.79h.47l1.08 2.77z" class="B"/><path d="M168.32 99.25l-3.47-4.58c2.86 1.26 3.85 3.14 3.47 4.58z" class="D"/><path d="M78.14 128.06l.43 2.16h.44l.69-2.34.6.17c-.74 3.52-2.6 3.72-2.66-.15zm171.27 219.4l1.25 3.22h-2.69zM101.35 128.19l-1.19.4.93.53-1.75 1.87v-3.12h1.95zm159.06 222.75l-1-2.81.49-.42.67 1.53 1.23-1.32.29.16-1 2.82zM134.84 433.9l1.54-3.44 1.49.32.51.65-3.2 2.79z" class="B"/><path d="M231.78 301.61c-1.36 1.61-2 .22-3.44-.22.76-1.36 1.9-.02 3.44.22zm82.03-150.02l-2.82 1.07-.24-1.45 3-.35z" class="C"/><path d="M131.76 426.7l-.17 3.25-2-.28zm7.89-142.35l-8.58.61v-.6h8.6z" class="B"/><path d="M245.69 194.31l2.28 1.38-1.24 2.3-1.04-3.68zm-149.09-.95c-1.15-1-1.38-1.77 0-2.17 1.37.4 1.14 1.16 0 2.17zm127.7-35.8l.88-2 1.1.68-1.23 1.7z" class="C"/><path d="M83.21 127.81l-1 3.4-.75-3.4z" class="B"/><g class="C"><path d="M174.58 97.3l-.29-.4z"/><path d="M174.31 96.92h0z"/></g><path d="M231.85 413.25v3.38l2.77 2.33 1-2.89.36.07-.75 4.52c-2.77-1-4.67-3.17-6.92-5-2.49-2-2.55-2.86-.21-5.81-.72 3.09.06 4.38 2.72 5.91l.73-2.69zm12.68-21.14l-2.45.32 1.7 2c-1.95-.05-6.88-2.82-6.13-5.05 2.76-2.57 4.76 1.15 6.88 2.73zm-8.37 20.26l1.19-1.56c.51 1.61.41 1.86-1.62 3.59-2.2-2.35-7-3.61-7.4-7l.5-.15zm-1.92-15.56l2.3 1v.4l-2.52.56 5.32 3.82.41-.41a21.17 21.17 0 0 0-1.32-2.26l.27-.44c2.32.53 2.27 4.06-.05 4-2.31-1.96-6.88-2.89-4.41-6.67zm.66 8.53l.72-1.49c-.42 2 .7 3 2.45 3.71l.65-1.89h.4c.11 1.64-.08 4.24-2.24 2.49-2.13-2-7.8-3.21-4.91-6.91.44 2.4.44 2.4 2.93 4.09zm1.45-10.7l-1.39 1.26-.39-.25 1.59-3.32c1.92 2.18 4.87 3.14 6 5.82l-.56.63zm7.84-12.75l-1.42 1.22 2.38 2.32-.8-2.79c1.73.52 1.95 1.61 1.29 2.83-2.67 2.45-6.31-5.04-1.45-3.58zm-40.32 72.45q-3.17 5.67-6.32 11.34l-.71-.39 6.46-11.27zm.44 2.4a28.25 28.25 0 0 1 4.43-8.54 52.67 52.67 0 0 1-4 9.35zm35.82-71.51l4.95 4.12-.65.8-5-4.1z"/><path d="M204.31 456.74l.4.81c-.48 1.37-.36 3.14-2.32 3.54l.05.05c0-1.27 2.08-2 .92-3.11-.03-.03.62-.84.95-1.29zm129.1-43.27l-4.26 2.34-.29-.45 2.41-1.7-3.72-.86 3-2-3.36-.65.05-.63 5.26.4.27.49-2.43 1.87 2.9.6zm-10.5-20.37l2.89-3.12-3.92-1.42v-.58l4.07-1.09.2.51-2.87 1.09 3.76.74-2.58 3.05 2.74-.68c0 1.21-1.9 1.94-4.29 1.5zm3.61 85.1l-1.47-14 .51-.12c.64 4.56 2.16 9.66 1 14.11zm8.41-58.02l-5.63-.78 4.33-3.82c-.76 2.55-.32 3.28 1.3 4.6zm-7.07-26c.46 2.06.77 4-2 4.16-3.45-.19-2.67-5.08 2-4.16zm-2.73 4.23c4.08-2.14 2.72-4.38-.67-3l.67 3zm-5.98-3.84c-1 1.42-1.18 2.48.5 3.55l-4.56-.83-.23-.42zm12.77 12.79l-5 .8-.6-2.76.24-.09 1.32 2.26.77-1.44 2.11.73-.38-2.12.29-.11 1.25 2.73zm-2.26-4.55l-.47-2.46-.58-.21c-.26.51-.81 1.06-.73 1.51.58 2.9-4.15 1.91-2.27-1.55.08 1.11-.44 2.43 1.15 2.81.92-1-.66-2.87 1.3-3.29s1.77 1.77 2 3.14zm-9.1 1.68c1.28 2.38-2.5 1.77-4.2 2.3.06-1.17-.25-2.46.23-2.91 1.32-.92 3.36-1.56 4 .66-1.4-1.85-3.79-.92-3.93 1.31 1.75-.11 3.31.56 3.9-1.36zm2.27-19.28l-.14-1.34 1.83 1.25.39-.36-.39-2.75.37-.07.85 3.63-4.52.71-.84-3.53c1.31.91.14 3.53 2.45 2.46zm-7.87 1.32l-1.81-1.12.13-.4 4.41 1.16-4.28 2.22zm6.57 22.28c-.76 2-2.42.6-3.52 1.34l-.16 1.26-.27.08-1-3.34c1.35 1.42 1.35 1.42 4.95.66zm-7.41-18.62a5 5 0 0 0 3.84-1.07c1.84 2.46-2.48 1.54-3.82 1.7zm4.85 2.37l.23 1.07-4.44.84-.16-.48zm1.08 7.48l-4.34 1.27-.34-1.32 4.68-.24zm-28.16-244.23l4.27-2.62-4.25-.56c2.08-1.33 7.17-1 8.31.18l-4.73 2.2 4.48.46-.08.66c-2.65.47-5.3 1-7.94.19zm8.52-8.85l-4.19 1.46 4.56.86c-2 1.17-7.53 1.06-8.66-.15l3.71-2a7.7 7.7 0 0 1-4-.6c1.43-1.03 7.39-.72 8.58.43zm-6.48-21.91l1.85-1-.1-.38h-4.42v-.73l8.51-.47.16.74-3.31 1.67 3.34 1.47-.17.66h-8.88v-.57h5.37l.11-.5zm1.1 6.94h4.38v.55h-8.47l5.61-2.82-5.31.26v-.57c2.73-1.63 5.68-.75 8.54-.92l.21.68zm5.38-11.78a21.59 21.59 0 0 1-9.39.78v-.53l3.06-.62.22-.45-3.27-1.58c2.38-.68 8.08.74 9.38 2.4zm-.12 21.14c-2.35.72-6.77-.78-7.43 1.84l7.86.46c-9.75 4.87-13.7-6.78-.43-2.3zm-8.63-28.28c2.7-.06 11.5-.77 6.69 3.54-2.74.4-7.84.82-6.69-3.54zm6.75 1.24h-6c1.07 2.22 2.87 1 4.19 1.3.99.2 1.81-.03 1.81-1.3zm2 43.96l-2.21 1.2 2.58 1.85c-2.19 0-5-1.55-7.63-1.38-.41 0-.79-.51-1.18-.78 2.17-1.52 4.89.39 7.16-1.36.25-.16.76.06 1.15.1z"/><path d="M291.41 136.08c2.38.59 11.72-1.26 8 3.45a10.38 10.38 0 0 1-.23-2.1c-1.7-.54-2.89-.17-3.55 1.94l-.69-2.26h-3.53zm-5.92-59.82c.1 1.87 1 3.67-.05 5.64-.63 1.71.48 4 0 5.88l-1.24-9.28c-.23-1.31 1.05-1.42 1.34-2.25zm-3.7-4.4c1.69 1.09.67 3 1.26 4.43a8.31 8.31 0 0 1 .06 2.87l-.55.06-.75-7.36zm-.12 328.62l-2.54 1.57 2.82.71-.07.56-4.63-.56-.12-.74 2.76-1.36-2.35-1 .19-.59 3.88.94zm7.16-6.61l-3.05 3.58 3 .59c-2.34.92-3.57.65-4.27-.61l2.3-2.77-2.24-.67.08-.51zm.07 6.23l-3.15 2.91 2.53.75-.18.7-3.79-.65-.27-.6 3.07-2.08-2.59-.94.13-.57zm-7.81 16.71a1.29 1.29 0 0 1-1.8 1.06c-1.07-.55-3.19.54-3.17-1.92.37-2.97 5.56-1.54 4.97.86zm-4.55-.16l4 .27c-.51-1.96-2.32-2.26-4-.29zm11.92-7.51c.86-4.69-3.14-1.58-4.19-3.78 3.46-1 5.82 1.54 4.36 4.24l-4.22.26v-.72zm-7.55-13.16l-.82.73-.32-.17.53-1.66c2.92.15 1.72 4.41-.56 3.17-1.53-.67-2.93-2-.56-3l-.71 1.85c1.27 0 2.86 1.29 2.89-.75zm3.55 15.29l.7 2.23c1.9.07.91-1.59 1.6-2.69l.54 2.6 1.62.32v.34h-4.26l-.48-2.73zm1.61-20.72l-1.93-1.82.18-.27 4.46 2.09-4.28 1.65-.15-.38zm-6.82 31.62l1.33-.72.07-.62-4.8-1.41c2.43-.92 5.28-.34 4.84 2.87a8.81 8.81 0 0 1-1.38.31zm-.84-31.28l1.88-1-1.67-2 .25-.33 4 2.56-4.36 1zm-1.45 18.53v-2.31l4.47 1.08c-1.33 1.56-3.34-.94-4.47 1.23zm-.21 3.12h3.78v-1.88h.27l.32 3-4.43-.6zm4.83-7.73c-1.51 1.76-2.86.28-4.27.15v-.59zm-3.06-11.93l3 .4.17-1.33h.17v2.2l-3.56-.78zm-23.38-239.49l-5.91 1.56-.28-.42 2.77-3.05-4 1.31c1.45-2 5.22-3.19 6.9-2.32l-3.16 2.62 3.57-.18zm-12.73-24.86l-3.85.21v-.53l7.55-1.41c.68 2.26.21 3-1.8 3.09s-3.31.71-5.34.08l3.54-1.16zm2.52 15.41c-1-1.88 2.44-1.09 1.73-3h-3v-.5c2.2-.2 10-3.24 7.21 1.5a2 2 0 0 1-1.5.38c-1.84-.27-2.96 1.03-4.44 1.62zm6.28-3.92l-3.59.59c.98 1.5 1.84 1.43 3.59-.59zm-6.05 4.86c3.33-.07 6.73-2.72 8.74 1.29-3.57 1.39-5.81 1.65-8.95-.31zm1.49 1l.05.62 5.81-.49.16-.68c-1.87-1.29-4.02.27-6.02.48zm-4.49-10.07c1.92.23 10.05-1.88 7.26 2.13-2.63-.12-6.68 2.25-7.64-1.28zm7.44.62c-.49-.87-6.9-.17-6.7 1 1.43 1.23 5.05.76 6.7-1.03zm-3.81-4.02c-1 .08-2.33-1.07-2.82.37l-3.17-1.15c3.47-.57 7.47-.34 8.67.6l-7.26 3.22-.36-.58a31.16 31.16 0 0 1 4.94-2.46zm8.5 28.33h-3.14l-.08-.57c2.77-.13 6.08-2.45 7.11 1.43-2.85 2-2.41-1.15-5.75 1.85l-.42-.33zm.37-.14v.37l2.74.94v-1.9zm-5.14-4.2c2.3-.58 4.58-1.58 7.19.11l-5.95 2.59-.23-.44 1.77-1.74zm-12.98-32.49l2-1.53-2.57-.41v-.61a7.24 7.24 0 0 0 7.58-1.76l.22.63-2 1.63h1.94zm22.87 42.56a16.72 16.72 0 0 0-3.44-.58c-1.14 0-2.28.7-3.32-.42l5.91-1.88.2.58-1.49.77 2.23 1.29zm-16.62-48.31a3 3 0 0 0-3.6.73 2.55 2.55 0 0 0-3.57 1.55l-1-1.75c2.89-.49 5.46-2.15 8.26-1.23zm-5.38 7.65c1.86-.84 8.13-.18 7.28-3.09l1.22 2.42-8.39 1.39zm9.6 24.44c1.31-1.71 5.76-2.6 7.2-1.73zm102.07-72.77l.49-1.77.83.9.88-2.05c.84 5.11-2.45 9.5-4 14.12-.41-3.73 3.03-7.71 1.8-11.2zm-10.67 54.59h-7.06v-.52l3.56-.77-2.27-2.41.32-.43 5.7 3.52zm-8.23 29.74l-3.59-1.46.49 2.29 1.94-.79-.59 2.21c-1.3-.51-2.45-.88-2.48-2.54 0-4.37 9.28 1.7 4.39 3.19a4.34 4.34 0 0 1-.16-2.9zm16.23-19.79l-1.95-.25-.35 1.54 2 .8-.16.58-5.66-1.42v-.36h3.12l.74-1.34-3.09-1.33.17-.49 5.3 1.58zm-14 17.79l-5.74-2.53.05-.44 4.77-.65-3.78-1.49.12-.34 5.35 1.82-.06.62-4.76.43 4.37 2.17zm10.61-4.26h-2.56l-.52 1.58 2.18.82-.15.5-5.7-1.39.05-.39a7.37 7.37 0 0 1 2.94.39c1.14-2.29-1.19-2.27-2.43-3.51l6.26 1.63zm1.17-5.31l-4.74-1.1-.37.45c.38 1.35.94 1.5 2.36 1.3 0 .4-.14 1.15-.25 2l-3-2.47c.74-.77 1.53-2.12 2-2 2.25.28 6.73 3 2.13 4.13zM330 146.16c-.9-3.34 5.19-2.29 5.14.35.11 1.31 0 1.47-1.47 1.56 1.18-3.09-1.41-3.26-3.67-1.91zm1.53-6.48l-1 2.68-.21-.07.17-2.9c3.58.44 5.55 2 5.22 4l-2-2.68-.52.24-.39 2zm2.67 22.95c1.71 1.93 3.51.56 5.35.7l-2 .83 2 1.95-.23.3-5.42-3zm-2.89-26.82c2.51 1.45 6.49.94 5.26 5l-1.5-3.3-.83 1.06-3-2.49zm6.43-1l-.73 2.39-1.17-2.45-.76.65-3.3-2.13v-.29zm-3.33 14.83l-.64 3.35c-.79-3.1-3.59-2.19-4.83-3.53 1.59-1.16 3.26 2.09 5.47.18zm5.83 10.88l-3.83-1.21-1 2.63-.35-.1.91-3.51 4.39 1.79zm4.89-13.24l-5.23-1.27.19-.78 5.2 1.39z"/><path d="M267.12 474.3l-.37 1.72-.25-2.57 2-1.34-1.52 8.37-.47-.23c-1 6.25-1.47 12.74-3.37 18.83l-.54-.06 2.21-20.36.57.44c2.2-.23 1.46-3.13 2.12-4.72z" class="B"/><path d="M179.07 195.17l-3.24 4.13-.53-.41 5-7.23.55.29-1.1 5.86.34.11 2.86-5 .49.26c-.78 2.77-2.47 5.08-4.07 7.38-2.14-1.14-.07-3.36-.3-5.39zm11.69 10.37c.57-2.44 2.34-4.19 4-6.1v5.37l2.86-4.25.61.39-4.07 6.94-.43-.1-.58-5-2 3zm-54.18-38.59l2 .54.14-.45-1.19-.49.07-.32 2.63.66v.45a65.3 65.3 0 0 0 8.18 5.27c-2.11-.1-11.18-3.71-11.83-5.66zM182 202.87c0-3.82 1.9-6.4 3.09-9.23l.67.23-2.61 7 .19.15 4.86-5.17.34.33a16.88 16.88 0 0 1-6.54 6.69z"/><path d="M192.93 197.87c-2.58.19-2.58.19-4.26 2.59l1.84 1-.1.35-2.22-.58-1.11 1.56 2.62 1.51-.22.56-4.28-1.19c2.48-2.41 4.08-8.94 7.73-5.8zm12.14 14.37c-.21-2.52 1.12-4.61 2-6.83l.5.08c-.09 1.52-.64 2.68-.81 4.23l3.06-3 .48.46-4.61 5.23zm-64.85-44.9v-.45l-6.56-3.66c.28-1.54-1.57-.88-1.88-1.82 2-.38 3.21 1.07 4.66 1.92 2.89 1.83 5.55 3.07 8.18 5.41zm67.54 45.57l4.19-5.5 1.48.57-2.44 1.7 2 1.32-.14.36-2.41-.58-1.03 1.56 2 1.22-.1.34zm-4-8.54l-2.44-.64-3.14 5c-.52-2.39 1.74-3.45 2.33-5.33l-1.27-.75c1.26-1.76 3.4.85 4.52 1.72zm-25.03-13.56c-1.52 2.71-3 5.42-5.64 7.26 1.51-2.76 2.86-5.61 5.64-7.26zm22.5 19.39q1.91-3 3.83-5.89l.56.34-3.73 6zm1.8 183.47l-4.26-2.24 2 2.88-2.31.31 2.55 1.77-.2.36-5.27-2.84.08-.53 3.89.24c-4.17-5.78 1.28-2 3.89-.58zm1.54-1.53c-1.67-1.32-4.33-1.86-4.93-3.76 1.24-1.84 3.67 0 4.94 1l.53-.25zm-16 .15l.75 1.21-.42.32-4.39-5.59c3.29.22 5.14 2 7.1 3.76-1.07.82-2.15-1.79-3.04.3zm16.67-15.7l-3.42-1.2-.18.23 2.29 2.51-.33.38-4.85-4.06.25-.62 4.38 1.2-2.82-2.53.42-.44 4.57 4zm-11.72 12.93c-2.07 2.36-3.58-.79-5.13-2-2.1-1.87.16-2.54 2-1.9l-.09.71-1.93-.27-.18.25 2 1.52c1.22-1.18 2.22-.74 3.33 1.69zm7.41-8.89h-2.33l1.25 1.93-.26.26c-6.36-4.49-4.99-7.83 1.34-2.19zm-1.19 17.5l-1.71-.68c-2.14 1.13.14 2.3-.06 3.93l-4.16-6.1.48-.47 5.68 2.83zm-6.91-14.4l-1.71-.2c1.33 2.42 2.57 3.23 4.08 2.64l-.87-1.69-1.1.85c-.1-.17-.23-.33-.2-.36 1.13-1.79 1.9-.48 2.74.61-.57 3.71-5.52-.13-4.93-2.64l2.13.14zm-9.42 46.92c-2.29 2.81-3.54 7.27-6.52 9.11.24-3.36 4.48-6.23 6.2-9.35zm-9.27 2.77l-8 10.53-.6-.45 8.08-10.43zm33.54-54.61c1.76-2.58 2.31-2.15 4.09-1.08s.83 2.33-.23 3.89zm.5.31l3.44.93c.71-1.31-1.08-1.76-1.92-2.33-.18-.09-.72.64-1.52 1.39zm-3.31-7.48l-1.24-1c-.2 2 1.51 2.39 2.51 3.36l.44-.44-1.36-1.24.81-1.08c.91 1.28 1.72 2.24.51 3.51-2.82.28-6.15-7.43-1.29-3.61zm6.74 1.38c7.51.83 1.41 7.5-.93 2l3.66 1.69.53-.79zm-6.2 7.95c-.45 3 3.07 2.75 3.33 5.43l-4.16-3.17-1.27 1.58-.54-.48zm-6.86 2.16l-1.47 2-4.77-4.23 1.51-1.41.26.19-.74 1.28 1.58 1.25.55-.63 1.43 2.7 1.32-1.49zm-10.84 12.33c-2.15-.83-3-3.64-5.75-3.86l1.51-1.79c.6 2.58 3.35 3.39 4.24 5.65zm24.41-26.24l-5.15-2.6v-.25l2.39.3-1-2.31.27-.17zm-28.92 28.41l1.79.45.25-.63-5.26-2.59.22-.43c1.9 1 4.75 1 5.39 3.4-.26 1.37-1.74.52-2.61.27zm32.54-23.99l1.61-1.43c-2.84.31-3.55-.07-4.08-2.06h2v.38l-1.32-.13-.18.6c1.12.45 2.52.49 3.58.89.82 1.12-.4 1.86-1.43 2.16zm-6.9-.99l-4.05-4.37.23-.28 3.88 3.31 1.3-1.05.25.23zm-11.03 2.57l4.66 4.32-.41.47-4.72-4.2zm12.31 8.51l-4.09-3.31.38-.51 4.24 3.1zm-3.57 5.36l-4.44-3.43.31-.43 4.57 3.28zm-36.14 57.04c-1.58-.84-1.35-1.52 1.06-3.08zm22.08-292.01l2.66-4c-2-.15-2.55 2.95-5.1 1.53 2.2-1.6 9.88-9.14 9.56-2.61a1.32 1.32 0 0 1-.85.89c-2.95.44-3.48 3.74-5.92 4.6zm5.53-6.66l-2.61 2.18c2.74.11 3.2-.28 2.61-2.18z"/><path d="M195.79 157.28l1.84-2.08-.06-.46-3.37.89-.6-.81c8.51-4.12 15.12-6.16 3.49 2.56-.13.11-.45-.02-1.3-.1zm8.81 7.53c7.33-7.28 12.43-4.87 2 1.73l-.3-.4 1.65-2.6-2.95 1.63zm5.61-5.92c-2.46 1.69-5 5-8.28 3.61.61-2.37 7-8.39 8.28-3.61zm-1.49-.41l-.44-.65q-2.76 1.92-5.54 3.82l.44.65zm-36.97-49.43l3.18 3.35-.07-1.43 1.65 1c-1.54 1.26 3.68 5.44 4.68 7.46-4.27-2.56-8.12-6.62-9.44-10.38zm33.99 46.3l-1.16-1.66.43-.39 2.57 2.38-7.49 3.3.62 1.31c-1.16 0-1.68-1-2.59-1.56 2.29-1.72 5.01-2.35 7.62-3.38zm7.38 16.69l2.15-1.73-.14-.5a11.48 11.48 0 0 0-3.45 1.67l-.32-.53 6.78-4.4.43.58-2.83 2.13.32.57 3.55-2a14.59 14.59 0 0 1-6.2 4.67zm5.65 5.12l2.24-2.75-3.6 2.11-.36-.56c2.28-1.35 4.22-4.28 7.09-3.94 0 2.73-3.36 3.56-5.05 5.29zm3.24-6.86l-5.65 5-.4-.36 1.39-1.64-.09-.33-2.52 1-.3-.68 7.06-3.67z"/><path d="M215.73 166.37l.38-1.65c-2.38 1-2.24 3.63-4.45 4.54-2.94.59-3.45-1.37-.7-2.51l.32.43-1 1.06c2.41.35 3.86-5.68 6.39-3.12.21.24-.17 1-.28 1.51zm-39.32-54.38a21.18 21.18 0 0 0-4.43-5.15l-.67-2.63c3.36 2.43 5.19 6.67 7.61 10.16zm43.51 66.13l5.8-4.16c.83 1.3.54 2.53-.61 2.42-2.2-.25-3.1 1.57-4.76 2.26z"/><path d="M171.71 106.81l-.36-.37z" class="C"/><path d="M180.41 334.56l-1.42-2.86.6-.36 3.22 4.93-2.4-.26-.18.89c-1.83-.32-2.39-2.63-3.59-3.87l.45-.55zm-4.86 3.25l.39 1.29c-1.71-.32-2.9-2-3-4.34l3.9 2.72.31-.27-1.54-2.9.42-.23 2.77 4-.25.37zm27.73-3.41l-3-.95.25 1.92-.24.17-2.71-3.85c2.94-2.79 3.25 1.36 5.75 2.38zm-11.7-9.09c1.68.85 3.46 1.34 3.19 3.64-2.48.68-3.05-1.08-4-2.91zm-6.17 17.24l-1.21-3.15.3-.17 2.43 4.35-4.17-1.46 1.4 2.95c-1.31-.34-2.07-1.44-2.88-4.36zm-14.09-6.69l2.72 4.34c-3.81 3.15-3.76.21-5.92-2.39l.52-.36 3 4.26c1.74-2.44-.47-3.8-.83-5.48zm19.09-4.28c-5.11-3.65-1.41-7.12.66-2.77l-1.31.92.9 1.61zm19.58-10.77l-3.85-1.56 1.27 2.56a3.44 3.44 0 0 1-2.28-3.76l3.26 1.75-1.13-3.19.33-.13c.47 1.18 2.89 3.46 2.4 4.33zm-31.17 21.79l4.28 3.78c-1.7.12-3.78-1.2-3.69 1.37-.88-.1-1-.77-.59-5.15zm26.59-14.95c1-.93 1.9-2.1 3.05 0h-2.19c1.13 3 1.37 3.13 3.57 1.77l-2.63-.41 2.28-1.28c1.09 2.25-.06 3.42-2.06 2.84a13 13 0 0 1-2.02-2.92zm-7.19-4.38l-1.53.37 1.66 2.7.56-.31-.76-1.64.89-.53.9 2.76c-3.39 1.36-6.16-5.53-1.72-3.35zm.69-1.7l2.78 2.06-1.09-3.33.38-.15 2.43 4.66c-2-.25-4.08-.28-4.5-3.24zm4.88 2.58l-.74-4.82.48-.24 3 3.42c-1.67-.48-2.15-.23-2.29 1.43zm-15.22 18.55l-2.36-4.56c1.46-.05 2.66-.95 3.51.79.69 1.42.8 2.57-1.15 3.77zm.13-.9c.83-3.09.58-3.48-1.69-3.19zm26.96-15.07c-3.46 2.05-4.94-4.38-1.81-3.66-1.24 2.26-.52 2.53 1.81 3.66zm-12.84 1.94l3.5 3-.4.43-2.15-.9.9 2.15-.42.18-2-4.69zm-34.85 12.14l-1.29.75 1.24 2-.38.26c-1.35-1.82-4.73-5.43-.21-5.32l-1.68 1.07-.12.56zm13.05-9.93l1.25.43.14-1.5.3-.06 1.64 5.14-3.5-3.75zm16.56 6.29l-3.55-3.18 2.75-1.71.27.33-1.41 1.2 2.12 3.28zm14.7-17.36l-1.65-3.26-1 .23-.11-.26 2.44-1.26c-1.41 1.62.97 2.63.32 4.55zm-16.22 8.41l-2.22-3.66.6-.38 2.29 3.62zm-15.65-85.41l-.44-3.23c-3.9 2.19 2.61 10.67-2.74 11.52-2.28-.15-3.42-1.78-2.22-4 0-.15.51-.19.77-.27.9.85-.67 3.26 1.95 2.9 1-1.82.07-3.43-.52-5.06-1.38-2.54.54-7.84 3.78-6.1.92 1.41 1.49 3.14-.58 4.24zm22.85 10c1.7-3.16 1.94-8.09 4.69-10.31 2.5.67 2.49 3.84.19 5.2 2.49 3.2-1.61 6.86-4.88 5.11zm3.37-4.42l-1.68 4c2.46-1.32 2.67-1.82 1.68-4.01zm-22.93 3.58c-2-.59-2.39-1.67-1.86-3.5 1.22-3.2.89-7.06 2.95-9.85l.56.27q-1.14 5.67-2.27 11.33l.92.3a28 28 0 0 0 3.51-10c.09-.34.6-.57.91-.84-.01 4.13-1.43 9.34-4.72 12.29zm18.12.98l-.6-5.36-2.87 5.62-.73-.35c1.91-3.68 2-8.48 4.73-11.53.79.89 2.24 1.87 1.56 3.21-1.92 2.57-.58 5.7-1.53 8.52zm-10.93-6.32c-.76 2.25-.63 5-2.95 6.27-.19-4 2.06-7.91 2.95-11.85 1.87-3.77 6.73 2.76 0 5.58zm.29-1.3c2-1.88 2.2-3 .87-4zm9.23-3.52c-3.91.2-3 3.31-4.31 5.38l2.27-.31.09.3c-2.72.64-3.46 2-4.12 4.79l2.76-.38c-1.41 1.27-2.69 1.83-4.53 1.14 2.23-3.51 2.07-13.55 7.84-10.92zm-62.08 14.26h-17.46v-.26h17.46zm-17.17-28.13l.55-1.66 1.39.52-1 .57v.35c2.58.62 6.43-.87 7.9 1.9zm-4.03 92.92c.32-.36.58-.92 1-1 7.35-2 14.72-5.24 22.08-6.49a199.87 199.87 0 0 1-23.08 7.49zm45.76-30.81c-.15-2.63-2-5.75 2.14-5.76.88 1.32 1 4.08 2 5.56l-.45.26-2.42-3.39-.76 3.27zm31.05-4.88q-.39-2.79-.77-5.6l.64-.31 2.79 3.82-.66-4.27c1.63 1.45 1.28 3.37 1.59 5.42l-3.06-1.88v2.81z"/><path d="M181.3 298.02c.69-3.39.09-5-2.19-5.38l1.25 5.28c-1.81-.33-3.16-6.59.15-6a3.63 3.63 0 0 1 .79 6.1zm-2.28-10.69l-3.13-2.19-.23 2.11-.44.08a31.63 31.63 0 0 1-.4-4.09c1.15-1.85 3.06.29 3.22 1.15-.91 1.58.64 1.75 1.21 2.46zm11.14-1.8c-.24-1.07-.4-2.11-1.4-2.74a3.71 3.71 0 0 0-.35 3l-.59.07-1-5.44.35-.17 1.53 1.89.42-.28-.09-1.87.71-.1 1 5.43zm2.46 3l1.15 1.78 2.06-.73-.27-1.57.51-.15 1.55 4.79-.6.2-.85-2.27c-3.3-.29-1.19 2.37-2.13 3.83l-1.76-5.7zm-15.01 10.67c-1.12-2.17-4.61-3.67-3.28-6l1.39 2.16 1-3.13.89 6.97zm6.08-7.67c.37 1.49.62 3 1.87 4 1.49-1.42 1.15-2.75.62-4.62 4.34 5.07-3.11 8.61-3.17.74zm17.13-11.72l-1-.51c-1.08 1.85-.89 2.89 1.22 3.93l-.82-2.21 2-.15c-.81.93.33 2.63-1.61 2.57-3.22-.1-1.55-2.77-1.34-4.72l1.87.4zM184 282.46c4.64 1.6 1.17 5.84.06 2l.43-.25 1.09 1.16c.26-1.9-3-2.16-1.33-4.58l2.19 1-.28.59-1.4-.71zm20.13 3.24c3 6.49-3.76 7.29-2.27.35l1.14 4.65c1.89-1.65.49-3.45 1.13-5zm-33.48 2.49c-3.57 3.36-2.75-2-3.76-4.27l2.81-.44.11.34-2 .95.35 1.08 1.6-.37.11.22-1.65 1.11.34 1.83zm35.08-3.16l.95 3.74 2.94-.6.17.48-3.84 1.68-.86-5.17zm-24.16-3.32l-1 1.93 1.52.36-1.37 1.66.29.32 1.2-.33.24.17-1.91 1.21c-1.55-4.9-.95-5.59 1.03-5.32zm23.06-4.1l2.14 1.76 1.18-2-.49 6.19-2.83-5.95zm-13.56 17.01c-1.83-1.06-.55-3.56-3.39-4.3l3.85-1.47.2.37-1.57 1 .91 4.4zm8.12-1.94c-.11-2-3-5.49.31-5.87l-.9 1.93 2.1.38-1.32 1 .43 2.44zm-25.78-9.72l-1.86 1.22 1.42 1.08c-2.24.5-.08 2.24-1.09 3.84-.32-3.12-2.8-5.79 1.32-6.51zm29.79-5.02l1 4.66 1.51-.22-2 1.91-1.19-6.17zm-10.94 1.61l.78 5.25-.66.09-.84-5.19zm103.24 22.04q3.6-12.3 7.19-24.59l.53.16-7 24.64zm19.91-103.78c5 2.87-.06 11.17-.11 15.8-.55 2.58-.84 2.78-2.88 2.67-.25-6.29 1.99-12.21 2.99-18.47zm10.56 86.23l-1.81 6.21c-.93-2.44.75-4.24 1.81-6.21zm-13.65 40.4h-3.41l1.82-3h-.13c1.17-1.55 1.11-5.76 3.59-5.15.37 2.52-1.41 5.52-1.87 8.15zm-43.03-2.21c-.55 2.79-.1 6-2.75 7.89l-.86-.4zM78.41 458.81c1.85-.13 4-.7 5 1.35.91 3.4 3.74 6.73 3.06 10.18l-1.54-3.66v7.91c-1.09.68-1.44.54-1.61-.78-1.9-.9-2.74.9-4.6 1.82l.88-1.94c-2-1.33-1-3.59-1.41-5.93l-.88 2.68c-2.46-4.63 6.75-8.27 1.1-11.63zM98.15 84.62l-1 5.91-.65-.1.83-5.93zm8.02 5.96c1.45-2.3-.47-5.06 2.7-6.8-.97 2.85.54 6.11-2.7 6.8zM81.98 60.11l-1.36 6.34-.36.06c0-2.18-.57-5.12 1.15-6.72zm5.74 51.99l1-5.59.75.13-1 5.55zm-.31-37.43c.95-2.48.06-15.2 3.42-13.85-1.19 3.36-.81 12.48-3.42 13.85z"/><g class="B"><path d="M147.15 425.59l-.4.41zm1.1-.73l-.34.1a1.91 1.91 0 0 1 .34-.1z"/><path d="M146.79 425.96l-.4.4z"/></g><path d="M325.13 398.41l-.67-3c3.39-1.38 4.75.86.67 3zm-4.57 6.08c-.59 1.92-2.16 1.25-3.88 1.36a2.14 2.14 0 0 1 3.88-1.36zm-22.15-290.18c0 1.27-.81 1.52-1.79 1.3-1.32-.3-3.12.92-4.19-1.3z" class="D"/><path d="M276.54 416.63c1.68-2 3.49-1.67 4 .27zm-25.33-276.61c-1.75 2-2.61 2.09-3.59.59zm-4.56 5.79c2-.24 4.15-1.8 6-.55l-.16.68-5.81.49zm2.95-9.41c-1.65 1.79-5.28 2.26-6.7 1-.21-1.17 6.19-1.87 6.7-1zm5.06 24.2l2.72-.59v1.9l-2.74-.94zm-46.48 218.51c.8-.75 1.34-1.48 1.52-1.4.84.57 2.63 1 1.92 2.33z" class="B"/><path d="M198.02 147.46c.59 1.9.13 2.29-2.62 2.18zm10.7 11.02l-5.54 3.82-.44-.65q2.78-1.9 5.54-3.82zM188.7 341.81l-1.69-3.19c2.27-.3 2.52.09 1.69 3.19zm17.93-93.43c1 2.19.76 2.69-1.68 4zm-15.45-3.05l.87-4c1.36 1.03 1.11 2.12-.87 4z" class="D"/><g class="C"><path d="M78.84 469.52c.54-2.79.3-5.8 3.34-7.14 1.62.93 4.12 11.77.61 10.43-3.22-.06-3.94.46-3.95-3.29zm1.57-7.43l1.44-1.09c-.46-.76-1.18-1.33-.13-2 1.98 1.49 1.55 3.28-1.31 3.09zm153.7-280.49c8.5-.24 8.42 13.23-.54 13.28-8.16-1.22-7.96-13.43.54-13.28zm23.73 187.76c.47 9.13-13.11 8.55-12.92.08-.11-7.56 12.76-9.04 12.92-.08zm-37.38-57.28c-.26-4.59 3.79-6.58 7.91-6.61 13.86 7.67-5.72 21.63-7.91 6.61zm61.82 52.9c9.13-1.38 13.51 9.2 4.84 12.72-8.46 1.83-10.84-7.89-4.84-12.72zm33.71 9.02c-8.51.44-8.49-13.06-.06-12.89s8.24 13.03.06 12.89zM226.5 257.46c-8.53-.52-8-12.73.2-13.19 8.24.54 8.82 13.03-.2 13.19zm76.05-81.74c0 8.91-13 8.34-12.84 0-.2-8.6 13.47-8.08 12.84 0zm-74.71 185.09c-7.91.37-8.57-13.33.33-12.83 8.17-.03 8.11 13.15-.33 12.83zm120.88-3.54c.38 8.72-12.83 8.07-12.83.33.28-8.94 12.89-8.68 12.83-.33zm-78.79-178.32c-.1 8.72-12.64 8.47-13.15.18.13-8.21 12.81-8.85 13.15-.18zm-52.4 100.65c-.62-8.85 13.16-8.45 12.77-.14.17 8.52-12.97 8.57-12.77.14zm8.99-53.66c-8.51.13-8.13-12.86 0-12.82 8.25-.43 8.5 13.28 0 12.82zm101.83-55.7c8.52-.13 8.3 12.91-.22 12.85-7.84-.28-8.33-13.06.22-12.85zm-9.24 266.68l-.49 3.37-1.21-1.12-.73 1.32-1.6-2.92zm-161.65-93.68c-2.14-1.75-1.2-2.38.4-3.59 2.22.95.8 2.08-.4 3.59zm119.39 90.09l.45.68.85-.9.33.16-.79 2.6-2.53-.17-.51-2.47zm61.2 2.21c-1.86 1.66-2.94 1.85-3.48-.36.84-2.07 2.02-1.3 3.48.36zM192.26 137.45l-1.51 1.27-1.79-2.24c1.35-1.75 2.11-1.67 3.3.97zm22.89 285.36l1.51-3.12c2.89 1.9 1.91 4.77-1.51 3.12zm-52.89-176.38l-2.61-.32v-.44l1.32-.84-1.06-1.25.23-.47 2.64.48zm-6.49-2.07l2 1.76c-1.23 1.57-2.32 1.75-3.22-.19-.08-.19.64-.83 1.22-1.57zm136.77-141.55l.36-1.05h.31v3.4l-1.56-1.29-.24 1.1-.54.05-.52-3.18.44-.27z"/><path d="M287.58 104.89v-3.08h2l.38 3.07zM154.9 241.62l3.34.61c-.07 1.84-1.49 2.68-3.07 1.54-.42-.37-.21-1.45-.27-2.15zm2.1 60.06l1.66.42-3 1.89-.37-.54.79-.73-1.43-.75 1.08-.74-1.53-.75h3.7zm21.34-162.8c2.9-1.95 4.58-.15 2.53 2.61zm-26.67 106.03l-1.92-1.94c1.82-2.94 4.88-.58 1.92 1.94zm18.81 113.31l1.28 1.9-2.63 1.7c-1.72-2.1-.35-2.5 1.35-3.6zm116.8-261.24c1.1.08 2.38-.58 2.46 1.32s-1.19 1.58-2.46 1.52zm42.83 345.7l-.56-3 1.74 1.22.69-1.32h.5l.62 2.61zm16.52-326.75v-2.4l.32-.09.45 1.14 1.08-1 .35 1.36 1.07-.84.34.24c-.76 1.66-1.78 3.02-3.61 1.59zm-198.22 196.6l-1.36-.27 1-1.16-1.16-.38.06-.32h3l.29.46-1.17.52 1.64.88-2.85 1.64-.24-.27zm37.15-173.72l2.37-.16-.19-1.25 2.63 2.2-1.93.29.17 1.81zM225 424.73l-2.2 2c-1.58-1.14-1.22-2.37.27-3.16.34-.15 1.05.6 1.93 1.16zm119.22 9.87c-.85.63-1.53 1.37-1.77 1.25-1.73-.85-1.5-2.06-.14-3.2l1.91 1.95zm-11.81 1.83l-.36 1.32h-.47l-.61-3.66 1.84 1.31.53-1.14h.44l.45 3.46zM155.05 249.25l-1.37-1.31 3.94.5-1.21 1.48 1.07 1.25-3.56-.47zm7.76-62.89a9 9 0 0 1-1.57-2.06c1-1.88 2.08-.88 3.14.41zm21.2 216.74l.07 1.51 1.48.34-1.7 2.32-1-2.31-1 .58-.34-.31 1.94-2.21zm-41.55-118.03c2 2.11 1.15 2.45-.68 3.42-1.99-.96-.59-2.05.68-3.42zm13.18-47.13c-.32-3.89.6-1.46 3.16-1.91v1.91zm-7.14 58.54c-2.1-2.8 2.43-4.67 2.65-1.07zm8.65 51c-1.16.16-3.32 1.62-3.32-.41.94-1.76 2-1.75 3.42-.4zm65.04 75.85c-1.47 1.26-2.66 2.26-3.48.4.91-1.92 1.57-2.02 3.48-.4zm-74.43-137.36c2 1.84 2.06 3.54-.4 3.65-2.19-.81-.63-2.19.4-3.65zm11.33-90.16l-1.14 2.32c-3.41-2.05-2.68-4.02 1.14-2.32z"/><path d="M155.32 289.08l-3.31 1.05c-1.15-3.32 1.5-3.79 3.31-1.05zm190.87-183.27l.87-3 1 1.57 1.88-1.16-1 3.35c-.88-.29-1.28-2.17-2.75-.76zM150.54 351.46c-1.49-1.89-1.29-2.6.61-3.4 1.84.92.7 2.07-.61 3.4zm184.3 80.46l-2.08.46-.43-3 2.12-.54.39 3.08zm12.07 3.3l-1.37-1-.23 1.31h-.49l-.7-3.63 1.9 1.28.34-1.28h.41l.61 3.12zm-188.7-80.64l.2-1.77-1.1.06-.23-.41 2.79-1.88c1.06 2.41.59 2.98-1.66 4zm4.2.46l1.15 1.87-2.29 1.62-1.44-1.72zm177.16 86.28l-2.27.21c-.06-.87-.49-2.23-.1-2.53 2.19-1.73 1.27 1.42 2.41 1.5zm-58.76-3.12v3.27c-.86-.72-1.59-1.71-2.67.43l-.16-3.63.66-.52.63 1.69zm14.48-335.11c.92-.65 1.46-1.32 1.95-1.29 1.86.63 1 2.08-.07 3.08zm-12.6 331.86c1.71-1.69 2.52-2 3.28 0-.56 1.86-1.62 1.3-3.28 0zM164.85 188.43c1-2.07 1.49-2.16 3.59-.7l-1 2zm-10.87 166.68l-1.22.12-.2-.37 2.45-1.71c2 2 .69 2.52-1.29 3.37zm10.25-157.82c-1.33 1.22-2.34.56-3-.79.59-1.89 2-.94 3.09 0zm120.06-92.4v-2.72h1.84c1 2.85.93 2.95-1.84 2.72zm-118.56 84.12c1 1.25 1.67 2.87-.16 3.48-2.16-1.16-2.16-2.29.16-3.48zm20.98 223.57c2.16 1.49-.86 4.26-2.73 1.69zm153.04-293.71l1.89-1.64c1.34 1.2 1.47 2.39-.34 3.08-.24.09-.84-.76-1.55-1.44zm-52.91 317.67v-2.93c1.86-.38 1.86-.38 2.42 3.14a8.1 8.1 0 0 1-1.3-1.24zM157.03 358.2l1-.54.31.39-2.58 2v-2.14l-1.07.29-.25-.47 2.58-1.51a4.12 4.12 0 0 1 .01 1.98zm187.8-249.73c-1.39 1.12-2.55 2.41-3.35.45.93-1.69 1.52-2.11 3.35-.45zM230.71 427.65a16.12 16.12 0 0 1-2.06 2c-2-.66-.36-2.06.38-3.19zm-81.99-138.21c1.73 1.94 1.51 2.51-.39 3.45-1.85-.8-.73-1.96.39-3.45zm-4.47 2.07c1.59 1.89.87 2.23-.68 3.31-1.81-1.51-.8-1.93.68-3.31zm7.93 15.72c-1.48-1.35-2-3.44.24-3.16 1.99.81 1.19 1.74-.24 3.16zm5.08-9.02c-1.36.91-2.24 1.45-3.13-.39 1.08-.95 1.92-1.51 3.13-.34zm1.03-63.63c-1.11.28-2.9-.12-2.15-1.55 1.54-.81 4-.3 2.61 2zm-5.62 6.62l-.55-1.07-.71 1-.69-.11-.46-2.49c3.52.1 3.65.28 2.41 2.67zm132.12 198.39c.87-1.11 1.58-1.28 2.7-.34-.67.57.74 2.2-1.15 2.2-1.12 0-1.54-.4-1.12-1.58zM162.34 238.94c-1.94 1.44-2.06-1.66-.53-2 2.86-.68 2.06 3.8.53 2zm-.45 110.87c-1.65-1.37-1.65-1.37.51-3.27 1.84 1.11 1.83 1.27-.51 3.27zm2.04-169l-1.27-.4.75-.84 3.13 1.38-2 .95.84.74-.23.5-3-1.39zm-3.23 12.6c-2 1.95-2.19 1.11-3.63-.27 1.34-1.92 1.83-.99 3.63.27zm2.43 166.31l-1.27.13-.19-.36 2.24-1.68c1.36 1.65 1.36 1.65-1.3 3.84zm-4.6-174.47l-2.88-1.18 1.12-2.16 2.35 1.72zm175.32 257.23l-.51-3.16 2.49-.18.18.34-1.23.73 1.46.4-1.54.68 1.53.31v.32zM153.66 296.31c-.75-2-.75-2 2.53-3.28l-1.09 1.88 1.19.1.08.39zm186.86-182.5l-.89.84-.25-.24.79-3.06 1.44 1.85.4-.85.43.09-.45 3.26zM176.3 405.72l.39 1-.35.23-1.63-1.52c2.2-2.55 2.2-2.55 3.56-.55zm64.43-294.34l-1.7-.89v1l-.4.13-1.22-2.9c2.7-.45 3.07.09 3.32 2.66zM160.9 239.9l.37 1.67.45-1.7.66 1.56.39-1.18h.33v2.56l-3-.47.39-2.36zM298.97 96.73a1.53 1.53 0 1 1 0 2.63zM146.09 295.57l-1 1.34 1.32.26.07.38-3 .91.61-2-.88-.37 2.67-1.15zm-5.04 1.24l-2.81.64-.7-2.12c1-.21 2.4 1 2.86-.88zm28.83-111.93l-.94 1.9-2.63-1.29.88-1.74zm13.38 228.82l-.26-1.67-1.42.23 2.3-2.16c1.3.76 1.3.76-.62 3.6zm51.36-300.39l-1.95-.76-.47 1.72-1.26-3.6 2 .85.2-1.17.38-.08 1.1 3.04zm110.23 6.74l-1.54 1 .72-3c2.51.47 2.51.47 1.33 3.62zm-42.7-18.24l2.44-.51.41.47-2.16 3-.55-.16zM140.73 283.64l-1.44-.7 3.19-.84-.6 1.89 1.08.28c-.85.9-1.51.8-2.91 1.12zm191.34 149.28l-1.54-1.36-1 1.73-.69-3.83 1.57 1.35.92-1.92.74 4.03zM150.72 303.67c-1.14-1.55-1.14-1.55 1.44-3l1 1.62zm20.54 98.7c-1.63-1.83-.55-2.16.63-3.44 2.1 1.45.69 1.88-.63 3.44zm154.01 34.04l-.54.29.84 1.61-2.25.58-.12-.57.89-.29c-2.2-1.46-1-2.29 1.12-2.1zm-51.38-.6h-2.37v-2.67h2.35l.08.34-1.58.46 1.56.46-1.53.68 1.52.29zM291.9 96.43l1.57 3.27-3-.18.88-2.94zm-57.27 332.92l-.84 2.28.39.19 1.63-1.85.55.45c-2.85 4.77-5.1-.7-1.73-1.07zm91.85 5.96c.68 1.71 1.22 1 1.82-.76l.85 4c-1.19-1.23-2.11-2.28-2.2.67-.79-1.1-.62-2.54-.9-3.82zm26.26-330.5l-1.17.35 1 .62-1.37.53 1.16.45-.11.48-2.34-.43.76-2.87 2 .44zm-192.19 87c-.58-.84-2.8-.48-1.76-2.4 1.68-.57 2.8.07 2.38 2.32zm-5.96 153.18l-.76-1.47-.77.65c1.17 1.28.35 2.12-.75 1-.71-2 .93-2.24 2.38-2.11.23 0 .32 1.15.47 1.77zm4.5-.33l2-1 .34.72c-3.6 2-4.6 0-1.54-2.43l.46.44-1.56 2.05zm111.4 91.39l-1.47-1.07-.81 1.06v-3.15l1.53 1 .45-.93h.3zM156.84 188.49l-2.89-1.62 2.16-.51-1.13-1 .24-.46 3.19 1.31c-1.48.29-2.57.67-1.57 2.28z"/><path d="M345.75 113.58l-1.75 1.23 1.09.78-.12.27-2.28-.41c.53-1.9.75-3.24 3.07-2.44zm-108.52-3.2l-1.82 2.58-.87-3c1.06-.3 2.3-1.38 2.69.42zm53.26 323.65l2.43-.19-.91 1.2 1.12 1.95-1.8-1c-1.43 2.16-1.29-1.36-.84-1.96zm-8.91-2.91c-.92-1.38-1.51-1.54-2.44-.06l.46-3.14.89 1.43 1-1.2.56.19zm41.04 7.9l-2.92.48.84-3.25h.56zM185.2 136.99l-2.34 2a26.93 26.93 0 0 0-.93-3zm109.81-39.63l.95-.87.36.29-1.35 3.68-1.6-3.61.24-.32zM143.83 300.98l3.57-1-1.08 1.86 1.3.13c.19 1-2 .84-2.76.85l.81-1zm41.58-157.32a26.39 26.39 0 0 1-.9-3.22l2.88 1.11zm40.8 285.02l-.85-1.52-1 .38-.36-.38c1.22-1.21 1.79-3 3.54-1.13-1.24.3-1.69 1.1-.79 2.47zm57.47 1.57l1.26.39v.44l-2.07.1v-3l2.35.26v.37l-1.61.26 1.81.6zm-1.54 8.36h2l.08.31-1.12.47c.55.33 1.45.73-.13 1.11l1.25.45v.31h-2.47zm-124.19-90.09l-1.41 1.67.35.35 2-1 .35.74c-3.39 1.67-5 0-1.55-2.26zm-18.34-49.6l-1.09.27-.19-.56 2.76-.94c-.72 1.12-1.1 1.92.57 2.47l-2.63.79-.17-.33 1.09-1.39zm39.89 106.89l1 1.29c-1.32 2.1-1.24-.17-3.74.8zm-33.66-101.79l.27.85 1.54-1.2.77 2-.53.21-.58-1.2-.26 1.43c-1.8-.02-1.83-.06-1.21-2.09zm201.43-184.84l2 .23-.36 2.77-1.19-1.08-.36.77-.49-.1zM144.99 284.6l3.07-.83-.5 1.35 1.59.6-3.54.84.57-1.12zm8.79-32.13l2.94-.58-.31 2.81-2.83-1.69zm1.14 56.77c-1.7 1-4.44.53-2.63-1.73.96.56 1.65 1.04 2.63 1.73zm17.33 93.67l1.88-1.55 1.33 1.59-1.76 1.47c0-.93.79-2.79-1.45-1.51zm-18.71-52.3l-1.58 1.78.1.32 2.31-.7.23.53c-3.48 1.93-4.21.16-1.62-2.41zm29.63-208.3l-.38 2.11 1.8-.76c-.4 3.94-5.35-.41-1.42-1.35zm-23.39 217.75l-1.91 2.75-1.32-2.33 2.9-.74zm21.45 51.33l-1.94-2.08c.59-.33 1.88-.67 2.71-1zm-16.41-62.1l-.56 1.46 1.47.13v.51l-3 .61-.33-.33 1.85-2.67zm182.86-240.78c-.89 3.47-3.27 3.07-2.69-.52h.68l-.09 2 .37.3 1.33-1.93zM149.12 309.18l-3.44-.8 3-1.87zm190.36 127.21l-1.84-2.78 2.52-.57zM186.62 135.54l-1.88-2.11.17-.45 2 1.14 1.45-.39.16.46zm112.79-33.73h1.94l.1.31-1.15.52 1.24.42-2.13 1.45zm-108.09 32.16l1 .33.32-1.81 1.53 3.45-.3.22-2.79-1.73zm-29.06 116.15c-2.4 1-3.73 1.86-2.7-1.41a9.46 9.46 0 0 0 2.7 1.41zm68.92 177.4c1.3 1.29-1.44 2.71 1.49 3.16l-.63.6c-2.75-.23-1.13-1.78-.86-3.76zm7.63 4.34l-2.48 2.42.63-3.56zM188.47 130.1l1.35 3.24-2.93-1.42zM327.85 430l-.27 3.6-1.77-3.11zM155.22 240.27l2.09-.26 1-1.71c.57 3-1 2.3-3 2.81zm-5.76 5.83l1.87.23.77-1.36.58.15c0 2.53-1.5 1.89-3.28 1.77zm13.74-57.89l-3.46-.61.74-1.93zm164.01 252.35l-.69 3c-1.57-1.68-2.42-3.13.69-3zM166 356.73l-1.42-1.92 2.9-1.4.24.44-1.64 1.24.34 1.42zm-26.87-54.92l3.47.27-2.59 1.73zm142.56 134.8l-1.3-2.93h2.26zM155.66 340.4c-1.19-.31-.84-1-1.52-1.94l2.64-1.65.33.52-1.77 1.35zm13.63 15.77l-1.7 1.57.35 1.32c-1.81-1.77-1.77-1.87 1.06-3.26zm-16.27-166.11l.82-2.11 2.14 2.27zM149 298.43l3.09.26-2.68 1.77zm-7.7-8.81l3.63.28-3.12 1.52zm201.11-184.24v-3.57c.48.09 1.47.19 1.87.76-.98.6-1.05 1.59-1.87 2.81zm-181.9 256.43c1.48 1.56-2.9 1.59.23 3.38h-1.08c-2.02-1.38-.13-2.03.85-3.38zm188.08-253.16l2.13.46-1.76 2.61-.37-3.07zm-9.95 8.61l1.59-.72-2.12 3.18-.36-3.26.36-.1zm-173.13 76.21l-.7 2.09-2.68-1.38.2-.5 2.18.64.59-1z"/></g><path d="M441.14 268.44q0 131-.33 262h28.76v-262z" class="F"/><path d="M648.86 268.44H469.57v262h179.29z" fill="#efefef"/><path d="M441.14 268.44q0 131-.33 262H259.54v-262zm125.62 125.94c3.07-7.32 3.93-15.57 5.95-23.28.71-3.31-1.14-6.26-4.32-7.58-3.2-.82-6.7-3-5.35-6.75a4.72 4.72 0 0 0 2.86 2.56l.41-.51c-3.48-3.08-5.09-7.15.07-9.55-.23 1.82-2.41 4.82.22 5.7 3.07 1.58 5.8 3.84 8.78 5.59 2.6.59 3.53-4.32 9.12-5.65.48 1-.43 2.81-1.12 3.84-2 3.16-4.54 6.5-1.75 10.09 2 2.9 3.1 6.24 4.81 9.27-3.74 1.2-5.41-3.12-7-5.74-4.75-4.68-5.58 20.64-5 23.43.06 1 .34 1.83-.74 2.46-.24.14-.16.82-.16.8 16.1 16.64 17.75-1 27.19-12.3 7.54-9-13.62-14.07-4.92-20.83-2.05 3.07 4.3 5.68 6.27 7.52-1.49-5.34-3.45-8.72 2.8-11.66-3.8 4.85.58 10.51 1.27 15.77 2 6.14 9.47 6.23 14.58 8.54-1.75 3.41-7.3 3.11-9.54.12a4 4 0 0 0-2-.79c-2.12-.68-2.33 1.51-2.58 3.09-.51 2.33-.28 2.73 2 3.38-2 2.34-4.42 1.58-5.82-.95-2.78 4.1-7.32 8.57-8.76 13.71-.61 3.46-3.33 5.14-4.71 8.35 5.11-.55 9.89 1.47 14.88-.25a5.66 5.66 0 0 1 3.71.27c3.7 1.15 7.85-.66 11.4 1.18.86.44 4 .83 2.74 2.1a.37.37 0 0 0-.1.29c.88 2.23-.89 2.87-2.39 4.19-1.8 2.27-4.73 2.22-6.73 4.36-3.28 1.78-6.82 2.34-8.69 6.23-4.8 6-13.9 6.43-20.41 9.48a50.73 50.73 0 0 1-20.6 5.58c-9.7 2.38-19.06 6.06-29 2.61-2.9-.61-6.08.51-9 .77a22.15 22.15 0 0 1-13.25 4.43c-13.1-1.65-17.94-15.57-18.33-27-.79-5.32-3.8-11.07-.46-16.08 2.66 6.56 8.45 17.13 16.61 12.35 2.94-4.17 3.84-9.66 8.22-12.91 2.84-2 4.29-6.62 8.19-6.67 2.34-2.18 5.67-3 8.58-4.33s5.15-3.43 8.45-3.47a2.61 2.61 0 0 0 1.5-.49c1.93-1.91 4.58-1.81 6.93-2.45s5.07.42 7.29-.17c2.3-1.07 4.32.54 6.49.45.29-.03.76.5 1.41.9zm-115.67 5.51v-5.08h-8.15v-2.87c6.59.83 22.94-3.87 24 5.23-.12 9.77-17.39 4.35-24 5.63v-2.89zm2.91-.1c3.21-.63 8.84 1.82 9.88-2.15 0-4.54-6.87-2.18-9.88-3zm-11.12 33.12v-2.89h8.16v-5.09h-8.1v-2.89c6.16.6 20.26-2.87 23.44 3.06 3.49 12.44-16.54 6.6-23.5 7.81zm11.1-3c3.23-.59 9.14 1.85 9.91-2.43-.45-4.47-6.81-1.94-9.91-2.54zM442.99 466c-1.44-3.09 11.27-5.73 13.77-7.87h-13.82v-2.69h23.47c.92 3.64-11.65 5.1-14 7.88h14V466zm23.59-162.87v2.9h-23.49v-3h9.13c3.19.34 1.79-2.74 2.09-4.82h-11.23v-2.93h23.46v2.84h-9.21c-1.34 7.33 4.46 4.5 9.25 5.01zm-23.7 138.58v-3h23.63v2.81h-9.1v4.83h9.14v2.94h-23.6v-2.91h11.15v-4.67zm23.67-96.4v2.86h-10.87c3 3.56 12.22 4.31 10.74 9.92-13.47-8.21-9.92-7.56-23.31.31-.61-2.93-.55-3.08 1.81-4.47 3-1.78 6-3.56 9-5.69h-10.96v-2.93z"/><path d="M442.91 504.99v-2.93h23.4v2.82h-10.26l-.15.4 8.52 5c2.3 1.32 2.38 1.46 1.75 4.4-13.33-8.23-9.91-7.55-23.06.36-2.13-5 7.51-6.8 10.44-10.08zm23.5-19.79v2.89c-4.5 1.16-19.62-2.19-20.92 2.17-.86 5.7 16.83 2 20.88 3v3c-6.72-1.34-23.19 4.11-23.92-5.6.72-9.61 17.18-4.12 23.96-5.46zm.14-173.24v2.85c-4.63 1-20-2.67-21 2.55 1 5.2 16.34 1.7 21 2.67v2.65c-6.38-.69-25.6 4.07-23.73-6.64 1.74-7.48 17.43-2.91 23.73-4.08zm-15.04 66.71h-8.55v-2.86h23.57c2.99 13.17-14.68 16.89-15.02 2.86zm12 .12h-8.84c-1.03 7.54 10.11 7.13 8.83.02zm-14.1-88.85c-10.5-1.17-7.52-11.36 1.57-11.87 16-3.36 22 10.43 9.75 11.57v-2.58c4.45-.29 4.17-4.92 0-5.36-3.07-1.59-20.65-.39-13.09 4.94 2.02.67 2.02.67 1.77 3.3zm11.13 49.68c-.29-1.42-.55-2.68 1.58-3 4.6-2.5-1.52-5.42-4.37-5.3-3.66-.16-11-1.2-12.11 3.37.09 1.38 1.18 2 2.44 2.11 2.09.24 1.35 1.67 1.36 2.83-9.72.51-8.33-10.91.31-11.37 5.6-.77 15.39-1.43 17.14 5.47.43 3.62-2.3 6.16-6.35 5.89zm-15 137.67l-.19 3.39h-2.45v-10h2.51l.16 3.33h18.29l.17-3.35h2.48v10h-2.5l-.2-3.37zm-2.62-58.16v-11.32h23.56v2.74h-20.56v8.57z"/><path d="M460.41 364.67c2-.59 1.84.94 2.09 2.46.56 1.67 0 2.35-2.09 2.3zm-13 .03l.34 4.26h.75l.31-4.13h.4c.74 6.41-2.93 6-2.15-.1zm-4.67 162.37v-3.62c2.33-.04 2.33 4.08 0 3.62zm16.28-157.54l-1.09-1.82-1.09 1.6c-.72-6.58 3.01-6.07 2.18.22zm-.67-4.52h-.9l.12 2.12c1.34.24.6-1.32.78-2.12zm1.55 158.33c2.44.58 1.72 2.66.56 4l-.56-.25zm-8.65 4.25v-4c2.16.22 2.34 3.01 0 4zm13.03-.49l-.84-1.52-.87 1.52c0-1.55-.35-2.62.78-3.67 1.26 1.04.94 1.96.93 3.67zm-.47-162.52l1 1.74 1-1.71.21.09-1.22 4.38-1.27-4.34zm-12.63 4.23l1.57.21v.34l-2.15.17v-4.72h.34l.24 4zm4.6.58h-2.11v-4.58h.32v4l1.78.36zm-9.75-.01h-2.11v-4.71h.3v4.14l1.79.25zm2.38 154.61l.51 2.73h.51l.14-2.84h.28c-.05 1.17.35 2.44-.66 3.31-1.25-.66-.89-2-1-3.13z"/><g class="F"><path d="M379.27 317.74c1.39-2.23 1.94-2.53 4.24-2.19-2.26 5.52-6.82 10.72-7.08 16.68 2.55-.42 4.37-2.7 5.25-5l.78.67c-1.22 3.07-8.41 10-9.44 3.21-2.32 2.82-5.44 6.34-9.34 3.63-1.91 1.53-3.94 3.95-7.16 1.9-2.42 1.13-5.84 4.48-7.53.47-2.61 2.49-8.19 6.73-8.77.39-3.89 6.27-12.3 8.09-7.66-1.8 2.45-3.73 2.94-11.36 8.43-11.39-1.19 5.86-6.55 10.78-6.89 17l.6.29c7.59-3.85 8.77-19.32 15.72-19.39-1.4 5.63-7 11-6.68 16.74 2.85.9 5.45-4.67 6.69-6.84 4.1-6.4 13-32.76 18.61-33.88.5 5.6-6.61 13.12-8.52 18.86-2.61 6.66-7.27 13-7.9 20.2 6.71-3.26 6.69-12.93 10.53-18.87s6.81-18.81 13-21.76c2.31 3.86-22.65 41.3-15 38.79a7.07 7.07 0 0 0 2.83-4.41c1.16-4.83 4.11-8.75 7.72-12.07 1.89-1.25 6.53-5.25 7.57-1.23zm-12.45 15c1.85 6.12 12.51-12.4 10.68-15.27-6.09 2.25-8.85 9.48-10.68 15.27zm33.91-21.22c.09 1.67-1.77 4.36.28 5.23 4.19.39 2.68-7.64 8.55-7.06-.17 2.67-11.35 18.18-5.73 16.92 6.69-3.6 9.22-20.53 14.5-18.44l-8.1 17.91.34.28 7.09-6.22.42.28c-1.81 3-5.13 4.75-7.56 7.25-5.16 6.71-5.9 18.16-15.58 20.66-3 1.2-4.67-1.61-3.63-4.2 3.35-9.36 15.59-11.75 17.65-21.67-6.9 9.58-12.87 6.65-7-4.29l-2.85-.6c-3.37 4.92-5.1 11.94-11.33 13.9-3 .84-4.85-.63-3.91-3.55 5-13.75 11.83-28 21.94-38.64 1.61-1.76 6.42-2.22 5.14 1.33-3.56 9.48-12.55 15-18 23.09-1.87 5.32-6.34 10.52-5.75 16.29 6-.73 7.36-8.33 10.24-12.68.1-2.56-.8-6.02 3.29-5.79zm4.68 19.49c-4.37 4.12-13.18 9.31-11.61 16 6.61-1.41 9.04-10.47 11.61-16zm4-41.65l-.54-.37c-6.11 4.72-9.25 12.45-13.06 19 5.79-4.92 11.74-11.18 13.6-18.63zm-96.21 55.86c5.95-.9 11.81-1.23 16.77-4.87l.39.49c-4.95 7.22-14.81 6.07-22.41 7.65-4.57.54-10.55 4.93-14.5 1.11 18.21-7.07 17.49 1.42 26.06-21.84-4.8.12-12-.66-12.69-6.19-.47-3.49 2-8.5 5.91-8.5-7.31 7.94-3.64 14.8 6.95 13 4.45-8.26 7.73-20.26 18.73-21.95 3.29-.53 5.26 1.29 4.69 4.57-2.18 8.46-10.2 14.44-18 17.47-4.28 5.97-5.52 14.15-11.9 19.06zm11.54-20.5c7-2.15 12.26-7.12 15.56-13.58 3.29-7.8-3.89-6.51-7.45-2.17-4.18 4.4-6.01 10-8.11 15.75zm-31.71 135.81c2.91 10.83-17.1 20-15.55 5.24 3-10.72 14.74-17.16 25.47-16.72 3.82 1.64 6.2-.12 9.1-2.32l.34.35-3.73 3.42c11.29 6.37-5.54 20.73-5.81 14 7.22 1 8.77-8.08 4.32-12.66-6.56 10.09-7.3 23.67-17.77 30.73l.19.43c6.2-1.68 14-1.76 16.91-8.59-.09 10.35-13.31 9.15-20.53 10.66-3 .12-7.3 3.76-9.46.33 4.14-2.54 10.77-.48 13.27-5.75 6.14-9.2 8.48-20.31 16.29-28.48-11.19-4.22-26 5-26.07 17.27 2.82 10.4 12.05-2.68 12.42-8zm55.14-3.16c1.74-2.22 2.15-2.43 4.27-2-2.25 5.43-6.71 10.53-7.06 16.39 2.76-.24 3.73-2.67 5.94-4.13-1 3.18-8.33 9.69-9.17 3.06-5.12 5.21-6.42 5.72-8.71 3.85-10.07 6.05-8.18-1.08-4.95-7.85 4.68-7.58 10-26.15 16.85-30.08.85 2.67-1.42 5-2.31 7.42-4.36 10.34-12.24 20.11-13.89 31.2 4.78-.14 4.33-10.27 9.63-14.43 1.78-2.2 7.57-7.74 9.4-3.43zm-12.19 14.64c1.1 7.11 12.65-12.07 10.44-14.85-5.83 2.25-8.59 9.41-10.44 14.85zm-20.87-45.26c.24-5.54 10.1-13.8 11.47-4.7.13 7.17-7.35 15.12-15 14.86-10.23-1.11-4.79-14.23-1.41-19.74-21.82.88-4.58-19.11 8-12.86l-.14.48c-23.15-3.5-17 18.9-5.33 8.94 4.07-5.83 9.07-11.77 16.25-13.73 2.39-.65 4 .92 3.4 3.34-2.09 6.76-9.57 10.07-15.78 12.15-4.81 1.83-5.91 8.27-7 12.77-.87 17.23 20.53-.87 14-8.86-4.39-1.6-5.68 5-7.85 7.64zm.23-11.94c6.54-2.6 14.42-6.33 15.55-13.52-7.26.18-11.48 7.91-15.55 13.52zm61.88 4.64c6-11.06 11.21-22.54 16.93-33.75.91-1.46 1.87-3.33 3.87-3.27-1.39 9.27-9.15 17.29-12.29 26.32 7.76-10.72 17.38-5.44 4.61 2.69 1.82 2.66-.47 5-.16 7.75 2.89-.43 3.71-3.17 6.05-4.66-4.05 8.28-13.42 9.28-6.82-2.42l-3.13.72c-.54-3 6.72-1.16 7.16-8.68-8 .28-11 19.12-17.58 19.26l1.38-4zm36.89 39.14c5.09-12.4 11.68-24 17.39-36.18 1.23-1.84 2.2-4.54 4.61-5 1 2.29-1 4.25-1.78 6.29-3.16 6.68-7.56 13.06-10.1 19.89 7.48-10.81 17-4.73 4.36 2.91 1.9 2.67-.61 5.07-.13 7.83 2.71-.49 3.85-3 5.82-4.78-1.51 7.41-14.17 10.38-6.71-2.37l-3.14.7c.15-1.56 1-1.86 2.09-1.92 2.42-.13 5.56-4.38 4.94-7.23-9.16 3.79-10.36 18.65-17.35 19.86z"/><path d="M345.63 425.39c-.54 2.88-3.4 5.11-6.19 6-8.24-.46 2-12.39 3-16.24-6.42-1.65-11.06 19.1-16.59 19l-.4-.36c5.25-11.91 11.27-23.48 16.92-35.2 1.37-2 2.34-5.12 5-5.6-1.46 9.06-9.06 17.21-12.14 26.11 2.15-2 6.05-7.63 9-5.41 2.46 4-3.31 8.77-4.39 12.77-2.4 7.4 3.8 1.24 5.37-1.23zm14.22 32.21c1.86-2.62 9.51-10.6 10-3.93-1.11 5-5.8 9-5.47 14.19 3-.65 4-2.7 6.2-5.08-.24 3.61-5 7.7-8.48 6-3-5.34 4.17-10.71 5.19-15.95-8 .81-9.74 18-16.8 19.38 3.61-10.11 9.14-19.4 13.55-29.19 2.58-3.85 3.54-10.46 8.27-12 .75 1.61-.15 3-.87 4.41-3.82 7.44-8.03 14.55-11.59 22.17zm55.91-15.79c-1.73 5.13-14.05 25.16-.53 12-.86 3.51-9.19 10.34-9.31 2.68-2.59 2.49-4.21 6.8-9.13 4.79-6.06 4.18-8.7 1.53-5.64-5 2.54-4 2.81-10.84 8.56-11.3.08 2.62-11.11 18.24-5.18 16.53 5.39-4.45 4.89-17.32 12.33-18-1.58 5.93-7 10.72-6.88 16.88 7.6-1.89 8.73-19.29 15.78-18.58zm-38.35 8.91l-3.12.53c.24-1.23 3.71-2.31 6.48-2l-1.73 4.27.28.18c2-2.49 5.19-7.65 8.79-6 2 5-4.45 9.79-5 14.78.54 4.24 4.82-2.34 6.33-3.21 0 3.54-8.22 9.33-9.22 3.8-.23-5.54 5.23-9.13 5.65-14.42-7.69 2.73-9.15 18.56-16.41 19.27l7.95-17.2zm-55.09 12.49c.94-1.92 2.08-3 4.3-2.57-2.48 4.52-13.71 25.5-1.43 12 1.1 3.24-8.59 10.14-8.89 3.37-2.51 4.18-10.66 8.16-9 0 .17-3.96 12.3-20.41 15.02-12.8zm-12.18 14.32c.56 7.43 13.77-13.46 10.38-14.85-5.65 1.79-8.6 9.56-10.38 14.85zm55.18-68.25c-1.7 5.63-7.21 10.68-6.66 16.57 2.6-.27 4.2-2.66 6.26-4l-.24-.46c-.85 3.59-9.26 10.33-9.36 2.61-3.46 5.84-12.27 8.72-7.91-1.19 2.66-3.9 2.84-11.67 8.78-11.57-1.49 5.75-7.23 10.66-6.7 16.71 3.74-1.49 5.34-6.39 7.86-9.44 2.68-3.28 2.37-9.78 7.97-9.23zm11.94 10.13c-14.63 15.69-15.43-3.53-4.21-11.49 1.77-1.68 8.17-3.36 6 1.13-1.44 1.72-2.48-.48-2.29-2.09-7.39 4.65-13.79 26.7 0 11.35l.41 1.14zm26.15 18.4c.21 3.31-4.22 5-4.16 1.53.08-2.53 2.8-3.48 4.16-1.53zm-21.52-68.27l-.38-4.72.43-.43c.61.39 1.63.69 1.75 1.2.72 3.14.53 3.51-1.8 3.95zm-97.48 20.53l-.92-1.36-.78 2.1c-2.27-6.07 1.42-7.42 2.08-.79zm106.17-22.41l-.55-1.41-.48-.05-.29 1.78-.42.09c-1.78-6 1.55-6.76 2.19-.52zm-53.95 11.88l-1.28-2-.37.28.07 1.69-.44.09-.91-4.34c2.5-1.81 2.84 2.28 2.93 4.28zm-19.36 3.74l-.59-1.42-.41-.13-.47 1.71-.34.13c-1.65-6.24 1.5-6.64 2.25-.41zm-21.45 3.53c-1.73 3.44-4.51-2.28-2.06-3.4 1.55.12 1.59 1.97 2.06 3.4zm-1.69.61l.82-.17-.69-3.18-.74.15zm35.57-10.49l1.18-1.55c3.99 2.43.42 8.49-1.18 1.55zm1.66-.84a2.32 2.32 0 0 0 .84 3.54zm63.15-9.19l-1.57-2 .17 2.32-.41.05-1-4.48.32-.15 1.52 1.94-.15-2.17.39-.08 1.07 4.49zm-65.87 13.91l-.82-2h-.41v2.32l-.44.06-1-4.57.32-.14 1.12 1.65.34-.23-.09-1.71.45-.08 1 4.51zm67.91-14.33c-.13-1.37-2.21-5.58.58-4.66 1.25 1.76 1.86 3.3-.08 4.89zm.48-.63c1.06-1.68.81-2.77-.73-3.56zm-35.33 3.17l.56 1.63h.35l.28-1.92h.45l.41 4.76-.47.09-.51-2.21h-.45l-.43 2.5h-.38l-.22-4.74zm50.98-7.75c-2.4 5.28-4.28-.87-1.5-2.73.47.8 1.33 1.45 1.11 2.45zm-1.27-2l-.86.09.25 3.44.85-.08zm-68.61 17.45l-1.05 1.49c-4.18-2.25-.34-8.61 1.05-1.49zm-1.69.88c1.1-1.25.77-2.75-.79-3.89zm72.8-14.85l-.23-4.71.46-.05.32 1.67 1.26-2.11c-.61 1.7-.7 3.27.92 4.67l-.54.2-1.6-1.75v2zm-54.37 7.81l-1.14-.31v3.49l.75-.06-.2-1.66 1-.28v2.29c-3.14 2.56-3.65-5.93-.2-4.13zm-67.79 17.99l-1.66-2.15.34 2.47-.44.08-1-4.39.35-.16 1.65 2.07-.3-2.23.46-.1.94 4.27zm115.32-26.63l-.3 2.37h-.36l-.35-4.59.42-.08.66 1.64h.36l.34-1.92h.36l.32 4.59-.38.1-.65-2.1zm-88.19 16.19l1 3.94.65-.1-.52-4.09.52-.12c1.69 6-1.54 6.81-2.19.49zm59.53-12.36a17.92 17.92 0 0 0 .44 3.86h.54v-4.27h.61c.85 5.91-2.59 7.06-2.06.47zm39.42-3.72c-.09-2.35-1.31-4.48 1.46-5.44l.23.38-1.23 1.44 1.23.44-1.68 2.25h2l.08.36zm-115.91 19.78l-1.11 1.37 1.58.51c-.23.64-2 .84-.76 2.19h1.35l.06.33-2 .55c-.26-1.86-2.63-5.44.88-4.95zm102.85-17.73c-3.24 3.94-3.5-6.82.11-3.14-2.1 0-2.51 1.28-1.39 3.43l.88-.75zM298.12 387.2l-2.19-4.23.5-.27 1.56 2.71.23-3h.3v4.64zm53.94-15.83l-1.56 1.17.22.41 1.68.19c-1.12.62-1.29.94-2.11 3.1v-4.86L352 371zm21.11-3.5l-1.11-.65v3.69l.41.09 1-1.2c.1 1.43-.6 1.78-1.63 1.61-1.33-1.07-1.06-5.91 1.62-4.22zm-29.63 4.94l2-.41.14.34-1.68 1 2.14.87-1.29.67.19 2.06-.48.09zm22.97.15c-1.15-1.33.48-3.6-2.3-4.46l3.21-.75c-1.76 1.5-.18 3.53-.91 5.21zm-11.03 2.24l-1 .17-.3-4.77.89-.22zm-30.95 1.66c-1.73 1.73.34 3.37-.26 5-1.28-1.18-.1-3.65-2.37-4.47zm-20.23 4.33l.94 3.81 1.54.07.08.32-2.15.64-.94-4.76zm71-11.02h1.64l.07.36-2.35.6v-4.74h.32l.32 3.78z"/></g><g fill="#efef50"><path d="M576.3 428.81l-4.71-.72 1.3 1.06c-5.59 2.81-4.79-1.2-11.89-.25l4.38 2.05-.16-1.67 2.89 1.53v.39l-2.87.18 2 1.23-3.79-.52.68-.76c-1.22-.37-1 .38-1.53 1.34l-1.22.06v.38l2.73.47c-.64 1.11-1.31 1-6.13-1.38 1.36-.44 3.16.13 3.55-2l-2-.69c.31-.54.63-1.12 1-1.7l-.37-.36-2.08.4 2.35-1.87-3.3-1.17v-.26l2.12.25.17-.24-1.84-1.23 2.25-.19-1.38-1.15.38-1.7-3.29-2.48 3.8 1.1-2-1.56 1.58-.1.12-.44-4.53-1.55v-.28l4.16.51c-.42-1.35-3.21-2-5.18-1.12.39-2.19 2.59-.55 4.1-.72l.1-.51-2.7-.65v-.23l3.56.29c-1.39-1.6-3.74-.21-4.75-2 1.08-1.87 2.56-2.34 4.62-1.74l-2.65.86.12.56 7.76-1.07-4-1.13v-.15a15.37 15.37 0 0 0 3.39-.18l-.11-.66 2.4.51v.38l-1.48.19v.22h7.92l-2.28 2 4.39-.38.06.66-2.45.29v.35h4.68l-1.63 1.16.66 1.69c1.33 0 3.19-.56 3.27 1.8l-2.15.62 4.41 1.19c-1.4 2.21-2.2-.62-3.33-.06l-.77 1.58 5.7.77v.37h-1.92l2.15 1.28c-1.25 1-1.88.89-3.6.69l1.83 2.87h-4.33v.31l3.09.43v.45l-3 .22.55.93h-2.8l-.06.26 2 .7zm-72.78-3.23c2.4 2.42 4.75 1.9 7 .31 3.15 2.88 3.19-.2 7.08.7l.27 1.55-1.2.16.57 1.8 2.71.39-.07.67-2.5-.22 2.77 2.61v1.65h-1.47l.32 2.51 1.67-.5.1.16-1 .73 1.25.5c-2 1-3.61-.19-5.54-.25l3.56 2.57-1.52.1 1.89.79v.22l-6.43-1.22-.13.44 1.93 1-.06.35-2.91-.61 2.43 2.54-2.44.18 2.07 1.14c-4.24.83-6.18-1.86-8.18-4.58l1.73.66c-.92-10.67-7.64-5.58-6.72-9.54-1.62-5.91-10.1-11-7.83-17.57 4.2 8.23 8.18 16.57 16.38 21.61a2.81 2.81 0 0 0-1.67-3c-2.73-1.48-7-6.84-8.15-9.58.73.89 2.31.77 2.5 2.48.05.51 1.5.88 2.51 1.05l-1-1.28zm39.35-4.97c0 .58-.55 1.64.65 2.21-.72 1.14-1.4 1.72-2.77 1.11l-.17.48 2.34 1-.6.79 3.41-.6c-1.47.48-2.39 2.64-4.48 1.67l1 1.69 1.54-.59.13.21-1.77 1.52 1.43.08-1.62 1.32 1.85-.09c-.69 1-6.36 1.29-8.66.44l1.48-.48v-.3l-4.77-.49v-.53l4.48-.48v-.3l-4.93-1.21.08-.46 3 .37-1-2.19 1.47-.82-2.36-.93 1.92-.21.11-.5-1.75-.54 1.92-1.33-.09-.42c-.66 0-1.52-.26-1.94 0-1.37 1.05-.84-.32-1.14-.83l3.71.42.06-.35-1.33-.37.14-.93-3.81-.41-.05-.24 2-.73c-1.65-1.05-3-2.65-5.21-1.69.79-.61 1.57-.53 2.35-1.27l-2.7-.13-.23-.35 1-.27-.36-.62a40.37 40.37 0 0 1-7.17 1.29l1.88-1-.18-.45-2.23.84-.19-.36 3.8-1.83v-.21l-4 .58-.13-.53 6-2.67-.14-.32-4.1 1.17-.16-.55c.81.12 1-1.82 2.21-.55.39-.38 3.07-2.64 3.2-.81l5.83-.87.12.54-1.76.58c3.49.33 5.81 2.26 7.53 5.18l-2.17-.23c3.26.63 4.76 3.52 7 5.38-1.12 2.61-3.16 0-5 1.07zm39.69 17.02l-.79.44v.2l2.55-.28.1.33a25.27 25.27 0 0 1-4 1.85 7.83 7.83 0 0 0-5.88.93c1.35 2.19-3.59 1.54-4.79 1.47l2.46-.92-.14-.47c-2 .66-4.16 1-5.77 2.47l.22.64-3.83-1c-1-.07-5.61 1.76-5.54 3.05l-3.1-.59.17.67-1.77.93-.24-.38 1.17-.83c-.82-.46-2.22 1.08-2.31-.86-2.21-.34-4.83.57-6.44-1.61 3.76-.08 7.39.68 10.15-2.12 1.51-.88 2.52-2.39 4.56-2.7 3.93-2.45 8.51-6.18 13.6-5.17l-.41.36c2.45 1.15 5.58.7 7.59 2.67.46.63 1.68.67 2.44.92zm-23.74-38.1l2.44-.35-1.48 1.24 4.18.75-1.34.44c1.25 1.54 3.4-.49 5.18-.06l-5.45 1.67c1.27.48 1.42 1-.19 1.67l5.55.8v.19c-2.26-.46-4.48 1-6.43-.23v-.84c-4 1.38-8.31 4-12.55 3.83l2.79-.68v-.38l-3.29-.53 1.87-1.15-1.41-.27 1.26-.94-1.12-1.57.37-.33-1.21-.18 1.26-.19-1.3-.68 1.13-.95h-2.34l1.61-.92-.14-.38-3.6.43v-.11l8.47-2.87.13.39-.92.86.2.37c2.29-1.32 5.12-2.65 6.57.46zm27.47 34.87l3.53.27c.08 1.67-1.35 1.74-2.25 2.11-.66.27-1.64 1.26-2.42-.16-.67-.65-2.29-.22-3-1.22l1.63-.12-2.23-1.66c-.73.44-1.61 1.52-2.57 0l.94-1-.11-.34-3.69.77.83-1.75-.33-.33-2.36 1.56c-.35-3.09 3.56-2 5.29-2.8 1.47 1.85 2.52 2.06 4.47.91l-.16-.66-2 .21.55-1.48 5.09-.58-.57.67c5-.53 5-.53 4.92-1.38 3.52-1.32 6.06-.19 9.34 1.5-4.11 2.74-2.93-1.17-7.49 1.67l.15.47 1.09-.3.19 1.95c-2.96 2.52-5.17-.9-8.84 1.69zm10.41-15.35c-3.69.14-3.69.14-4.32-2.19l3-.91-1.6 1.9 5-1.63v1l3.55-1.12.09.94 2.69-1.94-1.24 2.05 2.78-1.48v1.09l1.74-.82.22.76 3-1.21c-1.25 2.65-4.3 2.1-5.51 4.19l7.85-3.78v.82l-6.72 2.87.17.53c1.32.41 2.78-1.37 4.35.22l-2.11.31-.05.35 3.74.76v-.13l-15.4-.53-.52 1.32c-.93-1.69-3-.93-4.55-1.79zm-51.46-11.49l-1.83 1.25 1.15.85-3.68.83.05.29 4.19-.2c-2.14.81-4.95 3-5.1-1l-1.18 2.49.42.27a8.25 8.25 0 0 1-1.25.38l.68-5.42-1.93 1.61-.51-.09c1.07-1.73.82-3.24-.61-4.85l-.48 1h-.4l-.55-2.26-1-.48c2.33-1.14 5.28 1 7.06-2.25l-.34 2.49.45.25 1.94-1.61a12.44 12.44 0 0 0 .08 1.52l1.53.63-1.62.57 1.39.89-1.9.67.11.48 2.46-.21.06.31-1.27.63z"/><path d="M528.06 437.34l3 1.25.31-.72-2.96-1.27c.85-1.86 3 .38 4.14-1.17-.87-.55-2.43.38-3-1.26l2.47.45.12-.42-2.58-1.07c.49-.5.71-1.43 1.54-.17.27.41 1.6.49 2.22.21 3.58-1.06 6.49.74 10.28-.07l-1.85 1.23c2.33 1.61-1.7 4.56-3.38 5-3.61.2-5.52-2.38-9.28 0l-1.68-1.34zm20.17-13.32l-1-1.67-2.2 1.82 2.61-4.15-1.72.28 2-2.06-.51-.59-2.77 2.1c-.08-1.61.45-2.45 1.38-4.08a18 18 0 0 0-2.61 1.14c-.41-.84-1.33-2.94.53-2.33 2.33 0 .75-1.72 5-1.48l-1 .51 5 1.6v.26l-2.39-.31-.21.35 1.49 1.31-2.25.2-.08.45 2.66.7v.32l-3.62.79c2.18 1.65 4.21-.76 6.24.81l-3.14.15 3.5 2.13-1.35.16.75 1.23-1.85.52-.2-2.91c-1.46 1.07-3.37.94-4.11 2.77zm-43.13 23.61c-1.51-.94-3.15-4.37-4.86-3.46l5.17 5.84c-6.75-3.12-11.76-13.49-9.86-21 1.22 1.09 1.37 2 1.05 3.65 1.42 8.26 8.81 14.31 16.28 17.25l-3.36-.41 1.13 1-1.78-.54a7.93 7.93 0 0 0-3.61-2.89zm98.86-69.52l1.18.55-.67 1c3.58 3.06 7.88 4.42 11.5 7.52l-.22.39c-3.09-1-5.73-5.26-9.08-3l-.76-.57c-.68 2.19-.91 4.5-1.38 6.74h-.45l.19-3-.37-.26c-2.16 2.19-3.52 5-5.27 7.52l-.37-.23c2-3.75 5.86-7 5.49-11.56 0-.54.66-1.49.52-1.6-1.3-1-.62-2.76-1.62-3.86a28 28 0 0 1-3-4c1.7 1.11 3.09 3.2 5.28 3.15-.32.34-.61.73-.97 1.21zm-29.98-7.58l-.68-4.72c4.09-.74.4-2.72-.92-4.6 2.14-.54 3.55 1.67 5.84.3-2.59 2 .77 6-2.92 7.54a4.17 4.17 0 0 0 .33-3.14c-2.5 1.68-.75 2.33-1.48 4.67zm15.27 51.5l-2.84-1.22.25 2-2.43-.43v-.34l1.52.12-4.12-6 .06-.45 3 .78c2.69-1.43 3.65.73.32.7 1.86.94 1.89 1.08.39 2.42l3.06-.13-.89 1.51 1.84.41zm-8.76-7.81c1.63.48 1.57-.62 1.67-1.71l-3.49-1.7 1.84-.49.08-.37-1.61-.47v-.24h5v.57h-2.42c1 .74 2.1 1.25.62 2.35l5.06 1.23-.1.41-3.19-.34-.11.55 2.55.71-2.43.79zm-58.16 33.42l1.3 1.17c-3.48 1.51-7.32 4.41-11 2.15l5.78-.78v-.32l-.91-.46c2 .28 3.13.39 4.28-1.52l-1.78-.46c2-.56 5.37-3 7-1.47zm16.08-1.83l-2.31-.16v-.18a42.77 42.77 0 0 1 8.58.28l-1.63.89 1.27.6-.06.17-3.78-.79-.09.38 2.43.7-.08.39-5.84-.93v-.33l1.58-.56zm27.07-89.83c2.81.95 6.62 5.71 6.73 8.18l-4.8-2.63 2.58.37-4.51-5.92zm-61.62 85.27c-2.51-1.1-2-3.43-2.65-5.17 1.8.08 3.72 1.11 3.41 2.09s1.26 2.87-.76 3.08zm66.33-44.54l-.42-1.93-1.44-.49-.07-.35c1.12-.27 3.5-.27 2.87-1.87-1.08-2.45.67-4.42.57-6.67l.48.05c-.73 3.74-.21 7.61-1.23 11.31zm6.97 10.72l2 1.1h-5.27l.22-1.68-2.92-.78.1-.62c2.73.76 5.4 2.08 8.34.52v.62zm-32.42 35.45l-10.2 1.28-.39-1.4c3.49 1.05 7.03-1.19 10.59.12zm42.06-34.55l6.29-5.58c-.05 1.68-4.26 5.88-6.29 5.58zm-10.22-37.95l1.76-2.22 2 .9.91 3c-1.61-1.31-2.6-3.57-4.67-1.68z"/><path d="M532.41 441.81l-8.23-1.82c3.29-1.43 5.87.33 8.23 1.82zm8.84-26.18c-2-2.79 2.24-3.49 4.26-3.19-1.47-.26-2.21 2.41-4.3.45l.51 2.5zm56.69 8.08l-4-.59.62 1.24a9.65 9.65 0 0 1-2.52-2.41l6 1.28zm-49.74.34c.72-.07 1.69-.79 1.69.81l1.56-.33.17.43a6.44 6.44 0 0 1-4.1.81l.71-1.75zm28.21-17.67c-1.61-1.06-3.32-1-4.75-2.36l6.31 1-1.87.08z"/></g><path d="M505.1 447.63l.17-.6a7.93 7.93 0 0 1 3.61 2.89c-1.47-.52-2.87-.97-3.78-2.29z"/><path d="M618.77 419.24a9.75 9.75 0 0 1-6.44-.59c1.83-1.24 4.14.82 6.44.59zm-94.59 22.28c1.06-.75 1.06-.75 3.37 1.88-1.75-.4-2.4-.51-3.37-1.88zm27.56-6.19l4.38.67-.07.57-4.41-.53zm10.87-36.66h5.86v.27h-5.86zm-4.88 36.6c.63.41 2.56-1.63 3.49.59zm-8.12 6.29h4.1l.05.27-4.11.51zm-6.04 3.36h-3.16c.69-1.36.69-1.36 3.16 0zm-16-38.42l3.56-.61.1.64-3.6.32z" fill="#efef50"/><path d="M454 399.81v-5.11c3 .78 9.86-1.58 9.88 3-1.04 3.91-6.67 1.46-9.88 2.11zm-.02 30.12v-5c3.1.6 9.46-1.93 9.91 2.54-.77 4.34-6.67 1.87-9.91 2.46zm9.52-51.12c1.28 7.13-9.86 7.54-8.84 0zm-5.15-13.8c-.18.83.56 2.36-.78 2.14l-.12-2.12z" class="F"/><path d="M366.82 332.74c1.83-5.79 4.6-13 10.68-15.27 1.85 2.81-8.83 21.41-10.68 15.27zm38.59-1.73c-2.57 5.52-5 14.59-11.61 16-1.56-6.7 7.24-11.87 11.61-16zm4-41.65c-1.89 7.49-7.84 13.71-13.6 18.64 3.81-6.56 6.95-14.29 13.06-19zm-84.67 35.36c2.1-5.75 3.93-11.35 8.11-15.75 3.55-4.33 10.74-5.64 7.45 2.17-3.3 6.46-8.55 11.43-15.56 13.58zm11.24 147.29c1.85-5.44 4.61-12.6 10.44-14.85 2.22 2.73-9.34 21.97-10.44 14.85zm-20.64-57.2c4.05-5.6 8.29-13.34 15.55-13.52-1.13 7.19-9.01 10.92-15.55 13.52zm-5.2 62.72c1.78-5.28 4.73-13.06 10.38-14.85 3.4 1.35-9.82 22.29-10.38 14.85zm-16.01-90.11l-.61-3.2.74-.15.69 3.18zm37.28-11.33l.84 3.54a2.32 2.32 0 0 1-.84-3.54zm65.62-10.28l-.73-3.56c1.54.83 1.79 1.92.73 3.56zm14.38-6.55l.24 3.45-.85.08-.25-3.44zm-70.3 18.34l-.79-3.89c1.56 1.1 1.89 2.64.79 3.89z"/><path d="M808.32 406.64c-3.47-30.12-42.62-29.32-64.16-20.12a85.13 85.13 0 0 0-25.42-18.49c6-27.22-30.41-47.61-51.55-31.37-12.8 10.34 10.92 17.18 7.49 3.59h.54a.42.42 0 0 1 .46-.23c4.82-1.36 12.37-.08 15.34 4.34 3.11 4.74 2.48 14.14-3.52 16.12l.06.09c-17.44-.66-41.7 8.19-37.19 29.73-6.71-2.43-8.59 7.38-11.67 11.4-22.82 28.35 21.5 40.44 42.32 46.55-9.58 19.2-13.91 41.94-8.28 63-8.43 18.22.17 41.3 7 59-15.24 9.71-4.17 15.93 7.9 10.14h.1c7.71-4 6.25-14.92 8.92-22.21a1.62 1.62 0 0 1 0-.19v.15c.16 0 .33 0 .4.14 1.47 4.31 1 9.72 1.87 14.25-7 7.93.92 9.39 7.81 7.79 9.38-2.11 13.23-36.23 11.66-44.62 7.34-4.77 11.22-13.27 12.4-21.71 7.76 16.94 23.78 8 8.45-5.67 25.62-11.77 16-24 27.12-37 7.26-6.41 18 4.44 14.07 12.41-4.51-5.11-10-3-5.79 3.62-6.22-.34-11.27 4.45-3.87 8.31-.75 4-2.61 12.31.17 15.37a30.23 30.23 0 0 0 16.73-9.65c7.48 1.91 7.82-3 3.47-7.68 5.82-.6 7.12-5.89.46-6.31 9.21-19.28-23.83-42.19-36.2-22.58-7.91 11-4.18 30.89-21.09 33.75l-1.13.08c-10.26-16.22-21.67-32.66-25.52-51.89 19.39 9 60.5 3.07 55.68-25.33 3.07-5.29 7.25-17.57 14.73-21.2 7.73-2.25 23.84-2.4 21.23 9.58-15.09 6.53 11.1 21.13 9.01-3.16zm-121.53 32.83c-12.28-6.08-26.79-10.11-36.78-19.34-2.94-5.24 2.57-11.24 3.71-16.55 6.67 15.45 19.5 27.6 34.17 36zm33.62 57.4c-10.53-5.66-15.61-17.78-16.16-29.25 3.54 8.65 12.53 24.56 16.16 29.25z" fill="#ff2ee5"/></svg>