<svg xmlns="http://www.w3.org/2000/svg" viewBox="0 0 2263.15 1282.41"><defs><style>.a{font-size:1183.59px;font-family:Bauhaus93, "Bauhaus 93";}.b{fill:#00a4ff;}.c{fill:#cfffca;}</style></defs><text class="a" transform="translate(0 986.52)">RCP</text><circle class="b" cx="1159.39" cy="594.33" r="188.69"/><path class="c" d="M1073.63,1155.68l-4.85,2.91-20.86-8.73-19.4-9.22c-3.88-29.1-27.65-25.22-27.65-25.22-7.66-11.71-21.13-20.59-38.32-27.65-4.11.43-7.35,2.3-7.28,9.7l-5.33-1.46c-.49,4.31-.08,8.21,2.42,11.16l-9.21,19.46v16.43l17.46,36.87,11.64,11.16,8.73,31,19.4,33,10.19,10.18,4.37-13.58.69-1,5.13,1,15.52-23.77-1-5.33c4.25-5.54,10.18-8.74,18.43-8.74l5.82-11.15.49-16.49,16-16Z" transform="translate(56.66 -514.78)"/><polygon class="c" points="1027.45 550.19 1025.51 545.83 1031.13 550.19 1027.45 550.19"/><polygon class="c" points="1021.15 542.92 1015.81 541.95 1013.39 536.61 1007.57 533.22 1011.45 532.25 1015.6 537.58 1021.15 542.92"/><polygon class="c" points="1203.78 454.88 1199.23 454.88 1199.23 447.87 1202.32 450.03 1203.78 454.88"/><path class="c" d="M1242,991l-2.22,2.42-5.33-2.42-6.31,6.3,7.28,9.7,7.76.49,1.13-2.91H1247l2.43,8.6v11.29l-18.92-4.37v8.73l-24.5-9.94-.48-5.82-5.7-2.43h-13.71l-6.3,2.43-2.43,3.39-7.76.49-2.91-1.94-2.42,1,.48,4.36-4.36,3.4-3.88,4.36-1,4.37,2.42,1.45-4.39,5.83h-2.89l-5.82,7.27-.48,3.88-6.31,9.84V1064l3.4,2.42-1.46,2.91,2.43,2.91-.49,10.68-3.39,3.39,2.91,4.37-1,6.3,6.3,3.4,24.74,23.77,9.22-5.34,9.22,1.94,14.06-7.27,13.58,7.27,5.82-1.45,3.77,2.42,1.09,6.72-4.37,8.32.48,5.33,7.28,8.25-1,4.85,3.4,1.49v17.91l-9.46,18.92,2.18,5.82-4.37,20.26v15.64l23-17.71,15.52-20.86v-7.76l4.85-6.3,6.79-6.79,5.82-18.92-1.46-5.82L1282,1137l2.42-15.28,1.33-12.12.59-20.12-2.91-7.76-30.08-53.84c9.74,7.86,19.93,23.94,30.56,47.54l-17.46-52.88v-3.39l-12.61-17.46-9.7-11.64-9.71-8.25-8.24-8.73,3.08-3.4-41.14-28.32-5.24,3.56h-12.95l11.65,4.37L1198.05,960a21.07,21.07,0,0,0-14.36,6.2c-8.2-1.59-13.53.91-15.72,7.87l-8.73,4.36L1171.86,991c-8.92-2.09-16.38-3-20.38-1l-1.45,5.33,5.82,3.4-1.46,5.33c1,3.78,3.4,4.85,10,8.25h6.51l6.31-6.31-.48-7.76,14.06-10.67a39.64,39.64,0,0,0,19.41,10.67l-17.47-12.12,2.91-5.34,30.56,26.19-6.3-11.15,7.27-1L1217,980.32l6.79-2.42,10.18,9.7,2.43-1Z" transform="translate(56.66 -514.78)"/><path class="c" d="M1141.3,924.54v-.17a189,189,0,0,0-209.65,105l-.87,2.34.48,4.37-2.42,6.79-2.43,8.75v12.59l4.37.73v7l6.37,8.06v7.71l6,10.62,6.79-2.38-6.07-.72-4.25-7.52.37-4.61,3.88-11.64-6.3-1.94-.73-4.51,6.31-14.56-3.64.16-3.88,9.22-4.61-2.2-.26-8,7.76-20.37,9.21-8.25,1,3.4h2.91l.49-2.91,3.4-1,3.39,3.39,1,3.88-3.88,7.28,3.4,3.39,4.36-9.21V1023l7.28-7.28,8.73-5.82,3.39-5.33,3.88-4.85,4.37-1.46,1.46-2.91,8.73-1.94.48-3.88,8.25-4.36,4.36,2.42,7.76-1.94.49-3.4-2.91-1v-2.42l4.36-5.34-.48-3.39,4.37,2.42,6.79-1,6.79-2.42v1.94l-9.22,6.3,3.88,1.46h5.34l-1,3.88,5.82-2.91-2.91-6.79v-2.91l3.88-2.91-5.82-9.7-3.88-7.28-3.88-2.43-3.88,2.43-17.47,12.61-3.88-4.85v-6.79l14.07-8.25,4.37-1,5.33-1.94,13.58-4.36,8.25-1L1043.78,943l1.94,2.91,10.67-7.27h5.34l13.58-2.43-6.79,6.31-1.46,6.3,6.31,3.89,13.09-9.22,18-2.43,7.76,2.43,2.43,2.91,5.33,1,5.82-2.43,1.46-4.36-4.37-1.46-4.85-9.7,7.76-3.88Z" transform="translate(56.66 -514.78)"/><polygon class="c" points="1224.15 439.84 1224.63 447.12 1220.37 454.88 1213.93 458.27 1209.11 459.24 1210.57 452.45 1205.84 447.87 1202.32 446.63 1202.32 440.78 1207.17 445.66 1211.78 447.87 1214.92 451.37 1220.37 446.07 1217.56 440.78 1216.87 435.96 1214.45 434.5 1211.54 419.95 1219.78 427.23 1228.03 434.02 1233.37 438.87 1236.76 444.69 1232.88 447.12 1224.15 439.84"/></svg>