<svg xmlns="http://www.w3.org/2000/svg" viewBox="0 0 1930.54 587.28"><path d="M450.33,1194.49a425.3,425.3,0,0,0,76.28,41.33,471,471,0,0,0,88,26.74q11.38,2.2,11.38,11,0,12.15-16.9,12.15-38.58,0-108.39-33.85-58.05-28.34-133-87.57v15.08L368,1242v35.69H144v-16.56l.74-119.94,1.1-143.49-.74-222.23h147.8q99.27,0,150,5.52t86.41,20.6q58.08,24.29,91.91,79.84,31.24,51.51,31.25,108.17,0,60.35-34.91,113.69Q561.31,1189,450.33,1194.49Zm-34.91-22.81,17.64.36q75.68,0,127.86-42.31a173.79,173.79,0,0,0,50.7-66.22q16.53-36.43,16.54-74.33,0-64.38-41.89-115.16a171.77,171.77,0,0,0-80.09-55.56Q458,802.27,370.61,801.17l-3.32,246.51v66.6l.37,17.29A472.78,472.78,0,0,0,415.42,1171.68Z" transform="translate(-143.96 -767.74)" fill="#900"/><path d="M1789.72,1187.5v10.3l.37,70.64v9.2H1565.65l.37-22.44,1.84-258.66-1.47-122.89-.37-83.52-.37-14.71H1733.8q103,0,156.19,8.83t89.22,31.64q48.57,30.54,75.05,85a196.86,196.86,0,0,1,20.24,87.2,205.18,205.18,0,0,1-22.81,94.19q-27.24,53.73-77.08,82.6t-115.35,28.88Q1835,1193.75,1789.72,1187.5Zm.37-387.06v24.65l-1.47,245.77.74,91.62q29.06,7.73,75.42,7.73a191.29,191.29,0,0,0,78.74-16.56,175.39,175.39,0,0,0,62.91-46.73q43.78-51.14,43.79-118.84,0-64.38-43.42-116.63-30.9-37.17-79.84-54.09t-125.83-16.92Z" transform="translate(-143.96 -767.74)" fill="#900"/><path d="M1110.83,1355S649.06,1224,704.21,945.18c81.19-222.13,547-172.77,547-172.77Z" transform="translate(-143.96 -767.74)" fill="#900"/><polygon points="1095.7 100.97 1094.77 92.63 1033.54 43.45 1107.21 4.66 1176.99 55.88 1095.7 100.97" fill="#fff"/><polygon points="1054.34 114.44 1094.77 92.63 1027.41 39.18 993.48 54.68 1054.34 105.16 1054.34 114.44" fill="#fff"/><polygon points="1054.34 105.16 987.17 50.23 949.44 67.6 1011.23 119 1011.05 128.83 1054.34 105.16" fill="#fff"/><polygon points="942.2 62.03 905.99 79.54 968.72 131.87 969.09 141.15 1011.23 119 942.2 62.03" fill="#fff"/><polygon points="900.79 73.04 968.72 131.87 925.71 155.09 923.48 145.44 863.91 90.69 900.79 73.04" fill="#fff"/><polygon points="856.87 84.56 820.47 103.22 880.03 160.93 882.7 168.78 923.48 145.44 856.87 84.56" fill="#fff"/><polygon points="772.71 115.74 814.53 96.72 880.03 160.93 832.46 184.03 831.91 175.5 772.71 115.74" fill="#fff"/><polygon points="713.61 130.48 765.84 109.07 831.91 175.5 781.9 196.92 713.61 130.48" fill="#fff"/><polygon points="594.85 179.28 651.81 251.29 652.37 245.16 771.14 186.89 707.49 123.98 594.85 179.28" fill="#fff"/><line x1="707.49" y1="123.98" x2="771.14" y2="186.89" fill="none" stroke="#900" stroke-miterlimit="10" stroke-width="3"/><line x1="1094.77" y1="92.63" x2="1027.41" y2="39.18" fill="none" stroke="#900" stroke-miterlimit="10" stroke-width="3"/><line x1="1054.34" y1="105.15" x2="987.17" y2="50.23" fill="none" stroke="#900" stroke-miterlimit="10" stroke-width="3"/><line x1="1011.23" y1="119" x2="942.2" y2="62.03" fill="none" stroke="#900" stroke-miterlimit="10" stroke-width="3"/><line x1="968.72" y1="131.87" x2="900.79" y2="73.04" fill="none" stroke="#900" stroke-miterlimit="10" stroke-width="3"/><line x1="923.48" y1="145.44" x2="856.87" y2="84.56" fill="none" stroke="#900" stroke-miterlimit="10" stroke-width="3"/><line x1="880.04" y1="160.93" x2="814.53" y2="96.72" fill="none" stroke="#900" stroke-miterlimit="10" stroke-width="3"/><line x1="831.91" y1="175.5" x2="765.84" y2="109.07" fill="none" stroke="#900" stroke-miterlimit="10" stroke-width="3"/><polygon points="681.74 283.61 652.38 245.18 770.82 181.89 798.5 215.11 681.74 277.49 681.74 283.61" fill="#fff"/><polygon points="711.68 313.55 681.74 277.49 802.76 213.07 829.74 242.65 711.12 307.06 711.68 313.55" fill="#fff"/><polygon points="743.19 345.46 711.12 307.06 835.5 239.86 864.78 272.14 741.9 340.08 743.19 345.46" fill="#fff"/><polygon points="903.42 304.53 870.53 269.17 741.9 340.08 779.43 382.49 778.13 374.32 903.42 304.53" fill="#fff"/><polygon points="778.26 374.34 910.99 296.01 943.29 330.63 812.98 408.4 814.1 416.76 778.26 374.34" fill="#fff"/><polygon points="812.98 408.4 950.35 326.18 985.58 363.61 851.28 443.33 849.7 451.04 812.98 408.4" fill="#fff"/><polygon points="988.69 356.09 851.28 443.33 966.87 587.28 1113.01 484.77 988.69 356.09" fill="#fff"/><line x1="770.82" y1="181.89" x2="652.38" y2="245.18" fill="none" stroke="#900" stroke-miterlimit="10" stroke-width="3"/><line x1="681.74" y1="277.49" x2="802.76" y2="213.07" fill="none" stroke="#900" stroke-miterlimit="10" stroke-width="3"/><line x1="711.12" y1="307.06" x2="835.5" y2="239.86" fill="none" stroke="#900" stroke-miterlimit="10" stroke-width="3"/><line x1="741.9" y1="340.08" x2="870.53" y2="269.17" fill="none" stroke="#900" stroke-miterlimit="10" stroke-width="3"/><line x1="778.26" y1="374.34" x2="910.99" y2="296.01" fill="none" stroke="#900" stroke-miterlimit="10" stroke-width="3"/><line x1="812.98" y1="408.4" x2="950.35" y2="326.18" fill="none" stroke="#900" stroke-miterlimit="10" stroke-width="3"/><line x1="851.28" y1="443.33" x2="988.69" y2="356.09" fill="none" stroke="#900" stroke-miterlimit="10" stroke-width="3"/><polygon points="1383.9 257.6 1300.95 313.63 1213.36 240.34 1295.57 188.56 1383.9 257.6" fill="#900"/><polygon points="1264.39 156.46 1183.1 206.75 1213.54 231.81 1295.75 180.58 1264.39 156.46" fill="#900"/><polygon points="1234.14 124.54 1153.23 173.53 1184.22 198.4 1264.39 148.29 1234.14 124.54" fill="#900"/><polygon points="1152.3 165.37 1234.88 117.12 1205.37 94.1 1124.1 141.05 1152.3 165.37" fill="#900"/><polyline points="1094.77 92.63 1095.7 100.97 1176.99 55.88 1107.21 4.66 1084.77 98.03 1094.77 92.63" fill="#900"/><polygon points="1205.75 85.57 1176.61 64.41 1095.15 109.7 1123.73 133.26 1205.75 85.57" fill="#900"/><polygon points="1032.31 393.17 1082.78 359.72 1163.99 441.31 1113.84 476.28 1032.31 393.17" fill="#900"/><polygon points="1082.78 351 1129.5 319.05 1212.38 397.56 1165.66 433.87 1082.78 351" fill="#900"/><polygon points="1172.7 281.75 1130.42 311.58 1216.55 389.17 1256.6 356.37 1172.7 281.75" fill="#900"/><polygon points="1212.97 248.52 1173.63 273.77 1260.68 349.13 1298.91 321.48 1212.97 248.52" fill="#900"/><polygon points="1015.82 384.16 966.87 587.28 1113.01 484.77 1015.82 384.16" fill="#900"/><line x1="1094.77" y1="92.63" x2="1087.87" y2="87.15" fill="none" stroke="#fff" stroke-miterlimit="10" stroke-width="3"/></svg>