<svg xmlns="http://www.w3.org/2000/svg" viewBox="0 0 1881.76 805.84"><path d="M1110.83,1355S649.06,1224,704.21,945.18c81.19-222.13,547-172.77,547-172.77Z" transform="translate(-151.93 -549.18)" fill="#900"/><polygon points="1087.73 319.54 1086.8 311.19 1025.56 262 1099.24 223.22 1169.01 274.44 1087.73 319.54" fill="#fff"/><polygon points="1046.36 333 1086.8 311.19 1019.44 257.74 985.5 273.24 1046.36 323.71 1046.36 333" fill="#fff"/><polygon points="1046.36 323.71 979.19 268.79 941.47 286.16 1003.26 337.56 1003.08 347.39 1046.36 323.71" fill="#fff"/><polygon points="934.23 280.59 898.02 298.1 960.75 350.43 961.11 359.7 1003.26 337.56 934.23 280.59" fill="#fff"/><polygon points="892.82 291.6 960.75 350.43 917.74 373.64 915.51 364 855.94 309.25 892.82 291.6" fill="#fff"/><polygon points="848.89 303.12 812.49 321.78 872.06 379.49 874.73 387.34 915.51 364 848.89 303.12" fill="#fff"/><polygon points="764.74 334.3 806.56 315.28 872.06 379.49 824.49 402.59 823.93 394.06 764.74 334.3" fill="#fff"/><polygon points="705.64 349.04 757.87 327.63 823.93 394.06 773.93 415.48 705.64 349.04" fill="#fff"/><polygon points="586.87 397.84 643.84 469.85 644.39 463.72 763.17 405.45 699.51 342.54 586.87 397.84" fill="#fff"/><line x1="699.51" y1="342.54" x2="763.17" y2="405.45" fill="none" stroke="#900" stroke-miterlimit="10" stroke-width="3"/><line x1="1086.8" y1="311.19" x2="1019.44" y2="257.73" fill="none" stroke="#900" stroke-miterlimit="10" stroke-width="3"/><line x1="1046.36" y1="323.71" x2="979.19" y2="268.79" fill="none" stroke="#900" stroke-miterlimit="10" stroke-width="3"/><line x1="1003.26" y1="337.56" x2="934.23" y2="280.59" fill="none" stroke="#900" stroke-miterlimit="10" stroke-width="3"/><line x1="960.75" y1="350.43" x2="892.82" y2="291.6" fill="none" stroke="#900" stroke-miterlimit="10" stroke-width="3"/><line x1="915.51" y1="363.99" x2="848.89" y2="303.12" fill="none" stroke="#900" stroke-miterlimit="10" stroke-width="3"/><line x1="872.06" y1="379.49" x2="806.56" y2="315.28" fill="none" stroke="#900" stroke-miterlimit="10" stroke-width="3"/><line x1="823.93" y1="394.06" x2="757.86" y2="327.63" fill="none" stroke="#900" stroke-miterlimit="10" stroke-width="3"/><polygon points="673.77 502.17 644.41 463.74 762.84 400.44 790.52 433.67 673.77 496.05 673.77 502.17" fill="#fff"/><polygon points="703.71 532.11 673.77 496.05 794.79 431.63 821.77 461.21 703.15 525.62 703.71 532.11" fill="#fff"/><polygon points="735.22 564.02 703.15 525.62 827.52 458.42 856.8 490.7 733.93 558.64 735.22 564.02" fill="#fff"/><polygon points="895.45 523.09 862.56 487.73 733.93 558.64 771.46 601.05 770.16 592.88 895.45 523.09" fill="#fff"/><polygon points="770.29 592.9 903.01 514.57 935.32 549.19 805.01 626.96 806.13 635.32 770.29 592.9" fill="#fff"/><polygon points="805.01 626.96 942.37 544.74 977.61 582.17 843.3 661.89 841.73 669.6 805.01 626.96" fill="#fff"/><polygon points="980.72 574.64 843.3 661.89 958.9 805.84 1105.03 703.33 980.72 574.64" fill="#fff"/><line x1="762.84" y1="400.45" x2="644.41" y2="463.74" fill="none" stroke="#900" stroke-miterlimit="10" stroke-width="3"/><line x1="673.77" y1="496.04" x2="794.79" y2="431.63" fill="none" stroke="#900" stroke-miterlimit="10" stroke-width="3"/><line x1="703.15" y1="525.62" x2="827.52" y2="458.42" fill="none" stroke="#900" stroke-miterlimit="10" stroke-width="3"/><line x1="733.93" y1="558.64" x2="862.56" y2="487.73" fill="none" stroke="#900" stroke-miterlimit="10" stroke-width="3"/><line x1="770.29" y1="592.9" x2="903.01" y2="514.57" fill="none" stroke="#900" stroke-miterlimit="10" stroke-width="3"/><line x1="805.01" y1="626.96" x2="942.37" y2="544.74" fill="none" stroke="#900" stroke-miterlimit="10" stroke-width="3"/><line x1="843.3" y1="661.89" x2="980.71" y2="574.65" fill="none" stroke="#900" stroke-miterlimit="10" stroke-width="3"/><polygon points="1375.93 476.16 1292.98 532.19 1205.38 458.89 1287.6 407.12 1375.93 476.16" fill="#900"/><polygon points="1256.41 375.02 1175.13 425.31 1205.57 450.36 1287.78 399.14 1256.41 375.02" fill="#900"/><polygon points="1226.17 343.1 1145.26 392.09 1176.25 416.96 1256.41 366.85 1226.17 343.1" fill="#900"/><polygon points="1144.33 383.93 1226.91 335.68 1197.4 312.66 1116.13 359.61 1144.33 383.93" fill="#900"/><polyline points="1086.8 311.19 1087.73 319.54 1169.01 274.44 1099.24 223.22 1076.79 316.59 1086.8 311.19" fill="#900"/><polygon points="1197.77 304.13 1168.64 282.97 1087.17 328.26 1115.75 351.82 1197.77 304.13" fill="#900"/><polygon points="1024.34 611.73 1074.81 578.28 1156.02 659.87 1105.87 694.84 1024.34 611.73" fill="#900"/><polygon points="1074.81 569.56 1121.53 537.61 1204.41 616.12 1157.68 652.43 1074.81 569.56" fill="#900"/><polygon points="1164.72 500.31 1122.45 530.14 1208.58 607.73 1248.62 574.93 1164.72 500.31" fill="#900"/><polygon points="1204.99 467.08 1165.65 492.32 1252.7 567.69 1290.93 540.03 1204.99 467.08" fill="#900"/><polygon points="1007.84 602.72 958.9 805.84 1105.03 703.33 1007.84 602.72" fill="#900"/><line x1="1086.8" y1="311.19" x2="1079.89" y2="305.71" fill="none" stroke="#fff" stroke-miterlimit="10" stroke-width="3"/><path d="M441.91,549.29h-290v42.77c37.29-.29,48.35,21.36,46.73,53.62V1296H441.91Z" transform="translate(-151.93 -549.18)" fill="#900"/><path d="M500.53,947.3l-80.16,80.16,173.78,232.45c14,21.77-17.11,16.48-17.11,16.48l0,24.19H801.94l-.73-26.56s-31.15,4.6-52.29-18.11Z" transform="translate(-151.93 -549.18)" fill="#900"/><path d="M453.55,1015.32a233.07,233.07,0,1,1,0-466.14c25.94,0,83.79,9.37,136.08,44.49,44.25,29.71,97,86.55,97,188.58a233.07,233.07,0,0,1-233.08,233.07Z" transform="translate(-151.93 -549.18)" fill="#900"/><circle cx="301.62" cy="233.07" r="149.71" fill="#fff"/><polygon points="356.17 95.48 264.88 42.77 264.88 148.19 356.17 95.48" fill="#fff"/><polygon points="153.36 251.34 147.64 356.61 241.66 308.93 153.36 251.34" fill="#fff"/><polygon points="391.5 231.42 490.26 268.29 408.95 335.39 391.5 231.42" fill="#fff"/><path d="M1789,549.29H1455.85v61.92c42.85,1.32,101.36,23.75,103.15,58.22v535.15c-1.79,40.08-57.73,53.81-103.15,53.1V1296H1789Z" transform="translate(-151.93 -549.18)" fill="#900"/><circle cx="1648.68" cy="233.07" r="199.57" fill="none" stroke="#900" stroke-miterlimit="10" stroke-width="67"/><path d="M1705,609l68.49-22.2,67.87.06c90.69,18.8,158.84,99.15,158.84,195.41,0,110.22-89.35,199.57-199.57,199.57s-199.57-89.35-199.57-199.57a198.7,198.7,0,0,1,18.82-84.72Z" transform="translate(-151.93 -549.18)" fill="#fff"/><path d="M1769.84,831.5l-5.13,3.08-22.07-9.23-20.52-9.75c-4.1-30.78-29.24-26.68-29.24-26.68-8.1-12.38-22.35-21.77-40.53-29.24-4.35.45-7.77,2.43-7.7,10.26L1639,768.4c-.51,4.55-.08,8.67,2.57,11.8l-9.75,20.58v17.38l18.47,39,12.31,11.8,9.23,32.84,20.53,34.89,10.77,10.77,4.62-14.37.74-1.05,5.41,1.05L1730.33,908l-1-5.65c4.49-5.85,10.77-9.23,19.49-9.23l6.16-11.8.51-17.45,16.93-16.93Z" transform="translate(-151.93 -549.18)" fill="#900"/><polygon points="1509.14 186.39 1507.08 181.77 1513.02 186.39 1509.14 186.39" fill="#900"/><polygon points="1502.47 178.69 1496.82 177.66 1494.26 172.02 1488.1 168.43 1492.21 167.4 1496.6 173.05 1502.47 178.69" fill="#900"/><polygon points="1695.63 85.57 1690.82 85.57 1690.82 78.17 1694.09 80.44 1695.63 85.57" fill="#900"/><path d="M1947.89,657.33l-2.34,2.56-5.64-2.56-6.67,6.67,7.69,10.26,8.21.51,1.2-3.08h2.91l2.56,9.1v11.94l-20-4.62v9.23l-25.9-10.51-.52-6.16-6-2.57h-14.5l-6.67,2.57-2.56,3.59-8.21.51-3.08-2-2.57,1,.52,4.61-4.62,3.6-4.1,4.61-1,4.62,2.56,1.54-4.64,6.16h-3l-6.16,7.69-.51,4.11-6.67,10.4v3.45l3.59,2.56-1.54,3.08,2.57,3.08-.52,11.29-3.59,3.59,3.08,4.62-1,6.67,6.67,3.59,26.17,25.14,9.75-5.65,9.74,2,14.88-7.69,14.37,7.69,6.15-1.54,4,2.57,1.15,7.11-4.62,8.79.51,5.65,7.7,8.72-1,5.13,3.59,1.57v19l-10,20,2.31,6.16-4.62,21.43v16.53l24.37-18.72,16.42-22.07v-8.2l5.13-6.67,7.18-7.19,6.15-20-1.53-6.16,5.13-14.88,2.56-16.16,1.4-12.83.63-21.27-3.08-8.21-31.81-56.94c10.3,8.31,21.08,25.32,32.32,50.28l-18.47-55.93V687.1l-13.34-18.47-10.26-12.31-10.26-8.72-8.72-9.24,3.26-3.59-43.51-29.95-5.54,3.77h-13.7L1884,613.2l17.44,11.29a22.27,22.27,0,0,0-15.19,6.56c-8.67-1.68-14.31,1-16.62,8.32l-9.23,4.62,13.34,13.34c-9.43-2.22-17.32-3.16-21.55-1l-1.54,5.64,6.16,3.59-1.54,5.65c1,4,3.59,5.13,10.54,8.72h6.9l6.67-6.67-.51-8.21,14.87-11.29A42,42,0,0,0,1914.26,665l-18.47-12.82,3.07-5.65,32.33,27.71-6.67-11.8,7.69-1L1921.44,646l7.18-2.57,10.78,10.26,2.56-1Z" transform="translate(-151.93 -549.18)" fill="#900"/><path d="M1841.4,587v-.18A199.85,199.85,0,0,0,1619.67,698l-.92,2.47.51,4.62-2.57,7.18-2.56,9.26v13.31l4.62.77V743l6.74,8.53v8.15l6.34,11.23,7.18-2.51-6.41-.77-4.5-8,.39-4.88,4.11-12.31-6.67-2-.77-4.77,6.67-15.39-3.85.17-4.1,9.74-4.88-2.32-.28-8.47,8.21-21.54,9.75-8.73,1,3.6h3.08l.51-3.08,3.59-1,3.59,3.59,1,4.11L1645.4,704l3.59,3.59,4.62-9.74v-6.67l7.7-7.7,9.23-6.16,3.59-5.64,4.11-5.13,4.61-1.54,1.54-3.08,9.24-2.05.51-4.1,8.72-4.62,4.62,2.56,8.21-2.05.51-3.59-3.08-1V644.5l4.62-5.64-.51-3.59,4.62,2.56,7.18-1,7.18-2.56v2l-9.75,6.67,4.11,1.54h5.64l-1,4.1,6.16-3.07-3.08-7.19v-3.07l4.11-3.08-6.16-10.26-4.1-7.7-4.11-2.56-4.1,2.56-18.47,13.34-4.11-5.13v-7.18l14.88-8.73,4.62-1,5.64-2,14.37-4.62,8.72-1-11.29,8.72,2.06,3.08,11.28-7.69h5.65l14.36-2.57-7.18,6.67-1.54,6.67,6.67,4.11,13.85-9.75,19-2.57,8.21,2.57,2.57,3.08,5.64,1,6.16-2.56,1.54-4.62-4.62-1.54-5.13-10.26,8.21-4.1Z" transform="translate(-151.93 -549.18)" fill="#900"/><polygon points="1717.17 69.67 1717.69 77.36 1713.17 85.57 1706.36 89.17 1701.27 90.19 1702.81 83.01 1697.81 78.17 1694.09 76.85 1694.09 70.66 1699.22 75.83 1704.09 78.17 1707.41 81.87 1713.17 76.26 1710.21 70.66 1709.48 65.56 1706.91 64.03 1703.84 48.63 1712.56 56.33 1721.28 63.51 1726.92 68.64 1730.51 74.8 1726.41 77.36 1717.17 69.67" fill="#900"/></svg>