<svg xmlns="http://www.w3.org/2000/svg" viewBox="0 0 1765.09334 529.36951"><path d="M611.39685,1194.48912a425.43215,425.43215,0,0,0,76.27637,41.335,470.81918,470.81918,0,0,0,87.9585,26.73243q11.38257,2.20752,11.38281,11.03808,0,12.14063-16.90186,12.1416-38.58105,0-108.38427-33.84961-58.05249-28.32861-133.001-87.56836v15.08594l.36816,62.54785v35.68946H305.02576v-16.55664l.73584-119.94532,1.104-143.49316-.73584-222.23H453.9281q99.27246,0,150.00684,5.519,50.73926,5.5188,86.40576,20.604,58.08765,24.28344,91.91357,79.84082,31.25172,51.51635,31.25147,108.17187,0,60.34644-34.90772,113.68994Q722.37365,1188.97643,611.39685,1194.48912Zm-34.90722-22.81152,17.63769.36719q75.67822,0,127.86133-42.31153a173.91884,173.91884,0,0,0,50.69971-66.22754q16.53075-36.4248,16.53369-74.32177,0-64.38208-41.88623-115.16211a171.70636,171.70636,0,0,0-80.09424-55.55762q-48.13549-16.18579-135.5708-17.29248l-3.311,246.5127v66.5957l.36768,17.293A472.11393,472.11393,0,0,0,576.48963,1171.6776Z" transform="translate(-305.02576 -761.71467)"/><path d="M1785.34176,1187.49791v10.30274l.36719,70.64257v9.19825H1561.27242l.36817-22.44336,1.83984-258.65528-1.47168-122.88916-.36816-83.52-.36817-14.71728H1729.416q103.0166,0,156.1875,8.83057,53.16211,8.83006,89.22266,31.64209,48.56543,30.54345,75.05664,84.99169a196.87343,196.87343,0,0,1,20.23632,87.19971,205.23965,205.23965,0,0,1-22.81054,94.18994q-27.23437,53.72315-77.082,82.60059-49.86036,28.88819-115.34571,28.88183Q1830.59665,1193.75279,1785.34176,1187.49791Zm.36719-387.062v24.65137l-1.47071,245.77685.73633,91.61524q29.05957,7.72558,75.42578,7.72656a191.31309,191.31309,0,0,0,78.73633-16.55762,175.42464,175.42464,0,0,0,62.916-46.72656q43.78125-51.13623,43.7832-118.84131,0-64.38208-43.416-116.63428-30.90528-37.158-79.83985-54.08545-48.9375-16.91967-125.832-16.9248Z" transform="translate(-305.02576 -761.71467)"/><polygon points="1080.125 231.314 1069.37 219.319 1069.479 238.178 1080.125 231.314" fill="none"/><polygon points="709.098 218.325 716.471 214.4 715.967 214.562 709.013 218.276 709.098 218.325"/><path d="M1243.5143,825.73011l-22.3244,10.36023-4.96173-3.50116-23.64154,11.384-5.692-4.37475-23.11706,12.5288-5.19959-4.50274-25.728,12.79339-5.35273-4.76727-25.83239,13.71814-5.54187-4.81842-27.51459,13.397-5.03345-4.93408-29.91376,14.88513-5.40527-5.24835-31.278,14.772-5.058-4.99871-88.58075,43.48846L907.0588,949.705l45.09234,57.32941,168.63037,171.25116,75.67129,88.58758v24.21106H1091.661a272.26128,272.26128,0,0,1-75.42578-20.43292q-83.15478-34.95117-126.56787-110.748-36.063-62.915-36.05713-133.5581,0-72.1084,37.52881-136.13428,40.09863-68.064,113.32275-104.12451a257.2424,257.2424,0,0,1,87.19922-24.37164H1306.2672v36.87268L1248.33266,829.088" transform="translate(-305.02576 -761.71467)"/><polygon points="1153.603 279.854 1084.72 222.211 1149.365 181.497 1149.515 175.221 1084.863 215.502 1060.928 195.798 1124.85 156.248 1124.85 149.825 1061.808 189.232 1037.436 169.672 1101.065 131.145 1101.645 125.31 1036.706 163.257 1014.525 144.133 1078.441 107.21 1078.441 107.211 1078.734 100.502 1014.232 138.005 991.757 119.475 1055.823 83.862 1078.734 100.502 1068.64 93.171 1055.823 83.862 1056.116 77.153 1056.116 77.154 992.194 112.616 991.464 106.05 964.027 121.372 964.027 114.069 936.011 130.415 936.154 122.683 907.258 139.465 906.971 132.169 877.05 148.515 875.883 141.506 845.24 158.295 843.485 150.706 812.255 168.942 810.064 161.796 775.625 179.889 775.188 173.18 746.578 187.486 753.007 194.774 715.967 214.562 716.471 214.4 756.358 193.17 762.314 199.741 987.307 127.794 1069.37 219.319 1080.125 231.314 1084.283 228.633 1151.85 285.99 1126.017 305.106 1057.586 245.86 1057.577 245.866 1056.848 252.132 1122.809 310.798 1096.684 330.495 1028.982 269.502 1028.973 269.507 1028.245 275.337 1094.493 335.607 1067.35 356.477 1000.22 293.135 1000.548 299.489 1065.712 361.214 1036.556 381.791 971.398 316.633 971.398 323.492 1035.246 387.633 1006.349 407.698 942.249 342.357 942.31 348.764 1005.694 414.373 890.803 494.969 799.922 381.791 798.68 387.852 771.244 354.573 772.124 361.146 746.292 329.765 747.022 335.313 722.65 305.98 723.674 312.402 700.032 284.235 701.049 288.467 680.035 262.491 680.472 267.596 661.212 243.811 661.212 248.63 643.549 226.005 643.112 230.824 598.313 174.197 602.033 187.99 647.125 245.32 815.756 416.571 891.424 505.158 1009.85 421.314 1070.231 368.085 1176.44 274.455 1216.502 247.094 1218.836 235.785 1153.603 279.854" fill="#fff"/><polygon points="734.471 177.416 714.335 157.828 734.266 177.525 734.471 177.416" fill="#fff"/><path d="M1296.4894,867.76484" transform="translate(-305.02576 -761.71467)" fill="#fff"/><polygon points="734.705 232.804 680.035 262.491 734.84 232.88 734.705 232.804" fill="#fff"/><polygon points="745.228 143.055 775.188 173.18 745.326 143.034 745.228 143.055" fill="#fff"/><polygon points="763.554 249.116 700.032 284.235 763.648 249.169 763.554 249.116" fill="#fff"/><polygon points="709.013 218.276 661.212 243.811 709.098 218.325 709.013 218.276" fill="#fff"/><polygon points="824.337 283.485 746.292 329.765 824.528 283.592 824.337 283.485" fill="#fff"/><polygon points="916.776 106.69 936.154 122.683 916.899 106.664 916.776 106.69" fill="#fff"/><polygon points="947.133 100.255 964.027 114.069 947.322 100.215 947.133 100.255" fill="#fff"/><polygon points="818.187 127.589 843.485 150.706 818.304 127.564 818.187 127.589" fill="#fff"/><polygon points="1006.349 407.698 1035.246 387.633 971.398 323.492 942.249 342.357 1006.349 407.698"/><polygon points="1036.556 381.791 1065.712 361.214 1000.548 299.489 971.398 316.633 1036.556 381.791"/><polygon points="1000.22 293.135 1067.35 356.477 1094.493 335.607 1028.245 275.337 1028.243 275.336 1000.22 293.135"/><polygon points="1028.973 269.494 1028.982 269.502 1096.684 330.495 1122.809 310.798 1056.848 252.132 1056.846 252.131 1028.973 269.494"/><polygon points="1057.577 245.852 1057.586 245.86 1126.017 305.106 1151.85 285.99 1084.283 228.633 1080.125 231.314 1069.479 238.178 1057.577 245.852"/><polygon points="1153.603 279.854 1218.836 235.785 1149.372 181.493 1149.365 181.497 1084.72 222.211 1153.603 279.854"/><polygon points="1060.928 195.798 1084.863 215.502 1149.515 175.221 1124.85 156.248 1060.928 195.798"/><polygon points="1037.436 169.672 1061.808 189.232 1124.85 149.825 1101.065 131.145 1037.436 169.672"/><polygon points="1014.525 144.133 1036.706 163.257 1101.645 125.31 1078.441 107.211 1078.441 107.21 1014.525 144.133"/><polygon points="1001.244 36.873 943.307 67.373 976.498 94.031 991.464 106.05 992.194 112.616 1056.116 77.154 1056.116 77.153 1001.244 36.873"/><polygon points="1055.823 83.862 991.757 119.475 1014.232 138.005 1078.734 100.502 1055.823 83.862"/><polygon points="938.489 64.015 916.164 74.376 964.027 114.069 964.027 121.372 991.464 106.05 938.489 64.015"/><polygon points="911.202 70.875 887.561 82.258 916.899 106.664 936.154 122.683 936.011 130.415 964.027 114.069 947.133 100.255 911.202 70.875"/><polygon points="881.869 77.884 858.752 90.413 906.971 132.169 907.258 139.465 936.154 122.683 916.776 106.69 881.869 77.884"/><polygon points="858.752 90.413 853.552 85.91 827.824 98.703 875.883 141.506 877.05 148.515 906.971 132.169 858.752 90.413"/><polygon points="827.824 98.703 822.472 93.936 796.639 107.654 818.304 127.564 843.485 150.706 845.24 158.295 875.883 141.506 827.824 98.703"/><polygon points="791.097 102.836 763.583 116.233 810.064 161.796 812.255 168.942 843.485 150.706 818.187 127.589 791.097 102.836"/><polygon points="763.583 116.233 758.549 111.299 728.635 126.184 745.326 143.034 775.188 173.18 775.625 179.889 810.064 161.796 763.583 116.233"/><polygon points="723.23 120.935 691.952 135.707 714.335 157.828 734.471 177.416 736.662 176.245 746.578 187.486 775.188 173.18 745.228 143.055 723.23 120.935"/><polygon points="714.335 157.828 691.952 135.707 686.894 130.709 598.313 174.197 643.112 230.824 643.549 226.005 734.266 177.525 714.335 157.828"/><line x1="734.26595" y1="177.5249" x2="714.33522" y2="157.82794" fill="none" stroke="#fff" stroke-linecap="round" stroke-linejoin="round" stroke-width="0"/><line x1="686.89424" y1="130.70868" x2="691.95223" y2="135.7074" fill="none" stroke="#fff" stroke-linecap="round" stroke-linejoin="round" stroke-width="0"/><line x1="714.33522" y1="157.82794" x2="691.95223" y2="135.7074" fill="none" stroke="#fff" stroke-linecap="round" stroke-linejoin="round" stroke-width="0"/><polygon points="734.471 177.416 734.266 177.525 643.549 226.005 661.212 248.63 661.212 243.811 709.013 218.276 715.967 214.562 753.007 194.774 746.578 187.486 736.662 176.245 734.471 177.416"/><polyline points="773.291 211.85 762.314 199.741 756.358 193.17 716.471 214.4 709.098 218.325 661.212 243.811 680.472 267.596 680.035 262.491"/><polygon points="796.639 230.824 777.816 209.659 734.84 232.88 680.035 262.491 701.049 288.467 700.032 284.235 763.554 249.116 796.639 230.824"/><polygon points="820.498 250.365 801.164 228.489 763.648 249.169 700.032 284.235 723.674 312.402 722.65 305.98 820.498 250.365"/><polyline points="845.963 270.661 825.099 247.749 820.498 250.365 722.65 305.98 747.022 335.313 746.292 329.765"/><polygon points="873.586 293.312 850.638 268.183 824.528 283.592 746.292 329.765 772.124 361.146 771.244 354.573 873.586 293.312"/><polygon points="903.01 316.339 879.241 289.927 873.586 293.312 771.244 354.573 798.68 387.852 799.922 381.791 903.01 316.339"/><polygon points="903.01 316.339 799.922 381.791 890.803 494.969 1005.694 414.373 942.31 348.764 907.954 313.201 903.01 316.339"/><path d="M1243.5143,825.73011" transform="translate(-305.02576 -761.71467)" fill="none" stroke="#fff" stroke-linecap="round" stroke-linejoin="round" stroke-width="0"/><path d="M1296.4894,867.76484" transform="translate(-305.02576 -761.71467)" fill="none" stroke="#fff" stroke-linecap="round" stroke-linejoin="round" stroke-width="0"/><line x1="947.13344" y1="100.25531" x2="911.20241" y2="70.87451" fill="none" stroke="#fff" stroke-linecap="round" stroke-linejoin="round" stroke-width="0"/><line x1="947.13344" y1="100.25531" x2="964.02736" y2="114.06946" fill="none" stroke="#fff" stroke-linecap="round" stroke-linejoin="round" stroke-width="0"/><line x1="916.77571" y1="106.69043" x2="881.86885" y2="77.88373" fill="none" stroke="#fff" stroke-linecap="round" stroke-linejoin="round" stroke-width="0"/><line x1="916.77571" y1="106.69043" x2="936.15438" y2="122.68256" fill="none" stroke="#fff" stroke-linecap="round" stroke-linejoin="round" stroke-width="0"/><line x1="906.97097" y1="132.16919" x2="858.75179" y2="90.41254" fill="none" stroke="#fff" stroke-linecap="round" stroke-linejoin="round" stroke-width="0"/><line x1="858.75179" y1="90.41254" x2="853.5522" y2="85.90979" fill="none" stroke="#fff" stroke-linecap="round" stroke-linejoin="round" stroke-width="0"/><line x1="875.88338" y1="141.50568" x2="827.82424" y2="98.70319" fill="none" stroke="#fff" stroke-linecap="round" stroke-linejoin="round" stroke-width="0"/><line x1="827.82424" y1="98.70319" x2="822.47151" y2="93.93591" fill="none" stroke="#fff" stroke-linecap="round" stroke-linejoin="round" stroke-width="0"/><line x1="818.18691" y1="127.58899" x2="791.09725" y2="102.83563" fill="none" stroke="#fff" stroke-linecap="round" stroke-linejoin="round" stroke-width="0"/><line x1="843.48543" y1="150.70569" x2="818.18691" y2="127.58899" fill="none" stroke="#fff" stroke-linecap="round" stroke-linejoin="round" stroke-width="0"/><line x1="810.0638" y1="161.7962" x2="763.58266" y2="116.23267" fill="none" stroke="#fff" stroke-linecap="round" stroke-linejoin="round" stroke-width="0"/><line x1="758.54921" y1="111.29858" x2="763.58266" y2="116.23267" fill="none" stroke="#fff" stroke-linecap="round" stroke-linejoin="round" stroke-width="0"/><line x1="775.18837" y1="173.18024" x2="745.22805" y2="143.05463" fill="none" stroke="#fff" stroke-linecap="round" stroke-linejoin="round" stroke-width="0"/><line x1="723.23018" y1="120.93536" x2="745.22805" y2="143.05463" fill="none" stroke="#fff" stroke-linecap="round" stroke-linejoin="round" stroke-width="0"/><line x1="734.47054" y1="177.41559" x2="736.66164" y2="176.24463" fill="none" stroke="#fff" stroke-linecap="round" stroke-linejoin="round" stroke-width="0"/><line x1="734.47054" y1="177.41559" x2="734.26595" y2="177.5249" fill="none" stroke="#fff" stroke-linecap="round" stroke-linejoin="round" stroke-width="0"/><line x1="734.26595" y1="177.5249" x2="643.54915" y2="226.00519" fill="none" stroke="#fff" stroke-linecap="round" stroke-linejoin="round" stroke-width="0"/><line x1="661.21205" y1="243.8114" x2="709.0978" y2="218.32452" fill="none" stroke="#fff" stroke-linecap="round" stroke-linejoin="round" stroke-width="0"/><line x1="756.35836" y1="193.17041" x2="716.47097" y2="214.40021" fill="none" stroke="#fff" stroke-linecap="round" stroke-linejoin="round" stroke-width="0"/><path d="M1014.12356,980.03919" transform="translate(-305.02576 -761.71467)" fill="none" stroke="#fff" stroke-linecap="round" stroke-linejoin="round"/><path d="M1021.49672,976.11487" transform="translate(-305.02576 -761.71467)" fill="none" stroke="#fff" stroke-linecap="round" stroke-linejoin="round"/><line x1="777.816" y1="209.65948" x2="734.8398" y2="232.87988" fill="none" stroke="#fff" stroke-linecap="round" stroke-linejoin="round" stroke-width="0"/><line x1="734.8398" y1="232.87988" x2="680.03517" y2="262.49127" fill="none" stroke="#fff" stroke-linecap="round" stroke-linejoin="round" stroke-width="0"/><line x1="801.16402" y1="228.48944" x2="700.03224" y2="284.23547" fill="none" stroke="#fff" stroke-linejoin="round"/><path d="M1068.67385,1010.88373" transform="translate(-305.02576 -761.71467)" fill="none" stroke="#fff" stroke-linecap="round" stroke-linejoin="round" stroke-width="0"/><path d="M1106.18978,990.20411" transform="translate(-305.02576 -761.71467)" fill="none" stroke="#fff" stroke-linecap="round" stroke-linejoin="round" stroke-width="0"/><line x1="820.49794" y1="250.36462" x2="825.09914" y2="247.74939" fill="none" stroke="#fff" stroke-linecap="round" stroke-linejoin="round" stroke-width="0"/><line x1="820.49794" y1="250.36462" x2="722.6501" y2="305.97968" fill="none" stroke="#fff" stroke-linejoin="round"/><path d="M1155.66372,1029.89789" transform="translate(-305.02576 -761.71467)" fill="none" stroke="#fff" stroke-linecap="round" stroke-linejoin="round"/><line x1="746.29158" y1="329.76459" x2="850.63796" y2="268.18323" fill="none" stroke="#fff" stroke-linejoin="round"/><line x1="873.58644" y1="293.31238" x2="879.24129" y2="289.92749" fill="none" stroke="#fff" stroke-linecap="round" stroke-linejoin="round" stroke-width="0"/><line x1="873.58644" y1="293.31238" x2="771.24355" y2="354.57324" fill="none" stroke="#fff" stroke-linejoin="round"/><line x1="907.95381" y1="313.2005" x2="903.01009" y2="316.33936" fill="none" stroke="#fff" stroke-linecap="round" stroke-linejoin="round" stroke-width="0"/><line x1="903.01009" y1="316.33936" x2="799.92195" y2="381.79102" fill="none" stroke="#fff" stroke-linecap="round" stroke-linejoin="round" stroke-width="0"/></svg>