<svg xmlns="http://www.w3.org/2000/svg" viewBox="0 0 1851.59 611.15"><path d="M1110.41,1217.85C808.75,1144.9,652.79,969.33,691.64,808.67S949.45,563.1,1251.1,636.05L834.91,875.72Z" transform="translate(-151.93 -607.48)" fill="#900"/><polygon points="1087.73 124.84 1086.8 116.49 1025.56 67.31 1099.24 28.53 1169.01 79.75 1087.73 124.84" fill="#fff"/><polygon points="1046.36 138.31 1086.8 116.49 1019.44 63.04 985.5 78.55 1046.36 129.02 1046.36 138.31" fill="#fff"/><polygon points="1046.36 129.02 979.19 74.09 941.47 91.47 1003.26 142.87 1003.08 152.7 1046.36 129.02" fill="#fff"/><polygon points="934.23 85.9 898.02 103.4 960.75 155.74 961.11 165.01 1003.26 142.87 934.23 85.9" fill="#fff"/><polygon points="892.82 96.91 960.75 155.74 917.74 178.95 915.51 169.3 855.94 114.56 892.82 96.91" fill="#fff"/><polygon points="848.89 108.43 812.49 127.08 872.06 184.8 874.73 192.65 915.51 169.3 848.89 108.43" fill="#fff"/><polygon points="764.74 139.61 806.56 120.58 872.06 184.8 824.49 207.9 823.93 199.37 764.74 139.61" fill="#fff"/><polygon points="705.64 154.35 757.87 132.94 823.93 199.37 773.93 220.78 705.64 154.35" fill="#fff"/><polygon points="586.87 203.15 643.84 275.15 644.39 269.03 763.17 210.76 699.51 147.85 586.87 203.15" fill="#fff"/><line x1="699.51" y1="147.85" x2="763.17" y2="210.76" fill="none" stroke="#900" stroke-miterlimit="10" stroke-width="3"/><line x1="1086.8" y1="116.49" x2="1019.44" y2="63.04" fill="none" stroke="#900" stroke-miterlimit="10" stroke-width="3"/><line x1="1046.36" y1="129.02" x2="979.19" y2="74.1" fill="none" stroke="#900" stroke-miterlimit="10" stroke-width="3"/><line x1="1003.26" y1="142.87" x2="934.23" y2="85.9" fill="none" stroke="#900" stroke-miterlimit="10" stroke-width="3"/><line x1="960.75" y1="155.73" x2="892.82" y2="96.91" fill="none" stroke="#900" stroke-miterlimit="10" stroke-width="3"/><line x1="915.51" y1="169.3" x2="848.89" y2="108.43" fill="none" stroke="#900" stroke-miterlimit="10" stroke-width="3"/><line x1="872.06" y1="184.8" x2="806.56" y2="120.58" fill="none" stroke="#900" stroke-miterlimit="10" stroke-width="3"/><line x1="823.93" y1="199.37" x2="757.86" y2="132.94" fill="none" stroke="#900" stroke-miterlimit="10" stroke-width="3"/><polygon points="673.77 307.48 644.41 269.05 762.84 205.75 790.52 238.98 673.77 301.35 673.77 307.48" fill="#fff"/><polygon points="703.71 337.42 673.77 301.35 794.79 236.94 821.77 266.51 703.15 330.93 703.71 337.42" fill="#fff"/><polygon points="735.22 369.33 703.15 330.93 827.52 263.73 856.8 296.01 733.93 363.95 735.22 369.33" fill="#fff"/><polygon points="895.45 328.39 862.56 293.04 733.93 363.95 771.46 406.36 770.16 398.19 895.45 328.39" fill="#fff"/><polygon points="770.29 398.21 903.01 319.88 935.32 354.5 805.01 432.27 806.13 440.63 770.29 398.21" fill="#fff"/><polygon points="805.01 432.27 942.37 350.04 977.61 387.48 843.3 467.2 841.73 474.9 805.01 432.27" fill="#fff"/><polygon points="980.72 379.95 843.3 467.2 958.9 611.15 1105.03 508.64 980.72 379.95" fill="#fff"/><line x1="762.84" y1="205.75" x2="644.41" y2="269.05" fill="none" stroke="#900" stroke-miterlimit="10" stroke-width="3"/><line x1="673.77" y1="301.35" x2="794.79" y2="236.94" fill="none" stroke="#900" stroke-miterlimit="10" stroke-width="3"/><line x1="703.15" y1="330.93" x2="827.52" y2="263.73" fill="none" stroke="#900" stroke-miterlimit="10" stroke-width="3"/><line x1="733.93" y1="363.95" x2="862.56" y2="293.04" fill="none" stroke="#900" stroke-miterlimit="10" stroke-width="3"/><line x1="770.29" y1="398.21" x2="903.01" y2="319.88" fill="none" stroke="#900" stroke-miterlimit="10" stroke-width="3"/><line x1="805.01" y1="432.27" x2="942.37" y2="350.04" fill="none" stroke="#900" stroke-miterlimit="10" stroke-width="3"/><line x1="843.3" y1="467.2" x2="980.71" y2="379.95" fill="none" stroke="#900" stroke-miterlimit="10" stroke-width="3"/><polygon points="1375.93 281.46 1292.98 337.5 1205.38 264.2 1287.6 212.43 1375.93 281.46" fill="#900"/><polygon points="1256.41 180.32 1175.13 230.62 1205.57 255.67 1287.78 204.45 1256.41 180.32" fill="#900"/><polygon points="1226.17 148.41 1145.26 197.4 1176.25 222.27 1256.41 172.16 1226.17 148.41" fill="#900"/><polygon points="1144.33 189.24 1226.91 140.99 1197.4 117.97 1116.13 164.92 1144.33 189.24" fill="#900"/><polyline points="1086.8 116.49 1087.73 124.84 1169.01 79.75 1099.24 28.53 1076.79 121.9 1086.8 116.49" fill="#900"/><polygon points="1197.77 109.44 1168.64 88.28 1087.17 133.56 1115.75 157.13 1197.77 109.44" fill="#900"/><polygon points="1024.34 417.04 1074.81 383.59 1156.02 465.17 1105.87 500.15 1024.34 417.04" fill="#900"/><polygon points="1074.81 374.87 1121.53 342.92 1204.41 421.43 1157.68 457.74 1074.81 374.87" fill="#900"/><polygon points="1164.72 305.62 1122.45 335.45 1208.58 413.04 1248.62 380.24 1164.72 305.62" fill="#900"/><polygon points="1204.99 272.39 1165.65 297.63 1252.7 373 1290.93 345.34 1204.99 272.39" fill="#900"/><polygon points="1007.84 408.03 958.9 611.15 1105.03 508.64 1007.84 408.03" fill="#900"/><line x1="1086.8" y1="116.49" x2="1079.89" y2="111.01" fill="none" stroke="#fff" stroke-miterlimit="10" stroke-width="3"/><path d="M388.74,607.57H151.93V642.5c30.45-.24,39.48,17.44,38.16,43.79v531.06H388.74Z" transform="translate(-151.93 -607.48)" fill="#900"/><path d="M436.61,932.61l-65.46,65.46,141.92,186.07c11.46,17.78-14,13.46-14,13.46l0,19.75H682.76l-.6-21.68s-25.43,3.75-42.7-14.8Z" transform="translate(-151.93 -607.48)" fill="#900"/><path d="M398.25,988.15a190.34,190.34,0,1,1,0-380.67c21.18,0,68.43,7.65,111.13,36.33,36.13,24.27,79.21,70.69,79.21,154A190.33,190.33,0,0,1,398.25,988.15Z" transform="translate(-151.93 -607.48)" fill="#900"/><circle cx="246.32" cy="190.34" r="122.26" fill="#fff"/><polygon points="290.87 77.97 216.31 34.93 216.31 121.02 290.87 77.97" fill="#fff"/><polygon points="125.24 205.26 120.57 291.22 197.35 252.28 125.24 205.26" fill="#fff"/><polygon points="319.72 188.99 400.37 219.1 333.97 273.89 319.72 188.99" fill="#fff"/><path d="M1803.68,607.57h-272v50.57c35,1.07,82.77,19.39,84.23,47.54v437c-1.46,32.73-47.14,44-84.23,43.37v31.27h272Z" transform="translate(-151.93 -607.48)" fill="#900"/><circle cx="1661.25" cy="190.34" r="162.98" fill="none" stroke="#900" stroke-miterlimit="10" stroke-width="54.72"/><path d="M1735.09,656.32,1791,638.19l55.43,0a162.92,162.92,0,1,1-180.87,90.4Z" transform="translate(-151.93 -607.48)" fill="#fff"/><path d="M1788.05,838l-4.19,2.51-18-7.54-16.75-8c-3.36-25.14-23.89-21.79-23.89-21.79-6.61-10.11-18.25-17.78-33.09-23.88-3.55.37-6.35,2-6.29,8.38l-4.61-1.26c-.42,3.72-.06,7.09,2.1,9.64l-8,16.81v14.19L1690.43,859l10.06,9.63,7.54,26.82,16.76,28.49,8.79,8.8,3.77-11.74.61-.86,4.42.86,13.41-20.53-.84-4.6c3.67-4.78,8.8-7.55,15.92-7.55l5-9.63.42-14.25,13.83-13.82Z" transform="translate(-151.93 -607.48)" fill="#900"/><polygon points="1547.29 152.21 1545.62 148.44 1550.46 152.21 1547.29 152.21" fill="#900"/><polygon points="1541.85 145.93 1537.24 145.09 1535.14 140.48 1530.12 137.55 1533.47 136.71 1537.06 141.32 1541.85 145.93" fill="#900"/><polygon points="1699.59 69.88 1695.66 69.88 1695.66 63.83 1698.33 65.69 1699.59 69.88" fill="#900"/><path d="M1965.49,855.42l-10.06,18-13.41,18-19.9,15.29v-13.5l3.77-17.5-1.88-5,8.17-16.34V838.9l-2.94-1.28.84-4.19-6.28-7.12-.42-4.61,3.77-7.19-.93-5.8-3.26-2.1-5,1.26-11.73-6.28-12.15,6.28-8-1.67-8,4.6-21.37-20.53-5.44-2.93.83-5.44-2.51-3.78,2.93-2.93L1853,766l-2.09-2.51,1.25-2.51-2.93-2.1V756l5.45-8.5.42-3.35,5-6.29h2.49l3.8-5-2.1-1.26.84-3.77,3.35-3.77,3.77-2.94-.42-3.77,2.1-.83,2.51,1.67,6.71-.42,2.09-2.93,5.45-2.1h11.84l4.92,2.1.42,5,21.15,8.59v-7.55l16.34,3.78V715l-2.09-7.43h-2.38l-1,2.51-6.71-.42-6.28-8.38,5.45-5.44,4.61,2.09,1.91-2.09-4.85-3.77-2.09.83-8.8-8.38-5.87,2.1,8.8,12.57-6.28.84,5.44,9.63L1898.87,687l-2.52,4.61,15.09,10.47a34.27,34.27,0,0,1-16.76-9.22l-12.15,9.22.42,6.7-5.45,5.45h-5.63c-5.68-2.93-7.78-3.86-8.61-7.12l1.25-4.61-5-2.93,1.25-4.61c3.45-1.74,9.9-1,17.6.84l-10.89-10.9,7.54-3.77c1.88-6,6.49-8.17,13.57-6.79A18.2,18.2,0,0,1,1901,669l-14.24-9.22L1876.66,656h11.19l4.52-3.08,85.86,63.24,5.62,115.15Z" transform="translate(-151.93 -607.48)" fill="#900"/><path d="M1846.5,638.4v-.15c-11-2.27-123.59-17.33-123.59-17.33L1664.4,730.58l.68,4.18-2.09,5.87-2.1,7.56v10.87l3.77.63v6.07l5.51,7v6.66l5.18,9.17,5.86-2-5.23-.62-3.67-6.5.31-4,3.36-10-5.45-1.68-.63-3.9,5.45-12.57-3.15.14-3.35,8-4-1.89-.22-6.92,6.7-17.59,8-7.13.84,2.94h2.51l.42-2.52,2.93-.84,2.94,2.94.83,3.35-3.35,6.28,2.94,2.94,3.77-8v-5.45l6.28-6.29,7.54-5,2.94-4.61,3.35-4.19,3.77-1.26,1.25-2.51,7.55-1.68.42-3.35,7.12-3.77,3.77,2.09,6.7-1.67.42-2.94-2.51-.83v-2.1l3.77-4.61-.42-2.93,3.77,2.1,5.87-.84,5.86-2.1v1.68l-8,5.45,3.35,1.25h4.61l-.84,3.35,5-2.51-2.51-5.87v-2.51l3.35-2.51-5-8.38-3.35-6.29-3.35-2.09-3.35,2.09-15.09,10.9-3.35-4.19v-5.87l12.15-7.12,3.77-.84,4.61-1.68,11.73-3.77,7.12-.83-9.21,7.12,1.67,2.51,9.22-6.28h4.61l11.73-2.1-5.87,5.45-1.25,5.45,5.44,3.35,11.32-8,15.5-2.1,6.7,2.1,2.1,2.51,4.61.84,5-2.1,1.26-3.77-3.77-1.25-4.19-8.38,6.7-3.35Z" transform="translate(-151.93 -607.48)" fill="#900"/><polygon points="1717.19 56.9 1717.61 63.18 1713.92 69.88 1708.36 72.82 1704.2 73.65 1705.45 67.79 1701.37 63.83 1698.33 62.76 1698.33 57.7 1702.52 61.92 1706.5 63.83 1709.21 66.86 1713.92 62.28 1711.5 57.7 1710.9 53.54 1708.81 52.29 1706.29 39.72 1713.42 46 1720.54 51.87 1725.15 56.06 1728.08 61.09 1724.73 63.18 1717.19 56.9" fill="#900"/></svg>