<svg xmlns="http://www.w3.org/2000/svg" viewBox="0 0 1851.59 611.15"><polygon points="1046.36 138.31 1046.36 129.02 1003.08 152.7 1003.26 142.87 961.11 165.01 960.75 155.74 917.74 178.95 915.51 169.3 874.73 192.65 872.06 184.8 824.49 207.9 823.93 199.37 774.99 220.33 790.52 238.98 794.79 236.94 821.77 266.51 827.52 263.73 856.8 296.01 862.56 293.04 893.02 325.78 903.01 319.88 935.18 354.35 942.37 350.04 974.34 384 980.72 379.95 1007.49 407.67 1076.57 122.02 1046.36 138.31" fill="#ab0300"/><path d="M995.24,1074.67l-1.58,7.71-36.72-42.63,1.12,8.36-35.83-42.42L925,1004l-2.93,1.63,1.31,8.17-37.54-42.42,1.29,5.39-32.07-38.4.56,6.49L825.7,908.83V915l-29.37-38.45-.56,6.12-57-72,112.64-55.3,6.44,6.37,51.91-21.29,6.87,6.68,41.82-19,6.39,6.27,36-18.42,7,6.13,36.88-17.65,6.68,5.78,34.73-16.79,7.24,5.56,37.73-17.37,6.31,4.46,33.93-15.51,6.13,4.27,73.59-38.74c-301.65-72.94-520.6,12-559.45,172.62s117,336.13,418.52,409.12Z" transform="translate(-151.93 -607.48)" fill="#ab0300"/><line x1="699.51" y1="147.85" x2="759.29" y2="206.93" fill="#ab0300" stroke="#ab0300" stroke-miterlimit="10" stroke-width="3"/><line x1="1086.28" y1="116.08" x2="1019.44" y2="63.04" fill="#ab0300" stroke="#ab0300" stroke-miterlimit="10" stroke-width="3"/><line x1="1046.36" y1="129.02" x2="979.19" y2="74.1" fill="#ab0300" stroke="#ab0300" stroke-miterlimit="10" stroke-width="3"/><line x1="1003.26" y1="142.87" x2="934.23" y2="85.9" fill="#ab0300" stroke="#ab0300" stroke-miterlimit="10" stroke-width="3"/><line x1="960.75" y1="155.73" x2="892.82" y2="96.91" fill="#ab0300" stroke="#ab0300" stroke-miterlimit="10" stroke-width="3"/><line x1="915.51" y1="169.3" x2="848.89" y2="108.43" fill="#ab0300" stroke="#ab0300" stroke-miterlimit="10" stroke-width="3"/><line x1="872.06" y1="184.8" x2="806.56" y2="120.58" fill="#ab0300" stroke="#ab0300" stroke-miterlimit="10" stroke-width="3"/><line x1="823.93" y1="199.37" x2="757.86" y2="132.94" fill="#ab0300" stroke="#ab0300" stroke-miterlimit="10" stroke-width="3"/><line x1="762.84" y1="205.75" x2="644.41" y2="269.05" fill="#ab0300" stroke="#ab0300" stroke-miterlimit="10" stroke-width="3"/><line x1="673.77" y1="301.35" x2="794.79" y2="236.94" fill="#ab0300" stroke="#ab0300" stroke-miterlimit="10" stroke-width="3"/><line x1="703.15" y1="330.93" x2="827.52" y2="263.73" fill="#ab0300" stroke="#ab0300" stroke-miterlimit="10" stroke-width="3"/><line x1="733.93" y1="363.95" x2="862.56" y2="293.04" fill="#ab0300" stroke="#ab0300" stroke-miterlimit="10" stroke-width="3"/><line x1="770.29" y1="398.21" x2="903.01" y2="319.88" fill="#ab0300" stroke="#ab0300" stroke-miterlimit="10" stroke-width="3"/><line x1="805.01" y1="432.27" x2="942.37" y2="350.04" fill="#ab0300" stroke="#ab0300" stroke-miterlimit="10" stroke-width="3"/><line x1="843.3" y1="467.2" x2="980.71" y2="379.95" fill="#ab0300" stroke="#ab0300" stroke-miterlimit="10" stroke-width="3"/><polygon points="1375.93 281.46 1292.98 337.5 1205.38 264.2 1287.6 212.43 1375.93 281.46" fill="#ffaf00"/><polygon points="1256.41 180.32 1175.13 230.62 1205.57 255.67 1287.78 204.45 1256.41 180.32" fill="#ffaf00"/><polygon points="1226.17 148.41 1145.26 197.4 1176.25 222.27 1256.41 172.16 1226.17 148.41" fill="#ffaf00"/><polygon points="1144.33 189.24 1226.91 140.99 1197.4 117.97 1116.13 164.92 1144.33 189.24" fill="#ffaf00"/><polygon points="1197.77 109.44 1168.64 88.28 1087.17 133.56 1115.75 157.13 1197.77 109.44" fill="#ffaf00"/><polygon points="1024.34 417.04 1074.81 383.59 1156.02 465.17 1105.87 500.15 1024.34 417.04" fill="#ffaf00"/><polygon points="1074.81 374.87 1121.53 342.92 1204.41 421.43 1157.68 457.74 1074.81 374.87" fill="#ffaf00"/><polygon points="1164.72 305.62 1122.45 335.45 1208.58 413.04 1248.62 380.24 1164.72 305.62" fill="#ffaf00"/><polygon points="1204.99 272.39 1165.65 297.63 1252.7 373 1290.93 345.34 1204.99 272.39" fill="#ffaf00"/><polygon points="1007.84 408.03 958.9 611.15 1105.03 508.64 1007.84 408.03" fill="#ffaf00"/><polygon points="1079.87 109.08 1086.59 114.42 1086.8 116.5 1087.73 124.84 1169.01 79.75 1099.24 28.53 1079.87 109.08" fill="#ffaf00"/><polygon points="1079.1 112.3 1085.41 117.24 1076.79 121.9 1079.1 112.3" fill="#ffaf00"/><polygon points="1087.73 124.84 1087.17 133.56 1168.64 88.28 1169.01 79.75 1087.73 124.84" fill="#ab0300"/><polygon points="1115.75 157.13 1116.13 164.92 1197.4 117.97 1197.77 109.44 1115.75 157.13" fill="#ab0300"/><polygon points="1144.33 189.24 1145.26 197.4 1226.17 148.41 1226.91 140.99 1144.33 189.24" fill="#ab0300"/><polygon points="1175.13 230.62 1176.25 222.27 1256.41 172.16 1256.41 180.32 1175.13 230.62" fill="#ab0300"/><polygon points="1205.38 264.2 1205.57 255.67 1287.78 204.45 1287.6 212.43 1205.38 264.2" fill="#ab0300"/><polygon points="1292.98 337.5 1290.93 345.34 1204.99 272.39 1205.38 264.2 1292.98 337.5" fill="#ab0300"/><polygon points="1165.65 297.63 1164.72 305.62 1248.62 380.24 1252.7 373 1165.65 297.63" fill="#ab0300"/><polygon points="1122.45 335.45 1121.53 342.92 1204.41 421.43 1208.58 413.04 1122.45 335.45" fill="#ab0300"/><polygon points="1074.81 374.87 1074.81 383.59 1156.02 465.17 1157.68 457.74 1074.81 374.87" fill="#ab0300"/><polygon points="1105.87 500.15 1105.03 508.64 1024.34 425.11 1024.34 417.04 1105.87 500.15" fill="#ab0300"/><path d="M682.16,1195.67s-25.43,3.75-42.7-14.8L470.46,974A190.73,190.73,0,0,0,588.59,797.82c0-83.32-43.08-129.74-79.21-154-42.7-28.68-89.95-36.33-111.13-36.33q-4.77,0-9.51.23v-.14H151.93V642.5c30.45-.24,39.48,17.44,38.16,43.79v531.06H388.74V1021.14l124.33,163c11.46,17.78-14,13.46-14,13.46l0,19.75H682.76Z" transform="translate(-151.93 -607.48)" fill="#ab0300"/><path d="M308.32,880.54,272.51,898.7l4.59-84.51a121.21,121.21,0,0,1-1.1-16.37,122.46,122.46,0,0,1,92.24-118.53V642.4l73.54,42.46c36.19,13.79,78.73,45.66,78.73,113a122.69,122.69,0,0,1-1.12,16.47l32.92,12.29-60.73,50.11a122.07,122.07,0,0,1-183.26,3.85Z" transform="translate(-151.93 -607.48)" fill="#50db00"/><path d="M1813.19,607.48q-4.79,0-9.51.23v-.14h-272v50.57c35,1.07,82.77,19.39,84.23,47.54v437c-1.46,32.73-47.14,44-84.23,43.37v31.27h272V987.92q4.72.23,9.51.23c105,0,190.34-85.38,190.34-190.33C2003.53,684.16,1909.81,607.48,1813.19,607.48Z" transform="translate(-151.93 -607.48)" fill="#ab0300"/><circle cx="1813.19" cy="797.82" r="163.08" transform="translate(583.3 1852.32) rotate(-80.78)" fill="#25009e"/><path d="M1749.09,825.05c-3.36-25.14-23.89-21.79-23.89-21.79-6.61-10.11-18.25-17.78-33.09-23.88-6.64-1.39-3.95,11-10.9,7.12,2.28,8-1.12,19.29-5.87,26.45-2.3,16.69,12.3,45.41,25.14,55.67,4.11,20.35,17.06,50.25,33.1,64.1.19-.61,3.92-12.61,4.38-12.59,5.47,5.56,15.19-17.83,17.83-19.67-3.48-13.45,18.9-8.44,20.11-21.78-4-24.36,19.71-18.18,12.15-40.64C1778.5,843.74,1759.06,827.82,1749.09,825.05Z" transform="translate(-151.93 -607.48)" fill="#50db00"/><path d="M1697.55,755.92l1.68,3.77C1705.45,760.48,1698.74,757.4,1697.55,755.92Z" transform="translate(-151.93 -607.48)" fill="#50db00"/><path d="M1687.08,748c.76,3.26,3.21,5.66,6.7,5.45a62,62,0,0,1-8.38-9.22C1678.49,745.08,1685.49,746.2,1687.08,748Z" transform="translate(-151.93 -607.48)" fill="#50db00"/><path d="M1851.52,677.36c-.33-2.14-1.67-5.29-3.92-6.05C1847.71,674.65,1846.5,678.69,1851.52,677.36Z" transform="translate(-151.93 -607.48)" fill="#50db00"/><path d="M1887.85,656c-11.6.11-13.66-.82-1.13,3.77,12.24,9.26,17.72,5.66,1.84,14.58-11.39-3.23-12,8.32-21.11,10.56l10.89,10.9c-9.61-1.57-18.07-5.06-18.85,3.77,10,3.26-3.2,14.31,18,14.66,11.3-9.89-2.18-9.75,17.18-21.37a34.27,34.27,0,0,0,16.76,9.22c-2.23-3.17-20.52-9.46-12.57-15.08l26.39,22.62c-1.37-5.2-10.87-10.77.84-10.47-1.44-4.81-15.1-13.52-2.93-14.67l8.8,8.38c2.06-2.32,5.27,2.24,6.93,2.94-1.24,3.06-4.55,1.1-6.51,0l-5.45,5.44c2.09,4,11.07,14,14,6.29,5.84-.45,4.08,13.15,4.46,17.18L1929,720.94c4.55,15.86-15.78-1.19-21.15-1.05,1.9-9.45-11.69-6.67-17.18-7.13-5.55,1.42-10.86,9-16.76,3.78-2.81.08-1.76,2.88-1.68,4.6a38.35,38.35,0,0,0-7.12,6.71c-.53,1.89-1.38,4.44,1.26,5-1.26,1.45-3.69,6.27-6.29,5-4.63,4.37-6.79,13.22-10.89,18.14-.77,2.28,1.24,3.92,2.93,4.91-1.7,1.89-.66,3.52.84,5l-.42,9.22c-5.71,4.07,1.61,5.48-1.26,12.15,10.14,1.6,24.18,32.06,34.78,18.86,15.15,5.23,15.34-11.33,31.84,1.67,5.71-2.7,9.37.64,9.22,6.64-1.66,2.71-4.79,8.49-3.35,11.8,2.11,2.54,8.12,7.44,5.44,11.31,9,5.33-1.17,26-5.23,33.1,3.69,3.95-1.38,17.85-1.89,22.53v13.5c18-10.73,34.65-32.6,43.37-51.33l.32-.17a162.22,162.22,0,0,0,10.46-57.43c0-65.46-36.29-116.6-85.21-143.1C1889.24,654.36,1888.1,654.71,1887.85,656Z" transform="translate(-151.93 -607.48)" fill="#50db00"/><path d="M1660.89,759.06c7,.05.56,6.28,9.28,13.66-.65,6.16,3,19.72,11,13.78-5.73.9-9.83-5.93-8.59-11.1,9.32-20.19-11.46-1.12,2.73-28.2-3.92-1.76-5.26,6-6.5,8.1-10.6-2.19,1.37-20.65,2.5-26.41l8-7.12c.5,2,.89,3.58,3.35,2.93,2.14-8.61,11,1.79,3.77,9.22,4.45,6.76,4.39-2.54,6.71-5-1.93-7.81,8.56-13,13.82-16.76,2.41-3.62,5.21-9.53,10.06-10.06.64-5.07,10.52-1.45,9.21-7.54,8.37-6.25,9.1.08,17.6-3.35.58-2.12.39-3.52-2.09-3.77-.83-3.45,5.35-6,3.35-9.64,4.13,3.77,11,.81,15.5-.84,2,3.8-14.15,6.73-4.61,8.38,3,.12,5.73-.81,3.77,3.35,5.61-1.79,5-3.74,2.52-8.38-.88-2.24,1.8-4,3.35-5-2.23-3.46-6.54-11-8.38-14.67-7.72-7.81-26.39,25.27-25.14.84,7.11-6.1,54.55-23.27,30.17-7.12.86,6.06,8.8-3.42,10.89-3.77,3.27.35,13-1.41,16.34-2.1-15.59,13.36-1.42,17.86,9.64,6.29,6-.46,20.54-4.76,24.3,2.51,4.08,1.52,10.59.15,10.89-5-17.9-11.2.79-14.09,12.17-13.82-2.07-.52-8-1.49-16.26-2.72a156.43,156.43,0,0,0-17-.94A163,163,0,0,0,1675,711.18C1665,732.23,1658.19,750.78,1660.89,759.06Z" transform="translate(-151.93 -607.48)" fill="#50db00"/><path d="M1856.13,681.13c8.41-.39,15.2-8.44,13-16.76,2.66,1.64,7.71,8.89,10.89,4.19-2.44-6-9.91-11-14.66-15.08-10.67-10.81-5.48-1.53-4.61,6.28,3.39,1.3,2.53,7.4,5.11,10-2.62,2.23-4.84,6.61-7.41,1.55-5,.12-9.29-12.24-8.17-1.07C1855.56,671.37,1858.6,676.14,1856.13,681.13Z" transform="translate(-151.93 -607.48)" fill="#50db00"/></svg>