<svg xmlns="http://www.w3.org/2000/svg" viewBox="0 0 2159.93 633.59"><path d="M631.3,1852.59A128.24,128.24,0,0,1,585,1818L396.31,1601.74q85.38-15.43,124.41-61t39-113q0-74-64.24-115.47T313.37,1270.8H32v32.53q25.2,1.64,40.25,5.29t23.18,13.82q8.12,10.17,10.57,27.64t2.44,46v375.66q0,28.47-3.26,46.75t-12.6,28.46q-9.36,10.18-26,13.82t-43.5,3.66v32.53H345.9v-32.53q-39,0-62.21-3.66t-35.37-14.23q-12.19-10.54-16.26-29.67t-4.07-49.2V1608.25q13,0,28.06,8.54t35.37,32.93l201.65,247.19H685.78v-32.53A134.11,134.11,0,0,1,631.3,1852.59ZM235.17,1518.76l-32.78,16.63,4.2-77.37a111.94,111.94,0,0,1,83.46-123.52v-33.77l67.32,38.87c33.14,12.63,72.09,41.81,72.09,103.42a112.15,112.15,0,0,1-1,15.09l30.14,11.25L403,1515.24a111.77,111.77,0,0,1-167.8,3.52Z" transform="translate(-23.09 -1270.8)" fill="#900"/><polygon points="1210.26 141.64 1210.26 131.97 1165.22 156.61 1165.41 146.38 1121.56 169.42 1121.18 159.77 1076.44 183.92 1074.12 173.88 1031.69 198.17 1028.92 190 979.42 214.04 978.84 205.17 927.92 226.97 944.08 246.38 948.52 244.25 976.59 275.02 982.58 272.13 1013.04 305.71 1019.03 302.62 1050.72 336.68 1061.12 330.55 1094.58 366.41 1102.07 361.93 1135.32 397.26 1141.96 393.05 1169.82 421.88 1241.69 124.69 1210.26 141.64" fill="#900"/><path d="M1022.08,1754.62l-1.64,8-38.2-44.36,1.16,8.7-37.28-44.14,2.91-1.71-3,1.69,1.36,8.5-39.06-44.12,1.35,5.6-33.37-40,.58,6.76-31.15-37.52v6.37l-30.56-40-.57,6.38-59.27-74.92,117.19-57.53,6.7,6.62,54-22.14,7.15,6.94L983.85,1394l6.65,6.52,37.4-19.16,7.33,6.37,38.37-18.36,6.94,6,36.14-17.46,7.53,5.78,39.25-18.07,6.57,4.63,35.31-16.13,6.37,4.45,76.56-40.31c-313.83-75.89-541.63,12.44-582,179.59S828,1827.58,1141.65,1903.52Z" transform="translate(-23.09 -1270.8)" fill="#900"/><line x1="849.39" y1="151.56" x2="911.59" y2="213.03" fill="none" stroke="#900" stroke-miterlimit="10" stroke-width="3.12"/><line x1="1245.57" y1="113.57" x2="1182.25" y2="63.33" fill="none" stroke="#900" stroke-miterlimit="10" stroke-width="3.12"/><line x1="1210.26" y1="131.97" x2="1140.38" y2="74.83" fill="none" stroke="#900" stroke-miterlimit="10" stroke-width="3.12"/><line x1="1165.41" y1="146.38" x2="1093.59" y2="87.11" fill="none" stroke="#900" stroke-miterlimit="10" stroke-width="3.12"/><line x1="1121.19" y1="159.77" x2="1050.51" y2="98.57" fill="none" stroke="#900" stroke-miterlimit="10" stroke-width="3.12"/><line x1="1074.12" y1="173.88" x2="1004.81" y2="110.55" fill="none" stroke="#900" stroke-miterlimit="10" stroke-width="3.12"/><line x1="1028.92" y1="190" x2="960.76" y2="123.2" fill="none" stroke="#900" stroke-miterlimit="10" stroke-width="3.12"/><line x1="978.84" y1="205.17" x2="910.1" y2="136.05" fill="none" stroke="#900" stroke-miterlimit="10" stroke-width="3.12"/><line x1="915.28" y1="211.81" x2="792.06" y2="277.66" fill="none" stroke="#900" stroke-miterlimit="10" stroke-width="3.12"/><line x1="822.61" y1="311.27" x2="948.52" y2="244.25" fill="none" stroke="#900" stroke-miterlimit="10" stroke-width="3.12"/><line x1="853.18" y1="342.04" x2="982.57" y2="272.12" fill="none" stroke="#900" stroke-miterlimit="10" stroke-width="3.12"/><line x1="885.2" y1="376.39" x2="1019.03" y2="302.62" fill="none" stroke="#900" stroke-miterlimit="10" stroke-width="3.12"/><line x1="923.03" y1="412.04" x2="1061.12" y2="330.55" fill="none" stroke="#900" stroke-miterlimit="10" stroke-width="3.12"/><line x1="959.15" y1="447.48" x2="1102.07" y2="361.93" fill="none" stroke="#900" stroke-miterlimit="10" stroke-width="3.12"/><line x1="999" y1="483.82" x2="1141.96" y2="393.05" fill="none" stroke="#900" stroke-miterlimit="10" stroke-width="3.12"/><polygon points="1553.14 290.58 1466.84 348.88 1375.71 272.62 1461.24 218.75 1553.14 290.58" fill="#900"/><polygon points="1428.8 185.35 1344.23 237.68 1375.9 263.74 1461.43 210.45 1428.8 185.35" fill="#900"/><polygon points="1397.34 152.14 1313.15 203.11 1345.4 228.99 1428.8 176.85 1397.34 152.14" fill="#900"/><polygon points="1312.19 194.62 1398.1 144.42 1367.4 120.47 1282.84 169.32 1312.19 194.62" fill="#900"/><polygon points="1367.79 111.6 1337.48 89.59 1252.72 136.7 1282.45 161.22 1367.79 111.6" fill="#900"/><polygon points="1187.35 431.63 1239.85 396.83 1324.35 481.71 1272.17 518.1 1187.35 431.63" fill="#900"/><polygon points="1239.85 387.75 1288.46 354.52 1374.7 436.2 1326.08 473.98 1239.85 387.75" fill="#900"/><polygon points="1333.41 315.71 1289.42 346.75 1379.03 427.47 1420.7 393.35 1333.41 315.71" fill="#900"/><polygon points="1375.31 281.13 1334.37 307.4 1424.94 385.81 1464.72 357.04 1375.31 281.13" fill="#900"/><polygon points="1170.18 422.26 1119.26 633.59 1271.3 526.93 1170.18 422.26" fill="#900"/><polygon points="1245.13 111.23 1252.12 116.78 1252.33 118.95 1253.3 127.63 1337.87 80.71 1265.27 27.42 1245.13 111.23" fill="#900"/><polygon points="1244.32 114.58 1250.89 119.72 1241.92 124.56 1244.32 114.58" fill="#900"/><path d="M2119.6,1314.71q-63.42-43.9-187-43.91H1651.24v32.53q24.39,1.64,39.44,5.29t23.17,13.82q8.12,10.17,11,27.64t2.84,46v375.66q0,28.47-3.25,46.34t-12.2,27.65q-9,9.77-26,13.82t-43.91,4.88v32.53h322.81v-32.53q-38.23,0-61-3.25t-35.78-13.82q-13-10.56-17.07-29.68t-4.07-50V1624.51h69.12q130.08,0,198.4-45.94t68.3-133.76Q2183,1358.63,2119.6,1314.71Zm-174,273.6c-79.44,0-144.08-64.63-144.08-144.08a143.44,143.44,0,0,1,22-76.55c-8.83,18.6-14.82,35-12.43,42.31,6.19,0,.49,5.54,8.2,12.07-.57,5.44,2.67,17.42,9.76,12.17-5.07.79-8.69-5.24-7.59-9.81,8.23-17.83-10.13-1,2.41-24.91-3.46-1.55-4.65,5.32-5.74,7.16-9.37-1.94,1.2-18.25,2.2-23.34l7-6.29c.44,1.72.78,3.16,3,2.59,1.89-7.61,9.72,1.58,3.33,8.15,3.93,6,3.88-2.25,5.92-4.45-1.7-6.89,7.57-11.48,12.22-14.8,2.13-3.2,4.6-8.42,8.88-8.89.57-4.48,9.3-1.28,8.15-6.66,7.39-5.52,8,.07,15.55-3,.51-1.88.34-3.11-1.86-3.33-.72-3,4.73-5.27,3-8.52,3.64,3.33,9.73.72,13.69-.74,1.8,3.36-12.5,6-4.07,7.4,2.65.11,5.06-.71,3.33,3,5-1.58,4.43-3.31,2.22-7.41-.77-2,1.6-3.54,3-4.44-2-3-5.78-9.76-7.41-13-6.81-6.9-23.31,22.32-22.21.73,6.28-5.39,48.2-20.55,26.65-6.29.76,5.36,7.78-3,9.63-3.33,2.88.32,11.53-1.24,14.44-1.85-13.78,11.8-1.26,15.77,8.51,5.55,5.28-.4,18.15-4.2,21.47,2.22,3.61,1.35,9.36.14,9.62-4.44-15.79-9.88,1-12.49,11-12.26a146.79,146.79,0,0,1,39.11,14.47h0c-1.6-.32-2.61,0-2.83,1.12-10.25.1-12.07-.73-1,3.33,10.82,8.18,15.66,5,1.63,12.88-10.07-2.85-10.65,7.35-18.66,9.34l9.63,9.62c-8.49-1.38-16-4.46-16.66,3.33,8.84,2.88-2.82,12.65,15.92,13,10-8.74-1.93-8.62,15.18-18.88a30.29,30.29,0,0,0,14.8,8.15c-2-2.81-18.13-8.37-11.1-13.33l23.32,20c-1.21-4.6-9.61-9.52.74-9.26-1.28-4.25-13.35-11.94-2.59-13l7.77,7.4c1.82-2,4.66,2,6.13,2.59-1.1,2.71-4,1-5.76,0l-4.81,4.81c1.84,3.54,9.78,12.41,12.34,5.55,5.16-.39,3.61,11.63,4,15.18l-14.44-3.33c4,14-14-1-18.69-.92,1.67-8.35-10.33-5.9-15.18-6.3-4.91,1.25-9.59,8-14.81,3.34-2.48.07-1.55,2.54-1.48,4.07a33,33,0,0,0-6.29,5.92c-.47,1.67-1.22,3.92,1.11,4.44-1.11,1.28-3.26,5.54-5.55,4.44-4.1,3.87-6,11.68-9.63,16-.68,2,1.1,3.47,2.59,4.34-1.5,1.67-.58,3.11.74,4.45l-.37,8.14c-5.05,3.6,1.42,4.84-1.11,10.74,9,1.41,21.36,28.32,30.73,16.65,13.38,4.63,13.55-10,28.13,1.48,5-2.39,8.27.57,8.15,5.87-1.48,2.4-4.24,7.5-3,10.42,1.87,2.25,7.18,6.57,4.82,10,8,4.7-1,23-4.63,29.24,3.26,3.5-1.21,15.77-1.67,19.91v11.92c15.87-9.47,30.61-28.8,38.32-45.34l.28-.15h0A144.31,144.31,0,0,1,1945.58,1588.31Z" transform="translate(-23.09 -1270.8)" fill="#900"/><path d="M1889,1468.29c-3-22.21-21.1-19.25-21.1-19.25-5.85-8.93-16.13-15.71-29.25-21.1-5.86-1.22-3.48,9.74-9.62,6.29,2,7.1-1,17-5.19,23.37-2,14.74,10.86,40.12,22.22,49.19,3.63,18,15.06,44.4,29.24,56.64.16-.54,3.46-11.15,3.87-11.13,4.83,4.91,13.42-15.75,15.75-17.38-3.07-11.89,16.7-7.46,17.77-19.25-3.53-21.51,17.41-16.06,10.73-35.9C1914.94,1484.8,1897.76,1470.74,1889,1468.29Z" transform="translate(-23.09 -1270.8)" fill="#900"/><path d="M1843.42,1407.21l1.48,3.33C1850.39,1411.24,1844.46,1408.52,1843.42,1407.21Z" transform="translate(-23.09 -1270.8)" fill="#900"/><path d="M1834.16,1400.18c.68,2.88,2.84,5,5.92,4.81a54.85,54.85,0,0,1-7.4-8.14C1826.58,1397.64,1832.76,1398.63,1834.16,1400.18Z" transform="translate(-23.09 -1270.8)" fill="#900"/><path d="M1979.46,1337.8c-.3-1.89-1.49-4.67-3.47-5.34C1976.09,1335.41,1975,1339,1979.46,1337.8Z" transform="translate(-23.09 -1270.8)" fill="#900"/><path d="M1983.53,1341.13c7.42-.34,13.43-7.45,11.47-14.8,2.36,1.44,6.82,7.85,9.63,3.7-2.16-5.27-8.76-9.77-13-13.33-9.43-9.55-4.84-1.35-4.07,5.55,3,1.15,2.23,6.54,4.52,8.83-2.32,2-4.28,5.85-6.55,1.37-4.41.11-8.21-10.81-7.22-.94C1983,1332.51,1985.71,1336.72,1983.53,1341.13Z" transform="translate(-23.09 -1270.8)" fill="#900"/></svg>