<svg xmlns="http://www.w3.org/2000/svg" viewBox="0 0 1930.54015 583.09201"><path d="M450.332,1194.48912a425.43172,425.43172,0,0,0,76.27636,41.335,470.81941,470.81941,0,0,0,87.9585,26.73243q11.38257,2.20752,11.38281,11.03808,0,12.14063-16.90185,12.1416-38.58107,0-108.38428-33.84961-58.05249-28.32861-133.001-87.56836v15.08594l.36817,62.54785v35.68946H143.9609v-16.55664l.73584-119.94532,1.104-143.49316-.73584-222.23H292.86325q99.27246,0,150.00683,5.519,50.73926,5.5188,86.40576,20.604,58.08765,24.28344,91.91358,79.84082,31.25171,51.51635,31.25146,108.17187,0,60.34644-34.90771,113.68994Q561.3088,1188.97643,450.332,1194.48912Zm-34.90723-22.81152,17.63769.36719q75.67823,0,127.86133-42.31153a173.91874,173.91874,0,0,0,50.69971-66.22754q16.53076-36.4248,16.53369-74.32177,0-64.38208-41.88623-115.16211a171.70632,171.70632,0,0,0-80.09424-55.55762q-48.13549-16.18579-135.5708-17.29248l-3.311,246.5127v66.5957l.36767,17.293A472.115,472.115,0,0,0,415.42477,1171.6776Z" transform="translate(-143.9609 -771.9192)"/><path d="M1789.72371,1187.49791v10.30274l.36719,70.64257v9.19825H1565.65438l.36816-22.44336,1.83984-258.65528-1.47168-122.88916-.36816-83.52-.36816-14.71728h168.14355q103.0166,0,156.1875,8.83057,53.16212,8.83006,89.22266,31.64209,48.56542,30.54345,75.05664,84.99169a196.87344,196.87344,0,0,1,20.23633,87.19971,205.23966,205.23966,0,0,1-22.81055,94.18994q-27.23437,53.72315-77.082,82.60059-49.86036,28.88819-115.34571,28.88183Q1834.9786,1193.75279,1789.72371,1187.49791Zm.36719-387.062v24.65137l-1.4707,245.77685.73632,91.61524q29.05957,7.72558,75.42579,7.72656a191.31307,191.31307,0,0,0,78.73632-16.55762,175.42464,175.42464,0,0,0,62.916-46.72656q43.78125-51.13623,43.7832-118.84131,0-64.38208-43.416-116.63428-30.90528-37.158-79.83985-54.08545-48.9375-16.91967-125.832-16.9248Z" transform="translate(-143.9609 -771.9192)"/><path d="M1110.75188,1355.01121s-407.21149-81.75906-419.83819-339.19083c12.25532-240.404,560.41342-243.90118,560.41342-243.90118Z" transform="translate(-143.9609 -771.9192)"/><polygon points="1069.582 364.827 1032.479 388.838 1114.069 472.009 1150.851 446.469 1069.582 364.827"/><polygon points="1106.685 334.274 1069.582 356.096 1152.519 439.033 1189.63 412.841 1106.685 334.274"/><polygon points="1141.938 303.53 1106.268 326.186 1191.715 406.812 1226.264 380.246 1141.938 303.53"/><polygon points="1262.307 348.669 1229.053 373.74 1142.867 296.094 1178.346 273.994 1262.307 348.669"/><polygon points="1299.271 317.091 1266.39 341.423 1179.275 266.001 1213.268 244.084 1299.271 317.091"/><polygon points="1384.536 253.188 1301.504 309.281 1213.824 235.909 1296.118 184.081 1384.536 253.188"/><polygon points="1264.905 151.947 1183.541 202.29 1214.007 227.369 1296.3 176.098 1264.905 151.947"/><polygon points="1234.63 119.996 1264.905 143.773 1184.661 193.933 1153.639 169.035 1234.63 119.996"/><polygon points="1205.832 89.53 1124.477 136.528 1152.71 160.869 1235.368 112.568 1205.832 89.53"/><polygon points="1107.571 0 1033.826 38.823 1089.606 83.623 1109.674 1.544 1107.571 0" fill="#fff"/><polygon points="1109.674 1.544 1089.606 83.623 1095.123 88.053 1096.052 96.41 1177.416 51.272 1109.674 1.544"/><polygon points="1177.043 59.811 1095.496 105.141 1124.103 128.727 1206.206 80.991 1177.043 59.811"/><polygon points="1027.693 34.549 999.277 47.736 1060.2 98.261 1060.2 107.556 1087.479 92.322 1089.595 83.667 1027.693 34.549" fill="#fff"/><polygon points="1089.595 83.667 1087.479 92.322 1095.123 88.053 1089.595 83.667"/><polygon points="1024.539 119.066 1060.2 98.261 992.961 43.28 962.869 57.77 1024.722 109.224 1024.539 119.066" fill="#fff"/><polygon points="987.94 130.586 1024.722 109.224 955.624 52.201 924.784 68.915 987.575 121.299 987.94 130.586" fill="#fff"/><polygon points="919.581 62.417 886.335 78.949 948.005 133.183 949.491 142.105 987.575 121.299 919.581 62.417" fill="#fff"/><polygon points="880.02 72.633 847.138 90.095 906.767 144.893 909 154.554 948.005 133.183 880.02 72.633" fill="#fff"/><polygon points="840.084 83.962 804.597 101.24 864.226 159.01 867.015 168.106 906.767 144.893 840.084 83.962" fill="#fff"/><polygon points="760.579 113.68 798.655 94.734 864.226 159.01 820.391 182.04 819.835 173.5 760.579 113.68" fill="#fff"/><polygon points="713.582 125.947 753.699 107 819.835 173.5 781.941 192.447 713.582 125.947" fill="#fff"/><polygon points="594.698 174.795 651.72 246.872 652.276 240.739 771.169 182.413 707.449 119.44 594.698 174.795" fill="#fff"/><line x1="707.44867" y1="119.44" x2="771.16915" y2="182.41334" fill="#fff" stroke="#000" stroke-miterlimit="10"/><polygon points="674.759 269.537 652.276 240.739 770.796 177.401 791.601 200.987 674.759 263.404 674.759 269.537" fill="#fff"/><polygon points="699.274 293.679 674.759 263.404 795.867 198.945 817.42 222.722 698.718 287.181 699.274 293.679" fill="#fff"/><polygon points="725.466 320.244 698.718 287.181 823.179 219.933 847.138 246.872 724.171 314.858 725.466 320.244" fill="#fff"/><polygon points="878.343 272.69 852.898 243.901 724.171 314.858 754.264 350.71 752.961 342.535 878.343 272.69" fill="#fff"/><polygon points="752.961 342.535 883.364 268.416 909.921 297.579 783.053 372.81 783.983 379.873 752.961 342.535" fill="#fff"/><polygon points="783.053 372.81 915.871 294.426 945.217 326.56 814.814 404.388 815.934 412.754 783.053 372.81" fill="#fff"/><polygon points="952.279 322.103 814.814 404.388 849.736 446.747 851.317 439.033 985.716 359.258 952.279 322.103" fill="#fff"/><polygon points="1016.94 380.828 967.588 582.676 1113.235 480.505 1016.94 380.828"/><polygon points="988.826 351.726 851.317 439.033 966.996 583.092 967.588 582.676 1016.94 380.828 988.826 351.726" fill="#fff"/><line x1="1095.12268" y1="88.05323" x2="1027.69282" y2="34.54891" fill="#fff" stroke="#000" stroke-miterlimit="10"/><line x1="1060.20017" y1="98.26066" x2="992.9614" y2="43.27952" fill="#fff" stroke="#000" stroke-miterlimit="10"/><line x1="1024.72177" y1="109.22388" x2="955.62393" y2="52.20125" fill="#fff" stroke="#000" stroke-miterlimit="10"/><line x1="987.57539" y1="121.29906" x2="919.58084" y2="62.41737" fill="#fff" stroke="#000" stroke-miterlimit="10"/><line x1="948.00526" y1="133.18311" x2="880.01951" y2="72.63349" fill="#fff" stroke="#000" stroke-miterlimit="10"/><line x1="906.76726" y1="144.89342" x2="840.08448" y2="83.96157" fill="#fff" stroke="#000" stroke-miterlimit="10"/><line x1="864.22618" y1="159.01008" x2="798.65539" y2="94.73367" fill="#fff" stroke="#000" stroke-miterlimit="10"/><line x1="819.83473" y1="173.5003" x2="753.69925" y2="106.99996" fill="#fff" stroke="#000" stroke-miterlimit="10"/><line x1="770.79555" y1="177.40085" x2="652.27646" y2="240.73904" fill="#fff" stroke="#000" stroke-miterlimit="10"/><line x1="674.75888" y1="263.40388" x2="795.86673" y2="198.94503" fill="#fff" stroke="#000" stroke-miterlimit="10"/><line x1="698.71807" y1="287.18068" x2="823.17927" y2="219.93325" fill="#fff" stroke="#000" stroke-miterlimit="10"/><line x1="724.17149" y1="314.85804" x2="852.89807" y2="243.90119" fill="#fff" stroke="#000" stroke-miterlimit="10"/><line x1="752.96086" y1="342.53537" x2="883.36405" y2="268.4164" fill="#fff" stroke="#000" stroke-miterlimit="10"/><line x1="783.05314" y1="372.81019" x2="915.8714" y2="294.42581" fill="#fff" stroke="#000" stroke-miterlimit="10"/><line x1="814.81351" y1="404.38808" x2="952.27939" y2="322.10314" fill="#fff" stroke="#000" stroke-miterlimit="10"/><line x1="851.31705" y1="439.03254" x2="988.8264" y2="351.72642" fill="#fff" stroke="#000" stroke-miterlimit="10"/></svg>