<svg xmlns="http://www.w3.org/2000/svg" viewBox="0 0 2047.38 1569.18"><path d="M1881.4,982.73l.5-20.7-81.34-62.57V878.28l-78.43-61.59,1.91-19.25-76.51-59.66,1-22.14-75.55-54.87,1-22.13L64.28,958.65l12.26,45.49,148.7,189,556.07,564.71L1030.83,2050l390.51-276.48,549.34-484.28L2102.79,1199l7.7-37.29ZM1578.73,1195l-2.41,20.71-91.92,57.25-2.4,19.27-92.41,58.65,1.08,21-61.33,36.07-34.79,20.46V1451l-96.12,62.21.24,25.86L423.76,1100.87,1347,805.64l310.76,346.58Z" transform="translate(-63.66 -481.51)" fill="#ffb000" stroke="#fff" stroke-miterlimit="10"/><path d="M1294.54,1428.29" transform="translate(-63.66 -481.51)"/><polygon points="1736.9 417.9 1526.11 548.32 1605.04 613.29 1818.23 480.46 1736.9 417.9" fill="#ffda00"/><polygon points="1658.47 335.12 1448.65 462.17 1529.02 526.67 1736.9 396.72 1658.47 335.12" fill="#ffda00"/><polygon points="1373.1 377.95 1395.11 396.93 1404.14 360.02 1373.1 377.95"/><polygon points="1660.38 315.88 1583.86 256.19 1404.14 360.02 1395.11 396.93 1446.24 441.01 1660.38 315.88" fill="#ffda00"/><polygon points="1299.46 274.02 1297.05 252.37 1138.25 124.83 1329.3 24.25 1510.24 157.08 1299.46 274.02" fill="#ffda00"/><path d="M1573.9,638.59" transform="translate(-63.66 -481.51)"/><polygon points="1298.02 296.64 1372.13 357.74 1410.09 335.67 1438.76 218.4 1298.02 296.64"/><polygon points="1509.28 179.2 1438.76 218.4 1410.09 335.67 1584.83 234.07 1509.28 179.2" fill="#ffda00"/><polygon points="1206.58 302.89 1297.05 252.37 1122.36 113.76 1048.74 147.92 1206.58 278.81 1206.58 302.89"/><polygon points="1206.58 278.81 1032.38 136.38 954.42 173.91 1114.66 307.21 1114.19 332.71 1206.58 278.81"/><polygon points="935.65 159.49 855.76 202.79 1018.43 338.5 1019.38 362.56 1114.66 307.21 935.65 159.49"/><polygon points="842.28 185.96 756.15 228.78 915.92 369.29 919.76 392.4 1018.43 338.5 842.28 185.96"/><polygon points="739.79 212.42 654.6 257.66 809.08 399.62 814.87 424.65 915.92 369.29 739.79 212.42"/><polygon points="636.33 241.77 544.39 286.53 698.87 436.19 706.1 459.76 809.08 399.62 636.33 241.77"/><polygon points="430.36 318.76 529 269.68 698.87 436.19 585.31 495.86 583.87 473.73 430.36 318.76" fill="#ffda00"/><polygon points="308.6 350.54 412.53 301.45 583.87 473.73 485.7 522.82 308.6 350.54" fill="#ffda00"/><line x1="292.71" y1="333.68" x2="457.79" y2="496.83" fill="#fff" stroke="#fff" stroke-miterlimit="10"/><line x1="1297.05" y1="252.37" x2="1122.36" y2="113.76" fill="#fff" stroke="#fff" stroke-miterlimit="10"/><line x1="1206.58" y1="278.81" x2="1032.38" y2="136.38" fill="#fff" stroke="#fff" stroke-miterlimit="10"/><line x1="1114.66" y1="307.22" x2="935.65" y2="159.49" fill="#fff" stroke="#fff" stroke-miterlimit="10"/><line x1="1018.43" y1="338.5" x2="842.28" y2="185.95" fill="#fff" stroke="#fff" stroke-miterlimit="10"/><line x1="915.92" y1="369.29" x2="739.79" y2="212.42" fill="#fff" stroke="#fff" stroke-miterlimit="10"/><line x1="809.08" y1="399.62" x2="636.33" y2="241.77" fill="#fff" stroke="#fff" stroke-miterlimit="10"/><line x1="698.87" y1="436.19" x2="529" y2="269.68" fill="#fff" stroke="#fff" stroke-miterlimit="10"/><line x1="583.87" y1="473.73" x2="412.53" y2="301.45" fill="#fff" stroke="#fff" stroke-miterlimit="10" stroke-width="4"/><circle cx="1029.99" cy="571.4" r="571.4" fill="#00a4ff"/><path d="M1005.51,1193.93l-14.69,8.81-63.16-26.44-58.76-27.91c-11.75-88.13-83.73-76.38-83.73-76.38-23.19-35.46-64-62.34-116-83.73-12.44,1.31-22.25,7-22,29.38l-16.16-4.4c-1.47,13-.22,24.83,7.34,33.78L610.37,1106v49.78l52.89,111.64,35.25,33.78,26.44,94,58.76,99.89,30.84,30.84,13.22-41.13,2.12-3,15.51,3,47-72-2.93-16.16c12.86-16.76,30.84-26.44,55.82-26.44l17.62-33.79,1.47-49.94,48.48-48.47Z" transform="translate(-63.66 -481.51)" fill="#cfffca"/><polygon points="630.45 437.73 624.57 424.51 641.57 437.73 630.45 437.73" fill="#cfffca"/><polygon points="611.35 415.7 595.19 412.76 587.85 396.61 570.22 386.32 581.97 383.38 594.56 399.54 611.35 415.7" fill="#cfffca"/><polygon points="1164.39 149.09 1150.63 149.09 1150.63 127.88 1159.99 134.41 1164.39 149.09" fill="#cfffca"/><path d="M1515.31,695.24l-6.7,7.34-16.16-7.34-19.09,19.09,22,29.38,23.5,1.47,3.43-8.81h8.32l7.35,26v34.18l-57.29-13.22v26.44l-74.18-30.11-1.47-17.63-17.24-7.34H1346.3l-19.1,7.34-7.34,10.28-23.51,1.47-8.81-5.87-7.34,2.94,1.46,13.22-13.22,10.28-11.75,13.22-2.93,13.22,7.34,4.41-13.31,17.62h-8.72l-17.63,22L1220,876.65l-19.1,29.79v9.87l10.29,7.34-4.41,8.82,7.35,8.81-1.47,32.31-10.29,10.29,8.82,13.22-2.94,19.09,19.1,10.29,74.91,72,27.91-16.16,27.91,5.88,42.6-22,41.13,22,17.62-4.41,11.42,7.35,3.27,20.34-13.22,25.19,1.47,16.16,22,25-2.93,14.69,10.28,4.5v54.26l-28.65,57.29,6.61,17.62-13.22,61.36v47.34l69.78-53.61,47-63.17v-23.5l14.69-19.1,20.57-20.56,17.62-57.29-4.4-17.62,14.69-42.6,7.34-46.27,4-36.73,1.79-60.9-8.81-23.5-91.07-163.05c29.48,23.81,60.35,72.49,92.54,144l-52.88-160.12V780.49l-38.19-52.88-29.38-35.25-29.38-25-25-26.44,9.33-10.29-124.57-85.77-15.88,10.8h-39.2l35.25,13.22,49.94,32.32A63.82,63.82,0,0,0,1338.79,620c-24.81-4.82-41,2.75-47.58,23.83l-26.44,13.22L1303,695.24c-27-6.33-49.59-9-61.69-2.94l-4.41,16.16,17.63,10.28-4.41,16.16c2.94,11.44,10.29,14.69,30.2,25H1300l19.09-19.1-1.47-23.5,42.6-32.32c17.38,17.63,37.41,27,58.76,32.32l-52.88-36.72,8.81-16.16,92.54,79.32-19.09-33.78,22-2.94-30.85-44.07,20.57-7.34L1491,685l7.35-2.93Z" transform="translate(-63.66 -481.51)" fill="#cfffca"/><path d="M1210.42,494v-.52a574.06,574.06,0,0,0-116.78-12c-229.32,0-427.09,135.14-518.06,330l-2.66,7.08,1.47,13.22L567,852.41l-7.34,26.51V917l13.22,2.21v21.29l19.3,24.4v23.34l18.15,32.16,20.57-7.18-18.36-2.21-12.87-22.77,1.12-13.95,11.75-35.25-19.1-5.88-2.2-13.66,19.09-44.07-11,.49-11.75,27.91-14-6.66L572.86,873l23.5-61.69,27.91-25,2.94,10.28H636l1.47-8.81,10.28-2.94,10.29,10.28L661,806.87l-11.75,22,10.28,10.28,13.22-27.91V792.19l22-22,26.44-17.63,10.28-16.15,11.75-14.69,13.22-4.41,4.41-8.81,26.44-5.88,1.47-11.75,25-13.22L827,685l23.5-5.87L852,668.8l-8.81-2.94v-7.35l13.22-16.15-1.47-10.29,13.22,7.35,20.56-2.94,20.57-7.34V635l-27.91,19.1,11.75,4.4h16.16l-2.94,11.76,17.63-8.82-8.82-20.56v-8.82l11.76-8.81-17.63-29.38-11.75-22-11.75-7.35L874,571.85,821.1,610l-11.75-14.69V574.79l42.6-25,13.22-2.94L881.33,541l41.13-13.22,25-2.94-32.32,25,5.88,8.81,32.32-22h16.15l41.13-7.35L990,548.35l-4.41,19.09,19.1,11.75,39.66-27.91,54.35-7.34,23.5,7.34,7.34,8.82,16.16,2.94,17.63-7.35,4.41-13.22-13.22-4.41-14.69-29.37,23.5-11.76Z" transform="translate(-63.66 -481.51)" fill="#cfffca"/><polygon points="1226.09 103.56 1227.56 125.59 1214.63 149.09 1195.14 159.38 1180.55 162.31 1184.96 141.75 1170.63 127.88 1159.99 124.12 1159.99 106.39 1174.67 121.19 1188.63 127.88 1198.13 138.49 1214.63 122.43 1206.14 106.39 1204.05 91.81 1196.71 87.4 1187.89 43.33 1212.87 65.37 1237.84 85.93 1254 100.62 1264.28 118.25 1252.53 125.59 1226.09 103.56" fill="#cfffca"/><path d="M64.28,958.65l12.26,45.49,148.7,189,556.07,564.71L1030.83,2050l390.51-276.48,549.34-484.28L2102.79,1199l7.7-37.29-229.09-179-213.18,134.2-1.44,21.17-88,56.88-2.41,20.71-91.92,57.25-2.4,19.27-92.41,58.65,1.08,21-61.33,36.07-34.79,20.46V1451l-96.12,62.21.24,25.86Z" transform="translate(-63.66 -481.51)" fill="#ffb000"/><polygon points="1134.76 1031.6 1230.88 969.4 1441.42 1180.91 1346.13 1247.07 1134.76 1031.6" fill="#ffda00"/><polygon points="1230.88 946.78 1327 890.25 1541.89 1093.79 1445.74 1161.64 1230.88 946.78" fill="#ffda00"/><polygon points="1418.33 810.6 1325.92 869.29 1547.29 1078.17 1636.79 1009.35 1418.33 810.6" fill="#ffda00"/><polygon points="1512.65 734.08 1420.74 791.33 1644.02 992.49 1730.17 927.54 1512.65 734.08" fill="#ffda00"/><polygon points="1603.13 656.59 1515.06 713.37 1740.75 908.77 1825.93 845.73 1603.13 656.59" fill="#ffda00"/><polygon points="2046.82 680.18 1831.71 825.5 1604.57 635.41 1817.76 501.15 2046.82 680.18" fill="#ffda00"/><polygon points="0.61 477.09 148.34 663.82 149.78 647.93 457.79 496.82 292.71 333.68 0.61 477.09" fill="#ffda00"/><line x1="292.71" y1="333.68" x2="457.79" y2="496.83" fill="#fff" stroke="#fff" stroke-miterlimit="10" stroke-width="4"/><polygon points="208.03 722.53 149.78 647.93 456.82 483.84 510.73 544.94 208.03 706.64 208.03 722.53" fill="#ffda00"/><polygon points="271.54 785.08 208.03 706.64 521.77 539.65 577.61 601.25 270.1 768.24 271.54 785.08" fill="#ffda00"/><polygon points="339.39 853.9 270.1 768.24 592.53 594.03 654.6 663.82 336.04 839.95 339.39 853.9" fill="#ffda00"/><polygon points="735.44 730.7 669.52 656.12 336.04 839.95 414 932.83 410.62 911.65 735.44 730.7" fill="#ffda00"/><polygon points="410.62 911.65 748.45 719.63 817.25 795.18 488.58 990.08 490.99 1008.38 410.62 911.65" fill="#ffda00"/><polygon points="488.58 990.08 832.67 787.01 908.69 870.26 570.86 1071.89 573.76 1093.56 488.58 990.08" fill="#ffda00"/><polygon points="570.86 1071.89 926.99 858.72 1013.61 954.97 665.43 1161.64 661.33 1181.63 570.86 1071.89" fill="#ffda00"/><polygon points="1021.67 935.46 665.43 1161.64 965.11 1534.85 1343.97 1269.08 1021.67 935.46" fill="#ffda00"/><line x1="456.82" y1="483.84" x2="149.78" y2="647.93" fill="#fff" stroke="#fff" stroke-miterlimit="10" stroke-width="4"/><line x1="208.02" y1="706.64" x2="521.78" y2="539.65" fill="#fff" stroke="#fff" stroke-miterlimit="10" stroke-width="4"/><line x1="270.1" y1="768.24" x2="592.53" y2="594.03" fill="#fff" stroke="#fff" stroke-miterlimit="10" stroke-width="4"/><line x1="336.04" y1="839.95" x2="669.52" y2="656.12" fill="#fff" stroke="#fff" stroke-miterlimit="10" stroke-width="4"/><line x1="410.62" y1="911.65" x2="748.45" y2="719.63" fill="#fff" stroke="#fff" stroke-miterlimit="10" stroke-width="4"/><line x1="488.58" y1="990.08" x2="832.67" y2="787.01" fill="#fff" stroke="#fff" stroke-miterlimit="10" stroke-width="4"/><line x1="570.86" y1="1071.89" x2="926.99" y2="858.72" fill="#fff" stroke="#fff" stroke-miterlimit="10" stroke-width="4"/><line x1="665.43" y1="1161.64" x2="1021.67" y2="935.46" fill="#fff" stroke="#fff" stroke-miterlimit="10" stroke-width="4"/><text transform="translate(722.71 483.84)" font-size="192.21" fill="#fff" font-family="Perpetua">RCP</text></svg>