<svg xmlns="http://www.w3.org/2000/svg" viewBox="3750 40 580 360"><polygon points="4118.23 366.35 4129.47 366.61 4159.85 361.25 4164.19 346.44 4164.45 323.97 4160.62 299.97 4157.81 282.35 4153.98 270.86 4147.85 256.31 4140.19 234.35 4130.49 215.72 4121.55 202.95 4110.57 225.16 4105.98 248.14 4103.94 266.01 4101.38 282.61 4102.4 299.46 4100.36 333.42 4105.72 359.71 4118.23 366.35" fill="#00ffd4"/><polygon points="4054.91 357.42 4052.62 347.46 4054.15 332.91 4056.45 316.82 4060.53 303.8 4060.53 290.01 4060.28 267.03 4062.57 244.57 4067.94 225.42 4073.3 211.63 4078.4 201.42 4084.28 184.06 4089.38 194.01 4093.21 210.61 4095 220.82 4095.51 248.65 4099.85 265.76 4104.7 281.59 4108.02 307.88 4112.62 336.99 4112.11 348.48 4108.28 364.31 4086.06 366.86 4061.81 362.78 4054.91 357.42" fill="#00ffd4"/><polygon points="4032.45 310.69 4048.79 304.82 4056.45 294.35 4045.72 287.2 4053.38 283.88 4053.13 278.01 4045.21 270.35 4052.36 265.76 4055.43 260.39 4042.4 261.42 4052.87 252.74 4044.96 250.95 4051.6 241.25 4037.04 240.74 4043.94 238.69 4045.21 234.1 4039.34 233.08 4043.43 229.5 4044.45 223.88 4038.32 224.91 4035.26 217.76 4039.85 209.59 4040.11 199.88 4033.98 201.93 4037.81 193.5 4038.57 187.63 4028.87 186.61 4037.3 181.76 4024.53 183.8 4032.96 177.16 4031.94 171.03 4027.09 172.31 4025.55 168.99 4033.72 161.08 4024.53 163.12 4029.89 146.52 4019.68 146.52 4026.06 138.1 4018.66 138.86 4021.47 130.69 4018.4 123.03 4014.83 108.99 4009.21 128.65 4007.68 128.65 4010.49 134.01 4004.87 132.74 4010.49 139.37 4004.87 136.06 4010.74 143.2 4004.36 142.95 4010.23 148.06 4004.11 147.54 4007.43 155.46 4006.91 164.4 4006.66 174.35 3999.51 170.27 4003.85 184.31 3995.17 181.76 4003.6 192.48 3999.26 196.31 4001.81 201.16 4001.55 209.08 3998.23 214.44 3996.7 223.63 4001.3 241.76 3993.89 240.48 3987.51 260.91 3984.96 280.57 3985.98 294.86 3989.81 304.82 4002.83 308.65 4007.43 372.99 4030.4 372.48 4032.45 310.69" fill="#00ffd4"/><path d="M4051.81,349.43l1.53,51.83h13.79l-.26-50.81h9.45l4.59-8.17-.25.76,2.3-8.17,12-5.61-15.83.76.76-7.4,3.32-16.85-2.3-8.68,10.22-6.64-10.22-3.32,2.81-2.3-4.59-11.49,8.93-1-.51-11.49-8.68-24.77-9.44-9.19,1-6.64h4.08l-3.57-5.87h7.15l1.27-4.59-1.53-12-2.81-7.15-3.32-4.85-9.44,2.29v-4.34l4.08-.76,5.36,1.78-.51-11.74-5.1,5.36-3.83,1.53,4.59-4.08.77-7.15,9.7-8.43-11.23,4.6-1.54-4.85,4.86-1.53.76-8.68-6.38,6.89.76-6.64,8.69-6.38-12.77,3.83-.26-2.81,9.45-4.09-8.94.77,5.62-2.81-6.13-3.06h8.43l-1.28-7.41-3.32,3.58-2.8-.51,6.12-8.68-5.36,1L4060,113l-2.81,10.72-3.57-2.29,3.06,7.4H4050l7.15,8.68-5.87-2,4.08,5.87H4048l6.89,3.83V149l-7.91-1.28,6.38,3.83-2,5.88-6.39-2.3,4.6,5.87-.77,5.87,2.81,10,5.11,6.13-11.23-5.87-.52,7.91v8.68l-3.82,5.62.25,8.68-.77,23.23-6.12,10,.76,24.51s6.64,17.36,7.15,18.64-1.53,22-1.53,22L4035,320.06l.76,22.22,5.37,7.15" transform="translate(-98 -25.71)" fill="#00ffd4"/><polygon points="3846.4 261.5 3857.98 255.37 3855.6 246.52 3863.77 234.95 3854.57 234.27 3857.98 222.69 3844.7 218.27 3855.26 208.06 3846.06 204.31 3854.23 200.57 3833.47 192.06 3848.45 187.63 3841.64 183.88 3850.83 178.1 3835.85 170.27 3847.09 167.2 3840.96 163.46 3846.4 155.63 3843 149.84 3850.83 146.78 3840.28 143.03 3846.06 140.31 3850.83 136.57 3849.13 134.18 3843 137.93 3838.23 137.25 3835.85 135.2 3844.02 127.37 3834.49 127.72 3849.81 121.25 3849.13 117.84 3844.7 118.86 3840.96 116.14 3843.34 111.37 3836.53 114.78 3838.91 110.69 3834.49 113.08 3834.15 106.27 3839.6 107.29 3840.28 103.89 3844.02 101.5 3839.6 100.14 3844.02 96.06 3833.47 100.14 3838.91 95.72 3838.23 90.95 3833.13 95.03 3832.45 91.63 3838.23 88.22 3837.55 81.08 3833.47 81.08 3839.6 73.25 3833.47 76.31 3832.79 69.5 3829.38 57.59 3825.64 67.8 3824.28 55.88 3820.87 66.44 3818.15 66.1 3819.51 72.22 3815.43 71.2 3818.49 76.65 3813.72 75.63 3813.38 82.44 3818.83 88.57 3808.96 83.46 3818.15 93.33 3817.47 97.76 3814.06 100.82 3804.19 96.06 3814.06 103.2 3809.64 104.91 3817.81 111.72 3818.49 113.76 3814.06 113.08 3801.47 104.91 3804.19 109.33 3815.09 117.5 3806.23 113.08 3815.09 121.93 3804.87 117.5 3814.06 128.74 3822.23 133.16 3814.74 132.48 3809.64 124.99 3810.66 130.78 3815.77 135.54 3808.96 131.8 3803.85 124.31 3803.51 127.72 3808.28 135.88 3809.3 138.95 3807.26 139.97 3808.28 144.4 3814.4 147.46 3816.79 148.48 3815.77 153.25 3809.98 152.22 3804.53 147.8 3800.45 146.44 3797.04 140.65 3797.38 146.1 3800.45 151.2 3804.19 153.93 3815.43 157.33 3807.94 157.33 3803.51 159.72 3797.72 153.59 3798.06 159.72 3801.81 165.5 3811.34 169.93 3799.43 167.54 3795 163.8 3789.89 158.35 3793.64 166.52 3797.38 169.93 3803.17 171.63 3818.49 175.03 3807.94 176.4 3798.4 174.69 3793.64 171.29 3792.62 175.72 3795.34 178.1 3793.64 183.2 3802.49 184.57 3804.87 187.29 3811.34 187.29 3811 190.35 3819.51 194.1 3806.91 194.78 3798.74 192.4 3789.89 188.65 3793.64 197.84 3799.09 197.84 3811.34 199.88 3802.83 202.95 3799.43 207.37 3793.3 202.95 3795.34 210.44 3801.13 214.18 3806.91 213.84 3795.68 216.22 3792.28 220.65 3803.17 225.08 3792.62 225.08 3801.81 232.22 3790.57 239.03 3802.49 244.82 3792.62 245.5 3801.13 251.97 3794.32 258.44 3806.23 262.18 3819 262.69 3820.02 363.8 3831.77 363.8 3832.53 263.2 3846.4 261.5" fill="#00ffd4"/><polygon points="4287.6 251.63 4297.81 266.61 4299.17 273.08 4295.43 278.18 4301.55 284.99 4304.28 292.14 4305.3 303.37 4304.62 308.82 4298.83 310.52 4305.98 314.61 4307.68 322.1 4298.49 324.14 4310.4 325.5 4312.79 335.03 4307.34 340.82 4316.19 346.27 4318.91 359.88 4307 363.63 4283.17 362.95 4266.15 363.63 4257.3 358.86 4267.17 350.69 4261.38 340.48 4264.79 333.33 4269.55 335.71 4267.17 328.91 4263.77 327.2 4264.11 320.39 4267.85 320.39 4271.43 320.14 4273.98 316.18 4269.51 316.06 4266.7 314.01 4268.11 309.8 4269 310.82 4272.57 311.2 4270.02 309.16 4269.89 306.35 4271.43 307.12 4273.09 307.25 4270.28 304.44 4269.51 302.78 4272.32 298.95 4273.21 299.71 4272.45 301.25 4273.72 302.39 4275.64 302.27 4276.28 299.84 4274.11 297.42 4273.34 295.12 4273.21 290.14 4274.11 286.95 4276.66 287.2 4275.51 284.27 4276.4 281.08 4277.04 280.44 4279.98 280.44 4279.6 278.27 4276.53 277.5 4273.09 274.82 4273.09 272.27 4274.49 270.86 4275.38 272.91 4275.89 274.82 4278.06 275.46 4279.47 275.46 4278.19 272.91 4275.77 271.25 4275 269.33 4277.3 265.12 4278.96 267.54 4279.21 269.2 4280.87 270.23 4281.89 267.67 4281.77 260.39 4286.62 251.46 4287.6 251.63" fill="#fff800"/><polygon points="4212.02 247.03 4218.66 256.06 4223.09 271.03 4228.87 293.67 4232.28 306.78 4235.85 326.18 4240.96 342.86 4243.85 348.65 4242.15 356.48 4237.04 361.42 4227 363.63 4212.02 365.33 4194.15 362.95 4188.53 355.46 4189.55 345.25 4192.96 328.57 4199.09 310.18 4200.96 306.95 4196.02 303.37 4191.26 299.97 4196.19 300.31 4200.96 302.35 4202.83 301.84 4202.83 298.27 4197.21 298.27 4194.49 297.08 4197.38 297.08 4201.64 297.08 4203.17 295.71 4199.26 293.84 4194.66 293.5 4193.81 290.95 4198.06 291.12 4204.19 291.8 4208.62 288.06 4204.02 286.18 4200.79 283.29 4206.74 283.29 4205.72 274.44 4207.43 271.2 4204.02 266.44 4207.77 265.08 4204.36 262.52 4207.94 261.84 4207.43 254.01 4212.02 247.03" fill="#fff800"/><polygon points="4105.21 381.67 4118.23 378.61 4120.02 372.23 4116.19 356.65 4116.19 344.91 4112.87 320.39 4110.57 311.71 4110.57 303.03 4103.68 292.57 4099.85 282.1 4097.04 264.74 4091.68 250.95 4090.4 239.97 4087.85 252.74 4083.77 264.99 4082.23 272.65 4079.94 278.52 4074.06 280.31 4070.23 289.5 4064.62 305.84 4059.51 322.95 4056.45 336.48 4053.13 353.59 4054.66 366.61 4057.21 375.29 4065.13 378.61 4078.66 381.93 4091.68 383.46 4105.21 381.67" fill="#ff0"/><polygon points="3901.21 274.44 3911.17 289.25 3919.34 305.59 3926.49 329.08 3927.51 340.57 3922.4 358.18 3915.77 362.01 3906.32 365.84 3919.34 372.48 3900.45 378.35 3897.13 377.59 3898.4 362.27 3885.64 361.76 3876.45 353.59 3870.83 346.95 3869.81 336.23 3877.21 332.65 3877.21 323.97 3872.36 320.14 3878.74 318.1 3878.74 315.8 3875.68 312.48 3881.55 310.44 3885.89 305.84 3884.11 294.61 3888.7 299.2 3887.43 287.97 3893.04 291.54 3891.51 283.12 3894.57 284.91 3895.6 277.25 3901.21 274.44" fill="#ff0"/><polygon points="3799.85 288.48 3797.3 278.01 3792.96 272.39 3790.15 280.57 3789.13 286.69 3785.04 285.42 3787.34 290.52 3787.34 295.37 3783 295.12 3781.21 301.76 3784.79 304.57 3783 307.63 3778.91 308.91 3776.87 321.93 3777.13 327.03 3775.85 332.91 3769.47 341.08 3766.4 354.86 3768.45 374.52 3773.04 382.44 3786.06 385.76 3800.11 388.06 3810.32 382.18 3815.17 368.65 3812.87 361.5 3807.51 355.88 3811.6 344.91 3809.04 335.71 3807.51 332.91 3807.51 326.01 3799.6 322.95 3806.49 319.37 3799.09 316.57 3808.79 313.25 3801.89 310.44 3800.36 305.08 3803.94 303.54 3799.85 288.48" fill="#ff0"/><polygon points="3836.62 257.59 3842.49 268.82 3845.04 286.44 3840.45 290.01 3850.15 292.31 3838.91 297.93 3854.49 299.97 3843.77 306.1 3855.51 311.97 3841.21 318.35 3855 323.46 3846.06 327.29 3836.62 332.91 3857.3 338.78 3848.87 346.95 3858.32 356.39 3843 362.01 3837.89 374.52 3829.72 372.48 3825.13 357.16 3821.3 350.52 3815.43 339.03 3822.06 330.35 3823.85 322.69 3814.15 319.37 3816.7 305.33 3829.72 307.63 3815.94 300.23 3828.19 298.18 3824.62 295.88 3828.19 293.59 3821.81 289.76 3816.45 284.91 3822.83 283.88 3830.49 280.57 3824.62 274.69 3830.49 274.95 3826.4 267.54 3832.02 270.86 3832.02 267.54 3828.96 264.74 3829.72 263.2 3832.53 263.2 3836.62 257.59" fill="#ff0"/><polygon points="3963 390.86 3980.87 385.5 3983.94 373.5 3979.85 353.59 3972.45 353.08 3971.17 348.23 3975.77 344.39 3970.15 341.59 3966.83 336.74 3971.94 335.2 3970.15 329.59 3972.96 327.54 3974.23 323.46 3969.64 327.03 3965.3 328.06 3968.87 324.74 3971.43 320.39 3965.81 322.18 3968.11 316.06 3963.77 313.5 3961.47 307.12 3959.68 312.23 3959.17 318.35 3954.83 315.8 3960.45 324.99 3953.81 323.71 3957.13 328.82 3955.34 328.82 3956.36 333.67 3959.94 338.01 3956.11 339.03 3957.13 342.86 3953.3 339.54 3953.55 345.67 3948.7 339.03 3951.26 345.67 3955.6 350.01 3956.36 354.1 3951 351.03 3955.6 357.67 3948.7 355.37 3949.98 358.95 3943.85 355.88 3941.55 360.48 3940.53 369.67 3941.81 379.12 3948.7 386.52 3963 390.86" fill="#13ff00"/><polygon points="4158.83 286.18 4160.11 294.61 4163.43 295.63 4162.66 300.74 4165.72 307.12 4164.7 311.71 4172.87 310.18 4171.85 319.12 4170.32 320.91 4172.11 327.54 4170.83 331.37 4171.6 335.71 4162.66 338.52 4172.11 343.37 4176.45 345.42 4172.36 345.93 4173.38 353.84 4176.19 355.63 4177.72 365.84 4177.47 374.52 4174.91 384.99 4160.87 384.23 4145.04 381.93 4137.13 375.54 4134.57 364.31 4138.15 354.1 4142.49 350.52 4144.79 342.61 4145.3 340.31 4141.21 335.97 4146.32 334.44 4147.09 332.14 4142.23 330.61 4146.32 329.33 4149.13 324.48 4145.55 319.12 4145.55 316.82 4153.47 317.08 4152.7 313.5 4147.85 309.16 4153.47 308.65 4148.87 303.8 4154.23 304.57 4149.64 294.35 4156.79 297.42 4158.83 286.18" fill="#13ff00"/></svg>