<svg xmlns="http://www.w3.org/2000/svg" viewBox="0 0 2159.9342 824.2067"><defs><style>.a{fill:#900300;}.b{fill:#2dd8ff;}.c{fill:#375d00;}.d{fill:#fff;}.e{fill:#ffaf00;}</style></defs><path class="a" d="M631.302,1852.5926a128.3411,128.3411,0,0,1-46.3476-34.5576L396.31,1601.7449q85.3785-15.4365,124.4078-60.9843,39.03-45.5274,39.03-113.0235,0-73.98-64.2363-115.4629-64.2429-41.47-182.1392-41.47H32.032v32.5244q25.1939,1.6407,40.25,5.2862,15.0359,3.6576,23.1738,13.8232,8.1183,10.1763,10.57,27.6455,2.44,17.4946,2.4394,45.9414v375.6621q0,28.4722-3.2524,46.7549-3.2586,18.2945-12.6035,28.459-9.3567,10.1763-26.02,13.8232-16.6758,3.6592-43.5019,3.6592v32.5244h322.809v-32.5244q-39.03,0-62.2041-3.6592t-35.3706-14.23q-12.197-10.5585-16.2622-29.68-4.0788-19.0957-4.0659-49.1934V1608.25q12.9976,0,28.0528,8.5381,15.0366,8.5371,35.3706,32.9316L493.0716,1896.908H685.781v-32.5244A134.1779,134.1779,0,0,1,631.302,1852.5926Z" transform="translate(-23.0877 -1223.2917)"/><circle class="b" cx="295.2675" cy="220.1328" r="112.4734"/><polyline class="c" points="258.795 113.624 258.795 154.427 330.058 113.284"/><polyline class="b" points="330.058 113.284 258.795 72.14 258.795 113.624"/><polyline class="c" points="405.902 240.574 364.402 220.961 371.151 302.971"/><polyline class="b" points="371.151 302.971 438.799 256.121 405.902 240.574"/><polyline class="c" points="208.813 292.081 248.399 275.521 182.941 225.657"/><polyline class="b" points="182.941 225.657 172.487 307.277 208.813 292.081"/><path class="d" d="M1503.99,1444.772l.2195-9.6055-37.774-29.0569v-9.8354l-36.4255-28.6074.8884-8.9366-35.5372-27.719.4495-10.2744-35.0891-25.4787.45-10.2745-84.0337-61.6918-91.01,47.912-6.9415-5.5013-41.525,18.9721-6.9256-5.6631-45.8155,21.0936-8.3009-6.85-41.8159,20.2108-8.0433-6.9652-44.6668,21.3733-8.1753-7.47-43.2693,22.172-7.7668-7.6134L872.33,1357.9611l-8.1379-8.1827L801.67,1375.414l-7.663-7.5732-133.941,65.7579,68.6076,86.7211.648-7.4065,35.3966,46.3393L764.7,1551.85l36.0748,43.46-.686-7.8406,38.6406,46.27-1.5578-6.482,45.2056,51.0787-1.5423-9.8526,43.2924,51.1282-1.3439-10.0625L967,1760.8906l1.894-9.2951,139.2271,173.3855L1284.12,1801.5186l1.0037-10.225L1345.52,1749.17l2.0074-8.9495,56.2776-43.7333,5.0149-10.1032,48.2343-39.5027,4.9139-8.7194,46.0442-33.3111,2.4577-9.4427,99.8916-67.5122Zm-99.0128,62.3573-.4686,9.8577-47.3825,30.4048-1.1187,9.6185-50.9107,35.927-1.1153,8.995-56.2671,38.4744v10.5073l-60.7837,40.2839v9.7168l-51.2552-53.0544-7.7038,4.8912-38.4861-40.8912-8.6719,5.1909-38.7374-41.5135-12.0411,7.1063-36.6736-39.42-6.8044,3.7508-35.4133-39.0393-6.689,3.6142-32.728-35.8765-5.05,2.6878-20.053-24.0687,58.972-25.2542.6474,10.2837,57.4379-27.8967,3.0673,9.5259,49.1674-28.1454,2.6341,11.6526,51.8452-27.9906.3894,11.2,50.7743-26.6778-.2344,11.85,52.1644-28.5331-.0289,11.1995,47.031-25.3664,3.582-1.6939-.7964,10.8469-.669,10.5044,34.42,28.3739.4493,9.386,33.9694,29.2868,1.1185,9.8251,37.3244,29.9557-1.3483,10.0549,36.6556,30.1753Z" transform="translate(-23.0877 -1223.2917)"/><polygon class="e" points="1273.94 154.879 1274.389 164.265 1372.273 107.72 1372.723 97.445 1273.94 154.879"/><polygon class="e" points="1308.359 193.552 1309.477 203.377 1406.922 144.375 1407.811 135.438 1308.359 193.552"/><polygon class="e" points="1346.802 233.333 1345.453 243.388 1443.348 182.818 1443.348 172.982 1346.802 233.333"/><polygon class="e" points="1382.109 273.563 1381.889 283.838 1480.902 221.48 1481.122 211.875 1382.109 273.563"/><polygon class="e" points="1587.274 304.604 1487.382 372.116 1381.889 283.838 1381.421 293.695 1484.925 381.559 1585.443 312.432 1587.274 304.604"/><polygon class="e" points="1334.038 324.1 1332.919 333.719 1433.967 423.589 1438.88 414.87 1334.038 324.1"/><polygon class="e" points="1282.009 369.646 1280.894 378.641 1380.717 473.195 1385.732 463.092 1282.009 369.646"/><polygon class="e" points="1224.626 417.115 1224.626 427.622 1322.432 525.878 1324.44 516.929 1224.626 417.115"/><polygon class="e" points="706.056 291.833 706.399 287.554 842.19 214.985 770.919 144.549 636.978 210.307 705.585 297.028 706.056 291.833 706.056 291.833"/><polygon class="e" points="1087.697 164.376 1136.722 138.617 1053.531 69.963 1015.257 88.462 1087.262 150.816 1087.355 155.677 1087.355 155.677 1087.697 164.376"/><polygon class="e" points="1107.647 55.72 1065.475 75.136 1138.528 135.423 1138.413 140.009 1138.237 149.548 1188.662 121.966 1107.647 55.72"/><polygon class="e" points="1254.049 0 1166.529 46.075 1240.985 105.154 1240.189 116.001 1338.083 61.692 1254.049 0"/><polygon class="e" points="881.227 252.234 863.536 231 920.7 206.521 841.105 126.487 782.214 150.633 845.526 213.202 848.056 211.85 850.364 214.705 707.382 291.125 741.63 335.961 741.63 330.626 741.595 326.552 881.227 252.234"/><polygon class="e" points="1031.129 170.486 950.829 97.112 910.95 117.547 979.647 184.888 981.616 191.641 983.661 197.659 1031.129 170.486"/><polygon class="e" points="899.793 111.67 852.75 133.073 922.355 203.061 922.665 208.496 923.155 216.03 978.723 189.041 899.793 111.67"/><polygon class="e" points="1035.462 181.166 1085.558 154.12 1003.672 83.209 962.52 102.9 1032.204 166.573 1033.493 172.645 1033.493 172.645 1035.462 181.166"/><polygon class="e" points="1112.588 424.569 1261.032 578.227 1085.033 701.689 946.953 529.732 1112.588 424.569"/><polygon class="e" points="1156.098 42.411 1118.234 59.71 1190.407 118.726 1190.372 132.214 1237.403 106.848 1156.098 42.411"/><polygon class="e" points="945.311 530.775 946.294 525.871 1102.363 426.781 1066.398 388.569 900.887 487.64 943.912 537.599 945.311 530.775 945.311 530.775"/><polygon class="e" points="777.186 366.16 776.821 362.25 918.857 285.507 888.639 252.381 742.808 329.999 777.687 372.018 777.186 366.16 777.186 366.16"/><polygon class="e" points="814.521 405.786 814.521 405.786 814.084 403.965 814.099 403.982 813.666 402.133 960.975 320.933 928.056 284.644 778.199 365.612 815.642 410.447 814.521 405.786 814.521 405.786"/><polygon class="e" points="899.696 486.257 899.437 484.297 1055.204 391.057 1018.988 352.246 859.063 446.628 901.039 496.319 899.691 486.251 899.696 486.257"/><polygon class="e" points="858.044 447.229 858.044 447.228 857.721 445.205 857.747 445.191 857.481 443.366 1004.427 356.644 970.274 319.932 815.311 405.351 859.289 455.043 858.044 447.229 858.044 447.229"/><path class="a" d="M2119.599,1314.7137q-63.4233-43.91-187.0185-43.9092h-281.34v32.5244q24.394,1.6407,39.4365,5.2862,15.0367,3.6576,23.1739,13.8232,8.1181,10.1763,10.9775,27.6455,2.8389,17.4946,2.8457,45.9414v375.6621q0,28.4722-3.2519,46.3477-3.2594,17.8959-12.1973,27.6465-8.9575,9.7572-26.0195,13.8232-17.0757,4.0782-43.9092,4.8789v32.5244h322.81v-32.5244q-38.23,0-60.9844-3.2529-22.7739-3.24-35.7774-13.8233-13.0166-10.557-17.0752-29.6787-4.0781-19.0956-4.0654-50.0068V1624.5125h69.1152q130.0856,0,198.4014-45.9414,68.3013-45.9286,68.3018-133.7578Q2183.0219,1358.6337,2119.599,1314.7137Z" transform="translate(-23.0877 -1223.2917)"/><circle class="b" cx="1945.585" cy="1444.2292" r="130.18" transform="matrix(0.1602, -0.9871, 0.9871, 0.1602, 185.2683, 1910.0598)"/><path class="c" d="M1894.413,1465.971c-2.6751-20.07-19.0634-17.3939-19.0634-17.3939-5.281-8.0737-14.5688-14.1942-26.4219-19.0639-5.2969-1.1077-3.15,8.8-8.6948,5.6863,1.8133,6.4093-.897,15.3953-4.6863,21.107-1.8408,13.325,9.8124,36.2508,20.07,44.4459,3.2808,16.2449,13.6143,40.1113,26.4231,51.1709.1451-.4893,3.1246-10.0682,3.4911-10.0535,4.37,4.4345,12.1291-14.2316,14.2359-15.7-2.7781-10.7429,15.0828-6.7438,16.05-17.3921-3.1879-19.44,15.7365-14.51,9.7013-32.4413C1917.8937,1480.887,1902.3718,1468.1811,1894.413,1465.971Z" transform="translate(-23.0877 -1223.2917)"/><path class="c" d="M1853.2756,1410.7837l1.3378,3.01C1859.5812,1414.4258,1854.2236,1411.964,1853.2756,1410.7837Z" transform="translate(-23.0877 -1223.2917)"/><path class="c" d="M1844.9148,1404.4282c.61,2.6008,2.5651,4.517,5.3507,4.3488a49.2709,49.2709,0,0,1-6.69-7.3572C1838.0614,1402.1318,1843.6454,1403.0265,1844.9148,1404.4282Z" transform="translate(-23.0877 -1223.2917)"/><path class="c" d="M1976.1877,1348.0735c-.2689-1.7061-1.34-4.2224-3.1338-4.8305C1973.1424,1345.9114,1972.1772,1349.1357,1976.1877,1348.0735Z" transform="translate(-23.0877 -1223.2917)"/><path class="c" d="M2005.1819,1331.0162c-9.2581.0846-10.9017-.661-.9012,3.0087,9.7759,7.39,14.1457,4.5131,1.47,11.6341-9.0943-2.5789-9.6175,6.6421-16.8532,8.4347l8.696,8.6953c-7.67-1.2462-14.423-4.032-15.05,3.0108,7.9851,2.6021-2.55,11.4289,14.382,11.7066,9.0155-7.897-1.7429-7.7857,13.7114-17.0581a27.3659,27.3659,0,0,0,13.3788,7.36c-1.778-2.5339-16.3806-7.5573-10.0343-12.0425l21.07,18.0616c-1.0937-4.1547-8.6776-8.6.6691-8.3609-1.1532-3.84-12.0577-10.7941-2.3405-11.7074l7.0237,6.69c1.6428-1.8528,4.2066,1.7861,5.5375,2.34-.99,2.4486-3.6358.88-5.2032,0l-4.3475,4.3474c1.6666,3.2,8.838,11.2138,11.1476,5.0169,4.6674-.3536,3.2641,10.5016,3.5679,13.7131l-13.0458-3.0083c3.6314,12.6645-12.6016-.9515-16.8887-.8379,1.5173-7.5426-9.33-5.3259-13.7119-5.6863-4.4317,1.1313-8.6647,7.1965-13.3777,3.0114-2.2456.065-1.4052,2.2988-1.338,3.6784a30.2375,30.2375,0,0,0-5.6854,5.3506c-.4269,1.5108-1.1,3.5457,1.0032,4.0134-1.0054,1.1548-2.9436,5.0048-5.0171,4.014-3.6978,3.4891-5.42,10.5517-8.695,14.4749-.6132,1.82.9925,3.135,2.3412,3.92-1.3605,1.5076-.53,2.8113.668,4.0135l-.3349,7.3582c-4.5625,3.2512,1.2848,4.3711-1.005,9.6994,8.096,1.2781,19.2962,25.5869,27.7615,15.0512,12.0924,4.18,12.246-9.0408,25.4183,1.3375,4.5606-2.1594,7.4752.5107,7.3592,5.3-1.3288,2.1643-3.823,6.7767-2.6772,9.4144,1.6837,2.0331,6.4876,5.939,4.3492,9.03,7.2051,4.2548-.9366,20.7583-4.1818,26.4221,2.9464,3.1589-1.0947,14.2514-1.5043,17.9841l-.0014,10.7781c14.3359-8.5646,27.6586-26.0231,34.6175-40.9693.0891-.042.1727-.0941.2607-.138a129.5342,129.5342,0,0,0,8.3445-45.85c0-52.25-28.9619-93.0756-68.02-114.2276C2006.293,1329.7084,2005.3851,1329.9933,2005.1819,1331.0162Z" transform="translate(-23.0877 -1223.2917)"/><path class="c" d="M1824.011,1413.2925c5.5924.039.4413,5.0111,7.4057,10.9057-.5192,4.9131,2.408,15.7376,8.8147,11-4.5748.7135-7.8456-4.7339-6.8557-8.8629,7.4391-16.1154-9.1516-.8929,2.1744-22.5085-3.1261-1.4048-4.2,4.805-5.185,6.466-8.4612-1.75,1.0909-16.4891,1.9932-21.0821l6.3552-5.685c.3977,1.5543.7076,2.8575,2.6761,2.34,1.7094-6.8807,8.78,1.4224,3.0083,7.3581,3.5536,5.393,3.5025-2.03,5.3536-4.0127-1.5358-6.23,6.8378-10.3793,11.0362-13.3785,1.92-2.884,4.158-7.6062,8.0268-8.0264.5105-4.0482,8.4018-1.1568,7.3574-6.02,6.6756-4.9871,7.2606.0637,14.0477-2.6756.4614-1.6938.312-2.8045-1.6729-3.01-.6566-2.7485,4.27-4.76,2.6757-7.6928,3.2943,3.01,8.7945.6461,12.3754-.6693,1.624,3.0326-11.2938,5.3715-3.68,6.6883,2.3915.0925,4.5724-.6468,3.01,2.6766,4.4753-1.4286,3.9985-2.9858,2.0065-6.6894-.6954-1.7916,1.4429-3.202,2.6772-4.013-1.7777-2.76-5.219-8.8194-6.6895-11.706-6.1582-6.2339-21.0623,20.1681-20.067.6684,5.6757-4.8723,43.547-18.5734,24.0806-5.6854.6849,4.8375,7.0286-2.7288,8.6969-3.01,2.6061.2839,10.4179-1.1224,13.0428-1.6729-12.4449,10.6616-1.1341,14.2531,7.6911,5.0159,4.7691-.3605,16.4-3.7957,19.3986,2.0085,3.2642,1.216,8.455.12,8.6961-4.0141-14.2879-8.9413.89-11.2926,9.9762-11.081a129.4057,129.4057,0,0,0-26.8526-2.8757,130.1286,130.1286,0,0,0-110.3487,61.02C1827.2584,1391.87,1821.8517,1406.6808,1824.011,1413.2925Z" transform="translate(-23.0877 -1223.2917)"/><path class="c" d="M1979.8661,1351.0831c6.7085-.3133,12.1337-6.7363,10.3687-13.3777,2.1259,1.3028,6.1563,7.097,8.6955,3.3447-1.9541-4.7581-7.9133-8.8263-11.7062-12.04-8.52-8.6331-4.3772-1.224-3.6777,5.0162,2.7022,1.0355,2.0164,5.9039,4.08,7.9764-2.0943,1.7858-3.8681,5.28-5.92,1.24-3.9781.0983-7.4126-9.7669-6.5234-.8542C1979.4116,1343.29,1981.8345,1347.097,1979.8661,1351.0831Z" transform="translate(-23.0877 -1223.2917)"/><path class="a" d="M23.0877,2046.29v-66.9026c11.5854-.5857,22.2217-2.4774,30.726,4.2753,11.3517,8.631,5.4617,27.077-5.3558,33.6864,7.6874,9.1488,15.6082,25.5741,28.1893,26.6863l-.0938,3.0062c-18.3377-1.7277-16.98-9.3643-32.23-27.813q-9.21,0-16.7251-.564V2046.29Zm18.5107-30.82c19.9636-5.9167,20.5439-38.4058-14-32.3235V2015Q35.1145,2015.4715,41.5984,2015.47Z" transform="translate(-23.0877 -1223.2917)"/><polygon class="a" points="60.699 822.998 60.699 762.015 89.171 762.015 89.171 765.774 65.022 765.774 65.022 787.95 86.822 787.95 86.822 791.614 65.022 791.614 65.022 819.052 90.11 819.052 90.11 822.998 60.699 822.998"/><path class="a" d="M142.7966,1987.9382c-10.9891-.8894-15.3286,11.4361-7.2344,18.4173,7.6634,7.9558,23.0723,12.6123,23.2083,25.2764.7183,17.7-24.6495,19.43-35.4243,10.8993l2.2546-3.2887c20.521,13.5918,42.746-6.7609,17.0538-21.8934-29.5818-16.249-13.5561-42.5431,15.1764-30.0687l-1.5974,3.4764A30.5118,30.5118,0,0,0,142.7966,1987.9382Z" transform="translate(-23.0877 -1223.2917)"/><path class="a" d="M176.0582,2046.29v-60.6066c43.0745-8.983,44.7753,34.6206,7.6115,35.3308v-3.0073c30.1669-.2488,28.1064-35.56-3.2887-28.9409v57.224Z" transform="translate(-23.0877 -1223.2917)"/><path class="a" d="M252.6389,2047.2293c-40.5561-.08-40.55-62.7844.0011-62.8612C293.1949,1984.4508,293.1893,2047.1545,252.6389,2047.2293Zm.0474-59.0086c-34.5653-.36-34.6246,55.4725.0012,55.062C287.203,2043.7082,287.1388,1987.8376,252.6863,1988.2207Z" transform="translate(-23.0877 -1223.2917)"/><path class="a" d="M302.1575,2046.29V1984.932h2.0676c4.0692,4.8471,43.4676,49.5269,45.9486,53.3713-.3931-4.7393-.1043-47.0676-.1882-52.9961h4.3223v61.3592h-2.0671c-2.937-3.418-44.9651-51.3823-45.9485-53.09.3992,4.5878.1,46.88.1882,52.7136Z" transform="translate(-23.0877 -1223.2917)"/><path class="a" d="M389.1684,1987.9382c-10.9892-.8894-15.3286,11.4361-7.2345,18.4173,7.6634,7.9558,23.0724,12.6123,23.2083,25.2764.7184,17.7-24.6494,19.43-35.4243,10.8993l2.2547-3.2887c20.521,13.5918,42.7459-6.7609,17.0537-21.8934-29.5817-16.249-13.556-42.5431,15.1765-30.0687l-1.5975,3.4764A30.5114,30.5114,0,0,0,389.1684,1987.9382Z" transform="translate(-23.0877 -1223.2917)"/><rect class="a" x="399.3428" y="762.0155" width="4.3228" height="60.9829"/><path class="a" d="M449.21,1985.59c8.1558-.3977,18.8139-2.1277,25.7934,2.8185,9.237,6.0066,4.4693,20.7695-3.994,25.1821,12.8669,2.5837,19.437,20.6153,9.0671,29.0354-6.8743,6.0474-22.5189,3.9193-30.8665,3.4768Zm26.5918,12.591c-.1564-10.8491-14.897-9.9024-22.27-9.3022V2011.9q8.1753,0,13.0612.4691C471.4676,2009.74,475.9724,2004.0847,475.8018,1998.1807ZM457.7607,2015.47l-4.2285.0938v26.9676C488.0429,2049.1406,490.4841,2016.0619,457.7607,2015.47Z" transform="translate(-23.0877 -1223.2917)"/><polygon class="a" points="479.963 822.998 479.963 762.015 484.286 762.015 484.286 819.052 512.287 819.052 512.287 822.998 479.963 822.998"/><polygon class="a" points="525.065 822.998 525.065 762.015 553.536 762.015 553.536 765.774 529.388 765.774 529.388 787.95 551.187 787.95 551.187 791.614 529.388 791.614 529.388 819.052 554.476 819.052 554.476 822.998 525.065 822.998"/><path class="a" d="M661.5654,2047.418c-58.0793-4.5336-41.6417-89.24,19.9205-65.681l-1.2216,3.7578c-67.9018-23.5413-63.9277,77.6738.47,54.4055l1.4093,3.1949C676.9254,2046.1456,667.8832,2047.4151,661.5654,2047.418Z" transform="translate(-23.0877 -1223.2917)"/><path class="a" d="M724.5215,2047.2293c-40.556-.08-40.55-62.7844.0011-62.8612C765.0776,1984.4508,765.0719,2047.1545,724.5215,2047.2293Zm.0475-59.0086c-34.5653-.36-34.6247,55.4725.0012,55.062C759.0857,2043.7082,759.0215,1987.8376,724.569,1988.2207Z" transform="translate(-23.0877 -1223.2917)"/><path class="a" d="M774.04,2046.29V1984.932h2.0676c4.0691,4.8471,43.4676,49.5269,45.9485,53.3713-.3931-4.7393-.1043-47.0676-.1881-52.9961H826.19v61.3592h-2.067c-2.937-3.418-44.9652-51.3823-45.9485-53.09.3992,4.5878.1,46.88.1881,52.7136Z" transform="translate(-23.0877 -1223.2917)"/><path class="a" d="M861.0516,1987.9382c-10.9892-.8894-15.3286,11.4361-7.2345,18.4173,7.6635,7.9558,23.0724,12.6123,23.2083,25.2764.7184,17.7-24.6494,19.43-35.4242,10.8993l2.2546-3.2887c20.521,13.5918,42.746-6.7609,17.0537-21.8934-29.5817-16.249-13.556-42.5431,15.1765-30.0687l-1.5975,3.4764A30.5114,30.5114,0,0,0,861.0516,1987.9382Z" transform="translate(-23.0877 -1223.2917)"/><path class="a" d="M937.725,2039.9941c-7.2633,9.6535-30.51,9.6535-37.7735,0-9.9761-9.5685-5.1327-41.7831-6.2018-54.6865h4.3223c1.6075,17.96-8.21,60.1372,20.7661,58.07,28.954,2.1028,19.1739-40.1678,20.7658-58.07h4.3223C942.8631,1998.3133,947.69,2030.3431,937.725,2039.9941Z" transform="translate(-23.0877 -1223.2917)"/><path class="a" d="M994.1964,2043.0952H991.66c-1.3807-3.5605-19.4979-46.8474-20.0144-49.05-.1488,2.0154-7.38,48.7335-7.893,52.2446H959.524l9.96-61.3581h2.5372c1.4294,3.6043,20.7457,48.6333,21.2361,50.928.5844-2.2051,22.183-47.4969,23.6789-50.928h2.5366l9.3028,61.3581h-4.51c-.454-3.892-7.4365-49.8683-7.329-52.4322C1016.1879,1996.0146,995.8513,2039.4892,994.1964,2043.0952Z" transform="translate(-23.0877 -1223.2917)"/><path class="a" d="M1044.9357,2046.29v-60.6066c43.0745-8.983,44.7753,34.6206,7.6116,35.3308v-3.0073c30.1668-.2488,28.1063-35.56-3.2888-28.9409v57.224Z" transform="translate(-23.0877 -1223.2917)"/><polygon class="a" points="1082.361 765.868 1061.689 765.868 1061.689 762.015 1107.262 762.015 1107.262 765.868 1086.589 765.868 1086.589 822.998 1082.361 822.998 1082.361 765.868"/><rect class="a" x="1120.0406" y="762.0155" width="4.3228" height="60.9829"/><path class="a" d="M1196.97,2047.2293c-40.5565-.08-40.55-62.7838.0011-62.8612C1237.5258,1984.4508,1237.52,2047.1546,1196.97,2047.2293Zm.0474-59.0086c-34.5655-.36-34.6249,55.4723.0012,55.062C1231.5339,2043.7082,1231.47,1987.8376,1197.0172,1988.2207Z" transform="translate(-23.0877 -1223.2917)"/><path class="a" d="M1246.4885,2046.29V1984.932h2.067c4.0687,4.8473,43.4682,49.5265,45.9485,53.3713-.3918-4.7394-.104-47.0676-.1876-52.9961h4.3228v61.3592h-2.0681c-2.937-3.418-44.9652-51.3823-45.9485-53.09.4008,4.5877.1,46.88.1887,52.7136Z" transform="translate(-23.0877 -1223.2917)"/><path class="a" d="M1358.0219,2025.1484l-8.7394,21.1417h-4.4155l25.5583-61.3581h2.5361l25.7471,61.3581h-4.793l-8.8321-21.1417Zm13.4364-33.2637c-1.5919,5.4195-9.7607,24.2024-11.9332,29.5986H1383.58C1381.6857,2016.8051,1372.8358,1995.8325,1371.4583,1991.8847Z" transform="translate(-23.0877 -1223.2917)"/><path class="a" d="M1411.1108,2046.29V1984.932h2.067c4.0687,4.8473,43.4683,49.5265,45.9486,53.3713-.3919-4.7394-.1041-47.0676-.1876-52.9961h4.3228v61.3592h-2.0682c-2.937-3.418-44.9651-51.3823-45.9485-53.09.4008,4.5877.1,46.88.1887,52.7136Z" transform="translate(-23.0877 -1223.2917)"/><path class="a" d="M1503.4769,1984.7432c29.32-1.743,43.9509,35.5081,24.29,54.7828-10.5176,9.75-27.8943,7.6858-41.9555,6.5765v-60.7953Q1493.3288,1984.7444,1503.4769,1984.7432Zm1.8794,58.352c25.9693,2.1762,34.9864-30.7359,18.369-46.795-7.5626-8.5975-23.771-8.2526-33.4034-7.3279v53.4651A135.6407,135.6407,0,0,0,1505.3563,2043.0952Z" transform="translate(-23.0877 -1223.2917)"/><path class="a" d="M1590.2047,2046.29v-66.8088c48.47-9.3844,48.0532,38.5361,8.3631,38.902v-3.1011c33.4945-.5911,31.3161-39.2269-3.8527-32.1359V2046.29Z" transform="translate(-23.0877 -1223.2917)"/><path class="a" d="M1643.67,2046.29v-60.7c10.45-.6072,20.2613-2.3285,28.0017,3.8052,10.2758,7.83,5.0343,24.511-4.7919,30.5853,12.7507,15.2095,11.8137,20.5248,25.4635,24.0553l-.0938,2.9124c-16.9347-1.5441-15.8713-8.8946-29.3161-25.1821q-7.6116,0-14.9406-.47V2046.29Zm16.9138-28.0955c19.0546-6.308,16.9419-34.7457-12.591-29.1285v28.6594Q1654.7583,2018.1958,1660.5837,2018.1946Z" transform="translate(-23.0877 -1223.2917)"/><path class="a" d="M1725.512,2047.2293c-40.5565-.08-40.55-62.7838.0011-62.8612C1766.068,1984.4508,1766.0623,2047.1546,1725.512,2047.2293Zm.0474-59.0086c-34.5655-.36-34.6248,55.4723.0013,55.062C1760.0762,2043.7082,1760.0119,1987.8376,1725.5594,1988.2207Z" transform="translate(-23.0877 -1223.2917)"/><path class="a" d="M1792.6961,1984.7432c29.32-1.743,43.9509,35.5081,24.29,54.7828-10.5175,9.75-27.8942,7.6858-41.9554,6.5765v-60.7953Q1782.5478,1984.7444,1792.6961,1984.7432Zm1.8794,58.352c25.9693,2.1762,34.9864-30.7359,18.369-46.795-7.5626-8.5975-23.7711-8.2526-33.4034-7.3279v53.4651A135.6394,135.6394,0,0,0,1794.5755,2043.0952Z" transform="translate(-23.0877 -1223.2917)"/><path class="a" d="M1887.8819,2039.9941c-7.2634,9.654-30.51,9.653-37.773,0-9.9771-9.5684-5.1331-41.783-6.2023-54.6865h4.3228c1.6075,17.9607-8.21,60.1373,20.7666,58.07,28.9529,2.1027,19.1736-40.1682,20.7653-58.07h4.3228C1893.0208,1998.3136,1897.8487,2030.3435,1887.8819,2039.9941Z" transform="translate(-23.0877 -1223.2917)"/><path class="a" d="M1963.5229,2043.2828c-65.2037,25.4651-70.4093-79.2472-.6578-55.626l-1.1268,3.57c-61.1005-21.4569-57.8373,70.14.3753,49.05Z" transform="translate(-23.0877 -1223.2917)"/><polygon class="a" points="1966.745 765.868 1946.072 765.868 1946.072 762.015 1991.646 762.015 1991.646 765.868 1970.973 765.868 1970.973 822.998 1966.745 822.998 1966.745 765.868"/><rect class="a" x="2004.4232" y="762.0155" width="4.3228" height="60.9829"/><path class="a" d="M2081.3524,2047.2293c-40.5565-.08-40.55-62.7838.0011-62.8612C2121.9084,1984.4508,2121.9027,2047.1546,2081.3524,2047.2293Zm.0475-59.0086c-34.5656-.36-34.6249,55.4723.0012,55.062C2115.9166,2043.7082,2115.8523,1987.8376,2081.4,1988.2207Z" transform="translate(-23.0877 -1223.2917)"/><path class="a" d="M2130.8711,2046.29V1984.932h2.067c4.0687,4.8473,43.4682,49.5265,45.9486,53.3713-.3919-4.7394-.1041-47.0676-.1876-52.9961h4.3228v61.3592h-2.0682c-2.937-3.418-44.9651-51.3823-45.9485-53.09.4008,4.5877.1,46.88.1887,52.7136Z" transform="translate(-23.0877 -1223.2917)"/></svg>