<?xml version="1.0" encoding="UTF-8"?>
<svg xmlns="http://www.w3.org/2000/svg" xmlns:xlink="http://www.w3.org/1999/xlink" width="372" height="283">
	<desc>A Penrose Staircase (Optical Illusion)</desc>
	<defs>
		<path id="top" d="m0,0 37,18 -37,18 -37,-18 z"/>
	</defs>
	<g stroke="#000" stroke-linejoin="round" fill="#fff">
		<use xlink:href="#top" x="242" y="18"/>
		<use xlink:href="#top" x="205" y="28"/>
		<use xlink:href="#top" x="168" y="38"/>
		<use xlink:href="#top" x="131" y="48"/>
		<use xlink:href="#top" x="94" y="58"/>
		<use xlink:href="#top" x="57" y="68"/>
		<path fill="#999" d="m279,36 -37,18 v-8 l-37,18 v-8 l-37,18 v-8 l-37,18 v-8 l-37,18 v77 h185 z"/>
		
		<use xlink:href="#top" x="279" y="43"/>
		<path fill="#999" d="m316,61 v7 l-37,18 v-7 z"/>
		<path fill="#ccc" d="m316,104 -37,-18 v-7 l-37,-18 v99 h74 z"/>
		
		<use xlink:href="#top" x="94" y="78"/>
		<use xlink:href="#top" x="131" y="88"/>
		<use xlink:href="#top" x="168" y="98"/>
		<use xlink:href="#top" x="205" y="108"/>
		<use xlink:href="#top" x="242" y="118"/>
		<use xlink:href="#top" x="279" y="93"/>
		<use xlink:href="#top" x="316" y="68"/>
		<path fill="#999" d="m353,86 -37,18 v7 l-37,18 v7 l-37,18 v113 l111,-54 z"/>
		<path fill="#ccc" d="m20,159 v-73 l37,18 v-8 l37,18 v-8 l37,18 v-8 l37,18 v-8 l37,18 v-8 l37,18 v113 z"/>
	</g>
</svg>