<svg xmlns="http://www.w3.org/2000/svg" viewBox="0 0 180 107"><path fill="#ffc1ff" stroke="#000" stroke-width=".9" d="M30.56 103.58c-7.6.1-14.5-3.2-20.73-7.13-6-4.34-7.77-12.22-8.69-18.97-1.48-7.54.3-16.73 6.27-22.06 4-6.31 11.48-9.55 17.44-13.8 9.64-5.06 19.65-9.75 30.43-11.8a126.77 126.77 0 0 1 22.34-3.05c9.1-1.45 18.39-.02 27.56-.09 6.98.02 14-.04 20.59 2.28 6.93-.05 13.16 3.48 19.8 5.17a127.6 127.6 0 0 1 14.01 6.6c4.9 3.35 7.88 5.84 11.08 11.14 4.59 8.1 7 17.36 8.5 26.5-.88 6.48-7.8 9.33-12.01 13.51-5.09 2.17-9.83 4.97-14.92 6.18-6.14.55-11.98 2.27-18.29 2.55-7.05 1.74-14.44 1.22-21.4 2.97-6.39-.3-12.65.7-19.04.26-7.62.3-15.13 1.97-22.77 1.38-13.33.4-27.05 1.32-40.17-1.64z"/><path fill="none" stroke="#000" stroke-linecap="round" stroke-width=".9" d="M154.8 49.99c-3.34 2.97-5.98 5.49-7.87 9.27M27.67 56.28c1.72.28 3.87 1.78 5.53 3.57m-11.82 4.37c7-.08 14.23 3.67 19.5 7.62"/><path fill="teal" stroke="#000" stroke-width=".9" d="M61.03 10.88c1.12-.35 2.27-.64 3.38-1.04 5.8-2.07 2.23-1.14 8.57-3.64 4.8-1.9 11.47-3.34 16.64-4.16 0 0 1.97-.37 2.86-.52 4.19-.65 12.3-.96 17.67-.52 4.6.42 9 1.78 13.52 2.6 0 0 10.47 2.61 13.25 5.46l2.6 2.86c2.75 5.47 5.78 10.22 7.27 16.1.6 1.75.74 3.6.76 5.42.43 2.14.55 4.3.74 6.47.54 2.3.44 4.64.39 6.98-.1 2.91.35 5.85-.35 8.73a24.25 24.25 0 0 1-4.39 9.58 51.24 51.24 0 0 1-6.76 5.72c-6.85 5.81-16.54 7.5-25.47 8.84-1.48.23-2.93.59-4.42.78a52.36 52.36 0 0 1-11.95 1.55c-1.89.23-4.06 0-5.98 0-3.51 0-7.15.24-10.66 0-.7-.04-1.38-.19-2.08-.26-.26-.02-.66.24-.78 0-.38-.76.31-.51-1.04-.51"/><ellipse cx="64.67" cy="46.36" fill="#fff" stroke="#000" stroke-width=".9" rx="34.24" ry="35.82"/><ellipse cx="64.67" cy="46.36" fill="#f60" rx="28.82" ry="30.16"/><path fill="#fff" stroke="#000" stroke-width=".9" d="M83.64 77.16c-.9.95-2.3 1.18-3.38 1.82-.43.37-3.45 1.87-4.42 2.08-3.02.67-11.27 2.34-16.63 1.81-1.26-.06-2.37-.6-3.38-1.04-1.17-.7-3.24-1.99-4.42-2.3L49.6 79c-.66-.19-3.4 0-3.64 0-.91 0-3.21.12-3.9.26-2.84.57-5.7 4.73-5.71 6.5-.02.02.16 1.52.26 1.82.2 1.01 1.11 1.89 2.33 2.56 3.14 1.24 9.76 1.38 13.52.82 3.66-.66 6.28-.17 9.1-1.59 6.6-1.66 11.52-2.69 17.15-5.98 1.3-.48 1.83-1.12 2.86-1.81 2.05-1.37 4.17-2.9 3.9-5.72l-1.82 1.3z"/><path fill="#fff" stroke="#000" stroke-width=".9" d="M64.67 90.15c-2.8-.23-4.72-3.13-4.42-5.46.31-2.45 3.74-4.46 5.98-4.41 7.47.12 8.45.96 10.4 1.81 2.07 1.3 4.22 1.9 3.35 5.02-1.14 3.06-5 4.19-7.97 4.13-2.47-.05-5.03-.73-7.34-1.09zm81.19-23.08c-2.82 8.08-6.72 10.09-11.95 12.48-6.32 2.88-14.5 3.95-20.8 1.04a4.32 4.32 0 0 1-2.6-3.38c-.08-.47.05-3.64.16-5.27.37-1.77 2.7-3.57 4.62-3.58 1.84-.02 5.29-.02 5.36.01 2.13.33 3.16 3.16 4.94 3.38 5.75.71 11.14-.97 15.6-4.42l5.23-5.1c-.14 1.57-.1 3.54-.56 4.84z"/><circle cx="77.89" cy="39.89" r="6.71"/><circle cx="47.01" cy="39.89" r="6.71"/><path fill="none" stroke="#000" stroke-linecap="round" stroke-linejoin="round" d="M54.7 56.53c0 7.93 3.91 6.04 7.9 1.1.82 2.05 5.62 5.78 8.27 3.12.82-.81.37-3.85.37-5.14"/></svg>