<?xml version="1.0" encoding="UTF-8" standalone="no" ?>
<!DOCTYPE svg PUBLIC "-//W3C//DTD SVG 1.1//EN" "http://www.w3.org/Graphics/SVG/1.1/DTD/svg11.dtd">
<svg xmlns="http://www.w3.org/2000/svg" xmlns:xlink="http://www.w3.org/1999/xlink" version="1.1" width="60" height="60" viewBox="0 0 60 60" xml:space="preserve">
<desc>Created with Fabric.js 3.6.6</desc>
<defs>
</defs>
<g transform="matrix(-1 0 0 1 30 30)"  >
<g style=""   >
		<g transform="matrix(-0.25 0 0 0.25 7.23 -7.23)" id="path22"  >
<linearGradient id="SVGID_XMLID_12__5" gradientUnits="userSpaceOnUse" gradientTransform="matrix(1 0 0 1 0 0)"  x1="15.168" y1="99.098" x2="183.03" y2="99.098">
<stop offset="0%" style="stop-color:rgb(73,73,73);stop-opacity: 1"/>
<stop offset="50%" style="stop-color:rgb(97,97,97);stop-opacity: 1"/>
<stop offset="100%" style="stop-color:rgb(0,0,0);stop-opacity: 1"/>
</linearGradient>
<path style="stroke: none; stroke-width: 1; stroke-dasharray: none; stroke-linecap: butt; stroke-dashoffset: 0; stroke-linejoin: miter; stroke-miterlimit: 4; fill: url(#SVGID_XMLID_12__5); fill-rule: nonzero; opacity: 1;"  transform=" translate(-99.1, -99.1)" d="m 39.521 39.521 c -32.471 32.472 -32.471 85.309 0 117.78 c 14.105 14.11 32.801 22.69 52.645 24.16 c 19.204 1.42 38.304 -3.92 54.034 -14.99 l 13.88 13.88 c 4.36 4.36 12 3.29 17.78 -2.49 c 3.4 -3.39 5.17 -7.43 5.17 -11.07 c 0 -2.55 -0.88 -4.91 -2.67 -6.71 c 0 0 -11.91 -11.9 -13.89 -13.89 c 9.89 -14.04 15.22 -30.78 15.22 -47.88 c 0 -2.045 -0.08 -4.095 -0.23 -6.146 c -1.48 -19.842 -10.05 -38.538 -24.16 -52.644 c -32.47 -32.469 -85.306 -32.469 -117.78 0.001 z" stroke-linecap="round" />
</g>
		<g transform="matrix(-0.25 0 0 0.25 -17.18 17.18)" id="path29"  >
<linearGradient id="SVGID_XMLID_13__6" gradientUnits="userSpaceOnUse" gradientTransform="matrix(1 0 0 1 0 0)"  x1="196.71" y1="248.72" x2="196.71" y2="149.45">
<stop offset="0%" style="stop-color:rgb(124,0,0);stop-opacity: 1"/>
<stop offset="100%" style="stop-color:rgb(207,0,0);stop-opacity: 1"/>
</linearGradient>
<path style="stroke: none; stroke-width: 1; stroke-dasharray: none; stroke-linecap: butt; stroke-dashoffset: 0; stroke-linejoin: miter; stroke-miterlimit: 4; fill: url(#SVGID_XMLID_13__6); fill-rule: nonzero; opacity: 1;"  transform=" translate(-196.71, -196.7)" d="m 160.18 160.19 c -4.95 4.95 -7.6 11 -7.6 16.36 c 0 3.15 0.91 6.05 2.82 8.36 l 0.06 0.07 l 0.06 0.15 l 52.12 52.13 c 6.03 6.03 17.27 4.25 25.57 -4.05 c 8.31 -8.31 10.08 -19.54 4.05 -25.57 l -52.19 -52.19 l -0.12 -0.02 c -6.22 -5.18 -16.87 -3.14 -24.77 4.76 z" stroke-linecap="round" />
</g>
		<g transform="matrix(-0.25 0 0 0.25 7.22 -7.22)" id="path36"  >
<linearGradient id="SVGID_XMLID_14__7" gradientUnits="userSpaceOnUse" gradientTransform="matrix(1 0 0 1 0 0)"  x1="17.169" y1="99.104" x2="181.03" y2="99.104">
<stop offset="0%" style="stop-color:rgb(162,162,162);stop-opacity: 1"/>
<stop offset="100%" style="stop-color:rgb(73,73,73);stop-opacity: 1"/>
</linearGradient>
<path style="stroke: none; stroke-width: 1; stroke-dasharray: none; stroke-linecap: butt; stroke-dashoffset: 0; stroke-linejoin: miter; stroke-miterlimit: 4; fill: url(#SVGID_XMLID_14__7); fill-rule: nonzero; opacity: 1;"  transform=" translate(-99.11, -99.1)" d="m 42.35 42.35 c -14.95 14.951 -23.183 34.861 -23.183 56.062 c 0 21.198 8.233 41.108 23.183 56.068 c 13.429 13.42 31.225 21.59 50.112 22.99 c 18.828 1.4 37.578 -4 52.798 -15.19 l 1.38 -1.02 l 16.27 16.27 c 2.75 2.74 7.96 1.67 12.13 -2.49 c 4.16 -4.17 5.23 -9.38 2.49 -12.13 l -16.27 -16.27 l 1.02 -1.38 c 11.19 -15.22 16.59 -33.97 15.19 -52.798 c -1.4 -18.888 -9.57 -36.685 -22.99 -50.112 c -30.92 -30.912 -81.217 -30.912 -112.13 0 z" stroke-linecap="round" />
</g>
		<g transform="matrix(-0.25 0 0 0.25 -17.42 17.42)" id="path43"  >
<linearGradient id="SVGID_XMLID_15__8" gradientUnits="userSpaceOnUse" gradientTransform="matrix(-1 0 0 1 258 0)"  x1="47.965" y1="190.21" x2="69.607" y2="211.85">
<stop offset="0%" style="stop-color:rgb(255,201,87);stop-opacity: 1"/>
<stop offset="100%" style="stop-color:rgb(255,109,0);stop-opacity: 1"/>
</linearGradient>
<path style="stroke: none; stroke-width: 1; stroke-dasharray: none; stroke-linecap: butt; stroke-dashoffset: 0; stroke-linejoin: miter; stroke-miterlimit: 4; fill: url(#SVGID_XMLID_15__8); fill-rule: nonzero; opacity: 1;"  transform=" translate(-197.68, -197.69)" d="m 181.85 160.04 l 51.5 51.5 c 3.79 3.79 1.97 11.74 -4.05 17.76 c -6.02 6.03 -13.97 7.84 -17.76 4.05 l -51.5 -51.5 l 21.81 -21.81 z" stroke-linecap="round" />
</g>
		<g transform="matrix(-0.25 0 0 0.25 -17.68 17.25)" id="path50"  >
<linearGradient id="SVGID_XMLID_16__9" gradientUnits="userSpaceOnUse" gradientTransform="matrix(-1.22 -0.13 0.13 1.22 243.05 -40.91)"  x1="48.527" y1="194.82" x2="64.114" y2="210.41">
<stop offset="0%" style="stop-color:rgb(255,255,102);stop-opacity: 1"/>
<stop offset="100%" style="stop-color:rgb(255,109,0);stop-opacity: 1"/>
</linearGradient>
<path style="stroke: none; stroke-width: 1; stroke-dasharray: none; stroke-linecap: butt; stroke-dashoffset: 0; stroke-linejoin: miter; stroke-miterlimit: 4; fill: url(#SVGID_XMLID_16__9); fill-rule: nonzero; opacity: 1;"  transform=" translate(-198.72, -196.99)" d="m 181.08 162.14 l 50.19 50.2 c 3.69 3.68 2.83 10.53 -1.92 15.28 s -11.59 5.61 -15.28 1.92 l -50.2 -50.19 l 17.21 -17.21 z" stroke-linecap="round" />
</g>
		<g transform="matrix(-0.25 0 0 0.25 -10.74 10.74)" id="path57"  >
<linearGradient id="SVGID_XMLID_17__10" gradientUnits="userSpaceOnUse" gradientTransform="matrix(1 0 0 1 0 0)"  x1="182.14" y1="182.14" x2="164.09" y2="164.09">
<stop offset="0%" style="stop-color:rgb(255,215,0);stop-opacity: 1"/>
<stop offset="100%" style="stop-color:rgb(255,255,255);stop-opacity: 1"/>
</linearGradient>
<path style="stroke: none; stroke-width: 1; stroke-dasharray: none; stroke-linecap: butt; stroke-dashoffset: 0; stroke-linejoin: miter; stroke-miterlimit: 4; fill: url(#SVGID_XMLID_17__10); fill-rule: nonzero; opacity: 1;"  transform=" translate(-170.95, -170.95)" d="m 181.85 160.04 c 3.79 3.79 1.97 11.74 -4.05 17.76 s -13.97 7.84 -17.76 4.05 c -3.78 -3.79 -1.97 -11.73 4.05 -17.76 c 6.02 -6.02 13.97 -7.83 17.76 -4.05 z" stroke-linecap="round" />
</g>
		<g transform="matrix(-0.25 0 0 0.25 7.23 -7.23)" id="path66"  >
<linearGradient id="SVGID_XMLID_18__11" gradientUnits="userSpaceOnUse" gradientTransform="matrix(-0.71 0.71 0.71 0.71 148.88 -37.21)"  x1="131.59" y1="-4.0269" x2="131.59" y2="210.97">
<stop offset="0%" style="stop-color:rgb(218,218,218);stop-opacity: 1"/>
<stop offset="61.24000000000001%" style="stop-color:rgb(148,148,148);stop-opacity: 1"/>
<stop offset="100%" style="stop-color:rgb(218,218,218);stop-opacity: 1"/>
</linearGradient>
<path style="stroke: none; stroke-width: 1; stroke-dasharray: none; stroke-linecap: butt; stroke-dashoffset: 0; stroke-linejoin: miter; stroke-miterlimit: 4; fill: url(#SVGID_XMLID_18__11); fill-rule: nonzero; opacity: 1;"  transform=" translate(-99.07, -99.07)" d="m 43.43 153.4 c -30.367 -30.37 -30.367 -79.607 0 -109.97 c 30.365 -30.369 79.6 -30.369 109.97 -0.002 c 28.26 28.259 30.21 72.852 5.87 103.38 l 17.18 17.18 c 2.06 2.06 0.95 6.53 -2.49 9.97 s -7.91 4.55 -9.97 2.49 l -17.18 -17.18 c -30.53 24.34 -75.122 22.39 -103.38 -5.87 z" stroke-linecap="round" />
</g>
		<g transform="matrix(-0.25 0 0 0.25 -9.23 8.56)" id="path73"  >
<linearGradient id="SVGID_XMLID_19__12" gradientUnits="userSpaceOnUse" gradientTransform="matrix(-0.71 0.71 0.58 0.58 169.53 -16.56)"  x1="134.82" y1="149.92" x2="124.58" y2="149.92">
<stop offset="0%" style="stop-color:rgb(178,178,178);stop-opacity: 1"/>
<stop offset="100%" style="stop-color:rgb(255,255,255);stop-opacity: 1"/>
</linearGradient>
<path style="stroke: none; stroke-width: 1; stroke-dasharray: none; stroke-linecap: butt; stroke-dashoffset: 0; stroke-linejoin: miter; stroke-miterlimit: 4; fill: url(#SVGID_XMLID_19__12); fill-rule: nonzero; opacity: 1;"  transform=" translate(-164.91, -162.24)" d="m 159.18 149.77 s 17.21 17.21 18.19 18.18 c -0.31 0.76 -1.16 2.21 -2.85 3.9 c -1.7 1.7 -3.15 2.55 -3.9 2.85 c -0.98 -0.98 -18.18 -18.19 -18.18 -18.19 l 6.74 -6.74 z" stroke-linecap="round" />
</g>
		<g transform="matrix(-0.25 0 0 0.25 7.4 -7.4)" id="path80"  >
<linearGradient id="SVGID_XMLID_20__13" gradientUnits="userSpaceOnUse" gradientTransform="matrix(1 0 0 1 0 0)"  x1="27.736" y1="98.412" x2="169.09" y2="98.412">
<stop offset="0%" style="stop-color:rgb(255,255,255);stop-opacity: 1"/>
<stop offset="100%" style="stop-color:rgb(73,73,73);stop-opacity: 1"/>
</linearGradient>
<path style="stroke: none; stroke-width: 1; stroke-dasharray: none; stroke-linecap: butt; stroke-dashoffset: 0; stroke-linejoin: miter; stroke-miterlimit: 4; fill: url(#SVGID_XMLID_20__13); fill-rule: nonzero; opacity: 1;"  transform=" translate(-98.41, -98.41)" d="m 148.41 48.412 c 27.57 27.57 27.57 72.428 0 99.998 s -72.428 27.57 -99.998 0 c -27.568 -27.57 -27.568 -72.428 0 -99.998 c 27.57 -27.569 72.428 -27.569 99.998 0 z" stroke-linecap="round" />
</g>
		<g transform="matrix(-0.25 0 0 0.25 7.4 -7.4)" id="path91"  >
<radialGradient id="SVGID_XMLID_21__14" gradientUnits="userSpaceOnUse" gradientTransform="matrix(-0.71 0.71 0.71 0.71 148.88 -37.21)"  cx="92.633" cy="20.057" r="176.54" fx="92.633" fy="20.057">
<stop offset="0.5599999999999999%" style="stop-color:rgb(0,53,237);stop-opacity: 1"/>
<stop offset="56.74%" style="stop-color:rgb(148,202,255);stop-opacity: 1"/>
<stop offset="70.78999999999999%" style="stop-color:rgb(201,230,255);stop-opacity: 1"/>
<stop offset="100%" style="stop-color:rgb(3,76,254);stop-opacity: 1"/>
</radialGradient>
<path style="stroke: none; stroke-width: 1; stroke-dasharray: none; stroke-linecap: butt; stroke-dashoffset: 0; stroke-linejoin: miter; stroke-miterlimit: 4; fill: url(#SVGID_XMLID_21__14); fill-rule: nonzero; opacity: 1;"  transform=" translate(-98.41, -98.41)" d="m 145.92 50.905 c 26.2 26.195 26.2 68.815 0 95.015 s -68.818 26.2 -95.014 0 c -26.197 -26.2 -26.195 -68.82 0 -95.015 c 26.196 -26.196 68.814 -26.196 95.014 0 z" stroke-linecap="round" />
</g>
		<g transform="matrix(-0.25 0 0 0.25 7.4 -7.4)" id="path102"  >
<radialGradient id="SVGID_XMLID_22__15" gradientUnits="userSpaceOnUse" gradientTransform="matrix(1 0 0 1 0 0)"  cx="92.957" cy="19.923" r="176.54" fx="92.957" fy="19.923">
<stop offset="0.5599999999999999%" style="stop-color:rgb(255,255,255);stop-opacity: 1"/>
<stop offset="45%" style="stop-color:rgb(148,202,255);stop-opacity: 1"/>
<stop offset="60%" style="stop-color:rgb(201,230,255);stop-opacity: 1"/>
<stop offset="100%" style="stop-color:rgb(255,255,255);stop-opacity: 1"/>
</radialGradient>
<path style="stroke: none; stroke-width: 1; stroke-dasharray: none; stroke-linecap: butt; stroke-dashoffset: 0; stroke-linejoin: miter; stroke-miterlimit: 4; fill: url(#SVGID_XMLID_22__15); fill-rule: nonzero; opacity: 1;"  transform=" translate(-98.41, -98.41)" d="m 53.735 53.733 c -11.914 11.914 -18.475 27.782 -18.476 44.679 c 0 16.898 6.562 32.768 18.477 44.678 c 24.635 24.64 64.724 24.64 89.354 0 c 24.64 -24.64 24.64 -64.721 0 -89.356 c -24.63 -24.636 -64.72 -24.636 -89.355 -0.001 z" stroke-linecap="round" />
</g>
		<g transform="matrix(-0.25 0 0 0.25 0 0)" id="_x3C_Slice_x3E_"  >
<rect style="stroke: none; stroke-width: 1; stroke-dasharray: none; stroke-linecap: butt; stroke-dashoffset: 0; stroke-linejoin: miter; stroke-miterlimit: 4; fill: none; fill-rule: nonzero; opacity: 1;"  x="-128" y="-128" rx="0" ry="0" width="256" height="256" />
</g>
		<g transform="matrix(-0.25 0 0 0.25 0 0)" id="_x3C_Slice_x3E__1_"  >
<polyline style="stroke: none; stroke-width: 1; stroke-dasharray: none; stroke-linecap: butt; stroke-dashoffset: 0; stroke-linejoin: miter; stroke-miterlimit: 4; fill: none; fill-rule: nonzero; opacity: 1;"  points="-128,128 -128,-128 128,-128 128,128 " />
</g>
</g>
</g>
</svg>