<svg xmlns="http://www.w3.org/2000/svg" viewBox="0 0 165.1 115.09"><path fill="#cffffe" d="M0 0h165.1v115.09H0z"/><path fill="#40006b" d="M125.27 106.16c.1-.25.28-1 .4-1.66a18.29 18.29 0 0 1 2.25-5.61c1.05-1.75 1.05-1.72.7-7.87-.14-2.4-.26-5.95-.28-7.87l-.02-3.51h-.8c-.52 0-1.2-.3-1.84-.82-1.37-1.1-2.96-1.3-4.39-.54-1.93 1.02-1.82.7-2 5.25-.21 5.35-.74 14.26-.9 15.3l-.13.81-5.68.08c-3.13.04-5.69 0-5.69-.1 0-.09.12-.3.27-.48.15-.17 1.05-1.33 2.01-2.57a60.2 60.2 0 0 1 2.48-3.04l.75-.8.29-6.08c.16-3.35.29-6.45.29-6.9v-.82l-1.44.12c-1.26.1-1.54.03-2.42-.64-.98-.74-1.07-.75-3.95-.69-2.9.07-2.95.06-3.61-.66-.37-.4-.75-.94-.84-1.2-.17-.49-.08-.55 1.21-.83.5-.11.73-.33.73-.7 0-.3.52-1.34 1.15-2.31.64-.98 1.72-2.71 2.4-3.86a77.66 77.66 0 0 1 3.5-5.17c1.25-1.69 3.13-4.5 4.19-6.24 1.1-1.82 2.12-3.21 2.4-3.27.42-.08.4 0-.11.8-.32.49-1.32 2.1-2.22 3.6-.9 1.5-2.62 4.05-3.83 5.67a59.65 59.65 0 0 0-3.04 4.42c-.47.82-1.53 2.55-2.37 3.86-1.75 2.73-1.77 2.66 1.1 3.22 3.52.69 11.53.43 19.17-.6 2.7-.37 3.47-.39 5.33-.1 3.34.52 5.16.23 9.13-1.47 1.86-.8 3.7-1.44 4.1-1.44.68 0 .69-.02.27-.6a26.2 26.2 0 0 1-1.16-1.86c-.4-.7-1.3-2.25-2.01-3.44a60.13 60.13 0 0 1-2.4-4.55c-1.65-3.56-2.55-5.13-3.65-6.36-.97-1.08-1.25-1.71-.75-1.71.35 0 2.14 2.13 2.44 2.9.14.37.6 1.2 1 1.86.42.65 1.03 1.84 1.37 2.65.34.8 1.33 2.7 2.21 4.23a153 153 0 0 1 2.13 3.79c.85 1.63 1.97 2.82 3.08 3.27 1.3.52 2.08 1.5 2.08 2.6 0 1.29-.5 1.54-2.72 1.38-1.78-.12-1.98-.08-3.02.63-1.15.8-2.64 1.01-3.18.47-.42-.42-1.7-.06-3.12.88-1.18.78-1.31.8-3.19.65-2-.17-3.01.03-3.73.75-.58.58-.43 9.28.17 9.66 1.08.68 3.61 0 4.39-1.2.42-.63.43-.98.16-3.79-.17-1.7-.38-3.55-.48-4.11-.25-1.53.28-.98.66.68.37 1.6.78 7.14 1.08 14.24l.2 4.9-.8 1.18a13.77 13.77 0 0 1-6.78 5.4c-2.03.82-2.8.9-2.54.22zm7.81-9.63c1.44-1.6 1.7-2.5 1.5-5.32-.1-1.3-.24-2.47-.33-2.61-.1-.15-.44-.07-.84.2-.4.26-1.44.5-2.52.57l-1.83.13.17 2.81c.1 1.54.17 3.27.17 3.84-.02 1.43.38 1.83 1.63 1.66.77-.1 1.27-.4 2.05-1.28zm-14.81-4.81c0-.64.08-1.89.17-2.78l.17-1.63h-1.56a7 7 0 0 1-2.65-.5l-1.09-.5-.16 2a49.1 49.1 0 0 0-.17 3.28v1.28h5.29zm.58-8.6c.07-3.36.04-3.65-.38-3.54-.25.06-.88-.13-1.4-.44-1.07-.63-3.25-.77-3.42-.23-.05.18-.17 1.74-.26 3.45l-.15 3.12 1.39.65c.9.42 1.87.65 2.76.65h1.38l.08-3.66zm-.2-4.17c.22-.09.41-.34.41-.56 0-.24.16-.34.4-.24.22.08.79-.08 1.26-.37 1.6-.98 3.7-.66 5.85.89 1.08.78 1.75.39 1.75-1.03 0-.65.12-1.18.27-1.18.14 0 .26.41.26.91v.9l.82-.4c.63-.32 1.28-.37 2.98-.23 1.99.17 2.21.14 2.67-.36.27-.3 1.13-.75 1.91-1 1.22-.38 1.56-.4 2.38-.1 1.01.37 1.57.2 2.98-.84.53-.4.94-.45 2.52-.3 1.57.14 1.94.1 2.25-.28.59-.7-.23-2.13-1.46-2.53-1.45-.48-2.86-.21-5.97 1.14a33.38 33.38 0 0 1-3.96 1.5c-1.53.34-4.16.34-6.22-.02a9.98 9.98 0 0 0-3.59.02c-6.79 1.07-16.85 1.4-20.81.69-1.51-.27-2.18-.28-2.99-.04l-1.04.3.77.74c.76.73.8.73 3.25.56 2.56-.17 2.9-.09 4.88 1.18.38.24.93.3 1.76.17 1.15-.17 1.2-.22 1.37-1.22.1-.67.3-1.05.55-1.05.3 0 .33.14.13.68-.42 1.1-.33 1.17 1.26 1.18 1.1 0 1.7.15 2.19.52.77.6.64.57 1.16.37zm-98.5 26.6c-2-.4-2.79-1.03-3.06-2.44-.22-1.1-.16-1.41.46-2.68.39-.8.7-1.54.7-1.66 0-.87 7.02-6.43 8.11-6.43.75 0 .3-.43-1.39-1.32a13.73 13.73 0 0 1-5.78-5.57c-.96-1.85-1.01-1.9-1.82-1.73-2.04.41-4.7.48-5.86.15-1.76-.49-3.65-2.63-4.36-4.93-1.16-3.75-.46-6.22 2.17-7.7 2.13-1.2 5.56-1.83 7.02-1.3.56.2.6.14.6-1 0-1.08-.07-1.2-.6-1.2-.78 0-3.9-1.85-3.9-2.3 0-.21.3-.35.75-.35 1.14 0 3.14-.68 4.32-1.46 1.1-.73 1.6-.72 1 .02-.48.57-2.26 1.46-3.68 1.82l-1.17.3.96.6a6.2 6.2 0 0 0 1.9.75c.93.15.94.16.95 1.5l.01 1.36.42-.8c.23-.43.94-1.63 1.58-2.67.95-1.55 1.13-2.04 1-2.71-.14-.65-.31-.83-.8-.83-.38 0-.63-.15-.63-.4 0-.21-.17-.4-.38-.4-.52 0-.76-.44-.98-1.84-.1-.66-.28-1.54-.38-1.96-.15-.62-.07-.85.44-1.24.6-.45.6-.5.17-.97-.25-.28-.46-.7-.46-.95 0-.24-.13-.44-.3-.44-.17 0-.24-.36-.18-.92.07-.6-.01-.96-.23-1.05-.64-.24-.35-1.07.59-1.67 2.18-1.42 6.34-1.78 11.84-1.04 3.22.44 6.8 1.53 7.84 2.39.29.24.4.22.5-.1.34-1.02 3.75-3.57 6.47-4.84 1.4-.64 1.82-.7 4.65-.7 2.07 0 3.22.1 3.43.3.4.42.41 1.28 0 1.28-.16 0-.03.29.3.64.4.44.54.8.42 1.19-.28.89.05 1.08 1.17.69.57-.2 1.58-.45 2.26-.55.7-.1 1.19-.3 1.14-.48l-.58-1.8a4.82 4.82 0 0 1-.35-1.87c.08-.22.66-.46 1.36-.56 1.66-.22 2.86-.87 2.7-1.44a42.3 42.3 0 0 1-.45-2.37c-.3-1.8-.3-1.95.18-2.33 1.03-.81 4.77-2.48 5.93-2.63 1.14-.16 1.23-.12 2.34 1.01.74.76 1.04 1.24.85 1.36-.18.1-.73-.28-1.31-.91l-1-1.1-1.17.3A24.2 24.2 0 0 0 60.8 40c-.43.32-.44.48-.09 2.16.43 2.03.56 2.26 1 1.8.18-.16.47-.3.65-.3.18 0 .84-.34 1.47-.74 1.04-.69 1.66-.98 4.9-2.32.96-.4 1.13-.58 1.13-1.22 0-.47.14-.75.37-.75.2 0 .98-.66 1.72-1.47l1.34-1.48 1.26.88c2.96 2.05 5.82 4.75 6.06 5.68.2.83-1.07 3.36-1.91 3.81-.82.44-.8.67.17 2.1.89 1.3 2.63 4.62 2.63 4.99 0 .32-3.02 2.16-3.54 2.16-.8 0-.43-.4 1.16-1.28.87-.48 1.59-1 1.59-1.13 0-.36-.65-1.6-2.02-3.87a14.9 14.9 0 0 1-1.16-2.12c0-.12-.82-.72-1.82-1.33-1-.62-2.57-1.9-3.49-2.84-.92-.94-1.72-1.65-1.79-1.59-.11.12-.8 10.07-.82 12.07-.01.95-.01.96 1.32 1.11 1.18.14 1.5.07 2.65-.64 1.4-.86 1.4-.85.24-2.35-.84-1.09-1.84-3-1.84-3.51 0-.2.53-.74 1.19-1.2.65-.46 1.19-.96 1.19-1.1 0-.15.12-.28.26-.28.62 0 .18.84-.92 1.76l-1.18 1 .7 1.2a42.8 42.8 0 0 0 2.37 3.38c.92 1.2 1.68 2.3 1.68 2.45 0 .15.47 1.65 1.06 3.34 1.4 4.1 1.4 4.3-.33 5.49a8.14 8.14 0 0 1-2.25 1.12c-.67.14-1.13.55-2.06 1.84-1.35 1.9-2.34 2.7-3.92 3.16l-1.1.32-.16 1.96a74.34 74.34 0 0 0-.2 4.14c-.03 1.45-.14 2.18-.34 2.18-.23 0-.26-1.07-.12-4.09l.18-4.08-1.86.15c-1.17.1-1.87.06-1.87-.1 0-.15.8-.34 1.76-.43a8.03 8.03 0 0 0 1.91-.32c.16-.16 1.06-14.73.92-14.91-.2-.27-3.33.6-5 1.39-2.09 1-3.43 2.07-4.93 3.97l-1.02 1.29 1.28 1.36c4.88 5.18 6.64 11.82 5.06 19.15a25.75 25.75 0 0 1-3.52 8.11c-.94 1.4-5.33 4.42-8.16 5.63-.9.39-1 .52-1 1.45 0 2.02 3.14 4.25 7.1 5.05 1 .2 2.08.2 3.83 0 2.94-.36 7.8-1.93 8.45-2.74.75-.91.6-2.04-.41-2.99-1.06-1-7.58-4.3-8.98-4.54-.9-.16-1.47-.53-1.2-.79.14-.14 3.14.62 3.71.94.25.14 1.77.92 3.38 1.74 3.63 1.84 4.5 2.64 4.5 4.16-.01 2.01-.35 2.32-3.71 3.43-7.1 2.34-12.24 1.84-15.8-1.54-1.22-1.18-1.4-1.47-1.4-2.39v-1.04h-9.52v.96c0 .73-.3 1.36-1.16 2.54-1.33 1.8-1.92 2.27-4.57 3.6-1.77.89-3.67 1.43-7.24 2.04-1.75.3-6.82.28-8.42-.03zm8.82-.66c1.02-.22 2.45-.51 3.18-.65a23.66 23.66 0 0 0 6.21-2.96c1.14-.87 2.65-3.34 2.65-4.33 0-1.68-.72-2.65-2.73-3.71l-1.85-.97-4.56.16c-2.5.09-4.88.29-5.28.44-1.45.55-5.06 3.17-6.63 4.8-1.92 2-2.62 3.54-2.37 5.2.15 1.01.3 1.2 1.15 1.57.53.24 1.45.5 2.03.61 1.92.34 6.3.25 8.2-.16zm23.29-9.7a54.63 54.63 0 0 0 6.03-3.63c2.24-1.62 4.33-5.4 5.38-9.74.6-2.48.67-3.22.55-5.77a17.8 17.8 0 0 0-2.8-9.15c-2.54-4.3-9.24-9.63-15.25-12.12-4.44-1.84-9.7-1.24-14.29 1.64-2.77 1.74-8.3 6.04-9.64 7.51a21.9 21.9 0 0 0-4.5 7.44c-.54 1.49-.6 1.98-.48 4.76.14 3.1.82 6.14 1.42 6.34.37.12 3.83-3.08 4.32-3.99.36-.66.81-.93.81-.47 0 .89-3.58 4.72-4.79 5.12-.4.13.85 2.62 2.05 4.1.98 1.21 3.73 3.15 5.9 4.15 1.33.62 1.54.64 5.55.5l4.16-.15 1.8.86c1.41.68 1.94 1.1 2.5 2 .83 1.38 1 1.42 6.25 1.33 3.38-.06 3.82-.12 5.03-.74zm-6.12-12.33c-1.3-.94-2.1-2.36-1.86-3.3.3-1.19 1.25-1.6 3.81-1.62 2.2-.02 2.3 0 2.68.67.36.63.34.87-.15 2.52-.4 1.33-.7 1.9-1.17 2.14-1.04.54-2.2.4-3.3-.4zm3.01-.24c.3-.26.73-1.1.97-1.88.42-1.34.42-1.45 0-1.92-.77-.84-4.36-.51-5.07.46-.55.76-.4 1.17.95 2.51 1.4 1.4 2.24 1.62 3.15.83zM38.28 72.3a19 19 0 0 0-1.1-5.7c-.28-.66.3-.57.67.11.74 1.37 1.41 8.17.82 8.17-.12 0-.3-1.16-.39-2.58zm14.28.55c-.1-.1-.17-.97-.17-1.93s-.17-2.34-.38-3.06c-.2-.73-.45-1.61-.54-1.98l-.18-.66.53.6c.62.7 1.03 2.58 1.16 5.29.08 1.8 0 2.15-.42 1.74zM17.15 83.19c.66-.14.83-.28.7-.61a19.31 19.31 0 0 1-1.12-7.65c.05-1.7.19-3.29.3-3.52.15-.33-.04-.53-.83-.84-2.14-.86-6.78.71-8.3 2.83-.96 1.31-1 2.9-.13 5.3.7 1.92 2.72 4.53 3.68 4.74a28 28 0 0 0 5.7-.25zm52.8-13.86c1.8-.68 4.41-4.02 3.9-4.97-.14-.28-.63-1.9-1.07-3.6a21.75 21.75 0 0 0-1.2-3.69c-.23-.31-.4-.96-.4-1.43 0-.8-.08-.87-.8-.87-.44 0-.8.03-.82.06 0 .04-.22 3.38-.46 7.41-.48 7.84-.5 7.6.85 7.1zm6.46-5.29c.54-.28 1.33-.8 1.77-1.16l.78-.64-1.18-3.62c-.68-2.07-1.47-3.96-1.85-4.42l-.67-.81-1.21.73-1.22.73.75 1.22c.84 1.37 1.3 3.64 1.3 6.57 0 1.15.1 1.92.27 1.92.15 0 .72-.23 1.26-.52zm-54.75-.63c.23-.28.15-.42-.38-.66-.4-.19-.92-.85-1.31-1.7-.53-1.13-.65-1.8-.65-3.68 0-3.36-1.21-6.26-2.2-5.28-.22.22-.17.3.19.3.4 0 .45.14.3.89-.11.64-.04.98.26 1.23.22.19.35.5.28.68-.07.18.04.48.25.65.55.45.48 1.25-.14 1.64-.61.38-.67.75-.2 1.22.18.18.33.83.33 1.44 0 .9.11 1.16.6 1.37.32.15.59.4.59.58 0 .17.27.35.6.4.38.05.62.3.67.68.1.68.38.76.81.24zm52.6-2.1c-.2-2.98-.52-4.17-1.4-5.21-1.18-1.4-1.53-.91-.65.92.28.58.85 2.34 1.25 3.9s.8 2.84.85 2.84c.07 0 .04-1.1-.05-2.44zm-46.44-2.84a47.47 47.47 0 0 1 5.67-3.62l2.06-.98-.77-.33c-1.05-.45-3-.43-3.82.04-.7.4-2.12.53-2.12.2 0-.38 2.83-1.13 4.26-1.12a7 7 0 0 1 2.6.53c.63.3 1.21.48 1.28.41.28-.28-.32-.67-2.4-1.56-1.75-.76-2.93-1.04-5.76-1.41-4.12-.54-5.25-.55-7.8-.12-2.71.46-2.7.45-1.88 2.52.57 1.4.7 2.18.7 3.97 0 2.55.56 4.22 1.73 5.14l.72.56.96-.8c.53-.43 2.58-1.98 4.57-3.43zm30.33 1.78.6-.85-.7-.56a6.6 6.6 0 0 0-3.11-1.16c-.24 0-.44-.12-.44-.27 0-.67 2.8-.01 3.92.93l.76.64 1.04-1.07c1.35-1.4 4.8-3.09 7.06-3.47 1.71-.3 1.78-.33 1.78-1.07 0-.89.47-9.17.64-11.22l.1-1.38-.96.42c-3.48 1.47-3.25 1.28-3.06 2.53.1.62.28 1.4.4 1.74.44 1.18.27 1.86-.55 2.29-.43.22-.91.4-1.08.4-.16 0-.89.26-1.62.58l-1.33.57.18 2.67.19 2.67-1.44 1c-1.3.88-1.6.98-3.13.98-2.26 0-3.69.4-3.69 1.04 0 .4 3.23 3.4 3.7 3.44.08 0 .4-.38.74-.85zm-4.99-2.9a3.56 3.56 0 0 0-.22-.85c-.18-.47-.22-.45-.34.19-.08.4-.07.77 0 .85.26.25.58.14.56-.2zm-.97-1.3c.08-.57-.17-1.51-.8-2.97a13.2 13.2 0 0 1-1.05-3.93l-.14-1.79h-2.22c-2.06 0-2.37.07-4.26 1.04-2.25 1.14-4.83 3.08-5.52 4.13-.62.94-.29 1.08.74.31 1.2-.9 2.47-1.51 3.12-1.51.76 0 .67.44-.13.64-.36.09-1.05.4-1.52.69l-.85.52h1.73c2.45 0 4.47.59 7.66 2.23 1.53.79 2.85 1.44 2.94 1.45.1.02.23-.35.3-.8zM60 55.2l1.4-.83-.17-2.38c-.1-1.3-.22-2.43-.27-2.48-.06-.06-.26.02-.45.18-.34.28-.7.4-4.16 1.23-.95.22-2 .53-2.32.67-.67.3-.8.8-.2.8.47 0 .56 1.45.11 1.73-.2.13-.2.26 0 .47.16.16.29.59.29.96v.68l2.18-.1c1.88-.08 2.38-.21 3.59-.93zm-6.55-.13c-.24-.57-.25-.93-.04-1.32.38-.7.37-.83-.1-.83a.4.4 0 0 1-.4-.4.4.4 0 0 0-.4-.4c-.51 0-.5.11.14 1.86l.67 1.82c.07.2.2.3.29.2.09-.08.02-.5-.16-.93zm-1.29-4.42c.09-.71 0-1-.36-1.2-.52-.28-.65-1.16-.21-1.43.36-.22.06-.66-.45-.66-.34 0-.4.27-.29 1.52.23 2.72 1.07 3.86 1.31 1.77zm9.14-1.93a87.77 87.77 0 0 1 3.58-1.34c1.1-.36 1.08-.32.75-1.6-.13-.52-.32-1.39-.41-1.95-.17-.97-.2-1-.76-.62-1.79 1.17-5.42 2.87-6.42 3-.64.1-1.16.26-1.16.37 0 .64 1.18 3.16 1.48 3.16.2 0 1.52-.46 2.94-1.02zm18.22-4.9.6-1.3-.64-.85a27.13 27.13 0 0 0-4.91-4.28l-1.23-.82-1.52 1.54-1.52 1.53 1.5 1.7a17 17 0 0 0 4.5 3.81c1.25.8 1.34.81 1.96.4a5 5 0 0 0 1.26-1.72zm61.45 17.1c-1.8-2-2.4-3.01-4.23-7.12-2.87-6.43-3.9-9-4.74-11.73-.91-2.99-.95-3.7-.25-4.3.31-.27.53-.79.53-1.24 0-.43.12-.85.27-.94.48-.3.28 1.82-.26 2.7l-.52.86.76 2.58a49.8 49.8 0 0 0 1.8 4.97l2.85 6.48c1.93 4.43 2.66 5.64 4.34 7.26.6.58 1.08 1.15 1.08 1.26 0 .52-.8.13-1.63-.78zm1.49-3.17c.1-1.28.28-2.78.4-3.34.23-1.06 1.43-2.55 2.04-2.55.55 0 .4.37-.45 1.2-.93.88-1.21 1.81-1.46 4.82-.1 1.2-.3 2.18-.45 2.18-.17 0-.2-.8-.08-2.31zm-1.82.83c-.24-.62-.19-1.9.08-2.08.13-.08.28.4.34 1.07.1 1.23-.13 1.77-.42 1.01zm8.31-.02c-.5-.05-1.17-.15-1.48-.22-.54-.12-1.17-1.12-1.17-1.86 0-.65.38-.42.8.48.39.84.43.85 2.85 1.09 3.62.34 4.43-.2 3.24-2.16-.82-1.34-1.99-1.91-3.9-1.91-.93 0-1.66-.12-1.66-.27 0-.42 3.06-.3 4.23.16 1.2.48 2.38 2.15 2.38 3.35 0 1.36-1.48 1.73-5.29 1.34zm-49.74-3.2c0-.16.37-.37.82-.47 3.25-.7 9.7-5.09 13.96-9.48a38.25 38.25 0 0 1 2.32-2.28c.05 0 .1.19.1.42 0 .64-4.51 4.92-7.67 7.28a43.29 43.29 0 0 1-5.17 3.29c-2.39 1.2-4.36 1.77-4.36 1.23zm41.54-.79c.01-.79.9-2.16 1.2-1.86.1.1 0 .49-.24.85s-.43.9-.43 1.2c0 .3-.12.54-.27.54-.14 0-.26-.33-.26-.73zm-41.94-2.12c.23-3.4.4-4.56.68-4.56.23 0 .16 2.15-.18 5.49-.24 2.4-.67 1.6-.5-.93zm25.4 1.51a17.7 17.7 0 0 0-2.64-.25c-1.77-.02-4.05-.72-4.45-1.36-.2-.31-.09-.65.44-1.34.7-.92.7-.93.7-5.8 0-5.5.15-6.85.72-6.85.28 0 .33.14.18.47-.12.25-.29 2.96-.36 6.02-.12 4.66-.22 5.7-.62 6.42l-.47.87.94.4a8.8 8.8 0 0 0 2.06.5l3.92.43c2.18.24 3.32.24 5.16-.02a24 24 0 0 0 2.54-.44c.1-.06.01-.52-.2-1.02-.2-.5-.38-1.6-.38-2.44 0-1.72-.48-4.85-1.3-8.47-.6-2.67-.7-4.04-.28-4.04.14 0 .26.28.26.62 0 .34.36 2.34.81 4.43.45 2.1.87 4.89.95 6.2.07 1.3.33 2.94.56 3.63.23.69.35 1.33.25 1.43-.66.65-6.59 1.06-8.79.61zm-23.41-1.1c0-.63.41-1.47.61-1.26.07.07.06.51-.01.99-.15.97-.6 1.17-.6.26zm41.54-1.9c0-.47 1.3-1.53 1.62-1.33.13.08-.12.5-.54.92-.87.87-1.08.95-1.08.4zm2.53-.44a3.3 3.3 0 0 1-.68-1.08c0-.14-1.24-1.47-2.75-2.95-2.56-2.53-3.48-3.73-7.02-9.2a6.75 6.75 0 0 0-2.58-2.59c-.8-.46-1.72-.9-2.03-.98-.83-.2-1.2.82-1.04 2.85a4.7 4.7 0 0 1-.46 2.92c-.77 1.66-1.31 1.66-1.34 0a6.7 6.7 0 0 0-.23-1.79c-.2-.5-.24-.48-.55.2-.36.77-.9.95-1.16.4-.08-.18-.09.04 0 .5.07.46.02.91-.12 1-.63.38 1.21 3.86 2.03 3.86.25 0 .58.6.58 1.08 0 .13-.17.24-.37.24-.2 0-.5.18-.69.4-.18.21-.6.4-.95.4-.45 0-.58.1-.47.4.09.21.02.56-.15.76-.36.44-2.02.79-2.46.52a2.6 2.6 0 0 0-.98-.23c-2.4-.11-2.4-.11-2.4-.76 0-.35.18-.78.4-.96.22-.18.4-.66.4-1.06 0-.97.65-2.79 1.31-3.62.63-.8.73-2.2.16-2.2-.45 0-2-1.81-2-2.33 0-.24-.3-.12-.83.33-.45.38-1.17.87-1.59 1.09-.7.37-.75.47-.6 1.51.1.62.4 1.56.67 2.1.27.53.39 1.04.26 1.12-.37.22-1.08-1.06-1.33-2.38a5.7 5.7 0 0 0-.35-1.33c-.07-.07-.68.11-1.36.4-1.22.53-1.22.54-1.22 1.81 0 2.14-1.14 5.35-1.9 5.35-.15 0-.22-.24-.14-.53.09-.35 0-.53-.27-.53s-.34-.14-.2-.46c.63-1.54.88-4.3.38-4.3-.15 0-.54.17-.86.37-1.32.84-4.53 1.48-7.42 1.48-1.7 0-2.82-.1-2.82-.26s1.04-.27 2.59-.27c1.48 0 3.26-.17 4.16-.4 1.58-.41 4.36-1.57 4.36-1.81 0-.07-.36-1.1-.8-2.28-.89-2.43-.95-3.07-.4-4.38.2-.5.27-.92.13-.92-.4 0-.3-.83.15-1.33.23-.25.48-1.2.57-2.2.15-1.68.14-1.76-.41-1.76-.66 0-.86-.43-1.53-3.18-.38-1.6-.4-2.2-.15-4.13.36-2.68.74-3.36 3.2-5.73 1.7-1.64 1.92-1.77 2.98-1.77.64 0 1.39.19 1.67.4.7.53 1.2.49 1.2-.09 0-.52 1.35-1.91 2.36-2.43.35-.18 1.6-.39 2.78-.46l2.14-.13 2.27 1.55c3.72 2.54 3.14 1.86 8.58 10.02 1.97 2.96 3.12 4.9 3.62 6.08.52 1.23.6 3.51.2 5-.35 1.23-2.34 3.45-3.74 4.16l-1 .5 1 1.53c2.93 4.5 4.04 5.94 6.05 7.83a26.56 26.56 0 0 1 3.16 3.5 5.05 5.05 0 0 0 1.19 1.43c.13 0 .23.12.23.26 0 .54-.76.25-1.43-.54zm-20.66-4.08c0-.14-.71-.3-1.59-.34l-2.22-.14c-.35-.03-.69.1-.75.29-.09.24.06.3.54.17.36-.09.72-.06.8.06.19.3 3.22.27 3.22-.04zM124 45.4c.02-.02-.09-1.2-.26-2.61-.35-2.99-.68-3.24-2.02-1.55-.8 1.01-1.61 3.56-1.25 3.92.4.4 3.08.6 3.53.24zm2.23-.68c.5-.42.54-.52.18-.53-.25 0-.53.12-.62.28-.1.15-.43.38-.75.51l-.56.23.56.02c.31 0 .85-.22 1.2-.5zm-.86-1.6c-.28-.23-.7-.88-.91-1.46l-.4-1.05.17 1.46c.25 2.38.3 2.46 1.04 1.92.62-.46.62-.47.1-.87zm-1.08-4.3c-.07-.74-.19-.86-.9-.93-.68-.07-.86.03-1 .53-.3 1.14-.2 1.27.91 1.27 1.06 0 1.08-.02 1-.86zm-10.52-.14c.33-.15.25-.41-.5-1.5l-.9-1.33.16 1.06c.1.58.17 1.27.17 1.52 0 .48.36.56 1.07.25zm8.87-2.7c.31 0 .34.11.13.52-.4.74-.36.8.52.8.72 0 .76-.04.47-.51-.56-.9.03-.93.95-.05l.88.86.42-.64c.38-.59.37-.7-.1-1.47a3.47 3.47 0 0 1-.5-1.26c0-.39-.07-.39-.66 0-.72.48-3.2.58-3.85.17-.28-.19.05-.26 1.14-.26.85 0 1.88-.19 2.3-.4.73-.38.76-.47.62-1.7-.16-1.36.35-3.4 1.26-4.99.4-.7.42-.86.1-.86-.54 0-.48-.62.11-1.16.35-.32.56-1 .68-2.22a33 33 0 0 1 .3-2.3c.09-.4-.1-.64-.75-.95-.47-.24-.9-.65-.96-.92a3.33 3.33 0 0 0-.9-1.24l-.8-.75.16 1.95.17 1.95-.92.43c-.65.31-.92.62-.92 1.04 0 .95.54 2.67 1 3.18.46.52.3.87-.31.64-.44-.17-1.22-2.5-1.22-3.66 0-.41-.12-.75-.26-.75-.15 0-.27-.16-.27-.35 0-.2-.25-.59-.56-.86a7.34 7.34 0 0 1-1.2-1.83l-.65-1.32.09 2.82.09 2.83-1.05.41c-1.25.5-1.4.4-2.57-1.65-.8-1.42-.87-1.47-1.05-.84-.27.96-.28 3.23 0 3.06.12-.08.3.25.4.75.09.49.53 1.39.97 2 .45.61.74 1.18.66 1.27-.27.27-1.28-.85-1.8-1.99-.56-1.26-.7-1.32-1.54-.64-.59.48-.59.5-.15 1.82 1.07 3.21 3.92 6.7 5.49 6.7.82 0 .89.09 1.14 1.64.1.54.48 1.36.86 1.81l.7.83.5-.95c.26-.53.66-.96.88-.96zm-1.34-4.19c-.68-.22-2.25-1.17-2.24-1.35.01-.46.55-.77 1.84-1.06.8-.18 1.67-.38 1.92-.45.38-.1.47.05.47.83 0 1-.66 2.27-1.16 2.23-.16-.02-.54-.1-.83-.2zm1.18-1.08c.61-1.14.21-1.3-1.7-.71l-1.07.33.8.43c1.05.58 1.64.57 1.97-.05zm6.1 3.02c0-.21-.12-.4-.26-.4s-.19.19-.1.4c.08.22.2.4.25.4.06 0 .1-.18.1-.4zm-15.46-1.92c-.23-.73-2-1.24-2.52-.72-.35.35-.34.4.06.4.25 0 .45.2.45.43 0 .41.04.41.5 0 .45-.41.5-.4.96.1.55.6.78.52.55-.2zm16.42-3.05c.34-.75.37-1.07.14-1.3-.4-.4-.52-.25-.94 1.27-.2.72-.44 1.54-.55 1.83-.32.9.82-.64 1.35-1.8zm-16.22 1.54c.35-.35.32-.55-.25-1.74-.36-.74-.72-1.68-.8-2.1-.1-.52-.28-.7-.6-.62-.32.1-.45.48-.5 1.63-.05.82-.1 1.73-.14 2-.03.35.23.6.88.84l.97.36c.03.01.23-.16.44-.37zm16.88-4.42c-.36-.39-2.61-.83-3.1-.6-.45.2-.42.23.22.32.4.05.73.25.73.44 0 .22.23.3.61.23.37-.07.76.06.98.33.34.4.38.4.55-.05.1-.27.1-.57.01-.67zm-.18-2.27c-.37-3.83-.35-3.77-1.17-3.77-.81 0-.77-.12-1.22 3.22l-.16 1.24 1.28.39 1.35.42c.04.01 0-.66-.08-1.5zm2.53-1.37c0-1.24-.38-1.56-1.08-.93-.4.37-.51.81-.5 2.08V25l.8-.86c.58-.65.78-1.12.78-1.9zm-31.27 26.58c.06-.66.2-1.2.34-1.2.13 0 .23.54.23 1.2 0 .78-.11 1.19-.33 1.19-.23 0-.3-.36-.24-1.2zm-7.4-.34c-.03-.1-.06-.31-.09-.46-.02-.14-.66-1.52-1.41-3.05a24.11 24.11 0 0 1-1.37-3.11c0-.52-1.02-.37-1.32.2-.53.98-.32 1.53.78 2.04.58.26 1.06.57 1.06.68.01.37-.92.2-1.78-.33-.73-.44-.86-.67-.86-1.54 0-1.01.6-1.9 1.28-1.9.4 0 .4-.02-.18-1.51-.27-.7-.57-1.49-.66-1.76-.13-.35-.27-.42-.5-.22-.5.4-2.55.9-3.08.72-.5-.16-1.36-2.25-1.36-3.32 0-.56-.2-.74-1.32-1.13-1.75-.63-1.94-1.3-.81-2.94a6.66 6.66 0 0 1 1.58-1.64c.51-.3.81-.73.9-1.27.06-.45.26-1.55.44-2.45.29-1.48.38-1.63 1.1-1.78 1.05-.2 3.32.68 4.66 1.82.88.76 1.3.93 2.26.93.65 0 1.55.07 2 .16.8.16.83.23.82 1.4a6.3 6.3 0 0 1-.34 2c-.3.7-.27.91.25 1.85.33.59.67 1.5.77 2.03.16.9.12.97-.68 1.26-.47.16-1.32.3-1.88.3-.56 0-1.02.12-1.02.26 0 .15.32.77.7 1.38.95 1.5 2.54 5 3.4 7.47.81 2.38.78 2.46-1.38 3.44-1.54.71-1.9.8-1.96.47zm3.1-2c.15-.4-.83-3.23-1.02-2.92-.14.25-1.25 3.9-1.25 4.14 0 .26 2.14-.88 2.27-1.21zm-1.92-1.93.71-2.15-.85-1.82-.86-1.82-.34 1.85a27.33 27.33 0 0 1-.62 2.73c-.24.73-.2 1.11.3 2.33.33.8.67 1.36.77 1.24.1-.11.5-1.18.9-2.36zm-2.1-3.08c.73-3.46.73-3.45.17-4.3-.3-.43-.53-1-.53-1.25 0-1.06-.49-.36-.65.94-.1.77-.33 1.92-.51 2.55-.3 1.02-.28 1.31.18 2.57.29.77.61 1.41.73 1.41.11 0 .39-.86.61-1.92zm-1.65-4.17c.23-1.26.23-1.71 0-1.79-.17-.05-.3-.2-.3-.34s.88-.24 1.96-.24c1.09 0 2.27-.12 2.64-.26.66-.25.66-.28.3-1.3-.2-.56-.56-1.41-.8-1.88-.4-.77-.4-.92-.02-1.72a4.7 4.7 0 0 0 .41-1.67c0-.9-.43-1.1-2.5-1.1-1.01-.01-1.45-.15-1.98-.65-1.29-1.23-4.4-2.48-4.9-1.98-.05.06-.31 1.2-.58 2.55-.27 1.36-.62 2.45-.79 2.45-.33 0-2.01 1.78-2.45 2.6-.2.38-.2.59.05.79.4.33 1.78.71 2.24.62.22-.04.33.3.34 1.07 0 .63.23 1.65.52 2.27.46 1.03.58 1.11 1.25.96a6.28 6.28 0 0 0 3-1.58c.33-.35.7-.65.82-.65.43 0 .21.74-.32 1.1-.52.35-.52.4-.1 1.64.54 1.56.82 1.35 1.21-.89zm9.61 7.48c.2-1.08.32-1.3.57-1.05.26.26-.16 2.04-.47 2.04-.18 0-.22-.35-.1-.99zM98 40.88c-.08-.22-.37-.4-.64-.4-.66 0-1.84-.55-1.84-.87 0-.14.27-.17.6-.06.33.1.9.24 1.26.32.64.14 1.32.75 1.32 1.2 0 .36-.54.22-.7-.2z"/></svg>