<?xml version="1.0" encoding="UTF-8"?>
<!-- Created with Inkscape (http://www.inkscape.org/) -->
<svg width="32" height="32" version="1.1" viewBox="0 0 32 32" xml:space="preserve" xmlns="http://www.w3.org/2000/svg" xmlns:xlink="http://www.w3.org/1999/xlink" native-dark-active=""><link xmlns="" type="text/css" rel="stylesheet" id="dark-mode-custom-link"/><link xmlns="" type="text/css" rel="stylesheet" id="dark-mode-general-link"/><style xmlns="" lang="en" type="text/css" id="dark-mode-custom-style"/><style xmlns="" lang="en" type="text/css" id="dark-mode-native-style">:root, ::after, ::before, ::backdrop {
  --native-dark-opacity: 0.85;
  --native-dark-bg-color: #292929;
  --native-dark-text-shadow: none;
  --native-dark-font-color: #dcdcdc;
  --native-dark-link-color: #8db2e5;
  --native-dark-cite-color: #92de92;
  --native-dark-fill-color: #7d7d7d;
  --native-dark-border-color: #555555;
  --native-dark-visited-link-color: #c76ed7;
  --native-dark-transparent-color: transparent;
  --native-dark-bg-image-color: rgba(0, 0, 0, 0.25);
  --native-dark-box-shadow: 0 0 0 1px rgb(255 255 255 / 10%);
  --native-dark-bg-image-filter: brightness(50%) contrast(200%)
}

:root {
  color-scheme: dark;
}

html a:visited, 
html a:visited &gt; * {
  color: var(--native-dark-visited-link-color) !important;
}

a[ping]:link,
a[ping]:link &gt; *,
:link:not(cite) {
  color: var(--native-dark-link-color) !important;
}

html cite,
html cite a:link,
html cite a:visited {
  color: var(--native-dark-cite-color) !important;
}

img,
image,
figure:empty {
  opacity: var(--native-dark-opacity) !important;
}
        </style><style xmlns="" lang="en" type="text/css" id="dark-mode-native-sheet"/><defs><linearGradient id="linearGradient3898" x1="4" x2="28" y1="31" y2="1" gradientUnits="userSpaceOnUse"><stop stop-color="#7324a9" offset="0"/><stop stop-color="#fa51fd" offset="1"/></linearGradient></defs><g fill-rule="evenodd"><path d="m7 0c-2.216 0-4 1.784-4 4v24c0 2.216 1.784 4 4 4h18c2.216 0 4-1.784 4-4v-16l-12-12h-10zm13 0 9 9v-9h-9z" fill="url(#linearGradient3898)" stroke-linecap="square"/><g stroke-linecap="square"><path d="m3 27v1c0 2.216 1.784 4 4 4h18c2.216 0 4-1.784 4-4v-1c0 2.216-1.784 4-4 4h-18c-2.216 0-4-1.784-4-4z" fill-opacity=".19862"/><path d="m20 0h1.4l7.6 7.6v1.4z" fill-opacity=".20149"/></g><g><path d="m12 13a4 1 0 0 0-4 1v1a4 1 0 0 0 4 1 4 1 0 0 0 4-1v-1a4 1 0 0 0-4-1zm-4 3v2a4 1 0 0 0 4 1 4 1 0 0 0 4-1v-2a4 1 0 0 1-4 1 4 1 0 0 1-4-1zm0 3v2a4 1 0 0 0 4 1 4 1 0 0 0 4-1v-2a4 1 0 0 1-4 1 4 1 0 0 1-4-1zm0 3v2a4 1 0 0 0 4 1 4 1 0 0 0 4-1v-2a4 1 0 0 1-4 1 4 1 0 0 1-4-1z" fill="#fa9bfd"/><path d="m18 15c-0.554 0-1 0.446-1 1v8c0 0.554 0.446 1 1 1h5c0.554 0 1-0.446 1-1v-8c0-0.554-0.446-1-1-1h-5zm0 1h2v2h-2v-2zm3 0h2v2h-2v-2zm-3 3h2v2h-2v-2zm3 0h2v2h-2v-2zm-3 3h2v2h-2v-2zm3 0h2v2h-2v-2z" fill="#fafafa"/></g></g></svg>