<svg viewBox="0 0 128 128" xmlns="http://www.w3.org/2000/svg"><g fill="#fcc21b"><path d="m127.88 100.37c0 15.13-12.38 27.52-27.52 27.52h-72.73c-15.13 0-27.52-12.38-27.52-27.52v-72.74c.01-15.13 12.39-27.52 27.52-27.52h72.73c15.13 0 27.52 12.38 27.52 27.52z"/><path d="m4.16 4.16c-2.49 2.49-4.04 5.93-4.04 9.72v100.26c0 3.78 1.55 7.22 4.04 9.72l59.84-59.86z"/><path d="m123.84 4.16c-2.49-2.49-5.93-4.04-9.72-4.04h-100.24c-3.78 0-7.22 1.55-9.72 4.04l59.84 59.84z"/></g><path d="m64 64 59.84 59.85c2.49-2.5 4.04-5.94 4.04-9.72v-100.26c0-3.78-1.55-7.22-4.04-9.72z" fill="#f79329"/><path d="m4.16 123.85c2.5 2.49 5.93 4.04 9.72 4.04h100.25c3.78 0 7.22-1.55 9.72-4.04l-59.85-59.85z" fill="#f79329"/><path d="m127.88 100.37c0 15.13-12.38 27.52-27.52 27.52h-72.73c-15.13 0-27.52-12.38-27.52-27.52v-72.74c.01-15.13 12.39-27.52 27.52-27.52h72.73c15.13 0 27.52 12.38 27.52 27.52z" fill="none"/><path d="m112.02 98.94c0 7.2-5.89 13.08-13.08 13.08h-69.89c-7.2 0-13.08-5.89-13.08-13.08v-69.88c0-7.2 5.89-13.08 13.08-13.08h69.88c7.2 0 13.08 5.89 13.08 13.08v69.88z" fill="#fcc21b"/><path d="m47.33 49.47 7.51-2.15v41.21h-5.79c-.62 0-1.11.5-1.11 1.11v14.09c0 .62.49 1.11 1.11 1.11h29.93c.61 0 1.1-.49 1.1-1.11v-14.09c0-.61-.49-1.11-1.1-1.11h-5.79v-60.34c0-.34-.16-.66-.42-.86-.26-.21-.6-.3-.93-.22l-25.05 5.38c-.5.11-.87.56-.87 1.08v14.83c0 .35.16.68.44.89s.64.27.97.18z" fill="#fff"/></svg>