<svg viewBox="0 0 128 128" xmlns="http://www.w3.org/2000/svg"><g fill="#fcc21b"><path d="m127.88 100.37c0 15.13-12.38 27.52-27.52 27.52h-72.73c-15.13 0-27.52-12.38-27.52-27.52v-72.74c.01-15.13 12.39-27.52 27.52-27.52h72.73c15.13 0 27.52 12.38 27.52 27.52z"/><path d="m4.16 4.15c-2.49 2.49-4.04 5.93-4.04 9.72v100.26c0 3.78 1.55 7.22 4.04 9.72l59.83-59.85z"/><path d="m123.84 4.15c-2.49-2.49-5.93-4.04-9.72-4.04h-100.24c-3.78 0-7.22 1.55-9.72 4.04l59.83 59.85z"/></g><path d="m63.99 64 59.85 59.84c2.49-2.49 4.04-5.93 4.04-9.72v-100.25c0-3.78-1.55-7.22-4.04-9.72z" fill="#f79329"/><path d="m4.16 123.84c2.49 2.49 5.93 4.04 9.72 4.04h100.25c3.78 0 7.22-1.55 9.72-4.04l-59.86-59.84z" fill="#f79329"/><path d="m127.88 100.37c0 15.13-12.38 27.52-27.52 27.52h-72.73c-15.13 0-27.52-12.38-27.52-27.52v-72.74c.01-15.13 12.39-27.52 27.52-27.52h72.73c15.13 0 27.52 12.38 27.52 27.52z" fill="none"/><path d="m112.02 98.94c0 7.2-5.89 13.08-13.08 13.08h-69.88c-7.2 0-13.08-5.89-13.08-13.08v-69.88c0-7.2 5.89-13.08 13.08-13.08h69.88c7.2 0 13.08 5.89 13.08 13.08z" fill="#fcc21b"/><path d="m94.33 76.22h-12.84v-47.02c0-.18-.05-.33-.12-.47 0-.01 0-.03-.01-.04-.01-.02-.04-.04-.05-.06-.08-.11-.17-.21-.28-.29-.04-.03-.07-.06-.11-.08-.15-.08-.32-.13-.5-.13h-16.37c-.17 0-.32.05-.47.12-.04.02-.08.05-.12.08-.1.07-.18.14-.26.24-.02.02-.05.03-.06.06l-31.18 48.1c-.01.02-.01.05-.02.07-.07.13-.12.27-.14.42 0 .02-.01.05-.01.08v.02 13.16c0 .6.48 1.08 1.07 1.08h30.09v13.17c0 .6.49 1.08 1.09 1.08h16.37c.6 0 1.08-.48 1.08-1.08v-13.18h12.83c.59 0 1.08-.48 1.08-1.08v-13.16c.01-.6-.48-1.09-1.07-1.09zm-31.37-18.11v18.11h-11.73z" fill="#fff"/></svg>