<svg viewBox="0 0 128 128" xmlns="http://www.w3.org/2000/svg"><g fill="#fcc21b"><path d="m127.88 100.37c0 15.13-12.38 27.52-27.52 27.52h-72.73c-15.13 0-27.52-12.38-27.52-27.52v-72.74c0-15.13 12.38-27.52 27.52-27.52h72.73c15.13 0 27.52 12.38 27.52 27.52z"/><path d="m4.16 4.16c-2.49 2.49-4.04 5.93-4.04 9.72v100.26c0 3.78 1.55 7.22 4.04 9.72l59.83-59.86z"/><path d="m123.84 4.16c-2.49-2.49-5.93-4.04-9.72-4.04h-100.24c-3.78 0-7.22 1.55-9.72 4.04l59.83 59.84z"/></g><path d="m63.99 64 59.85 59.84c2.49-2.49 4.04-5.93 4.04-9.72v-100.25c0-3.78-1.55-7.22-4.04-9.72z" fill="#f79329"/><path d="m4.16 123.84c2.49 2.49 5.93 4.04 9.72 4.04h100.25c3.78 0 7.22-1.55 9.72-4.04l-59.86-59.84z" fill="#f79329"/><path d="m127.88 100.37c0 15.13-12.38 27.52-27.52 27.52h-72.73c-15.13 0-27.52-12.38-27.52-27.52v-72.74c0-15.13 12.38-27.52 27.52-27.52h72.73c15.13 0 27.52 12.38 27.52 27.52z" fill="none"/><path d="m112.02 98.94c0 7.2-5.89 13.08-13.08 13.08h-69.88c-7.2 0-13.08-5.89-13.08-13.08v-69.88c0-7.2 5.89-13.08 13.08-13.08h69.88c7.2 0 13.08 5.89 13.08 13.08z" fill="#fcc21b"/><path d="m32.64 81.74c.04.34.1.67.15 1.01.05.33.09.65.15.99.02.1.04.19.06.29.07.36.15.73.23 1.08.1.43.22.85.34 1.27 3.36 11.41 14.55 19.12 29.1 19.12h.02.01c17.46-.01 30.14-11.12 30.14-26.43s-12.69-26.43-30.16-26.43c-2.22 0-4.37.18-6.42.53 6.71-11.7 17.03-18.38 17.13-18.45.28-.17.45-.45.48-.75.03-.31-.08-.62-.29-.84l-10.08-10.32c-.32-.32-.81-.4-1.21-.2-.55.28-13.55 7.02-22.22 22.24-4.38 7.69-9.8 19.79-7.43 36.89zm30.03-13.88c6.86 0 11.85 4.71 11.85 11.2s-4.99 11.2-11.85 11.2c-6.87 0-11.85-4.71-11.85-11.2s4.98-11.2 11.85-11.2z" fill="#fff"/></svg>