<svg viewBox="0 0 128 128" xmlns="http://www.w3.org/2000/svg"><g fill="#fcc21b"><path d="m127.88 100.37c0 15.13-12.38 27.52-27.52 27.52h-72.73c-15.13 0-27.52-12.38-27.52-27.52v-72.74c0-15.13 12.38-27.52 27.52-27.52h72.73c15.13 0 27.52 12.38 27.52 27.52z"/><path d="m4.16 4.15c-2.49 2.49-4.04 5.93-4.04 9.72v100.26c0 3.78 1.55 7.22 4.04 9.72l59.83-59.85z"/><path d="m123.84 4.15c-2.49-2.49-5.93-4.04-9.72-4.04h-100.24c-3.78 0-7.22 1.54-9.72 4.04l59.83 59.85z"/></g><path d="m63.99 64 59.85 59.84c2.49-2.49 4.04-5.93 4.04-9.72v-100.25c0-3.78-1.55-7.22-4.04-9.72z" fill="#f79329"/><path d="m4.16 123.84c2.49 2.49 5.93 4.05 9.72 4.05h100.25c3.78 0 7.22-1.55 9.72-4.05l-59.86-59.84z" fill="#f79329"/><path d="m127.88 100.37c0 15.13-12.38 27.52-27.52 27.52h-72.73c-15.13 0-27.52-12.38-27.52-27.52v-72.74c0-15.13 12.38-27.52 27.52-27.52h72.73c15.13 0 27.52 12.38 27.52 27.52z" fill="none"/><path d="m112.02 98.94c0 7.2-5.89 13.08-13.08 13.08h-69.88c-7.2 0-13.08-5.89-13.08-13.08v-69.89c0-7.2 5.89-13.08 13.08-13.08h69.88c7.2 0 13.08 5.89 13.08 13.08z" fill="#fcc21b"/><path d="m92.9 27.87h-9.2-9.66-40.5c-.57 0-1.04.46-1.04 1.04v12.94c0 .57.47 1.04 1.04 1.04h34.07l-22.84 59.94c-.12.32-.08.68.11.96s.51.45.86.45h18.86c.43 0 .82-.26.98-.67l28.3-74.3c.12-.32.08-.68-.11-.96-.21-.27-.53-.44-.87-.44z" fill="#fff"/></svg>