<svg viewBox="0 0 128 128" xmlns="http://www.w3.org/2000/svg"><g fill="#fcc21b"><path d="m127.88 100.37c0 15.13-12.38 27.52-27.52 27.52h-72.73c-15.13 0-27.52-12.38-27.52-27.52v-72.74c0-15.13 12.38-27.52 27.52-27.52h72.73c15.13 0 27.52 12.38 27.52 27.52z"/><path d="m4.16 4.16c-2.49 2.49-4.04 5.93-4.04 9.72v100.26c0 3.78 1.55 7.22 4.04 9.72l59.83-59.86z"/><path d="m123.84 4.16c-2.49-2.49-5.93-4.04-9.72-4.04h-100.24c-3.78 0-7.22 1.55-9.72 4.04l59.83 59.84z"/></g><path d="m63.99 64 59.85 59.85c2.49-2.49 4.04-5.93 4.04-9.72v-100.26c0-3.78-1.55-7.22-4.04-9.72z" fill="#f79329"/><path d="m4.16 123.85c2.49 2.49 5.93 4.04 9.72 4.04h100.25c3.78 0 7.22-1.55 9.72-4.04l-59.86-59.85z" fill="#f79329"/><path d="m127.88 100.37c0 15.13-12.38 27.52-27.52 27.52h-72.73c-15.13 0-27.52-12.38-27.52-27.52v-72.74c0-15.13 12.38-27.52 27.52-27.52h72.73c15.13 0 27.52 12.38 27.52 27.52z" fill="none"/><path d="m112.02 98.94c0 7.2-5.89 13.08-13.08 13.08h-69.88c-7.2 0-13.08-5.89-13.08-13.08v-69.88c0-7.2 5.89-13.08 13.08-13.08h69.88c7.2 0 13.08 5.89 13.08 13.08z" fill="#fcc21b"/><path d="m82.82 61.07c4.09-3.93 6.51-9.25 6.51-15.38 0-12.98-10.75-22.41-25.57-22.41-14.81 0-25.56 9.43-25.56 22.41 0 6.13 2.42 11.45 6.51 15.38-5.8 4.45-9.32 11.08-9.32 18.88 0 14.41 11.93 24.87 28.38 24.87s28.39-10.46 28.39-24.87c-.01-7.81-3.53-14.43-9.34-18.88zm-19.06-6c-.26 0-.51.02-.76.03-5.4-.34-9.27-4.17-9.27-9.41 0-5.49 4.22-9.48 10.03-9.48 5.82 0 10.04 3.98 10.04 9.48 0 5.24-3.86 9.07-9.27 9.41-.26-.01-.51-.03-.77-.03zm0 14.35c6.47 0 11.15 4.43 11.15 10.53 0 6.09-4.68 10.52-11.15 10.52-6.45 0-11.13-4.42-11.13-10.52s4.68-10.53 11.13-10.53z" fill="#fff"/></svg>