<svg viewBox="0 0 128 128" xmlns="http://www.w3.org/2000/svg"><g fill="#40c0e7"><path d="m68.97 31.66c-.64-.49-1.38-.85-2.24-1.04-.85-.19-1.75-.3-2.72-.3s-1.88.1-2.74.3c-.87.19-1.61.55-2.26 1.04-.64.49-1.14 1.14-1.51 1.95-.36.81-.55 1.83-.55 3.04 0 1.19.19 2.19.55 3.02.37.81.87 1.48 1.51 1.97s1.39.85 2.26 1.06c.86.21 1.77.32 2.74.32.96 0 1.87-.11 2.72-.32.86-.21 1.6-.57 2.24-1.06s1.15-1.16 1.53-1.97c.38-.83.57-1.83.57-3.02 0-1.22-.19-2.24-.57-3.04-.38-.81-.89-1.46-1.53-1.95z"/><path d="m57.52 48.94h12.97v47.51h-12.97z"/><path d="m64 .41c-35.07 0-63.59 28.52-63.59 63.59 0 35.06 28.52 63.59 63.58 63.59s63.59-28.52 63.59-63.59c.01-35.07-28.52-63.59-63.58-63.59zm0 118c-30 0-54.4-24.41-54.4-54.41s24.4-54.41 54.4-54.41 54.41 24.41 54.41 54.42c-.01 29.99-24.42 54.4-54.41 54.4z"/></g></svg>