<svg xmlns="http://www.w3.org/2000/svg" viewBox="0 0 128 128"><path fill="#B9E4EA" d="m118 60.5 3.48 53.01a7.501 7.501 0 0 1-7.49 7.99H14.01c-4.34 0-7.77-3.67-7.49-7.99L10 60.5c3-34 24.18-54 54-54s50 24 54 54Z"/><path fill="#FFF" d="M104 60.5a40 40 0 1 1-80 0 40 40 0 1 1 80 0Z"/><path fill="#FFF" d="M104 60.5a40 40 0 1 1-80 0 40 40 0 1 1 80 0Z"/><path fill="#78909C" d="M64 20.5c22.09 0 40 17.91 40 40s-17.91 40-40 40-40-17.91-40-40 17.91-40 40-40m0-3c-23.71 0-43 19.29-43 43s19.29 43 43 43 43-19.29 43-43-19.29-43-43-43Z"/><path fill="#78909C" d="M65.5 18.5v8.23h-3V18.5h3ZM65.5 94.27v8.23h-3v-8.23h3ZM106 62h-8.23v-3H106v3ZM30.23 62H22v-3h8.23v3Z"/><path fill="#78909C" d="M65.5 18.5v8.23h-3V18.5h3ZM65.5 94.27v8.23h-3v-8.23h3ZM44.299 23.38l4.11 7.12-2.598 1.5-4.11-7.12 2.598-1.5ZM82.189 89l4.11 7.12-2.598 1.5-4.11-7.12 2.598-1.5Z"/><path fill="#78909C" d="m44.299 23.38 4.11 7.12-2.598 1.5-4.11-7.12 2.598-1.5ZM82.189 89l4.11 7.12-2.598 1.5-4.11-7.12 2.598-1.5ZM28.38 38.201l7.12 4.11-1.5 2.598-7.12-4.11 1.5-2.598ZM94 76.091l7.12 4.11-1.5 2.598-7.12-4.11 1.5-2.598ZM86.299 24.88 82.189 32l-2.598-1.5 4.11-7.12 2.598 1.5ZM48.409 90.5l-4.11 7.12-2.598-1.5 4.11-7.12 2.598 1.5ZM101.12 40.799 94 44.909l-1.5-2.598 7.12-4.11 1.5 2.598ZM35.5 78.689l-7.12 4.11-1.5-2.598 7.12-4.11 1.5 2.598Z"/><path fill="#E0E0E0" d="M64 91.5c-7.18 0-13-5.82-13-13v-35c0-7.18 5.82-13 13-13s13 5.82 13 13v35c0 7.18-5.82 13-13 13Z"/><path fill="#78909C" d="M76.88 42.67c-.55-5.58-3.31-8.85-8.11-11.41-.5-.27-1.05-.54-1.61-.45 0 0-1.17 42.34-1.17 46.53 0 4.54-.38 9.74-5.56 11.32-.93.28-1.93.41-2.71.98 3.56 3.1 9.27 2.63 13.12-.09C72.96 88.06 77 85.5 77 74.5" opacity=".52"/><path fill="#F5F5F5" d="M31.58 97.55c.1.1.2.2.3.31 5.02 5.19 11.56 8.68 16.82 13.62-2.88.99-6.05.33-8.96-.55-10.89-3.31-21.21-10.15-26.19-20.39-1.19-2.44-2.07-5.12-1.83-7.82.13-1.5.73-3.13 2.1-3.78 1.19-.57 2.67-.21 3.74.56 2.62 1.88 3.91 5.96 5.84 8.55 2.49 3.35 5.28 6.48 8.18 9.5Z"/><path fill="#82AEC0" d="M109.3 84.9c-7.63 13.26-20.53 23.52-35.33 27.52 3.37 4.12 18.9 3.22 29.97-5.1s14.84-30.31 12.47-37.07c-1.16.33-1.64 1.67-1.99 2.82-1.24 4.13-2.97 8.1-5.12 11.83Z" opacity=".5"/><path fill="#FF4638" d="m63.5 16.5-5-10h11Z"/></svg>