<svg viewBox="0 0 128 128" xmlns="http://www.w3.org/2000/svg"><g fill="#40c0e7"><path d="m64.01.33c-35.17 0-63.67 28.51-63.67 63.67s28.51 63.66 63.67 63.66 63.66-28.5 63.66-63.66-28.5-63.67-63.66-63.67zm0 121.24c-31.74 0-57.57-25.83-57.57-57.56 0-31.74 25.83-57.57 57.57-57.57 31.73 0 57.56 25.83 57.56 57.57 0 31.73-25.83 57.56-57.56 57.56z"/><path d="m96.09 28.06c0-.05-.03-.09-.04-.15-.04-.18-.1-.35-.2-.51-.02-.03-.01-.06-.03-.08-.02-.04-.07-.06-.1-.09-.11-.13-.22-.24-.37-.33-.06-.04-.1-.08-.17-.11-.21-.09-.44-.16-.67-.16h-15.06c-.21 0-.4.05-.59.13-.06.02-.09.05-.15.07-.13.07-.24.16-.36.26-.02.02-.06.04-.08.06s-.02.04-.04.06c-.11.14-.21.29-.27.46-.01.02-.02.04-.03.07 0 0-.01.01-.01.02l-13.92 45.37-13.92-45.37c0-.01 0-.01-.01-.02-.01-.02-.02-.04-.03-.07-.07-.17-.16-.32-.26-.46-.02-.02-.03-.04-.04-.06-.02-.03-.06-.04-.09-.06-.11-.1-.22-.18-.36-.26-.06-.03-.09-.06-.15-.07-.19-.08-.38-.13-.59-.13h-15.07c-.24 0-.46.07-.67.16-.06.03-.11.07-.17.11-.15.09-.27.2-.37.33-.03.03-.08.05-.1.09-.02.03-.02.06-.04.09-.09.15-.15.32-.19.5-.01.06-.04.1-.04.15 0 .01-.01.02-.01.04l-5.71 67.52c-.04.45.12.89.42 1.22s.73.52 1.17.52h14.13c.81 0 1.5-.62 1.58-1.44l2.84-28.78 10.91 29.18c.05.13.12.24.2.35.01.01.01.03.02.05 0 0 .01 0 .01.01.14.18.31.31.5.42.05.02.09.04.14.07.2.08.42.15.64.15h10.54c.23 0 .44-.07.64-.15.05-.02.09-.05.14-.07.19-.11.36-.24.5-.42 0-.01.01-.01.01-.01.01-.01.01-.03.02-.05.08-.1.15-.22.2-.35l10.91-29.18 2.83 28.78c.08.82.77 1.44 1.59 1.44h14.12c.45 0 .88-.19 1.17-.52.31-.33.46-.77.42-1.22l-5.73-67.52c0-.01-.01-.02-.01-.04z"/></g></svg>