<svg viewBox="0 0 128 128" xmlns="http://www.w3.org/2000/svg"><path d="m113.42 28.7v-18.28c-7.74 1.99-26.79 6.22-49.43 6.22s-41.69-4.23-49.42-6.22v18.28c4.52 1.05 10.58 2.28 17.74 3.33v67.09c-7.16 1.05-13.22 2.28-17.74 3.33v18.29c7.73-1.99 26.78-6.23 49.42-6.23s41.7 4.24 49.43 6.22v-18.28c-4.53-1.04-10.57-2.28-17.74-3.33v-67.09c7.17-1.05 13.21-2.28 17.74-3.33zm-35.48 68.54c-4.45-.3-9.12-.47-13.94-.47s-9.48.18-13.93.47v-63.32c4.45.29 9.11.47 13.93.47 4.83 0 9.49-.18 13.94-.47z" fill="#fcc21b"/></svg>