<svg viewBox="0 0 128 128" xmlns="http://www.w3.org/2000/svg"><path d="m9.6 114.26 54.4-94.23 54.41 94.23z" fill="#fcc21b"/><g fill="#2f2f2f"><path d="m127.07 115.93-60.18-104.23c-.6-1.03-1.7-1.67-2.89-1.67s-2.29.64-2.88 1.67l-60.19 104.23c-.6 1.03-.6 2.3 0 3.34.6 1.03 1.7 1.66 2.89 1.66h120.36c1.19 0 2.29-.63 2.89-1.66.59-1.04.59-2.31 0-3.34zm-117.47-1.67 54.4-94.23 54.41 94.23z"/><path d="m59.12 83.21h9.76c.36 0 .65-.23.67-.53l2.66-38.27c.01-.16-.05-.3-.18-.42-.12-.11-.3-.18-.49-.18h-15.08c-.19 0-.37.07-.49.18-.12.12-.19.26-.18.42l2.67 38.27c.01.29.3.53.66.53z"/><path d="m56.11 103.32c0-1.41.2-2.6.61-3.57.4-.98.96-1.77 1.68-2.37s1.56-1.04 2.54-1.31c.97-.27 2.01-.41 3.12-.41 1.05 0 2.05.14 3 .41s1.78.71 2.49 1.31c.72.6 1.29 1.38 1.71 2.37.42.97.63 2.16.63 3.57 0 1.35-.21 2.51-.63 3.46-.42.96-.99 1.76-1.71 2.39-.71.63-1.54 1.09-2.49 1.37s-1.95.43-3 .43c-1.11 0-2.15-.14-3.12-.43-.98-.29-1.82-.74-2.54-1.37s-1.29-1.42-1.68-2.39c-.41-.96-.61-2.11-.61-3.46z"/></g></svg>