<svg viewBox="0 0 128 128" xmlns="http://www.w3.org/2000/svg"><g fill="#2f2f2f"><path d="m100.5 72.623c-.915 0-1.81-.413-2.4-1.185-1.034-1.328-.785-3.235.534-4.262l16.786-12.939c1.321-1.023 3.237-.78 4.256.547 1.027 1.328.771 3.235-.561 4.262l-16.766 12.939c-.544.431-1.199.638-1.849.638z"/><path d="m107.934 66.88c-1.478 0-2.779-1.077-3.003-2.575l-1.434-9.395c-.253-1.661.886-3.213 2.553-3.464 1.664-.242 3.198.888 3.457 2.548l1.425 9.395c.26 1.655-.88 3.203-2.544 3.454-.149.028-.306.037-.454.037z"/><path d="m26.876 71.977c-.723 0-1.44-.251-2.024-.772l-16.664-14.904c-1.261-1.122-1.357-3.038-.243-4.289 1.118-1.248 3.044-1.355 4.289-.238l16.666 14.904c1.243 1.117 1.35 3.037.227 4.284-.593.674-1.417 1.015-2.251 1.015z"/><path d="m19.796 65.642c-.264 0-.549-.036-.807-.107-1.625-.449-2.568-2.118-2.123-3.733l2.508-9.135c.449-1.615 2.118-2.575 3.732-2.122 1.629.444 2.564 2.113 2.116 3.733l-2.505 9.135c-.372 1.349-1.593 2.229-2.921 2.229z"/></g><path d="m101.316 66.305c-.608-.87-1.245-1.713-1.911-2.543-2.154-2.661-4.612-5.065-7.327-7.133 4.74-5.837 7.587-13.159 7.587-21.127 0-19.055-16.111-34.502-36.002-34.502-19.886 0-36.001 15.447-36.001 34.501 0 7.672 2.642 14.733 7.07 20.458-.157.143-.321.292-.516.448-2.833 2.109-5.379 4.604-7.611 7.354-.66.83-1.301 1.674-1.909 2.543-17.049 24.417-2.06 55.957 29.444 60.166 2.836.377 5.829.619 8.861.708 3.042-.089 6.03-.332 8.879-.708 31.491-4.209 46.494-35.749 29.436-60.165z" fill="#fff"/><path d="m63.663 8.286c15.835 0 28.72 12.212 28.72 27.215 0 6.012-2.063 11.732-5.971 16.537-1.241 1.525-1.804 3.5-1.566 5.456.229 1.965 1.24 3.742 2.827 4.935 2.22 1.696 4.267 3.679 6.061 5.922.552.665 1.077 1.374 1.608 2.127 6.342 9.072 7.562 19.759 3.367 29.306-4.607 10.476-15 17.749-27.803 19.463-2.505.336-5.154.552-7.905.646-2.732-.094-5.395-.31-7.892-.646-12.812-1.714-23.205-8.987-27.803-19.463-4.2-9.547-2.977-20.234 3.345-29.288.547-.771 1.077-1.48 1.626-2.154 1.897-2.342 4.011-4.388 6.342-6.128.449-.341.854-.7 1.254-1.099 2.593-2.589 2.858-6.708.624-9.606-3.629-4.702-5.55-10.238-5.55-16.007 0-15.004 12.881-27.216 28.716-27.216m0-7.286c-19.886 0-36.001 15.447-36.001 34.501 0 7.672 2.642 14.733 7.07 20.458-.157.143-.321.292-.516.448-2.833 2.109-5.379 4.604-7.611 7.354-.66.83-1.301 1.674-1.909 2.543-17.049 24.417-2.06 55.957 29.444 60.166 2.836.377 5.829.619 8.861.708 3.042-.089 6.03-.332 8.879-.708 31.49-4.208 46.494-35.749 29.436-60.165-.608-.87-1.245-1.713-1.911-2.543-2.154-2.661-4.612-5.065-7.327-7.133 4.74-5.837 7.587-13.159 7.587-21.127 0-19.055-16.111-34.502-36.002-34.502z" fill="#37b4e2"/><g fill="#2f2f2f"><path d="m55.886 36.066c-.094 3.176-2.344 5.653-4.966 5.563-2.645-.107-4.711-2.745-4.59-5.922.112-3.158 2.333-5.653 4.98-5.554 2.642.09 4.69 2.746 4.576 5.913z"/><path d="m70.067 36.066c.099 3.176 2.338 5.653 4.967 5.563 2.636-.107 4.708-2.745 4.587-5.922-.105-3.158-2.34-5.653-4.986-5.554-2.636.09-4.688 2.746-4.568 5.913z"/><path d="m69.162 50.076c-.512.24-1.025.424-1.404.556-2.338.81-4.805.713-7.21.321-.837-.137-1.723-.332-2.515-.628-1.2-.451-3.141-.857-3.551-2.371-.215-.794.171-1.911.727-2.497.799-.855 1.643-.354 2.526.087 1.01.506 2.026.895 3.163 1.063 1.4.207 2.737.404 4.159.074 1.068-.249 1.963-.545 2.938-1.079.599-.33.92-.648 1.595-.312.625.31 1.025 1.052 1.371 1.618 1.007 1.669-.472 2.555-1.799 3.168z"/></g></svg>