<svg viewBox="0 0 128 128" xmlns="http://www.w3.org/2000/svg" xmlns:xlink="http://www.w3.org/1999/xlink"><defs><path id="a" d="m70.73 84.91c0-3.66-2.96-6.63-6.61-6.63s-6.6 2.97-6.6 6.63v9.34h13.23v-9.34z"/><clipPath id="b"><use xlink:href="#a"/></clipPath></defs><path d="m48.33 125.24h-24.3v-35.05l24.3-12.25z" fill="#fff"/><path d="m48.33 128h-24.3c-1.52 0-2.76-1.24-2.76-2.76v-35.05c0-1.04.59-2 1.52-2.47l24.3-12.24c.86-.43 1.88-.39 2.69.12.82.5 1.32 1.39 1.32 2.35v47.3c-.01 1.51-1.25 2.75-2.77 2.75zm-21.54-5.52h18.78v-40.05l-18.78 9.46z" fill="#855c52"/><path d="m79.67 125.24h24.3v-35.05l-24.3-12.25z" fill="#fff"/><path d="m103.97 128h-24.3c-1.52 0-2.76-1.24-2.76-2.76v-47.3c0-.96.5-1.85 1.32-2.35.8-.5 1.83-.55 2.69-.12l24.3 12.24c.93.47 1.52 1.42 1.52 2.47v35.05c-.01 1.53-1.25 2.77-2.77 2.77zm-21.54-5.52h18.78v-30.59l-18.78-9.46z" fill="#855c52"/><path d="m48.33 67.04h31.34v58.21h-31.34z" fill="#fff"/><path d="m79.67 128h-31.34c-1.52 0-2.76-1.24-2.76-2.76v-58.2c0-1.52 1.24-2.76 2.76-2.76h31.34c1.52 0 2.76 1.23 2.76 2.76v58.21c0 1.51-1.24 2.75-2.76 2.75zm-28.58-5.52h25.81v-52.69h-25.81z" fill="#855c52"/><use fill="#40c0e7" xlink:href="#a"/><path clip-path="url(#b)" d="m70.75 84.92h-4.99v-6.64c0-.9-.73-1.62-1.62-1.62-.9 0-1.62.73-1.62 1.62v6.64h-4.99c-.9 0-1.63.73-1.63 1.62 0 .9.73 1.62 1.63 1.62h4.99v6.08c0 .9.73 1.62 1.62 1.62.9 0 1.62-.73 1.62-1.62v-6.08h4.99c.89 0 1.62-.73 1.62-1.62s-.73-1.62-1.62-1.62z" fill="#fff"/><g fill="#855c52"><path d="m70.73 111.46c0-3.66-2.96-6.63-6.61-6.63s-6.6 2.97-6.6 6.63v11.12h13.23v-11.12z"/><path d="m79.67 67.04h-31.34l15.67-34.19z"/><path d="m17.17 88.08v5.57l31.16-15.7v-6.3z"/><path d="m17.17 96.41c-.5 0-1.01-.14-1.45-.41-.81-.5-1.31-1.39-1.31-2.35v-5.57c0-1.02.57-1.96 1.48-2.44l31.15-16.44c.86-.45 1.89-.42 2.71.08.83.5 1.34 1.4 1.34 2.36v6.3c0 1.04-.59 2-1.52 2.46l-31.16 15.7c-.4.21-.82.31-1.24.31z"/><path d="m110.83 88.08v5.57l-31.16-15.7v-6.3z"/><path d="m110.83 96.41c-.42 0-.85-.1-1.24-.29l-31.17-15.7c-.93-.47-1.52-1.42-1.52-2.46v-6.3c0-.97.51-1.86 1.34-2.36.82-.5 1.86-.53 2.71-.08l31.17 16.43c.91.48 1.48 1.42 1.48 2.44v5.57c0 .96-.5 1.85-1.32 2.35-.44.26-.94.4-1.45.4z"/><path d="m79.67 67.04h-31.34l15.67-34.19z"/><path d="m79.76 69.79c-.02 0-.05 0-.09 0h-31.34c-.94 0-1.81-.48-2.32-1.27s-.58-1.79-.19-2.64l15.67-34.18c.9-1.96 4.12-1.96 5.01 0l15.41 33.62c.37.47.6 1.07.6 1.71.01 1.53-1.23 2.76-2.75 2.76zm-27.13-5.51h22.74l-11.37-24.81z"/><path d="m59.9.85h8.19v34.4h-8.19z"/><path d="m51.42 8.29h25.17v8.19h-25.17z"/></g><g fill="#b89278"><path d="m55.5 58.02-2.87 6.26h8.24l.01-6.24z"/><path d="m59.31 49.7-2.96 6.25h9.93v-6.24z"/><path d="m63.03 41.38-2.96 6.25h4.58l.01-6.24z"/><path d="m63.24 58.04h7.97v6.24h-7.97z"/></g></svg>