<svg xmlns="http://www.w3.org/2000/svg" viewBox="0 0 128 128"><path fill="#94D1E0" d="m61.92 30.93 21.27 3.77.39-11.71-21.21-4.55Z"/><path fill="#2F7889" d="m112.16 50.26.3-12.16-55.59-9.66-2.47 55.12 64.47 5.64 1.27-37.88-7.98-1.06Z"/><path fill="#94D1E0" d="m112.16 49.71.3-12.16-55.59-9.66-1.67 45.04 64.03 6.03.91-28.17-7.98-1.08ZM63.12 68.87l-4.48-.45.34-6.73 4.47.53-.33 6.65Zm.62-12.67-4.46-.53.38-7.45 4.45.64-.37 7.34Zm.66-13.37-4.44-.64.38-7.57 4.42.78-.36 7.43Zm6.17 26.78-4.46-.44.32-6.59 4.43.52-.29 6.51Zm.58-12.54-4.41-.52.36-7.26 4.38.63-.33 7.15Zm.6-13.18-4.36-.63.36-7.35 4.33.76-.33 7.22Zm6.27 26.47-4.45-.44.3-6.46 4.43.52-.28 6.38Zm.53-12.41-4.41-.52.32-7.07 4.38.63-.29 6.96Zm.55-13-4.36-.63.33-7.12 4.33.76-.3 6.99Zm6.38 26.15-4.45-.44.27-6.33 4.43.52-.25 6.25Zm.48-12.28-4.41-.52.29-6.88 4.38.63-.26 6.77Zm.5-12.81-4.36-.63.29-6.9 4.33.76-.26 6.77Zm6.49 25.84-4.47-.45.24-6.19 4.45.53-.22 6.11Zm.44-12.15-4.44-.52.26-6.69 4.42.64-.24 6.57Zm.47-12.62-4.41-.64.26-6.68 4.39.77-.24 6.55Zm6.54 25.51-4.45-.44.22-6.06 4.43.52-.2 5.98Zm.4-12.01-4.41-.52.24-6.5 4.38.63-.21 6.39Zm.41-12.44-4.36-.63.24-6.45 4.33.76-.21 6.32Zm6.64 25.19-4.45-.44.2-5.92 4.43.52-.18 5.84Zm.35-11.88-4.41-.52.21-6.31 4.38.63-.18 6.2Zm.37-12.25-4.36-.63.21-6.23 4.34.76-.19 6.1Zm6.73 24.88-4.45-.44.17-5.79 4.43.52-.15 5.71Zm.31-11.75-4.41-.52.18-6.12 4.38.63-.15 6.01Z"/><path fill="#DFECF5" d="m62.37 18.44-14.68.91.01 8.87-8.4.08-1.04 14.3-5.38.04-15.23 40.18 37.01 1.16L57.49 28l4.76.77Z"/><path fill="#82AEC0" d="m30.94 57.34 21.46.31V47.36H34.81ZM22.82 81.37l29.58 1.65-2.89-21.88-17.81-.17Z"/><path fill="#2F7889" d="m49.51 61.14-17.74-.33-2.23 5.13 12.38 16.5 10.48.58ZM34.81 47.36l17.59 6.09v-6.09Z"/><path fill="#82AEC0" d="m53.803 76.553 7.907.66 12.531 1.141 47.077 4.14q2.518.24 2.309 2.749l-.3 3.708-1.994-.162.3-3.712q.045-.54-.491-.591l-47.083-4.14-12.515-1.139-7.907-.66Z"/><path fill="#94D1E0" d="M7.23 80.85v-4.57q0-1.035.757-1.743.753-.704 1.774-.636 24.258.771 45.513 2.773.498.047.723.32.225.272.179.77-.094.995-1.09.902-21.201-1.998-45.408-2.767h-.021l-.022-.002q-.161-.012-.282.101-.123.115-.123.282v4.57q0 1-1 1t-1-1Z"/><path fill="#82AEC0" d="m46.38 33.99-4.08.12-.58 7.57 4.11-.08ZM48.98 33.92l-.55 7.72 4.48-.09.49-7.76Z"/><path fill="#2167A1" d="m84.06 24.31-21.7-4.66-15.67.83c-.65.03-1.2-.49-1.2-1.14v-.61c0-.6.47-1.1 1.07-1.14l16.03-.98 21.97 4.72c.52.11.88.58.86 1.11l-.04.85c-.04.68-.66 1.16-1.32 1.02Z"/><path fill="#82AEC0" d="m53.99 22.33-3.07.14v4.01l3-.05ZM55.99 22.33l-.06 4.06 3.44-.05v-4.01Z"/><path fill="#2F7889" d="m77.32 24.92-.08 4.53 3.98.82v-4.55Z"/><path fill="#82AEC0" d="M67.62 78.64v5.33h-2v-5.33h2ZM87.38 80.41v4.73h-2v-4.73h2ZM105.29 82v5.26h-2V82h2Z"/><path fill="#94D1E0" d="M30.7 81.14v-5.21h2v5.21h-2Z"/><path fill="#2F7889" d="m69.16 23.24-4.39-.91v4.55l4.3.88ZM71.11 23.64l-.09 4.53 4.27.88.08-4.53Z"/><path fill="#2167A1" d="M5.92 80.41s-2.13-.1-1.93 2c0 0 .27 16.44 4.24 26.01C12.89 119.65 21.62 124 30.06 124h82.95c3.27 0 5.45-2.79 8.1-9.42 1.72-4.31 2.61-19.52 2.87-24.39.04-.78-.55-1.45-1.33-1.51-.01 0-73.03-8.37-116.73-8.27Z"/><path fill="#DFECF5" d="m21.9 56.1 38.14.46s-.26 4.82-4.5 4.82-29.69-.67-29.69-.67c-3.95-.5-3.95-4.61-3.95-4.61Z"/><path fill="#94D1E0" d="M116.78 63.28v4.9c.87.09 1.57.16 2.02.19 4.22.36 4.89-4.42 4.89-4.42l-6.91-.67Z"/></svg>