<svg viewBox="0 0 128 128" xmlns="http://www.w3.org/2000/svg"><path d="m66.81 6.77c1.22.13 2.39.52 3.68.73 6.65 1.11 33.27 4.9 34.88 5.53.71.28 1.69.75 1.9 1.56.33 1.22-1.21 1.77-2.07 2.2-3.64 1.84-31.12 10.99-35.07 12.29-1.28.42-2.38 1.04-3.74 1.09-1.26.05-2.7.85-3.86.05-1.11-.77-1.18-1.84-1.18-3.08 0-1.29-.22-2.62-.34-3.89s0-2.61 0-3.89c0-1.39.17-2.69.17-4.09 0-1.53.03-3.02.17-4.53.1-1.06.31-2.31.89-3.16.46-.68.98-1.19 1.81-1.34 1.01-.19 1.78.42 2.76.53z" fill="#ed6c30"/><path d="m64 37.97c-1.87 0-3.39-1.52-3.39-3.39v-26.68c0-1.87 1.52-3.39 3.39-3.39 1.88 0 3.4 1.52 3.4 3.39v26.67c-.01 1.88-1.52 3.4-3.4 3.4z" fill="#2f2f2f"/><path d="m7.2 95.79 51.81 20.91 61.79-20.91s-14.87-57.13-59.25-58.15c0 0-34.23-4.08-54.35 58.15z" fill="#fcc21b"/><g fill="#2f2f2f"><path d="m14.65 100.78s10.88-40.25 26.88-34.58c13.65 4.84 3.4 47.23 3.4 47.23z"/><path d="m60.25 37.58c.84 0 1.3.06 1.3.06 44.38 1.02 59.25 58.15 59.25 58.15l-61.79 20.91-51.81-20.91c17.79-55.02 46.61-58.21 53.05-58.21m0-6.78c-9.19 0-40.63 4.54-59.51 62.9-1.1 3.39.61 7.05 3.91 8.38l51.81 20.92c.81.33 1.67.49 2.54.49.73 0 1.47-.12 2.17-.36l61.8-20.91c3.37-1.14 5.29-4.69 4.39-8.14-.65-2.53-16.66-61.9-65.41-63.22-.37-.03-.95-.06-1.7-.06z"/><path d="m59.01 120.1c-1.87 0-3.39-1.52-3.39-3.38-.17-58.82 4.89-78.99 5.11-79.81.47-1.81 2.32-2.91 4.13-2.43 1.82.47 2.9 2.32 2.43 4.14-.05.19-5.06 20.43-4.89 78.09 0 1.86-1.51 3.38-3.39 3.39z"/></g></svg>