<svg viewBox="0 0 128 128" xmlns="http://www.w3.org/2000/svg" xmlns:xlink="http://www.w3.org/1999/xlink"><defs><path id="a" d="m45.32 74.958s-1.915-9.322-2.875-25.37c-.633-10.631-.058-18.817 1.012-24.57 1.866-9.99 3.499-16.565 8.818-18.578 1.893-.716 4.011.164 5.289 1.857 1.777 2.357 3.476 6.412 4.351 8.504 1.636 3.9 3.67 9.021 5.404 14.125 4.148 12.206 6.545 19.979 6.545 19.979s.814 2.99-10.875 13.555c-11.686 10.565-17.669 10.498-17.669 10.498z"/><clipPath id="b"><use xlink:href="#a"/></clipPath><clipPath id="c"><use xlink:href="#f"/></clipPath><clipPath id="d"><use xlink:href="#g"/></clipPath><clipPath id="e"><use xlink:href="#h"/></clipPath><path id="f" d="m119.741 53.374s-16.327 1.977-38.058-1.773c-15.301-2.641-35.112-11.503-45.823-11.163-14.965.474-22.323 11.719-22.323 11.719s-12.073 1.128-12.537 9.552c-.632 11.277 24.605 18.406 65.387 13.851 40.786-4.555 54.15-14.788 54.15-14.788s5.104-3.582-.796-7.398z"/><path id="g" d="m18.295 40.682c-.186.155-.172.972-.195 1.172-.062 1.07.071 2.14.345 3.166 1.105 4.122 3.148 6.267 7.748 9.724 1.592 1.194 1.795.982 2.459 1.637.394.402 1.092.968.468 1.888-.521.765-1.101 1.513-1.746 2.18-.571.597-1.204 1.402-2.119 1.38-.305-.013-.614-.084-.911-.173-.707-.212-1.38-.579-2.007-.964-1.141-.694-2.176-1.53-3.242-2.326-2.499-1.849-4.709-4.246-5.992-7.08-.765-1.729-1.079-3.644-.915-5.52z"/><path id="h" d="m50.352 69.228s4.369 9.083 13.528 23.252c6.067 9.384 11.489 15.933 15.77 20.125 7.429 7.274 12.604 11.812 17.574 10.167 1.76-.583 2.715-2.653 2.573-4.891-.199-3.104-1.49-7.602-2.158-9.924-1.243-4.32-2.95-9.928-4.86-15.332-4.568-12.917-7.65-20.993-7.65-20.993s-1.256-3.042-15.934-4.63c-14.682-1.586-18.843 2.226-18.843 2.226z"/></defs><use fill="#fbb817" xlink:href="#a"/><path clip-path="url(#b)" d="m50.392 75.918s-2.725-13.465-3.732-29.509c-.672-10.623-.115-18.803.938-24.557 1.831-9.999 3.44-16.575 8.76-18.6 1.889-.716 4.011.155 5.293 1.844 1.787 2.353 3.498 6.403 4.382 8.495 1.646 3.891 3.702 9.003 5.448 14.102 4.188 12.192 7.389 24.106 7.389 24.106s.823 2.985-10.834 13.576-17.644 10.543-17.644 10.543z" fill="#f48120"/><use fill="#f48120" xlink:href="#f"/><path clip-path="url(#c)" d="m7.408 66.543c1.99-6.611 14.217-8.827 14.217-8.827s4.493-10.865 23.292-11.051c10.096-.097 25.976 7.323 40.172 9.601 15.5 2.489 29.231-.071 37.395 1.826.336-1.318-.071-2.994-2.742-4.719 0 0-16.863.962-36.484-2.665-16.645-3.078-36.358-12.071-48.483-11.448-14.956.77-21.818 11.852-21.818 11.852s-15.669.99-13.065 12.93c.801 3.662 4.482 6.534 10.682 9.015-3.962-2.843-3.577-5.152-3.166-6.514z" fill="#fbb817"/><g clip-path="url(#c)"><use fill="#005792" xlink:href="#g"/><path clip-path="url(#d)" d="m24.703 53.59-5.607 4.776s-7.42-3.348-6.917-7.646l8.34-6.063z" fill="#37b4e2"/></g><path clip-path="url(#c)" d="m34.441 57.283c1.127-.406 2.883-.142 3.436 1.07.137.314.195.778.155 1.154-.04.739-.491 1.473-.809 2.096-.486 1.021-1.154 2.207-2.362 2.472-1.097.257-2.998-.137-3.348-1.393-.177-.637-.15-1.446.146-2.03.416-.84.818-1.76 1.45-2.467.386-.42.841-.716 1.332-.902z" fill="#005792"/><path clip-path="url(#c)" d="m42.547 58.123c1.079-.42 2.737-.229 3.21.906.128.31.155.739.119 1.088-.141 1.539-1.521 4.011-3.131 4.431-1.145.305-2.401.238-2.812-.934-.469-1.34.429-3.586 1.34-4.599.372-.414.818-.706 1.274-.892z" fill="#005792"/><path d="m101.234 54.121s18.224-13.612 22.054-15.288c2.203-.969 5.74-.995 3.494 3.98-1.389 3.073-6.603 12.29-6.603 12.29z" fill="#f48120"/><use fill="#fbb817" xlink:href="#h"/><g fill="#f48120"><path clip-path="url(#e)" d="m53.328 65.23s6.333 13.089 15.456 27.285c6.041 9.401 11.441 15.968 15.708 20.174 7.412 7.297 12.572 11.843 17.548 10.215 1.764-.575 2.724-2.649 2.586-4.886-.186-3.104-1.468-7.602-2.127-9.928-1.233-4.325-2.923-9.937-4.816-15.345-4.532-12.931-9.587-25.013-9.587-25.013s-1.247-3.042-15.92-4.674c-14.682-1.632-18.848 2.172-18.848 2.172z"/><path d="m119.472 58.198s5.223 8.831 6.479 11.082c1.159 2.079 1.176 3.396-.372 3.653-2.803.459-8.066-2.773-11.746-5.25-8.066-5.43-8.574-8.995-8.574-8.995z"/></g></svg>