<svg viewBox="0 0 128 128" xmlns="http://www.w3.org/2000/svg"><g fill="#fff"><path d="m50.78 10.37c3.93-1.09 8.79 1.21 9.48 6.38.59 4.47 4.32 28.74 5.49 36.75-.58.03-1.17.07-1.75.1-3.26.16-6.5.63-9.66 1.42-2.79-9.44-8.34-32.65-8.57-35.3-.28-3.02.81-8.18 5.01-9.35z"/><path d="m30.47 19.9c3.91-1.18 8.6.12 9.93 5.17.99 3.71 5.57 20.23 8.89 31.49-2.8 1.03-5.51 2.3-8.09 3.8-1.07.62-2.14 1.27-3.19 1.96-2.47-6.73-11.2-30.56-11.62-32.48-.64-2.96.02-8.72 4.08-9.94z"/><path d="m116.02 76.89c-1.68 1.94-6.6 8.05-11.54 14.2-.86 1.06-7.32 8.1-7.63 8.56-2 2.91-4.22 5.71-6.67 8.26-10.73 11.15-27.36 10.63-39.75 6.97-8.3-2.45-17.42-10.27-21.39-25.58-2.59-9.95-5.76-16.12-5.76-16.12-4.37-8.53-12.04-25.04-12.8-27.28-.97-2.88-1.28-8.2 2.73-10.29 3.63-1.87 8.79-.86 10.67 3.99 1.11 2.88 5.54 14.6 10.25 25.73-1.09 1.04-4.41 4.45-1.95 5.21.88.27 1.91-.55 2.64-.96 1.12-.61 2.26-1.2 3.4-1.77 3.34-1.66 6.77-3.07 10.3-4.28 3.81-1.32 7.7-2.43 11.62-3.37 4.08-.98 8.07-1.68 12.23-2.04.86-.08 3.37-.33 3.63-1.38.13-.53-.21-.96-.73-1.31-.97-.64-2.61-1-3.17-1.16-.48-.13-.98-.22-1.47-.31-1.28-9.81-3.3-33.57-3.17-36.19.15-3.03 1.5-8.44 6.54-8.6 4.08-.13 7.94 1.71 8.24 7.63.25 5.03.97 31.65.97 35.23.04 2.25.14 8.33.19 8.62.62 3.94 1.05 7.92 1.27 11.9.09 1.67.39 3.38.06 5.04-.44 2.26-2.99 1.69-4.76 2.15-1.65.43-3.23 1.05-4.74 1.83-.97.5-3.66 1.73-2.48 3.31.97 1.3 2.59.66 3.77.14 6.88-2.95 10.87 2.43 17.02-4.65 4.6-6.18 8.95-11.82 9.95-12.87 2.19-2.34 7.98-5.27 11.56-2.1 3.23 2.87 4.58 7.32.97 11.49z"/></g><path d="m120.9 58.79c-2.44-2.16-5.48-3.4-8.8-3.59-6-.34-11.88 2.88-15.04 6.25-.59.62-1.68 1.96-2.95 3.58-1.4 1.79-1.34-1.38-1.93-5.27-.05-1.48-.13-6.01-.16-7.73 0-3.7-.71-30.32-.98-35.67-.36-7.19-4.11-12.63-10.27-14.91-2.16-.8-4.54-1.17-7.06-1.09-4.12.14-7.71 1.88-10.34 4.76-3.93-3.29-9.84-4.67-14.97-3.24-5.05 1.41-8.41 5.16-10.13 9.56-3.27-1.03-6.91-1.03-10.34.01-6.53 1.98-10.01 8.13-10.52 14.46-2.84-.1-5.68.54-8.27 1.87-8.22 4.28-9.41 13.86-7.01 20.95 1.08 3.2 9.3 20.66 13.28 28.45.03.04 2.79 5.59 5.09 14.35.92 3.52 3.03 15.62 14.6 25.06 11.95 9.75 29.75 13.69 44.07 9.24 4.62-1.44 8.98-4.61 12.79-7.61 1.18-.92 2.28-1.94 3.35-2.97 3.55-3.43 12.6-14.14 14.38-16.08 5.49-6.01 11.65-14.93 13.01-16.51 6.32-7.3 5.57-17.35-1.8-23.87zm-70.12-48.42c3.93-1.09 8.79 1.21 9.48 6.38.59 4.47 4.32 28.74 5.49 36.75-.58.03-1.17.07-1.75.1-3.26.16-6.5.63-9.66 1.42-2.79-9.44-8.34-32.65-8.57-35.3-.28-3.02.81-8.18 5.01-9.35zm-20.31 9.53c3.91-1.18 8.6.12 9.93 5.17.99 3.71 5.57 20.23 8.89 31.49-2.8 1.03-5.51 2.3-8.09 3.8-1.07.62-2.14 1.27-3.19 1.96-2.47-6.73-11.2-30.56-11.62-32.48-.64-2.96.02-8.72 4.08-9.94zm85.55 56.99c-1.68 1.94-6.6 8.05-11.54 14.2-.86 1.06-7.32 8.1-7.63 8.56-2 2.91-4.22 5.71-6.67 8.26-10.73 11.15-27.36 10.63-39.75 6.97-8.3-2.45-17.42-10.27-21.39-25.58-2.59-9.95-5.76-16.12-5.76-16.12-4.37-8.53-12.04-25.04-12.8-27.28-.97-2.88-1.28-8.2 2.73-10.29 3.63-1.87 8.79-.86 10.67 3.99 1.11 2.88 5.54 14.6 10.25 25.73-1.09 1.04-4.41 4.45-1.95 5.21.88.27 1.91-.55 2.64-.96 1.12-.61 2.26-1.2 3.4-1.77 3.34-1.66 6.77-3.07 10.3-4.28 3.81-1.32 7.7-2.43 11.62-3.37 4.08-.98 8.07-1.68 12.23-2.04.86-.08 3.37-.33 3.63-1.38.13-.53-.21-.96-.73-1.31-.97-.64-2.61-1-3.17-1.16-.48-.13-.98-.22-1.47-.31-1.28-9.81-3.3-33.57-3.17-36.19.15-3.03 1.5-8.44 6.54-8.6 4.08-.13 7.94 1.71 8.24 7.63.25 5.03.97 31.65.97 35.23.04 2.25.14 8.33.19 8.62.62 3.94 1.05 7.92 1.27 11.9.09 1.67.39 3.38.06 5.04-.44 2.26-2.99 1.69-4.76 2.15-1.65.43-3.23 1.05-4.74 1.83-.97.5-3.66 1.73-2.48 3.31.97 1.3 2.59.66 3.77.14 6.88-2.95 10.87 2.43 17.02-4.65 4.6-6.18 8.95-11.82 9.95-12.87 2.19-2.34 7.98-5.27 11.56-2.1 3.23 2.87 4.58 7.32.97 11.49z" fill="#d7598b"/></svg>