<svg viewBox="0 0 128 128" xmlns="http://www.w3.org/2000/svg" xmlns:xlink="http://www.w3.org/1999/xlink"><defs><path id="a" d="m65 63.36c7.43 7.34 14.65 12.07 16.12 10.58l28.34-28.71c12.36-12.52 23.55-30.36 13.34-40.44-10.21-10.07-27.66 1.1-40.26 13.87l-28.34 28.72c-1.47 1.49 3.37 8.65 10.8 15.98z"/><clipPath id="b"><use xlink:href="#a"/></clipPath></defs><path d="m3.3 113.79c-.46 4.09-2.06 11.56-2.07 11.63-.2.93.73 1.86 1.66 1.66.07-.01 7.54-1.61 11.63-2.07 7.32-.83 21.08-4.28 26.24-11.96 3.73-5.56 4.17-8.83 4.52-11.45.29-2.23.5-3.84 2.64-6.42.46-.55.43-1.37-.08-1.88l-12.82-12.83c-.51-.51-1.32-.55-1.88-.09-2.58 2.14-4.19 2.36-6.42 2.65-2.63.34-5.9.78-11.45 4.52-7.68 5.15-11.13 18.92-11.97 26.24z" fill="#fcc21b"/><g fill="#2f2f2f"><path d="m33.59 86.21 8.51 8.52c-1.34 2.4-1.6 4.4-1.84 6.21-.31 2.31-.63 4.71-3.7 9.29-3.84 5.7-15.62 8.96-22.6 9.75-1.9.21-4.42.65-6.69 1.08.43-2.27.86-4.79 1.07-6.68.8-6.99 4.05-18.79 9.75-22.62 4.58-3.08 6.97-3.4 9.29-3.7 1.82-.25 3.82-.52 6.21-1.85m.44-6.15c-.32 0-.64.11-.9.32-2.58 2.14-4.19 2.36-6.42 2.65-2.63.34-5.9.78-11.45 4.52-7.67 5.15-11.12 18.92-11.96 26.24-.46 4.09-2.06 11.56-2.07 11.63-.19.84.57 1.69 1.41 1.69.09 0 .17-.01.25-.03.07-.01 7.54-1.61 11.63-2.07 7.32-.83 21.08-4.28 26.24-11.96 3.73-5.56 4.17-8.83 4.52-11.45.29-2.23.5-3.84 2.64-6.42.46-.55.43-1.37-.08-1.88l-12.82-12.83c-.27-.27-.63-.41-.99-.41z"/><path d="m20.5 100.34c2.06-2.06 5.42-2.06 7.48-.01 2.07 2.07 2.07 5.42 0 7.48-2.06 2.06-5.41 2.06-7.48 0-2.06-2.06-2.06-5.41 0-7.47z"/><path d="m20.66 105.01-19.16 19.16c-.16.76-.26 1.24-.26 1.26-.2.93.73 1.86 1.66 1.66.01 0 .49-.1 1.26-.26l19.16-19.17z"/><path d="m60.32 44.13 23.96 23.66-32.46 33.49s-8.56-4.02-15.53-10.81-8.77-13.49-8.77-13.49z"/><use xlink:href="#a"/></g><g clip-path="url(#b)"><path d="m84.11 59.87 32.84-33.28c3.83 2.82 6.79 4.19 7.67 3.29l4.41-4.48c-1.02 1.03-4.82-.95-9.53-4.71l-2.62-2.19c-1.29-1.13-2.62-2.37-3.97-3.69-7.43-7.34-12.27-14.5-10.81-15.99l-4.4 4.48c-1.46 1.48 3.38 8.64 10.8 15.97.55.54 1.1 1.07 1.64 1.58l-32.83 33.29c-.55-.52-1.1-1.04-1.65-1.58-7.43-7.33-12.28-14.5-10.8-15.98l-4.41 4.47c-1.48 1.5 3.37 8.65 10.79 15.98.55.54 1.1 1.08 1.65 1.58l-5.62 5.69 6.82 5.71 5.6-5.68c3.83 2.81 6.79 4.17 7.67 3.28l4.42-4.47c-.87.9-3.84-.46-7.67-3.27z" fill="#fcc21b"/></g></svg>