<svg viewBox="0 0 128 128" xmlns="http://www.w3.org/2000/svg"><path d="m105.72 16.06c-3.08-3.09-8.13-3.08-11.21 0l-24.91 24.91c-3.08 3.08-8.13 3.08-11.21 0l-24.91-24.9c-3.08-3.08-8.12-3.08-11.21 0l-6.21 6.21c-3.08 3.09-3.08 8.13 0 11.21l24.91 24.91c3.08 3.08 3.08 8.13 0 11.21l-24.91 24.9c-3.08 3.08-3.08 8.12 0 11.21l6.22 6.22c3.08 3.08 8.13 3.08 11.21 0l24.91-24.91c3.08-3.08 8.13-3.08 11.21 0l24.91 24.91c3.08 3.08 8.13 3.08 11.21 0l6.21-6.22c3.08-3.09 3.08-8.13 0-11.21l-24.91-24.9c-3.08-3.08-3.08-8.13 0-11.21l24.91-24.91c3.08-3.08 3.08-8.12 0-11.21z" fill="#757f3f"/></svg>