<svg viewBox="0 0 128 128" xmlns="http://www.w3.org/2000/svg"><g fill="#fcc21b"><path d="m19.42 44.8c11.92-8.43 19.3-18.14 23.34-24.64 4.04 6.5 11.42 16.21 23.34 24.64-11.91 8.43-19.3 18.13-23.34 24.63-4.03-6.49-11.42-16.2-23.34-24.63z"/><path d="m96.2 81.84c-2.5-3.16-6.54-7.36-12.52-11.23 5.98-3.87 10.01-8.07 12.52-11.23 2.5 3.16 6.54 7.36 12.51 11.23-5.97 3.87-10 8.07-12.51 11.23z"/><path d="m63.71 110.4c-2.08-3.05-5.18-6.82-9.56-10.3 4.38-3.49 7.48-7.25 9.56-10.31 2.08 3.05 5.18 6.82 9.56 10.31-4.38 3.48-7.48 7.25-9.56 10.3z"/></g><g fill="#f79329"><path d="m46.7 80.07c.08-.19 8.09-18.86 29.4-31.61l6.12-3.66-6.12-3.67c-21.31-12.74-29.32-31.41-29.39-31.59l-3.92-9.46-3.96 9.45c-.08.19-8.09 18.86-29.4 31.61l-6.13 3.66 6.12 3.66c21.31 12.75 29.32 31.42 29.4 31.61l3.92 9.44zm-27.28-35.27c11.92-8.43 19.3-18.14 23.34-24.64 4.04 6.5 11.42 16.21 23.34 24.64-11.91 8.43-19.3 18.13-23.34 24.63-4.03-6.49-11.42-16.2-23.34-24.63z"/><path d="m117.92 67.26c-13.32-6.58-18.34-16.13-18.38-16.21l-3.31-6.56-3.36 6.55c-.05.09-5.07 9.64-18.4 16.23l-6.78 3.35 6.78 3.35c13.29 6.57 18.32 16.08 18.39 16.23l3.3 6.55 3.36-6.55c.05-.09 5.07-9.64 18.39-16.23l6.78-3.35zm-21.72 14.58c-2.5-3.16-6.54-7.36-12.52-11.23 5.98-3.87 10.01-8.07 12.52-11.23 2.5 3.16 6.54 7.36 12.51 11.23-5.97 3.87-10 8.07-12.51 11.23z"/><path d="m67.18 80.82-3.43-8.54-3.49 8.53c-.04.09-4.03 9.61-14.54 16.11l-5.14 3.18 5.14 3.17c10.46 6.47 14.46 15.92 14.54 16.11l3.43 8.53 3.49-8.53c.04-.1 4.02-9.61 14.54-16.11l5.14-3.17-5.14-3.18c-10.52-6.5-14.51-16.01-14.54-16.1zm-3.47 29.58c-2.08-3.05-5.18-6.82-9.56-10.3 4.38-3.49 7.48-7.25 9.56-10.31 2.08 3.05 5.18 6.82 9.56 10.31-4.38 3.48-7.48 7.25-9.56 10.3z"/></g></svg>