<svg viewBox="0 0 128 128" xmlns="http://www.w3.org/2000/svg"><path d="m126.01 59.7h-13.46l10.57-10.57c.26-.26.41-.62.41-.98 0-.37-.15-.73-.41-.99l-4.12-4.12c-.55-.54-1.43-.54-1.97 0l-16.65 16.66h-25.99l18.38-18.38h23.55c.77 0 1.39-.62 1.39-1.39v-5.83c0-.36-.14-.72-.41-.98-.26-.27-.61-.41-.98-.41h-14.95l9.52-9.51c.26-.26.41-.62.41-.98 0-.37-.15-.73-.41-.99l-4.12-4.12c-.54-.54-1.43-.54-1.97 0l-9.52 9.53v-14.96c0-.36-.14-.72-.41-.98-.26-.27-.61-.41-.98-.41h-5.82c-.77 0-1.39.62-1.39 1.39v23.55l-18.38 18.38v-25.99l16.66-16.65c.54-.55.54-1.42 0-1.97l-4.12-4.12c-.26-.26-.61-.41-.98-.41s-.73.15-.98.41l-10.58 10.57v-13.46c0-.77-.62-1.39-1.39-1.39h-5.82c-.77 0-1.39.62-1.39 1.39v13.46l-10.57-10.57c-.52-.53-1.45-.53-1.97 0l-4.12 4.12c-.54.55-.54 1.42 0 1.97l16.65 16.65v25.99l-18.37-18.38v-23.55c0-.77-.62-1.39-1.39-1.39h-5.83c-.37 0-.72.14-.98.41-.26.26-.41.61-.41.98v14.94l-9.51-9.52c-.54-.54-1.43-.54-1.97 0l-4.12 4.12c-.54.55-.54 1.43 0 1.97l9.52 9.51h-14.95c-.77 0-1.39.62-1.39 1.39v5.83c0 .37.14.72.41.98.26.27.62.41.98.41h23.55l18.38 18.39h-25.99l-16.65-16.66c-.54-.54-1.43-.54-1.97 0l-4.12 4.12c-.26.26-.41.61-.41.99 0 .36.14.72.41.98l10.57 10.57h-13.46c-.77 0-1.39.63-1.39 1.39v5.82c0 .77.62 1.39 1.39 1.39h13.46l-10.57 10.56c-.26.27-.41.61-.41.99 0 .36.14.72.41.98l4.12 4.12c.27.28.63.41.98.41s.71-.13.98-.41l16.66-16.65h25.99l-18.38 18.38h-23.55c-.77 0-1.39.62-1.39 1.39v5.82c0 .37.15.73.41.99s.61.4.98.4h14.95l-9.52 9.51c-.54.55-.54 1.43 0 1.97l4.12 4.12c.27.27.62.41.98.41.35 0 .71-.14.98-.41l9.52-9.52v14.95c0 .37.14.72.41.98.26.26.61.41.98.41l5.82-.01c.77 0 1.39-.62 1.39-1.39v-23.53l18.37-18.38v25.99l-16.65 16.65c-.54.54-.54 1.42 0 1.97l4.12 4.12c.26.26.61.4.98.4s.73-.14.98-.4l10.57-10.57v13.46c0 .77.62 1.39 1.39 1.39h5.82c.77 0 1.39-.63 1.39-1.39v-13.46l10.57 10.57c.26.26.61.4.98.4s.72-.14.98-.4l4.12-4.12c.54-.55.54-1.43 0-1.97l-16.63-16.65v-26l18.38 18.38v23.55c0 .77.62 1.39 1.39 1.39h5.82c.37 0 .73-.14.98-.4.26-.26.41-.61.41-.99v-14.94l9.52 9.52c.27.27.62.41.98.41s.71-.14.98-.41l4.11-4.12c.26-.26.41-.61.41-.98 0-.38-.14-.72-.41-.99l-9.52-9.51h14.94c.77 0 1.39-.63 1.39-1.39v-5.82c0-.77-.62-1.39-1.39-1.39h-23.52l-18.38-18.39h25.99l16.65 16.65c.27.28.63.41.98.41s.71-.13.98-.41l4.12-4.12c.26-.26.41-.61.41-.98 0-.38-.15-.72-.41-.99l-10.56-10.56h13.46c.77 0 1.39-.62 1.39-1.39v-5.82c0-.77-.62-1.39-1.39-1.39z" fill="#40c0e7"/></svg>