<svg viewBox="0 0 128 128" xmlns="http://www.w3.org/2000/svg"><path d="m14.02 14.82h97.16v104.35h-97.16z" fill="#fff"/><g fill="#006ca2"><path d="m54.95 75.35h17.81l-8.91-26.81z"/><path d="m120.88 0h-114c-3.79 0-6.88 3.1-6.88 6.88v114.01c0 3.79 3.09 6.88 6.88 6.88h114.01c3.79 0 6.88-3.1 6.88-6.88v-114.01c0-3.78-3.1-6.88-6.89-6.88zm-10.44 110.86c-.38.55-1.01.88-1.68.88h-22.46c-.88 0-1.66-.56-1.94-1.4l-5.2-15.66h-30.62l-5.19 15.66c-.28.84-1.06 1.4-1.94 1.4h-22.46c-.67 0-1.3-.33-1.68-.88s-.47-1.26-.23-1.88l34.25-91.1c.3-.8 1.06-1.32 1.91-1.32h21.3c.85 0 1.61.53 1.91 1.32l34.26 91.1c.24.62.15 1.33-.23 1.88z"/></g></svg>