<svg viewBox="0 0 128 128" xmlns="http://www.w3.org/2000/svg"><path d="m121 .11h-114.01c-3.78 0-6.87 3.1-6.87 6.88v114.01c0 3.78 3.09 6.88 6.87 6.88h114.01c3.78 0 6.88-3.09 6.88-6.88v-114c0-3.79-3.1-6.89-6.88-6.89z" fill="#006ca2"/><path d="m71.63 15.96h-34.5c-.13 0-.25.06-.37.08h-5.91c-1.13 0-2.04.92-2.04 2.05v92.01c0 1.13.91 2.04 2.04 2.04h19.95c1.13 0 2.04-.91 2.04-2.04v-29.25h18.79c18.07 0 32.77-14.55 32.77-32.44s-14.7-32.45-32.77-32.45zm-1.58 45.77c-.32.02-.64.05-.95.05h-15.92s-.08-.04-.11-.05c-.09-.02-.16-.04-.23-.09-.1-.1-.19-.23-.19-.39v-25.68c0-.16.09-.29.19-.39.06-.05.13-.06.2-.08.06-.02.1-.06.14-.06h15.92c.38 0 .75.02 1.13.06 6.58.59 11.77 6.33 11.77 13.3 0 7.05-5.29 12.82-11.95 13.33z" fill="#fff"/></svg>