<svg viewBox="0 0 128 128" xmlns="http://www.w3.org/2000/svg"><path d="m120.88 0h-114c-3.79 0-6.88 3.1-6.88 6.88v114.01c0 3.78 3.09 6.88 6.88 6.88h114.01c3.78 0 6.88-3.1 6.88-6.88v-114.01c0-3.78-3.1-6.88-6.89-6.88z" fill="#f79329"/><g fill="#fff"><path d="m89.53 19.21h-14.47-1.75-4.86c-.64 0-1.15.52-1.15 1.15v87.67c0 .64.51 1.15 1.15 1.15h4.86 1.75 14.47c.64 0 1.15-.52 1.15-1.15v-14.51c0-.63-.51-1.15-1.15-1.15h-13.32v-20.73h10.14c.63 0 1.15-.51 1.15-1.15v-14.52c0-.64-.51-1.15-1.15-1.15h-10.14v-18.78h13.32c.64 0 1.15-.52 1.15-1.15v-14.52c0-.63-.51-1.16-1.15-1.16z"/><path d="m116.2 19.21h-14.48-1.75-4.86c-.63 0-1.15.52-1.15 1.15v87.67c0 .64.52 1.15 1.15 1.15h4.86 1.75 14.48c.63 0 1.15-.52 1.15-1.15v-14.51c0-.63-.52-1.15-1.15-1.15h-13.33v-20.73h10.14c.63 0 1.15-.51 1.15-1.15v-14.52c0-.64-.52-1.15-1.15-1.15h-10.14v-18.78h13.33c.63 0 1.15-.52 1.15-1.15v-14.52c0-.63-.52-1.16-1.15-1.16z"/><path d="m32.58 19.21h-13.42-1.75-4.86c-.63 0-1.15.52-1.15 1.15v87.67c0 .64.52 1.15 1.15 1.15h6.62c.63 0 1.15-.52 1.15-1.15v-35.42h10.14c.64 0 1.15-.51 1.15-1.15v-14.52c0-.64-.51-1.15-1.15-1.15h-10.15v-19.75h12.27c.63 0 1.15-.52 1.15-1.15v-14.52c0-.63-.52-1.16-1.15-1.16z"/><path d="m56.05 77.23c4.56-4.71 6.98-16.6 6.98-27.96 0-14.59-3.98-30.09-11.35-30.09h-11.44c-.08 0-.14.03-.21.04h-1.87c-.64 0-1.15.52-1.15 1.15v87.67c0 .64.51 1.15 1.15 1.15h6.61c.63 0 1.15-.51 1.15-1.15v-28.69h1.56l7.59 29c.14.53.62.9 1.17.9h6.61c.38 0 .73-.17.96-.47.23-.29.31-.68.21-1.04zm-5.21-15.43h-4.92-.36c-.17 0-.3-.13-.3-.3v-24.47c0-.17.14-.3.3-.3h.36 4.92c2.47 0 4.4 5.51 4.4 12.54 0 7.02-1.93 12.53-4.4 12.53z"/></g></svg>