<svg viewBox="0 0 128 128" xmlns="http://www.w3.org/2000/svg"><path d="m121.02.09h-114c-3.78 0-6.88 3.09-6.88 6.88v114.01c0 3.78 3.09 6.88 6.88 6.88h114.01c3.78 0 6.88-3.1 6.88-6.88v-114.01c0-3.78-3.1-6.88-6.89-6.88z" fill="#fcc21b"/><g fill="#ed6c30"><path d="m64.8 18.08c-12.31 0-20.01 20.5-20.01 45.77 0 25.28 7.7 45.77 20.01 45.77s20.01-20.48 20.01-45.77c0-25.27-7.7-45.77-20.01-45.77zm0 71.83c-4.85 0-7.88-11.67-7.88-26.06s3.03-26.06 7.88-26.06 7.88 11.67 7.88 26.06-3.03 26.06-7.88 26.06z"/><path d="m29.21 51.33c-.59-.61-1.13-1.16-1.59-1.65-1.51-1.61-3.27-6.05-2.44-10.84.71-4.13 2.65-5.52 5.65-4.28 2.68 1.11 4.74 3.38 5.89 4.64.23.25.58.35.91.26s.58-.36.65-.69l2.73-13.67c.05-.24 0-.49-.14-.69-1.69-2.49-6.47-7.21-12.45-7.21-.82 0-1.63.1-2.42.28-4.36 1-8.71 3.52-11.04 15.15-1.42 7.06-1.42 15-.01 20.71 1.54 6.35 4.1 9.24 7.36 12.9l.4.46c2.29 2.54 4.96 5.3 7.02 7.43 2.87 3.08 3.89 8.77 3.19 12.27-1.01 5.04-2.84 5.04-3.44 5.04-.82 0-1.85-.38-3.05-1.15-3.34-2.01-6.48-7.82-7.37-9.56-.17-.33-.51-.53-.89-.49-.37.03-.68.29-.79.64l-4.22 14.39c-.06.21-.04.44.05.63 2.18 4.68 3.96 7.4 7.06 10.8 2.16 2.38 5.36 3.79 8.53 3.79 3.26 0 11.21-1.62 14.58-16.61 2.08-9.23 1.29-19-2.15-26.83-3.13-6.57-8.48-12.07-12.02-15.72z"/><path d="m101.16 51.33c-.6-.61-1.13-1.17-1.59-1.65-1.51-1.61-3.27-6.05-2.45-10.84.71-4.13 2.65-5.52 5.65-4.28 2.67 1.11 4.73 3.38 5.89 4.64.23.25.59.35.91.26.33-.09.58-.36.64-.69l2.73-13.67c.05-.24 0-.49-.14-.69-1.69-2.49-6.47-7.21-12.45-7.21-.82 0-1.63.1-2.42.28-4.36 1-8.71 3.53-11.04 15.15-1.42 7.06-1.42 15-.01 20.71 1.54 6.35 4.1 9.24 7.35 12.9l.41.46c2.29 2.54 4.96 5.3 7.02 7.43 2.87 3.08 3.89 8.77 3.19 12.27-1.01 5.04-2.84 5.04-3.44 5.04-.82 0-1.85-.38-3.05-1.15-3.34-2.01-6.48-7.82-7.37-9.56-.17-.33-.51-.53-.89-.49-.37.03-.68.29-.78.64l-4.22 14.39c-.07.21-.05.44.05.63 2.18 4.68 3.96 7.4 7.06 10.8 2.17 2.38 5.36 3.79 8.54 3.79 3.26 0 11.21-1.62 14.58-16.61 2.07-9.23 1.29-19-2.16-26.83-3.12-6.57-8.47-12.07-12.01-15.72z"/></g></svg>