<svg viewBox="0 0 128 128" xmlns="http://www.w3.org/2000/svg" xmlns:xlink="http://www.w3.org/1999/xlink"><defs><path id="a" d="m100.96 10.37c-1.56 0-3.07.61-4.2 1.74-9.56 9.56-17.94 11.38-30.07 11.38-3.68 0-7.72-.18-12-.37-3.37-.15-6.85-.3-10.61-.4-.66-.02-1.31-.02-1.95-.02-30.67 0-40.49 18.55-40.89 19.34-.52 1.02-.73 2.16-.62 3.29l6.72 66.95c.22 2.22 1.67 4.13 3.75 4.95.7.27 1.43.41 2.16.41 1.43 0 2.84-.52 3.95-1.51.1-.09 12.43-10.63 32.12-10.63 2.52 0 5.09.17 7.64.51 9.27 1.23 16.03 1.78 21.95 1.78 18.93 0 32.93-6.1 46.82-20.38 1.51-1.56 2.05-3.81 1.42-5.88l-20.51-66.95c-.61-1.99-2.22-3.52-4.24-4.03-.48-.12-.96-.18-1.44-.18z"/><clipPath id="b"><use xlink:href="#a"/></clipPath></defs><use fill="#fff" xlink:href="#a"/><g clip-path="url(#b)"><path d="m60.11 110.7c26.61 2.07 44.56 6.93 69.47-21.7l-9.36-37.68c-22.32 25.08-36.34 25.13-66.61 22.14-25.61-2.53-43.38 13.95-49.86 19.74l4.23 37.17c10.52-8.75 26.34-21.68 52.13-19.67z" fill="#e74600"/></g><g clip-path="url(#b)"><path d="m54.6 77.18c25.85 2.08 43.29 6.93 67.5-21.7l-7.94-29.23c-21.68 25.08-35.31 25.13-64.72 22.13-24.88-2.54-42.14 13.95-48.43 19.73l2.95 28.72c10.21-8.73 25.58-21.66 50.64-19.65z" fill="#00538b"/></g></svg>