<svg viewBox="0 0 128 128" xmlns="http://www.w3.org/2000/svg"><path d="m119.79.34h-111.59c-4.33 0-7.87 3.54-7.87 7.87v111.58c0 4.33 3.54 7.87 7.87 7.87h111.58c4.33 0 7.87-3.55 7.87-7.87v-111.58c.01-4.34-3.53-7.87-7.86-7.87z" fill="#ed6c30"/><path d="m110.08 40.28h-15.93v-14.88c0-.42-.17-.82-.46-1.11s-.7-.47-1.11-.47h-14.6c-.41 0-.82.17-1.11.47-.29.29-.46.69-.46 1.11v14.87h-23.55v-14.87c0-.42-.17-.82-.46-1.11s-.7-.47-1.11-.47h-14.6c-.41 0-.82.17-1.11.47-.29.29-.46.69-.46 1.11v14.87h-17.29c-.42 0-.82.17-1.11.47-.29.29-.46.69-.46 1.11v14.54c0 .42.17.82.46 1.11s.7.46 1.11.46h17.29v21.15c0 .41.17.82.46 1.11s.7.46 1.11.46h14.6c.42 0 .82-.17 1.11-.46s.46-.7.46-1.11v-21.14h23.5c-.35 15.29-5.49 24.86-10.59 30.71-2.64 3.02-5.27 5.04-7.23 6.31-.98.63-1.79 1.07-2.35 1.35-.28.14-.49.23-.63.29l-.15.07-.03.01c-.44.18-.78.54-.92.99-.15.45-.08.95.18 1.34l7.98 12.23c.4.61 1.16.87 1.84.63.16-.06 7.57-2.68 14.98-10.96 7.23-8.06 14.36-21.57 14.69-42.97h15.96c.41 0 .82-.17 1.11-.46s.46-.7.46-1.11v-14.54c0-.42-.17-.82-.46-1.11-.3-.3-.7-.47-1.12-.47z" fill="#fff"/></svg>