<svg viewBox="0 0 128 128" xmlns="http://www.w3.org/2000/svg"><path d="m119.72.42h-111.44c-4.33 0-7.86 3.53-7.86 7.86v111.44c0 4.33 3.53 7.86 7.86 7.86h111.44c4.33 0 7.86-3.54 7.86-7.86v-111.44c0-4.33-3.53-7.86-7.86-7.86z" fill="#ed6c30"/><g fill="#fff"><path d="m106.24 52.2h-9.55v-11.54h6.67c.42 0 .82-.17 1.11-.46s.46-.7.46-1.11v-8.61c0-.41-.17-.81-.46-1.11-.29-.29-.7-.47-1.11-.47h-63.48l1.76-4.18c.16-.38.17-.82.01-1.21-.16-.38-.47-.69-.85-.85l-9.89-4.16c-.81-.34-1.72.04-2.06.84l-9.82 23.31c-.17.39-.17.82-.01 1.21.16.38.47.69.85.85l9.9 4.17c.39.16.82.16 1.21.01.39-.16.69-.46.85-.84l3-7.14v11.3h-9.56c-.41 0-.81.17-1.11.46-.29.29-.46.7-.46 1.11v8.61c0 .41.17.82.46 1.11.3.29.7.46 1.11.46h9.56v9.9h-6.67c-.41 0-.82.17-1.11.46s-.46.7-.46 1.11v8.61c0 .41.18.82.46 1.11.29.29.7.46 1.11.46h75.19c.42 0 .82-.17 1.11-.46s.46-.7.46-1.11v-8.61c0-.41-.17-.82-.46-1.11s-.7-.46-1.11-.46h-6.67v-9.9h9.55c.42 0 .82-.17 1.12-.46.29-.29.45-.7.45-1.11v-8.61c0-.41-.16-.82-.45-1.11-.29-.3-.69-.47-1.11-.47zm-59.52-11.54h4.46v11.54h-4.46zm38.08 11.54h-4.8v-11.54h4.81v11.54zm-21.74 11.75h5.05v9.9h-5.05zm5.06-11.75h-5.05v-11.54h5.05zm-21.4 11.75h4.46v9.9h-4.46zm38.08 9.9h-4.8v-9.9h4.81v9.9z"/><path d="m42.8 91.99-8.04-3.38c-.8-.33-1.71.04-2.05.84l-5.58 13.24c-.17.39-.17.82-.01 1.21s.46.69.85.85l8.04 3.39c.39.17.83.17 1.21.01s.7-.47.85-.85l5.58-13.25c.16-.39.17-.81 0-1.2-.16-.39-.46-.69-.85-.86z"/><path d="m60.57 90.34c-.2-.85-1.05-1.37-1.89-1.16l-8.48 2.04c-.41.1-.75.35-.97.71s-.29.78-.19 1.19l3.37 13.98c.1.41.35.75.71.97s.78.29 1.19.19l8.49-2.04c.4-.1.75-.35.97-.71s.29-.78.19-1.19z"/><path d="m80.63 89.95c-.22-.84-1.08-1.33-1.92-1.1l-8.42 2.27c-.41.11-.75.37-.97.73-.21.36-.26.79-.16 1.19l3.74 13.88c.11.4.37.74.74.95s.79.27 1.2.15l8.43-2.27c.41-.11.74-.37.96-.73.21-.37.26-.79.16-1.2z"/><path d="m100.66 89.55c-.27-.82-1.16-1.27-1.99-1l-8.27 2.75c-.4.13-.73.41-.91.78-.19.38-.22.81-.09 1.2l4.52 13.65c.14.4.42.72.79.91s.8.22 1.2.09l8.28-2.75c.4-.13.72-.42.91-.79.19-.38.22-.8.09-1.2z"/></g></svg>