<svg viewBox="0 0 128 128" xmlns="http://www.w3.org/2000/svg"><path d="m119.77.36h-111.54c-4.33 0-7.87 3.54-7.87 7.87v111.54c0 4.32 3.54 7.87 7.87 7.87h111.54c4.33 0 7.87-3.55 7.87-7.87v-111.54c0-4.33-3.54-7.87-7.87-7.87z" fill="#bdcf46"/><g fill="#fff"><path d="m62.96 62.69v-.01z"/><path d="m106.67 48.95-9.65-3.21c-.79-.26-1.66.15-1.96.93l-.04.1c-.11.25-.42.95-.83 1.68-.41.74-.97 1.51-1.42 1.88-.1.09-.46.28-.93.42-1.44.44-3.73.49-4.01.48h-.06-13.44v-1.38-1.99-1.82l28.75-8.25c.84-.24 1.31-1.11 1.07-1.95l-2.37-8.26c-.23-.84-1.11-1.32-1.94-1.08l-25.5 7.33v-7.64c0-.41-.17-.81-.46-1.1s-.7-.47-1.11-.47h-10.34c-.42 0-.82.18-1.11.47s-.46.69-.46 1.1v22.8c-.02.1-.05.18-.05.27v8.14c0 .08 0 .86.25 1.89s.73 2.35 1.91 3.41c1.22 1.09 2.63 1.54 3.73 1.78 1.1.23 1.92.23 1.99.24h2.52 1.56 17 .42.27 1.7c.16 0 .31-.05.46-.1.76-.05 1.58-.13 2.46-.26 2.1-.35 4.4-.9 6.12-2.31 2.25-1.92 3.79-4.67 4.86-6.96 1.06-2.3 1.61-4.13 1.62-4.18.25-.83-.2-1.69-1.01-1.96z"/><path d="m102.74 67.3h-40.94c-.42 0-.82.17-1.12.46-.29.29-.46.7-.46 1.11v37.41c0 .41.17.82.46 1.11s.7.46 1.12.46h40.93c.42 0 .82-.17 1.12-.46.29-.29.45-.7.45-1.11v-37.41c0-.41-.17-.82-.45-1.11-.29-.3-.7-.46-1.11-.46zm-10.64 15.95-.41.17h-18.86l-.4-.17-.17-.4v-4.65l.17-.41.4-.17h18.87l.41.17.16.41v4.64zm.16 9.26v4.64l-.16.4-.41.17h-18.86l-.4-.17-.17-.4v-4.64l.17-.4.4-.17h18.87l.41.17z"/><path d="m52.63 63.24c-.17-.38-.49-.68-.87-.83-.39-.15-.83-.14-1.21.04l-2.66 1.19v-11.1h6.8c.41 0 .82-.17 1.11-.46s.46-.69.46-1.11v-8.59c0-.42-.17-.82-.46-1.11s-.7-.46-1.11-.46h-6.8v-16.54c0-.41-.17-.82-.46-1.11s-.7-.46-1.1-.46h-11.73c-.41 0-.82.17-1.11.46s-.46.7-.46 1.11v16.53h-9.68c-.41 0-.82.17-1.11.46s-.46.69-.46 1.11v8.59c0 .42.17.82.46 1.11.3.29.7.46 1.11.46h9.68v17.77l-11.08 4.95c-.38.18-.68.49-.83.88s-.14.83.03 1.2l3.52 7.85c.17.38.49.68.88.83s.83.14 1.21-.04l6.28-2.81v9.14h-4.04c-.46 0-.88.19-1.18.54-.3.34-.43.79-.38 1.24l1.59 11.77c.1.78.77 1.37 1.55 1.37h9.24c.08 0 .94 0 2.09-.28 1.13-.27 2.61-.81 3.76-2.09 1.19-1.34 1.7-2.91 1.96-4.13.26-1.23.26-2.14.26-2.22v-2.23-2.39-17.38l7.45-3.33c.8-.36 1.15-1.29.8-2.08z"/></g></svg>