<svg viewBox="0 0 128 128" xmlns="http://www.w3.org/2000/svg"><path d="m119.79.34h-111.58c-4.33 0-7.87 3.54-7.87 7.87v111.58c0 4.33 3.54 7.87 7.87 7.87h111.58c4.33 0 7.87-3.55 7.87-7.87v-111.58c0-4.33-3.54-7.87-7.87-7.87z" fill="#ed6c30"/><g fill="#fff"><path d="m22.9 58.25c.42 0 .84-.17 1.13-.48l11.68-12.12v6.56c0 .41.17.82.46 1.11s.7.46 1.11.46h8.57c.41 0 .82-.17 1.11-.46s.46-.7.46-1.11v-7.31l7.38 7.66c.29.31.71.48 1.13.48.43 0 .84-.18 1.13-.48l5.4-5.61c.59-.61.59-1.58 0-2.18l-6.82-7.08h4.27c.42 0 .82-.17 1.11-.47.29-.29.46-.7.46-1.11v-6.2c0-.42-.17-.82-.46-1.11s-.7-.46-1.11-.46h-12.5v-6.09c0-.42-.17-.82-.46-1.11s-.7-.46-1.11-.46h-8.57c-.41 0-.82.17-1.11.46s-.46.7-.46 1.11v6.09h-15.36c-.41 0-.82.17-1.11.46s-.47.7-.47 1.11v6.2c0 .41.17.82.47 1.11.29.29.7.47 1.11.47h7.85l-11.83 12.29c-.59.61-.59 1.57 0 2.18l5.4 5.61c.3.3.71.48 1.14.48z"/><path d="m99.72 37.69h7.85c.41 0 .82-.17 1.11-.47.29-.29.46-.7.46-1.11v-6.2c0-.42-.17-.82-.46-1.11s-.7-.46-1.11-.46h-15.37v-6.09c0-.42-.17-.82-.46-1.11s-.7-.46-1.11-.46h-8.56c-.42 0-.82.17-1.11.46s-.46.7-.46 1.11v6.09h-12.5c-.42 0-.82.17-1.11.46s-.46.7-.46 1.11v6.2c0 .41.17.82.46 1.11s.7.47 1.11.47h4.27l-6.82 7.08c-.59.61-.59 1.57 0 2.18l5.4 5.61c.29.31.7.48 1.13.48s.84-.18 1.13-.48l7.38-7.66v7.31c0 .41.17.82.46 1.11s.7.46 1.11.46h8.56c.42 0 .82-.17 1.11-.46s.46-.7.46-1.11v-6.56l11.68 12.12c.3.31.71.48 1.13.48s.84-.17 1.13-.48l5.4-5.61c.59-.61.59-1.58 0-2.18z"/><path d="m107.32 74.75h-85.72c-.41 0-.82.17-1.11.46s-.46.7-.46 1.11v7.78c0 .41.17.82.46 1.11s.7.46 1.11.46h37.08v10.65h-6.92c-.44 0-.86.19-1.16.51-.3.33-.44.77-.4 1.21l.87 9.03c.08.81.75 1.43 1.57 1.43h12.64.01c.08 0 .91-.01 2.02-.27 1.1-.27 2.53-.8 3.66-2.04 1.15-1.3 1.65-2.82 1.91-4.01.25-1.19.26-2.07.26-2.14v-2.14-12.22h34.21c.41 0 .82-.17 1.11-.46s.46-.7.46-1.11v-7.78c0-.42-.17-.82-.46-1.11-.32-.3-.72-.47-1.14-.47z"/><path d="m29.38 59.66c-.29.29-.46.7-.46 1.11v7.78c0 .42.17.82.46 1.11s.7.46 1.11.46h67.94c.42 0 .82-.17 1.11-.46s.46-.7.46-1.11v-7.78c0-.42-.17-.82-.46-1.11s-.7-.46-1.11-.46h-67.94c-.41 0-.82.16-1.11.46z"/><path d="m41.91 88.28c-.55-.67-1.53-.76-2.2-.21l-12.37 10.07c-.33.26-.53.65-.57 1.07s.09.84.36 1.16l5.62 6.75c.55.66 1.53.76 2.2.21l12.38-10.06c.33-.27.53-.65.58-1.07.04-.42-.09-.83-.36-1.16z"/><path d="m102.66 96.76-15.05-9.26c-.74-.45-1.7-.23-2.16.5l-4.68 7.44c-.22.36-.29.79-.2 1.2.1.41.35.76.71.98l15.06 9.27c.74.46 1.7.23 2.16-.5l4.68-7.44c.22-.36.3-.79.2-1.2s-.36-.77-.72-.99z"/><path d="m70.95 106.2v.01z"/></g></svg>