<svg viewBox="0 0 128 128" xmlns="http://www.w3.org/2000/svg"><path d="m119.79.34h-111.58c-4.33 0-7.87 3.54-7.87 7.87v111.58c0 4.33 3.54 7.87 7.87 7.87h111.58c4.33 0 7.87-3.54 7.87-7.87v-111.58c0-4.33-3.54-7.87-7.87-7.87z" fill="#ed6c30"/><g fill="#fff"><path d="m89.21 67.91c.28 0 .56-.12.76-.31.2-.2.31-.48.31-.76v-9.69c0-.28-.11-.56-.31-.76s-.48-.31-.76-.31h-47.16c-.28 0-.56.12-.76.31-.2.2-.31.48-.31.76v9.69c0 .28.11.56.31.76s.48.31.76.31z"/><path d="m99.36 73.56h-67.46c-.28 0-.56.11-.76.32-.2.2-.31.48-.31.76v30.85c0 .28.11.56.31.76s.48.31.76.31h67.46c.28 0 .56-.12.76-.31.2-.21.31-.48.31-.76v-30.85c0-.28-.11-.57-.31-.76-.19-.21-.47-.32-.76-.32zm-12.76 12.45v8.1l-.17.41-.41.17h-40.78l-.41-.17-.17-.41v-8.1l.17-.41.41-.17h40.79l.41.17z"/><path d="m114.24 49.73s-.36-.15-1.05-.46c-4.84-2.16-25.68-12.08-46.85-30.9-.02-.01-.04-.02-.06-.03-.06-.05-.14-.08-.21-.11-.07-.04-.14-.07-.21-.09-.03 0-.05-.02-.07-.02-.05-.01-.1.01-.16.01-.05 0-.1-.02-.16-.01-.02 0-.05.02-.07.02-.07.02-.14.05-.21.09-.07.03-.14.06-.21.11-.02.01-.04.02-.06.03-12.1 10.75-24.09 18.6-33.05 23.76-4.48 2.58-8.2 4.48-10.8 5.74-1.29.63-2.32 1.1-3 1.4-.69.31-1.05.46-1.05.46-.29.12-.51.36-.61.66s-.06.63.11.9l7.06 11.42c.28.45.84.63 1.33.42.06-.03 19.19-8 40.72-25.21 21.53 17.2 40.67 25.18 40.72 25.21.49.2 1.05.02 1.33-.42l7.06-11.42c.16-.27.21-.6.11-.9-.09-.3-.32-.53-.61-.66z"/></g></svg>