<svg viewBox="0 0 128 128" xmlns="http://www.w3.org/2000/svg"><path d="m119.79.34h-111.58c-4.33 0-7.87 3.54-7.87 7.87v111.59c0 4.33 3.54 7.87 7.87 7.87h111.58c4.33 0 7.87-3.54 7.87-7.87v-111.59c0-4.33-3.54-7.87-7.87-7.87z" fill="#ed6c30"/><g fill="#fff"><path d="m104.93 46.37h-10.7v-5.95h8.39c.41 0 .82-.17 1.11-.46s.46-.7.46-1.11v-8.27c0-.41-.17-.82-.46-1.11s-.7-.46-1.11-.46h-8.39v-5.48c0-.42-.17-.82-.46-1.11s-.7-.46-1.11-.46h-8.92c-.42 0-.82.17-1.11.46s-.46.69-.46 1.11v5.48h-15.1v-5.48c0-.42-.17-.82-.46-1.11s-.7-.46-1.12-.46h-8.91c-.42 0-.82.17-1.12.46-.29.28-.46.68-.46 1.1v5.48h-8.39c-.42 0-.82.17-1.11.46s-.46.7-.46 1.11v8.27c0 .42.17.82.46 1.11s.7.46 1.11.46h8.39v5.95h-10.7c-.42 0-.82.17-1.11.46s-.46.7-.46 1.11v8.26c0 .42.17.82.46 1.11s.7.46 1.11.46h12.28 8.91 3.91v3.64h-16.19-8.91c-.42 0-.82.17-1.11.46s-.46.7-.46 1.11v8.27 36c0 .41.17.82.46 1.11s.7.46 1.11.46h8.91c.42 0 .82-.17 1.11-.46s.46-.7.46-1.11v-34.4h14.61v14.16h-2.21v-7.19c0-.42-.17-.82-.46-1.11s-.7-.46-1.11-.46h-7.02c-.42 0-.82.17-1.11.46s-.46.7-.46 1.11v8.77 7.02c0 .42.17.82.46 1.11s.7.46 1.11.46h7.02 5.37 7.02 5.62 7.03c.42 0 .82-.17 1.11-.46s.46-.7.46-1.11v-7.02-8.77c0-.42-.17-.82-.46-1.11s-.7-.46-1.11-.46h-7.03c-.41 0-.82.17-1.11.46s-.46.7-.46 1.11v7.19h-2.48v-14.16h14.87v25.52h-6.74c-.46 0-.91.21-1.21.57s-.42.84-.33 1.3l1.39 7.33c.14.74.79 1.28 1.55 1.28h10.1.01c.08 0 .85 0 1.89-.25 1.02-.25 2.35-.73 3.41-1.91 1.07-1.22 1.53-2.63 1.76-3.72.24-1.1.24-1.92.24-1.99v-1.03c0-.1-.04-.2-.05-.29.02-.1.05-.19.05-.29v-28.1-8.26c0-.42-.17-.82-.46-1.11s-.7-.46-1.11-.46h-8.92-16.45v-3.64h4.17 8.92 12.28c.41 0 .82-.17 1.11-.46s.46-.69.46-1.11v-8.26c0-.42-.17-.82-.46-1.11-.3-.31-.7-.48-1.12-.48zm-37.87-5.95h15.1v5.95h-15.1z"/><path d="m36.76 81.66c-.27-.39-.7-.63-1.17-.67s-.93.14-1.26.48l-14.38 14.94c-.52.54-.59 1.38-.16 1.99l4.73 6.78c.27.38.69.62 1.16.66s.93-.14 1.26-.48l14.38-14.93c.52-.54.59-1.37.16-1.99z"/><path d="m32.01 69.19c.69.51 1.65.39 2.18-.29l5.1-6.51c.26-.34.38-.76.32-1.18s-.28-.8-.62-1.05l-12.39-9.26c-.68-.51-1.65-.38-2.18.29l-5.1 6.51c-.26.34-.38.76-.32 1.18.05.42.28.8.62 1.05z"/><path d="m33.34 43.38c.69.51 1.66.38 2.18-.29l5.1-6.51c.26-.34.38-.76.32-1.18-.06-.43-.28-.8-.62-1.06l-12.39-9.25c-.68-.51-1.66-.39-2.18.29l-5.1 6.5c-.26.34-.38.76-.32 1.18.05.42.27.8.62 1.05z"/></g></svg>