<svg viewBox="0 0 128 128" xmlns="http://www.w3.org/2000/svg"><path d="m119.89.23h-111.78c-4.34 0-7.89 3.55-7.89 7.88v111.79c0 4.33 3.55 7.88 7.89 7.88h111.78c4.34 0 7.89-3.55 7.89-7.88v-111.79c0-4.34-3.55-7.88-7.89-7.88z" fill="#fcc21b"/><path d="m101.86 21.25h-14.24-43.16-13.51c-.87 0-1.57.7-1.57 1.56v13.79 11.73 10.18 11.73 2.73c-.68 13.19-9.54 22.73-9.63 22.83-.29.31-.45.73-.43 1.16s.22.83.54 1.11l10.93 9.37c.29.26.66.38 1.02.38.43 0 .86-.18 1.17-.53.42-.47 9.67-11.12 12.32-25.29h40.76v9.22h-9.16c-.45 0-.89.2-1.18.54-.3.35-.44.8-.37 1.26l2.02 13.83c.11.77.77 1.34 1.55 1.34h14.64c.19 0 4.68-.05 7.21-3.34 2.63-3.39 2.66-8.55 2.66-8.77v-3.29-12.37-10.17-11.73-10.19-11.73-13.79c-.01-.86-.71-1.56-1.57-1.56zm-55.82 47.43v-8.6h40.02v8.6zm40.01-21.91h-40.02v-8.6h40.02z" fill="#2f2f2f"/></svg>