<svg viewBox="0 0 128 128" xmlns="http://www.w3.org/2000/svg"><path d="m119.71.43h-111.43c-4.32 0-7.86 3.53-7.86 7.86v111.43c0 4.32 3.53 7.86 7.86 7.86h111.43c4.32 0 7.86-3.54 7.86-7.86v-111.43c0-4.33-3.53-7.86-7.86-7.86z" fill="#ed6c30"/><g fill="#fff"><path d="m104.87 26.72h-10.29c-.42 0-.82.16-1.11.46-.29.29-.46.7-.46 1.11v65.53h-8.13c-.45 0-.88.2-1.18.53-.3.34-.44.79-.38 1.24l1.39 10.76c.1.79.77 1.37 1.56 1.37h12.89c.08 0 .85 0 1.88-.25 1.02-.25 2.35-.73 3.41-1.9 1.07-1.22 1.52-2.62 1.76-3.72.23-1.1.23-1.91.23-1.99v-1.96-2.51-67.1c0-.41-.17-.82-.46-1.11-.29-.3-.7-.46-1.11-.46z"/><path d="m87.57 84.6c.29-.29.46-.7.46-1.11v-55.2c0-.41-.17-.82-.46-1.11s-.7-.46-1.11-.46h-10.3c-.41 0-.82.16-1.11.46-.29.29-.46.7-.46 1.11v55.2c0 .41.17.82.46 1.11s.7.46 1.11.46h10.29c.42 0 .82-.17 1.12-.46z"/><path d="m67.41 83.89h-42.27c-.42 0-.82.17-1.11.46s-.46.7-.46 1.11v20.94c0 .41.17.82.46 1.11s.7.46 1.11.46h42.27c.41 0 .82-.17 1.11-.46s.46-.7.46-1.11v-20.94c0-.41-.17-.82-.46-1.11s-.7-.46-1.11-.46zm-10.49 9.15v5.77l-.17.41-.41.16h-20.14l-.4-.16-.17-.41v-5.77l.17-.4.4-.17h20.14l.41.17z"/><path d="m69.94 31.24h-17.88v-5.66c0-.42-.17-.82-.46-1.12-.29-.29-.7-.46-1.11-.46h-8.43c-.42 0-.82.17-1.11.46s-.46.7-.46 1.12v5.66h-17.88c-.41 0-.82.17-1.11.46s-.46.7-.46 1.11v8.59c0 .22.06.43.15.63v7.29c0 .41.17.82.46 1.11s.7.46 1.11.46h7.1c.41 0 .82-.17 1.11-.46s.46-.7.46-1.11v-6.35h9.06v3.9h-4.85c-.41 0-.82.17-1.11.46s-.46.7-.46 1.11v6.21c0 .41.17.82.46 1.11s.7.46 1.11.46h4.85v2.76h-9.71c-.41 0-.82.17-1.11.46s-.46.69-.46 1.11v6.21c0 .42.17.81.46 1.11.29.29.7.46 1.11.46h9.71v2.76h-15.35c-.42 0-.82.17-1.11.46s-.46.7-.46 1.11v6.21c0 .42.17.82.46 1.11s.7.46 1.11.46h42.27c.41 0 .82-.17 1.11-.46s.46-.7.46-1.11v-6.21c0-.41-.17-.82-.46-1.11s-.7-.46-1.11-.46h-15.35v-2.76h9.71c.42 0 .82-.17 1.11-.46s.46-.69.46-1.11v-6.21c0-.41-.17-.81-.46-1.11-.29-.29-.7-.46-1.11-.46h-9.71v-2.76h4.85c.41 0 .82-.17 1.11-.46s.46-.7.46-1.11v-6.21c0-.41-.17-.82-.46-1.11s-.7-.46-1.11-.46h-4.85v-3.9h9.2v6.35c0 .41.17.82.46 1.11s.7.46 1.11.46h7.1c.42 0 .82-.17 1.11-.46s.46-.7.46-1.11v-7.92-7.92-.66c0-.41-.17-.82-.46-1.11-.28-.3-.69-.47-1.1-.47z"/></g></svg>