<svg viewBox="0 0 128 128" xmlns="http://www.w3.org/2000/svg" xmlns:xlink="http://www.w3.org/1999/xlink"><clipPath id="a"><path d="m288 115.89c0 6.65-5.44 12.1-12.09 12.1h-103.81c-6.65 0-12.09-5.44-12.09-12.1v-103.79c0-6.66 5.44-12.1 12.09-12.1h103.8c6.66 0 12.1 5.44 12.1 12.1z"/></clipPath><linearGradient id="b" gradientUnits="userSpaceOnUse" x1="288.63167" x2="288.63167" y1="37.030388" y2="63.294113"><stop offset="0" stop-color="#fff" stop-opacity=".984314"/><stop offset="1" stop-color="#fff" stop-opacity=".196078"/></linearGradient><linearGradient id="c" gradientUnits="userSpaceOnUse" x1="274.57556" x2="274.50848" y1="109.39293" y2="129.08926"><stop offset="0" stop-color="#fff"/><stop offset="1" stop-color="#fff" stop-opacity=".376471"/></linearGradient><linearGradient id="d" gradientUnits="userSpaceOnUse" x1="151.869787" x2="151.977678" y1="75.241478" y2="87.865189"><stop offset="0" stop-color="#fff" stop-opacity=".972549"/><stop offset="1" stop-color="#fff" stop-opacity=".541177"/></linearGradient><clipPath id="e"><path d="m128 115.89c0 6.65-5.44 12.1-12.09 12.1h-103.81c-6.65 0-12.09-5.44-12.09-12.1v-103.79c0-6.66 5.44-12.1 12.09-12.1h103.8c6.66 0 12.1 5.44 12.1 12.1z" height="128" width="128"/></clipPath><path d="m128 115.89c0 6.65-5.44 12.1-12.09 12.1h-103.81c-6.65 0-12.09-5.44-12.09-12.1v-103.79c0-6.66 5.44-12.1 12.09-12.1h103.8c6.66 0 12.1 5.44 12.1 12.1z" fill="#b9e8f4"/><g clip-path="url(#e)"><g fill="#7d7d7d"><path d="m8.59 109.28h111.49v19.870001h-111.49z"/><path d="m52 89.68c0-4.99-4.08-9.07-9.07-9.07h-25.3c-4.99 0-9.07 4.08-9.07 9.07v30.39c0 4.99 4.08 9.07 9.07 9.07h25.3c4.99 0 9.07-4.08 9.07-9.07z"/><path d="m43.759998 94.870003h42.139999v34.279999h-42.139999z"/><path d="m120.03 64.62c0-4.99-4.08-9.07-9.07-9.07h-23.99c-4.99 0-9.07 4.08-9.07 9.07v55.46c0 4.99 4.08 9.07 9.07 9.07h23.99c4.99 0 9.07-4.08 9.07-9.07z"/></g><g fill="#40c0e7"><path d="m93.83 72.95c0 1.37-1.12 2.5-2.49 2.5h-2.92c-1.37 0-2.49-1.12-2.49-2.5v-4.63c0-1.37 1.12-2.49 2.49-2.49h2.92c1.37 0 2.49 1.12 2.49 2.49z"/><path d="m113.32 73.86c0 .46-1.12 1.58-2.49 1.58h-2.92c-1.37 0-2.5-1.12-2.5-2.5v-4.63c0-1.37 1.13-2.49 2.5-2.49h2.92c1.37 0 2.49 1.12 2.49 1.58z"/><path d="m113.32 89.18c0 .46-1.12 1.58-2.49 1.58h-2.92c-1.37 0-2.5-1.12-2.5-2.49v-4.63c0-1.37 1.13-2.5 2.5-2.5h2.92c1.37 0 2.49 1.12 2.49 1.58z"/><path d="m102.65 103.04c0 .46-1.12 1.58-2.49 1.58h-2.92c-1.37 0-2.5-1.12-2.5-2.49v-4.63c0-1.37 1.12-2.5 2.5-2.5h2.92c1.37 0 2.49 1.12 2.49 1.58z"/><path d="m23.41 102.22c0 1.37-1.12 2.5-2.5 2.5h-2.91c-1.38 0-2.5-1.12-2.5-2.5v-4.63c0-1.37 1.12-2.49 2.5-2.49h2.91c1.37 0 2.5 1.12 2.5 2.49z"/><path d="m34.52 102.22c0 1.37-1.13 2.5-2.5 2.5h-2.91c-1.38 0-2.5-1.12-2.5-2.5v-4.63c0-1.37 1.12-2.49 2.5-2.49h2.91c1.37 0 2.5 1.12 2.5 2.49z"/><path d="m45.63 102.22c0 1.37-1.13 2.5-2.5 2.5h-2.91c-1.38 0-2.5-1.12-2.5-2.5v-4.63c0-1.37 1.12-2.49 2.5-2.49h2.91c1.37 0 2.5 1.12 2.5 2.49z"/><path d="m23.41 116.4c0 1.37-1.12 2.5-2.5 2.5h-2.91c-1.38 0-2.5-1.12-2.5-2.5v-4.63c0-1.37 1.12-2.49 2.5-2.49h2.91c1.37 0 2.5 1.12 2.5 2.49z"/><path d="m34.52 116.4c0 1.37-1.13 2.5-2.5 2.5h-2.91c-1.38 0-2.5-1.12-2.5-2.5v-4.63c0-1.37 1.12-2.49 2.5-2.49h2.91c1.37 0 2.5 1.12 2.5 2.49z"/><path d="m56.74 116.4c0 1.37-1.13 2.5-2.5 2.5h-2.91c-1.38 0-2.5-1.12-2.5-2.5v-4.63c0-1.37 1.12-2.49 2.5-2.49h2.91c1.37 0 2.5 1.12 2.5 2.49z"/></g></g><g clip-path="url(#a)" transform="translate(-160)"><path d="m292.5 58.36c.34-2.15 1.05-48.14.06-55.15-.53-3.82-4.16-4.78-12.39-4.78-11.84 0-75.87.23-85.9 1.28-5.45.56-9.26 1.15-11.07 1.83-4.89 1.8-8.76 8.47-4.54 13.56 2.34 2.83 6.6 3.34 10 3.69 15.82 1.65 29.66.49 41.03 1.05 2.7.13 7.65.48 7.88 3.63.22 3.14-1.94 3.38-4.66 3.97-4.05.91-8.32 2.49-8.62 6.68-.17 2.34.6 5.73 4.67 7.43 4.57 1.93 12.37 1.23 15.82 1.72 3.74.53 18.08-.45 18.67 3.94.46 3.45-7.97.24-7.97 8.94 0 5.89 10.22 5.88 14.74 6.6 3 .48 11.95.78 17.24-.02 3.78-.58 4.58-1.48 5.04-4.37z" fill="url(#b)"/><path d="m287.3 128.47c1.87-.21 3.04-1.61 3.73-3.55 1.21-3.41 1.38-18.61.56-21.37-.61-2.07-.37-6.64-.37-6.64s-45.54 0-55.38.24c-1.66.04-7.43-.15-10.34 3.5-3.79 4.73 1.8 7.55 3.24 8.03 3.84 1.27 9.5.03 9 3.48-.2 1.36-.95 2-4.79 2.08-17.11.37-28.55.58-39.94.69-4.8.04-6.59 1.21-8.52 2.93-2.12 1.89-2.79 6.17-.3 8.93 2.17 2.39 5.83 2.55 8.68 2.55 34.25-.01 84.95.21 94.43-.87z" fill="url(#c)"/><path d="m154.94 88.01c-3.53.05-8.9-1.48-8.9-6.43 0-8.88.54-24.89.54-30.89 0-4.39.48-8.83 5.44-8.83h22.94c4.69 0 11.93-.26 16.6.46 6.07.93 10.88 2.68 8.73 8.73-2 5.63-11.02 3.75-12.39 7.98-.77 2.38-.02 3.9 1.54 4.86 3.91 2.41 35.8 1.38 52.48 2.54 3.85.27 10.38 3.35 10.38 9.48 0 6.7-3.97 10.34-13.32 10.95-19.09 1.24-79.94 1.09-84.04 1.15z" fill="url(#d)"/></g></svg>