<svg viewBox="0 0 128 128" xmlns="http://www.w3.org/2000/svg" xmlns:xlink="http://www.w3.org/1999/xlink"><defs><path id="a" d="m127.99 115.9c0 6.65-5.44 12.1-12.1 12.1h-103.79c-6.65 0-12.1-5.44-12.1-12.1v-103.8c0-6.66 5.44-12.1 12.1-12.1h103.8c6.65 0 12.1 5.44 12.1 12.1v103.8z"/><clipPath id="b"><use xlink:href="#a"/></clipPath><clipPath id="c"><path d="m-3.29 79.85c40.39-7.75 67.91-45.08 67.91-45.08h.01s27.52 37.33 67.91 45.08v26.16h-137.13z"/></clipPath></defs><use fill="#006ca2" xlink:href="#a"/><g clip-path="url(#b)"><g fill="#fff"><path d="m28.04 104.89h15.65v29.24h-15.65z"/><path d="m85.54 104.89h15.66v29.24h-15.66z"/><path d="m28.04 104.89h15.65v13.89h-15.65z"/><path d="m85.54 104.89h15.66v13.89h-15.66z"/><path d="m-4.59 98.59h145.37v12.6h-145.37z"/><path d="m-4.59 98.59h145.37v4.94h-145.37z"/><g clip-path="url(#c)"><path d="m60.44 5.5h8.35v99.3h-8.35z"/><path d="m44.63 5.5h5.07v99.3h-5.07z"/><path d="m27.52 5.5h5.07v99.3h-5.07z"/><path d="m10.39 5.5h5.08v99.3h-5.08z"/><path d="m80.03 5.5h5.07v99.3h-5.07z"/><path d="m97.15 5.5h5.08v99.3h-5.08z"/><path d="m114.27 5.5h5.08v99.3h-5.08z"/></g><path d="m132.53 82.08c-.14 0-.28-.01-.42-.04-35.4-6.8-60.7-35.27-67.5-43.66-6.85 8.38-32.41 36.93-67.48 43.66-1.21.23-2.38-.56-2.61-1.77s.56-2.38 1.77-2.61c39.07-7.5 66.26-43.85 66.53-44.21.84-1.14 2.75-1.13 3.59 0 1.12 1.5 27.87 36.79 66.54 44.21 1.21.23 2 1.4 1.77 2.61-.2 1.07-1.14 1.81-2.19 1.81z"/></g><g fill="#fcc21b"><path d="m105.92 12.32c0 2.14-1.73 3.88-3.88 3.88-2.14 0-3.88-1.73-3.88-3.88 0-2.14 1.74-3.88 3.88-3.88 2.15 0 3.88 1.73 3.88 3.88z"/><path d="m49.31 10.98c0 2.14-1.73 3.88-3.88 3.88-2.14 0-3.88-1.73-3.88-3.88 0-2.14 1.73-3.88 3.88-3.88s3.88 1.74 3.88 3.88z"/><path d="m23.79 34.56c0 2.13-1.73 3.88-3.88 3.88-2.13 0-3.88-1.74-3.88-3.88s1.74-3.88 3.88-3.88c2.14.01 3.88 1.74 3.88 3.88z"/><path d="m17.3 54.79c0 1.82-1.48 3.31-3.31 3.31-1.82 0-3.31-1.48-3.31-3.31s1.48-3.31 3.31-3.31 3.31 1.47 3.31 3.31z"/><circle cx="18.3" cy="14.86" r="2.41"/><path d="m44.78 33.12c0 1.33-1.08 2.41-2.41 2.41s-2.41-1.08-2.41-2.41 1.08-2.42 2.41-2.42c1.34 0 2.41 1.08 2.41 2.42z"/><path d="m85.94 15.54c0 1.33-1.08 2.41-2.41 2.41s-2.41-1.08-2.41-2.41 1.07-2.42 2.41-2.42c1.33 0 2.41 1.09 2.41 2.42z"/><path d="m93.77 34.77c0 1.33-1.08 2.41-2.42 2.41-1.33 0-2.41-1.08-2.41-2.41s1.08-2.41 2.41-2.41c1.34.01 2.42 1.08 2.42 2.41z"/><path d="m118.5 29.87c0 1.33-1.08 2.41-2.41 2.41s-2.41-1.08-2.41-2.41 1.08-2.42 2.41-2.42 2.41 1.08 2.41 2.42z"/><path d="m115.57 49.08c0 1.32-1.07 2.41-2.41 2.41-1.33 0-2.41-1.08-2.41-2.41s1.08-2.42 2.41-2.42 2.41 1.08 2.41 2.42z"/></g></g></svg>