<svg xmlns="http://www.w3.org/2000/svg" viewBox="0 0 128 128"><path fill="#E4EAEE" d="M108.55 45.69s1.97-34.42-27.94-38.86C53.72 2.85 48.44 28.38 48.44 28.38s-9.52-2.44-16.82 4.08C24.36 38.93 25 46.11 25 46.11S6.84 44.28 5.01 59.63c-1.71 14.34 19 10.35 19 10.35l100.38-7.39s2.38-7.54-5.21-13.23c-4.51-3.39-10.63-3.67-10.63-3.67Z"/><path fill="#B9CED2" d="M56.95 55.83c.84-.28 3.37 2.96 17.18 2.96 14.36 0 32.1-12.11 32.1-12.11s-.07 4.74-1.55 7.18c-1.97 3.24-6.48 5.07-6.48 5.07s6.48 2.67 15.06 1.97c6.51-.53 11.17-3.99 11.17-3.99s.63 3.21.28 6.34c-.7 6.24-4.32 8.02-8.35 8.49-2.97.34-28.39 1.21-38.81 1.31-9.39.09-56.96.21-61.85-.33-5.07-.56-8.87-3.24-10.28-7.6C4.35 61.81 5 58.64 5 58.64s5.77 2.25 12.67 2.25c6.61 0 11.54-3.1 11.54-3.1s5.21 3.57 13.94 2.82c7.54-.64 13.8-4.78 13.8-4.78Z"/><path fill="#92C9F4" d="M104.07 81.59s2.25-3.66 2.85-4.4c.6-.74 1.62-1.55 2.89-.84 1.27.7.84 2.15.49 2.78-.35.63-2.46 4.72-2.46 4.72s3.98.04 4.86.04c.88 0 2.46.7 2.46 2.25 0 1.34-.63 2.18-2.15 2.25-1.52.07-5.31.07-5.31.07s2.04 3.34 2.64 4.36c.6 1.02.67 2.25-.21 2.99-1.13.95-2.6.42-3.48-.95-.66-1.04-2.71-4.01-2.71-4.01s-2.43 3.52-3.06 4.29c-.63.77-1.79 1.69-2.96.81-1.44-1.09-.61-2.32 0-3.27l2.6-4.08s-4.43-.11-5.7-.11c-1.27 0-2.36-.7-2.29-2.15.07-1.48.99-2.08 2.5-2.11 1.51-.04 5.53-.04 5.53-.04s-2.46-3.52-3.1-4.54c-.63-1.02-.7-2.32.28-3.06.99-.74 2.15-.32 2.89.63.74.95 3.44 4.37 3.44 4.37ZM65.21 85.22s2.25-3.66 2.85-4.4c.6-.74 1.62-1.55 2.89-.84 1.27.7.84 2.15.49 2.78-.35.63-2.46 4.72-2.46 4.72s3.98.04 4.86.04c.88 0 2.46.7 2.46 2.25 0 1.34-.63 2.18-2.15 2.25-1.51.07-5.31.07-5.31.07s2.04 3.34 2.64 4.36c.6 1.02.67 2.25-.21 2.99-1.13.95-2.6.42-3.48-.95-.66-1.04-2.71-4.01-2.71-4.01s-2.43 3.52-3.06 4.29c-.63.77-1.79 1.69-2.96.81-1.44-1.09-.61-2.32 0-3.27l2.6-4.08s-4.43-.11-5.7-.11c-1.27 0-2.36-.7-2.29-2.15.07-1.48.99-2.08 2.5-2.11 1.51-.04 5.53-.04 5.53-.04s-2.46-3.52-3.1-4.54c-.63-1.02-.7-2.32.28-3.06.99-.74 2.15-.32 2.89.63.74.95 3.44 4.37 3.44 4.37ZM44.19 105.43s2.25-3.66 2.85-4.4c.6-.74 1.62-1.55 2.89-.84 1.27.7.84 2.15.49 2.78-.35.63-2.46 4.72-2.46 4.72s3.98.04 4.86.04c.88 0 2.46.7 2.46 2.25 0 1.34-.63 2.18-2.15 2.25-1.51.07-5.31.07-5.31.07s2.04 3.34 2.64 4.36c.6 1.02.67 2.25-.21 2.99-1.13.95-2.6.42-3.48-.95-.66-1.04-2.71-4.01-2.71-4.01s-2.43 3.52-3.06 4.29c-.63.77-1.79 1.69-2.96.81-1.44-1.09-.61-2.32 0-3.27l2.6-4.08s-4.43-.11-5.7-.11c-1.27 0-2.36-.7-2.29-2.15.07-1.48.99-2.08 2.5-2.11 1.51-.04 5.53-.04 5.53-.04s-2.46-3.52-3.1-4.54c-.63-1.02-.7-2.32.28-3.06.99-.74 2.15-.32 2.89.63.74.95 3.44 4.37 3.44 4.37ZM26.9 82.16s2.31-3.63 2.92-4.36c.61-.73 1.65-1.52 2.9-.8 1.26.72.81 2.16.45 2.79-.36.63-2.54 4.68-2.54 4.68s3.98.1 4.86.11c.88.01 2.45.74 2.43 2.29-.02 1.34-.67 2.17-2.18 2.22-1.51.05-5.31-.01-5.31-.01s1.99 3.37 2.57 4.4c.58 1.03.64 2.26-.26 2.99-1.14.93-2.61.38-3.47-1-.65-1.05-2.65-4.05-2.65-4.05s-2.48 3.48-3.13 4.25c-.65.76-1.81 1.67-2.97.76-1.43-1.11-.57-2.33.05-3.27l2.67-4.04s-4.43-.17-5.7-.19c-1.27-.02-2.35-.74-2.25-2.18.09-1.48 1.02-2.06 2.53-2.07 1.51-.01 5.53.05 5.53.05s-2.41-3.56-3.03-4.59c-.62-1.03-.67-2.33.33-3.06 1-.72 2.15-.28 2.88.68.71.94 3.37 4.4 3.37 4.4ZM87.08 105.15s2.25-3.66 2.85-4.4c.6-.74 1.62-1.55 2.89-.84 1.27.7.84 2.15.49 2.78-.35.63-2.46 4.72-2.46 4.72s3.98.04 4.86.04c.88 0 2.46.7 2.46 2.25 0 1.34-.63 2.18-2.15 2.25-1.52.07-5.31.07-5.31.07s2.04 3.34 2.64 4.36c.6 1.02.67 2.25-.21 2.99-1.13.95-2.6.42-3.48-.95-.66-1.04-2.71-4.01-2.71-4.01s-2.43 3.52-3.06 4.29c-.63.77-1.79 1.69-2.96.81-1.44-1.09-.61-2.32 0-3.27l2.6-4.08s-4.43-.11-5.7-.11c-1.27 0-2.36-.7-2.29-2.15.07-1.48.99-2.08 2.5-2.11 1.51-.03 5.53-.04 5.53-.04s-2.46-3.52-3.1-4.54c-.63-1.02-.7-2.32.28-3.06.99-.74 2.15-.32 2.89.63.74.95 3.44 4.37 3.44 4.37Z"/></svg>