<svg viewBox="0 0 128 128" xmlns="http://www.w3.org/2000/svg" xmlns:xlink="http://www.w3.org/1999/xlink"><defs><path id="a" d="m93.35 54.72c-1.27-.9-2.37.08-3.81.59-6.21 2.19-12.39 1.85-18.61-.07-6-1.87-11.76-4.33-18.07-4.98-4.05-.42-8.2 0-12.01 1.51-2.79 1.1-5.57 2.52-7.14 5.2-1.3 2.22-.72 5.47-.39 7.91.64 4.69 2.38 9.21 5.4 12.88 4.66 5.65 11.7 8.71 18.76 9.99 2.14.39 4.32.63 6.5.65 1.84.03 3.71-.2 5.51-.49 6.85-1.08 13.73-3.77 18.59-8.85 3.13-3.27 5.18-7.39 6.15-11.79.63-2.9.83-5.91.7-8.88-.05-1.36-.25-2.41-1.28-3.39-.08-.11-.19-.21-.3-.28z"/><clipPath id="b"><use xlink:href="#a"/></clipPath></defs><path d="m88.74 12.69s13.78 22.82 13.78 48.74c0 36.29-38.52 35.78-38.52 35.78s-38.52.5-38.52-35.78c0-25.92 13.9-48.74 13.9-48.74z" fill="#fff"/><path d="m87.26 15.91c3.77 7.17 12.42 25.84 12.42 46.02 0 31.16-31.95 32.07-35.6 32.07-.01 0-.04 0-.06 0-.04 0-.08 0-.11 0-3.64 0-35.59-.9-35.59-32.07 0-20.19 8.74-38.87 12.53-46.02zm3.82-6.48h-54.03s-15.21 24.59-15.21 52.5c0 38.04 39.93 38.55 42.07 38.55h.09s.03 0 .09 0c2.15 0 42.08-.51 42.08-38.55 0-27.91-15.09-52.5-15.09-52.5z" fill="#78a3ad"/><path d="m89.49 11.61c0 6.28-11.38 9.78-25.43 9.78s-25.43-3.5-25.43-9.78 11.38-9.79 25.43-9.79c14.05.01 25.43 3.52 25.43 9.79z" fill="#fff"/><path d="m64.06 6.64c14.32 0 20.44 3.74 20.93 4.93-.49 1.28-6.61 5.02-20.93 5.02s-20.44-3.73-20.93-4.92c.49-1.29 6.61-5.03 20.93-5.03m0-6.48c-15.14 0-27.4 4.11-27.4 11.46 0 7.36 12.27 11.45 27.4 11.45s27.41-4.09 27.41-11.45-12.27-11.46-27.41-11.46z" fill="#78a3ad"/><path d="m59.07 99.83c-.46.52-.13 1.56-.13 2.26v2.45c0 1.33-.38 2.49-.99 3.55-1.66 2.85-4.58 4.01-7.07 5.39-1.68.93-5.79 3.1-5.55 5.97.29 3.49 5.23 4.96 7.36 5.55 4.95 1.4 10.07 1.05 15.09.56 2.13-.21 4.31-.62 6.38-1.28 1.5-.48 5.12-1.61 5.62-3.8.91-4.04-5.64-6.35-7.66-7.42-2.77-1.47-5.87-3.48-5.87-7.73 0-1.17 0-2.32.14-3.44.1-.75-.13-2.3.51-2.69z" fill="#fff"/><path d="m62.32 109.69c2.45 5.68 8.48 8.27 11.09 9.39.48.21 1.11.45 1.83.73.13.05.3.11.47.18-1.97.43-4.1.73-6.34.91-3.07.24-6.35.47-9.5.47-3.7 0-6.88-.32-9.72-.96-.81-.19-1.51-.36-2.12-.53.18-.08.36-.16.54-.24l.24-.11c.52-.23 1.06-.46 1.6-.69 3.53-1.5 7.93-3.38 10.93-7.58.36-.53.69-1.05.98-1.57m6.31-12.35-10.99.72c-.65.58-.18 1.77-.18 2.58v2.79c0 1.51-.54 2.84-1.39 4.04-2.33 3.24-6.44 4.56-9.92 6.13-2.35 1.06-8.12 3.53-7.78 6.8.41 3.97 7.34 5.64 10.33 6.32 3.67.84 7.41 1.13 11.17 1.13 3.35 0 6.7-.23 10.01-.49 2.99-.24 6.05-.7 8.95-1.45 2.11-.54 7.19-1.83 7.89-4.33 1.27-4.6-7.91-7.23-10.75-8.45-3.89-1.67-8.24-3.96-8.25-8.79 0-1.34 0-2.64.19-3.92.14-.87-.17-2.63.72-3.08z" fill="#78a3ad"/><use fill="#ed6c30" xlink:href="#a"/><path clip-path="url(#b)" d="m86.93 56.19c-21.85 3.81-40.31 10.15-50.45 5.22-7.28-3.54-.81-9.05 5.78-10.85 15.92-4.37 22.08 2.99 31.15 4.11 5.47.66 8.02 1.95 13.52 1.52z" fill="#f79329"/></svg>