<svg viewBox="0 0 128 128" xmlns="http://www.w3.org/2000/svg"><path d="m112.24 84.45c5.72 9.9 1.65 22.85-8.85 28.88l-19.5 11.33c-10.17 5.97-23.15 2.81-29.22-7.02l-23.26-42.35c-6.64-9.72-3.5-22.49 7.18-28.55l18.09-10.73c10.98-6.12 21.02-.31 27.32 9.46z" fill="#40c0e7"/><path d="m64.34 13.87s-5.41-8.13-31.04 7.29c-25.44 15.31-19.55 24.64-19.55 24.64l6.2 13.19c3.65 6.05 18.23 3.89 32.82-4.99 14.89-9.07 24.18-21.69 20.47-28.04z" fill="#f6e599"/><path d="m63.15 14.52c2.8 4.73-5.85 15.07-19.35 23.08-13.51 8.02-26.72 10.68-29.53 5.94-2.8-4.73 5.86-15.06 19.34-23.07 13.52-8.02 26.74-10.68 29.54-5.95z" fill="#fff3ca"/><path d="m53.88 15.52.02-.02c-1.8-1.91-5.73-3.41-11.29-2.91-1.46.12-3.34.54-4.27.34-1.88-.41-2.64-2.03-2.89-2.92-.19-.59-.51-2.45-.51-2.45h-.02c-.18-.96-.5-1.92-.99-2.82-2.32-4.19-7.21-5.66-10.94-3.3-3.69 2.34-4.81 7.57-2.52 11.68.48.89 1.12 1.64 1.83 2.27l-.01.02s1.37 1.21 1.75 1.64c.59.68 1.54 2.15.99 4.05-.29.93-1.53 2.4-2.33 3.63-2.97 4.64-3.6 8.79-2.91 11.27l.01-.01c.09.43.23.86.44 1.25 2.39 4.27 11.86 3.31 21.32-2.26 9.64-5.66 15.61-13.94 13.16-18.4-.21-.41-.51-.74-.84-1.06z" fill="#f79329"/><path d="m96.42 71.79-57.52.25c.22 2.29.92 4.51 2.22 6.54l17.95 33.78c4.96 7.76 15.61 10.1 23.8 5.24l15.43-9.17c8.18-4.85 11.17-15.44 6.67-23.63z" fill="#fff"/><g fill="#006ca2"><path d="m85.81 102.9c.25.41.11.94-.3 1.18-.41.25-.94.11-1.18-.3l-23.58-39.69c-.23-.41-.1-.95.31-1.19.4-.25.94-.11 1.19.3z"/><path d="m63.9 61.86c.22.38.1.87-.28 1.1l-3.91 2.32c-.38.22-.87.1-1.1-.28s-.11-.87.28-1.1l3.91-2.32c.38-.23.87-.1 1.1.28z"/><path d="m75.73 81.78c.23.39.1.87-.28 1.11l-3.92 2.32c-.37.22-.87.1-1.1-.28-.22-.38-.1-.88.29-1.1l3.9-2.32c.4-.23.89-.11 1.11.27z"/><path d="m87.56 101.72c.23.38.11.88-.28 1.1l-3.9 2.32c-.39.23-.88.1-1.11-.28s-.11-.88.28-1.1l3.91-2.32c.39-.23.88-.1 1.1.28z"/></g></svg>