<svg xmlns="http://www.w3.org/2000/svg" viewBox="0 0 128 128"><defs><linearGradient id="a" x1="22.748" x2="105.252" y1="64" y2="64" gradientUnits="userSpaceOnUse"><stop offset="0" stop-color="#EEE"/><stop offset="1" stop-color="#757575"/></linearGradient></defs><path fill="url(#a)" d="M92.53 124H35.47c-7 0-12.72-5.72-12.72-12.72V16.72c0-7 5.72-12.72 12.72-12.72h57.06c7 0 12.72 5.72 12.72 12.72v94.56c0 7-5.72 12.72-12.72 12.72Z"/><path fill="#BDBDBD" d="M87.84 124H40.16c-7.41 0-13.47-6.06-13.47-13.47V17.47C26.68 10.06 32.75 4 40.16 4h47.69c7.41 0 13.47 6.06 13.47 13.47v93.05c0 7.42-6.07 13.48-13.48 13.48Z"/><path fill="#212121" d="M64.07 115.19h-.14c-2.2 0-4-1.8-4-4V16.81c0-2.2 1.8-4 4-4h.14c2.2 0 4 1.8 4 4v94.37c0 2.21-1.8 4.01-4 4.01Z"/><path fill="#E0E0E0" d="M64 12.81c-.42 0-.82.08-1.21.2 1.65.5 2.86 1.98 2.86 3.74v94.5c0 1.76-1.21 3.24-2.86 3.74.38.12.78.2 1.21.2 2.24 0 4.07-1.77 4.07-3.94v-94.5c0-2.16-1.83-3.94-4.07-3.94Z"/><path fill="#424242" d="M73.54 15.29H91.4q1 0 1 1t-1 1H73.54q-1 0-1-1t1-1ZM73.54 24.83H91.4q1 0 1 1t-1 1H73.54q-1 0-1-1t1-1ZM73.54 34.37H91.4q1 0 1 1t-1 1H73.54q-1 0-1-1t1-1ZM73.54 43.92H91.4q1 0 1 1t-1 1H73.54q-1 0-1-1t1-1ZM73.54 53.46H91.4q1 0 1 1t-1 1H73.54q-1 0-1-1t1-1ZM73.54 63H91.4q1 0 1 1t-1 1H73.54q-1 0-1-1t1-1ZM73.54 72.54H91.4q1 0 1 1t-1 1H73.54q-1 0-1-1t1-1ZM73.54 82.08H91.4q1 0 1 1t-1 1H73.54q-1 0-1-1t1-1ZM73.54 91.63H91.4q1 0 1 1t-1 1H73.54q-1 0-1-1t1-1ZM73.54 101.17H91.4q1 0 1 1t-1 1H73.54q-1 0-1-1t1-1ZM73.54 110.71H91.4q1 0 1 1t-1 1H73.54q-1 0-1-1t1-1ZM36.6 15.29h17.86q1 0 1 1t-1 1H36.6q-1 0-1-1t1-1ZM36.6 24.83h17.86q1 0 1 1t-1 1H36.6q-1 0-1-1t1-1ZM36.6 34.37h17.86q1 0 1 1t-1 1H36.6q-1 0-1-1t1-1ZM36.6 43.92h17.86q1 0 1 1t-1 1H36.6q-1 0-1-1t1-1ZM36.6 53.46h17.86q1 0 1 1t-1 1H36.6q-1 0-1-1t1-1ZM36.6 63h17.86q1 0 1 1t-1 1H36.6q-1 0-1-1t1-1ZM36.6 72.54h17.86q1 0 1 1t-1 1H36.6q-1 0-1-1t1-1ZM36.6 82.08h17.86q1 0 1 1t-1 1H36.6q-1 0-1-1t1-1ZM36.6 91.63h17.86q1 0 1 1t-1 1H36.6q-1 0-1-1t1-1ZM36.6 101.17h17.86q1 0 1 1t-1 1H36.6q-1 0-1-1t1-1ZM36.6 110.71h17.86q1 0 1 1t-1 1H36.6q-1 0-1-1t1-1Z"/><path d="M76.33 53.49H57.47c-2.72 0-4.92-2.2-4.92-4.92v-2.12c0-2.72 2.2-4.92 4.92-4.92h18.86c2.72 0 4.92 2.2 4.92 4.92v2.12c0 2.71-2.2 4.92-4.92 4.92Z" opacity=".26"/><path d="M73.33 50.41H54.47c-2.72 0-4.92-2.2-4.92-4.92v-2.12c0-2.72 2.2-4.92 4.92-4.92h18.86c2.72 0 4.92 2.2 4.92 4.92v2.12c0 2.72-2.2 4.92-4.92 4.92Z"/><path fill="#455A64" d="M59.4 43.63h-5.69c-1.85 0-2.57-2.39-1.03-3.42.7-.47 1.67-.79 3-.79h9.41c.38 0 .53.49.21.7-2.32 1.6-2.42 3.51-5.9 3.51Z"/></svg>