<svg xmlns="http://www.w3.org/2000/svg" viewBox="0 0 128 128"><defs><linearGradient id="a" x1="18.198" x2="87.209" y1="78.961" y2="57.926" gradientUnits="userSpaceOnUse"><stop offset="0" stop-color="#424242"/><stop offset=".394" stop-color="#44545B"/><stop offset=".517" stop-color="#455A64"/><stop offset=".741" stop-color="#445157"/><stop offset="1" stop-color="#424242"/></linearGradient><linearGradient id="b" x1="27.017" x2="88.012" y1="80.859" y2="54.936" gradientUnits="userSpaceOnUse"><stop offset="0" stop-color="#FFCC80" stop-opacity="0"/><stop offset=".486" stop-color="#FFCC80" stop-opacity=".4"/><stop offset="1" stop-color="#FFCC80" stop-opacity="0"/></linearGradient></defs><path fill="#B7855F" d="M4 33.83h120V95.8H4V33.83Z" opacity=".85"/><path fill="url(#a)" d="M124 34.96V18.24H4v16.73h11.98v59.71H4v17.09h120v-17.1h-11.98V34.96H124Zm-10.65-8.94c0-.91.74-1.65 1.65-1.65h2.18c.91 0 1.65.74 1.65 1.65v4.01c0 .91-.74 1.65-1.65 1.65H115c-.91 0-1.65-.74-1.65-1.65v-4.01Zm-98.7 4.01c0 .91-.74 1.65-1.65 1.65h-2.18c-.91 0-1.65-.74-1.65-1.65v-4.01c0-.91.74-1.65 1.65-1.65H13c.91 0 1.65.74 1.65 1.65v4.01Zm0 73.59c0 .91-.74 1.65-1.65 1.65h-2.18c-.91 0-1.65-.74-1.65-1.65V99.6c0-.91.74-1.65 1.65-1.65H13c.91 0 1.65.74 1.65 1.65v4.02Zm98.7-4.02c0-.91.74-1.65 1.65-1.65h2.18c.91 0 1.65.74 1.65 1.65v4.01c0 .91-.74 1.65-1.65 1.65H115c-.91 0-1.65-.74-1.65-1.65V99.6Zm-11.58-73.58c0-.91.74-1.65 1.65-1.65h2.18c.91 0 1.65.74 1.65 1.65v4.01c0 .91-.74 1.65-1.65 1.65h-2.18c-.91 0-1.65-.74-1.65-1.65v-4.01Zm-11.57 0c0-.91.74-1.65 1.65-1.65h2.18c.91 0 1.65.74 1.65 1.65v4.01c0 .91-.74 1.65-1.65 1.65h-2.18c-.91 0-1.65-.74-1.65-1.65v-4.01Zm-11.58 0c0-.91.74-1.65 1.65-1.65h2.18c.91 0 1.65.74 1.65 1.65v4.01c0 .91-.74 1.65-1.65 1.65h-2.18c-.91 0-1.65-.74-1.65-1.65v-4.01Zm-11.57 0c0-.91.74-1.65 1.65-1.65h2.18c.91 0 1.65.74 1.65 1.65v4.01c0 .91-.74 1.65-1.65 1.65H68.7c-.91 0-1.65-.74-1.65-1.65v-4.01Zm-11.58 0c0-.91.74-1.65 1.65-1.65h2.18c.91 0 1.65.74 1.65 1.65v4.01c0 .91-.74 1.65-1.65 1.65h-2.18c-.91 0-1.65-.74-1.65-1.65v-4.01Zm-11.57 0c0-.91.74-1.65 1.65-1.65h2.18c.91 0 1.65.74 1.65 1.65v4.01c0 .91-.74 1.65-1.65 1.65h-2.18c-.91 0-1.65-.74-1.65-1.65v-4.01Zm-11.58 0c0-.91.74-1.65 1.65-1.65h2.18c.91 0 1.65.74 1.65 1.65v4.01c0 .91-.74 1.65-1.65 1.65h-2.18c-.91 0-1.65-.74-1.65-1.65v-4.01Zm-11.57 0c0-.91.74-1.65 1.65-1.65h2.18c.91 0 1.65.74 1.65 1.65v4.01c0 .91-.74 1.65-1.65 1.65H22.4c-.91 0-1.65-.74-1.65-1.65v-4.01Zm5.48 77.6c0 .91-.74 1.65-1.65 1.65H22.4c-.91 0-1.65-.74-1.65-1.65V99.6c0-.91.74-1.65 1.65-1.65h2.18c.91 0 1.65.74 1.65 1.65v4.02Zm11.57 0c0 .91-.74 1.65-1.65 1.65h-2.18c-.91 0-1.65-.74-1.65-1.65V99.6c0-.91.74-1.65 1.65-1.65h2.18c.91 0 1.65.74 1.65 1.65v4.02Zm11.58 0c0 .91-.74 1.65-1.65 1.65h-2.18c-.91 0-1.65-.74-1.65-1.65V99.6c0-.91.74-1.65 1.65-1.65h2.18c.91 0 1.65.74 1.65 1.65v4.02Zm11.57 0c0 .91-.74 1.65-1.65 1.65h-2.18c-.91 0-1.65-.74-1.65-1.65V99.6c0-.91.74-1.65 1.65-1.65h2.18c.91 0 1.65.74 1.65 1.65v4.02Zm11.58 0c0 .91-.74 1.65-1.65 1.65H68.7c-.91 0-1.65-.74-1.65-1.65V99.6c0-.91.74-1.65 1.65-1.65h2.18c.91 0 1.65.74 1.65 1.65v4.02Zm11.57 0c0 .91-.74 1.65-1.65 1.65h-2.18c-.91 0-1.65-.74-1.65-1.65V99.6c0-.91.74-1.65 1.65-1.65h2.18c.91 0 1.65.74 1.65 1.65v4.02Zm11.58 0c0 .91-.74 1.65-1.65 1.65h-2.18c-.91 0-1.65-.74-1.65-1.65V99.6c0-.91.74-1.65 1.65-1.65h2.18c.91 0 1.65.74 1.65 1.65v4.02Zm11.57 0c0 .91-.74 1.65-1.65 1.65h-2.18c-.91 0-1.65-.74-1.65-1.65V99.6c0-.91.74-1.65 1.65-1.65h2.18c.91 0 1.65.74 1.65 1.65v4.02Zm.79-8.95H19.96V34.96h88.08v59.71Z"/><path fill="#757575" d="M4.66 17.761H124v.958H4.66v-.958Z"/><path fill="url(#b)" d="M20.29 35.15h88.08v59.71H20.29V35.15Z"/></svg>