<svg viewBox="0 0 128 128" xmlns="http://www.w3.org/2000/svg"><g fill="#2f2f2f"><path d="m64.01 104.52c-28.68 0-52-23.33-52-52s23.33-52 52-52 52 23.33 52 52-23.33 52-52 52zm0-99.37c-26.12 0-47.38 21.25-47.38 47.37s21.26 47.38 47.38 47.38 47.37-21.25 47.37-47.37-21.25-47.38-47.37-47.38z"/><path d="m64.01 75.72c-12.8 0-23.21-10.41-23.21-23.2s10.41-23.2 23.21-23.2c12.79 0 23.2 10.41 23.2 23.2-.01 12.79-10.41 23.2-23.2 23.2zm0-41.77c-10.25 0-18.58 8.33-18.58 18.57s8.33 18.57 18.58 18.57c10.24 0 18.57-8.33 18.57-18.57s-8.33-18.57-18.57-18.57z"/><path d="m64.01 59.89c-4.06 0-7.37-3.3-7.37-7.37 0-4.06 3.31-7.37 7.37-7.37s7.37 3.3 7.37 7.37-3.31 7.37-7.37 7.37zm0-10.1c-1.51 0-2.74 1.23-2.74 2.74s1.23 2.74 2.74 2.74 2.74-1.23 2.74-2.74-1.23-2.74-2.74-2.74z"/><path d="m64.01 54.84c-1.28 0-2.32-1.04-2.32-2.31v-49.69c0-1.28 1.04-2.31 2.32-2.31s2.31 1.04 2.31 2.31v49.69c0 1.27-1.04 2.31-2.31 2.31z"/><path d="m64.01 54.84c-.53 0-1.05-.18-1.49-.54-.98-.82-1.11-2.28-.29-3.26l31.94-38.06c.82-.98 2.28-1.1 3.26-.28s1.11 2.28.29 3.26l-31.95 38.05c-.45.55-1.1.83-1.76.83z"/><path d="m64 54.84c-1.1 0-2.08-.79-2.28-1.91-.21-1.26.62-2.46 1.88-2.68l48.93-8.62c1.27-.23 2.46.62 2.69 1.88.21 1.26-.63 2.46-1.88 2.68l-48.93 8.61c-.14.03-.28.04-.41.04z"/><path d="m107.03 79.69c-.4 0-.79-.1-1.16-.31l-43.02-24.85c-1.11-.64-1.49-2.06-.85-3.16s2.06-1.48 3.16-.84l43.03 24.85c1.11.64 1.49 2.05.85 3.16-.43.73-1.21 1.15-2.01 1.15z"/><path d="m81 101.53c-.95 0-1.84-.58-2.18-1.52l-16.99-46.7c-.44-1.2.19-2.53 1.38-2.97 1.2-.44 2.53.18 2.96 1.38l16.99 46.7c.44 1.2-.18 2.53-1.38 2.97-.26.1-.53.14-.78.14z"/><path d="m47 101.53c-.26 0-.53-.04-.79-.14-1.2-.44-1.82-1.77-1.38-2.97l17-46.69c.44-1.2 1.76-1.82 2.97-1.38 1.2.44 1.82 1.76 1.38 2.97l-17 46.69c-.35.94-1.23 1.52-2.18 1.52z"/><path d="m20.97 79.68c-.8 0-1.58-.42-2.01-1.16-.63-1.11-.26-2.52.85-3.16l43.04-24.84c1.1-.63 2.52-.26 3.15.85.64 1.11.26 2.52-.85 3.16l-43.03 24.84c-.36.21-.76.31-1.15.31z"/><path d="m64.01 54.84c-.13 0-.27-.01-.4-.04l-48.94-8.63c-1.26-.22-2.1-1.42-1.87-2.68.22-1.26 1.41-2.11 2.68-1.88l48.94 8.63c1.26.22 2.1 1.42 1.87 2.68-.2 1.13-1.18 1.92-2.28 1.92z"/><path d="m64.01 54.84c-.66 0-1.32-.28-1.78-.83l-31.94-38.07c-.82-.98-.69-2.44.29-3.26s2.44-.7 3.26.29l31.93 38.07c.82.98.7 2.44-.28 3.26-.43.36-.96.54-1.48.54z"/><path d="m76.14 121.34c-.01 0-.03 0-.04 0h-24.19c-.69 0-1.34-.3-1.77-.83-.44-.53-.63-1.22-.5-1.9l12.1-66.5c.2-1.1 1.16-1.9 2.28-1.9s2.08.8 2.28 1.9l12.01 66.06c.11.26.17.55.17.85-.02 1.28-1.06 2.32-2.34 2.32zm-21.46-4.63h18.65l-9.32-51.25z"/><path d="m51.91 119.02h24.18v6.44h-24.18z"/><path d="m76.09 127.77h-24.18c-1.28 0-2.32-1.04-2.32-2.31v-6.44c0-1.28 1.04-2.31 2.32-2.31h24.18c1.28 0 2.32 1.04 2.32 2.31v6.44c0 1.28-1.04 2.31-2.32 2.31zm-21.87-4.62h19.56v-1.81h-19.56z"/><path d="m69.88 87.17h-11.76c-1.28 0-2.32-1.04-2.32-2.31 0-1.28 1.04-2.31 2.32-2.31h11.76c1.28 0 2.31 1.04 2.31 2.31.01 1.28-1.02 2.31-2.31 2.31z"/></g><path d="m42.82 25.19c0 5.93-4.82 10.74-10.75 10.74-5.94 0-10.74-4.8-10.74-10.74s4.81-10.74 10.74-10.74 10.75 4.8 10.75 10.74z" fill="#d7598b"/><path d="m35.96 20.07c-2.65-1.79-6.78-1.71-8.7.97-.54.74-1.29 1.89-.89 2.84.31.76 1.22 1.03 1.95 1.19 1.42.29 10.95 1.11 9.83-2.23-.39-1.16-1.19-2.1-2.19-2.77z" fill="#40c0e7"/><path d="m74.75 10.96c0 5.93-4.82 10.74-10.74 10.74-5.94 0-10.75-4.8-10.75-10.74s4.81-10.74 10.75-10.74c5.92.01 10.74 4.81 10.74 10.74z" fill="#d7598b"/><path d="m67.9 5.85c-2.66-1.79-6.78-1.71-8.7.97-.53.74-1.28 1.89-.88 2.85.31.75 1.22 1.03 1.95 1.18 1.42.29 10.95 1.11 9.83-2.23-.41-1.16-1.2-2.11-2.2-2.77z" fill="#40c0e7"/><path d="m106.69 25.2c0 5.93-4.82 10.74-10.74 10.74-5.94 0-10.74-4.8-10.74-10.74s4.8-10.74 10.74-10.74c5.92 0 10.74 4.8 10.74 10.74z" fill="#d7598b"/><path d="m99.83 20.09c-2.66-1.79-6.78-1.71-8.7.97-.54.74-1.28 1.89-.89 2.85.31.75 1.22 1.03 1.95 1.19 1.42.29 10.95 1.11 9.82-2.23-.38-1.17-1.17-2.12-2.18-2.78z" fill="#40c0e7"/><path d="m123.68 54.64c0 5.93-4.82 10.74-10.74 10.74-5.94 0-10.75-4.8-10.75-10.74s4.81-10.74 10.75-10.74c5.92 0 10.74 4.8 10.74 10.74z" fill="#d7598b"/><path d="m116.83 49.52c-2.66-1.79-6.78-1.71-8.69.97-.54.74-1.29 1.89-.89 2.84.31.76 1.22 1.03 1.95 1.19 1.42.29 10.95 1.11 9.82-2.23-.39-1.16-1.19-2.1-2.19-2.77z" fill="#40c0e7"/><path d="m117.77 88.11c0 5.93-4.82 10.74-10.74 10.74-5.94 0-10.74-4.8-10.74-10.74s4.8-10.74 10.74-10.74c5.92 0 10.74 4.8 10.74 10.74z" fill="#d7598b"/><path d="m110.93 82.99c-2.66-1.79-6.78-1.71-8.7.97-.54.74-1.28 1.89-.89 2.85.31.75 1.22 1.03 1.95 1.19 1.42.29 10.95 1.11 9.83-2.23-.4-1.17-1.2-2.11-2.19-2.78z" fill="#40c0e7"/><path d="m31.71 88.1c0 5.93-4.82 10.74-10.74 10.74-5.94 0-10.75-4.8-10.75-10.74s4.81-10.74 10.75-10.74c5.92 0 10.74 4.8 10.74 10.74z" fill="#d7598b"/><path d="m24.86 82.98c-2.66-1.79-6.79-1.71-8.7.97-.53.74-1.28 1.89-.88 2.85.31.75 1.22 1.03 1.94 1.19 1.42.29 10.95 1.11 9.83-2.23-.39-1.17-1.19-2.11-2.19-2.78z" fill="#40c0e7"/><path d="m25.81 54.62c0 5.93-4.82 10.74-10.74 10.74-5.94 0-10.75-4.8-10.75-10.74s4.81-10.74 10.75-10.74c5.92 0 10.74 4.81 10.74 10.74z" fill="#d7598b"/><path d="m18.96 49.51c-2.66-1.79-6.78-1.71-8.7.97-.54.74-1.28 1.89-.89 2.85.31.75 1.22 1.03 1.95 1.18 1.42.29 10.95 1.11 9.83-2.23-.39-1.16-1.19-2.11-2.19-2.77z" fill="#40c0e7"/><path d="m91.73 107.34c0 5.93-4.82 10.74-10.74 10.74-5.94 0-10.75-4.8-10.75-10.74s4.81-10.74 10.75-10.74c5.93 0 10.74 4.8 10.74 10.74z" fill="#d7598b"/><path d="m84.89 102.23c-2.66-1.79-6.78-1.71-8.7.97-.53.74-1.28 1.89-.88 2.85.31.75 1.22 1.03 1.95 1.18 1.42.29 10.95 1.11 9.83-2.23-.41-1.17-1.2-2.11-2.2-2.77z" fill="#40c0e7"/><path d="m58.78 106.53c0 5.93-4.82 10.74-10.74 10.74-5.94 0-10.75-4.8-10.75-10.74s4.81-10.74 10.75-10.74c5.92 0 10.74 4.8 10.74 10.74z" fill="#d7598b"/><path d="m51.93 101.41c-2.65-1.78-6.78-1.71-8.7.97-.53.74-1.28 1.88-.89 2.84.31.75 1.22 1.03 1.95 1.19 1.42.29 10.95 1.11 9.83-2.23-.4-1.16-1.19-2.1-2.19-2.77z" fill="#40c0e7"/></svg>