<svg viewBox="0 0 128 128" xmlns="http://www.w3.org/2000/svg" xmlns:xlink="http://www.w3.org/1999/xlink"><defs><clipPath id="a"><path d="m63.08 34.36c.03 11.42-9.22 20.7-20.66 20.72-11.41.02-20.7-9.23-20.72-20.65s9.23-20.7 20.65-20.73c11.43-.01 20.7 9.23 20.73 20.66z"/></clipPath><clipPath id="b"><use xlink:href="#c"/></clipPath><path id="c" d="m93.64 53.09c-10.29 4.82-22.53.39-27.35-9.9s-.39-22.53 9.89-27.35c10.3-4.82 22.55-.39 27.36 9.89 4.83 10.29.39 22.53-9.9 27.36z"/></defs><path d="m77.67 5.04c7.67 6.7 8.45 18.34 1.75 26-6.69 7.66-18.34 8.45-26 1.75-7.67-6.7-8.45-18.34-1.76-26 6.7-7.67 18.35-8.45 26.01-1.75z" fill="#757f3f"/><path d="m84.78 24.55c-3.09-9.7 2.27-20.07 11.96-23.15 9.7-3.09 20.07 2.27 23.16 11.96 3.1 9.7-2.27 20.07-11.97 23.15-9.69 3.1-20.06-2.26-23.15-11.96z" fill="#ed6c30"/><path d="m120.92 18.94c.01 10.21-8.25 18.49-18.45 18.51-10.21.02-18.49-8.24-18.52-18.44-.02-10.2 8.24-18.5 18.45-18.51 10.21-.02 18.49 8.24 18.52 18.44z" fill="#ed6c30"/><path d="m47.12 18.91c0 10.18-8.25 18.43-18.44 18.43-10.17 0-18.43-8.25-18.43-18.43s8.26-18.43 18.43-18.43c10.19 0 18.44 8.26 18.44 18.43z" fill="#006ca2"/><path d="m47.2 18.93c.02 10.21-8.24 18.49-18.44 18.51-10.21.02-18.5-8.23-18.52-18.44s8.24-18.5 18.44-18.52c10.21-.02 18.5 8.24 18.52 18.45z" fill="#006ca2"/><path d="m56.19 18.79c8.58 7.5 9.47 20.53 1.96 29.11-7.49 8.58-20.53 9.46-29.11 1.96s-9.46-20.53-1.96-29.11 20.52-9.46 29.11-1.96z" fill="#fcc21b"/><path clip-path="url(#a)" d="m44.28 8.38c1.98 1.73-2.48 10.1-9.99 18.68-7.49 8.58-15.17 14.13-17.17 12.39-1.98-1.74 2.48-10.1 9.98-18.68 7.5-8.57 15.19-14.12 17.18-12.39z" fill="#fff"/><path d="m70.99 19.28c8.33-7.68 21.31-7.16 28.99 1.17 7.69 8.33 7.16 21.31-1.18 28.99-8.33 7.69-21.31 7.15-28.99-1.18-7.68-8.32-7.15-21.3 1.18-28.98z" fill="#f79329"/><use fill="#855c52" xlink:href="#c"/><path clip-path="url(#b)" d="m106.13 42.68c1.69-1.55-3.18-9.57-10.86-17.89-7.67-8.33-15.27-13.82-16.95-12.27l7.17-6.61c1.69-1.55 9.27 3.94 16.96 12.27 7.68 8.33 12.53 16.34 10.85 17.9z" fill="#fff"/><path clip-path="url(#b)" d="m59.43 29.94c1.93-1.77 9.72 3.53 17.4 11.86s12.34 16.53 10.41 18.3c-1.93 1.78-9.73-3.53-17.4-11.86-7.68-8.33-12.34-16.52-10.41-18.3z" fill="#fff"/><path d="m63.11 34.2c.02 11.3-9.12 20.47-20.42 20.49-11.29.02-20.46-9.12-20.49-20.42-.02-11.3 9.12-20.47 20.42-20.49 11.29-.02 20.46 9.12 20.49 20.42z" fill="none"/><path d="m86.91 52.71c.03 12.85-10.37 23.29-23.22 23.32-12.85.02-23.29-10.38-23.31-23.23-.03-12.85 10.37-23.29 23.22-23.31 12.85-.03 23.3 10.37 23.31 23.22z" fill="#2f2f2f"/><path d="m66.69 94.75c-4.39-1.91-8.78-3.82-13.16-5.73-4.22-1.83-8.43-3.67-12.65-5.5-3.84-1.67-7.67-3.33-11.51-5-3.25-1.41-6.49-2.82-9.72-4.23-2.44-1.06-4.88-2.12-7.3-3.18-1.11-.48-2.15-.99-3.22-1.49-.79-.37-1.84-.79-2.72-.55-.82.22-1.24 1.07-1.17 1.86.03.37.18.68.39.95.8.98 2.08 1.45 3.16 2.02 1.32.7 2.67 1.34 4.01 2.02 2.77 1.4 5.56 2.81 8.34 4.21 3.51 1.77 7.01 3.54 10.52 5.32 4.03 2.03 8.04 4.05 12.05 6.08 4.3 2.17 8.6 4.34 12.91 6.51 4.36 2.21 14.96 7.57 19.34 9.78.76.39 1.31.66 2.08 1.04.14-.01.49.07.55-.07.11-.25-.14-.53-.12-.77-.8-2.35.82-5.1 2.92-6.08.15-.12.35-.19.32-.44-.01-.11-.08-.19-.16-.26-2.75-1.19-12.1-5.3-14.86-6.49z" fill="#fcc21b"/><path d="m120.01 118.04c-2.62-1.51-5.53-2.51-8.3-3.72-2.95-1.28-5.89-2.56-8.83-3.84-3.62-1.58-7.25-3.15-10.88-4.73-3.88-1.69-7.76-3.38-11.64-5.06-.64-.14-1-.19-1.63-.03-.39.1-.69.21-1.03.43-.64.42-1.17 1.08-1.46 1.78-.38.94-.61 1.99-.42 2.98.25 1.33.75 2.28 2.2 3.01s2.89 1.46 4.33 2.18c3.84 1.94 7.67 3.88 11.51 5.81 3.24 1.63 6.48 3.27 9.72 4.9 2.42 1.22 4.84 2.44 7.26 3.67 2.46 1.24 5.11 2.57 7.95 1.91 1.98-.46 3.53-2.07 3.89-4.07.41-2.3-.69-4.09-2.67-5.22z" fill="#855c52"/><path d="m67.42 38.04c1.52 3.49.12 8.6-4.84 11.22-7.52 4.05-15.07-.45-13.4-7.95 1.12-5.02 6.24-7.94 10.56-7.91 3.4.06 6.48 1.9 7.68 4.64z" fill="#fff"/><path d="m60.19 38.77c.2-.8.04-1.58-.54-2.17-1.14-1.15-3.32-.94-5.3.47-2.02 1.44-2.87 3.43-1.95 4.81.46.7 1.24 1.04 2.17 1.06-.51 1.18-.5 2.47.18 3.5 1.37 2.09 4.49 2.13 7.24-.05 2.66-2.12 3.22-4.95 1.53-6.61-.86-.86-2.05-1.16-3.33-1.01zm-3.4 1.48c-.82.56-1.7.55-2.13-.01-.42-.58-.14-1.4.67-1.97.8-.58 1.71-.63 2.17-.09.46.52.25 1.32-.5 1.92-.04.04-.08.05-.12.09-.02.01-.05.04-.09.06zm1.42 1.53c.97-.72 2.1-.76 2.74-.03.66.72.42 1.85-.6 2.63-1.03.8-2.23.77-2.84-.02-.58-.78-.27-1.87.7-2.58z" fill="#2f2f2f"/></svg>