<svg viewBox="0 0 128 128" xmlns="http://www.w3.org/2000/svg" xmlns:xlink="http://www.w3.org/1999/xlink"><defs><path id="a" d="m113.78 56.88-45.76-41.65c-2.21-2.01-5.83-2.01-8.04 0l-45.77 41.65c-2.21 2.02-4.02 6.11-4.02 9.1v56.59c0 2.99 2.45 5.44 5.43 5.44h21.01v-37.33c0-2.28 1.86-4.14 4.13-4.14h16.56c2.27 0 4.14 1.86 4.14 4.14v37.32h50.91c2.99 0 5.44-2.44 5.44-5.44v-56.59c0-2.98-1.81-7.08-4.03-9.09zm-26.25 44.86h-5.91c-2.76 0-5.03-2.26-5.03-5.03v-5.05h10.94zm0-14.88h-10.94v-6.77c0-2.76 2.27-5.03 5.03-5.03h5.91zm15.73 9.85c0 2.76-2.26 5.03-5.03 5.03h-5.91v-10.08h10.94zm0-9.85h-10.93v-11.79h5.91c2.77 0 5.03 2.26 5.03 5.03v6.76z"/><clipPath id="b"><use xlink:href="#a"/></clipPath></defs><path d="m33.14 75.07h31.27v52.93h-31.27z" fill="#855c52"/><path d="m74.01 72.27h32.24v32.59h-32.24z" fill="#fff"/><use fill="#fcc21b" xlink:href="#a"/><path clip-path="url(#b)" d="m64.72 26.29 53.98 49.99 1.26.01.57-18.25-55.81-51.68-57.12 51.68-.36 17.06 3.5.03z" fill="#ed6c30"/><path d="m46.46 107.7c0 1.99-1.61 3.6-3.6 3.6s-3.6-1.61-3.6-3.6 1.61-3.6 3.6-3.6 3.6 1.61 3.6 3.6z" fill="#fff"/></svg>