<svg viewBox="0 0 128 128" xmlns="http://www.w3.org/2000/svg" xmlns:xlink="http://www.w3.org/1999/xlink"><defs><path id="a" d="m41.99 48.17c-3.13-7.37-11.04-19.31-17.79-19.31-6.79 0-14.07 11.06-17.01 17.47-3.69 8.02-6.76 18.81-6.76 32.54 0 17.41 7.51 27.03 15.44 30.89h-.01l.09.04c.77.38 1.56.9 2.13 1.59.66.82.73 2.54.73 3.12v.21 7.42s-.09 2.91-.36 3.8c-.18.57-.78 1.27-.82 2.01h1.18 1.46 8.61v-13.76-3.11-2.37-.67-18.29c0-3.03 1.62-6.7 3.86-8.73l14.46-13.16c-.98-7.72-2.93-14.29-5.21-19.69z"/><clipPath id="b"><use xlink:href="#a"/></clipPath><clipPath id="c"><use xlink:href="#d"/></clipPath><path id="d" d="m68.75 58.47c-1.37-1.24-3.6-1.24-4.96 0l-16.07 14.63-12.13 11.04c-1.36 1.24-2.48 3.76-2.48 5.61v19.68 15.19c0 1.84 1.51 3.35 3.35 3.35h12.94v-23c0-1.4 1.15-2.55 2.54-2.55h10.21c1.4 0 2.55 1.15 2.55 2.55v23h31.38c1.85 0 3.35-1.51 3.35-3.35v-34.87c0-1.85-1.12-4.37-2.48-5.61zm12.02 53.32h-3.64c-1.7 0-3.1-1.39-3.1-3.1v-3.12h6.74zm0-9.17h-6.74v-4.17c0-1.7 1.4-3.09 3.1-3.09h3.64zm9.7 6.07c0 1.7-1.39 3.1-3.1 3.1h-3.65v-6.21h6.74v3.11zm0-6.07h-6.74v-7.27h3.65c1.7 0 3.1 1.39 3.1 3.09v4.18z"/></defs><path d="m44.46 97.08h23.16v30.89h-23.16z" fill="#855c52"/><use fill="#855c52" xlink:href="#a"/><path clip-path="url(#b)" d="m15.95 109.81s5.1 1.93 10.1 1.93c0 0 5.44.52 9.94-2.36l14.14-41.78-7.51-32.65-16.88-9.88-8.51.88-16.25 21.89s-5.25 27.39-5.25 27.77c0 .37 4.38 26.14 4.38 26.14l7.88 5.38z" fill="#bdcf46"/><path d="m123.78 113.84c-.49-.27-1.18-.46-1.52-.95-.47-.69-.01-1.53-.01-2.28 0-3.37-2.29-6.61-5.67-7.3-.63-.13-1.34.05-1.94-.22-.87-.38-.75-1.25-.96-2.04-.31-1.22-.9-2.35-1.78-3.26-1.33-1.38-3.12-2.2-5.05-2.2-1.15 0-2.23.31-3.2.83v31.58h16.8c3.54 0 6.59-2.85 7.03-6.3.42-3.13-.88-6.31-3.7-7.86z" fill="#bdcf46"/><path d="m71.5 91.41h22.79v24.69h-22.79z" fill="#fff"/><use fill="#fcc21b" xlink:href="#d"/><path clip-path="url(#c)" d="m102.71 88.82h-73.21l37.03-33.51z" fill="#ef6b00"/></svg>