<svg viewBox="0 0 128 128" xmlns="http://www.w3.org/2000/svg"><path d="m21.48 13.03h86.74v114.97h-86.74z" fill="#006ca2"/><path d="m19.3 17.3h91.21v79.87h-91.21z" fill="#006ca2"/><path d="m105.83 2.78h-83.67c-5.08 0-9.24 4.15-9.24 9.24v115.98h35.6v-13.36c0-2.83 2.31-5.15 5.14-5.15h20.66c2.84 0 5.16 2.32 5.16 5.15v13.36h35.6v-115.98c-.01-5.08-4.16-9.24-9.25-9.24zm-67.68 85.4h-13v-15.7h13zm0-24.96h-13v-15.7h13zm0-24.95h-13v-15.7h13zm21.79 49.91h-13.01v-15.7h13.01zm0-24.96h-13.01v-15.7h13.01zm0-24.95h-13.01v-15.7h13.01zm21.78 49.91h-13v-15.7h13zm0-24.96h-13v-15.7h13zm0-24.95h-13v-15.7h13zm21.79 49.91h-13.01v-15.7h13.01zm0-24.96h-13.01v-15.7h13.01zm0-24.95h-13.01v-15.7h13.01z" fill="#78a3ad"/></svg>