<svg viewBox="0 0 128 128" xmlns="http://www.w3.org/2000/svg"><path d="m18.98 93.3h90.23v17.93h-90.23z" fill="#fff"/><path d="m23.8 51.08-1.09-7.32s-7.09-3.86-6.12-12.15c.52-4.42 5.48-8.31 10.47-7.65 0 0-.18-7.99 5.43-11.86 3.06-2.1 9.25-3.84 15.26-.88 0 0 2.71-8.52 13.74-8.88 11.02-.36 15.06 5.24 15.06 5.24s3.66-7.42 15.82-7.39c11.21.02 19.13 8.32 18.37 20.91-.54 8.83-8.06 16.48-17.98 17.36-11.4 1.02-19.1-6.67-19.1-6.67s-2.84 7-13.77 6.91c-9.02-.07-13.56-5.5-13.56-5.5s-5.26 9.53-14.52 3.62c0 0-2.69 5.67-6.32 7.29z" fill="#78a3ad"/><path d="m32.42 89.3-1.51-46.6c-.03-1.05-.9-1.89-1.95-1.89h-10.32c-1.05 0-1.92.84-1.95 1.89l-1.76 54.53z" fill="#ed6c30"/><path d="m116.93 71.12c-.64-.38-1.43-.39-2.08-.03l-31.46 17.47v-15.63c0-.74-.39-1.43-1.04-1.81-.63-.38-1.43-.39-2.08-.03l-31.46 17.47v-15.63c0-.74-.4-1.43-1.04-1.81-.63-.38-1.43-.39-2.08-.03l-34.57 19.2c-.67.37-1.08 1.07-1.08 1.83v35.88h107.92v-35.88-19.2c0-.73-.39-1.42-1.03-1.8zm-79.14 35.53h-13.11v-6.17h13.11zm33.02 0h-13.11v-6.17h13.11zm33.01 0h-13.11v-6.17h13.11z" fill="#40c0e7"/></svg>