<svg viewBox="0 0 128 128" xmlns="http://www.w3.org/2000/svg"><g transform="translate(-43.481649 -145.28717)"><path d="m82.235812 188.00717c0-.05 0-.1.02-.15.26-1.23 1.83-2.73 2.59-3.7 1.42-1.83 2.85-3.85 3.41-6.31.91-3.91-1.13-7.73-1.69-11.49-.28-1.92-3.76-8.95-1.27-10.25 5.04-2.65 3.85 8.41 6.63 9.7 5.08 2.38 9.589998-14.44 11.519998-17.6.49-.82.89-1.92 2-1.96 1.51-.05 2.08 1.26 2.25 2.84.21 1.94-.54 3.34-1.1 5.12-1.12 3.5-2.65 6.74-3.89 10.16-1.7 4.69-3.549998 9.32-5.589998 13.86-1.08 2.41-2.21 4.79-3.4 7.15-.9 1.79-1.74 4.14-3.29 5.49-1.21 1.06-2.79.92-4.24.52-1.03-.29-4-2.01-3.95-3.38z" fill="#f79329"/><path d="m100.38399 172.27634c-.886348.0626-1.851248.60375-2.656248.875-2.33.77-4.49875 2.04375-6.71875 3.09375-1.6.76-3.13 1.5825-4.75 2.3125-1.63417.73243-3.56965 2.10261-5.15625 3.78125-.28747.20192-.56309.40987-.84375.625-.48418-.0298-.96277-.05-1.40625-.0937-.75-.07-1.47875.1075-2.21875.1875-.71.08-1.75.62625-2.25 1.15625-.92.99-.16875 2.81625-.96875 3.65625-.55.58-1.45125.3475-2.03125.9375-.64.64-.85625 1.485-.90625 2.375-.03.54.1075 1.14625-.0625 1.65625-.44 1.34-2.07625 2.84375-1.40625 4.34375.27.6.40875.735.21875 1.375-.15.47-.30875.9675-.46875 1.4375-.19.56-.36125 1.0975-.53125 1.6875-.14248.56445-.22371 1.17995-.21875 1.78125-.17027.20007-.34011.39659-.53125.59375-.23351.24086-.48.49-.75.71875-.6575.56-1.31598 1.1198-2 1.6875-2.06023 1.70776-4.23538 3.36983-6.656252 4.53125-2.87875 1.365-5.88959 1.59652-8.375 3.46875-.17775.13366-.35901.28606-.53125.4375-.16624.14707-.33925.30316-.5.46875-.525.5425-.96688 1.13453-1.34375 1.75-1.13027 1.84852-1.625 3.9825-1.625 6.1875 0 .9975-.001 1.59031-.25 2.28125-.0824.2275-.20125.45125-.34375.71875-.005.009.005.022 0 .0312-.17278.31493-.34777.63576-.5.96875-.004.009.004.0227 0 .0312-.15123.33302-.29442.65112-.40625 1-.12067.3671-.22513.74257-.28125 1.125-.0532.36288-.0557.75039-.0312 1.125.00066.0101-.00072.0211 0 .0312.0168.24133.0487.4827.0937.71875.002.0101-.002.0211 0 .0312.0463.2359.11523.4574.1875.6875.003.01-.003.0215 0 .0312.0734.23032.15284.46352.25.6875.004.009-.004.0222 0 .0312.0983.22429.22398.43886.34375.65625.004.008-.005.0231 0 .0312.12074.21757.26628.41488.40625.625.14936.22529.29993.4401.46875.65625.16309.20906.32131.3938.5.59375.005.006-.005.0253 0 .0312.17412.19415.37606.3775.5625.5625.38841.38615.79213.75084 1.21875 1.09375.47045.37815.95067.71038 1.4375 1.03125.17151 1.01763.33679 2.03054.59375 3.125.31 1.3.94875 3.99625 2.96875 4.40625.08.01.3575.0312.4375.0312 2.08678 0 3.1115-2.82658 3.65625-4.625 1.01287.19441 2.05109.33533 3.093752.40625.0421.003.0829-.003.125 0 .58186.0369 1.16721.0625 1.75.0625.13493.00014.27146.002.40625 0 .2306-.003.45764-.022.6875-.0312.3673-.0144.72922-.0332 1.09375-.0625.13455-.0109.27223-.0183.40625-.0312.0737-.007.14525-.0236.21875-.0312.65427-.0688 1.30132-.16326 1.9375-.28125.70548-.13085 1.38933-.27687 2.0625-.46875 1.05204-.29695 2.05049-.64128 3.03125-1 .85431.84183 1.70288 1.63202 2.5625 2.34375l.40625.375c.67.57 1.39 1.1425 2.25 1.5625.68.33 1.295.5 1.875.5.78 0 1.4275-.28375 1.9375-.84375 1.48-1.69 1.16625-5.32875.65625-9.21875-.0179-.12076-.014-.21546-.0312-.34375.0837-.0725.16684-.14442.25-.21875.10432-.093.20886-.18736.3125-.28125.0625.0141.12409.0197.1875.0312.55.1 1.0525.1475 1.5625.1875.13.01.27625.0113.40625.0312.94.49 1.68125 1.365 1.78125 1.875.02.14-.0537.56625-.0937.90625-.17 1.43-.4675 4.05125 1.5625 6.78125l-3.23716 3.59087-8.57519 5.34663c.2025.95.53812 1.95234.96875 2.9375.21479.49199.45105.96306.71875 1.4375.005.008-.005.0231 0 .0312.26419.46635.5621.91133.875 1.34375.005.007-.005.0242 0 .0312.15459.21282.33403.42348.5.625.005.006-.005.0251 0 .0312.16647.20134.35368.37453.53125.5625.005.006-.005.0256 0 .0312.17815.18784.37352.35887.5625.53125.1891.1733.39413.34417.59375.5.0602.0469.12642.0797.1875.125.14857.10899.28347.24539.4375.34375.43965.28289.89284.50368 1.375.6875.23702.0903.47188.15562.71875.21875.0123.003.019.0281.0312.0312.80678.20611 1.65002.37115 2.53125.53125.88056.15998 1.78832.27319 2.71875.375.79395.0869 1.59248.15122 2.40625.1875.14597.007.2912.0265.4375.0312.10398.003.20838-.002.3125 0 .27111.006.54083.0312.8125.0312 1.55913 0 3.11346-.12939 4.625-.375.35546-.0578.71343-.11421 1.0625-.1875.18674-.0392.3779-.0812.5625-.125.0941-.0223.18776-.039.28125-.0625.27422-.069.54392-.139.8125-.21875.378068-.11223.759838-.24063 1.124998-.375.13585-.0501.27239-.10298.40625-.15625.30466-.12123.61276-.23686.90625-.375.0427-.0201.0825-.042.125-.0625.33426-.16044.65102-.34773.96875-.53125.0653-.038.12291-.086.1875-.125.37036-.22348.74995-.42992 1.09375-.6875.415-.30937.81816-.64341 1.21875-.96875s.7995-.66066 1.1875-1c.78154-.68352 1.50849-1.39676 2.25-2.125.73122-.7173 1.48099-1.44227 2.1875-2.1875.005-.006-.005-.0258 0-.0312.34035-.35914.69417-.69955 1.03125-1.0625.73219-.78838 1.45889-1.58152 2.1875-2.375.3331-.36276.66517-.73261 1-1.09375.005-.006-.005-.0258 0-.0312.7049-.76011 1.40164-1.50879 2.125-2.25.40635-.41657.83327-.81198 1.25-1.21875.1352-.007.27154-.0225.40625-.0312.60755 1.62979.90956 3.26039.96875 4.84375.0327.87454-.008 1.74541-.125 2.59375-.28828 2.06518-1.00905 4.05278-2.0625 5.875-.43072.74604-.89937 1.46548-1.4375 2.15625-.70094.89975-1.4842 1.74184-2.34375 2.53125-.8.74-2.15875 1.49-2.71875 2.5-2.71 4.78 17.87125 6.61625 20.03125 6.65625.39385.008.79492.00088 1.1875 0 17.45958-.0392 33.50694-8.98727 34.09375-28.15625.18-5.72-.4475-12.17875-1.9375-17.71875-.34667-1.29-.76016-2.60598-1.1875-3.9375-.17419-1.49718-1.0737-3.06409-1.34375-4.4375-.56-2.85 1.35875-3.22875 3.71875-4.21875 1.31-.55 5.84875-2.46 4.71875-4.75-.51-1.04-4.6275-.75625-5.6875-.90625-.003-.00045-.0573.00075-.0625 0-.41743-.0808-.83164-.20428-1.25-.3125-.01-.002-.0217.003-.0312 0-.42868-.11181-.84376-.24138-1.28125-.40625-.006-.002-.0251.002-.0312 0-.21898-.0827-.59902-.2268-1-.375-.009-.003-.0224.003-.0312 0-.19811-.0737-.39139-.16174-.59375-.25-.009-.004-.0226.004-.0312 0-.83723-.37163-1.58414-.85683-1.34375-1.4375.0304-.0733.0926-.17389.15625-.25.0616-.0714.12525-.14499.21875-.21875.1875-.1475.45801-.25457.75-.34375.28383-.086.61197-.15551.9375-.21875.0727-.0139.14575-.0177.21875-.0312.39514-.0737.78066-.15166 1.125-.25.17839-.051.35548-.11904.5-.1875.48039-.23205.94703-.49309 1.40625-.78125.10404-.0644.21019-.12023.3125-.1875.012-.008.0193-.0233.0312-.0312.26725-.17697.53003-.36608.78125-.5625.0115-.009.0199-.0222.0312-.0312.03-.0237.0641-.0385.0937-.0625.21666-.17672.42463-.37057.625-.5625.006-.006.0254.006.0312 0 .78-.75 3.18625-3.66 1.40625-4.5-.009-.004-.0222.004-.0312 0-.0406-.0181-.082-.0199-.125-.0312-.0511-.0133-.10069-.0247-.15625-.0312-.0556-.007-.0962-.0312-.15625-.0312-.85 0-2.0175.62-2.6875.75-.66.13-1.42875.1875-2.21875.1875-.31914 0-.64731-.009-.96875-.0312-.0306-.004-.0632.004-.0937 0-.65782-.0926-1.31355-.19647-1.96875-.3125-.0219-.004-.0406-.0274-.0625-.0312-.31719-.0858-.62625-.16375-.90625-.28125-1.87-.78-3.535-1.29625-1.375-2.90625 1.75-1.3 4.88-3.3375 4.5-5.9375-.0583-.3869-.2683-.63241-.5625-.78125-.26089-.13199-.5662-.21875-.9375-.21875-1.23 0-2.87875.61375-3.46875.84375-.98.37-2.0225.555-3.0625.625-.17492.01-.35468.0382-.53125.0625-1.58816.0128-3.28357-.0575-4.5-.28125-.45369-.21312-.81324-.5402-.875-1-.0194-.13254.0165-.241.0625-.34375.45305-.25776.90992-.59564 1.25-.8125.01-.006.0215-.0251.0312-.0312.0448-.0224.11829-.0396.15625-.0625 1.46-.88 2.77625-2.1025 3.65625-3.5625.0179-.0296.0413-.1184.0625-.15625.0369-.0602.0591-.12632.0937-.1875.10359-.18288.20021-.37036.28125-.5625.008-.0192.0229-.043.0312-.0625.21886-.5064.42518-1.10201.5625-1.6875.0293-.0919.0682-.18873.0937-.28125.09-.31.1475-.59625.1875-.90625.07-.54.0638-1.71125-.40625-2.03125-.39-.26-1.065-.0962-1.625.0937-.31.11-.59125.2325-.78125.3125-.81.3-1.6175.5525-2.4375.8125-4.66 1.44-9.13 1.88-14 1.5-3.14-.25-6.52375-.345-9.59375-1.125-.26-.07-.845-.28625-1.125-.15625-.0575.0263-.0811.0528-.125.0937-4.95442-.92917-9.9669-1.58553-14.96875-1.90625-.71-.04-1.40375-.0625-2.09375-.0625-2.34 0-4.69.25375-7 .59375-.322738.0473-.676648.10047-1.031248.1875.18167-.32174.37154-.62507.59375-.84375.709998-.69 1.603748-1.50625 2.093748-2.40625.51-.94-.25875-1.8375-1.21875-1.9375-.12375-.0138-.24838-.009-.375 0z" fill="#757f3f"/><path d="m142.04024 271.43259c-.38219.0759-.77002.15262-1.15625.21875.38695-.0666.77337-.14227 1.15625-.21875z" fill="#bdcf46"/><g fill="#2f2f2f" transform="translate(43.47581 145.28717)"><path d="m28.41 75.98c1.35 1.96.62 5.06-2.66 5.26-1.45.08-5.57.39-5.86-1.56-.49-3.31 3.15-5.53 5.8-5.26 1.24.14 2.15.76 2.72 1.56z"/><path d="m6.33 75.2c-1.66 3.16 1.37 5.4 3.88 5.49 3.85.17 2.66-5 .45-6.65-1.75-1.3-3.5-.4-4.33 1.16z"/></g><path d="m58.9 56.39-11.37 6.49c1.62 3.43 5.61 5.28 9.06 4.18 3.56-1.15 5.19-5 3.65-8.61-.33-.77-.8-1.45-1.34-2.06z" fill="#fcc21b" transform="translate(43.47581 145.28717)"/><path d="m73.105812 199.29717c-.58.53-1.09 1.2-1.48 2.02-1.35 2.88-.75 6.34 1.33 7.74 1.82 1.21 4.18.45 5.65-1.7z" fill="#fcc21b"/><path d="m107.32149 221.43259c-6.69 0-13.604998 3.2825-19.124998 6.8125-.69743.44647-1.36235.94941-2 1.46875 5.53956 2.81212 5.79159 10.09113 1.78125 14.25-.66.68-1.31 1.37125-2 2.03125-1.18 1.14-2.93 2.09125-4.5 2.53125-.54782.15494-1.1298.37517-1.6875.65625.2591.20418.46438.51104.59375.9375.85 2.85 1.34 4.43125 4.25 5.53125 1.25.47 2.83875.71875 4.46875.71875 2.37 0 4.85-.5025 6.5-1.5625 1.92-1.24 2.94625-2.71 3.90625-4.75 2.179998-4.67 5.026248-7.36375 9.656248-9.59375 4.01-1.92 8.43375-3.3675 11.09375-7.1875 4.41-6.32-5.6675-10.9975-10.6875-11.6875-.63-.09-1.26625-.13625-1.90625-.15625z" fill="#ed6c30"/><g fill="#bdcf46"><path d="m139.57149 237.68259c-1.07361.80996-2.2299 1.52309-3.34375 2.28125-1.55 1.05-3.3925 1.48-5.0625 2.25-3.84768 1.77393-7.71888 2.70204-11.8125 2.96875.60755 1.62979.90956 3.26039.96875 4.84375 1.48594.33875 3.49375.25375 4.65625.34375 2.72.20005 5.43625.0863 8.15625-.0937 2.29-.17 4.65625-.56875 6.90625-.96875.60403-.10325 1.28635-.45352 1.96875-.75.034-3.71473-.67905-7.38594-2.4375-10.875z"/><path d="m141.75899 251.99509c-1.52525.43458-3.0565.86358-4.625 1.125-2.75.46-5.54375.66875-8.34375.71875-1.88.03-4.09625-.1725-5.90625-.5625-.8619-.18874-1.78655-.45451-2.6875-.65625-.28828 2.06518-1.00905 4.05278-2.0625 5.875 1.33534.51908 3.03111.82966 4.03125 1.125 2.62.78 5.32125 1.245 8.03125 1.625 2.27.33 4.6475.42 6.9375.5.6858.0231 1.53402-.20318 2.34375-.34375 1.07968-3.1048 1.90113-6.25988 2.28125-9.40625z"/><path d="m116.69649 260.65134c-.70094.89975-1.4842 1.74184-2.34375 2.53125-.8.74-2.15875 1.49-2.71875 2.5-2.71 4.78 17.87125 6.61625 20.03125 6.65625.39385.008.79492.00088 1.1875 0 .45752-.39405.91742-.77862 1.21875-1.09375 1.57003-1.6531 3.06231-4.20822 4.09375-6.5-1.557.1071-3.10757.198-4.6875.125-2.78-.13-5.5625-.5125-8.3125-1.0625-1.85-.38-3.95625-1.0525-5.65625-1.8125-.91132-.41294-1.86768-.92723-2.8125-1.34375z"/></g><path d="m96.805812 255.64717c.54.12 1.16.09 1.68.05 1.889998-.17 3.909998-1.69 3.419998-3.84-.17-.73-.78-1.25-1.22-1.82-.55-.7-1.029998-1.43-1.629998-2.1-.55-.59-1.17-1.24-1.86-1.66-.28-.17-.5-.22-.84-.18-1.6.14-1.4 1.59-1.33 2.79.06.93.1 1.86.18 2.79.07.91 0 2.27.38 3.1.25.5.71.75 1.22.87z" fill="#fff"/><path d="m70.305812 249.56717c-2.21.83-4.15 2.05-5.59 4.67-1.41 2.55-1.96 5.41-2.1 8.3-.07 1.63.28 5.72 3.09 3.36 1.05-.89 1.72-2.85 2.27-4.04.7-1.5 1.63-2.82 2.83-3.96 4.75-4.52 11.78-4.26 17.6-6.93 5.12-2.35 7.35-7.67 10.36-12.05 1.249998-1.82 2.899998-3.33 4.809998-4.43 1.5-.86 4.77-1.18 5.79-2.56.46-.62.59-1.64.49-2.39-.15-1.02-1.02-1.56-1.86-2.01-1.02-.54-2.35-.79-3.5-.79-6.089998.03-13.219998 2.7-16.539998 7.99-.94 1.48-2.29 2.69-2.98 4.32-1.61 3.84-4.03 6.94-8.05 8.44-2.31.88-4.58 1.31-6.62 2.08z" fill="#fcc21b"/><path d="m143.91524 153.08884c-.74859.12844-1.345.7525-1.9375 1.1875-3.06 2.24-13.41375 16.39125-17.84375 12.28125-2.44-2.26 2.5375-12.21375-3.5625-11.59375-3.02.29-1.8375 8.225-2.1875 10.125-.69 3.77.125 8.0975-2.125 11.4375-.95275 1.409-2.25076 2.48234-3.625 3.40625-.01.0105-.0213.0207-.0312.0312-1.20311 1.27423-2.57053 2.81839-2.9375 4.59375-.88405 4.24155 6.75467 2.16945 9.5 1.4375 1.2003-1.17958 2.40737-2.34079 3.65625-3.5 4.53-4.21 8.8375-8.6725 12.9375-13.3125 2.44-2.75 5.13875-5.235 7.46875-8.125 1.18-1.46 2.40375-2.50625 2.84375-4.40625.36-1.54.22625-2.99-1.34375-3.5-.29-.09-.56297-.10531-.8125-.0625z" fill="#f79329"/><path d="m129.57149 227.52634c.09 2.12.14625 4.065-.59375 6.125-1.04861 2.95288-3.07508 5.34626-5.375 7.40625 1.3008-.43341 1.75171-.57258 2.53125-.8125 1.65631-.56492 3.31143-1.16275 4.90625-1.875 1.64-.74 3.2325-1.36 4.8125-2.25.55317-.31189 1.35479-.74391 2.03125-1.21875-.2239-.32158-.4426-.65091-.6875-.96875-1.59-2.05-3.49844-3.83529-5.66755-5.25665-.68889-.39214-1.2727-.73806-1.95745-1.1496z" fill="#bdcf46"/><g fill="#fff"><path d="m79.415242 235.58884c-1.68426 1.23267-3.45104 2.25495-5.3125 3.09375.57794.54277 1.14094 1.08318 1.71875 1.5625l.4375.34375c.59.5 1.13.99125 1.75 1.28125.45.23.75625.28125.90625.28125.14 0 .21125-.055.28125-.125.81028-.92234.48239-4.27986.21875-6.4375z"/><path d="m51.85274 239.46384c.0751.38635.15953.77281.25 1.15625.55 2.38 1.02875 2.7625 1.21875 2.8125.12679-.0453.67777-.5116 1.46875-2.9375-1.01508-.28676-2.0076-.61914-2.9375-1.03125z"/></g></g></svg>