<svg xmlns="http://www.w3.org/2000/svg" viewBox="0 0 128 128"><path fill="#FFF" d="M64.73 20C19.51 20 5 61.27 5 61.27s12.42 39.85 59.73 39.85c7.34.06 14.64-1.02 21.64-3.21 6 8.49 18.78 12.47 25.3 13.33h.27c1.1-.02 1.99-.93 1.97-2.03a2.04 2.04 0 0 0-.33-1.07c-2.93-4.31-7.58-12-9.22-19.67a60.533 60.533 0 0 0 19.78-27.21S109.95 20 64.73 20Z" opacity=".2"/><path fill="#FFF" d="M104.36 88.48a60.533 60.533 0 0 0 19.78-27.21S109.95 20 64.73 20 5 61.27 5 61.27s12.42 39.85 59.73 39.85c7.34.06 14.64-1.02 21.64-3.21 6 8.49 18.78 12.47 25.3 13.33 1.1.13 2.09-.65 2.23-1.74.06-.47-.05-.95-.32-1.35-2.93-4.31-7.58-12.03-9.22-19.67Z"/><path fill="#3F474C" d="M93.48 60.54a28.76 28.76 0 1 1-57.52 0 28.76 28.76 0 1 1 57.52 0Z"/><path fill="#231F20" d="M80.73 60.54a16.01 16.01 0 1 1-32.02 0 16.01 16.01 0 1 1 32.02 0Z"/><path fill="#F5F8FA" d="M88.72 56.34a6.8 6.8 0 1 1-13.6 0 6.8 6.8 0 1 1 13.6 0Z"/><path d="M107.727 89.627q2.093 7.656 8.34 16.845 1.046 1.55.809 3.41-.263 2.041-1.882 3.308-1.625 1.272-3.716 1.024-6.75-.89-13.694-4.047-7.894-3.588-12.322-8.798-10.044 2.837-20.532 2.751-30.9 0-49.83-20.912Q5.437 72.756 2.136 62.163q-.296-.95.034-1.888 3.826-10.883 13.507-21.646Q35.131 17 64.73 17q29.607 0 48.902 21.638 9.601 10.768 13.345 21.657.344 1-.016 1.995-5.912 16.352-19.234 27.337Zm-5.208-3.515q12.722-9.891 18.428-24.861-3.444-9.256-11.794-18.619Q91.648 23 64.73 23q-26.926 0-44.592 19.641-8.451 9.396-11.964 18.683 3.033 8.865 11.174 17.858Q36.492 98.12 64.73 98.12q10.644.087 20.744-3.073 2.085-.652 3.346 1.132 3.555 5.03 11.246 8.526 4.961 2.255 9.748 3.192-6.525-10.112-8.387-18.787-.396-1.842 1.092-2.998Z"/></svg>