<svg xmlns="http://www.w3.org/2000/svg" viewBox="0 0 128 128"><path fill="#FAFAFA" d="M64.32 103.32c-34.03 0-53.56-33.13-56.94-39.38 3.07-6.27 20.91-39.26 56.94-39.26s53.87 32.98 56.94 39.26c-3.38 6.25-22.92 39.38-56.94 39.38Z"/><path fill="#B0BEC5" d="M64.32 27.12c15.81 0 29.84 6.42 41.7 19.09 6.63 7.08 10.73 14.26 12.49 17.67-4.51 7.99-23.05 36.99-54.19 36.99-14.88 0-28.63-6.45-40.89-19.17-6.89-7.15-11.37-14.41-13.3-17.82 1.75-3.41 5.86-10.6 12.49-17.67 11.86-12.67 25.89-19.09 41.7-19.09m0-4.88C22.56 22.24 4.66 64 4.66 64s20.25 41.76 59.66 41.76S123.97 64 123.97 64s-17.9-41.76-59.65-41.76Z"/><path fill="#B0BEC5" d="M64.32 37c26.97 0 45.47 16.51 53.66 27.71.96 1.31 1.99-4.99 1.12-6.36-7.84-12.26-25.41-32.91-54.77-32.91-29.36 0-46.95 20.66-54.79 32.92-.88 1.37.3 6.83 1.41 5.64 8.54-9.17 26.39-27 53.37-27Z"/><path fill="#9C7A63" d="M97.47 60.79a33.15 33.15 0 1 1-66.3 0 33.15 33.15 0 1 1 66.3 0Z"/><path fill="#806451" d="M64.32 37c10.87 0 20.36 2.68 28.36 6.62-5.81-9.58-16.34-15.97-28.36-15.97-12.28 0-23 6.69-28.72 16.61C43.61 40.04 53.18 37 64.32 37Z"/><path fill="#212121" d="M79.75 60.79a15.43 15.43 0 1 1-30.86 0 15.43 15.43 0 1 1 30.86 0Z"/><path fill="#D9BAA5" d="M96.58 59.37a7.72 7.72 0 1 1-15.44 0 7.72 7.72 0 1 1 15.44 0Z"/><path fill="#616161" d="M7.21 67.21c-.52 0-1.05-.13-1.54-.4a3.207 3.207 0 0 1-1.27-4.35c.85-1.55 21.28-40.21 59.92-40.21s58.47 37.89 59.29 39.41c.84 1.56.27 3.5-1.29 4.35-1.56.84-3.5.27-4.35-1.29-.18-.34-18.88-33.86-53.66-33.86-34.79 0-54.11 34.34-54.3 34.69a3.185 3.185 0 0 1-2.8 1.66Z"/></svg>