<svg viewBox="0 0 128 128" xmlns="http://www.w3.org/2000/svg" xmlns:xlink="http://www.w3.org/1999/xlink"><defs><path id="a" d="m119.5 53.43c-.44-.19-.94-.11-1.29.22l-30.96 29.06-22.09-32.99c-.22-.33-.58-.52-.98-.52-.39 0-.76.19-.98.51l-22.19 33-30.95-29.07c-.35-.33-.85-.41-1.29-.22-.43.19-.71.63-.69 1.1l1.27 47.52c0 10.33 24.06 18.43 54.78 18.43s54.78-8.1 54.78-18.4l1.27-47.55c.02-.46-.25-.9-.68-1.09z"/><clipPath id="b"><use xlink:href="#a"/></clipPath></defs><g fill="#f79329"><path d="m91.56 50.38 14.35 44.94-36.36-4.71z"/><path d="m105.91 96.5c-.05 0-.1 0-.15-.01l-36.37-4.71c-.39-.05-.72-.29-.9-.64s-.17-.76.01-1.1l22.02-40.23c.23-.41.69-.65 1.15-.61.47.04.87.36 1.01.81l14.24 44.62c.14.19.22.43.22.68 0 .65-.53 1.18-1.18 1.18 0 .01-.03.01-.05.01zm-34.51-6.84 32.82 4.25-12.94-40.55z"/><path d="m40.19 34.91c0 3.01-2.44 5.46-5.46 5.46-3.01 0-5.46-2.45-5.46-5.46 0-3.02 2.44-5.46 5.46-5.46s5.46 2.44 5.46 5.46z"/><path d="m34.73 41.54c-3.66 0-6.64-2.98-6.64-6.64s2.98-6.64 6.64-6.64 6.64 2.98 6.64 6.64-2.98 6.64-6.64 6.64zm0-10.91c-2.36 0-4.28 1.92-4.28 4.28s1.92 4.28 4.28 4.28 4.29-1.92 4.29-4.28-1.93-4.28-4.29-4.28z"/><path d="m93.58 29.45c3.01.18 5.31 2.77 5.13 5.78-.17 3.01-2.77 5.3-5.77 5.13-3.02-.18-5.31-2.76-5.13-5.77.18-3.02 2.76-5.32 5.77-5.14z"/><path d="m93.26 41.54-.39-.01c-1.77-.1-3.4-.89-4.57-2.21-1.18-1.33-1.77-3.03-1.67-4.8.21-3.51 3.12-6.25 6.63-6.25l.39.01c3.66.22 6.46 3.38 6.24 7.03-.21 3.49-3.11 6.23-6.63 6.23zm.23-10.92c-2.5 0-4.37 1.77-4.5 4.03-.07 1.14.31 2.24 1.07 3.1s1.8 1.36 2.95 1.43l.25.01c2.26 0 4.14-1.77 4.27-4.03.14-2.36-1.67-4.39-4.03-4.54z"/><path d="m36.43 50.38-14.34 44.94 36.36-4.71z"/><path d="m22.09 96.5c-.34 0-.68-.15-.91-.42-.26-.31-.34-.73-.22-1.11l14.34-44.94c.14-.45.54-.77 1.01-.81.51-.05.92.19 1.15.61l22.02 40.23c.18.34.19.75.01 1.1-.17.35-.51.58-.9.64l-36.36 4.71c-.04-.01-.09-.01-.14-.01zm14.63-43.14-12.95 40.56 32.82-4.25z"/></g><g fill="#fcc21b"><path d="m72.17 28.76c0 4.51-3.66 8.17-8.17 8.17s-8.18-3.66-8.18-8.17c0-4.52 3.66-8.17 8.18-8.17s8.17 3.65 8.17 8.17z"/><path d="m13.45 34.91c0 3.58-2.9 6.48-6.49 6.48-3.58 0-6.48-2.9-6.48-6.48 0-3.59 2.9-6.49 6.48-6.49 3.59 0 6.49 2.9 6.49 6.49z"/><path d="m114.54 34.91c0 3.58 2.9 6.48 6.49 6.48 3.58 0 6.49-2.9 6.49-6.48 0-3.59-2.91-6.49-6.49-6.49s-6.49 2.9-6.49 6.49z"/><path d="m72.17 28.76c0 4.51-3.66 8.17-8.17 8.17s-8.18-3.66-8.18-8.17c0-4.52 3.66-8.17 8.18-8.17s8.17 3.65 8.17 8.17z"/><path d="m13.45 34.91c0 3.58-2.9 6.48-6.49 6.48-3.58 0-6.48-2.9-6.48-6.48 0-3.59 2.9-6.49 6.48-6.49 3.59 0 6.49 2.9 6.49 6.49z"/><path d="m114.54 34.91c0 3.58 2.9 6.48 6.49 6.48 3.58 0 6.49-2.9 6.49-6.48 0-3.59-2.91-6.49-6.49-6.49s-6.49 2.9-6.49 6.49z"/><use xlink:href="#a"/></g><g fill="#d7598b"><path clip-path="url(#b)" d="m119.91 78.06.01.01-.59 18.85c-.01 0-.01 0-.01 0-4.2-.13-7.46-4.45-7.3-9.66.16-5.22 3.69-9.33 7.89-9.2z"/><path clip-path="url(#b)" d="m8.37 78.06-.01.01.58 18.85h.02c4.19-.13 7.46-4.45 7.29-9.66-.16-5.22-3.69-9.33-7.88-9.2z"/><path d="m72.8 96.55c0 5.58-3.88 10.11-8.67 10.11-4.78 0-8.66-4.53-8.66-10.11 0-5.59 3.88-10.11 8.66-10.11 4.79-.01 8.67 4.52 8.67 10.11z"/></g><g fill="#ed6c30"><path d="m89.9 102.14c-.13 2.7-2.12 4.79-4.44 4.68-2.31-.11-4.08-2.4-3.94-5.09.14-2.71 2.13-4.8 4.44-4.68 2.31.1 4.07 2.39 3.94 5.09z"/><path d="m107.23 99.17c-.14 2.7-2.13 4.79-4.45 4.67-2.31-.12-4.07-2.4-3.93-5.1s2.13-4.79 4.45-4.67c2.31.12 4.07 2.4 3.93 5.1z"/><path d="m38.37 102.14c.13 2.7 2.12 4.79 4.44 4.68 2.31-.11 4.08-2.4 3.94-5.09-.13-2.71-2.12-4.8-4.43-4.68-2.32.1-4.09 2.39-3.95 5.09z"/><path d="m21.04 99.17c.14 2.7 2.13 4.79 4.45 4.67 2.31-.12 4.07-2.4 3.93-5.1s-2.13-4.79-4.44-4.67c-2.32.12-4.08 2.4-3.94 5.1z"/></g></svg>