<svg viewBox="0 0 128 128" xmlns="http://www.w3.org/2000/svg"><path d="m92.909 104.419c-12.541 12.542-45.991 8.68-70.218-15.546-24.224-24.225-26.881-54.542-14.104-67.327 12.784-12.788 37.483-.24 58.827 31.183 18.884 27.797 38.033 39.149 25.495 51.69z" fill="#fbb817"/><path d="m75.04 82.122c-5.975 5.968-19.809.66-31.612-11.151-11.815-11.804-17.12-25.637-11.145-31.613 5.972-5.975 27.42-19.071 44.623-1.869 17.202 17.203 4.109 38.651-1.866 44.633z" fill="#fbb817"/><g fill="#cc4079"><path d="m51.886 62.515c-9.845-9.845-15.324-20.899-13.229-27.965-2.779 1.675-4.999 3.433-6.375 4.808-5.975 5.976-.67 19.809 11.145 31.613 11.804 11.811 25.637 17.119 31.613 11.151 1.375-1.383 3.133-3.599 4.808-6.378-7.063 2.091-18.124-3.39-27.962-13.229z"/><path d="m120.551 76.296c2.411-2.811 3.356-5.68 3.231-9.06-2.696 3.773-5.663 6.107-9.084 7.208-4.332 1.391-9.592-2.011-13.711-3.04-4.982-1.244-12.187-1.039-17.238 2.534-.59.983-2.696 6.082-6.642 9.472 2.62-.616 8.185-2.155 9.873-2.445 6.649-1.141 9.775-.24 14.896.889 4.175.919 8.352 2.727 12.822 2.373 4.339-.346 10.078-2.891 12.259-10.686-2.042 2.207-4.328 2.586-6.406 2.755z"/></g></svg>