<svg viewBox="0 0 128 128" xmlns="http://www.w3.org/2000/svg"><path d="m119.28 112.18v-.68h-.04c-.48-14.04-21.37-33.29-35.39-33.29h-1.38v-5.28c3.52-2.94 6.5-7.59 8.8-12.92 3.03-.65 6.79-5.6 7.71-11.5.71-4.51.32-8.51-2.86-8.51.09-1.17.18-2.37.18-3.51 0-1.61-.11-3.17-.27-4.72-1.13-16.32-11.53-25.99-25.2-29.39-.08-.02-.16-.04-.24-.07-.5-.11-.99-.18-1.5-.27-.59-.12-1.18-.24-1.79-.32-.14-.02-.27-.01-.4-.02-.92-.09-1.83-.17-2.77-.17-.02 0-.04 0-.06 0-.03 0-.05 0-.07 0-17.75 0-32.15 12.84-32.15 33.16 0 1.56.1 3.1.27 4.62.03.44.11.92.15 1.36-2.22 0-2.96 3.78-2.34 7.83.87 5.56 4.32 10.37 7.15 11.38 2.29 5.38 5.23 10.12 8.72 13.04v5.28h-1.64c-14.01 0-34.92 19.25-35.4 33.29h-.03v.64c0 .1-.01.19-.01.29h.01v15.58h110.55v-15.58c0-.09 0-.17 0-.24z" fill="#006ca2"/></svg>