<svg viewBox="0 0 128 128" xmlns="http://www.w3.org/2000/svg"><path d="m87.353 28.74c15.51 9.281 24.136 31.754 17.832 58.356-2.592 10.976 4.328 12.731 3.962 18.535-.703 11.377-18.888 20.949-42.568 21.29-23.668.337-40.984-9.583-43.434-20.722-4.476-20.353-3.632-40.236.814-57.423 0 0 3.724-12.775 14.958-20.508 16.106-11.088 36.231-6.823 48.436.472z" fill="#fbb817"/><g fill="#2f2f2f"><path d="m54.233 68.688c0 3.584-2.402 6.485-5.368 6.485-2.961 0-5.363-2.9-5.363-6.485s2.402-6.483 5.363-6.483c2.966 0 5.368 2.898 5.368 6.483"/><path d="m74.709 68.688c0 3.584 2.394 6.485 5.379 6.485 2.954 0 5.363-2.9 5.363-6.485s-2.409-6.483-5.363-6.483c-2.985 0-5.379 2.898-5.379 6.483"/><path d="m65.827 92.522c-.484 0-.982-.016-1.484-.047-11.802-.699-16.271-7.098-16.451-7.376-.665-.969-.405-2.279.544-2.938.953-.639 2.263-.397 2.922.548.175.242 3.68 4.99 13.235 5.558 9.543.54 13.692-5.681 13.755-5.749.611-.98 1.933-1.258 2.91-.623.973.631 1.259 1.941.616 2.918-.207.322-5.106 7.709-16.047 7.709z"/></g><path d="m64.205 1.07c-9.996 0-23.537 2.751-33.247 8.876-3.167 2.005-6.122 4.351-8.555 7.096-2.961 3.312-4.724 8.14-4.085 12.447.69 4.462 5.943 10.159 11.449 7.427 5.451-2.715 11.644-3.698 17.618-5.133 5.609-1.35 11.21-2.688 16.82-4.029.313.071.627.155.937.227 6.804 1.631 13.62 3.263 20.417 4.895 3.795.909 8.349 3.807 12.14 4.72 4.923 1.179 9.849-3.219 11.528-7.284 1.544-3.728-.076-9.853-3.573-13.648-2.425-2.644-5.328-4.918-8.436-6.86-9.675-6.024-23.104-8.734-33.013-8.734z" fill="#005792"/><path d="m63.788 43.825c-20.956 0-38.852 2.91-38.852 2.91s9.643 15.042 39.865 15.042c30.214 0 37.84-15.042 37.84-15.042s-17.9-2.91-38.853-2.91z" fill="#2f2f2f"/><path d="m38.929 44.087c-.202.063-.373.143-.488.23-.639.476-.497 1.35-.691 2.078-.794 2.971-2.799 5.302-2.37 8.573.973.071 2.274 1.103 3.236 1.441 1.322.458 2.679.988 3.969 1.389.977.306 2.021.504 2.99.846.885.313 1.612.992 2.552 1.232-.052-1.006.56-2.09.802-3.059.83-3.358 1.826-6.622 2.691-9.972.19-.756.187-1.55.393-2.294.206-.713.587-1.31.556-2.096-2.136-.27-4.113.502-6.217.667-1.576.131-3.156.27-4.732.46-.586.074-1.889.219-2.691.505z" fill="#fff"/><path d="m58.338 45.208c-.516 0-1.012-.01-1.512.05-.29.052-.89 3.854-.957 4.121-.762 3.025-1.81 6.114-2.211 9.202-.076.502-.29 1.616-.576 1.989 1.04.188 2.179-.008 3.259.107 1.378.154 2.597.547 4.002.365.198-.881.444-1.778.615-2.68.167-.905 2.934-13.372 2.489-13.434-1.683-.208-3.414.295-5.109.28z" fill="#fff"/><g fill="#2f2f2f"><path d="m64.801 63.643c-30.81.006-41.012-15.252-41.429-15.899-.344-.532-.397-1.195-.139-1.767.262-.572.786-.98 1.405-1.084.179-.027 18.289-2.933 39.15-2.933 20.866 0 38.976 2.906 39.154 2.933.587.098 1.092.469 1.37 1 .262.528.266 1.157 0 1.684-.337.656-8.507 16.066-39.511 16.066zm-36.217-15.55c4.133 4.035 14.863 11.82 36.217 11.82 21.556 0 31.087-7.811 34.545-11.772-5.947-.807-19.964-2.452-35.558-2.452-15.303 0-29.075 1.578-35.204 2.404z"/><path d="m24.936 45.806s17.896-2.914 38.852-2.914c20.953 0 38.853 2.914 38.853 2.914v-7.928s-17.9-7.932-38.853-7.932c-20.956 0-38.852 7.932-38.852 7.932z"/><path d="m24.936 48.601c-.655 0-1.302-.235-1.814-.671-.619-.532-.98-1.306-.98-2.124v-7.928c0-1.104.651-2.112 1.667-2.557.75-.333 18.682-8.17 39.979-8.17 21.302 0 39.234 7.836 39.988 8.17 1.016.444 1.663 1.453 1.663 2.557v7.928c0 .814-.357 1.592-.977 2.124-.635.534-1.453.762-2.263.636-.183-.028-17.943-2.876-38.412-2.876-20.492 0-38.225 2.848-38.403 2.876-.15.018-.293.035-.448.035zm38.852-8.505c15.725 0 29.901 1.646 36.058 2.475v-2.811c-4.835-1.882-19.571-7.015-36.058-7.015-16.494 0-31.218 5.133-36.054 7.015v2.811c6.158-.83 20.33-2.475 36.054-2.475z"/></g><path d="m73.24 34.297c0 4.907-4.231 8.879-9.444 8.879-5.225 0-9.448-3.972-9.448-8.879 0-4.903 4.224-8.872 9.448-8.872 5.213 0 9.444 3.97 9.444 8.872z" fill="#fbb817"/></svg>