<svg viewBox="0 0 128 128" xmlns="http://www.w3.org/2000/svg"><path d="m25.518 42.904c13.16-24.795 40.46-32.779 64.634-18.333 16.16 9.671 22.071 33.081 15.508 60.795-2.703 11.437 4.507 13.263 4.128 19.308-.734 11.852-19.68 21.825-44.35 22.179-24.653.359-44.142-9.036-44.962-20.883-1.676-23.867-4.776-44.691 3.634-60.527z" fill="#fbb817"/><g fill="#2f2f2f"><path d="m53.193 62.903c0 3.734-2.504 6.752-5.587 6.752-3.091 0-5.591-3.018-5.591-6.752 0-3.739 2.5-6.752 5.591-6.752 3.083-.001 5.587 3.013 5.587 6.752"/><path d="m75.014 62.903c0 3.734 2.496 6.752 5.604 6.752 3.079 0 5.587-3.018 5.587-6.752 0-3.739-2.509-6.752-5.587-6.752-3.109-.001-5.604 3.013-5.604 6.752"/><path d="m65.926 87.733c-.505 0-1.023-.026-1.546-.052-12.292-.729-16.955-7.391-17.145-7.681-.69-1.01-.418-2.375.574-3.057.989-.669 2.357-.418 3.044.565.181.25 3.834 5.199 13.79 5.786 9.939.565 14.261-5.911 14.326-5.984.635-1.023 2.012-1.308 3.031-.652 1.01.665 1.312 2.029.639 3.04-.207.341-5.311 8.035-16.713 8.035z"/></g><path d="m17.258 43.547s21.536-3.605 46.737-3.605c25.206 0 46.737 3.605 46.737 3.605s-2.482-42.411-46.736-42.411c-44.246 0-46.738 42.411-46.738 42.411z" fill="#005792"/><path d="m41.415 43.547s10.414-3.605 22.581-3.605c12.176 0 22.581 3.605 22.581 3.605s-1.2-42.411-22.581-42.411c-21.372 0-22.581 42.411-22.581 42.411z" fill="#e75625"/><path d="m109.273 41.052c-.721-.341-18.047-8.315-45.278-8.315-27.226 0-44.548 7.975-45.269 8.315-1.114.522-1.827 1.688-1.827 2.975v9.784c0 .958.393 1.865 1.088 2.482.553.509 1.261.773 1.986.773.173 0 .341-.013.51-.048.198-.034 20.301-3.548 43.512-3.548 23.194 0 43.322 3.514 43.521 3.548.881.165 1.805-.103 2.496-.725.691-.617 1.088-1.524 1.088-2.482v-9.784c0-1.287-.717-2.453-1.827-2.975z" fill="#2f2f2f"/><path d="m70.247 42.913c0 3.562-2.893 6.438-6.476 6.438-3.575 0-6.477-2.875-6.477-6.438 0-3.549 2.902-6.429 6.477-6.429 3.583 0 6.476 2.88 6.476 6.429z" fill="#fbb817"/></svg>