<svg viewBox="0 0 128 128" xmlns="http://www.w3.org/2000/svg" xmlns:xlink="http://www.w3.org/1999/xlink"><defs><path id="a" d="m88.936 100.332c-.166 3.394.437 8.309 3.229 13.023 2.433 4.128 6.692 7.187 11.251 8.547 3.667 1.092 7.595 1.282 11.373.825 3.157-.384 6.031-1.229 8.881-2.744 1.287-.685 5.075-3.482 2.171-4.691-2.272-.942-4.628-1.646-6.901-2.574-4.701-1.914-8.93-4.803-12.538-8.348-2.778-2.734-5.002-6.798-6.221-10.45-.85-2.559-.758-6.133-4.332-6.187-5.389-.076-6.656 7.47-6.913 12.599z"/><clipPath id="b"><use xlink:href="#a"/></clipPath></defs><path d="m73.61 108.431c.296 7.746-5.803 14.083-13.558 14.083h-45.395c-7.75 0-13.859-6.337-13.558-14.083l2.288-60.101c.291-7.748 6.871-14.085 14.626-14.085h38.634c7.75 0 14.34 6.337 14.641 14.085z" fill="#37b4e2"/><path d="m14.657 114.055c-1.427 0-2.749-.549-3.705-1.544-.957-.995-1.462-2.331-1.404-3.759l2.287-60.101c.121-3.225 2.952-5.949 6.177-5.949h38.634c3.229 0 6.065 2.73 6.187 5.957l2.317 60.099c.063 1.427-.437 2.763-1.394 3.753-.957.996-2.277 1.544-3.705 1.544z" fill="#cc4079"/><g fill="#37b4e2"><path d="m57.099 14.644c0-2.332-8.838-4.223-19.74-4.223-10.911 0-19.745 1.892-19.745 4.223 0 2.333 8.833 4.222 19.745 4.222 10.902 0 19.74-1.889 19.74-4.222z"/><path d="m17.615 14.644h39.484v23.717h-39.484z"/><path d="m59.585 20.957c0 1.372-1.107 2.486-2.486 2.486-1.369 0-2.486-1.114-2.486-2.486 0-1.375 1.117-2.486 2.486-2.486 1.38-.001 2.486 1.111 2.486 2.486z"/><path d="m59.585 27.874c0 1.375-1.107 2.486-2.486 2.486-1.369 0-2.486-1.112-2.486-2.486 0-1.372 1.117-2.486 2.486-2.486 1.38 0 2.486 1.114 2.486 2.486z"/><path d="m20.096 22.299c0 1.375-1.112 2.486-2.481 2.486-1.375 0-2.491-1.112-2.491-2.486 0-1.372 1.117-2.486 2.491-2.486 1.369 0 2.481 1.114 2.481 2.486z"/><path d="m20.096 29.219c0 1.374-1.112 2.486-2.481 2.486-1.375 0-2.491-1.112-2.491-2.486 0-1.372 1.117-2.486 2.491-2.486 1.369 0 2.481 1.114 2.481 2.486z"/></g><path d="m21.208 103.415c-.04 0-.083 0-.083 0-2.093-.068-3.71-1.787-3.652-3.846l1.476-47.248c.063-2.057 1.685-3.698 3.841-3.61 2.054.063 3.681 1.785 3.613 3.844l-1.472 47.247c-.066 2.02-1.717 3.613-3.723 3.613z" fill="#fff"/><use fill="#fff" xlink:href="#a"/><path clip-path="url(#b)" d="m99.731 100.249c-3.21 1.729-7.95 1.326-10.902-.01-.782-.354-.709-.776-1.2.18-.505.991-.141 2.695-.102 3.768.097 2.137.257 4.278.728 6.367.622 2.695 1.797 5.327 3.773 7.259 1.054 1.02 2.288 1.816 3.506 2.603 1.277.821 2.549 1.641 3.919 2.273 4.458 2.039 8.964 1.573 13.679 1.529 4.492-.043 8.717-1.253 12.548-3.705 1.117-.719 2.544-1.816 2.297-3.292-.107-.612-.48-1.03-.743-1.574-.301-.641-.441-1.331-.874-1.923-1.428-1.971-4.443-2.738-6.561-3.681-3.642-1.612-7.313-3.351-10.368-5.954-1.413-1.204-2.472-2.768-3.948-3.865-.913-.68-2.189-1.952-2.573-3.064-.185-.093-.359.141-.452.33-.605 1.234-1.566 2.137-2.727 2.759z" fill="#cc4079"/><path d="m94.734 31.579c-3.754 0-6.789.651-6.789 1.452v60.293c0 .801 3.035 1.447 6.789 1.447 3.744 0 6.779-.646 6.779-1.447v-60.293c0-.801-3.035-1.452-6.779-1.452z" fill="#f48120"/><path d="m111.667 57.353c0-2-7.59-3.623-16.933-3.623-9.362 0-16.948 1.622-16.948 3.623s7.585 3.623 16.948 3.623c9.343-.001 16.933-1.622 16.933-3.623z" fill="#fbb817"/><path d="m77.786 8.663h33.881v48.689h-33.881z" fill="#fbb817"/><path d="m111.667 8.663c0-2-7.59-3.623-16.933-3.623-9.362 0-16.948 1.623-16.948 3.623 0 2.001 7.585 3.623 16.948 3.623 9.343 0 16.933-1.622 16.933-3.623z" fill="#f5c567"/></svg>