<svg viewBox="0 0 128 128" xmlns="http://www.w3.org/2000/svg"><path d="m28.46 26.36c-.24.12-.47.27-.7.4-.26.15-.53.29-.79.45-.23.14-.45.3-.67.45-.25.18-.5.33-.75.51-.22.16-.42.34-.63.51-.24.2-.49.37-.72.57-.21.18-.4.38-.6.56-.23.21-.46.42-.69.65-.18.19-.35.39-.53.57-.23.25-.46.49-.68.75-.17.19-.33.42-.49.62-.22.27-.44.53-.65.81-.15.21-.3.43-.45.64-.21.3-.42.59-.62.9-.13.2-.26.42-.38.64-.21.33-.42.67-.61 1.02-.13.24-.26.49-.38.73-.19.34-.37.68-.54 1.03-.3.6-.58 1.23-.86 1.86-1.86 4.34-1.9 10.88-1.13 15.43.76 4.54 2.65 8.64 5.23 12.48 8.58 12.78 23.89 18.7 34.92 29 1.18 1.1 2.34 2.29 3.54 3.39 1.28 1.17 2.82 3.88 4.87 4 2.05-.12 3.59-2.82 4.87-4 1.2-1.11 2.36-2.29 3.54-3.39 11.04-10.3 26.34-16.22 34.92-29 2.57-3.84 4.46-7.94 5.22-12.48.76-4.56.73-11.1-1.13-15.43-.27-.64-.56-1.26-.86-1.86-.17-.35-.35-.68-.53-1.02-.13-.25-.26-.5-.39-.75-.24-.42-.49-.82-.74-1.23-.09-.14-.17-.28-.26-.42-.24-.37-.49-.72-.74-1.07-.11-.16-.22-.33-.33-.49-.25-.34-.51-.65-.78-.97-.12-.15-.24-.31-.36-.46-.27-.31-.54-.6-.82-.89-.13-.14-.26-.29-.39-.43-.27-.27-.56-.53-.84-.79-.15-.13-.29-.27-.44-.41-.28-.25-.57-.47-.87-.7-.16-.13-.31-.27-.48-.39-.29-.21-.58-.41-.88-.6-.18-.12-.36-.26-.54-.37-.3-.19-.6-.34-.9-.51-.2-.11-.39-.23-.59-.34-.3-.15-.61-.28-.91-.42-.22-.1-.42-.2-.64-.29-.3-.12-.61-.23-.92-.34-.23-.08-.46-.18-.71-.26-.3-.1-.61-.17-.92-.26-.26-.07-.51-.14-.77-.2-.3-.07-.62-.12-.93-.18-.28-.04-.55-.11-.83-.15-.31-.04-.64-.07-.96-.11-.29-.04-.57-.07-.86-.1-.32-.02-.66-.03-.99-.04-.27-.01-.55-.03-.83-.03h-.16c-.38 0-.77 0-1.15.01-4.04.07-7.94.97-11.64 2.52-3.96 1.67-6.67 4.16-10.2 6.4-.3.19-.63.33-.98.43-.1.03-.21.04-.32.07-.26.06-.51.09-.77.11-.11 0-.22.01-.33.01-.36-.01-.72-.05-1.07-.14-.38-.11-.75-.27-1.08-.48-3.52-2.24-6.23-4.73-10.19-6.4-3.7-1.54-7.61-2.45-11.64-2.52-.38-.01-.77-.01-1.15-.01h-.14c-.28 0-.55.02-.83.03-.33.01-.67.02-.99.04-.3.03-.58.06-.87.1-.32.04-.64.06-.96.11-.29.04-.57.11-.85.16-.3.05-.61.11-.91.18-.28.06-.54.14-.82.22-.29.08-.59.15-.87.24-.26.09-.51.19-.77.28-.28.11-.57.19-.85.31-.25.11-.48.23-.72.33-.28.15-.57.27-.84.41z" fill="#d7598b"/><g fill="#fcc21b"><path d="m67.09 27.94 3.05-5.3-3.05-5.3h-6.12l-3.06 5.3 3.06 5.3z"/><path d="m60.97 107.74-3.06 5.29 3.06 5.3h6.12l3.05-5.3-3.05-5.29z"/><path d="m72.93 101.12-3.06 5.3 3.06 5.3h6.11l3.06-5.3-3.06-5.3z"/><path d="m80.18 23.32 3.06-5.3-3.06-5.29h-6.12l-3.05 5.29 3.05 5.3z"/><path d="m93.99 20.27 3.05-5.3-3.05-5.3h-6.12l-3.06 5.3 3.06 5.3z"/><path d="m107.41 24.22 3.06-5.3-3.06-5.29h-6.11l-3.06 5.29 3.06 5.3z"/><path d="m112.15 33.31h6.12l3.05-5.29-3.05-5.3h-6.12l-3.05 5.3z"/><path d="m115.2 41.06 3.06 5.3h6.12l3.06-5.3-3.06-5.3h-6.12z"/><path d="m124.65 49.92h-6.12l-3.05 5.3 3.05 5.29h6.12l3.05-5.29z"/><path d="m94.53 84.12-3.06 5.29 3.06 5.29h6.11l3.06-5.29-3.06-5.29z"/><path d="m114.01 63.41-3.06 5.29 3.06 5.3h6.12l3.05-5.3-3.05-5.29z"/><path d="m105.02 75.29-3.05 5.29 3.05 5.3h6.12l3.06-5.3-3.06-5.29z"/><path d="m83.36 91.78-3.05 5.3 3.05 5.3h6.12l3.06-5.3-3.06-5.3z"/><path d="m55.07 101.12h-6.11l-3.06 5.3 3.06 5.3h6.11l3.06-5.3z"/><path d="m53.93 23.32 3.06-5.3-3.06-5.29h-6.11l-3.06 5.29 3.06 5.3z"/><path d="m40.13 20.27 3.06-5.3-3.06-5.3h-6.12l-3.05 5.3 3.05 5.3z"/><path d="m26.7 24.22 3.06-5.3-3.06-5.29h-6.11l-3.06 5.29 3.06 5.3z"/><path d="m15.85 33.31 3.05-5.29-3.05-5.3h-6.12l-3.05 5.3 3.05 5.29z"/><path d="m9.74 46.36 3.05-5.3-3.05-5.3h-6.12l-3.06 5.3 3.06 5.3z"/><path d="m12.52 55.22-3.05-5.3h-6.12l-3.05 5.3 3.05 5.29h6.12z"/><path d="m33.47 84.12h-6.11l-3.06 5.29 3.06 5.29h6.11l3.05-5.29z"/><path d="m17.05 68.7-3.06-5.29h-6.11l-3.06 5.29 3.06 5.3h6.11z"/><path d="m22.98 75.29h-6.12l-3.06 5.29 3.06 5.3h6.12l3.05-5.3z"/><path d="m44.64 91.78h-6.12l-3.06 5.3 3.06 5.3h6.12l3.05-5.3z"/></g></svg>