<svg viewBox="0 0 128 128" xmlns="http://www.w3.org/2000/svg"><path d="m110.07 62.9c0 25.44-20.63 46.07-46.08 46.07-25.44 0-46.06-20.63-46.06-46.07s20.63-46.06 46.06-46.06c25.46 0 46.08 20.63 46.08 46.06z" fill="#40c0e7"/><g fill="#fff"><path d="m62.99 62.9 51.88-5.15v14.6z"/><path d="m86.84 21.48-22.85 41.42 46.08-13.8-7.73-19.08z"/><path d="m63.04 63.19 48.36-19.48 1.63 26.56z"/><path d="m64.99 62.74-45.36 25.7-5.12-26.12z"/><path d="m43.82 105.69 20.17-42.79-45.11 16.71 8.93 18.55z"/><path d="m65.1 61.75-46.01 24.51 8.11 12.15z"/></g><path d="m64.96 63.79-46.71 23.14-5.16-13.67z" fill="#40c0e7"/><path d="m63.4 62.46-29.96 42.66-11.06-9.53z" fill="#fff"/><path d="m60.33 64.59 48.55-19-6.65-13.02z" fill="#fff"/><path d="m60.71 62.58 49.08-17.57 3.54 14.18z" fill="#40c0e7"/><path d="m62.1 64.09 34.71-38.91 9.88 10.75z" fill="#fff"/><ellipse cx="63.99" cy="62.9" fill="#fff" rx="11.71" ry="11.71"/><g fill="#40c0e7"><path d="m63.99 51.19c6.47 0 11.71 5.25 11.71 11.71 0 6.47-5.24 11.71-11.71 11.71s-11.71-5.24-11.71-11.71c0-6.46 5.24-11.71 11.71-11.71m0-3.67c-9.09 0-16.48 7.39-16.48 16.48 0 9.08 7.39 16.48 16.48 16.48s16.48-7.39 16.48-16.48-7.39-16.48-16.48-16.48z"/><circle cx="63.99" cy="62.9" r="5.5"/><path d="m63.99 16.84c25.45 0 46.08 20.63 46.08 46.06 0 25.44-20.63 46.07-46.08 46.07-25.44 0-46.06-20.63-46.06-46.07 0-25.43 20.63-46.06 46.06-46.06m0-6.06c-29.34 0-53.22 23.87-53.22 53.22s23.88 53.22 53.22 53.22c29.36 0 53.24-23.88 53.24-53.22 0-29.35-23.88-53.22-53.24-53.22z"/></g></svg>