<svg viewBox="0 0 128 128" xmlns="http://www.w3.org/2000/svg"><path d="m123.04 6.67c-1.22-1.75-3.62-2.18-5.37-.96l-22.04 15.39c-.67.46-1.17 1.13-1.44 1.9l-10.11 29.03-17.32-31.43c-.74-1.34-2.22-2.12-3.73-1.98-1.53.14-2.83 1.18-3.31 2.63l-24.4 73.97-11.9-9.96c-1.55-1.29-3.82-1.18-5.23.26l-15.89 16.21v9.46c.97-.02 1.93-.4 2.66-1.15l16.24-16.56 13.52 11.31c.98.82 2.31 1.1 3.53.75 1.23-.35 2.21-1.29 2.61-2.5l23.41-70.96 17.23 31.26c.73 1.33 2.17 2.12 3.71 1.98 1.52-.12 2.82-1.14 3.32-2.57l12.54-36.03 21.02-14.67c1.74-1.23 2.17-3.63.95-5.38z" fill="#ed6c30"/><path d="m122.08 128h-119.88c-1.21 0-2.2-.99-2.2-2.2v-119.07c0-1.22.99-2.2 2.2-2.2 1.22 0 2.2.99 2.2 2.2v116.86h117.67c1.22 0 2.21.99 2.21 2.2s-.98 2.21-2.2 2.21z" fill="#2f2f2f"/></svg>