<svg viewBox="0 0 128 128" xmlns="http://www.w3.org/2000/svg"><path d="m37.4 13.08c0-1.72-1.4-3.13-3.12-3.13h-11.63c-1.72 0-3.12 1.41-3.12 3.13v112.17h17.87z" fill="#ed6c30"/><path d="m73.09 50.56c0-1.72-1.4-3.13-3.12-3.13h-11.62c-1.72 0-3.13 1.41-3.13 3.13v74.69h17.87z" fill="#006ca2"/><path d="m108.79 30.71c0-1.72-1.41-3.13-3.13-3.13h-11.63c-1.71 0-3.12 1.41-3.12 3.13v94.53h17.87v-94.53z" fill="#fcc21b"/><path d="m122.63 128h-119.87c-1.53 0-2.76-1.23-2.76-2.76v-119.06c0-1.52 1.23-2.76 2.76-2.76 1.52 0 2.75 1.23 2.75 2.76v116.31h117.12c1.52 0 2.76 1.23 2.76 2.76 0 1.52-1.24 2.75-2.76 2.75z" fill="#2f2f2f"/></svg>