<svg viewBox="0 0 128 128" xmlns="http://www.w3.org/2000/svg" xmlns:xlink="http://www.w3.org/1999/xlink"><clipPath id="a"><path d="m32.77 85.43c5.96-2.5 11.67-2.83 14.1-1.06l-15.12-35.9c-1.54-3.68-8.33-4.34-15.16-1.47-6.82 2.87-11.1 8.19-9.55 11.87l15.12 35.91c.42-2.98 4.65-6.84 10.61-9.35z"/></clipPath><path d="m96.41 12.04c-.22-.5-.77-.76-1.3-.64-9.79 2.34-14.83 6.36-20.16 10.61-3.63 2.9-7.39 5.9-12.92 8.47-7.07 3.29-14.01 3.56-20.49 3.56l-3.16-.01c-7.44 0-17.37 3.73-17.79 3.89-.3.11-.53.34-.65.63s-.12.62.02.91l30.66 67.8c.19.42.6.67 1.04.67.13 0 .27-.02.41-.08.1-.04 9.96-3.74 16.98-3.74l3.16.01c6.75 0 13.97-.29 21.46-3.77 5.77-2.68 9.65-5.77 13.39-8.76 5.12-4.09 9.97-7.96 19.25-10.17.34-.08.61-.3.76-.61s.16-.67.01-.98z" fill="#b89278"/><path d="m115.17 74.16-23.01-51.29c-.26-.58-.94-.84-1.51-.58-5.08 2.25-8.58 5.04-12.29 7.99-3.63 2.9-7.4 5.9-12.92 8.46-7.08 3.28-14 3.56-20.48 3.56l-3.19-.01c-7.43 0-17.37 3.73-17.79 3.89-.29.11-.53.34-.65.63s-.12.62.02.91l23.17 51.22c.16.34.47.59.84.66.07.01.14.02.2.02.15 0 .29-.03.42-.08.21-.08 10.02-3.73 16.96-3.73l3.15.01c6.75 0 13.97-.29 21.47-3.77 5.79-2.68 9.65-5.77 13.4-8.76 3.54-2.83 6.89-5.5 11.63-7.62.28-.13.49-.36.6-.64s.1-.6-.02-.87z" fill="#fff"/><g fill="#855c52"><path d="m14.51 29.18c.58 1.37-1.01 3.35-3.56 4.42-2.54 1.07-5.07.82-5.65-.55-.57-1.37 1.02-3.35 3.56-4.42 2.55-1.06 5.07-.82 5.65.55z"/><path d="m6.21 30.86h9.99v6.73h-9.99z" transform="matrix(.9216 -.388 .388 .9216 -12.4014 7.0309)"/><path d="m17.12 35.39c.58 1.37-1.01 3.35-3.56 4.42s-5.07.83-5.65-.54c-.57-1.38 1.02-3.35 3.56-4.42 2.54-1.08 5.08-.84 5.65.54z"/></g><path d="m10.7 33c-6.83 2.87-11.1 8.19-9.56 11.87l28.16 66.87c1.54 3.68 8.33 4.34 15.16 1.47 6.82-2.87 11.1-8.19 9.56-11.88l-28.16-66.86c-1.54-3.69-8.34-4.35-15.16-1.47z" fill="#fcc21b"/><path d="m50.7 102.73c.94 2.24-2.35 5.76-7.34 7.87-5 2.1-9.81 1.99-10.76-.25-.94-2.24 2.35-5.76 7.34-7.86 4.99-2.11 9.82-2 10.76.24z" fill="#fff"/><path d="m36.07 93.26c5.95-2.51 11.66-2.84 14.1-1.06l-21.44-50.9c-1.55-3.68-8.33-4.34-15.15-1.47-6.84 2.88-11.11 8.19-9.57 11.87l21.43 50.9c.44-2.97 4.66-6.83 10.63-9.34z" fill="#757f3f"/><g fill="#855c52"><path d="m46.56 105.33c.58 1.37-1.02 3.36-3.56 4.43s-5.09.82-5.65-.55c-.58-1.37 1.02-3.35 3.56-4.43 2.55-1.07 5.07-.82 5.65.55z"/><path d="m49.17 111.53-9.21 3.88-2.6-6.2 9.2-3.88z"/><path d="m49.17 111.53c.58 1.37-1.01 3.35-3.56 4.42-2.54 1.07-5.06.83-5.65-.55-.57-1.37 1.01-3.35 3.56-4.42 2.54-1.07 5.07-.82 5.65.55z"/></g><path clip-path="url(#a)" d="m42.88 96.96-8.95 3.77-26.14-62.11 8.97-3.77z" fill="#fff"/></svg>