<svg viewBox="0 0 128 128" xmlns="http://www.w3.org/2000/svg"><path d="m69.46 3.62-65.28 32v57.28l54.36 31.48 65.28-36.38v-57.29z" fill="#fcc21b"/><path d="m58.54 127.47c-.54 0-1.07-.14-1.56-.42l-54.35-31.47c-.96-.55-1.55-1.58-1.55-2.68v-57.28c0-1.18.67-2.26 1.73-2.78l65.28-32c.87-.43 1.88-.42 2.75.01l54.36 27.09c1.04.52 1.71 1.6 1.71 2.77v57.29c0 1.12-.61 2.16-1.59 2.71l-65.28 36.38c-.46.26-.98.38-1.5.38zm-51.26-36.35 51.29 29.7 62.15-34.64v-53.55l-51.27-25.56-62.17 30.48z" fill="#855c52"/><path d="m35.92 64.69-9.26-4.8c-1.8-.94-3.55-.21-3.85 1.71-.36 1.99.92 4.28 2.82 5.34l9.85 5.16c.55.26 1.11.39 1.62.38 1.2-.05 2.02-.92 2.08-2.34.11-2.01-1.31-4.36-3.26-5.45z" fill="#855c52"/><g fill="#b89278"><path d="m36.52 62.01-10.33-5.2v-8.82l10.33 5.3z"/><path d="m36.52 108.18-10.33-5.99v-8.9l10.33 6.17z"/><path d="m98.38 21.51-10.64-5.31-61.01 30.3 10.65 5.46z"/></g><g fill="#855c52"><path d="m58.54 126.75c-.42 0-.83-.11-1.19-.32l-54.36-31.48c-.73-.43-1.19-1.21-1.19-2.06v-57.27c0-.83.43-1.59 1.13-2.02.71-.44 1.59-.47 2.33-.09l54.36 27.87c.79.41 1.29 1.22 1.29 2.11v60.9c0 .85-.45 1.63-1.18 2.06-.38.2-.78.3-1.19.3zm-51.98-35.22 49.61 28.73v-55.33l-49.61-25.43z"/><path d="m58.54 65.86c-.37 0-.75-.09-1.08-.26l-54.36-27.87c-.8-.41-1.3-1.23-1.29-2.13s.52-1.71 1.33-2.11l65.28-32c.66-.33 1.44-.32 2.1 0l54.36 27.09c.81.4 1.32 1.22 1.32 2.12s-.51 1.72-1.31 2.12l-65.28 32.78c-.34.17-.71.26-1.07.26zm-49.06-30.2 49.07 25.16 59.96-30.1-49.06-24.45z"/><path d="m58.54 126.75c-.42 0-.84-.11-1.21-.33-.73-.43-1.17-1.21-1.17-2.05v-60.9c0-.9.5-1.72 1.31-2.12l65.28-32.77c.73-.37 1.61-.33 2.31.1.71.43 1.13 1.2 1.13 2.02v57.3c0 .86-.47 1.66-1.22 2.08l-65.28 36.38c-.36.19-.75.29-1.15.29zm2.37-61.8v55.39l60.53-33.74v-52.04z"/></g></svg>