<svg viewBox="0 0 128 128" xmlns="http://www.w3.org/2000/svg" xmlns:xlink="http://www.w3.org/1999/xlink"><linearGradient id="a" gradientUnits="userSpaceOnUse" x1="97.2783" x2="97.2783" y1="104.769" y2="22.7124"><stop offset="0" stop-color="#fff"/><stop offset="1" stop-color="#00a0d6"/></linearGradient><path d="m61.01 64-31.33 22.97v-14.33h-29.24v-17.14h29.24v-14.47z" fill="#ed6c30"/><path d="m121.74 6.34c-4.24-1.9-16.62-3.11-24.47-3.11-7.84 0-20.23 1.21-24.46 3.11-4.14 1.86-5.81 5.53-5.81 8.99v97.34c0 3.46 1.67 7.13 5.82 8.99 4.23 1.9 16.62 3.11 24.46 3.11 7.85 0 20.23-1.21 24.47-3.11 4.15-1.86 5.81-5.53 5.81-8.99v-97.34c-.01-3.46-1.67-7.13-5.82-8.99z" fill="#006ca2"/><path d="m102.85 10.75h-11.13c-.58 0-1.04-.46-1.04-1.04 0-.57.46-1.04 1.04-1.04h11.13c.58 0 1.04.47 1.04 1.04s-.47 1.04-1.04 1.04z" fill="#fff"/><circle cx="117.17" cy="10.49" fill="#fff" r="1.99"/><path d="m72.49 22.71h49.57v82.06h-49.57z" fill="url(#a)"/><g fill="#fff"><path d="m81.65 108.93v.7l-1.53-1.11 1.53-1.12v.7h.88c1.72 0 2.83.51 2.83 1.99 0 1.49-1.11 2-2.83 2h-1.98v-.83h1.98c1.46 0 2-.32 2-1.17 0-.84-.53-1.16-2-1.16z"/><path d="m100.19 111.81h-5.74v-2.9l2.87-1.21 2.87 1.21zm-4.91-.83h4.08v-1.52l-2.03-.86-2.04.86v1.52z"/><path d="m113.83 111.81h-4.8v-3.04h4.8zm-3.97-.83h3.14v-1.37h-3.14z"/><path d="m115.19 110.09h-.83v-1.78h-3.55v-.83h4.38z"/></g></svg>