<svg viewBox="0 0 128 128" xmlns="http://www.w3.org/2000/svg"><path d="m117.05 29h-106.1c-3.89 0-7.08 3.18-7.08 7.08v55.86c0 3.89 3.19 7.07 7.08 7.07h106.1c3.9 0 7.08-3.18 7.08-7.07v-55.87c0-3.89-3.18-7.07-7.08-7.07z" fill="#fff"/><path d="m120.05 27.02h-112.1c-4.11 0-7.47 3.36-7.47 7.47v59.01c0 4.11 3.36 7.47 7.47 7.47h112.1c4.11 0 7.47-3.36 7.47-7.47v-59.01c0-4.11-3.36-7.47-7.47-7.47zm-5.22 25.02s.23.2.59.61c-.44 5.07-1.09 9.05-1.78 12.16-.95-5.49-4.33-10.13-9.02-12.77zm-32.65 33.5h-36.35c-2.4 0-4.36-1.96-4.36-4.36v-24.78c0-2.4 1.96-4.36 4.36-4.36h36.35c1.09 0 2.09.42 2.86 1.09.91.8 1.5 1.96 1.5 3.26v24.78c0 .79-.23 1.52-.6 2.16-.76 1.32-2.15 2.21-3.76 2.21zm-46.95-11.41c-.68.24-1.41.39-2.17.39-3.64 0-6.59-2.95-6.59-6.59s2.95-6.59 6.59-6.59c.76 0 1.49.16 2.17.4zm60.44.39c-.63 0-1.22-.12-1.8-.28v-12.62c.58-.17 1.17-.28 1.8-.28 3.65 0 6.59 2.95 6.59 6.59 0 3.65-2.95 6.59-6.59 6.59zm-82.13-22.48h21.69v2.59c-.7-.12-1.43-.19-2.17-.19-7.45 0-13.49 6.04-13.49 13.48 0 .11.01.22.02.32-2.14-3.43-4.66-8.18-7.39-14.62.76-1.09 1.34-1.58 1.34-1.58zm-4.94 15.79c0-5.38 1.04-9.14 2.17-11.64 2.39 5.74 7.71 17.29 13.69 22.14l.06.05c.25.21.51.4.78.58.15.1.3.21.46.3.03.02.06.05.1.07 2.08 1.32 4.54 2.09 7.19 2.09.74 0 1.47-.07 2.17-.19v4.31h-21.68s-4.94-5.99-4.94-17.71zm106.23 17.71h-14.44c4.84-1.3 8.9-4.51 11.27-8.81 3.59-4.51 5.16-13.63 5.86-20.73 1.16 2.5 2.25 6.3 2.25 11.82-.01 11.73-4.94 17.72-4.94 17.72z" fill="#2f2f2f"/></svg>