<svg viewBox="0 0 128 128" xmlns="http://www.w3.org/2000/svg"><path d="m64 3.69c-33.31 0-60.31 27-60.31 60.31s27.01 60.32 60.32 60.32 60.31-27 60.31-60.32c-.01-33.31-27-60.31-60.32-60.31z" fill="#006ca2"/><path d="m64 .35c-35.15 0-63.64 28.5-63.64 63.65s28.5 63.65 63.65 63.65c35.16 0 63.64-28.49 63.64-63.65-.01-35.15-28.49-63.65-63.65-63.65zm19.58 109.67v1.73h-4.7c-4.7 1.46-9.7 2.25-14.88 2.25-27.61 0-50-22.38-50-50 0-27.61 22.39-50 50-50 4.65 0 9.14.64 13.41 1.83h6.16v2.15c17.9 7.62 30.43 25.35 30.43 46.02s-12.53 38.4-30.42 46.02z" fill="#ed6c30"/><path d="m83.58 15.83c-7.6 0-13.01 14.09-14.79 33.52 5.09.04 8.52 7.15 8.52 15.93 0 8.56-4.05 15.52-8.22 15.9 2.04 17.88 7.28 30.57 14.49 30.57 5.21 0 13.87-21.47 13.87-47.95 0-26.5-8.66-47.97-13.87-47.97z" fill="#fff"/><path d="m58.94 63.8c0-23.29 6.42-42.76 15.04-47.96-1.03 0-2.04 0-3.25 0-3.34 0-10.08 9.75-14.13 24.2l-12.1 15.19c-1.44.22-2.87.56-4.33.89-.56-6.15-1.82-10.43-4.18-10.78.1-.01-.31-.04-.31-.04h-6.64-1.44c-4.38 0-7.92 8.88-7.92 19.84s3.55 19.85 7.92 19.85h1.44 6.64s.41-.03.31-.05c2.4-.34 3.66-4.78 4.21-11.11l4.3 1.23 13.89 17.53s.11.04.26.08c4.3 11.59 9.9 19.08 11.58 19.08h3.75c-8.63-5.21-15.04-24.67-15.04-47.95z" fill="#fff"/><path d="m112.89 101.57-11.1 11.1-88.12-87.35 11.1-11.11z" fill="#ed6c30"/></svg>