<svg viewBox="0 0 128 128" xmlns="http://www.w3.org/2000/svg"><g fill="#fcc21b"><path d="m127.88 100.37c0 15.13-12.38 27.52-27.52 27.52h-72.73c-15.13 0-27.52-12.38-27.52-27.52v-72.74c0-15.13 12.38-27.52 27.52-27.52h72.73c15.13 0 27.52 12.38 27.52 27.52z"/><path d="m4.16 4.16c-2.49 2.49-4.04 5.93-4.04 9.71v100.26c0 3.78 1.55 7.22 4.04 9.71l59.84-59.84z"/><path d="m123.84 4.16c-2.49-2.49-5.93-4.04-9.72-4.04h-100.24c-3.78 0-7.22 1.55-9.72 4.04l59.84 59.84z"/></g><path d="m64 64 59.84 59.84c2.49-2.49 4.04-5.93 4.04-9.71v-100.26c0-3.78-1.55-7.22-4.04-9.71z" fill="#f79329"/><path d="m4.16 123.84c2.49 2.49 5.93 4.04 9.72 4.04h100.25c3.78 0 7.22-1.55 9.72-4.04l-59.85-59.84z" fill="#f79329"/><path d="m127.88 100.37c0 15.13-12.38 27.52-27.52 27.52h-72.73c-15.13 0-27.52-12.38-27.52-27.52v-72.74c0-15.13 12.38-27.52 27.52-27.52h72.73c15.13 0 27.52 12.38 27.52 27.52z" fill="none"/><path d="m112.02 98.94c0 7.2-5.89 13.08-13.08 13.08h-69.88c-7.2 0-13.08-5.89-13.08-13.08v-69.88c0-7.2 5.89-13.08 13.08-13.08h69.88c7.2 0 13.08 5.89 13.08 13.08z" fill="#fcc21b"/><g fill="#fff"><path d="m29.02 45.39 5.66-.53v41.67h-4.22c-.56 0-1.01.46-1.01 1.02v14.09c0 .56.45 1.01 1.01 1.01h22.72c.56 0 1.02-.46 1.02-1.01v-14.09c0-.56-.45-1.02-1.02-1.02h-4.22v-60.44c0-.3-.13-.59-.36-.78s-.54-.28-.83-.22l-19.03 3.44c-.48.09-.83.51-.83 1v14.84c0 .29.12.56.33.75.21.2.48.3.78.27z"/><path d="m81.44 103.13c13.68 0 22.53-15.41 22.53-39.26 0-14.18-3.14-25.34-8.55-32.09-3.69-4.6-8.43-7.18-13.98-7.18-13.68 0-22.52 15.41-22.52 39.27 0 1.61.05 3.17.13 4.7 1.09 21.15 9.63 34.56 22.39 34.56zm-7.67-49.46c1.35-6.68 4.1-10.75 7.67-10.75.82 0 1.59.24 2.31.65 3.83 2.16 6.28 9.76 6.28 20.29 0 12.52-3.45 20.94-8.59 20.94s-8.59-8.41-8.59-20.94c0-3.82.33-7.26.92-10.19z"/></g></svg>