<svg viewBox="0 0 128 128" xmlns="http://www.w3.org/2000/svg"><path d="m.18.13h127.63v127.74h-127.63z" fill="#fff"/><g fill="#ed6c30"><path d="m.19.13v63.93h63.81v-63.93zm54 54.18c-.18.26-.47.42-.79.42h-10.65c-.42 0-.79-.27-.92-.67l-2.47-7.42h-14.52l-2.47 7.42c-.12.4-.5.67-.91.67h-10.66c-.32 0-.62-.16-.79-.42-.19-.26-.22-.6-.11-.89l16.25-43.21c.15-.38.51-.63.91-.63h10.1c.4 0 .76.25.9.63l16.24 43.21c.12.3.08.63-.11.89z"/><path d="m27.88 37.47h8.44l-4.22-12.71z"/><path d="m64.01 64.06v63.81h63.81v-63.81zm32.73 54.7h-18.85c-.53 0-.97-.44-.97-.97v-43.64c0-.53.43-.97.97-.97h18.85c13.04 0 21.8 9.16 21.8 22.79s-8.76 22.79-21.8 22.79z"/><path d="m97.71 83.97c-.32-.04-.64-.07-.97-.1-.19 0-.36-.05-.56-.05-.11 0-.23.03-.33.07-.03-.01-.05-.01-.07-.02-.03 0-.06-.01-.09-.01h-6.36c-.51 0-.94.42-.94.93v22.34c0 .51.43.94.94.94h6.36c.04 0 .06-.02.09-.02.02 0 .05-.01.07-.02.1.04.22.07.33.07.2 0 .37-.04.56-.05.33-.02.65-.05.97-.09 5.65-.72 9.37-5.32 9.37-12 0-6.66-3.72-11.27-9.37-11.99z"/></g><g fill="#2f2f2f"><path d="m79.95 54.94h18.43c7.98 0 14.46-5.85 14.46-13.03 0-4.34-2.38-8.2-6.02-10.55 2.45-2.34 3.97-5.49 3.97-8.96 0-7.18-6.49-13.03-14.47-13.03h-16.37c-.53 0-.97.44-.97.97v43.64c0 .53.44.96.97.96zm16.27-8.42c-.07 0-.13.02-.2.02h-6.38l-.22-.22v-10.23l.22-.22h6.38c.04 0 .08.01.13.01 2.64.07 4.75 2.42 4.75 5.31 0 2.88-2.08 5.21-4.68 5.33zm-.56-19.22h-6.05l-.22-.22v-8.77l.22-.23h6.05c2.43 0 4.4 2.07 4.4 4.61 0 2.55-1.98 4.61-4.4 4.61z"/><path d="m48.2 103.71-.45.11c-2.91 2.32-7.94 4.07-11.69 4.07-7.24 0-12.29-4.9-12.29-11.92s5.05-11.91 12.29-11.91c3.92 0 7.93 1.26 10.47 3.29l.44.1.37-.27 5.17-9.83-.14-.66c-4.22-3.34-9.58-4.97-16.36-4.97-14.46 0-24.97 10.2-24.97 24.25s10.5 24.25 24.97 24.25c6.62 0 12.34-2.01 17-5.99l.13-.63-4.57-9.59z"/></g></svg>