<svg viewBox="0 0 128 128" xmlns="http://www.w3.org/2000/svg"><g fill="#fff"><path d="m.28.28h63.72v63.72h-63.72z"/><path d="m64 64h63.72v63.72h-63.72z"/><path d="m.29 64h63.71v63.72h-63.71z"/><path d="m64 .28h63.72v63.72h-63.72z"/></g><g fill="#ed6c30"><path d="m.28.28v63.72h63.72v-63.72zm43.08 56.68c0 .41-.33.73-.73.73h-19.66c-.41 0-.73-.32-.73-.73v-9.26c0-.4.32-.73.73-.73h3.8v-27.07l-4.93 1.41-.64-.12-.29-.58v-9.74c0-.34.24-.64.57-.71l16.46-3.53.61.15.27.56v39.65h3.81c.4 0 .73.33.73.73z"/><path d="m64 64v63.72h63.72v-63.72zm52.91 48.4c0 .4-.33.72-.73.72h-8.62v8.85c0 .4-.32.72-.73.72h-10.98c-.4 0-.72-.32-.72-.72v-8.85h-20.22c-.4 0-.72-.32-.72-.72v-8.84c0-.11.07-.18.11-.27v-.12l20.94-32.31c.02-.03.05-.04.08-.07s.05-.05.08-.07c.13-.11.28-.19.45-.19h10.99c.18 0 .33.08.46.19.04.03.06.06.08.09.03.04.08.06.1.1l-.01.12c.03.08.09.13.09.22v31.59h8.62c.4 0 .73.32.73.72z"/><path d="m95.12 102.83v-12.16l-7.88 12.16z"/></g><path d="m81.14 24.67.57.37.65-.21c.06-.05 5.98-5.53 11.16-5.53 2.08 0 3.72.88 4.99 2.68 1.04 1.47 1.35 3.1.93 4.95-1.98 8.86-19.44 18.87-19.62 18.98-.25.15-.4.4-.4.69v10.48c0 .44.35.8.8.8h33.96c.44 0 .8-.36.8-.8v-10.03c0-.44-.35-.79-.8-.79h-19.47c3.06-1.88 8.43-5.59 14.52-11.69 2.92-2.91 4.77-6.96 5.08-11.11.34-4.52-1.18-8.72-4.28-11.82-3.95-3.95-8.45-5.95-13.38-5.95-10.87 0-19.93 9.61-20.31 10.02-.24.26-.29.65-.1.96z" fill="#2f2f2f"/><path d="m43.7 96.13c4.08-3.07 6.53-6.89 6.96-10.88.41-3.86-1.1-7.72-4.37-11.15-3.28-3.44-7.72-5.27-12.83-5.27-7.85 0-15.06 4.16-17.26 7.15-.19.26-.19.61-.01.87l4.87 7.06.51.31.58-.16c.05-.05 5.36-4.38 9.87-4.38 2.07 0 3.6.91 4.67 2.77.9 1.56 1.07 2.98.52 4.32-1.49 3.69-7.78 5.54-7.85 5.56-.31.09-.53.39-.53.72v6.21c0 .34.23.65.57.72.06.02 6.06 1.51 7.42 4.94.54 1.35.26 2.87-.81 4.53-1.13 1.76-2.85 2.65-5.11 2.65-4.37 0-9.72-3.31-12.07-5.41l-.58-.18-.53.32-4.86 7.05c-.19.28-.17.65.05.91.33.39 8.31 9.59 19.64 9.59l.28-.01c3.17-.04 9.18-.74 13.76-4.86 3.76-3.38 5.57-8.2 4.85-12.88-.71-4.41-3.49-8.18-7.74-10.5z" fill="#2f2f2f"/><path d="m32.53 123.63v-.01z"/></svg>