<svg viewBox="0 0 128 128" xmlns="http://www.w3.org/2000/svg" xmlns:xlink="http://www.w3.org/1999/xlink"><defs><path id="a" d="m115.17 105.63c0 5.47-4.48 9.96-9.96 9.96h-83.26c-5.48 0-9.96-4.48-9.96-9.96v-83.28c0-5.47 4.48-9.96 9.96-9.96h83.26c5.47 0 9.96 4.48 9.96 9.96z"/><clipPath id="b"><use xlink:href="#a"/></clipPath><clipPath id="c"><use xlink:href="#d"/></clipPath><path id="d" d="m32.37 100.86c-3.12 0-5.65-2.53-5.65-5.64v-62.45c0-3.12 2.54-5.65 5.65-5.65h62.43c3.11 0 5.65 2.53 5.65 5.65v62.45c0 3.11-2.54 5.64-5.65 5.64z"/></defs><path d="m127.56 113.88c0 7.53-6.16 13.69-13.69 13.69h-99.74c-7.53 0-13.69-6.16-13.69-13.69v-99.76c0-7.53 6.16-13.69 13.69-13.69h99.75c7.53 0 13.69 6.16 13.69 13.69v99.76z" fill="#fcc21b"/><use fill="#fff" xlink:href="#a"/><path clip-path="url(#b)" d="m117.56 8.65-109.62 110.89h109.62l2.83-2.83v-105.44z" fill="#f79329"/><path d="m32.37 100.86c-3.12 0-5.65-2.53-5.65-5.64v-62.45c0-3.12 2.54-5.65 5.65-5.65h62.43c3.11 0 5.65 2.53 5.65 5.65v62.45c0 3.11-2.54 5.64-5.65 5.64z" fill="#fcc21b"/><use fill="#fff" xlink:href="#d"/><path clip-path="url(#c)" d="m26.34 101.39 77.28-78.18h-77.28l-2 2v74.34z" fill="#f79329"/><path d="m41 45.38c0-2.18 1.79-3.98 3.98-3.98h37.22c2.19 0 3.97 1.79 3.97 3.98v37.22c0 2.19-1.78 3.98-3.97 3.98h-37.22c-2.19 0-3.98-1.79-3.98-3.98z" fill="#fcc21b"/></svg>