<svg xmlns="http://www.w3.org/2000/svg" viewBox="0 0 128 128"><path fill="#8E24AA" d="M116 4H12c-4.42 0-8 3.58-8 8v104c0 4.42 3.58 8 8 8h104c4.42 0 8-3.58 8-8V12c0-4.42-3.58-8-8-8Z"/><path fill="#AB47BC" d="M109.7 4H11.5A7.555 7.555 0 0 0 4 11.5v97.9c-.01 4.14 3.34 7.49 7.48 7.5H109.6c4.14.01 7.49-3.34 7.5-7.48V11.5c.09-4.05-3.13-7.41-7.18-7.5h-.22Z"/><path fill="#FAFAFA" d="M39.7 12.9c0-2.3-1.6-3-10.8-2.7-7.7.3-11.5 1.2-13.8 4-2.3 2.8-2.9 8.5-3 15.3 0 4.8 0 9.3 2.5 9.3 3.4 0 3.4-7.9 6.2-12.3 5.4-8.7 18.9-10.6 18.9-13.6Z" opacity=".3"/><path fill="#FAFAFA" d="M105.8 55c-3.5-5-9.2-8.8-16.9-7.8-18.5 2.4-11 22.6-30.4 24.7-4.5.5-14.5-3.4-8.5-7.3 11.4-7.4 21.4-30.5-6-30.3-9 0-16.6 4.7-20.4 7.5-.2.2-.3.4-.1.6l4.3 6.9c.08.14.24.22.4.2.1 0 .1 0 .2-.1 3.4-2.1 11.4-6.7 16.7-7.2 15.5-1.5 15.9 20-9.2 21.3-2 .1 1.7 5.5 3 7.5 3.7 5.8 12.7 1.9 16.2 5.9 9.4 10.3-2.2 25.1-15 25.1-14.7 0-22.3-10.2-25.1-15.2a.487.487 0 0 0-.68-.14c-.15.1-.23.27-.22.44 3.7 21 18.3 24.9 27.5 24.9 8.6 0 17.6-4.6 21.3-13.9 3.8-9.7-4.5-21.3-2.1-23.7 2.4-2.4 15.1-1.3 19.1-10 3-6.6 10.8-14.6 18.1-12.3 4.9 1.5 8.7 9.5 7.9 21.5-.4 6.9-3.3 16.6-10.2 18.7-13.1 4-18.2-2-20.5-4.6-.2-.3-.7 0-.6.4C77 95.8 83.1 102 90.9 102c7.6 0 12.8-3.1 16.2-12.7 2.1-6.1 5.9-24-1.3-34.3Z"/><path fill="#FAFAFA" d="M106.62 54.427q4.907 7.02 4.316 19.346-.414 8.66-2.893 15.861Q103.309 103 90.9 103q-6.03 0-10.843-4.318-4.451-3.994-6.412-10.284l-.008-.028-.007-.027q-.249-.996.621-1.549 1.052-.67 1.737.288l.045.051q2.882 3.261 5.857 4.462 5.467 2.207 13.519-.252 4.288-1.305 6.92-7.012 2.227-4.827 2.573-10.798.563-8.436-1.744-14.252-2.057-5.186-5.459-6.227-4.543-1.432-9.745 2.646-4.662 3.654-7.145 9.118-2.894 6.293-14.764 8.854-3.957.854-4.538 1.435-.541.541 1.076 5.681 3.641 11.57 1.246 17.682-2.781 6.989-9.22 10.921Q48.698 113 41.6 113q-9.434 0-16.377-4.75-9.565-6.543-12.108-20.976l-.01-.057-.003-.058q-.051-.855.672-1.337.517-.337 1.116-.214.607.124.948.646l.018.028.017.029Q24.098 101 40.1 101q9.498 0 14.993-8.242 5.541-8.311-.746-15.199-1.309-1.497-6.428-1.868-7.562-.548-9.857-4.146l-.308-.47q-1.914-2.918-2.66-4.435-.676-1.374-.762-2.221-.073-.728.25-1.227.419-.648 1.266-.691 8.503-.44 13.702-3.92 4.36-2.917 5.195-6.982.761-3.698-1.721-6.179-2.719-2.719-7.83-2.224-5.699.537-16.193 7.008-.325.272-.728.294-.879.087-1.33-.683l-4.24-6.803q-.815-.914.19-1.919l.053-.053.061-.045Q33.45 33.3 43.993 33.3q9.992-.073 14.742 3.837 4.264 3.509 3.812 9.538-.384 5.128-3.987 10.591-3.425 5.193-8.015 8.172-1.548 1.007-1.397 1.84.152.84 1.682 1.767 3.771 2.282 7.562 1.861 6.217-.673 9.843-4.227 2.206-2.162 5.038-7.72 2.886-5.661 5.188-7.986 3.893-3.932 10.31-4.765 11.088-1.44 17.848 8.219Zm-1.639 1.146h-.001q-6.066-8.665-15.951-7.381-5.737.744-9.147 4.188-2.083 2.104-4.827 7.488-2.981 5.848-5.42 8.239-4.122 4.04-11.027 4.787-4.462.496-8.813-2.139-2.302-1.393-2.615-3.121-.388-2.142 2.275-3.872 4.241-2.753 7.435-7.597 3.317-5.03 3.663-9.64.374-4.994-3.088-7.844-4.191-3.449-13.458-3.381-9.689 0-19.392 6.998l3.719 5.969q10.618-6.491 16.672-7.063 6.046-.585 9.432 2.801 3.244 3.244 2.267 7.996-1.001 4.869-6.043 8.243-5.526 3.698-14.292 4.231.121.475.518 1.282.692 1.407 2.538 4.221l.312.477q1.765 2.766 8.325 3.241 5.939.431 7.79 2.545 7.313 8.013.904 17.626Q50.669 103 40.1 103q-9.985 0-17.626-5.935-3.94-3.061-6.787-7.251 2.766 11.382 10.665 16.786Q32.785 111 41.6 111q6.535 0 11.966-3.316 5.871-3.584 8.405-9.954 2.133-5.445-1.296-16.342-1.981-6.296-.582-7.695.997-.998 5.53-1.976 10.893-2.35 13.368-7.735 2.683-5.901 7.73-9.857 6.031-4.727 11.58-2.979 4.305 1.318 6.716 7.398 2.473 6.236 1.881 15.123-.367 6.331-2.752 11.502-3.009 6.521-8.155 8.088-11.904 3.635-19.446-2.815 1.775 3.994 4.848 6.751Q85.635 101 90.9 101q10.995 0 15.257-12.034 2.381-6.914 2.782-15.289.557-11.643-3.958-18.104ZM74.52 88.441l-.069-.078-.031-.036q.049.064.1.114Z"/><path fill="#FAFAFA" d="M99.8 27.3a2.224 2.224 0 0 0-3.4-.2c-2.5 2.5-6.8 5.9-17.1 6.9-13 1.3-24.8-10.9-20.5-3.6 2.4 4 10.6 9.5 22.6 9.5 7.8 0 15.3-3.7 20.4-6.9 1.01-.62 1.33-1.94.71-2.96-.16-.25-.36-.47-.61-.64a8.382 8.382 0 0 1-2.1-2.1Z"/><path fill="#FAFAFA" d="m81.8 16.6 4.2 4.2c.77.73.81 1.96.07 2.73l-.07.07-4.2 4.2c-.73.77-1.96.81-2.73.07L79 27.8l-4.2-4.2c-.77-.73-.81-1.96-.07-2.73l.07-.07 4.2-4.2c.73-.77 1.96-.81 2.73-.07l.07.07Z"/></svg>