<svg viewBox="0 0 128 128" xmlns="http://www.w3.org/2000/svg"><path d="m64 121.74c-31.84 0-57.73-25.9-57.73-57.73 0-31.84 25.89-57.74 57.73-57.74 31.83 0 57.73 25.9 57.73 57.74 0 31.83-25.89 57.73-57.73 57.73z" fill="#fff"/><path d="m64 .1c-35.23 0-63.9 28.67-63.9 63.9s28.67 63.89 63.9 63.89 63.89-28.66 63.89-63.89c.01-35.23-28.66-63.9-63.89-63.9zm0 121.64c-31.84 0-57.73-25.9-57.73-57.73 0-31.84 25.89-57.74 57.73-57.74 31.83 0 57.73 25.9 57.73 57.74 0 31.83-25.89 57.73-57.73 57.73z" fill="#40c0e7"/><g fill="#2f2f2f"><path d="m73.79 63.99c0-3.73-2.11-6.92-5.18-8.57v-44.09h-9.21v44.08c-3.07 1.65-5.18 4.85-5.18 8.58 0 5.41 4.37 9.78 9.78 9.78 1.89 0 3.64-.56 5.14-1.49l21.38 12.35 4.6-7.97-21.37-12.34c0-.11.04-.22.04-.33zm-11.24 3.4c-1.31-.56-2.23-1.87-2.23-3.39 0-.18.02-.36.05-.53.14-.95.63-1.77 1.35-2.34.63-.5 1.42-.81 2.29-.81 2.04 0 3.69 1.65 3.69 3.68 0 1.52-.92 2.83-2.24 3.39-.02.01-.04.01-.06.02-.43.18-.9.28-1.39.28-.5 0-.97-.1-1.4-.28-.02 0-.04-.01-.06-.02z"/><path d="m113.93 60.32c-2.03 0-3.69 1.65-3.69 3.69 0 2.03 1.65 3.68 3.69 3.68 2.03 0 3.68-1.65 3.68-3.68.01-2.04-1.64-3.69-3.68-3.69z"/><path d="m109.08 42.23c1.76-1.02 2.36-3.28 1.35-5.04-1.02-1.76-3.27-2.36-5.03-1.35-1.76 1.02-2.37 3.27-1.35 5.04 1.02 1.76 3.27 2.37 5.03 1.35z"/><path d="m87.13 23.95c1.76 1.01 4.01.41 5.03-1.35s.41-4.01-1.35-5.03-4.02-.42-5.03 1.35c-1.02 1.76-.42 4.01 1.35 5.03z"/><path d="m37.19 17.57c-1.77 1.01-2.36 3.27-1.35 5.03s3.27 2.37 5.03 1.35c1.77-1.02 2.37-3.26 1.34-5.03-1-1.77-3.25-2.37-5.02-1.35z"/><path d="m22.6 35.85c-1.76-1.02-4.01-.41-5.03 1.34-1.02 1.76-.41 4.02 1.35 5.03 1.76 1.02 4.01.42 5.03-1.35 1.02-1.76.4-4.01-1.35-5.02z"/><path d="m14.06 60.32c-2.03 0-3.68 1.65-3.68 3.68s1.65 3.68 3.68 3.68c2.04 0 3.69-1.65 3.69-3.69 0-2.03-1.65-3.67-3.69-3.67z"/><path d="m18.91 85.78c-1.75 1.02-2.36 3.27-1.34 5.03 1.02 1.77 3.27 2.36 5.03 1.35 1.76-1.02 2.37-3.27 1.35-5.04-1.02-1.76-3.27-2.36-5.04-1.34z"/><path d="m40.87 104.05c-1.77-1.02-4.02-.41-5.03 1.35s-.41 4.01 1.35 5.03 4.02.41 5.03-1.35c1.02-1.75.41-4.01-1.35-5.03z"/><path d="m63.99 110.25c-2.04 0-3.67 1.65-3.68 3.69.01 2.03 1.65 3.68 3.68 3.68s3.69-1.65 3.68-3.68c.01-2.04-1.64-3.69-3.68-3.69z"/><path d="m87.12 104.06c-1.77 1.02-2.37 3.26-1.34 5.03 1.02 1.76 3.27 2.37 5.03 1.35 1.76-1.01 2.37-3.28 1.35-5.03-1.02-1.76-3.28-2.37-5.04-1.35z"/><path d="m109.08 85.78c-1.76-1.02-4.02-.41-5.03 1.35-1.02 1.77-.42 4 1.35 5.03 1.76 1.01 4.01.42 5.03-1.35 1.02-1.75.42-4.02-1.35-5.03z"/></g></svg>