<svg viewBox="0 0 128 128" xmlns="http://www.w3.org/2000/svg"><path d="m64 121.74c-31.84 0-57.74-25.9-57.74-57.73 0-31.84 25.91-57.75 57.74-57.75s57.73 25.9 57.73 57.74c.01 31.84-25.89 57.74-57.73 57.74z" fill="#fff"/><path d="m64 .1c-35.23 0-63.9 28.67-63.9 63.9s28.67 63.9 63.9 63.9 63.9-28.66 63.9-63.9c0-35.23-28.66-63.9-63.9-63.9zm0 121.64c-31.84 0-57.74-25.9-57.74-57.73 0-31.84 25.91-57.75 57.74-57.75s57.73 25.9 57.73 57.74c.01 31.84-25.89 57.74-57.73 57.74z" fill="#40c0e7"/><g fill="#2f2f2f"><path d="m68.61 55.42v-44.09h-9.21v44.09c-3.07 1.65-5.18 4.85-5.18 8.57 0 3.74 2.11 6.94 5.18 8.59v24.71h9.21v-24.71c3.07-1.65 5.18-4.85 5.18-8.59-.01-3.72-2.12-6.92-5.18-8.57zm-3.22 11.99c-.43.18-.9.27-1.39.27-.5 0-.97-.1-1.4-.27-.02-.01-.03-.02-.06-.03-1.31-.56-2.23-1.86-2.23-3.38 0-1.55.96-2.88 2.32-3.42.43-.17.88-.27 1.37-.27.48 0 .94.1 1.36.27 1.36.54 2.33 1.86 2.33 3.42 0 1.52-.92 2.83-2.24 3.38-.02.02-.03.03-.06.03z"/><path d="m113.94 60.32c-2.04 0-3.69 1.65-3.69 3.69 0 2.03 1.65 3.68 3.69 3.68 2.03 0 3.68-1.65 3.68-3.68 0-2.05-1.65-3.69-3.68-3.69z"/><path d="m109.09 42.23c1.76-1.02 2.36-3.27 1.34-5.04-1.01-1.76-3.27-2.36-5.03-1.35-1.76 1.02-2.36 3.27-1.35 5.04 1.02 1.76 3.27 2.36 5.04 1.35z"/><path d="m90.81 17.57c-1.76-1.02-4.01-.42-5.03 1.35-1.02 1.76-.42 4.01 1.35 5.03 1.76 1.02 4.02.41 5.03-1.35 1.01-1.77.41-4.02-1.35-5.03z"/><path d="m37.19 17.56c-1.77 1.02-2.36 3.27-1.35 5.03 1.01 1.77 3.27 2.37 5.03 1.35 1.77-1.02 2.37-3.27 1.34-5.03-1-1.76-3.25-2.36-5.02-1.35z"/><path d="m22.6 35.84c-1.76-1.02-4.01-.41-5.03 1.35s-.41 4.01 1.35 5.03 4.02.42 5.03-1.35c1.02-1.76.41-4.01-1.35-5.03z"/><path d="m14.06 60.31c-2.03 0-3.68 1.65-3.68 3.68 0 2.04 1.65 3.68 3.68 3.68 2.03.01 3.68-1.65 3.68-3.68s-1.64-3.68-3.68-3.68z"/><path d="m18.91 85.78c-1.76 1.02-2.36 3.27-1.35 5.03 1.02 1.76 3.27 2.37 5.03 1.35 1.77-1.02 2.37-3.27 1.36-5.04-1.03-1.76-3.27-2.36-5.04-1.34z"/><path d="m40.87 104.05c-1.77-1.02-4.01-.41-5.04 1.35-1.01 1.76-.41 4.01 1.35 5.03 1.75 1.02 4.02.41 5.03-1.35 1.03-1.75.42-4.01-1.34-5.03z"/><path d="m63.99 110.25c-2.04 0-3.67 1.65-3.68 3.69 0 2.03 1.65 3.68 3.68 3.68s3.69-1.65 3.68-3.68c.02-2.04-1.64-3.69-3.68-3.69z"/><path d="m87.12 104.06c-1.77 1.02-2.37 3.26-1.34 5.03 1.02 1.76 3.27 2.37 5.02 1.35 1.77-1.01 2.37-3.27 1.35-5.03-1.01-1.76-3.27-2.37-5.03-1.35z"/><path d="m109.09 85.78c-1.76-1.02-4.02-.41-5.04 1.35-1.02 1.77-.41 4.01 1.35 5.03s4.01.41 5.03-1.34c1.02-1.76.42-4.03-1.34-5.04z"/></g></svg>