<svg viewBox="0 0 128 128" xmlns="http://www.w3.org/2000/svg"><path d="m64 6.27c-31.83 0-57.73 25.9-57.73 57.73 0 31.84 25.9 57.73 57.73 57.73s57.74-25.89 57.74-57.73c0-31.83-25.91-57.73-57.74-57.73z" fill="#fff"/><path d="m64 127.9c-35.23 0-63.9-28.67-63.9-63.9s28.67-63.9 63.9-63.9 63.9 28.67 63.9 63.9c-.01 35.23-28.67 63.9-63.9 63.9zm0-121.63c-31.83 0-57.73 25.9-57.73 57.73 0 31.84 25.9 57.73 57.73 57.73s57.74-25.89 57.74-57.73c0-31.83-25.91-57.73-57.74-57.73z" fill="#40c0e7"/><g fill="#2f2f2f"><path d="m117.61 64c0 2.04-1.66 3.69-3.69 3.69s-3.68-1.65-3.68-3.69 1.65-3.69 3.68-3.69c2.04.01 3.69 1.66 3.69 3.69z"/><path d="m110.43 37.19c1.02 1.77.41 4.02-1.35 5.04-1.77 1.02-4.02.41-5.03-1.35-1.02-1.76-.41-4.01 1.35-5.04 1.76-1.01 4.02-.41 5.03 1.35z"/><path d="m90.81 17.57c1.76 1.02 2.36 3.27 1.34 5.04-1.01 1.75-3.27 2.36-5.03 1.35-1.76-1.02-2.36-3.27-1.34-5.04 1.01-1.76 3.27-2.37 5.03-1.35z"/><path d="m37.19 17.56c1.76-1.01 4.01-.41 5.03 1.35 1.02 1.77.42 4.01-1.35 5.03s-4.02.41-5.03-1.35-.41-4 1.35-5.03z"/><path d="m17.56 37.19c1.02-1.76 3.27-2.37 5.04-1.35 1.76 1.02 2.37 3.27 1.34 5.03-1.02 1.76-3.27 2.37-5.03 1.35s-2.36-3.27-1.35-5.03z"/><path d="m10.38 64c0-2.03 1.65-3.68 3.68-3.68s3.67 1.65 3.67 3.68-1.64 3.69-3.67 3.68c-2.03 0-3.69-1.65-3.68-3.68z"/><path d="m17.56 90.81c-1.01-1.76-.41-4.01 1.35-5.03s4.01-.42 5.03 1.35c1.02 1.76.41 4.02-1.36 5.03-1.75 1.01-4 .41-5.02-1.35z"/><path d="m37.19 110.44c-1.76-1.02-2.36-3.28-1.35-5.03 1.03-1.77 3.27-2.37 5.04-1.35 1.77 1.01 2.37 3.27 1.35 5.03-1.03 1.75-3.29 2.37-5.04 1.35z"/><path d="m90.8 110.44c-1.76 1.02-4.02.41-5.03-1.35-1.02-1.77-.42-4.01 1.33-5.03 1.77-1.02 4.03-.41 5.04 1.35 1.03 1.75.42 4.01-1.34 5.03z"/><path d="m110.43 90.81c-1.02 1.76-3.27 2.36-5.03 1.35-1.77-1.02-2.37-3.26-1.35-5.03 1.01-1.76 3.27-2.36 5.03-1.35 1.76 1.02 2.37 3.27 1.35 5.03z"/><path d="m73.78 63.99c0 5.41-4.39 9.78-9.78 9.78-5.4 0-9.78-4.38-9.78-9.78s4.38-9.78 9.78-9.78c5.39.01 9.78 4.38 9.78 9.78z"/><path d="m59.4 60.61h9.2v56.05h-9.2z"/><path d="m73.78 63.99c0 5.41-4.39 9.78-9.78 9.78-5.4 0-9.78-4.38-9.78-9.78s4.38-9.78 9.78-9.78c5.39.01 9.78 4.38 9.78 9.78z"/><path d="m66.78 29.42-9.75 37.71 11.54 2.99 9.77-37.71z"/></g><path d="m67.69 64c0 2.04-1.65 3.69-3.69 3.69s-3.69-1.65-3.69-3.69c0-2.03 1.65-3.68 3.69-3.68s3.69 1.65 3.69 3.68z" fill="#fff"/><g fill="#2f2f2f"><path d="m90.81 17.56c1.76 1.02 2.36 3.27 1.34 5.04-1.01 1.75-3.27 2.36-5.03 1.35-1.76-1.02-2.36-3.27-1.34-5.04 1.01-1.75 3.27-2.36 5.03-1.35z"/><path d="m63.99 10.38c-2.03 0-3.68 1.65-3.68 3.68 0 2.04 1.65 3.68 3.68 3.68 2.04 0 3.69-1.65 3.69-3.68s-1.65-3.68-3.69-3.68z"/></g></svg>