<svg xmlns="http://www.w3.org/2000/svg" viewBox="0 0 128 128"><path fill="#FFF" d="M63.65 8.07c42.66.21 59.94 22.46 60.26 50.15.18 15.48-9.79 28.84-25.07 36.98-7.45 5.27 1.42 22.54 8.52 26.95 0 0-25.1-1.71-32.02-19.4-3.82.56-7.75.85-11.78.85-33.28 0-60.17-17.68-60.17-45.38 0-27.7 17.19-50.36 60.26-50.15Z"/><path d="M63.665 5.07q31.523.155 48.04 15.577 14.932 13.943 15.205 37.538.143 12.334-7.275 22.991-6.965 10.006-19.191 16.568-3.069 2.372-.008 10.156 3.339 8.492 8.507 11.702 1.055.655 1.338 1.865.283 1.21-.373 2.266-.952 1.533-2.752 1.41-6.706-.457-14.251-3.245-14.136-5.224-19.399-15.879-4.912.581-9.946.581-26.553 0-44.325-12.873Q.39 80.077.39 58.22q0-23.697 14.924-37.727Q31.885 4.915 63.665 5.07ZM19.424 24.865Q6.39 37.117 6.39 58.22q0 18.794 16.365 30.648Q38.952 100.6 63.56 100.6q5.763 0 11.345-.818 2.36-.346 3.229 1.875 3.834 9.802 16.851 14.613 1.843.681 3.619 1.205-2.105-3.191-3.752-7.38-4.846-12.321 2.255-17.344.155-.11.322-.199 11.088-5.907 17.281-14.803 6.321-9.081 6.2-19.494-.243-21.031-13.3-33.222-14.8-13.819-43.975-13.963-29.385-.143-44.211 13.795Z"/></svg>