<svg viewBox="0 0 128 128" xmlns="http://www.w3.org/2000/svg" xmlns:xlink="http://www.w3.org/1999/xlink"><defs><path id="a" d="m38.057 89.855c-13.818-2.836-15.275-15.5-14.289-21.002l34.259 10.261c-.967 5.477-10.27 12.73-19.97 10.741z"/><clipPath id="b"><use xlink:href="#a"/></clipPath><clipPath id="c"><use xlink:href="#d"/></clipPath><path id="d" d="m90.866 89.855c13.818-2.836 15.275-15.5 14.289-21.002l-34.259 10.261c.977 5.477 10.279 12.73 19.97 10.741z"/></defs><g fill="#e75625"><path d="m64.462 24.818c-58.321 0-59.705 65.383-59.705 78.328 0 12.931 26.749 23.428 59.705 23.428 32.992 0 59.705-10.497 59.705-23.428 0-12.945-1.376-78.328-59.705-78.328z"/><path d="m83.917 40.163c.715-2.009 2.199-3.9 4.425-5.651 1.819-1.434 3.747-2.833 5.249-4.615 4.416-5.262 6.578-13.447 5.583-20.292-.227-1.534-1.719-4.479-.706-5.868 1.747-2.375 6.081.082 7.466 1.452 4.353 4.28 6.958 10.148 8.234 16.048 1.593 7.33 1.366 14.931-1.059 22.034-2.018 5.877-6.868 11.687-13.121 13.071-5.357 1.19-11.148-2.353-14.107-6.561-2.389-3.424-3.014-6.65-1.964-9.618z"/><path d="m45.007 39.321c-.707-2.004-2.181-3.891-4.425-5.651-1.828-1.434-3.719-2.828-5.24-4.615-4.406-5.257-6.569-13.438-5.574-20.283.226-1.538 1.701-4.479.697-5.873-1.737-2.384-6.063.081-7.465 1.457-4.344 4.28-6.95 10.148-8.244 16.043-1.575 7.325-1.357 14.926 1.077 22.029 2.009 5.882 6.877 11.687 13.121 13.076 5.348 1.189 11.139-2.357 14.08-6.561 2.407-3.419 3.04-6.645 1.973-9.622z"/></g><use fill="#2f2f2f" xlink:href="#a"/><path clip-path="url(#b)" d="m39.469 84.109c-9.167-1.794-9.99-11.038-8.651-14.68l21.473 6.796c-.127 3.627-6.353 9.151-12.822 7.884z" fill="#fbb817"/><use fill="#2f2f2f" xlink:href="#d"/><path clip-path="url(#c)" d="m89.455 84.109c9.167-1.794 9.991-11.038 8.651-14.68l-21.464 6.796c.117 3.627 6.343 9.151 12.813 7.884z" fill="#fbb817"/><path d="m65.738 113.016c-.633 0-1.308-.025-1.982-.057-15.835-.946-21.844-9.538-22.088-9.904-.896-1.298-.543-3.057.742-3.936 1.285-.876 3.032-.543 3.918.733.227.321 4.932 6.687 17.772 7.442 12.804.738 18.379-7.619 18.451-7.703.828-1.312 2.597-1.692 3.909-.841 1.308.853 1.692 2.6.828 3.914-.276.443-6.855 10.352-21.55 10.352z" fill="#2f2f2f"/></svg>