<svg viewBox="0 0 128 128" xmlns="http://www.w3.org/2000/svg"><path d="m127.51 93.55c0 13.93-28.43 25.22-63.51 25.22s-63.52-11.29-63.52-25.22c.01-13.93 1.48-84.32 63.52-84.32s63.51 70.39 63.51 84.32" fill="#fcc21b"/><path d="m62.78 105.52c-3.34 0-6.53-.27-9.43-.67-1.36-.18-2.31-1.44-2.12-2.8.19-1.35 1.47-2.3 2.8-2.12 10.71 1.49 25.68 1.04 36.23-9.51.97-.97 2.55-.97 3.51 0 .98.97.98 2.54 0 3.51-9.04 9.05-20.72 11.59-30.99 11.59z" fill="#2f2f2f"/><path d="m3.36 45.68 55.04 13.21h10.9l57.44-13.09s-.57 35.09-30.61 37.72c-23.19 2.02-26.42-13.78-27.24-15.87l-10.61-.41s-3.37 18.36-28.37 16.41c-25.04-1.96-26.55-37.97-26.55-37.97z" fill="#2f2f2f"/><g fill="#fff"><path d="m12.45 53.96c-.4-.08-.82.05-1.11.34s-.42.7-.34 1.11c3.02 15.02 12.36 19.04 12.76 19.2.15.06.31.09.47.09.43 0 .85-.23 1.08-.63l7.96-14.36c.19-.34.2-.76.04-1.11-.17-.35-.49-.61-.88-.69z"/><path d="m89.09 60.54c-.3-.37-.78-.52-1.24-.41l-12.43 3.01c-.59.14-.98.69-.93 1.29.02.31.69 7.68 7.17 11.04.18.09.37.14.57.14.14 0 .27-.02.4-.07.32-.11.58-.35.71-.65l5.92-13.06c.2-.43.13-.94-.17-1.29z"/></g></svg>