<svg viewBox="0 0 128 128" xmlns="http://www.w3.org/2000/svg"><path d="m127.77 93.67c0 13.98-28.54 25.32-63.76 25.32-35.21 0-63.77-11.33-63.77-25.32-.01-13.99 1.47-84.65 63.76-84.65 62.3 0 63.77 70.66 63.77 84.65" fill="#fcc21b"/><g fill="#2f2f2f"><path d="m24.65 71.41c-.43 0-.87-.11-1.28-.35-1.22-.71-1.63-2.27-.93-3.49.2-.34 4.99-8.38 15.65-8.38 10.65 0 15.44 8.04 15.64 8.38.71 1.22.3 2.79-.93 3.49-1.21.7-2.77.29-3.48-.92-.17-.27-3.62-5.85-11.23-5.85-7.75 0-11.19 5.78-11.22 5.84-.48.82-1.34 1.28-2.22 1.28z"/><path d="m52.2 67.73c1.05 1.24 1.07 2.38-.61 3.82-1.26 1.09-2.86 1.74-4.53 1.74-3.77 0-6.82-3.04-6.82-6.82 0-.96.21-1.94.62-2.83.19-.44.44-.88.73-1.25.31-.37.67-.28 1.15-.23.3.03.52.11.82.2 1.93.61 3.76 1.71 5.49 2.74.81.49 1.54 1.1 2.24 1.71.37.32.67.62.91.92"/><path d="m102.64 71.41c-.88 0-1.73-.46-2.21-1.27-.16-.27-3.61-5.85-11.23-5.85-7.65 0-11.1 5.61-11.24 5.85-.72 1.2-2.29 1.6-3.5.9-1.21-.72-1.62-2.26-.91-3.48.2-.34 4.99-8.38 15.65-8.38 10.65 0 15.44 8.04 15.64 8.38.7 1.22.29 2.79-.93 3.49-.39.25-.84.36-1.27.36z"/><path d="m103.32 67.73c1.06 1.24 1.08 2.38-.61 3.82-1.26 1.09-2.86 1.74-4.54 1.74-3.77 0-6.81-3.04-6.81-6.82 0-.96.2-1.94.61-2.83.2-.44.44-.88.74-1.25s.66-.28 1.14-.23c.3.03.53.11.82.2 1.93.61 3.76 1.71 5.5 2.74.8.49 1.53 1.1 2.23 1.71.36.32.67.62.92.92"/><path d="m60.16 99.7c-3.43 0-6.71-.27-9.68-.69-1.4-.19-2.37-1.48-2.18-2.88.19-1.39 1.51-2.37 2.88-2.18 11.01 1.53 26.39 1.06 37.23-9.77.99-1 2.61-1 3.61 0s1 2.61 0 3.61c-9.31 9.3-21.32 11.91-31.86 11.91z"/></g></svg>