<svg viewBox="0 0 128 128" xmlns="http://www.w3.org/2000/svg"><path d="m64 9.9c-62.01 0-63.49 69.52-63.49 83.29 0 13.76 28.43 24.91 63.49 24.91 35.07 0 63.49-11.16 63.49-24.91 0-13.77-1.47-83.29-63.49-83.29z" fill="#fcc21b"/><g fill="#2f2f2f"><path d="m77.51 93.75h-27.73c-1.82 0-3.29-1.49-3.29-3.3 0-1.82 1.47-3.29 3.29-3.29h27.73c1.83 0 3.3 1.47 3.3 3.29s-1.47 3.3-3.3 3.3z"/><path d="m50.54 70h-23.47c-1.66 0-3.01-1.35-3.01-3.01s1.35-3.01 3.01-3.01h23.47c1.68 0 3.01 1.35 3.01 3.01s-1.34 3.01-3.01 3.01z"/><path d="m98.17 69.94h-23.47c-1.66 0-3.01-1.35-3.01-3.01s1.35-3.01 3.01-3.01h23.47c1.67 0 3.01 1.35 3.01 3.01s-1.35 3.01-3.01 3.01z"/></g></svg>