<svg viewBox="0 0 128 128" xmlns="http://www.w3.org/2000/svg"><path d="m15.95 32.79c19.25-28.83 51.41-41.99 85.49-24.65 22.82 11.61 30.74 39.16 20.83 71.54-4.09 13.36 6.13 15.62 5.47 22.71-1.3 13.88-28.45 25.24-63.56 25.24-35.1 0-62.63-11.34-63.57-25.24-1.88-28.01 3.05-51.17 15.34-69.6" fill="#fcc21b"/><path d="m72.62 63.69c.11-1.9-5.63-1.97-6.84-2.35-1.73-.51-3.32-1.21-5.13-1.54-5.43-1.01-10.33-4.46-15.95-4.61-6.1-.16-10.68 3.63-13.7 8.66-1.6 2.65-2.53 6.46-1.42 9.54.69 1.91 1.7 3.45 3.61 4.74 2.91 1.97 8.45 2.49 12.38.91 6.24-2.52 9.05-6.91 13.47-10.55 5.72-4.7 11.03-4.67 13.58-4.8z" fill="#d7598b"/><g fill="#2f2f2f"><path d="m87.54 65.92c-40.13 0-55.3-15.64-55.93-16.31-1.11-1.18-1.05-3.03.13-4.14 1.17-1.11 3.02-1.05 4.13.12.23.23 14.46 14.47 51.68 14.47.23 0 .42-.03.68 0 1.61 0 2.92 1.3 2.93 2.92s-1.3 2.94-2.92 2.95c-.23-.01-.47-.01-.7-.01z"/><path d="m54.22 35.5c-3.13 4.09-8.41 5.29-11.79 2.72-3.38-2.58-3.59-7.99-.46-12.07 3.12-4.11 8.39-5.31 11.77-2.71 3.37 2.56 3.59 7.99.48 12.06"/><path d="m90.1 51.22c-.41-.05-.81-.19-1.18-.44-6.87-4.53-14.74-7.03-14.82-7.05-1.17-.36-1.95-1.46-1.93-2.68.02-1.23.83-2.29 2.01-2.62 8.58-2.41 18.43-2.54 18.85-2.55 1.56-.02 2.77 1.21 2.79 2.73.02 1.53-1.21 2.78-2.74 2.8-.06-.01-3.77.04-8.47.62 2.33 1.11 4.88 2.49 7.33 4.12 1.28.84 1.63 2.56.8 3.83-.59.92-1.63 1.36-2.64 1.24z"/></g></svg>