<svg viewBox="0 0 128 128" xmlns="http://www.w3.org/2000/svg" xmlns:xlink="http://www.w3.org/1999/xlink"><defs><path id="a" d="m122.35 44.7c-9.05-19.65-33.18-33.76-58.35-33.76s-49.29 14.12-58.36 33.76c-13.75 29.83 3.06 53.22 3.06 53.22s.05.04.05.04c3.47 10.77 26.86 19.1 55.25 19.1 28.4 0 51.77-8.33 55.25-19.1.01-.01.06-.05.06-.05s16.8-23.38 3.04-53.21z"/><clipPath id="b"><use xlink:href="#a"/></clipPath></defs><use fill="#fcc21b" xlink:href="#a"/><g clip-path="url(#b)"><path d="m30.36 83.34c-12.96 4.65-27.25-1.92-31.96-14.7-4.7-12.77 1.95-26.91 14.9-31.59 12.92-4.65 27.24 1.94 31.97 14.72 4.68 12.78-1.99 26.93-14.91 31.57z" fill="#fcc21b"/><path d="m30.01 82.39c-12.43 4.47-26.14-1.83-30.65-14.09-4.51-12.25 1.87-25.82 14.29-30.3 12.39-4.46 26.13 1.86 30.67 14.12 4.49 12.25-1.92 25.82-14.31 30.27z" fill="#fcc01c"/><path d="m29.66 81.45c-11.9 4.27-25.03-1.76-29.35-13.5-4.32-11.73 1.79-24.72 13.69-29.01 11.87-4.27 25.02 1.78 29.36 13.52 4.3 11.74-1.83 24.73-13.7 28.99z" fill="#fcbe1c"/><path d="m29.32 80.51c-11.37 4.08-23.92-1.68-28.05-12.9-4.13-11.21 1.71-23.63 13.08-27.73 11.34-4.08 23.92 1.7 28.06 12.92 4.11 11.22-1.75 23.64-13.09 27.71z" fill="#fbbb1d"/><path d="m28.97 79.57c-10.84 3.89-22.81-1.6-26.75-12.3-3.94-10.69 1.63-22.53 12.47-26.45 10.81-3.89 22.81 1.62 26.76 12.32 3.92 10.7-1.66 22.54-12.48 26.43z" fill="#fbb91e"/><path d="m28.62 78.63c-10.31 3.7-21.7-1.53-25.45-11.71-3.74-10.17 1.55-21.44 11.87-25.16 10.29-3.7 21.7 1.54 25.46 11.72 3.73 10.18-1.59 21.45-11.88 25.15z" fill="#fbb71e"/><path d="m28.27 77.68c-9.79 3.52-20.6-1.45-24.15-11.11-3.54-9.64 1.48-20.33 11.27-23.87 9.76-3.51 20.59 1.46 24.16 11.12 3.53 9.67-1.51 20.35-11.28 23.86z" fill="#fbb51f"/><path d="m27.93 76.74c-9.26 3.33-19.49-1.37-22.85-10.51-3.36-9.13 1.4-19.25 10.65-22.59 9.24-3.32 19.48 1.38 22.85 10.52 3.36 9.15-1.41 19.26-10.65 22.58z" fill="#fab220"/><path d="m27.58 75.8c-8.73 3.14-18.38-1.29-21.55-9.91-3.17-8.61 1.32-18.15 10.05-21.3 8.71-3.13 18.37 1.31 21.55 9.92 3.16 8.62-1.34 18.16-10.05 21.29z" fill="#fab020"/><path d="m27.23 74.86c-8.21 2.95-17.27-1.21-20.25-9.31-2.98-8.09 1.24-17.05 9.44-20.02 8.19-2.94 17.26 1.23 20.25 9.32 2.98 8.1-1.25 17.07-9.44 20.01z" fill="#faae21"/><path d="m26.89 73.92c-7.68 2.76-16.16-1.14-18.94-8.71-2.79-7.57 1.16-15.96 8.83-18.73 7.66-2.75 16.15 1.15 18.95 8.72 2.78 7.58-1.18 15.96-8.84 18.72z" fill="#faac22"/><path d="m26.54 72.97c-7.15 2.57-15.05-1.06-17.64-8.11-2.6-7.05 1.07-14.86 8.22-17.44 7.13-2.57 15.04 1.07 17.65 8.12 2.59 7.06-1.09 14.87-8.23 17.43z" fill="#f9a922"/><path d="m26.19 72.03c-6.62 2.38-13.94-.98-16.34-7.52-2.4-6.53 1-13.77 7.62-16.16 6.61-2.38 13.94.99 16.35 7.53 2.4 6.54-1.02 13.78-7.63 16.15z" fill="#f9a723"/><path d="m25.85 71.09c-6.1 2.19-12.83-.9-15.04-6.92-2.21-6.01.92-12.67 7.01-14.87 6.08-2.19 12.83.91 15.04 6.93 2.21 6.01-.93 12.67-7.01 14.86z" fill="#f9a524"/><path d="m25.5 70.15c-5.57 2-11.72-.83-13.74-6.32s.84-11.58 6.41-13.59c5.56-2 11.72.83 13.74 6.33s-.85 11.58-6.41 13.58z" fill="#f9a324"/><path d="m25.15 69.21c-5.04 1.81-10.61-.75-12.44-5.72s.76-10.48 5.8-12.3c5.03-1.81 10.61.75 12.44 5.73 1.83 4.97-.77 10.48-5.8 12.29z" fill="#f8a025"/><path d="m24.81 68.26c-4.51 1.62-9.5-.67-11.14-5.12-1.63-4.45.68-9.39 5.19-11.02 4.5-1.62 9.5.68 11.14 5.13 1.64 4.46-.69 9.39-5.19 11.01z" fill="#f89e26"/><path d="m24.46 67.32c-3.99 1.43-8.39-.59-9.84-4.53-1.44-3.93.6-8.29 4.59-9.73 3.98-1.43 8.39.6 9.84 4.53 1.44 3.94-.61 8.3-4.59 9.73z" fill="#f89c26"/><path d="m24.11 66.38c-3.46 1.24-7.28-.52-8.54-3.93-1.25-3.41.52-7.19 3.98-8.44 3.45-1.24 7.28.52 8.54 3.93s-.52 7.19-3.98 8.44z" fill="#f89a27"/><path d="m23.76 65.44c-2.93 1.05-6.17-.44-7.24-3.33-1.06-2.89.44-6.1 3.37-7.16 2.93-1.05 6.17.44 7.24 3.33 1.07 2.9-.44 6.1-3.37 7.16z" fill="#f79728"/><path d="m23.42 64.5c-2.4.86-5.07-.36-5.94-2.73s.36-5 2.77-5.87c2.4-.86 5.07.36 5.93 2.73.88 2.37-.36 5-2.76 5.87z" fill="#f79528"/><path d="m23.07 63.55c-1.88.67-3.96-.28-4.64-2.13s.28-3.91 2.16-4.59c1.88-.67 3.96.28 4.63 2.13.69 1.86-.27 3.92-2.15 4.59z" fill="#f79329"/></g><g clip-path="url(#b)"><path d="m117.62 83.56c-13.08 4.7-27.51-1.93-32.27-14.84-4.74-12.89 1.97-27.17 15.05-31.89 13.04-4.69 27.51 1.95 32.28 14.86 4.72 12.9-2.02 27.19-15.06 31.87z" fill="#fcc21b"/><path d="m117.27 82.61c-12.55 4.51-26.39-1.85-30.95-14.24-4.55-12.37 1.89-26.07 14.43-30.6 12.51-4.5 26.39 1.87 30.97 14.25 4.52 12.4-1.94 26.1-14.45 30.59z" fill="#fcc01c"/><path d="m116.91 81.66c-12.01 4.31-25.27-1.77-29.64-13.63-4.35-11.84 1.81-24.96 13.82-29.3 11.98-4.31 25.27 1.8 29.65 13.65 4.35 11.86-1.84 24.97-13.83 29.28z" fill="#fcbe1c"/><path d="m116.56 80.71c-11.48 4.12-24.15-1.7-28.33-13.03-4.16-11.32 1.73-23.85 13.21-28 11.45-4.12 24.15 1.72 28.34 13.04 4.15 11.34-1.76 23.87-13.22 27.99z" fill="#fbbb1d"/><path d="m116.21 79.76c-10.95 3.93-23.03-1.62-27.01-12.43-3.97-10.79 1.65-22.75 12.6-26.7 10.92-3.93 23.03 1.64 27.02 12.44 3.96 10.81-1.68 22.76-12.61 26.69z" fill="#fbb91e"/><path d="m115.86 78.81c-10.41 3.74-21.91-1.54-25.7-11.82-3.77-10.27 1.57-21.64 11.99-25.4 10.39-3.74 21.91 1.56 25.71 11.83 3.76 10.28-1.61 21.65-12 25.39z" fill="#fbb71e"/><path d="m115.51 77.86c-9.88 3.55-20.79-1.46-24.39-11.22-3.58-9.74 1.49-20.54 11.38-24.1 9.85-3.54 20.79 1.48 24.39 11.23 3.58 9.75-1.52 20.54-11.38 24.09z" fill="#fbb51f"/><path d="m115.16 76.9c-9.35 3.36-19.67-1.38-23.07-10.61-3.39-9.22 1.41-19.43 10.76-22.81 9.32-3.35 19.67 1.4 23.08 10.62 3.38 9.24-1.44 19.45-10.77 22.8z" fill="#fab220"/><path d="m114.81 75.95c-8.82 3.17-18.55-1.3-21.76-10.01-3.19-8.69 1.33-18.32 10.15-21.51 8.79-3.16 18.55 1.32 21.76 10.02 3.19 8.71-1.35 18.34-10.15 21.5z" fill="#fab020"/><path d="m114.46 75c-8.28 2.97-17.43-1.23-20.45-9.4-3-8.17 1.25-17.22 9.54-20.21 8.26-2.97 17.43 1.24 20.45 9.41 3 8.18-1.27 17.23-9.54 20.2z" fill="#faae21"/><path d="m114.11 74.05c-7.75 2.78-16.31-1.15-19.13-8.8-2.81-7.64 1.17-16.11 8.93-18.91 7.73-2.78 16.31 1.16 19.14 8.81 2.79 7.65-1.2 16.12-8.94 18.9z" fill="#faac22"/><path d="m113.76 73.1c-7.22 2.59-15.19-1.07-17.82-8.2-2.61-7.12 1.09-15 8.32-17.61 7.2-2.59 15.19 1.08 17.82 8.2 2.61 7.13-1.12 15.02-8.32 17.61z" fill="#f9a922"/><path d="m113.41 72.15c-6.69 2.4-14.07-.99-16.51-7.59-2.42-6.59 1.01-13.9 7.71-16.31 6.67-2.4 14.07 1 16.51 7.6 2.41 6.59-1.04 13.9-7.71 16.3z" fill="#f9a723"/><path d="m113.06 71.2c-6.15 2.21-12.95-.91-15.19-6.99-2.22-6.07.93-12.79 7.09-15.02 6.14-2.21 12.95.92 15.19 6.99 2.23 6.08-.95 12.81-7.09 15.02z" fill="#f9a524"/><path d="m112.71 70.25c-5.62 2.02-11.83-.83-13.88-6.38-2.03-5.54.85-11.69 6.48-13.72 5.6-2.01 11.83.84 13.88 6.39 2.03 5.54-.87 11.69-6.48 13.71z" fill="#f9a324"/><path d="m112.36 69.29c-5.09 1.82-10.71-.76-12.57-5.78-1.84-5.02.77-10.58 5.87-12.42 5.07-1.82 10.71.76 12.56 5.78 1.84 5.04-.78 10.59-5.86 12.42z" fill="#f8a025"/><path d="m112.01 68.34c-4.55 1.63-9.59-.68-11.25-5.17-1.64-4.49.69-9.48 5.26-11.12 4.54-1.63 9.58.68 11.25 5.18 1.64 4.5-.71 9.47-5.26 11.11z" fill="#f89e26"/><path d="m111.66 67.39c-4.02 1.44-8.48-.6-9.94-4.57s.61-8.37 4.65-9.82c4.01-1.44 8.46.6 9.93 4.57 1.45 3.98-.62 8.37-4.64 9.82z" fill="#f89c26"/><path d="m111.31 66.44c-3.49 1.25-7.36-.52-8.63-3.97-1.27-3.44.53-7.26 4.03-8.52 3.48-1.25 7.34.52 8.62 3.97 1.27 3.45-.54 7.26-4.02 8.52z" fill="#f89a27"/><path d="m110.96 65.49c-2.96 1.06-6.24-.44-7.31-3.36-1.07-2.91.46-6.16 3.42-7.23 2.95-1.06 6.22.44 7.3 3.36 1.07 2.93-.46 6.16-3.41 7.23z" fill="#f79728"/><path d="m110.61 64.54c-2.42.87-5.12-.36-6-2.76-.88-2.39.38-5.05 2.81-5.93 2.42-.87 5.1.36 5.99 2.76.88 2.4-.38 5.05-2.8 5.93z" fill="#f79528"/><path d="m110.26 63.59c-1.89.68-3.99-.29-4.69-2.15-.68-1.87.29-3.94 2.2-4.63 1.89-.68 3.98.29 4.67 2.15.69 1.87-.29 3.94-2.18 4.63z" fill="#f79329"/></g><g fill="#2f2f2f"><path d="m34.47 47.52c-.23.05-.45.08-.67.08-1.24 0-2.38-.84-2.69-2.11-.38-1.48.53-2.99 2.02-3.37 3.09-.78 6.4-1.05 9.43-1.08-4.93-2.52-9.27-3.96-9.34-3.98-1.45-.48-2.26-2.04-1.79-3.51.49-1.46 2.05-2.25 3.51-1.78.5.16 12.36 4.1 20.08 10.82.95.82 1.22 2.18.68 3.31-.54 1.12-1.78 1.77-3.02 1.52-.1-.01-10.22-1.9-18.21.1z"/><path d="m89.89 77.01c-1.1 0-2.05-.64-2.51-1.57-.36-.69-7.25-13.41-20.48-13.41-12.33 0-20.96 12.73-21.05 12.86-.85 1.28-2.58 1.62-3.85.77-1.29-.85-1.62-2.58-.77-3.86.4-.62 10.39-15.33 25.67-15.33 16.82 0 25.76 15.85 25.76 17.76 0 1.53-1.24 2.78-2.77 2.78z"/><path d="m99.5 45.49c-.31 1.27-1.45 2.11-2.69 2.11-.23 0-.47-.03-.68-.08-7.99-2-18.12-.11-18.21-.1-1.22.25-2.47-.38-3.02-1.52-.56-1.12-.28-2.49.66-3.31 7.72-6.72 19.59-10.66 20.09-10.82 1.48-.47 3.03.33 3.51 1.78.49 1.46-.31 3.02-1.77 3.51-.06.02-4.41 1.46-9.33 3.98 3.03.03 6.32.31 9.41 1.08 1.51.38 2.42 1.89 2.03 3.37z"/></g></svg>