<svg viewBox="0 0 128 128" xmlns="http://www.w3.org/2000/svg"><path d="m125.89 75.13c7.81-30.07-8.77-60.05-38.32-65.54-63.57-11.84-91.53 43.92-86.89 85.38 0 13.83 28.25 25.05 63.08 25.05 32.66 0 59.51-9.87 62.75-22.49.22-.85.33-1.7.33-2.56 0-6.57-4.13-7.56-.95-19.84z" fill="#fcc21b"/><path d="m111.51 77.21c-.54-5.67-6.79-14.48-7.86-14.53-1.1 0-5.27 7.43-5.45 14.74-.28 5.25 2.91 8.78 7.05 8.49 4.59-.34 6.65-3.6 6.26-8.7z" fill="#fff"/><path d="m45.2 57.81c-13.32-1.81-26.51 7.57-28.61 19-.24.7-.24 1.32-.25 2.01-.13 1.2.63 2.3 1.8 2.61l48.84 13.05c.21.06.42.08.63.08 1.05 0 2.02-.69 2.33-1.74.18-.59.26-1.2.31-1.82.03-.26.05-.53.16-1.21.76-16.67-9.6-29.83-25.21-31.98z" fill="#ed6c30"/><g fill="#2f2f2f"><path d="m27.12 34.5c.25-.9.61-1.7 1.01-2.46 1.75.23 3.67.37 5.81.29 3.17-.08 5.71-.94 7.8-2.04 1.46 2.23 1.98 5.29 1.13 8.38-1.42 5.2-6.09 8.51-10.44 7.36-4.35-1.16-6.72-6.34-5.31-11.53z"/><path d="m81.67 49.15c-1.43 5.2-6.12 8.49-10.46 7.34-4.35-1.14-6.73-6.3-5.31-11.52.87-3.25 3.02-5.75 5.57-6.89 1.26 2.09 3.07 4.23 5.93 5.97 1.64.98 3.16 1.73 4.64 2.37-.04.89-.13 1.81-.37 2.73z"/><path d="m49.55 37.17c-.22-.01-.44-.08-.64-.21-.58-.38-.73-1.16-.35-1.73 1.99-3.03-.56-6.78-.59-6.82-.4-.56-.26-1.34.31-1.73.56-.4 1.34-.26 1.74.3.14.21 3.56 5.18.62 9.63-.24.37-.66.57-1.09.56z"/><path d="m61.74 40.31c-.65-.03-1.17-.55-1.18-1.21-.01-.26-.09-6.28 4.82-8.36.63-.26 1.36.04 1.64.67.27.63-.03 1.36-.66 1.63-3.35 1.4-3.31 5.96-3.32 6 .01.7-.52 1.26-1.22 1.27-.02 0-.05 0-.08 0z"/></g></svg>