<svg viewBox="0 0 128 128" xmlns="http://www.w3.org/2000/svg"><path d="m64 9.56c-62.41 0-63.89 69.96-63.89 83.81s28.61 25.07 63.89 25.07c35.29 0 63.88-11.22 63.88-25.07.01-13.85-1.46-83.81-63.88-83.81z" fill="#fcc21b"/><g fill="#2f2f2f"><path d="m40.33 72.12c-4.19 0-7.6-4.05-7.6-9.07 0-5.01 3.41-9.06 7.6-9.06 4.2 0 7.6 4.05 7.6 9.06 0 5.02-3.41 9.07-7.6 9.07z"/><path d="m87.68 72.12c4.19 0 7.59-4.05 7.59-9.07 0-5.01-3.4-9.06-7.59-9.06-4.2 0-7.6 4.05-7.6 9.06 0 5.02 3.4 9.07 7.6 9.07z"/></g></svg>