<svg viewBox="0 0 128 128" xmlns="http://www.w3.org/2000/svg"><path d="m107.83 75.05c0 10.46-19.58 18.93-43.74 18.93-24.15 0-43.74-8.47-43.74-18.93s19.58-18.94 43.74-18.94c24.16.01 43.74 8.49 43.74 18.94z" fill="#d65a8c"/><path d="m36.69 92.37h58.74v19.2h-58.74z" fill="#2f2f2f"/><path d="m125.09 94.34-9.95-1.8c.43-1.68.74-3.4.94-5.14l9.15-1.36c1.17-.17 1.97-1.26 1.8-2.43-.17-1.16-1.27-1.96-2.42-1.79l-8.23 1.22c.03-1.71 0-3.41-.12-5.13-.25-3.72-1.08-7.47-2.41-11.11 2.94-8.31 12.13-36.37 5.13-43.87-5.34-5.72-24.06 6.53-30.24 11.06-2.22 1.63-4.14 3.01-5.79 4.19-6.16-1.86-12.84-2.83-19.46-2.82-6.73-.01-13.52 1-19.77 2.92-1.92-1.12-4.22-2.49-6.94-4.15-6.54-3.97-26.25-14.57-31.07-8.41-5.72 7.31 3.2 30.22 7.65 40.47-1.46 3.83-2.37 7.79-2.63 11.71-.11 1.66-.15 3.32-.12 4.97l-7.2-1.07c-1.15-.17-2.25.63-2.43 1.79-.17 1.17.63 2.25 1.8 2.43l8.1 1.21c.21 1.85.53 3.68 1 5.47l-8.98 1.62c-1.16.21-1.93 1.32-1.72 2.48.19 1.03 1.08 1.75 2.1 1.75.12 0 .25-.01.38-.03l9.58-1.72c.78 1.9 1.76 3.73 2.96 5.48l-9.57 3.04c-1.12.36-1.75 1.56-1.39 2.68.29.91 1.13 1.49 2.03 1.49.21 0 .43-.03.65-.1l11.15-3.54c1.23 1.3 2.6 2.55 4.16 3.72 6.05 4.51 13.57 7.57 21.33 9.23 2.95.63 10.56 2.1 18.55 2.1s16.35-1.47 19.3-2.1c7.75-1.66 15.28-4.71 21.33-9.23 1.67-1.24 3.11-2.58 4.4-3.98.02.01.04.03.06.03l11.87 3.77c.21.07.43.1.65.1.9 0 1.75-.58 2.03-1.49.35-1.12-.27-2.32-1.39-2.68l-10.41-3.31c1.15-1.72 2.09-3.53 2.84-5.39l10.53 1.9c.13.03.25.03.38.03 1.01 0 1.91-.72 2.1-1.75.22-1.14-.55-2.25-1.71-2.46zm-97.7-19.17c-.75-3.78 1.71-7.45 5.5-8.2 3.73-.74 7.34 1.65 8.17 5.34-.64-3.73 1.79-7.3 5.52-8.05 3.78-.75 7.47 1.72 8.21 5.5 1.8 9.06-10.38 19.48-10.38 19.48s-15.23-5-17.02-14.07zm58.86 23.64c-.72 3.06-4.09 9.02-11.75 9.69-.63.05-1.23.08-1.81.08-4.44 0-7.39-1.51-9.2-2.88-1.81 1.37-4.77 2.88-9.2 2.88-.58 0-1.18-.03-1.81-.08-7.65-.67-11.03-6.63-11.75-9.69-.34-1.43.55-2.87 1.99-3.21 1.43-.34 2.85.55 3.2 1.97.14.54 1.47 5.12 7.03 5.61 5.95.53 8.26-2.54 8.36-2.67.06-.09.16-.13.23-.21.15-.16.27-.34.46-.47 1.22-.82 2.88-.5 3.7.72.07.09 2.38 3.16 8.33 2.63 5.57-.49 6.89-5.09 7.03-5.62.36-1.42 1.8-2.29 3.22-1.94s2.3 1.77 1.97 3.19zm13.36-23.64c-1.79 9.06-17.02 14.07-17.02 14.07s-12.18-10.42-10.38-19.48c.75-3.78 4.43-6.25 8.21-5.5 3.73.75 6.16 4.32 5.52 8.05.83-3.69 4.44-6.08 8.17-5.34 3.79.76 6.24 4.43 5.5 8.2z" fill="#f79329"/></svg>