<svg viewBox="0 0 128 128" xmlns="http://www.w3.org/2000/svg"><path d="m123.32 83.71c-3.79-8.29-13.58-19.56-19.51-31.04-4.48-8.69-14.66-26.99-39.8-26.99-25.15 0-35.32 18.29-39.81 26.99-5.93 11.48-15.73 22.75-19.51 31.04-2.35 5.13-4 10.78-4.15 16.27 0 .04-.02.07-.02.11 0 11.4 28.43 20.64 63.48 20.64s63.47-9.25 63.47-20.64c-.13-5.51-1.79-11.22-4.15-16.38z" fill="#fcc21b"/><g fill="#2f2f2f"><path d="m37.28 62.61c-.99-.82-1.13-2.31-.29-3.3.83-1 2.31-1.13 3.3-.3 6.41 5.35 12.7.79 12.97.61 1.04-.77 2.51-.57 3.28.48.77 1.04.55 2.51-.49 3.29-1.83 1.36-5.18 2.88-9.08 2.88-3.05 0-6.44-.95-9.69-3.66z"/><path d="m81.86 81.9c-.85 2.07-3.19 1.67-5.38.9-7.89-2.79-14.58-2.9-22.52-.52-1.43.4-3.07.94-4.59.47-2.79-.86-2.33-3.68-.27-4.8 1.75-.95 3.81-1.6 5.8-2.02 5.35-1.06 11.16-1.25 16.56-.18 2.63.51 11.92 2.45 10.4 6.15z"/><path d="m90.56 62.62c-3.25 2.71-6.64 3.65-9.71 3.65-3.89 0-7.24-1.52-9.07-2.88-1.04-.78-1.26-2.25-.49-3.29.78-1.04 2.24-1.25 3.28-.49.26.2 6.63 4.7 12.97-.6 1-.83 2.48-.71 3.31.3.84.99.71 2.47-.29 3.31z"/></g></svg>