<svg viewBox="0 0 128 128" xmlns="http://www.w3.org/2000/svg"><g fill="#2f2f2f"><path d="m31.08 112.92c0 4.48-3.63 8.11-8.12 8.11-4.48 0-8.11-3.63-8.11-8.11s3.63-8.11 8.11-8.11c4.49 0 8.12 3.63 8.12 8.11z"/><path d="m47.3 112.92c0 4.48-3.63 8.11-8.11 8.11-4.49 0-8.12-3.63-8.12-8.11s3.63-8.11 8.12-8.11c4.48 0 8.11 3.63 8.11 8.11z"/><path d="m96.93 112.92c0 4.48-3.63 8.11-8.11 8.11-4.49 0-8.12-3.63-8.12-8.11s3.63-8.11 8.12-8.11c4.48 0 8.11 3.63 8.11 8.11z"/><path d="m113.15 112.92c0 4.48-3.62 8.11-8.1 8.11s-8.12-3.63-8.12-8.11 3.64-8.11 8.12-8.11 8.1 3.63 8.1 8.11z"/><path d="m31.08 112.92c0 4.48-3.63 8.11-8.12 8.11-4.48 0-8.11-3.63-8.11-8.11s3.63-8.11 8.11-8.11c4.49 0 8.12 3.63 8.12 8.11z"/><path d="m47.3 112.92c0 4.48-3.63 8.11-8.11 8.11-4.49 0-8.12-3.63-8.12-8.11s3.63-8.11 8.12-8.11c4.48 0 8.11 3.63 8.11 8.11z"/><path d="m96.93 112.92c0 4.48-3.63 8.11-8.11 8.11-4.49 0-8.12-3.63-8.12-8.11s3.63-8.11 8.12-8.11c4.48 0 8.11 3.63 8.11 8.11z"/><path d="m113.15 112.92c0 4.48-3.62 8.11-8.1 8.11s-8.12-3.63-8.12-8.11 3.64-8.11 8.12-8.11 8.1 3.63 8.1 8.11z"/><path d="m69.02 62.89c-.85 0-1.69-.32-2.33-.96-1.29-1.29-1.29-3.38 0-4.67l12.33-12.33-10.12-10.13c-1.29-1.29-1.29-3.38 0-4.67 1.28-1.29 3.37-1.29 4.67 0l12.45 12.47c1.29 1.29 1.29 3.38 0 4.67l-14.66 14.66c-.64.65-1.49.96-2.34.96z"/><path d="m61.14 35.58v-4.94c0-1.71 1.41-3.11 3.12-3.11h19.61c1.71 0 3.12 1.4 3.12 3.11v4.94z"/></g><path d="m127.27 90.22-5.41-25c-1.27-6.08-6.96-13-14.85-13h-39.39-9.34-37.29c-7.9 0-13.58 6.92-14.85 13l-5.41 25c-.36 1.68-.2 4.37.37 5.99l3.33 9.51c.57 1.62 2.43 2.95 4.15 2.95h49.69 9.34 51.8c1.71 0 3.58-1.33 4.15-2.95l3.33-9.51c.57-1.62.74-4.32.38-5.99z" fill="#78a3ad"/><path d="m1.16 114.35c-.15 1.71 1.11 3.11 2.81 3.11h119.71c1.7 0 2.84-1.38 2.53-3.07l.01-5.97c-.31-1.69-1.97-3.06-3.68-3.06h-117.97c-1.72 0-3.25 1.39-3.41 3.1z" fill="#006ca2"/><g fill="#fff"><path d="m70.8 61.54c-1.79 0-3.25 1.4-3.25 3.12v21.46c0 1.72 1.46 3.12 3.25 3.12h13.7c1.78 0 3.24-1.4 3.24-3.12v-21.47c0-1.72-1.46-3.12-3.24-3.12h-13.7z"/><path d="m43.5 61.54c-1.78 0-3.24 1.4-3.24 3.12v21.46c0 1.72 1.46 3.12 3.24 3.12h13.69c1.79 0 3.25-1.4 3.25-3.12v-21.47c0-1.72-1.46-3.12-3.25-3.12h-13.69z"/><path d="m21.32 61.37c-2.84 0-5.13 2.01-6.07 5.5l-3.88 19.29c-.32 1.69.89 3.07 2.66 3.07h15.85c1.79 0 3.25-1.4 3.25-3.12v-21.62c0-1.71-1.46-3.11-3.25-3.11h-8.56z"/><path d="m106.69 61.37c2.84 0 5.13 2.01 6.06 5.5l3.88 19.29c.32 1.69-.88 3.07-2.67 3.07h-15.86c-1.78 0-3.25-1.4-3.25-3.12v-21.62c0-1.71 1.47-3.11 3.25-3.11h8.59z"/></g></svg>