<svg viewBox="0 0 128 128" xmlns="http://www.w3.org/2000/svg"><path d="m47.93 3.56h6.68v22.5h-6.68z" fill="#78a3ad"/><path d="m73.4 3.56h6.68v22.5h-6.68z" fill="#78a3ad"/><path d="m46.94 123.56c0 2.33-1.89 4.22-4.22 4.22s-4.21-1.88-4.21-4.22v-16.21c0-2.32 1.89-4.21 4.21-4.21 2.33 0 4.22 1.89 4.22 4.21z" fill="#2f2f2f"/><path d="m81.07 123.56c0 2.33 1.88 4.22 4.21 4.22s4.21-1.88 4.21-4.22v-16.21c0-2.32-1.88-4.21-4.21-4.21s-4.21 1.89-4.21 4.21z" fill="#2f2f2f"/><path d="m106.77 94.78c0 10.7-8.66 19.35-19.36 19.35h-46.82c-10.68 0-19.36-8.66-19.36-19.35v-53.3c0-10.68 8.67-19.35 19.36-19.35h46.82c10.69 0 19.36 8.67 19.36 19.35z" fill="#757f3f"/><path d="m98.24 63.77c0 5.76-4.67 10.43-10.43 10.43h-47.6c-5.76 0-10.43-4.68-10.43-10.43v-24.76c0-5.76 4.68-10.43 10.43-10.43h47.6c5.76 0 10.43 4.67 10.43 10.43z" fill="#40c0e7"/><path d="m44.01 94.81c0 3.87-3.15 7.01-7.02 7.01-3.89 0-7.02-3.14-7.02-7.01 0-3.89 3.14-7.03 7.02-7.03 3.87 0 7.02 3.14 7.02 7.03z" fill="#fff"/><path d="m84 94.81c0 3.87 3.15 7.01 7.02 7.01s7.02-3.14 7.02-7.01c0-3.89-3.14-7.03-7.02-7.03-3.87 0-7.02 3.14-7.02 7.03z" fill="#fff"/><g fill="#78a3ad"><path d="m40.15 13.38c-.46 0-.94-.1-1.4-.31-1.66-.77-2.39-2.71-1.64-4.38.16-.34 3.94-8.46 14.15-8.46 1.84 0 3.34 1.5 3.34 3.34s-1.5 3.34-3.34 3.34c-5.82 0-7.99 4.38-8.08 4.57-.58 1.19-1.78 1.9-3.03 1.9z"/><path d="m87.85 13.4c-1.27 0-2.47-.72-3.03-1.94-.12-.24-2.3-4.56-8.08-4.56-1.84 0-3.34-1.5-3.34-3.34s1.5-3.34 3.34-3.34c10.21 0 13.99 8.12 14.15 8.46.76 1.68.01 3.66-1.67 4.42-.45.21-.92.3-1.37.3z"/><path d="m76.74 6.9h-25.48c-1.84 0-3.34-1.5-3.34-3.34s1.5-3.34 3.34-3.34h25.47c1.84 0 3.34 1.5 3.34 3.34 0 1.85-1.49 3.34-3.33 3.34z"/></g></svg>