<svg viewBox="0 0 128 128" xmlns="http://www.w3.org/2000/svg" xmlns:xlink="http://www.w3.org/1999/xlink"><defs><path id="a" d="m114 12.21h-96.69c-10.03 0-17.15 6.13-17.15 15.15v64.34c0 10.02 8.13 18.15 18.15 18.15h55.67c14.62 0 19.4-1.89 28.34-7.78 9.19-6.05 25.68-16.05 25.68-24.25v-50.55c0-10.02-3.98-15.06-14-15.06z"/><clipPath id="b"><use xlink:href="#a"/></clipPath><clipPath id="c"><use xlink:href="#d"/></clipPath><path id="d" d="m80.11 67.23c0 3.36-2.73 6.1-6.1 6.1h-58.6c-3.36 0-6.09-2.74-6.09-6.1v-38.74c0-3.36 2.73-6.1 6.09-6.1h58.59c3.37 0 6.1 2.74 6.1 6.1v38.74z"/></defs><g fill="#2f2f2f"><path d="m117.13 87.29c0 7.35-2.06 13.3-4.58 13.3-2.53 0-4.58-5.95-4.58-13.3s2.05-13.31 4.58-13.31c2.52 0 4.58 5.97 4.58 13.31z"/><path d="m110.56 99.28s1.22 1.95 2.54 2.61c2.99 1.49 7.15.94 9.65-2.46l-1.34-8.1-8.46 1.61z"/><path d="m23.71 104.14c0 7.85-2.77 14.22-6.17 14.22-3.41 0-6.18-6.37-6.18-14.22 0-7.86 2.77-14.23 6.18-14.23 3.4.01 6.17 6.37 6.17 14.23z"/><path d="m14.85 116.97s1.64 2.09 3.44 2.79c4.03 1.59 9.63 1 13-2.62l-1.81-8.66-11.4 1.72z"/><path d="m34.95 104.14c0 7.85-2.77 14.22-6.17 14.22-3.41 0-6.18-6.37-6.18-14.22 0-7.86 2.77-14.23 6.18-14.23 3.4.01 6.17 6.37 6.17 14.23z"/><path d="m90.78 104.14c0 7.85-2.77 14.22-6.17 14.22-3.41 0-6.18-6.37-6.18-14.22 0-7.86 2.77-14.23 6.18-14.23 3.4.01 6.17 6.37 6.17 14.23z"/><path d="m81.92 116.97s1.64 2.09 3.44 2.79c4.03 1.59 9.63 1 13.01-2.62l-1.81-8.66-11.4 1.72z"/></g><use fill="#fcc21b" xlink:href="#a"/><path clip-path="url(#b)" d="m-.38 82.07h86.33v29.43h-86.33z" fill="#ed6c30"/><path clip-path="url(#b)" d="m85.95 117.59 45.37-29.65v-33.09l-45.37 27.22z" fill="#ed6c30"/><use fill="#40c0e7" xlink:href="#d"/><path clip-path="url(#c)" d="m6.61 20.04h77v17.88h-77z" fill="#2f2f2f"/><path clip-path="url(#c)" d="m20.24 25.96h49.73v8.1h-49.73z" fill="#fff"/><path d="m108.42 48.97c0 2.6-1.52 5.56-3.51 6.69l-7.41 4.21c-2.74 1.54-5.13.17-5.13-3.2v-27.42c0-3.36 2.4-6.09 5.13-6.09h7.41c1.99 0 3.51 2.11 3.51 4.69zm11.92-22.19c0-1.97-.73-3.57-1.67-3.57h-3.34c-1.16 0-2.16 1.91-2.16 4.25v19.06c0 2.34 1 3.64 2.16 2.91l3.34-2.04c.94-.58 1.67-2.62 1.67-4.59z" fill="#40c0e7"/><path d="m22.95 93.96c0 3.79-3.08 6.86-6.87 6.86s-6.87-3.07-6.87-6.86c0-3.8 3.08-6.86 6.87-6.86s6.87 3.06 6.87 6.86z" fill="#fff"/><path d="m79.13 93.96c0 3.79-3.08 6.86-6.88 6.86-3.78 0-6.86-3.07-6.86-6.86 0-3.8 3.07-6.86 6.86-6.86 3.8 0 6.88 3.06 6.88 6.86z" fill="#fff"/><g fill="#2f2f2f"><path d="m102.02 104.14c0 7.85-2.77 14.22-6.17 14.22-3.41 0-6.18-6.37-6.18-14.22 0-7.86 2.77-14.23 6.18-14.23 3.4.01 6.17 6.37 6.17 14.23z"/><path d="m125.46 87.29c0 7.35-2.05 13.3-4.58 13.3s-4.58-5.95-4.58-13.3 2.05-13.31 4.58-13.31 4.58 5.97 4.58 13.31z"/></g></svg>