<svg viewBox="0 0 128 128" xmlns="http://www.w3.org/2000/svg" xmlns:xlink="http://www.w3.org/1999/xlink"><defs><path id="a" d="m82.41 20.67c0 10.16-8.25 18.41-18.41 18.41s-18.41-8.25-18.41-18.41c0-10.17 8.25-18.42 18.41-18.42s18.41 8.24 18.41 18.42z"/><clipPath id="b"><use xlink:href="#a"/></clipPath></defs><path d="m60.2 18.44h7.06v109.47h-7.06z" fill="#78a3ad"/><use fill="#f79329" xlink:href="#a"/><path clip-path="url(#b)" d="m41.86 16.26h43.66v10.51h-43.66z" fill="#fff"/><path d="m47.03 46.9h33.41v52.54h-33.41z" fill="#fff"/><path d="m80.44 102.14h-33.41c-1.49 0-2.7-1.2-2.7-2.7v-52.54c0-1.49 1.21-2.7 2.7-2.7h33.41c1.49 0 2.7 1.2 2.7 2.7v52.54c0 1.5-1.21 2.7-2.7 2.7zm-30.72-5.39h28.02v-47.15h-28.02z" fill="#78a3ad"/><path d="m44.55 127.91v-10.27c0-2.36 1.82-4.28 4.06-4.28h30.25c2.23 0 4.06 1.92 4.06 4.28v10.27z" fill="#78a3ad"/><path d="m64 41.24c-11.34 0-20.57-9.23-20.57-20.57 0-11.35 9.23-20.58 20.57-20.58s20.57 9.23 20.57 20.57c0 11.35-9.23 20.58-20.57 20.58zm0-36.83c-8.96 0-16.26 7.29-16.26 16.26 0 8.96 7.29 16.26 16.26 16.26s16.26-7.3 16.26-16.26c0-8.97-7.29-16.26-16.26-16.26z" fill="#f79329"/></svg>