<svg viewBox="0 0 128 128" xmlns="http://www.w3.org/2000/svg"><path d="m53.41 19.81c0-8.33 2.49-15.07 10.36-15.07s10.36 6.75 10.36 15.07z" fill="#ed6c30"/><path d="m73.15 23.06h-18.76c-1.95 0-3.54 1.59-3.54 3.54v6.71c0 1.95 1.58 3.54 3.54 3.54h18.76c1.95 0 3.54-1.59 3.54-3.54v-6.71c0-1.95-1.59-3.54-3.54-3.54z" fill="#2f2f2f"/><path d="m46.51 10.8-15.95-7.31c-.52-.24-1.13-.22-1.64.06-.51.27-.85.78-.93 1.35l-1.39 10.01c-.08.57.12 1.16.53 1.56.34.34.81.52 1.29.52.09 0 .19 0 .27-.02l17.34-2.69c.8-.12 1.42-.76 1.52-1.56.13-.8-.3-1.58-1.04-1.92z" fill="#ed6c30"/><path d="m99.56 4.9c-.09-.57-.43-1.08-.93-1.35-.51-.28-1.12-.3-1.64-.06l-15.95 7.31c-.74.34-1.17 1.12-1.05 1.91.1.8.73 1.44 1.53 1.56l17.33 2.69c.09.02.18.02.28.02.47 0 .94-.18 1.29-.52.41-.41.6-.99.53-1.56z" fill="#ed6c30"/><path d="m93.36 120.08c0 4.37 3.53 7.92 7.9 7.92 4.38 0 7.92-3.55 7.92-7.92v-32.08c0-4.37-3.54-7.91-7.92-7.91-4.37 0-7.9 3.54-7.9 7.91z" fill="#2f2f2f"/><path d="m19.38 120.08c0 4.37 3.54 7.92 7.91 7.92s7.9-3.55 7.9-7.92v-32.08c0-4.37-3.53-7.91-7.9-7.91s-7.91 3.54-7.91 7.91z" fill="#2f2f2f"/><path d="m109.27 69.13-1.25-4.59c0-.01 0-.02-.01-.03l-6.52-24.12c-1.18-4.31-5.8-7.86-10.27-7.86h-54.43c-4.47 0-9.09 3.54-10.26 7.86l-6.53 24.12v.04l-1.25 4.58c-5.13 1.06-8.95 4.68-8.95 8.99v25.05c0 2.2 1.8 3.99 3.99 3.99h100.43c2.2 0 4-1.79 4-3.99v-25.05c-.01-4.31-3.83-7.92-8.95-8.99z" fill="#fff"/><path d="m114.21 110.67h-100.42c-4.14 0-7.51-3.37-7.51-7.51v-25.04c0-5.26 3.85-9.89 9.6-11.85l.68-2.5c.02-.06.03-.13.04-.19l6.55-24.11c1.59-5.86 7.58-10.46 13.65-10.46h54.43c6.08 0 12.08 4.6 13.67 10.46l6.52 24.09c.01.03.02.07.03.11l.71 2.6c5.74 1.96 9.58 6.59 9.58 11.85v25.05c-.01 4.14-3.38 7.5-7.53 7.5zm-90.78-45.38c-.02.07-.03.13-.05.19l-1.24 4.58c-.34 1.28-1.38 2.25-2.69 2.53-3.55.73-6.14 3.06-6.14 5.53v25.05c0 .25.23.47.47.47h100.43c.26 0 .47-.22.47-.47v-25.05c0-2.48-2.57-4.79-6.13-5.53-1.3-.27-2.34-1.25-2.68-2.53l-1.24-4.59c-.01-.02-.01-.03-.02-.04l-6.52-24.11c-.76-2.8-3.97-5.26-6.88-5.26h-54.42c-2.89 0-6.1 2.46-6.86 5.26z" fill="#2f2f2f"/><path d="m92.68 45.41c-.46-2.07-2.57-3.77-4.69-3.77h-47.97c-2.12 0-4.23 1.69-4.68 3.77l-4.23 19.26c-.46 2.07.91 3.77 3.03 3.77h59.73c2.12 0 3.49-1.69 3.03-3.77z" fill="#40c0e7"/><path d="m9.16 77.47h109.23v27.42h-109.23z" fill="#2f2f2f"/><g fill="#fff"><path d="m35.27 89.21c0 4.19-3.4 7.59-7.59 7.59-4.2 0-7.59-3.4-7.59-7.59s3.39-7.59 7.59-7.59c4.19 0 7.59 3.4 7.59 7.59z"/><circle cx="101.36" cy="89.21" r="7.59"/></g></svg>