<svg viewBox="0 0 128 128" xmlns="http://www.w3.org/2000/svg" xmlns:xlink="http://www.w3.org/1999/xlink"><defs><path id="a" d="m121.57 79.19c-4.68-4.68-12-6.14-12-6.14s-3.83-9.95-7.06-14.28c-8.78-11.8-19.77-14.44-37.58-14.44-12.31 0-24.53.47-34.54 13.08-3.83 4.83-10.11 15.64-10.11 15.64s-10.01 2.24-15.07 7.88c-3.88 4.32-6.79 18.9-1.67 24.01 4.73 4.73 9.89 7.06 13.32 7.06h24.45 52.48 18.24c5.17 0 9.52-2.6 12.24-6.96 4.66-7.48 1.97-21.17-2.7-25.85z"/><clipPath id="b"><use xlink:href="#a"/></clipPath></defs><path d="m67.5 41.68c-.51 0-.93-.65-.93-1.44v-6.38c0-.79-.64-1.43-1.43-1.43h-4.49c-.79 0-1.44.65-1.44 1.43v6.38c0 .79-.42 1.44-.93 1.44s-.94.65-.94 1.43v2.54c0 .79.42 1.43.94 1.43h2.37 4.49 2.37c.51 0 .93-.64.93-1.43v-2.54c0-.78-.42-1.43-.94-1.43z" fill="#78a3ad"/><use fill="#fcc21b" xlink:href="#a"/><path clip-path="url(#b)" d="m-4.13 85.07h42.18v14.88h-42.18z" fill="#f79329"/><path clip-path="url(#b)" d="m87.7 85.07h42.39v14.88h-42.39z" fill="#f79329"/><g fill="#2f2f2f"><path d="m40.72 109.71c0 6.24-5.06 11.31-11.3 11.31-6.25 0-11.31-5.06-11.31-11.31 0-6.24 5.06-11.29 11.31-11.29 6.24 0 11.3 5.05 11.3 11.29z"/><path d="m109 109.71c0 6.24-5.07 11.31-11.3 11.31-6.25 0-11.31-5.06-11.31-11.31 0-6.24 5.06-11.29 11.31-11.29 6.23 0 11.3 5.05 11.3 11.29z"/><path d="m60 86.46h-2.67c-.11 0-.2.06-.24.16l-4.31 11.46c-.03.08-.02.17.03.23.05.07.12.12.21.12h2.83c.11 0 .21-.07.24-.18l.66-1.97h3.85l.65 1.97c.04.11.13.18.25.18h2.82c.08 0 .16-.05.21-.12.05-.06.06-.15.04-.23l-4.31-11.46c-.06-.1-.15-.16-.26-.16zm-2.46 7.4 1.12-3.37 1.12 3.37z"/><path d="m82.14 86.46h-2.83c-.14 0-.25.12-.25.26v11.46c0 .14.12.26.25.26h2.83c.14 0 .26-.12.26-.26v-11.46c0-.14-.12-.26-.26-.26z"/><path d="m73.77 92.49 3.78-5.63c.06-.08.06-.18.02-.27-.04-.08-.13-.13-.23-.13h-3.19c-.08 0-.16.05-.21.11l-2.12 3.08-2.13-3.08c-.04-.07-.12-.11-.21-.11h-3.18c-.09 0-.18.05-.22.13-.04.09-.04.19.01.27l3.79 5.63-3.81 5.55c-.06.07-.06.18-.02.26.04.09.12.14.23.14h3.35c.08 0 .17-.05.21-.12l1.98-2.94 1.97 2.94c.05.07.13.12.21.12h3.35c.1 0 .18-.05.23-.14.04-.08.04-.18-.02-.26z"/><path d="m54.15 88.67v-2.07c0-.14-.12-.26-.26-.26h-10.97c-.13 0-.25.12-.25.26v2.07c0 .14.12.26.25.26h3.97v9.25c0 .14.12.26.25.26h2.51c.14 0 .26-.12.26-.26v-9.25h3.97c.15-.01.27-.12.27-.26z"/></g><g fill="#40c0e7"><path d="m58.6 71.35c0 2.85-1.83 3.81-4.08 3.81 0 0-15.92 0-15.95 0-5.52 0-2.54-8.34 2.84-14.25 5.39-5.91 13.69-6.38 14.83-6.09 2.2.54 2.36 2.58 2.36 4.81z"/><path d="m65.49 71.35c0 2.85 2.66 3.81 5.89 3.81h21.02c7.98 0 3.35-11.62-4.76-17.09-5.76-3.88-17.09-3.54-18.74-3.26-3.19.54-3.41 2.58-3.41 4.81z"/></g></svg>