<svg viewBox="0 0 128 128" xmlns="http://www.w3.org/2000/svg"><path d="m33.94 29.91-8.38 28.77c-5.88 0-9.88 0-10.77 0-6.58 0-11.11 4.35-11.11 10.74v29.88h104.93v-31.7-8.92-28.77z" fill="#f79329"/><path d="m127.43 83.35c0 2.89-2.37 5.26-5.26 5.26h-6.32c-2.89 0-5.26-2.37-5.26-5.26v-31.5c0-2.9 2.37-5.26 5.26-5.26h6.32c2.89 0 5.26 2.37 5.26 5.26z" fill="#2f2f2f"/><path d="m3.91 94.35c-1.83 0-3.33-1.5-3.33-3.33v-3.99c0-1.83 1.5-3.33 3.33-3.33h3.31c1.83 0 3.33 1.5 3.33 3.33v3.99c0 1.83-1.5 3.33-3.33 3.33z" fill="#78a3ad"/><path d="m51.05 103.82c0 9.62-7.8 17.4-17.41 17.4-9.62 0-17.42-7.79-17.42-17.4 0-9.62 7.8-17.4 17.42-17.4 9.61 0 17.41 7.78 17.41 17.4z" fill="#2f2f2f"/><path d="m40.62 103.82c0 3.86-3.13 6.98-6.98 6.98s-6.98-3.12-6.98-6.98c0-3.85 3.12-6.97 6.98-6.97 3.85-.01 6.98 3.11 6.98 6.97z" fill="#78a3ad"/><path d="m100.45 103.82c0 9.62-7.81 17.4-17.41 17.4-9.62 0-17.42-7.79-17.42-17.4 0-9.62 7.8-17.4 17.42-17.4 9.6 0 17.41 7.78 17.41 17.4z" fill="#2f2f2f"/><path d="m90.01 103.82c0 3.86-3.13 6.98-6.98 6.98s-6.97-3.12-6.97-6.98c0-3.85 3.12-6.97 6.97-6.97 3.85-.01 6.98 3.11 6.98 6.97z" fill="#78a3ad"/><g fill="#40c0e7"><path d="m78.82 37.51h21.62v25.77h-21.62z"/><path d="m40.52 37.51h23.47v25.77h-30.63l1.38-5.45z"/></g></svg>