<svg viewBox="0 0 128 128" xmlns="http://www.w3.org/2000/svg"><path d="m63.62 98.61h10.43v9.48h-10.43z" fill="#ed6c30"/><path d="m63.62 98.61h10.43v9.48h-10.43z" fill="#ed6c30"/><path d="m84.67 94.5h40.29v19.43h-40.29z" fill="#78a3ad"/><path d="m52.12 105.93v-43.06c-12.79 0-22.32 0-23.79 0-2.44 0-5.99 1.85-6.54 6.09-.8 6.23-2.66 15.53-2.66 15.53l-14.23 1.93s-4.74 1.54-4.74 7.38v16.38c0 1.58 1.94 3.74 3.4 3.74h73.88c1.37 0 2.48-1.12 2.48-2.49v-5.49h-27.8z" fill="#ed6c30"/><path d="m37.06 81.71c0 1.37-1.11 2.49-2.48 2.49h-7.99c-1.37 0-2.33-1.11-2.13-2.46l1.71-11.86c.2-1.36 1.48-2.46 2.84-2.46h5.56c1.37 0 2.48 1.12 2.48 2.49v11.8z" fill="#fff"/><g fill="#2f2f2f"><path d="m25.87 113.91c0 3.87-3.14 7.01-7.01 7.01s-7.01-3.14-7.01-7.01c0-3.88 3.14-7.01 7.01-7.01s7.01 3.13 7.01 7.01z"/><path d="m64.35 113.91c0 3.87-3.14 7.01-7.01 7.01-3.88 0-7.01-3.14-7.01-7.01 0-3.88 3.14-7.01 7.01-7.01s7.01 3.13 7.01 7.01z"/><path d="m78.38 113.91c0 3.87-3.14 7.01-7.01 7.01-3.88 0-7.02-3.14-7.02-7.01 0-3.88 3.14-7.01 7.02-7.01 3.87 0 7.01 3.13 7.01 7.01z"/><path d="m108.62 113.91c0 3.87-3.14 7.01-7.01 7.01-3.88 0-7.02-3.14-7.02-7.01 0-3.88 3.14-7.01 7.02-7.01 3.87 0 7.01 3.13 7.01 7.01z"/><path d="m122.65 113.91c0 3.87-3.14 7.01-7.01 7.01s-7.02-3.14-7.02-7.01c0-3.88 3.14-7.01 7.02-7.01 3.87 0 7.01 3.13 7.01 7.01z"/></g><g fill="#78a3ad"><path d="m41.88 62.87h10.24v38.17h-10.24z"/><path d="m49.05 64.77h-4.39v-6.14c-.02-.09-.13-2.35 1.56-4.17 1.27-1.36 3.1-2.05 5.46-2.05v4.39c-.73 0-1.72.11-2.22.62-.43.44-.42 1.08-.42 1.09z"/><path d="m46.85 106.61c-1.21 0-2.19-.98-2.19-2.19v-6.14c0-1.21.98-2.2 2.19-2.2s2.2.99 2.2 2.2v6.14c0 1.21-.99 2.19-2.2 2.19z"/></g><path d="m57.17 51.84h70.67v48.82h-70.67z" fill="#ed6c30"/><g fill="#f79329"><path d="m69.89 56.44h2.68v39.63h-2.68z"/><path d="m84.23 56.44h2.68v39.63h-2.68z"/><path d="m98.57 56.44h2.68v39.63h-2.68z"/><path d="m112.91 56.44h2.68v39.63h-2.68z"/></g></svg>