<svg viewBox="0 0 128 128" xmlns="http://www.w3.org/2000/svg" xmlns:xlink="http://www.w3.org/1999/xlink"><clipPath id="a"><path d="m127.99 115.89c0 6.66-5.44 12.1-12.09 12.1h-103.8c-6.65 0-12.1-5.44-12.1-12.1v-103.79c0-6.66 5.44-12.1 12.1-12.1h103.8c6.65 0 12.09 5.44 12.09 12.1z"/></clipPath><path clip-path="url(#a)" d="m64 19.44c-50 0-73.49 65.07-73.49 65.07l2.67 56.54h141.66l2.67-56.54c-.02 0-23.5-65.07-73.51-65.07z" fill="#757f3f"/><g clip-path="url(#a)"><path d="m64 46.33c-19.66 0-35.61 15.94-35.61 35.61v32.22h71.21v-32.22c0-19.67-15.94-35.61-35.6-35.61z" fill="#2f2f2f"/><path d="m122.42 127.87h-116.85l22.82-13.71h71.21z" fill="#855c52"/><g fill="#2f2f2f"><path d="m49.46 127.98h-7.72l8.7-13.87h4.7z"/><path d="m78.53 127.98h7.72l-8.69-13.87h-4.7z"/></g></g><path d="m54.83 113.11c0 1.24-1 2.25-2.25 2.25-1.24 0-2.25-1.01-2.25-2.25v-8.66c0-1.24 1-2.25 2.25-2.25s2.25 1.01 2.25 2.25z" fill="#fff"/><path d="m73.06 113.11c0 1.24 1 2.25 2.25 2.25s2.25-1.01 2.25-2.25v-8.66c0-1.24-1.01-2.25-2.25-2.25-1.25 0-2.25 1.01-2.25 2.25z" fill="#fff"/><path d="m86.79 97.74c0 5.71-4.63 10.33-10.34 10.33h-25c-5.7 0-10.34-4.62-10.34-10.33v-28.48c0-5.71 4.64-10.33 10.34-10.33h25.01c5.72 0 10.34 4.62 10.34 10.33v28.48z" fill="#fcc21b"/><path d="m82.23 74.99c0 3.08-2.49 5.58-5.57 5.58h-25.42c-3.08 0-5.58-2.5-5.58-5.58v-7.05c0-3.08 2.51-5.58 5.58-5.58h25.42c3.08 0 5.57 2.5 5.57 5.58z" fill="#40c0e7"/><g fill="#fff"><path d="m53.27 97.75c0 2.07-1.68 3.75-3.75 3.75-2.08 0-3.75-1.68-3.75-3.75 0-2.08 1.68-3.75 3.75-3.75s3.75 1.67 3.75 3.75z"/><path d="m74.63 97.75c0 2.07 1.67 3.75 3.75 3.75 2.07 0 3.75-1.68 3.75-3.75 0-2.08-1.67-3.75-3.75-3.75-2.07 0-3.75 1.67-3.75 3.75z"/></g></svg>