<svg viewBox="0 0 128 128" xmlns="http://www.w3.org/2000/svg"><path d="m.27 23.33h127.45v9.51h-127.45z" fill="#78a3ad"/><path d="m.27 25.51h127.45v2.44h-127.45z" fill="#2f2f2f"/><g fill="#78a3ad"><circle cx="59.86" cy="20.6" r="4.13"/><circle cx="68.12" cy="20.6" r="4.13"/><path d="m59.22 15.37h9.53v21.73h-9.53z"/><circle cx="89.63" cy="20.6" r="4.13"/><path d="m102.02 20.6c0 2.28-1.85 4.13-4.13 4.13s-4.13-1.85-4.13-4.13 1.85-4.13 4.13-4.13c2.29 0 4.13 1.85 4.13 4.13z"/><path d="m89 15.37h9.53v21.73h-9.53z"/><path d="m34.22 20.6c0 2.28-1.86 4.13-4.13 4.13-2.28 0-4.13-1.85-4.13-4.13s1.85-4.13 4.13-4.13c2.27 0 4.13 1.85 4.13 4.13z"/><circle cx="38.35" cy="20.6" r="4.13"/><path d="m29.46 15.37h9.53v21.73h-9.53z"/></g><path d="m17.12 42.37c-1.86 0-3.38 1.52-3.38 3.37v35.44c0 1.86 1.37 4.03 3.05 4.83l6.3 3.01c1.67.81 4.57 1.46 6.42 1.46h68.98c1.85 0 4.74-.65 6.42-1.46l6.3-3.01c1.67-.8 3.05-2.97 3.05-4.83v-35.43c0-1.86-1.52-3.37-3.38-3.37h-93.76z" fill="#f79329"/><path d="m17.26 36.02h93.48v9.03h-93.48z" fill="#f79329"/><g fill="#fff"><path d="m89.71 69.05c0 1.29 1.05 2.34 2.34 2.34h12.08c1.29 0 2.34-1.05 2.34-2.34v-17.58c0-1.28-1.05-2.34-2.34-2.34h-12.08c-1.29 0-2.34 1.05-2.34 2.34z"/><path d="m69.32 49.13c-1.29 0-2.34 1.05-2.34 2.34v17.58c0 1.29 1.05 2.34 2.34 2.34h12.08c1.29 0 2.34-1.05 2.34-2.34v-17.58c0-1.28-1.05-2.34-2.34-2.34z"/><path d="m46.6 49.13c-1.29 0-2.34 1.05-2.34 2.34v17.58c0 1.29 1.05 2.34 2.34 2.34h12.07c1.29 0 2.34-1.05 2.34-2.34v-17.58c0-1.28-1.05-2.34-2.34-2.34z"/><path d="m23.87 49.13c-1.29 0-2.34 1.05-2.34 2.34v17.58c0 1.29 1.05 2.34 2.34 2.34h12.07c1.29 0 2.34-1.05 2.34-2.34v-17.58c0-1.28-1.05-2.34-2.34-2.34z"/></g></svg>