<svg viewBox="0 0 128 128" xmlns="http://www.w3.org/2000/svg"><path d="m.37 23.51h127.27v3.55h-127.27z" fill="#78a3ad"/><path d="m97.68 69.51c-.41-3.31-3.46-6.02-6.8-6.02h-53.77c-3.33 0-6.38 2.71-6.79 6.02l-2.92 24.03c-.4 3.31-.03 8.66.83 11.88l1.26 4.72c.85 3.22 4.29 5.86 7.61 5.86h53.77c3.34 0 6.77-2.64 7.63-5.86l1.25-4.72c.86-3.22 1.23-8.57.83-11.88z" fill="#006ca2"/><path d="m49.91 57.89h28.17v6.42h-28.17z" fill="#78a3ad"/><path d="m67.21 23.66c1.67 0 3.03-1.36 3.03-3.03s-1.36-3.03-3.03-3.03h-12.47c-1.67 0-3.04 1.37-3.04 3.03s0 4.39 0 6.06v20.66c0 1.67.46 4.32 1.02 5.89l1.53 4.29c.56 1.57 2.39 2.85 4.06 2.85h6.35c1.66 0 2.36-1.19 1.54-2.64l-2.66-4.72c-.82-1.45-1.5-4-1.5-5.67v-20.66c0-1.67 1.37-3.03 3.03-3.03z" fill="#78a3ad"/><g fill="#fff"><path d="m50.58 92.85c0 1-.82 1.82-1.82 1.82h-13.5c-1 0-1.75-.82-1.66-1.81l1.89-20.42c.09-1 .99-1.81 1.99-1.81h11.28c1 0 1.82.82 1.82 1.82z"/><path d="m71.46 92.85c0 1-.82 1.82-1.83 1.82h-11.27c-1 0-1.82-.82-1.82-1.82v-20.41c0-1 .82-1.82 1.82-1.82h11.27c1.01 0 1.83.82 1.83 1.82z"/><path d="m94.38 92.85c.09 1-.65 1.81-1.65 1.81h-13.5c-1 0-1.82-.82-1.82-1.82v-20.4c0-1 .82-1.82 1.82-1.82h11.28c1 0 1.9.81 1.98 1.81z"/></g></svg>