<svg viewBox="0 0 128 128" xmlns="http://www.w3.org/2000/svg"><g fill="#78a3ad"><path d="m91.99 86.22h-53.31l20.54-69.17h10.5zm-43.35-7.43h33.15l-17.24-53.56z"/><path d="m.26 23.51h127.49v3.55h-127.49z"/><path d="m77.76 19.32c-1.93 0-3.51-1.58-3.51-3.51v-.82c0-1.93-1.58-3.51-3.52-3.51h-13.48c-1.93 0-3.51 1.58-3.51 3.51v.82c0 1.93-1.58 3.51-3.51 3.51h-5.97c-1.92 0-3.51 1.58-3.51 3.51v2.78c0 1.93 1.58 3.51 3.51 3.51h39.46c1.93 0 3.51-1.58 3.51-3.51v-2.78c0-1.93-1.57-3.51-3.51-3.51z"/></g><circle cx="64" cy="19.32" fill="#fff" r="3.72"/><path d="m104.04 62.93c-.3-1.91-2.13-3.47-4.05-3.47h-71.3c-1.93 0-3.78 1.56-4.12 3.46l-4.44 25.23c-.33 1.9-.14 4.97.43 6.81l3.58 11.56c.57 1.84 2.62 3.35 4.55 3.35h71.3c1.93 0 3.93-1.52 4.43-3.39l3.14-11.48c.5-1.86.68-4.95.38-6.86z" fill="#ed6c30"/><g fill="#fff"><path d="m66.68 86.18c0 1.16.95 2.11 2.11 2.11h10.87c1.16 0 2.11-.95 2.11-2.11v-15.82c0-1.16-.95-2.11-2.11-2.11h-10.88c-1.15 0-2.11.95-2.11 2.11v15.82z"/><path d="m38.77 88.29c1.16 0 2.11-.95 2.11-2.11v-15.82c0-1.16-.95-2.11-2.11-2.11h-8c-1.16 0-2.27.93-2.47 2.08l-2.8 15.88c-.2 1.14.59 2.08 1.74 2.08z"/><path d="m48.35 68.26c-1.16 0-2.11.95-2.11 2.11v15.81c0 1.16.95 2.11 2.11 2.11h10.85c1.16 0 2.11-.95 2.11-2.11v-15.82c0-1.16-.95-2.11-2.11-2.11h-10.85z"/><path d="m89.23 68.26c-1.16 0-2.11.95-2.11 2.11v15.81c0 1.16.95 2.11 2.11 2.11h11.61c1.16 0 1.96-.94 1.78-2.08l-2.46-15.87c-.18-1.14-1.27-2.08-2.43-2.08z"/></g><path d="m53.41 44.31h23.12v4.96h-23.12z" fill="#78a3ad"/></svg>