<svg viewBox="0 0 128 128" xmlns="http://www.w3.org/2000/svg"><path d="m28.25.72v126.57h71.5v-126.57z" fill="#855c52"/><circle cx="40.74" cy="74.91" fill="#fcc21b" r="5.55"/><path d="m36.48 75.38c.42.98 1.33.65 1.56-.25.15-.58.47-1.17.87-1.62.4-.44 1.08-.83 1.63-1.07.54-.24.93-.42.81-1.12-.09-.61-.95-.57-1.41-.51-.52.06-.99.32-1.47.53-.31.13-.64.27-.86.53-.84.88-1.66 2.28-1.13 3.51z" fill="#fff"/><path d="m40.74 12.19h46.51v46.51h-46.51z" fill="#40c0e7"/><path d="m47.57 19.78h39.68v-7.59h-46.51v46.51h6.83z" fill="#006ca2"/></svg>