<svg viewBox="0 0 128 128" xmlns="http://www.w3.org/2000/svg"><path d="m119.07 92.37c0 6.76-5.53 12.29-12.29 12.29h-85.56c-6.75 0-12.29-5.53-12.29-12.29v-50.71c0-6.76 5.54-12.29 12.29-12.29h85.56c6.76 0 12.29 5.53 12.29 12.29z" fill="#ed6c30"/><path d="m79.58 49.66h-31.15c-2.99 0-5.42-2.43-5.42-5.42v-25.57c0-2.99 2.43-5.42 5.42-5.42h31.15c2.99 0 5.42 2.43 5.42 5.42v25.56c0 3-2.43 5.43-5.42 5.43zm-25.73-10.84h20.3v-14.73h-20.3z" fill="#ed6c30"/><path d="m25.34 29.36h9.01v75.29h-9.01z" fill="#fff"/><path d="m93.66 29.36h9.02v75.29h-9.02z" fill="#fff"/><g fill="#ed6c30"><circle cx="4.36" cy="117.05" r="4.11"/><circle cx="16.29" cy="117.05" r="4.1"/><circle cx="28.22" cy="117.05" r="4.11"/><path d="m44.25 117.05c0 2.26-1.84 4.1-4.1 4.1-2.27 0-4.11-1.84-4.11-4.1 0-2.27 1.84-4.1 4.11-4.1 2.26 0 4.1 1.84 4.1 4.1z"/><circle cx="52.07" cy="117.05" r="4.11"/><path d="m68.11 117.05c0 2.26-1.84 4.1-4.1 4.1-2.28 0-4.11-1.84-4.11-4.1 0-2.27 1.83-4.1 4.11-4.1 2.26 0 4.1 1.84 4.1 4.1z"/><path d="m80.04 117.05c0 2.26-1.84 4.1-4.1 4.1-2.28 0-4.11-1.84-4.11-4.1 0-2.27 1.83-4.1 4.11-4.1 2.26 0 4.1 1.84 4.1 4.1z"/><circle cx="87.86" cy="117.05" r="4.1"/><circle cx="99.79" cy="117.05" r="4.11"/><path d="m115.82 117.05c0 2.26-1.84 4.1-4.11 4.1-2.26 0-4.1-1.84-4.1-4.1 0-2.27 1.84-4.1 4.1-4.1 2.27 0 4.11 1.84 4.11 4.1z"/><path d="m127.75 117.05c0 2.26-1.84 4.1-4.11 4.1-2.26 0-4.1-1.84-4.1-4.1 0-2.27 1.84-4.1 4.1-4.1 2.27 0 4.11 1.84 4.11 4.1z"/></g></svg>