<svg viewBox="0 0 128 128" xmlns="http://www.w3.org/2000/svg"><path d="m104.86 105.9c0 5.02-4.1 9.12-9.12 9.12h-63.47c-5.02 0-9.12-4.1-9.12-9.12v-37.62c0-5.02 4.1-9.12 9.12-9.12h63.47c5.02 0 9.12 4.1 9.12 9.12z" fill="#ed6c30"/><path d="m75.55 74.21h-23.1c-2.22 0-4.03-1.8-4.03-4.02v-18.96c0-2.22 1.81-4.02 4.03-4.02h23.1c2.22 0 4.02 1.8 4.02 4.02v18.96c.01 2.22-1.79 4.02-4.02 4.02zm-19.08-8.04h15.06v-10.92h-15.06z" fill="#ed6c30"/><path d="m35.32 59.16h6.68v55.86h-6.68z" fill="#fff"/><path d="m86.01 59.16h6.68v55.86h-6.68z" fill="#fff"/><path d="m67.99 21.21c.75 2.35 2.06 4.58 3.92 6.45 6.22 6.22 16.32 6.22 22.54 0 6.23-6.23 6.23-16.33 0-22.55-6.23-6.23-16.33-6.23-22.54 0-1.87 1.87-3.17 4.09-3.91 6.44h-12.2l-3.22 3.22-3.22-3.22-3.22 3.22-3.22-3.22h-3.22l-4.83 4.83 4.83 4.83zm18.41-8.05c1.78-1.78 4.66-1.78 6.44 0s1.78 4.66 0 6.44-4.66 1.78-6.44 0c-1.78-1.77-1.78-4.66 0-6.44z" fill="#fcc21b"/><path d="m106.95 127.56h-85.89c-7.04 0-12.76-5.72-12.76-12.75v-66.04c0-7.03 5.73-12.75 12.76-12.75h85.89c7.04 0 12.75 5.72 12.75 12.75v66.03c0 7.04-5.72 12.76-12.75 12.76zm-85.89-86.68c-4.36 0-7.9 3.54-7.9 7.89v66.03c0 4.35 3.54 7.89 7.9 7.89h85.89c4.35 0 7.9-3.54 7.9-7.89v-66.03c0-4.35-3.55-7.89-7.9-7.89z" fill="#ed6c30"/></svg>