<svg xmlns="http://www.w3.org/2000/svg" viewBox="0 0 128 128"><path fill="#00796B" d="M25.473 39.646q-2.076-15.719-1.176-21.622 1.637-10.738 8.511-13.748 3.537-1.541 7.43-.096 3.786 1.405 6.199 5.017 1.988 2.975 3.553 8.879 2.178 8.26 3.329 17.59l-2.978.368q-1.126-9.13-3.251-17.19-1.437-5.421-3.147-7.981-1.874-2.803-4.749-3.871-2.759-1.024-5.182.032-5.361 2.348-6.749 11.452-.836 5.481 1.184 20.778Z"/><path fill="#26A69A" d="M30.71 116.64 6.54 106.57l5.61-24.74-1.2-56.38 61.16-7.18v5.34l14.55 1.84Z"/><path fill="#61DE9F" d="M91.85 107.44 30.7 116.7l-5.2-32.38V34.7l61.16-9.25v49.61Z"/><path fill="#263238" d="M25.5 34.7v-5.58l-14.55-3.67 61.28-6.8 1.96 4.34 12.47 2.46Z"/><path fill="#00796B" d="M6.54 106.57c.42 0 14.48-11.15 14.48-11.15l9.68 21.28-2.08-33.93-3.15-48.07-4.09 51.95-14.84 19.92Z"/><path fill="#26A69A" d="m72.05 19.29 1.48 3.42.19.45.47.12 7.45 1.91-55.14 8.35v-5.2l-.76-.19-9.28-2.34 55.59-6.52m.63-1.08-61.72 7.24 14.55 3.67v5.59l61.15-9.26-12.21-3.14-1.77-4.1Z"/><path fill="#61DE9F" d="M42.463 38.647q-.108-.818-.73-3.565-2.359-10.426-1.896-15.957.891-10.643 10.229-12.38 8.428-1.566 14.118 11.743 3.526 8.246 4.594 16.796l-2.976.372q-1.017-8.131-4.376-15.989-4.746-11.1-10.812-9.972-7.087 1.318-7.787 9.68-.425 5.071 1.832 15.045.652 2.881.778 3.833Z"/><path fill="#26A69A" d="M45.81 40.03c-.87-2.93-1.78-8.85-1.82-9.11l2.96-.45c.01.06 1.07 6.1 2.23 8.93l-3.37.63ZM69.13 36.48c-.87-2.93-1.78-8.85-1.82-9.11l2.96-.45c.01.06 1.24 6.2 2.27 8.94l-3.41.62ZM46.84 114.26l8.4-14.55-4.01-38.79 33.57-6.53-18 56.89Z"/><path fill="#D7578A" d="M71.596 57.328q-.989-5.252-.33-10.34 1.446-11.155 10.772-10.17 5.385.566 7.169 9.803.816 4.226.743 8.365l-3-.052q.067-3.826-.689-7.745-1.362-7.053-4.539-7.387-6.411-.678-7.481 7.572-.598 4.615.303 9.398Z"/><path fill="#D7578A" d="m74.46 123.99-18.57-7.77 4.32-19.02-.92-43.34 47-5.52v4.11l11.18 1.41Z"/><path fill="#FF9F9F" d="m121.46 116.88-47 7.12-3.99-24.89V60.98l47-7.12V92Z"/><path fill="#263238" d="m70.47 60.98-3.76-2.88-7.42-4.24 47-5.52 4.27 2.69 6.91 2.83Z"/><path fill="#D7578A" d="m106.11 49.37 8.05 3.97-43.48 6.58-8.49-5.4 43.92-5.15m.18-1.03-47 5.52 11.18 7.12 47-7.12-11.18-5.52Z"/><path fill="#D7578A" d="M86.36 64.81c-.67-2.24-1.36-6.79-1.39-6.98l2.64-.34c.01.05.68 4.63 1.3 6.74l-2.55.58ZM104.25 62.06c-.67-2.24-1.36-6.79-1.39-6.98l2.61-.33c.01.05.55 4.77 1.17 6.88l-2.39.43Z"/><path fill="#FF9F9F" d="M83.393 65.108q-.078-.59-.52-2.657-1.836-8.594-1.531-13.182.607-9.11 8.012-10.135 6.746-.933 11.189 9.391 2.711 6.299 3.535 12.848l-2.976.374q-.772-6.127-3.315-12.037-3.539-8.224-8.021-7.604-4.986.69-5.43 7.362-.278 4.171 1.471 12.356.466 2.182.56 2.888Z"/><path fill="#AB2C5E" d="m55.89 116.22 9.49-8.04L74.46 124l-3.97-24.74.04-38.16-1.12-.46-3.54 38.79Z"/></svg>