<svg xmlns="http://www.w3.org/2000/svg" viewBox="0 0 128 128"><path fill="#F44336" d="M123.02 9.69a5.69 5.69 0 1 1-11.38 0 5.69 5.69 0 1 1 11.38 0Z"/><path fill="#84B0C1" d="M82.062 76.915q9.994 13.452 9.994 19.315 0 4.805-3.4 8.206-3.401 3.401-8.206 3.4l-32.209-.056-31.945-.054q-4.9 0-7.549 2.74l-.001.001q-.706.731-1.723.749-1.017.018-1.749-.689-.732-.707-.75-1.724-.018-1.017.689-1.749l.001-.001q4.098-4.239 11.09-4.24l31.946.054 32.2.057q2.77 0 4.732-1.962Q87.144 99 87.144 96.23q0-4.237-9.026-16.385-.607-.817-.458-1.823.148-1.007.965-1.614.817-.607 1.823-.458 1.007.148 1.614.965Z"/><path fill="#84B0C1" d="M60.791 75.651Q71.887 90.357 71.886 96.24q0 4.821-3.744 8.266-3.6 3.31-8.402 3.31-1.018 0-1.737-.719-.72-.719-.72-1.737 0-1.018.72-1.737.719-.719 1.737-.719 2.886 0 5.076-2.015 2.158-1.984 2.158-4.649 0-4.237-10.105-17.631-.613-.812-.472-1.82.141-1.007.954-1.62.812-.613 1.819-.472 1.008.141 1.621.954Z"/><path fill="#2F7889" d="M82.77 86.73c-2.01-3.44-3.64-5.44-6.26-9.02 0 0 .69.15 2.55.15 1.86 0 3.2-.59 3.2-.59 2.64 3.73 3.43 4.68 4.84 7.18 0 0-.05 1.63-1.35 2.49-1.3.86-2.98-.21-2.98-.21ZM62.56 86.9c-2.79-4.26-5.02-7.51-5.02-7.51l6 .14s2.69 3.61 4.23 6.47c0 0 .23 1.3-1.49 1.98-1.72.66-3.72-1.08-3.72-1.08Z"/><path fill="#84B0C1" d="m79.947 81.091-69.94-4.66q-2.693-.234-2.693-2.881V34.5q0-2.992 2.983-3.153l88.607-5.639q1.986-.138 3.166 1.484 1.168 1.605.451 3.456L83.697 78.716q-1.015 2.563-3.75 2.375Zm-.514-4.958 17.775-45.394-84.981 5.408v35.508l67.206 4.478Z"/><path fill="#84B0C1" d="m25.142 33.125-1.84 41.44-2.944-.13 1.84-41.44 2.944.13ZM41.001 32.174l-5.75 43.41-2.922-.388 5.75-43.41 2.922.388ZM56.862 31.207l-9.67 45.38-2.884-.614 9.67-45.38 2.884.614ZM72.717 30.227l-13.59 47.35-2.834-.814 13.59-47.35 2.834.814ZM88.559 29.233l-17.5 49.32-2.778-.986 17.5-49.32 2.778.986Z"/><path fill="#84B0C1" d="m8.239 47.007 85.56-2.94.102 2.946-85.56 2.94-.102-2.946ZM9.08 60.636h79.4v2.948H9.08v-2.948Z"/><path fill="#424242" d="M87.95 116.46a7.54 7.54 0 1 1-15.08 0 7.54 7.54 0 1 1 15.08 0Z"/><path fill="#84B0C1" d="M75.55 106.08h9.73l-2.32 10.09c-.22 1.57-1.29 2.71-2.54 2.71s-2.33-1.14-2.54-2.71l-2.33-10.09Z"/><path fill="#A8E3F0" d="M81.97 116.53c-.18.66-.51 1.41-1.18 1.58-2.42.62-2.76-5.33-1.54-6.35.74-.62 2.28-.73 2.93.04.83.98.1 3.64-.21 4.73Z"/><path fill="#2F7889" d="M80.53 109.65c-1.61 0-2.75-.95-3.31-1.54a.283.283 0 0 1 .19-.48c1.04-.05 2.08-.04 3.11-.07 1.04.03 2.08.02 3.11.07.24.01.36.31.19.48-.53.59-1.68 1.54-3.29 1.54Z"/><path fill="#757575" d="M78.04 119.02c.65.75 1.69 1.1 2.68.98.98-.12 1.88-.7 2.47-1.5.34-.47.58-1.01.97-1.44.39-.43 1.01-.73 1.55-.51.76.3.86 1.36.6 2.13a6.08 6.08 0 0 1-3.09 3.56c-.99.49-2.37.69-3.47.58-2.11-.22-4.38-2.13-5.12-4.09-.4-1.05-.75-3.16 1.34-2.68.97.23 1.29 2.07 2.07 2.97Z"/><path fill="#84B0C1" d="m97.546 29.78 4.61-11.27q2.456-6.008 7.33-8.192l.04-.018 6.57-2.666q.943-.383 1.88.013.938.396 1.32 1.339.383.943-.013 1.88-.396.938-1.339 1.32l-6.487 2.633q-3.052 1.387-4.753 5.551l-4.61 11.27q-.386.942-1.324 1.335-.938.394-1.88.009-.942-.386-1.335-1.324-.394-.938-.009-1.88Z"/><path fill="#424242" d="M27.14 116.46a7.54 7.54 0 1 1-15.08 0 7.54 7.54 0 1 1 15.08 0Z"/><path fill="#84B0C1" d="M14.73 106.08h9.73l-2.32 10.09c-.22 1.57-1.29 2.71-2.54 2.71s-2.33-1.14-2.54-2.71l-2.33-10.09Z"/><path fill="#A8E3F0" d="M21.16 116.53c-.18.66-.51 1.41-1.18 1.58-2.42.62-2.76-5.33-1.54-6.35.74-.62 2.28-.73 2.93.04.83.98.09 3.64-.21 4.73Z"/><path fill="#2F7889" d="M19.72 109.65c-1.61 0-2.75-.95-3.31-1.54a.283.283 0 0 1 .19-.48c1.04-.05 2.08-.04 3.11-.07 1.04.03 2.08.02 3.11.07.24.01.36.31.19.48-.54.59-1.69 1.54-3.29 1.54Z"/><path fill="#757575" d="M17.22 119.02c.65.75 1.69 1.1 2.68.98.98-.12 1.88-.7 2.47-1.5.34-.47.58-1.01.97-1.44.39-.43 1.01-.73 1.55-.51.76.3.86 1.36.6 2.13a6.08 6.08 0 0 1-3.09 3.56c-.99.49-2.37.69-3.47.58-2.11-.22-4.38-2.13-5.12-4.09-.4-1.05-.75-3.16 1.34-2.68.97.23 1.29 2.07 2.07 2.97Z"/></svg>