<svg xmlns="http://www.w3.org/2000/svg" viewBox="0 0 128 128"><defs><linearGradient id="b" x1="28.158" x2="28.158" y1="114.548" y2="101.867" gradientUnits="userSpaceOnUse"><stop offset="0" stop-color="#BF360C" stop-opacity="0"/><stop offset="1" stop-color="#BF360C"/></linearGradient><linearGradient id="c" x1="105.536" x2="121.9" y1="105.565" y2="92.561" gradientUnits="userSpaceOnUse"><stop offset=".239" stop-color="#757575"/><stop offset=".822" stop-color="#9D9D9D"/></linearGradient><linearGradient id="e" x1="85.445" x2="85.445" y1="114.548" y2="101.867" gradientUnits="userSpaceOnUse"><stop offset="0" stop-color="#BF360C" stop-opacity="0"/><stop offset="1" stop-color="#BF360C"/></linearGradient><radialGradient id="a" cx="28.158" cy="109.552" r="15.178" gradientUnits="userSpaceOnUse"><stop offset=".703" stop-color="#FFD740"/><stop offset=".999" stop-color="#F6BF26"/></radialGradient><radialGradient id="d" cx="85.445" cy="109.552" r="15.178" gradientUnits="userSpaceOnUse"><stop offset=".703" stop-color="#FFD740"/><stop offset=".999" stop-color="#F6BF26"/></radialGradient></defs><path fill="#039BE5" d="M110.78 70.71c-6.25-6.99-21.88-9.31-35.16-17.48-3.66-2.25-11.5-8.65-12.55-12.96-.78-3.21 4.57-18.89 2.41-20.06-3.64-1.98-8.35 2.43-8.35 2.43s-1.72-8.17-9.87-9.71c-7.3-1.38-14.38 3.2-36.18 4.22-4.06.19-5.93 3.12-5.43 6.93.41 3.08 3.38 3.77 3.38 3.77s-3.13 1.94-2.86 5.38 3.6 4.19 3.6 4.19-3.08 1.78-2.91 5.43c.18 3.65 3.28 5.05 3.28 5.05s-1.45 9.95-2.26 15.25c-1.52 10.05-.64 19.37 6.89 26.37h95.79c4.73-3.77 5.59-12.8.22-18.81Z"/><path fill="#81D4FA" d="M36.08 13.85c2.16-.75 4.45-1.15 6.78-1.27 2.32-.09 4.72.15 6.97 1.07 2.27.85 4.26 2.67 5.45 4.78 1.22 2.11 1.9 4.42 2.37 6.7.43 2.3.67 4.59.9 6.85.11 1.13.22 2.26.35 3.37l.25 1.63.34 1.62c1.09 4.29 3.12 8.39 5.92 11.99-3.42-3.05-5.96-7.12-7.41-11.57l-.48-1.69-.35-1.73c-.19-1.14-.35-2.28-.5-3.41-.29-2.26-.54-4.51-.98-6.68-.81-4.29-2.5-8.66-6.49-10.44-1.93-.92-4.13-1.37-6.35-1.51-2.24-.15-4.51-.03-6.77.29Z"/><path fill="#EEE" d="M56.8 40.22a3.34 3.34 0 1 1-6.68 0 3.34 3.34 0 1 1 6.68 0ZM62.27 50.29a3.34 3.34 0 1 1-6.68 0 3.34 3.34 0 1 1 6.68 0ZM69.55 57.25a3.34 3.34 0 1 1-6.68 0 3.34 3.34 0 1 1 6.68 0ZM78.91 62.7a3.34 3.34 0 1 1-6.68 0 3.34 3.34 0 1 1 6.68 0ZM89.69 67.09a3.34 3.34 0 1 1-6.68 0 3.34 3.34 0 1 1 6.68 0Z"/><path fill="#F6BF26" d="m53.131 38.757 9.21-2.07q1.464-.329 1.792 1.134.165.732-.119 1.18-.283.448-1.015.612l-9.21 2.07q-1.464.329-1.792-1.134-.329-1.464 1.134-1.792ZM58.432 48.823l6.93-4.75q1.237-.848 2.085.389.424.619.327 1.14-.097.521-.716.945l-6.93 4.75q-1.237.848-2.085-.389-.848-1.237.389-2.085ZM65.12 56.22l5.81-6.15q.515-.545 1.045-.56.53-.015 1.075.5 1.09 1.03.06 2.12l-5.81 6.15q-.515.545-1.045.56-.53.015-1.075-.5-1.09-1.03-.06-2.12ZM73.99 61.918l4.39-7.18q.783-1.28 2.062-.498 1.28.783.498 2.062l-4.39 7.18q-.391.64-.907.765-.516.124-1.155-.267-1.28-.783-.498-2.062ZM84.941 66.576l2.68-7.34q.514-1.409 1.923-.895.705.257.929.738.223.481-.034 1.185l-2.68 7.34q-.514 1.409-1.923.895t-.895-1.923Z"/><path fill="#F6BF26" d="M63.484 34.975q5.944-2.118 9.959-1.906 5.097.269 6.142 3.845.944 3.233-1.952 5.822-2.944 2.633-6.947 1.466-4.938-1.419-8.275-5.611-.873.352-1.79.753-1.374.601-1.975-.773-.101-.23-.146-.439-6.29-.445-9.892-2.889-4.76-3.23-2.77-7.042 1.966-3.767 7.386-1.925 5.188 1.763 10.26 8.699Zm1.921 2.506q2.562 2.818 6.109 3.837 2.416.705 4.12-.818 1.485-1.328 1.071-2.744-.448-1.534-3.42-1.691-3.141-.166-7.88 1.416Zm-5.524-2.276q-3.89-4.82-7.623-6.089-2.985-1.014-3.761.473-.752 1.442 1.796 3.171 3.26 2.213 9.588 2.445ZM29.13 55.28c-6.96-1.32-13.98-2.86-19.3-5.22-.47 3.23-1.37 9.33-1.94 13.09-.64 4.2-.85 8.27-.33 12.1 14.29 4.88 36.25-9.77 45.92 14.26h8.79c-2.69-25.36-14.44-30.68-33.14-34.23Z"/><path fill="#F4511E" d="M27.15 60.68c-6.58-.63-13.17-1.61-18.36-3.61-.32 2.19-.65 4.38-.91 6.08-.64 4.2-.85 8.27-.33 12.1 14.29 4.88 36.25-9.77 45.92 14.26h6.38c-3.39-22.74-19.53-27.57-32.7-28.83Z"/><path fill="#9CCC65" d="M21.38 67.89c-4.75.21-9.77.01-13.87-1.74-.32 3.14-.35 6.19.04 9.11 14.29 4.88 36.25-9.77 45.92 14.26h2.61c-3.58-20.35-21.81-22.2-34.7-21.63Z"/><path fill="#616161" d="m108.61 104.5 5.65-4.45-3.48-7.31 1.71-5.35s-87.55-1.04-92.1-1.43c-2.9-.25-6.07-.87-6.07-.87-2.26-.47-3.85-.94-3.85-.94l9.62 20.05 5.43-1.98-4.2-9.48h12.71l-2.36 7.32c-.54 1.67.38 3.46 2.05 4l6.6 2.13c1.67.54 3.46-.38 4-2.05L48 92.74h17.6l3.68 11.41a3.178 3.178 0 0 0 4 2.05l6.6-2.13a3.178 3.178 0 0 0 2.05-4l-2.36-7.32h13.85l-5.33 9.48 6.2 1.98 6.06-11.46 8.26 11.75Z"/><path fill="url(#a)" d="M42.6 109.55a14.44 14.44 0 1 1-28.88 0 14.44 14.44 0 1 1 28.88 0Z"/><path fill="url(#b)" d="M35.12 109.55a6.96 6.96 0 1 1-13.92 0 6.96 6.96 0 1 1 13.92 0Z" opacity=".76"/><path fill="#757575" d="M31.78 109.55a3.62 3.62 0 1 1-7.24 0 3.62 3.62 0 1 1 7.24 0Z"/><path fill="url(#c)" d="m103.55 95.9 5.35-3.87c1.38-1 3.28-.89 4.53.27l8.04 7.43c1.39 1.29 1.26 3.53-.28 4.64l-9.76 7.06c-1.54 1.11-3.71.54-4.49-1.19l-4.54-9.96c-.72-1.54-.23-3.38 1.15-4.38Z"/><path fill="url(#d)" d="M99.89 109.55a14.44 14.44 0 1 1-28.88 0 14.44 14.44 0 1 1 28.88 0Z"/><path fill="url(#e)" d="M92.41 109.55a6.96 6.96 0 1 1-13.92 0 6.96 6.96 0 1 1 13.92 0Z" opacity=".76"/><path fill="#757575" d="M89.07 109.55a3.62 3.62 0 1 1-7.24 0 3.62 3.62 0 1 1 7.24 0Z"/><g fill="#01579B" opacity=".57"><path d="M13.67 30.68c8.51 0 18.2-1.36 27.5-3.9.8-.22 1.27-1.04 1.05-1.84a1.5 1.5 0 0 0-1.84-1.05C21.1 29.15 9.03 27.86 9.03 27.86s-1.38.86-2.23 2.45c.11.03 4.6.37 6.87.37ZM15.15 40.58c8.85 0 18.93-1.47 28.57-4.22.8-.23 1.26-1.06 1.03-1.85-.23-.8-1.06-1.24-1.85-1.03-18.93 5.04-33.13 3.95-33.13 3.95s-1.33.77-2.19 2.34c.24.28 3.51.81 7.57.81ZM45.26 46.09c.79-.24 1.25-1.07 1.01-1.87-.24-.79-1.09-1.3-1.87-1.01-14.51 5.47-34.26 4.7-34.26 4.7L9.84 50s4.45.65 7.17.6c9.52-.19 18.26-1.55 28.25-4.51Z"/></g></svg>