<svg xmlns="http://www.w3.org/2000/svg" viewBox="0 0 128 128"><path fill="#464C4F" d="M4.04 46.79s.08 5.37.08 6.43c0 1.06.37 2.67 2.98 2.67s112 .23 113.73.16c2.38-.1 2.94-2.39 3.01-4.37.06-1.98.03-5.42.03-5.42l-27.16-5.91-78.76 4.09-13.91 2.35Z"/><path fill="#616266" d="M7.84 25.58c-2.48-.06-3.52.86-3.71 3.03-.19 2.17-.14 17.16-.07 18.71.06 1.55 1.05 3.78 4.09 3.78s110.82.25 112.44.19c1.62-.06 3.16-1.55 3.29-4.47.12-2.91.06-16.35.12-18.02.06-1.67-.68-3.04-3.78-3.1-3.11-.06-109.84-.06-112.38-.12Z"/><path fill="#9A9A9A" d="M10.84 42.08c2.42.19 4.06-3.24 7.84-5.66 3.78-2.42 8.42-1.93 8.51-4.74.09-2.81-13.3-3.39-16.16-.44-2.86 2.95-3.03 10.61-.19 10.84Z"/><path fill="#464C4F" d="M4.04 93.16s.08 5.37.08 6.43c0 1.06.37 2.67 2.98 2.67s112 .23 113.73.16c2.38-.1 2.94-2.39 3.01-4.37.06-1.98.03-5.42.03-5.42l-27.16-5.91-78.76 4.08-13.91 2.36Z"/><path fill="#616266" d="M7.84 71.95c-2.48-.06-3.52.86-3.71 3.03-.19 2.17-.14 17.17-.07 18.72.06 1.55 1.05 3.78 4.09 3.78s110.82.25 112.44.19c1.62-.06 3.16-1.55 3.29-4.47.12-2.91.06-16.35.12-18.02.06-1.67-.68-3.04-3.78-3.1-3.11-.07-109.84-.07-112.38-.13Z"/><path fill="#9A9A9A" d="M10.84 88.45c2.42.19 4.06-3.24 7.84-5.66 3.77-2.42 8.42-1.93 8.51-4.74.1-2.81-13.3-3.39-16.16-.44-2.85 2.96-3.03 10.61-.19 10.84Z"/></svg>