<svg xmlns="http://www.w3.org/2000/svg" viewBox="0 0 128 128"><defs><linearGradient id="a" x1="64.005" x2="64.005" y1="-107.56" y2="-94.45" gradientTransform="scale(1 -1)" gradientUnits="userSpaceOnUse"><stop offset=".12" stop-color="#E0E0E0"/><stop offset=".52" stop-color="#FFF"/><stop offset="1" stop-color="#EAEAEA"/></linearGradient><linearGradient id="b" x1="54.85" x2="54.85" y1="-107.56" y2="-94.47" gradientTransform="scale(1 -1)" gradientUnits="userSpaceOnUse"><stop offset="0" stop-color="#333"/><stop offset=".55" stop-color="#666"/><stop offset="1" stop-color="#333"/></linearGradient><linearGradient id="c" x1="64.06" x2="64.06" y1="-107.56" y2="-94.47" gradientTransform="scale(1 -1)" gradientUnits="userSpaceOnUse"><stop offset="0" stop-color="#333"/><stop offset=".55" stop-color="#666"/><stop offset="1" stop-color="#333"/></linearGradient><linearGradient id="d" x1="73.15" x2="73.15" y1="-107.56" y2="-94.47" gradientTransform="scale(1 -1)" gradientUnits="userSpaceOnUse"><stop offset="0" stop-color="#333"/><stop offset=".55" stop-color="#666"/><stop offset="1" stop-color="#333"/></linearGradient><linearGradient id="e" x1="82.8" x2="82.8" y1="-107.56" y2="-94.47" gradientTransform="scale(1 -1)" gradientUnits="userSpaceOnUse"><stop offset="0" stop-color="#333"/><stop offset=".55" stop-color="#666"/><stop offset="1" stop-color="#333"/></linearGradient><linearGradient id="f" x1="45.2" x2="45.2" y1="-107.54" y2="-94.45" gradientTransform="scale(1 -1)" gradientUnits="userSpaceOnUse"><stop offset="0" stop-color="#333"/><stop offset=".55" stop-color="#666"/><stop offset="1" stop-color="#333"/></linearGradient><linearGradient id="h" x1="30.14" x2="55.14" y1="-66.81" y2="-66.81" gradientTransform="scale(1 -1)" gradientUnits="userSpaceOnUse"><stop offset="0" stop-color="#333"/><stop offset=".55" stop-color="#666"/><stop offset="1" stop-color="#333"/></linearGradient><linearGradient id="j" x1="72.45" x2="97.45" y1="-66.78" y2="-66.78" gradientTransform="scale(1 -1)" gradientUnits="userSpaceOnUse"><stop offset="0" stop-color="#333"/><stop offset=".55" stop-color="#666"/><stop offset="1" stop-color="#333"/></linearGradient><radialGradient id="g" cx="42.64" cy="-66.81" r="11.5" gradientTransform="scale(1 -1)" gradientUnits="userSpaceOnUse"><stop offset=".48" stop-color="#FFF"/><stop offset=".77" stop-color="#FDFDFD"/><stop offset=".88" stop-color="#F6F6F6"/><stop offset=".96" stop-color="#EBEBEB"/><stop offset="1" stop-color="#E0E0E0"/></radialGradient><radialGradient id="i" cx="84.95" cy="-66.78" r="11.5" gradientTransform="scale(1 -1)" gradientUnits="userSpaceOnUse"><stop offset=".48" stop-color="#FFF"/><stop offset=".77" stop-color="#FDFDFD"/><stop offset=".88" stop-color="#F6F6F6"/><stop offset=".96" stop-color="#EBEBEB"/><stop offset="1" stop-color="#E0E0E0"/></radialGradient></defs><path fill="#C62828" d="M12.53 53.05c-4.57.01-8.28 3.72-8.28 8.29v38.38a8.297 8.297 0 0 0 8.28 8.28h5.55V53l-5.55.05ZM115.72 53.05c4.57.01 8.28 3.72 8.28 8.29v38.38c-.01 4.57-3.71 8.28-8.28 8.29h-5.55v-55l5.55.04Z"/><path fill="#90A4AE" d="m113.17 54.41-.12-10c-.03-4.3-3.53-7.77-7.83-7.75H67.05V23.25c5.11-1.69 7.89-7.2 6.2-12.31-1.69-5.11-7.2-7.89-12.31-6.2-5.11 1.69-7.89 7.2-6.2 12.31a9.743 9.743 0 0 0 6.2 6.2v13.46H22.78c-4.28.01-7.75 3.47-7.78 7.75v71.78c.03 4.28 3.5 7.74 7.78 7.76h82.44c4.3.01 7.8-3.46 7.83-7.76v-7.37h.12V54.41Z"/><path fill="#C62828" d="M64 18c-2.21 0-4-1.79-4-4s1.79-4 4-4 4 1.79 4 4-1.79 4-4 4Z"/><path fill="url(#a)" d="M44.15 94.45h39.71c3.46 0 6.27 2.81 6.27 6.27v.57c0 3.46-2.81 6.27-6.27 6.27H44.15c-3.46 0-6.27-2.81-6.27-6.27v-.57c0-3.46 2.81-6.27 6.27-6.27Z"/><path fill="url(#b)" d="M53.67 94.47h2.36v13.09h-2.36V94.47Z"/><path fill="url(#c)" d="M62.88 94.47h2.36v13.09h-2.36V94.47Z"/><path fill="url(#d)" d="M71.97 94.47h2.36v13.09h-2.36V94.47Z"/><path fill="url(#e)" d="M81.62 94.47h2.36v13.09h-2.36V94.47Z"/><path fill="url(#f)" d="M44.02 94.45h2.36v13.09h-2.36V94.45Z"/><path fill="#C62828" d="M64 85.33h-5.33c-.55 0-1-.45-1-1 0-.16.04-.31.11-.45l2.74-5.41 2.59-4.78a.996.996 0 0 1 1.76 0l2.61 5 2.71 5.19c.25.49.06 1.09-.43 1.35-.14.07-.29.11-.45.11L64 85.33Z"/><path fill="url(#g)" d="M54.14 66.81a11.5 11.5 0 1 1-23 0 11.5 11.5 0 1 1 23 0Z"/><path fill="url(#h)" d="M55.14 66.81q0 5.178-3.661 8.839-3.661 3.661-8.839 3.661-5.178 0-8.839-3.661-3.661-3.661-3.661-8.839 0-5.178 3.661-8.839 3.661-3.661 8.839-3.661 5.178 0 8.839 3.661 3.661 3.661 3.661 8.839Zm-2 0q0-4.349-3.075-7.425-3.076-3.075-7.425-3.075t-7.425 3.075q-3.075 3.076-3.075 7.425t3.075 7.425q3.076 3.075 7.425 3.075t7.425-3.075q3.075-3.076 3.075-7.425Z"/><path fill="url(#i)" d="M85 55.28c-6.35 0-11.5 5.15-11.5 11.5s5.15 11.5 11.5 11.5 11.5-5.15 11.5-11.5c-.01-6.35-5.15-11.49-11.5-11.5Z"/><path fill="url(#j)" d="M85.002 54.28q5.175.008 8.833 3.665 3.657 3.658 3.665 8.835 0 5.177-3.662 8.838Q90.177 79.28 85 79.28t-8.838-3.662Q72.5 71.957 72.5 66.78t3.662-8.838Q79.823 54.28 85 54.28Zm-.002 2h-.002q-4.347.001-7.422 3.076Q74.5 62.432 74.5 66.78q0 4.348 3.076 7.424Q80.652 77.28 85 77.28q4.348 0 7.424-3.076Q95.5 71.128 95.5 66.78q-.007-4.348-3.08-7.42-3.072-3.073-7.42-3.08Z"/></svg>