<svg xmlns="http://www.w3.org/2000/svg" viewBox="0 0 128 128"><defs><linearGradient id="a" x1="93.817" x2="98.663" y1="68.094" y2="115.842" gradientUnits="userSpaceOnUse"><stop offset="0" stop-color="#ECEFF1"/><stop offset="1" stop-color="#B0BEC5"/></linearGradient><linearGradient id="b" x1="75.196" x2="57.649" y1="76.477" y2="116.907" gradientUnits="userSpaceOnUse"><stop offset="0" stop-color="#ECEFF1"/><stop offset="1" stop-color="#B0BEC5"/></linearGradient><linearGradient id="c" x1="72.762" x2="63.628" y1="42.985" y2="59.032" gradientUnits="userSpaceOnUse"><stop offset="0" stop-color="#ECEFF1"/><stop offset="1" stop-color="#B0BEC5"/></linearGradient><linearGradient id="d" x1="50.609" x2="66.07" y1="52.302" y2="63.828" gradientUnits="userSpaceOnUse"><stop offset="0" stop-color="#ECEFF1"/><stop offset="1" stop-color="#B0BEC5"/></linearGradient><linearGradient id="e" x1="104.099" x2="120.89" y1="12.463" y2="17.833" gradientTransform="rotate(16.367)" gradientUnits="userSpaceOnUse"><stop offset="0" stop-color="#ECEFF1"/><stop offset="1" stop-color="#B0BEC5"/></linearGradient><linearGradient id="f" x1="116.864" x2="111.544" y1="32.282" y2="53.29" gradientUnits="userSpaceOnUse"><stop offset="0" stop-color="#B0BEC5"/><stop offset=".521" stop-color="#CFD8DC"/><stop offset="1" stop-color="#B0BEC5"/></linearGradient><linearGradient id="g" x1="86.071" x2="86.071" y1="11.958" y2="34.234" gradientUnits="userSpaceOnUse"><stop offset=".545" stop-color="#FFCA28"/><stop offset=".834" stop-color="#FFB300"/><stop offset=".995" stop-color="#E59600"/></linearGradient><linearGradient id="h" x1="73.593" x2="98.414" y1="22.5" y2="22.5" gradientUnits="userSpaceOnUse"><stop offset="0" stop-color="#EDA600"/><stop offset=".871" stop-color="#D18900"/></linearGradient><linearGradient id="j" x1="71.15" x2="71.15" y1="67.024" y2="116.09" gradientUnits="userSpaceOnUse"><stop offset="0" stop-color="#ECEFF1"/><stop offset="1" stop-color="#B0BEC5"/></linearGradient><linearGradient id="k" x1="91.109" x2="95.257" y1="72.386" y2="113.252" gradientUnits="userSpaceOnUse"><stop offset="0" stop-color="#ECEFF1"/><stop offset="1" stop-color="#B0BEC5"/></linearGradient><linearGradient id="l" x1="84.144" x2="85.132" y1="27.377" y2="67.125" gradientUnits="userSpaceOnUse"><stop offset="0" stop-color="#ECEFF1"/><stop offset="1" stop-color="#B0BEC5"/></linearGradient><linearGradient id="m" x1="58.803" x2="58.803" y1="114.85" y2="122.26" gradientUnits="userSpaceOnUse"><stop offset="0" stop-color="#CFD8DC"/><stop offset="1" stop-color="#90A4AE"/></linearGradient><linearGradient id="n" x1="100.785" x2="100.785" y1="113.62" y2="122.03" gradientUnits="userSpaceOnUse"><stop offset="0" stop-color="#CFD8DC"/><stop offset="1" stop-color="#90A4AE"/></linearGradient><linearGradient id="p" x1="-117.305" x2="-118.175" y1="-23.534" y2="-18.636" gradientTransform="scale(-1 1) rotate(-22.457)" gradientUnits="userSpaceOnUse"><stop offset="0" stop-color="#ECEFF1"/><stop offset=".935" stop-color="#B0BEC5"/></linearGradient><radialGradient id="i" cx="83.7" cy="11.49" r="12.764" gradientUnits="userSpaceOnUse"><stop offset="0" stop-color="#6D4C41"/><stop offset="1" stop-color="#543930"/></radialGradient><radialGradient id="o" cx="119.722" cy="6.487" r="10.97" gradientTransform="matrix(.9823 .1874 -.1591 .8341 0 0)" gradientUnits="userSpaceOnUse"><stop offset=".003" stop-color="#90A4AE"/><stop offset=".422" stop-color="#B0BEC5"/><stop offset=".842" stop-color="#ECEFF1"/></radialGradient></defs><path fill="#FFB300" d="M41.3 48 4.5 43.7v.7L41 50Z"/><path fill="#E69200" d="M41 50.5c-.1 0-.1 0 0 0L4.4 44.9c-.2 0-.4-.2-.4-.5v-.7c0-.1.1-.3.2-.4.1-.1.2-.1.4-.1l36.8 4.2c.1 0 .3.1.3.2s.1.2.1.4l-.3 2c-.1.3-.3.5-.5.5Zm-28.7-5.4 28.3 4.3.2-1c-.1 0-28.5-3.3-28.5-3.3Z"/><path fill="#FFB300" d="M35.7 48c-.4 3.2.1 5.9 1.2 6.1 1.1.2 2.4-2.3 2.8-5.5.4-3.2-.1-5.9-1.2-6.1-1.1-.2-2.3 2.3-2.8 5.5Z"/><path fill="#E69200" d="M37.1 54.6h-.2c-.5-.1-1.3-.5-1.6-2.3-.2-1.2-.3-2.8 0-4.3.4-3.1 1.7-6.2 3.4-6 1.7.2 2.1 3.5 1.7 6.6-.2 1.6-.6 3.1-1.2 4.2-.8 1.4-1.6 1.8-2.1 1.8Zm-.9-6.5c-.2 1.5-.2 2.9 0 4 .2 1 .5 1.5.8 1.5.2 0 .7-.3 1.1-1.2.5-1 .9-2.4 1.1-3.9.5-3.5-.2-5.5-.7-5.5-.6 0-1.8 1.7-2.3 5.1Z"/><path fill="url(#a)" d="M96.7 119.6h6.1l-.9-23.8-10.4 1.4Z"/><path fill="url(#b)" d="M67.2 121.3h-6.3L55.7 95l11.1-.2Z"/><path fill="url(#c)" d="m59.3 57.5 5.9 4.2 11.9-17.2-7.3-5Z"/><path fill="url(#d)" d="M64.3 57.1c-.4-.4-.8-.6-1.3-.8l-15.9-9-3.4 5.3 15.8 10 .9.6h.1c.4.2.8.3 1.2.3 2 .1 3.8-1.5 3.9-3.5 0-1.2-.5-2.2-1.3-2.9Z"/><path fill="#90A4AE" d="M61.9 64.5h-.2c-.5 0-.9-.1-1.4-.3-.1 0-.2-.1-.3-.1-.3-.1-.7-.4-1-.6l-15.7-10c-.2-.1-.4-.4-.4-.6 0-.2 0-.5.1-.8l3.4-5.3c.3-.4.9-.6 1.3-.3l12.7 7.2L68.9 39c.1-.2.4-.4.6-.5.2-.1.6 0 .8.2l7.4 5c.2.2.4.4.4.7.1.3 0 .5-.2.8L66 62.2c-.1.1-.2.3-.4.3-.9 1.3-2.2 2-3.7 2Zm-1.1-2.3s0 .1 0 0c.4.2.7.2 1 .2 1 .1 2-.5 2.5-1.4.1-.2.3-.3.5-.4l11.1-15.9-5.7-3.8-8.5 14.6c-.3.5-.9.6-1.4.4l-12.8-7.2-2.3 3.7L60 61.8s.1 0 .1.1c.2.1.4.2.7.3Z"/><path fill="url(#e)" d="m110.4 55.9 3.7-6.7-15.5-12-3.7 8.7Z"/><path fill="url(#f)" d="m115.5 52.5 4.3-19.2-6.2-.7-5.1 18.1c-.1.2-.2.5-.3.7-.1.3-.2.7-.2 1 0 1.6.9 3.1 2.5 3.6 1.8.6 3.6-.3 4.4-1.9V54c.1-.1.1-.2.2-.4.4-.4.4-.8.4-1.1Z"/><path fill="#90A4AE" d="M111.8 57.1c-.5 0-.9-.1-1.4-.2-.2 0-.3 0-.5-.1l-.4-.2c-.1 0-.2-.1-.3-.2l-14.9-9.6c-.4-.3-.6-.8-.4-1.2l3.7-8.7c.1-.3.4-.5.7-.6.3-.1.6 0 .9.2l10.2 8 3.6-12.9c.1-.5.6-.8 1.1-.7l6.1.7c.3 0 .5.2.7.4.2.2.2.5.2.8l-4.5 19.9c0 .5-.1.9-.2 1.3-.1.1-.1.3-.2.4 0 .2-.1.3-.2.4-.9 1.4-2.5 2.3-4.2 2.3Zm-1.1-2.3h.2c.1 0 .1 0 .2.1 1.2.4 2.6-.2 3.2-1.4l.1-.2s.1-.1.1-.2c.1-.2.1-.5.1-.8v-.2l4.3-18.9-4.2-.5-3.7 13.5c-.1.3-.3.6-.7.7-.3.1-.7 0-.9-.2l-10.4-8-2.9 6.8 14.2 9.1c.1.1.2.1.3.2h.1Z"/><path fill="url(#g)" d="M97.6 13.1c-1.7-4.3-6.9-7-11.5-7-6.4 0-11.8 3.9-11.8 10.7l.3 3c.3 2.3-.3 3.1-.7 4.6-.4 1.2-.3 3.4 1 5.1 1.1 1.4 3.8 3.3 5.3 3.3 2.1 0 2.8.3 3.1 1.9l.5 4.2h7.4l.4-6.1c.2-2.4 1.5-4.5 3.6-5.8 2.8-1.6 4.3-9 2.4-13.9Z"/><path fill="url(#h)" d="M86.1 7.1c4.5 0 9.1 2.7 10.5 6.4 1.8 4.6.4 11.4-2 12.8-2.3 1.4-3.8 3.9-4.1 6.5l-.3 5.2h-5.6l-.4-3.3v-.1c-.5-2.5-2.2-2.7-4.1-2.7-1 0-3.5-1.6-4.5-2.9-1.1-1.4-1.2-3.2-.9-4.2l.3-.9c.4-1.1.8-2.1.5-4.2l-.3-2.9c0-6.6 5.6-9.7 10.9-9.7m0-1c-6.4 0-11.9 3.9-11.9 10.7l.3 3c.3 2.3-.3 3.1-.7 4.6-.4 1.2-.3 3.4 1 5.1 1.1 1.4 3.8 3.3 5.3 3.3 2.1 0 2.8.3 3.1 1.9l.5 4.2h7.4l.4-6.1c.2-2.4 1.5-4.5 3.6-5.8 2.9-1.8 4.4-9.2 2.4-14.1-1.6-4-6.8-6.8-11.4-6.8Z"/><path fill="url(#i)" d="M85.7 22.6c.1.7.1 2 1.6 2.8l2.3-4.4.1.1c1.5 1 1.9 2.9 1.1 4.5l-.4.7c-.6 1.7.1 4.7 1.8 5h.2c1.2-3.3 5-2.9 6.7-11.5 1.3-6.4-1.6-12-9.8-13.7-7.8-1.6-14.8 1.7-15.3 9.4l6.6 2.5c1.4.3 2.7 1.1 3.6 2.2.8.7 1.4 1.6 1.5 2.4Z"/><path fill="#404040" d="M82.9 24.2a1.3 2 0 1 1-2.6 0 1.3 2 0 1 1 2.6 0Z"/><path fill="#402821" d="M98.2 11.6c-.8-1.5-2.1-2.7-3.8-3.7-1.4-.8-3-1.5-5-1.9-.3-.1-.6-.1-.9-.1-1-.2-2-.2-2.9-.2h-1.1c-.4 0-.8.1-1.1.1-.7.1-1.4.2-2.1.5-.3.1-.7.2-1 .3-.3.1-.6.3-.9.4-.3.2-.6.3-.9.5-.3.2-.5.4-.8.6-.8.6-1.4 1.3-2 2.2-.2.3-.3.6-.5.9-.2.5-.4.9-.6 1.5-.3.8-.5 1.8-.5 2.8l.4.2 1.3.5.4-1.9.1-.3c1-4 4.3-6.2 9.3-6.2 1.1 0 2.2.1 3.4.4 6.5 1.3 9.5 5.5 8.3 11.4-1 4.9-2.6 6.4-4.1 7.8-.3.3-.6.5-.9.8l-.1.2-1.3 2c.4.5.8.9 1.4 1h.2c1.2-3.3 5-2.9 6.7-11.5.6-3.2.3-6-1-8.3Z"/><path fill="#6D4C41" d="M81.1 21.4c-1.1-.2-1.8-.5-1.4-1.1.6-.9 2.2-.5 2.8-.3 1.4.5 1.8 1.5 1.9 1.9.1.4.1.9-.2.8-.2-.1-.9-.9-3.1-1.3Z"/><path fill="#404040" d="M76.8 22.4c0 1.1-.3 1.9-.8 1.9s-.5-3.9 0-3.9.8.9.8 2Z"/><path fill="#6D4C41" d="M75.5 18c.5 0 .9.2 1.1.4.6.4.8.8.8 1.1.1.3.1.8-.2.7-.2 0 .2 0-1.5-.5-.2 0-.8-1.7-.2-1.7Z"/><path fill="url(#j)" d="M86.7 74.8 75.2 63.5l-18 26.9c-1.9 2-2.2 5.1-.4 7.4 1.9 2.4 5.4 2.9 7.9.9 1.2-1 1.9-2.3 2.1-3.8l19.9-20.1Z"/><path fill="url(#k)" d="m91.5 97.2 10.4-1.4L95.7 63l-13.4 5.5Z"/><path fill="url(#l)" d="m71.6 38.2 4.5-1.3 15.6-1.4 5.5 1c2 .4 3.3 2.2 3.1 4.2l-3.6 27.7L86.4 78c-1.1 1-2.8.9-3.8-.1L72.5 67.4l-3.8-24.7c-.3-1.9.9-3.9 2.9-4.5Z"/><path fill="#CFD8DC" d="M38 49v.3c-.2 2.5 1.7 4.6 4.2 4.8l1.1.1c2.5.2 4.6-1.7 4.8-4.2v-.3c.2-2.5-1.7-4.6-4.2-4.8l-1.1-.1c-2.5-.2-4.6 1.7-4.8 4.2Z"/><path fill="#B0BEC5" d="M48 50.2v-.6c.2-2.4-1.6-4.5-4-4.6l-1.4-.1c-.8-.1-1.5.1-2.2.4.1 0 1.2-.3 2 .4.7.6 0 .8.7 1.6.5.5 1-.3 2.1.3.5.3.4.8.5 1.5 0 .5.9.3.7 1.4-.1.8-.8 2-.8 2s.4.5 1.1.2c.8-.8 1.2-1.4 1.3-2.5Z"/><path fill="#90A4AE" d="M67.2 122.3h-6.3c-.5 0-.9-.3-1-.8L55 96.3c-.8-2.3-.2-4.8 1.5-6.6l15-22.4-3.7-24.4c-.4-2.5 1.1-4.9 3.5-5.7l4.5-1.3h.2l15.6-1.4h.3l5.5 1c2.5.5 4.2 2.8 3.9 5.3l-3.5 27.4 5.2 27.3v.2l.9 23.8c0 .3-.1.5-.3.7-.2.2-.4.3-.7.3h-6.2c-.5 0-.9-.3-1-.8l-5.2-22.4-5.7-17.8c-.5 0-.9 0-1.4-.2l-15.6 16 .3 26c0 .3-.1.5-.3.7-.2.2-.4.3-.6.3Zm-5.5-2h4.4l-.3-25.4c0-.3.1-.5.3-.7l16.4-16.6c.3-.3.8-.4 1.2-.2.4.2 1 .3 1.4.1.2-.1.5-.1.8 0 .3.1.4.3.5.6l6 18.7 5 21.7h4.3l-.8-22.7-5.2-27.4v-.3l3.5-27.5c.2-1.4-.8-2.8-2.2-3.1l-5.4-1-15.4 1.4-4.4 1.2c-1.5.5-2.4 1.9-2.1 3.5l3.7 24.5c.1.3.1.7-.1.9L58.1 90.9c-.1.1-.1.1-.1.2-1.2 1.2-1.6 3-1.1 4.7v.1l4.8 24.4Z"/><path fill="url(#m)" d="m59.9 116.6-7.3 1.9c-.9.3-1.7 1-2 1.9-.4 1.2.5 2.5 1.8 2.5h14.7v-6.4c.1.1-7.2.1-7.2.1Z"/><path fill="url(#n)" d="m102.7 114.8 4 4.5c.3.3.4.7.4 1.1v.3c0 .7-.5 2.2-1.2 2.2h-9c-1.8 0-2.6-2.9-2.4-4v-.2c.2-1.3 1.2-4 1.2-4l7 .1Z"/><path fill="#37474F" d="M82.7 5.6s-7 .3-9.4 7.3c-2.1 6.4-3.4 17.7 5.2 19.4 0 0 5.6-1 8.1-11.9 2.9-12.7-3.9-14.8-3.9-14.8Z" opacity=".87"/><path fill="#CFD8DC" d="M85.9 25s-2.3 6.4-6.4 7.3c-1.3.3-3.2-.6-3.2-.6l.3 5-1.9.7 2.3.6c1.9.5 3.8 1.4 5.2 2.8 1 .9 2.3 1.4 3.7 1.3 1.7-.2 4-1 5.5-4 2.6-5.3 1.8-13 1.8-13l-7.3-.1Z"/><path fill="#B0BEC5" d="M87.3 20.6h9.2s-.4 4.1-2.1 7.3c-.8 1.6-2.5 2.4-4 2.4h-6l2.9-9.7Z"/><path fill="#B0BEC5" d="M76.4 35s3 .8 5.8.5c2.9-.3 5.6-3.6 6.9-10.4H85s-2.2 6.5-5.4 6.9c-2.6.2-3.4 0-3.4 0l.2 3Z"/><path fill="#78909C" d="M85.8 12.8c.1 3-.1 5.5-.5 7.8h11.2C98.1 9.7 94.4 7 89.6 6c-3.6-.8-7.1-.3-7.1-.3s3.1 1.7 3.3 7.1Z"/><path fill="url(#o)" d="M122 27.8c.6-.3-.3 3.7-.7 4.9-.5 1.1-.7 2.7-2.8 3.2-.049.012-.1.022-.151.031l.151-.831-4.4-.7-.11.662c-.451-.202-.805-.403-.99-.562-.7-.6-2.6-3.6-2.6-3.6s-.2-2.9-.3-3.4c-.2-1 1.1-1.1 1.7-.7.5.3 1 .8 1.1 1.4 0 .6.1 1 .3 1.2.1-.1.1-.2.2-.3.6-1.1.8-2.6.8-2.6s4.8-.2 7.8 1.3Z"/><path fill="#95A9B3" d="M122.207 26.789q.168.025.335.109.385.192.55.617.116.303.108.773-.01.573-.191 1.576-.339 1.889-.76 3.152-.017.05-.039.098-.073.162-.22.551-.874 2.317-2.684 3.028c-.431-.127-1.006-.493-1.006-.493l.2-1.1-.718-.114q.269-.008.489-.059 1.215-.29 1.848-1.968.151-.401.247-.621.367-1.115.675-2.827.109-.607.143-.99-2.437-1.084-6.141-1.043-.255 1.166-.765 2.101-.043.078-.099.147-.117.226-.272.381-.707.707-1.414 0-.568-.568-.592-1.8-.093-.336-.615-.65l-.041-.025q-.056-.037-.121-.051.1.771.256 2.997 1.707 2.679 2.271 3.163.483.414 2.013.877.119.036.233.068L114.1 34.4l-.2 1.2s-1.3-.2-1.5-.4c-.7-.6-2.6-3.6-2.6-3.6s-.462-2.715-.728-4.237q-.103-1.325 1.32-1.704 1.058-.282 1.942.295.496.301.838.664.02-.123.037-.25.111-.832.949-.867 4.872-.203 8.049 1.288Z"/><path fill="url(#p)" d="M112.4 23.6c.4-.1 1.2-.1 1.4.5.3-.7.8-1.1 1.5-1 .8.1 1.2.9 1.2.9.6-.7 1.1-.9 1.8-.7 1.2.4 1.6 1.3 1.6 1.3.6-.6 1.4-.4 1.9.1.7.6.7 1.3.4 2l-1.3 2.1c-.6.5-1.3.8-1.9.4-.3-.2-.4-.5-.5-.8-.4.3-.8.4-1.3.3-.8-.2-1.4-.6-1.2-1.4 0 0-.5.4-1.1.2-.6-.2-.8-.5-.9-1.1-.2.4-.8.6-1.2.5-.7-.1-1.1-.6-1.2-1.3l-.1-.4c-.3-.8.2-1.3.9-1.6Z"/><path fill="#95A9B3" d="M112.279 23.115q.94-.235 1.467.098.614-.752 1.625-.608.733.092 1.208.62.859-.691 1.858-.406l.021.007q1.037.345 1.576 1.033 1.021-.601 2.106.474 1.18 1.024.52 2.564-.015.034-.035.066l-1.3 2.1q-.043.069-.105.121-1.398 1.165-2.497.432-.263-.175-.459-.514-.546.212-1.162.088l-.023-.005q-.801-.2-1.208-.606-.239-.24-.339-.527-.378.06-.79-.078-.602-.2-.92-.665-.458.241-1.118.082-1.371-.209-1.595-1.694l-.088-.35q-.533-1.472 1.182-2.207.037-.015.076-.025Zm.281.961q-.812.362-.592.948.01.027.017.055l.1.4.01.05q.112.781.776.876l.05.01q.456.114.632-.239.114-.227.365-.269.246-.041.39.061.144.103.185.35.092.55.565.708.342.114.63-.116.193-.155.433-.095.243.061.334.212.091.152.03.394-.071.286.094.45.208.208.73.341.485.092.891-.212.065-.049.142-.074.474-.158.632.316.146.437.303.542.461.307 1.242-.318l1.235-1.996q.349-.852-.279-1.39l-.029-.026q-.282-.283-.614-.32-.323-.036-.578.22-.066.065-.151.103-.457.203-.66-.254-.309-.695-1.29-1.025-.651-.179-1.273.547-.066.077-.156.122-.448.224-.671-.223-.281-.561-.824-.629-.63-.09-.969.702-.089.206-.302.277-.474.158-.632-.316-.112-.335-.766-.182ZM113.271 29.005q1.115.159 1.829.695.9.675.9 2.3 0 .5-.5.5t-.5-.5q0-1.125-.5-1.5-.509-.382-1.371-.505-.495-.071-.424-.566.035-.247.177-.353.141-.106.389-.071Z"/><path fill="#8698A1" d="M67.2 124H52.4c-1 0-1.8-.4-2.4-1.2-.5-.8-.7-1.7-.4-2.6.4-1.2 1.4-2.2 2.7-2.6l7.4-1.9h7.4c.6 0 1 .4 1 1v6.4c.1.5-.4.9-.9.9Zm-7.1-6.4-7.2 1.9c-.6.2-1.1.7-1.3 1.3-.1.3 0 .6.1.8.2.2.5.4.8.4h13.7v-4.4h-6.1ZM105.8 124h-9c-.8 0-1.5-.4-2.1-1.1-1-1.1-1.4-3-1.3-4.1v-.2c.2-1.4 1.2-4.1 1.2-4.2.1-.4.5-.7.9-.7h7.1c.3 0 .6.1.8.3l4 4.5c.4.5.7 1.2.7 1.8v.3c0 1.1-.7 3.4-2.3 3.4Zm-9.5-8.2c-.3.9-.8 2.4-.9 3.2v.2c-.1.4.2 1.8.8 2.5.3.4.6.4.6.4h8.8c.2-.2.4-.9.4-1.2v-.3c0-.2-.1-.3-.2-.5l-3.7-4.2c.1-.1-5.8-.1-5.8-.1Z"/><path fill="#607C8A" d="M85.1 6.5c1.6 0 3 .2 4.3.4 3.7.8 7.4 2.6 6.2 12.7H86c.3-2.5.6-6.2-.1-8.9-.5-2-1.1-3.3-1.6-4.2h.8m0-1c-1.5 0-2.6.1-2.6.1S84 6.8 85 11c.7 2.6.4 6.4-.1 9.6h11.6C98.1 9.7 94.4 7 89.7 6c-1.7-.4-3.3-.5-4.6-.5Z"/><path fill="#CFD8DC" d="M82.4 5.7s1.1-.2 1.9-.2c0 0 1.7.5 2.7 3 1 2.6 1.5 6 .3 12.1-1.2 6.2-2.9 9-5.1 11-2.2 2-5.9 1.4-5.9 1.4l-.7-1.8s2.2.3 3.7-.5c1.6-.8 4.8-5.3 5.6-10.3.6-3.2.7-7.1 0-10.2-.7-3.1-2.5-4.5-2.5-4.5Z"/><path fill="#90A4AE" d="M85.5 43c-1.4 0-2.8-.5-3.9-1.5-1.4-1.2-3-2.1-4.8-2.5l-2.3-.6c-.4-.1-.7-.5-.7-.9s.3-.8.7-1l1.2-.4v-.7c0-.1 0-.2-.1-.3l-.1-1.9-.5-1.3c-5.3-3.7-4.7-12.6-2.5-19.2 2.5-7.6 10.2-8 10.3-8h.1c.5-.1 1.1-.1 1.6-.1h.2c1.3 0 3.3 0 5.3.5 4.7 1.1 9.3 3.7 7.7 15.6v.1c0 .2-.4 4.3-2.2 7.7-.3.5-.7 1-1.1 1.5l-.1.1c-.2 3.4-.8 6.3-1.9 8.5-1.7 3.4-4.3 4.3-6.3 4.5-.3-.1-.5-.1-.6-.1Zm-8-5.9c2 .5 3.8 1.5 5.3 2.9.8.8 1.9 1.1 2.9 1 2.1-.2 3.7-1.3 4.7-3.4 1-2 1.6-4.8 1.8-8 0-.2.1-.4.2-.5l.1-.2.2-.2.2-.2c.3-.3.6-.6.8-1 1.4-2.7 1.8-6.1 1.9-6.8v-.2C97.2 9.7 93.3 7.9 89.5 7c-1.9-.4-3.7-.5-4.9-.4h-.2c-.5 0-1.1.1-1.4.1h-.2c-.9.1-6.4.7-8.3 6.6-1.6 4.9-3 13.9 1.9 17.1.2.1.3.3.4.6l.7 1.6c0 .1.1.2.1.3l.1 1.8c0 .1 0 .2.1.2l.1 1.7c-.3.2-.3.3-.4.5Z"/><path fill="#95A9B3" d="M43.7 54.3h-.4l-1.2-.1c-3-.2-5.3-2.9-5.1-5.9v-.4c.1-1.5.8-2.8 1.9-3.8 1.1-1 2.5-1.4 4-1.3l1.2.1c3 .2 5.3 2.9 5.1 5.9v.4c-.1 1.5-.8 2.8-1.9 3.8-1 .8-2.3 1.3-3.6 1.3ZM39.1 48v.4c-.1 1.9 1.3 3.6 3.2 3.7l1.2.1c1.9.1 3.6-1.3 3.7-3.2v-.4c.1-1.9-1.3-3.6-3.2-3.7l-1.2-.1c-.9-.1-1.8.2-2.5.8-.7.7-1.2 1.5-1.2 2.4Z"/><path fill="#FFB300" d="M46.3 48.4c.2-.9.8-1.1 1.4-.9l3.5.4c.7.2 1.2 1 1 1.9-.2.9-.9 1.4-1.6 1.2l-3.4-1c-.5-.1-1.1-.7-.9-1.6Z"/><path fill="#E69200" d="M46.012 48.484q.112-.681.628-1.116.558-.47 1.228-.363l3.53.403.039.011q1.791.512 1.351 2.489-.189.853-.803 1.307-.651.48-1.408.27l-3.566-.815-.068-.041q-1.351-.81-.931-2.145Zm.983.187-.021.087q-.191.574.42.973l3.43.785.013.003q.293.084.553-.109.314-.231.422-.718.23-1.036-.613-1.3l-3.469-.397-.012-.002q-.224-.037-.433.139-.242.204-.29.539Z"/></svg>