<svg xmlns="http://www.w3.org/2000/svg" viewBox="0 0 128 128"><path fill="#C9C9C9" d="M52.95 5.41s-2.58-.3-5.47 1.89c-3.66 2.78-3.28 4.08-3.28 4.08s-7.46.99-15.81 7.46c-8.35 6.47-13.91 18.38-16.89 24.24C8.52 48.94 4.44 57 3.94 59.19c-.5 2.19-.4 3.68.3 7.46s4.08 15.61 4.87 18.99c.8 3.38 2.98 8.85 3.18 10.24.2 1.39 4.39 1.86 9.24.8 4.08-.89 7.95-3.38 8.35-4.77.4-1.39-2.88-11.03-4.47-15.31-1.59-4.27-2.58-8.95-2.58-8.95s2.29-3.78 4.27-7.46c1.98-3.68 6.16-10.34 6.16-10.34s.3 3.98.3 8.35c0 4.37-1.39 9.94-.3 12.82 1.09 2.88 3.08 7.55 3.08 7.55s-2.19 9.44-4.87 17.89c-2.68 8.45-4.37 13.32-4.37 13.32s1.19.99 2.68 1.69c1.49.7 2.78 1.09 2.78 1.09l-.6 3.18s10.64 7.06 32.6 7.55c21.97.5 37.97-6.76 38.57-8.45.6-1.69-6.66-26.44-7.16-28.33l-2.68-10.14s3.08-2.58 3.38-8.75c.3-6.17-.5-17.69.3-17.89.8-.2 8.25 16.8 8.25 16.8s-.6 8.25-2.39 14.51-2.78 9.84-2.19 10.93c.6 1.09 3.28 3.38 8.95 4.47 5.67 1.09 9.84.89 10.34-.8s2.98-16.1 3.68-25.65c.7-9.55-.8-14.51-2.29-18.49-1.49-3.98-6.76-12.23-8.55-17.2-1.79-4.97-5.07-13.52-7.55-14.91-2.48-1.39-8.25-4.37-12.92-5.77-4.67-1.39-8.85-2.68-8.85-2.68s-.82-2.56-5.05-4.44c-2.68-1.19-4.37-.7-4.37-.7l-9.94 1.99-11.14-2.38Z"/><path fill="#FEFEFE" d="M27.33 23.87s-5.6 4.67-10.58 14.31-6.01 14.93-7.78 17.11c-1.77 2.18-3.42 4.77-2.18 10.99 1.24 6.22 7.05 27.69 7.05 27.69s4.98-.83 7.57-1.66 5.7-1.97 5.5-2.9c-.21-.93-6.22-21.88-6.22-21.88s-6.84-3.53-6.22-4.25c.62-.73 7.05.1 7.05.1s4.87-7.98 6.33-10.58c1.45-2.59 2.8-4.25 2.7-5.5-.1-1.24-3.01-9.33-2.18-10.16.83-.83 6.12 6.64 7.36 8.09 1.24 1.45 1.56 2.18 1.56 2.18s-1.76 18.87-.62 20.43c1.14 1.56 2.8 1.45 2.8 1.45s7.36-10.27 11.41-17.11 6.33-11.61 6.33-11.61-6.53-9.5-9.97-16.57c-2.87-5.91-3.64-10.39-3.64-10.39s-3.84 1.35-6.74 3.11c-2.9 1.76-5.29 3.53-5.29 3.53s4.67 11.82 3.21 13.17c-1.44 1.34-7.45-9.55-7.45-9.55ZM58.94 38.99s2.87-4.97 2.66-5.67c-.21-.7-6.53-8.03-9.04-13.24-4.48-9.32-2.52-12.33-2.52-12.33s-1.33.35-2.73 2.03c-1.4 1.68-1.96 3.29-1.96 3.29s.98 5.11 3.71 10.72c4.06 8.32 9.88 15.2 9.88 15.2Z"/><path fill="#FEFEFE" d="M73.65 8.03s1.61-.56 2.38-.63c.77-.07 2.72 1 3.92 2.03 1.21 1.04 2.31 2.94 2.31 2.94s-2.53 8.72-9.87 22.49c-7.35 13.77-14.34 25.96-17.76 31.38-3.42 5.42-6.42 9.27-6.42 9.27s-1.78.71-2.43-1.21c-.64-1.93-1.28-5.56-1.28-5.56l11.13-16.69 8.63-16.4 7.77-16.76 1.62-10.86ZM84.26 13.55c.64-.14 3.9.7 8.32 2.41 4.42 1.71 8.49 3.71 8.63 4.71.14 1-4.07 13.27-2.71 13.84 1.36.57 6.35-9.84 7.13-9.84.78 0 2.92 3.57 3.99 6.56 1.07 2.99 1.5 5.71 2.5 7.63s8.7 12.55 8.84 25.25c.14 12.7-2.85 27.32-3.21 28.17-.36.86-4.07 1.36-7.28.57-3.21-.78-7.63-2-7.28-3.42.36-1.43 2.07-6.85 2.92-10.06.86-3.21 1.14-6.92 1.5-7.49.36-.57 7.42-3.35 7.28-4.42-.14-1.07-5.71-.86-6.7-2.14-1-1.28-8.84-17.9-8.92-19.04-.07-1.14 3.71-6.85 2.57-7.63-1.14-.78-10.06 10.27-10.2 10.98-.14.71 1.57 4.49 1.64 10.27.07 5.78 1 9.7-3 11.91-3.99 2.21-11.34 3-16.33 1.78-4.99-1.22-6.42-3.28-6.42-3.28s-3.42 1.85-8.06 3.21c-4.64 1.36-8.16 1.65-8.16 1.65S63.21 58.12 72.4 39.7c9.38-18.77 11.86-26.15 11.86-26.15ZM41.87 90.37c-1.75.29-2.16 5.52-3.08 9.86-.85 4.02-3.22 12.73-3.22 12.73s2.76 1.29 8.62 2.67l5.86 1.38 5.69-23.36s-3.95-.95-7.67-1.98c-2.84-.78-4.64-1.56-6.2-1.3ZM64.82 96.63c-.81-.05-3.21 5.7-4.49 11.33-1.28 5.63-2.14 10.4-2.14 10.4s2.92.64 5.77.78c2.85.14 5.81-.4 5.81-.4s-.33-7.31-.94-11.3c-.64-4.25-2.73-10.74-4.01-10.81ZM75.51 92.85s3.56-.21 8.34-1.21c4.77-1 6.84-2.56 8.05-1.64 1.21.93 2.78 8.19 3.99 13.04 1.21 4.84 2.64 9.69 1.92 10.4-.71.71-8.69 2.49-10.76 3.13-2.07.64-7.62-8.12-7.69-8.69-.08-.57-3.85-15.03-3.85-15.03Z"/><path fill="#9A9A9A" d="M37.44 83.67c0 .23-2.95 11.02-3.86 14.48-.91 3.46-3.79 13.32-3.79 13.32s1 .42 1.52.59c.52.17 1.27.5 1.27.5s3.67-14.36 4.47-17.48c.8-3.12 1.87-7.5 2.33-8.86.46-1.36.79-2.44.79-2.44l-2.73-.11ZM38.63 77.2s.23-1.87.57-2.56c.34-.69 12.43-18 17.25-26.86C61.69 38.15 64 32.52 64 32.52s-5.32-6.16-8.24-11.02c-2.92-4.86-4.08-9.79-3.85-11.87.23-2.08 1.93-4.08 1.93-4.08S57 4.39 64.24 4.16c7.4-.23 11.33 1.77 11.33 1.77s2.23 3.99-1.46 12.87c-5.01 12.02-9.25 20.42-14.56 29.74-5.31 9.32-17.52 29.68-17.52 29.68l-3.4-1.02ZM13.73 94.14c.31 1.16 2.41 1.81 7.34.42 4.93-1.39 6.63-3.47 6.32-4.47-.31-1-1.93-.62-7.17 1-5.23 1.62-6.79 1.91-6.49 3.05ZM102.75 90.32c0 1.41 2.7 3.54 7.01 4.47 4.31.93 7.78.08 8.01-1.31.23-1.39-3.08-1.62-7.01-2.47-3.92-.85-8.01-2.23-8.01-.69Z"/><path fill="#434343" d="M33.71 75.24c-1.36.52-.71 2.73-.81 4.65-.1 1.92 0 3.14.71 4.05.71.91 10.32 5.56 31.05 5.36 20.73-.2 30.59-4.17 31.14-4.84.77-.93.76-3.27.78-5.24.04-2.66-.32-4.99-1.71-4.55-.92.29-9.27 3.51-18.18 4.42-8.9.91-21.48.46-27.71-.4-10.92-1.53-13.95-3.96-15.27-3.45Z"/><path fill="#434343" d="M68.24 79.54s-1.19-1.6-3.2-1.56c-1.68.03-2.99 1.62-2.99 1.62s-8.45 8.42-12.02 17.05c-2.7 6.53-5.08 13.9-7.17 18.26-2.08 4.36-4.21 7.21-3.41 8.7.79 1.49 9.82 3.17 11.41 2.08 1.59-1.09 4.06-13.06 5.8-19.18 2.19-7.69 4.58-12.12 6.25-14.52.36-.52 1.09.06 2.22.36.38.1 1.64-.69 1.82-.41 1.23 1.9 2.95 5.07 4.83 10.14 3.86 10.44 4.86 23.01 5.65 23.6.79.6 3.76.82 6.53.39 2.56-.39 5.57-1.29 6.06-2.28.49-.99-4.36-13.98-9.62-24.89C75.15 88 68.24 79.54 68.24 79.54Z"/><path fill="#606568" d="m59.29 79.46 2.83.05s-3.93 4.56-3.69 5.83c.24 1.27 5.15 5.74 6.77 5.54 1.62-.2 6.08-4.87 5.98-5.8-.1-.93-2.92-5.55-2.92-5.55l2.83-.08s3.22 4.16 3.07 6.12c-.15 1.96-6.12 7.76-8.96 7.86-2.85.1-9.24-5.15-9.42-8.1-.14-2.44 3.65-6.02 3.51-5.87Z"/></svg>