<svg xmlns="http://www.w3.org/2000/svg" viewBox="0 0 128 128"><path fill="#B6D401" d="m77.01 40.42-57.03 62.12s17.97 21.81 47.09 20.48c20.04-.91 32.16-9.18 42-20.48 12.02-13.81 14.73-34.07 14.03-43.36-.91-12.02-9.11-27.69-15.49-32.43-6.38-4.74-30.6 13.67-30.6 13.67Z"/><path fill="#D5F100" d="M25.09 20.93C6.13 37.8-6.78 76.98 19.69 102.24c13.16 12.56 60.55 16 82.97-14.35 10.05-13.6 17.45-34.95 11.88-51.66-2.19-6.56-8.07-11.27-13.3-15.67C76.1-.57 48.23.34 25.09 20.93Z"/><path fill="#738613" d="m69.67 124.09-3.89-.32c.08-.37 8.18-36.77-15.5-60.63-10.52-10.6-20.21-15.5-28.81-14.55-8.96.98-14.92 9.28-14.96 9.36l-1.84-3.73c.23-.36 5.51-8.41 16.37-9.6 9.88-1.07 20.67 4.21 32.09 15.71 25.24 25.45 16.9 62.18 16.54 63.76ZM122 60.81c-.27-.18-26.56-18.79-40.13-30.37C69.67 20.04 53.5 5.51 53.35 5.36l2.81-1.76c.15.14 15.72 13.95 27.88 24.32 13.45 11.47 38.66 29.54 38.93 29.72l-.97 3.17Z"/><path fill="#DA0A23" d="M68.35 16.25c-.5.53-1.79 4.39-2.29 6.54-.29 1.23-.11 3.14 1.43 3.39 1.72.29 2.37-.7 2.9-2.17.53-1.47 1.47-4.13 1.47-4.13s2.74-.91 4.09-1.31c1.8-.53 2.33-1.27 2.37-2.21.04-.94-.94-2.7-3.97-2-1.87.44-5.27 1.11-6 1.89ZM59.51 8.79c-.43.35-2.49 5.36-2.82 5.99-.34.63-.55 2.24.63 2.92 1.18.68 2.47-.49 2.92-1.49.44-1 1.73-3.97 1.73-3.97s3.15-.17 4.28-.33c1.38-.19 2.43-.57 2.35-2.16-.08-1.59-2.65-1.47-5.3-1.3-1.67.1-3.5.1-3.79.34ZM53.34 3.01c-.72.33-3.52 3.19-3.89 3.68-.37.49-.65 1.55.29 2.29s2.25.12 2.94-.37c.7-.49 2-2.09 2-2.09s2.7.04 3.48.08c.78.04 1.8-.57 1.8-1.8s-1.43-1.72-2.62-1.76c-1.18-.03-3.55-.24-4-.03ZM79.9 26.02c-.66.52-2.28 6.33-2.62 7.5-.34 1.17-.89 3.67.84 4.21 1.82.57 3.04-.24 3.58-2.3.5-1.9 1.64-5.87 1.64-5.87s4.37-1.61 5.33-1.98c.96-.37 2.07-1.59 1.4-3.09-.67-1.5-2.58-1.31-3.52-.97.01 0-6.01 1.99-6.65 2.5ZM90.94 35.34c-.46.6-2 5.97-2.25 7.08-.25 1.1-.24 2.86 1.51 3.31 1.43.37 2.58-.37 2.9-1.72.54-2.24 1.72-5.48 1.72-5.48s3.11-1.76 4.29-2.37c1.19-.61 1.72-2.29.98-3.48s-2.41-1.02-4.05-.45c-1.63.58-4.69 2.58-5.1 3.11ZM102.48 44.25c-.58.87-.74 6.01-.74 6.79 0 .78.57 2.82 2.41 2.82 1.64 0 2.33-1.76 2.33-2.66 0-.9.2-4.38.2-4.38s2.11-1.12 2.86-1.64c1.02-.7 2.17-2 1.43-3.39-.74-1.39-2.7-.98-3.97-.45-.89.39-4.11 2.3-4.52 2.91ZM112.37 52.09c-.36.87-.38 5.72-.3 7.03.08 1.31 1.19 2.45 2.62 2.41 1.43-.04 2.09-1.39 2.04-2.45-.05-1.06.08-4.54.08-4.54s1.9-1.32 2.41-1.68c.78-.53.94-1.8.25-2.78-.7-.98-2.13-1.27-3.48-.49s-3.48 2.15-3.62 2.5ZM119.96 57.52c-.65 1.12-.04 6.22-.04 6.71 0 .49.16 2.17 1.84 2.17 1.47 0 1.96-.9 2-1.72.04-.82-.08-5.44-.08-5.44s1.43-.45.82-2.33c-.61-1.87-3.86-.55-4.54.61ZM62.64 121.41c-.56.99-.44 2.29 1.67 3.35 2.12 1.06 2.55 1.12 3 1.15.79.04 2.6-.57 3.79-1.23.95-.53 2.12-1.32 1.28-2.86-.78-1.44-5.02.26-5.02.26s-3.75-2.38-4.72-.67ZM62.37 112.38c-1.17 1.08-.4 2.69 1.98 4.23 2.12 1.37 3.31 2.38 4.23 2.38.92 0 4.39-1.75 5.29-2.25 1.37-.75 1.81-2.25.75-3.31s-2.56.04-3.31.44-2.47 1.23-2.47 1.23-2.25-1.63-3-2.16c-.75-.53-2.32-1.62-3.47-.56ZM61.23 101.3c-.96 1.44-.4 2.95 1.89 4.23 2.29 1.28 5.16 2.42 6.08 2.56.92.14 4.54-3 5.24-3.66.7-.66 2.64-2.73 1.41-4.14-1.47-1.68-3.04-.4-4.45.57-1.08.74-2.34 1.67-2.34 1.67s-2.42-.66-3.83-1.32c-1.4-.66-3.12-1.23-4 .09ZM66.94 89.55s2.51-2.6 3.44-3.48c.93-.88 2.51-1.76 3.7-.35 1.19 1.41-.04 3.53-1.15 4.54-1.11 1.01-3.92 4.32-4.72 4.45-.8.13-6.65-.93-8.33-1.81-.99-.52-2.56-1.5-1.67-3.48.73-1.64 2.38-1.45 3.61-1.19s5.12 1.32 5.12 1.32ZM60.96 75.41s2.12-4.32 2.82-5.86c.71-1.54 1.59-2.95 3.57-2.25 1.98.7 1.38 2.57.71 4.36-.79 2.12-3 7.71-3.97 8.2-1.18.59-7.4.79-9.56.75-.97-.02-2.07-.71-2.03-2.03.04-1.32.86-2.24 3-2.6 1.32-.22 5.46-.57 5.46-.57ZM51.18 61.13c-.22.13-4.77 1.96-5.91 2.29-1.67.48-2.25 2.16-1.89 3.35.36 1.19 1.98 1.81 3.88 1.23 1.89-.57 7.62-2.03 8.15-2.86.53-.83 1.41-6.74 1.59-8.28.18-1.54.22-3.48-1.81-3.79-2.03-.31-2.86 1.06-3.04 2.51-.11.89-.97 5.55-.97 5.55ZM38.92 51.24s.35-4.01.48-5.2c.13-1.19.57-2.78 2.64-2.64 2.07.14 1.85 2.82 1.85 4.54 0 1.72-.4 6.21-.66 6.43-.26.22-3.04 2.38-4.49 3.35-1.45.97-3.79 1.62-4.67.3-.88-1.32.4-3.38 1.81-4.44 1.41-1.06 3.04-2.34 3.04-2.34ZM26.25 37.75c-2.04.51-1.94 2.64-1.32 4.8.62 2.16.97 3.92.97 3.92s-1.45 2.25-2.07 3.04c-.62.79-2.56 3.13-.53 4.8 2.03 1.67 4.01-1.28 4.76-2.16.73-.85 3.13-4.05 3.13-4.49 0-1.28-1.32-5.99-1.63-7.01-.31-1.02-1.02-3.47-3.31-2.9ZM11.61 41.12c-.91.62-1.37 2.51-.22 4.14.94 1.34 1.63 2.73 1.63 2.73s-1.23 3.57-1.72 4.72-1.06 3.66.97 4.45c2.03.79 3.44-1.41 3.97-3.04.53-1.63 1.94-5.29 1.98-6.39.03-.73-1.89-4.32-2.73-5.55-.84-1.23-2.51-1.98-3.88-1.06ZM8.26 53.68c.23 1.05-.35 4.01-.93 6.52-.17.74-.42 2.4-2.51 1.89-1.81-.44-1.06-2.73-.84-3.88.13-.68.66-2.86.66-2.86s-.96-.52-.93-1.63c.04-1.45.79-1.94 1.98-2.03 1.19-.09 2.39 1.2 2.57 1.99Z"/></svg>