<svg xmlns="http://www.w3.org/2000/svg" viewBox="0 0 128 128"><path fill="#F2A05B" d="M63.43 4.51c31.68-.07 51.67 51.46 43.78 84.12-6.98 28.92-27.03 34.91-43.08 34.91-16.05 0-35.54-7.78-43.08-33.79C12.33 59.63 33.87 4.58 63.43 4.51Z"/><path fill="#FECC88" d="M39.26 29.03c-3.8 6.07-7.63 13.71-8.45 20.08-1.5 11.73 7.13 13.05 10.14 7.23 3.01-5.82 6.09-11.71 10.98-19.52 6.76-10.79 17.83-18.02 12.39-22.71-5.44-4.69-17.08 2.16-25.06 14.92Z"/><path fill="#D47858" d="M93.42 43.58a2.02 2.06 0 1 1-4.04 0 2.02 2.06 0 1 1 4.04 0ZM92.488 92.032a2.184 2.184 0 0 1 1.183 2.854 2.184 2.184 0 0 1-2.849 1.196 2.185 2.185 0 0 1-1.183-2.854 2.185 2.185 0 0 1 2.849-1.196ZM33.683 100.99a2.04 2.04 0 1 1-1.552 3.773 2.04 2.04 0 0 1 1.552-3.773ZM100.38 61.155c.686 1.324.022 3.029-1.484 3.809-1.505.781-3.282.34-3.968-.984-.686-1.324-.022-3.03 1.484-3.81 1.505-.78 3.282-.339 3.968.985ZM71.25 87.997c.686 1.324.022 3.03-1.484 3.81-1.505.78-3.282.339-3.968-.985-.686-1.324-.022-3.03 1.484-3.81 1.505-.78 3.282-.339 3.968.985ZM66.807 101.799c1.166.93 1.209 2.814.097 4.209-1.113 1.394-2.959 1.771-4.125.842-1.166-.93-1.209-2.815-.097-4.209 1.112-1.395 2.959-1.772 4.125-.842ZM54.769 104.339c1.428 1.27 1.52 3.497.206 4.974-1.313 1.478-3.536 1.646-4.964.377-1.428-1.27-1.521-3.497-.207-4.975 1.314-1.478 3.537-1.646 4.965-.376Z"/></svg>