<svg xmlns="http://www.w3.org/2000/svg" viewBox="0 0 128 128"><path fill="#6BB8FE" d="M5.01 52.21c-1.14 2.55-2.24 27.27 12.35 44.04 10.89 12.51 25.62 17.63 45.02 18.36 19.4.73 38.13-5.78 47.13-16.09 16.25-18.63 14.55-41.06 13.7-44.4-2.15-8.46-19.07-14.44-58.56-14.44-36.72.02-56.72 6-59.64 12.53Z"/><path fill="#1D89FE" d="M93.71 49.99c.41-.1 8.04.74 8.19.64.15-.1 3.37-7.58 3.37-7.58s-2.87-.6-4.25-.86c-1.38-.24-7.31 7.8-7.31 7.8Z"/><path fill="#E0EBF6" d="M33.39 100.91c-1.57 1.89-10.9-3.51-17.11-16.13-5.44-11.05-5.3-17.05-4.28-18 1.34-1.25 5.26-.09 6.15 2.76 1.2 3.84 1.16 8.29 5.35 16.49 6.37 12.47 11.23 13.27 9.89 14.88Z"/><path fill="#1D89FE" d="M12.27 54.07c.56 6.06 20.79 9.72 52.79 10.26 32 .54 52.25-3.92 52.25-9.59s-21.2-9.72-50.9-9.99c-29.7-.27-54.68 3.52-54.14 9.32Z"/><path fill="#025ABC" d="m96.29 62.95 6.93-15.18-8.85-1.32-11.22 1.73-7.41 16.08s7.41-.11 11.82-.44c4.41-.34 8.73-.87 8.73-.87Z"/><path fill="#9D9C9C" d="M82.64 64.11S98 47.63 106.71 38.61s16.4-15.86 16.55-18.52c.19-3.42-6.34-4.91-6.34-4.91L75.74 60.97l-1.09 3.27s2.96.08 4.43 0c1.49-.08 3.56-.13 3.56-.13Z"/><path fill="#E0E0E0" d="M116.78 15.12s4.79 1.05 4.58 2.87c-.27 2.36-2.18 4.35-4.52 6.76-2.34 2.41-37.76 39.48-37.76 39.48l-3.37.1-.4-1.72 41.47-47.49Z"/><path fill="#C8C8C8" d="M68.18 64.36S80.91 48.5 92.04 35.27c11.13-13.23 16.53-20.44 18.09-20.91 1.56-.47 9.33.99 9.61 1.98.4 1.38-.12 2.77-4.17 6.97-4.05 4.2-39.07 41-39.07 41s-1.81.06-3.58.07c-1.77.01-4.74-.02-4.74-.02Z"/><path fill="#FFF" d="M110.57 16.88c-2.3.83-9.94 9.08-7.93 9.94 1.62.7 6.58-4.72 9.22-6.22 2.64-1.5 4.22-.79 4.5-2 .29-1.22-3.43-2.58-5.79-1.72Z"/></svg>