<svg xmlns="http://www.w3.org/2000/svg" viewBox="0 0 128 128"><path fill="#D46F1E" d="M120.83 78.78c-1 2.11-14.62 13.81-23.13 21.15-8.51 7.34-18.19 13.79-18.19 13.79l-7.48-.44 1.32-62.35 46.21 15.11s1.38.93 1.53 3.13c.14 2.2.58 7.84-.26 9.61Z"/><path fill="#E48216" d="M12.16 81.74c-.88.15-2.49.29-3.08 3.52-.59 3.23.01 9.75 2.36 12.1 5.01 5.01 11.84 6.58 17.15 7.12 4.7.48 7.38.02 8.69.77 2.28 1.32 2.33 3.97 8.26 7.42 4.48 2.61 12.28 5.06 17.7 5.06 9.02 0 16.25-4.01 16.25-4.01l-.15-12.47-5.28-28.61-61.9 9.1Z"/><path fill="#FADFB1" d="M18.18 92.45c9.89 3.77 22.15 2.35 22.15 2.35s2.79 6.16 12.62 9.39c9.83 3.23 21.86 1.61 29.64-3.81 7.78-5.42 21.13-17.9 25.67-21.71 4.54-3.81 10.86-9.54 11-11 .14-1.46-25.38-21.43-25.38-21.43S13.57 82.82 11.83 83.95c-1.3.86.19 6.15 6.35 8.5Z"/><path fill="#EC8B7A" d="M14.8 74.7s-5.13.29-5.13 3.81 1.91 6.46 6.75 8.66 15.26 4.99 23.47 6.9c8.32 1.93 20.98 9.1 28.46 9.83 7.3.72 13.06-5.58 16.43-8.66 3.37-3.08 20.1-15.99 23.91-19.81 3.81-3.81 11.88-12.47 11.88-12.47l-55.16-20.1L14.8 74.7Z"/><path fill="#D45E51" d="M19.02 80.03s-2.02-.09-3.31-.37-3.59-1.2-3.31-.18c.28 1.02 2.44 3.16 6.62 5.06 4.51 2.04 10.35 2.43 10.27 2.24 0 0 2.96 2.35 6.28 3.41 4.05 1.29 8.28 2.5 11.49 2.78 3.05.27 3.6-.34 2.5-1.45-1.1-1.11-4.05-2.94-4.05-2.94l-15.64-9.29-10.85.74ZM53.52 93.64c-.12 1.04 4.69 3.59 8.19 5.06 3.5 1.47 9.64 3.39 9.29-1.01-.24-3.01-4.02-3.34-8.28-3.77-4.48-.45-9.1-1.13-9.2-.28Z"/><path fill="#B7D019" d="M12.67 57.58s-4.88 9.2-6.53 8.83c-1.65-.37-2.39-1.47-3.13-.55-.74.92-.83 7.91 3.04 9.02 3.87 1.11 4.39-.24 6.69.77 2.3 1.01 5.25 2.69 5.25 2.69s-1.8 1.56-1.53 2.02c.27.46 3.2 1.9 4.58 3.19s1.64 2.71 7.9 3.72c6.26 1.01 7.75.94 10.05.67 2.3-.27 3.22-1.38 3.22-1.38s3.31 4.42 6.62 4.6c3.31.18 4.23-.92 5.34-.92 1.11 0-.55 1.1 2.94 1.1s7.49.32 12.13 1.58c3.27.89 6.36 4.21 8.48 4.95 2.12.74 5.24.09 6.16-.92.92-1.01.9-3.44 2.64-5.27 1.74-1.83 6.28-4.16 7.84-5.82 1.56-1.66 2.58-6.85 2.58-6.85s2.12 1.66 3.96 1.29c1.84-.37 3.96-3.59 5.61-3.86 1.65-.27 3.31-.74 4.88-2.3 1.57-1.56.92-5.7 1.93-6.44 1.01-.74 4.88 1.56 6.9 1.01 2.02-.55 3.96-3.5 3.5-5.43-.46-1.93-.92-2.21-.92-3.31s1.2-2.94-.28-4.78c-1.48-1.84-26.69-11.87-26.69-11.87L12.67 57.58Z"/><path fill="#96A819" d="M21.04 72.85s-1.2 2.67-.74 3.22c.46.55 7.27 6.16 8.92 6.35 1.65.19 13.62-.28 13.62-.28l-5.15-9.29H21.04ZM64.28 74.51s-5.24 11.5-4.6 12.51c.64 1.01 5.8 1.2 10.21 2.39 4.41 1.19 5.7 1.84 7.18 1.75 1.48-.09 7.54-3.5 7.64-4.6.1-1.1-4.69-6.62-4.69-6.62l-15.74-5.43ZM94.73 71.01l-1.84 4.78s8.56.55 12.42-1.29c3.86-1.84 6.66-8.51 7.86-10.53 1.66-2.78 4-5.18 3.81-6.19-.19-1.01-6.06-4.9-6.06-4.9L94.73 71.01Z"/><path fill="#DC0D2A" d="M95.47 72.02s-9.29 2.39-9.48 2.94c-.19.55-8.65 9.84-8.65 9.84s6.26 3.04 13.25-.92c6.99-3.94 4.88-11.86 4.88-11.86ZM118.19 44.61s5.06 1.38 4.23 7.64c-.97 7.32-13.34 6.99-13.34 6.99s-3.31-8.83-2.76-9.29c.55-.46 11.87-5.34 11.87-5.34ZM44.78 72.76l-7.45 3.86s1.2 7.82 13.62 9.94c12.42 2.12 19.32-8.65 19.32-8.65l-25.49-5.15ZM22.42 64.76l-8.19.37s-.3 5.31 3.96 8.37c5.31 3.81 13.06 2.02 13.06 2.02l-8.83-10.76Z"/><path fill="#FEDF64" d="m37.6 63.1-15.64 3.96S29.87 77.55 33 77.82c3.13.27 18.58-2.94 18.58-2.94L37.6 63.1ZM61.15 78.92s9.67 7.81 14.08 7.45c3.4-.28 7.7-6.24 13.32-9.28 5.62-3.04 14.11-5.27 15.57-6.36 2.89-2.16 6.9-13.98 8.83-16.74 1.93-2.76 6.72-9.11 6.81-10.12.09-1.01-.83-4.23-.83-4.23L82.4 68.62l-21.25 10.3Z"/><path fill="#D46F1E" d="M68.97 77.45c.46-.09 9.38.92 9.38.92s7.21-5.58 18.25-14.69 21.33-18.95 23.63-22.95c.66-1.14.95-8.16.98-9.92.06-3.06-1.64-3.63-1.64-3.63l-49.6 35.55-1 14.72Z"/><path fill="#E38211" d="M78.45 64.66c0 .92.61 13.12-.09 13.71-1.66 1.38-16.19 5.43-28.52-.18-11.85-5.39-13.9-10.21-13.9-10.21s-15.02 1.71-23.92-3.31c-5.7-3.22-5.98-9.48-5.89-12.7.09-3.22.46-6.26 1.75-7.64s18.13-15.45 21.72-18.3c3.59-2.85 19.59-14.63 22.08-15.09 2.49-.46 23.83 3.68 31 5.34 7.17 1.66 28.06 7.08 31.65 8.46 3.59 1.38 5.8 2.21 5.89 3.22.09 1.01-1.01 2.58-2.3 3.68-1.29 1.1-28.98-.37-29.71 4.69-.73 5.06-9.76 28.33-9.76 28.33Z"/><path fill="#FADFB1" d="M52.14 13.28c-2.79.49-18.52 12.89-22.96 16.46-4.44 3.57-15.92 12.89-17.87 14.62-1.95 1.73-4.12 8.12 5.41 11.8 9.53 3.68 22.85 1.95 22.85 1.95s4.77 9.31 16.14 10.51c11.37 1.2 19.17.76 24.15-3.25 4.98-4.01 21.55-18.09 25.34-21.55 3.79-3.47 13.51-12.12 13.32-13.32-.54-3.47-27.18-9.31-38.55-11.91-10.25-2.35-25.34-5.74-27.83-5.31Z"/></svg>