<svg xmlns="http://www.w3.org/2000/svg" viewBox="0 0 128 128"><defs><radialGradient id="a" cx="63.6" cy="62.9" r="56.96" gradientUnits="userSpaceOnUse"><stop offset=".5" stop-color="#FDE030"/><stop offset=".92" stop-color="#F7C02B"/><stop offset="1" stop-color="#F4A223"/></radialGradient></defs><path fill="url(#a)" d="M63.6 118.8c-27.9 0-58-17.5-58-55.9S35.7 7 63.6 7c15.5 0 29.8 5.1 40.4 14.4 11.5 10.2 17.6 24.6 17.6 41.5s-6.1 31.2-17.6 41.4c-10.6 9.3-25 14.5-40.4 14.5Z"/><path fill="#EB8F00" d="M111.49 29.67c5.33 8.6 8.11 18.84 8.11 30.23 0 16.9-6.1 31.2-17.6 41.4-10.6 9.3-25 14.5-40.4 14.5-18.06 0-37-7.35-48.18-22.94 10.76 17.66 31 25.94 50.18 25.94 15.4 0 29.8-5.2 40.4-14.5 11.5-10.2 17.6-24.5 17.6-41.4 0-12.74-3.47-24.06-10.11-33.23Z"/><path fill="#422B0D" d="M71 101c-.57 0-1.14-.12-1.66-.36a14.397 14.397 0 0 0-11.56-.06c-1.97.99-4.38.19-5.37-1.78a4.006 4.006 0 0 1 1.78-5.37 22.566 22.566 0 0 1 18.47-.07 4 4 0 0 1 1.98 5.3A3.99 3.99 0 0 1 71 101Z"/><path fill="#FFF" d="M43 47.7c9.58.03 17.33 7.82 17.3 17.4-.03 9.58-7.82 17.33-17.4 17.3-9.58-.03-17.33-7.82-17.3-17.4.06-9.57 7.83-17.29 17.4-17.3"/><path fill="#422B0D" d="M58.1 62.8a15.4 15.4 0 1 1-30.8 0 15.4 15.4 0 1 1 30.8 0Z"/><path fill="#FFF" d="M50.116 66.949c.852 1.016.651 2.587-.449 3.51-1.099.923-2.682.849-3.534-.167-.852-1.015-.651-2.586.449-3.509 1.099-.923 2.682-.849 3.534.166ZM45.913 52.638c2.407 3.234 1.126 8.262-2.861 11.23-3.988 2.968-9.172 2.752-11.579-.482s-1.126-8.262 2.861-11.23 9.171-2.752 11.579.482ZM86 47.7c9.58.03 17.33 7.82 17.3 17.4-.03 9.58-7.82 17.33-17.4 17.3-9.58-.03-17.33-7.82-17.3-17.4.06-9.57 7.83-17.29 17.4-17.3"/><path fill="#422B0D" d="M101.1 62.8a15.4 15.4 0 1 1-30.8 0 15.4 15.4 0 1 1 30.8 0Z"/><path fill="#FFF" d="M93.196 66.888c.852 1.015.651 2.587-.449 3.51-1.099.923-2.682.848-3.534-.167-.852-1.015-.651-2.586.448-3.509 1.1-.924 2.683-.849 3.535.166ZM88.924 52.645c2.407 3.234 1.126 8.262-2.861 11.23-3.988 2.968-9.172 2.752-11.579-.482s-1.126-8.262 2.861-11.23 9.171-2.752 11.579.482Z"/><path fill="#422B0D" d="M27.4 39.8c-2.2.4-2.3 3.6.1 3.7 5.3.07 10.42-1.9 14.3-5.5 1.48-1.28 2.73-2.8 3.7-4.5.58-.83.38-1.97-.45-2.55a1.83 1.83 0 0 0-2.55.45l-.1.1a26.03 26.03 0 0 1-15 8.3ZM84.5 31.4a1.83 1.83 0 0 0-2.55-.45 1.83 1.83 0 0 0-.45 2.55c.97 1.7 2.22 3.22 3.7 4.5 3.9 3.57 9.01 5.54 14.3 5.5 2.5-.1 2.3-3.3.1-3.7a25.539 25.539 0 0 1-15.1-8.4"/></svg>