<svg xmlns="http://www.w3.org/2000/svg" viewBox="0 0 128 128"><defs><linearGradient id="a" x1="75.295" x2="75.295" y1="116.281" y2="89.424" gradientUnits="userSpaceOnUse"><stop offset="0" stop-color="#484D51"/><stop offset=".355" stop-color="#424548"/><stop offset=".854" stop-color="#343434"/></linearGradient><linearGradient id="b" x1="27.496" x2="27.496" y1="118.193" y2="54.953" gradientUnits="userSpaceOnUse"><stop offset="0" stop-color="#484D51"/><stop offset=".355" stop-color="#424548"/><stop offset=".854" stop-color="#343434"/></linearGradient><linearGradient id="c" x1="71.006" x2="70.627" y1="-1.476" y2="16.73" gradientUnits="userSpaceOnUse"><stop offset=".159" stop-color="#A9A9A9"/><stop offset=".275" stop-color="#929394"/><stop offset=".427" stop-color="#7B7E7F"/><stop offset=".59" stop-color="#6A6E71"/><stop offset=".77" stop-color="#606568"/><stop offset="1" stop-color="#5D6265"/></linearGradient><linearGradient id="d" x1="96.739" x2="101.198" y1="51.166" y2="103.963" gradientUnits="userSpaceOnUse"><stop offset=".159" stop-color="#A9A9A9"/><stop offset=".327" stop-color="#A2A3A3"/><stop offset=".569" stop-color="#8F9192"/><stop offset=".854" stop-color="#707476"/><stop offset="1" stop-color="#5D6265"/></linearGradient><linearGradient id="e" x1="42.429" x2="49.026" y1="67.629" y2="51.743" gradientUnits="userSpaceOnUse"><stop offset="0" stop-color="#484D51"/><stop offset=".416" stop-color="#424548"/><stop offset="1" stop-color="#343434"/></linearGradient><linearGradient id="f" x1="57.461" x2="51.931" y1="20.641" y2="33.788" gradientUnits="userSpaceOnUse"><stop offset="0" stop-color="#484D51"/><stop offset=".416" stop-color="#424548"/><stop offset="1" stop-color="#343434"/></linearGradient></defs><path fill="url(#a)" d="m85.15 82.83-20.16 5.9s2 11.13 2.76 15.12c.76 3.99 1.14 7.51.76 8.75-.38 1.24-3.99 3.71-3.33 6.09.67 2.38 6.28 2.95 12.17 2.19 5.9-.76 6.94-2.85 7.04-5.99.1-3.14-2.09-8.84-1.81-10.36.29-1.52 2.66-4.94 2.95-8.65.29-3.71-.38-13.05-.38-13.05Z"/><path fill="url(#b)" d="M41.31 61.38 22.63 36.57s-7.56 3-7.99 13.83c-.43 10.83 2.42 16.97 2.14 21.39-.29 4.42-4.14 8.7-3.85 15.69.29 6.99 4.14 17.26 4.14 18.97 0 1.71-.57 11.32 1.64 13.36 2.01 1.86 6.63 2.33 10.63 2.04 4-.29 8.42-1.14 8.42-4.28 0-3.14-5.27-2.74-5.71-4.42-.21-.83.61-1.22 1.09-3.19.28-1.11-.05-2.76-.05-2.76s7.16-9.89 8.65-16.81c1.5-6.92-2.5-13.62-2.78-15.83-.28-2.19 2.35-13.18 2.35-13.18Z"/><path fill="url(#c)" d="M29.62 53.71c-1.01-1.59-4.99-1.43-7.84-5.92-2.85-4.49-2.42-9.34-.93-12.05 1.24-2.23 2.78-3 2.78-3l.07-2.14s-2.35-1.43-2.57-4.64c-.22-3.21.86-4.71 3.85-7.13s5.71-4.14 5.71-4.14-.29-2.92.5-4.78C31.97 8.06 35.54 4 41.81 4s11.16 3.85 14.94 7.84c3.78 3.99 4.14 7.56 4.06 8.49-.07.93-3.17 5.56-3.17 5.56l7.35 9.35 16.3 9.44 12.23 16.08 14.83 12.34 4.17 19.25s4.24 4.49 5.6 10.7c1.35 6.2 1.43 15.26-.71 16.76-2.14 1.5-6.85 4.21-15.4 3.85-6.72-.28-6.56-1.78-6.42-3 .18-1.5 4.49-5.63 4.99-6.28.5-.65.36-7.27-1.21-8.2-1.57-.93-4.49-1.35-8.06-5.71-3.57-4.35-4.49-10.48-4.49-10.48s-3.49 1.27-7.7 1.35C73.27 91.46 65 88.7 65 88.7s-17.4-7.61-21.47-12.91c-2.95-3.84-4.28-6.13-4.28-6.13s-3.85-1.78-6.63-7.35c-2.79-5.54-2-7.03-3-8.6Z"/><path fill="#44494E" d="M44.24 26.82c.21-1.57 1-2.71-.93-3.85-1.93-1.14-8.91-.78-11.84-.64-2.92.14-8.49 0-7.99 2.35.12.59.23 1.68 1.07 2.46 2.52 2.34 7.42 2.67 7.42 2.67l12.27-2.99Z"/><path fill="#AEAEAF" d="M31.54 27.75c.93.18 1.93-4.28 7.99-4.06 6.06.21 7.38 3.85 7.38 3.85s-4.89 6.99-6.81 11.55c-1.93 4.56-3.78 10.27-4.85 10.63-1.07.36-6.61-.12-10.2-3-2.89-2.32-3.99-5.24-3.42-8.63.29-1.74 1.32-2.89 1.75-3.35.34-.37 2.14 1.93 3.21 1.5 1.07-.43.93-1.11.53-1.57-.39-.46-2.21-1.68-2.21-1.68s.86-1.32 2.1-.75c1.06.48 2.14 2.1 2.14 2.1s1.96-2.06 2.82-2.21c1.39-.25 2.35 1.11 2.35 1.11s-2.96.96-3.32 1.82c-.36.86.29 1.96 2.35 1.21 2.07-.75 2.96-1.18 2.96-1.18s.11-3.24-3.03-4.1c-2.21-.61-4.06 1.6-4.06 1.6s-1.35-1.35-2.1-1.57c-.75-.21-1.39-.07-1.39-.07s-1.03-2.18-1.39-3.21c-.36-1.03-.78-2.57-.78-2.57s2.21-.89 4.28-.07c2.06.83 2.78 2.47 3.7 2.65Z"/><path d="M36.71 27.57c-.91.88-1.11 2.46-.18 3.17.93.71 2.28.43 3.14-.53.86-.96 1-2.46.25-3.03-.75-.57-2.1-.68-3.21.39ZM29.01 30.21c-.89.8-2.1.04-2.53-.53-.62-.83-.82-2.1-.46-2.6.36-.5 1.64-.71 2.53.11.89.81 1.21 2.34.46 3.02ZM28.55 41.08c3.46.11 4.81-.04 5.74-.11.41-.03 1.28-.57 2.32.04 1.04.61.79 2.21-.61 2.25-1.39.04-1.68-.21-1.68-.21s-2.08.45-5.81.14c-3.46-.29-4.71-1.07-4.71-1.07s-1.6.66-1.93-.53c-.31-1.17.74-1.94 1.68-1.53.92.38 1.96.93 5 1.02Z"/><path fill="url(#d)" d="M85.39 70.25c1.27 2.62 4.42 5.56 6.63 4.99 2.21-.57 2.57-1.57 4.28-2.42 1.71-.86 3.28-.71 3.28-.71s-2.71 3.28-3.35 6.63c-.64 3.35-2.07 12.48 4.14 16.54 6.2 4.06 12.19-2.85 12.19-2.85s1.71-11.13.5-18.83c-1.21-7.7-5.28-14.77-8.91-16.9-2.42-1.43-3.71-1-6.92-2.07-2.65-.88-6.7-2.78-9.56-4.85-2.85-2.07-5.92-4.42-5.92-4.42.11-.58 2.99 7.8 2.85 13.05-.09 3.43-.43 9.35.79 11.84Z"/><path fill="#44494E" d="M82.28 45.88s1.42 9.03.9 15.38c-.54 6.69-4.7 10.85-4.88 12.48-.3 2.7-1.81 16.64-4.7 17.37-4.01 1-12.3-24.24-12.3-24.24l20.98-20.99Z"/><path fill="#5D6265" d="M55.77 28.91s1.32-.5 2.73-1.2c1.14-.57 2-1.75 2-1.75s6.39-1.14 12.77 4.66c6.37 5.8 10.17 12.93 8.65 24.15-1.52 11.22-6.18 17.88-6.18 17.88s.57 9.32-1.33 15.78c-1.9 6.47-9.7 19.87-9.98 23.39-.28 3.52 4.02 4.24 5.21 7.24 1.05 2.65-.86 4.79-7.13 4.89-6.27.1-12.84.33-13.12-2.5-.48-4.78 2.97-5.63 2.78-11.43-.19-5.8-4.28-11.89-4.85-21.01-.57-9.13 1.24-11.89 1.24-11.89s-.57-12.84 1.14-21.39 7.89-15.31 7.61-19.59c-.31-4.28-1.54-7.23-1.54-7.23Z"/><path fill="url(#e)" d="M54.11 46.5c.02-.06.04-.12.06-.17.27-.77.56-1.58.42-2.38-.03-.2-.11-.41-.29-.51-.19-.1-.43-.02-.62.09-1.17.68-1.54 2.23-2.3 3.27-1.09 1.48-2.33 2.94-3.91 3.91-2.68 1.66-6.22 2.46-9.3 2.93-.29.04-.61.1-.79.33-1.07 1.3 5.11 2.5 10.39 1.56-.92 2.82 1.1 6.52 2.07 9.31.65 1.86.47 3.89.18 5.8-.06.4-.81 3.11.09 3.08.35-.01.81-1.52.96-1.79.54-.98 1.14-1.87 1.54-2.92.76-1.97 1.09-4.11.91-6.22-.18-2.11-.84-4.15-1.05-6.26-.34-3.39.52-6.8 1.64-10.03Z"/><path fill="url(#f)" d="M57.38 30.56c.36-.93.69-1.58 1.09-2.05.78-1.32 3.05-2.41 3.05-6 0-2.97-1.74-6.31-1.74-6.31s-.78 5.72-2.35 7.06c-1.59 1.35-3.47 1.81-5.51 1.88-4.13.13-1.57 3.05.1 5.08 1.81 2.19 2.89 4.74 3.56 7.48 1.07-2.14.83-4.88 1.8-7.14Z"/><path fill="#5D6265" d="M21.32 115.19c-.43-3.54 1.83-6.21.39-9.74-.8-1.95-2.1-3.65-3.05-5.53-2.56-5.11-1.76-10.58-.09-15.82 1.08-3.38 2.6-6.96 1.53-10.33.75 1.57 1.51 3.13 2.26 4.7 1.06-5.52.6-11.32-1.31-16.61-1.32-3.66-3.32-7.07-4.28-10.84-.63-2.5-.53-6.95.77-10.01-1.47 2.13-2.73 5.15-2.9 9.39-.43 10.84 2.42 16.97 2.14 21.39-.29 4.42-4.14 8.7-3.85 15.69.29 6.99 4.14 17.26 4.14 18.97 0 1.71-.57 11.32 1.64 13.36 1.51 1.4 4.49 2.01 7.57 2.1-2.08-1.12-4.68-4.36-4.96-6.72Z"/></svg>