<svg xmlns="http://www.w3.org/2000/svg" viewBox="0 0 128 128"><defs><radialGradient id="a" cx="87.162" cy="87.013" r="1.936" gradientUnits="userSpaceOnUse"><stop offset="0" stop-color="#78909C"/><stop offset=".562" stop-color="#617A86"/><stop offset="1" stop-color="#546E7A"/></radialGradient></defs><path fill="#C62828" d="M84.13 76.18h6.07v10.83h-6.07V76.18Z"/><path fill="#424242" d="m31.79 117.21-26.41-8.58a2.216 2.216 0 0 1-1.42-2.79l.71-2.18c.38-1.16 1.63-1.8 2.79-1.42l26.41 8.58c1.16.38 1.8 1.63 1.42 2.79l-.71 2.18a2.208 2.208 0 0 1-2.79 1.42Z"/><path fill="#78909C" d="M40.27 104.19c-5.47 0-9.91 4.44-9.91 9.91s4.44 9.91 9.91 9.91 9.91-4.44 9.91-9.91c0-5.48-4.44-9.91-9.91-9.91Z"/><path fill="#F44336" d="M107.11 25.7c-2.74 0-2.74 2.95-2.74 3.92l-.38 44.29-49.54-2.68c-14.19 0-20.71 5.43-25.83 21.5l-7.25 21.03c-.26.77-.21 1.59.14 2.32.35.73.97 1.27 1.74 1.54.32.11.65.17.99.17 1.29 0 2.45-.82 2.87-2.04l5.38-15.6c2.8.91 4.77 3.57 4.77 6.55v7.41c0 1.67 1.36 3.03 3.03 3.03 1.67 0 3.03-1.36 3.03-3.03v-7.41c0-5.59-3.61-10.53-8.86-12.28C38.77 81 43.08 77.31 54.29 77.31l49.81 2.9c1.89 0 2.92-.21 3.98-1.46 1.2-1.43 1.21-3.74 1.21-3.76l.58-45.79c-.02-3.05-1.74-3.5-2.76-3.5Z"/><path fill="#424242" d="M40.23 117.37c-1.5 0-2.73-1-2.98-2.5l-.5-5.09c-.12-.8.56-1.52 1.44-1.52h3.85c.86 0 1.53.68 1.45 1.47l-.18 5.14c.01 1.38-1.58 2.5-3.08 2.5ZM99.83 61.82 48.18 60.3c-2.62 0-4.84.95-5.72 6.21 0 0-.17.67.14 3.21.31 2.54 1.99 3.7 4.19 3.81l58.89 2.85-5.85-14.56Z"/><path fill="#424242" d="M93.54 29.77c-1.13 4.05-3.3 25.43-1.62 31.34 1.68 5.91 13.83 15.19 13.83 15.19l.37-46.1c0-3.74-2.04-4.33-5.39-4.33h-2.48c-3.5.04-4.08 1.62-4.71 3.9Z"/><path fill="#757575" d="M93.54 29.77c-.53 1.9-.74 3.93-.98 5.88-.2 1.61-.98 9.49-.98 9.49.4-.05.8-.14 1.19-.23.84-.19 1.66-.4 2.49-.63.23-.06.44-.13.67-.13.17 0 .31.01.47-.06.42-.19.74-.58.94-.98.26-.53.36-1.12.43-1.7.26-2.1.26-4.22.52-6.32.27-2.1.83-4.22 2.1-5.91.44-.59.98-1.16 1.12-1.89.09-.45-.07-.98-.42-1.29-.16-.14-.39-.27-.61-.25-.16.02-.29.06-.47.07-.59.01-1.19.05-1.78.05-3.48.04-4.06 1.62-4.69 3.9Z"/><path fill="#212121" d="M72.48 74.65c3.36-4.39 8.6-6.91 15.2-6.6 7.64.35 12.35 5.02 14.77 8.19l5.16.11c.1-5.9.4-21.08.4-21.08-3.86-6.46-45.1-17.62-58.93 18.31l23.4 1.07Z"/><path fill="#F44336" d="m105.65 77.37 2.75-.85c0-3.17-.4-24.12-.4-24.12-4.04-6.77-48.48-19.15-60.77 23.83l7.95-.03 12.69.74c3.07-6.88 11.25-11.62 19.99-11.21 13.03.61 17.79 11.64 17.79 11.64Z"/><path fill="url(#a)" d="M87.16 88.95c-1.07 0-1.94-.87-1.94-1.94 0-1.07.87-1.94 1.94-1.94 1.07 0 1.94.87 1.94 1.94 0 1.07-.87 1.94-1.94 1.94Z"/><path fill="#82AEC0" d="M87.16 85.58a1.44 1.44 0 1 1-1.44 1.44c.01-.8.65-1.44 1.44-1.44m0-1c-1.35 0-2.44 1.09-2.44 2.44 0 1.35 1.09 2.44 2.44 2.44 1.35 0 2.44-1.09 2.44-2.44 0-1.35-1.09-2.44-2.44-2.44Z"/><path fill="#82AEC0" d="M88.16 55.61v62.81q0 1-1 1t-1-1V55.61q0-1 1-1t1 1Z"/><path fill="#82AEC0" d="m110.077 65.517-44.41 44.41q-.707.707-1.414 0t0-1.414l44.41-44.41q.707-.707 1.414 0t0 1.414Z"/><path fill="#82AEC0" d="m108.663 109.927-44.41-44.41q-.707-.707 0-1.414t1.414 0l44.41 44.41q.707.707 0 1.414t-1.414 0Z"/><path fill="#82AEC0" d="M55.76 86.01h62.81q1 0 1 1t-1 1H55.76q-1 0-1-1t1-1Z"/><path fill="#78909C" d="M87.16 50.03c-20.43 0-36.99 16.56-36.99 36.99 0 20.43 16.56 36.98 36.99 36.98 20.43 0 36.99-16.56 36.99-36.99 0-20.43-16.56-36.98-36.99-36.98Zm0 66.92c-16.53 0-29.94-13.4-29.94-29.94 0-16.53 13.4-29.94 29.94-29.94 16.53 0 29.94 13.4 29.94 29.94s-13.4 29.94-29.94 29.94Z"/><path fill="#546E7A" d="M87.16 62.13c13.72 0 24.88 11.16 24.88 24.88 0 13.72-11.16 24.88-24.88 24.88-13.72 0-24.88-11.16-24.88-24.88 0-13.72 11.16-24.88 24.88-24.88m0-2c-14.85 0-26.88 12.04-26.88 26.88 0 14.85 12.04 26.88 26.88 26.88 14.85 0 26.88-12.04 26.88-26.88s-12.03-26.88-26.88-26.88Z"/><path fill="#757575" d="M93.39 87.01a6.23 6.23 0 1 1-12.46 0 6.23 6.23 0 1 1 12.46 0Z"/><path fill="#94D1E0" d="M56.826 70.342q3.487-6.966 9.904-11.825 6.418-4.86 14.072-6.329.491-.094.783.104.293.198.387.69.189.982-.794 1.17-7.195 1.381-13.241 5.959-6.045 4.577-9.323 11.127-.447.894-1.342.446-.447-.224-.558-.559-.112-.335.112-.783Z" opacity=".8"/><path fill="#757575" d="M43.53 65c1.17-.36 2.45-.26 3.68-.29.83-.02 1.69-.12 2.46-.45.38-.16.73-.37 1.03-.66.14-.14.2-.27.3-.43.13-.24.3-.46.45-.68.4-.62.79-1.24 1.16-1.88.03-.05.06-.11.09-.16 0 0-3.81-.42-5.92-.16-1.11.14-2.36.73-2.97 1.7-.19.3-.39.58-.54.91-.3.64-.49 1.33-.54 2.03 0 .07-.01.14.03.19.08.11.26.07.38.01.13-.05.26-.09.39-.13ZM7.484 102.644l14.32 4.62q.237.077.318.234.081.158.004.396-.154.475-.63.322l-14.32-4.62q-.237-.077-.318-.234-.081-.158-.004-.396.154-.475.63-.322Z"/><path fill="#C62828" d="M105.95 50.48s2.27 1 3.56 2.75l.11-5.32c-1.45-1.45-3.63-1.78-3.63-1.78l-.04 4.35ZM48.08 73.53l-1.04 4.48s-1.94.18-3.39-1.01c-2.49-2.05-2.2-3.21-2.2-3.21.69-.53 2.63-1.18 2.63-1.18s1.09.53 2.1.74c1.01.21 1.9.18 1.9.18Z"/></svg>