<svg xmlns="http://www.w3.org/2000/svg" viewBox="0 0 128 128"><defs><radialGradient id="c" cx="26.668" cy="105.722" r="10.024" gradientUnits="userSpaceOnUse"><stop offset="0" stop-color="#FFF"/><stop offset=".921" stop-color="#CDD7DB" stop-opacity="0"/></radialGradient><radialGradient id="e" cx="95.821" cy="81.892" r="20.256" gradientUnits="userSpaceOnUse"><stop offset="0" stop-color="#FFF"/><stop offset=".921" stop-color="#CDD7DB" stop-opacity="0"/></radialGradient><radialGradient id="f" cx="64.888" cy="-4.373" r="6.568" gradientTransform="rotate(12.17)" gradientUnits="userSpaceOnUse"><stop offset="0" stop-color="#FFF"/><stop offset=".921" stop-color="#CDD7DB" stop-opacity="0"/></radialGradient><radialGradient id="g" cx="74.87" cy="13.31" r="5.386" gradientTransform="rotate(12.17)" gradientUnits="userSpaceOnUse"><stop offset="0" stop-color="#FFF"/><stop offset=".921" stop-color="#CDD7DB" stop-opacity="0"/></radialGradient><radialGradient id="h" cx="52.311" cy="19.179" r="6.568" gradientTransform="rotate(12.17)" gradientUnits="userSpaceOnUse"><stop offset="0" stop-color="#FFF"/><stop offset=".921" stop-color="#CDD7DB" stop-opacity="0"/></radialGradient><linearGradient id="a" x1="42.234" x2="-3.656" y1="41.429" y2="163.116" gradientUnits="userSpaceOnUse"><stop offset=".308" stop-color="#D3CAC3"/><stop offset=".744" stop-color="#6D94A5"/></linearGradient><linearGradient id="b" x1="53.649" x2="53.649" y1="100.495" y2="122.038" gradientUnits="userSpaceOnUse"><stop offset=".292" stop-color="#D3CAC3"/><stop offset="1" stop-color="#6D94A5"/></linearGradient><linearGradient id="d" x1="67.478" x2="123.505" y1="90.967" y2="90.967" gradientUnits="userSpaceOnUse"><stop offset=".292" stop-color="#D3CAC3"/><stop offset="1" stop-color="#6D94A5"/></linearGradient></defs><path fill="#D3CAC3" d="M69.19 71.88c-19.34-.75-25.48 11.45-32.74 16.57-5.57 3.93-14.76 3.28-14.76 3.28-6.98 1.2-11.57 5.04-11.57 11.94 0 6.55 3.53 12.91 12.93 12.91l63.22-2.2s2.58-41.74-17.08-42.5Z"/><path fill="#90A4AE" d="m9.96 84.32 19.91-50.01 13.81 5.3s-4.6 24.51-5.13 30.6c-.53 6.09 5.13 20.37 3.95 32.98-1.32 14.13-6.89 17.83-17.52 19.04-7.44.85-15.83-2.52-18.16-6.79-3.44-6.3-4.43-14.18 3.14-31.12Z"/><path fill="#466B7D" d="M28.43 37.83c.77-.05 1.92-.37 3.97 2.11 1.52 1.84 4.92 4.98 8.9 5.19.69-3.36 1.19-5.71 1.19-5.71l-12.63-5.1-1.43 3.51Z"/><path fill="url(#a)" d="M14.13 98.73s15.13-45.62 21.08-62.25l-5.35-2.16-19.9 50c-7.57 16.94-6.58 24.81-3.14 31.12 2.33 4.28 9.16 7.86 16.6 7.01 1.84-.21 3.48-.57 4.97-1.07-5.3-8.63-14.26-22.65-14.26-22.65Z"/><path fill="#466B7D" d="M28.43 37.83c.77-.05 1.92-.37 3.97 2.11 1.52 1.84 6.11 5.86 10.09 6.07.69-3.36 1.18-6.39 1.18-6.39l-13.81-5.3-1.43 3.51ZM39.09 76.07s.06 5.87-4.94 10.17c-7.74 6.66-23.47 2.86-26.26 21.28-.74 4.87-2.74 4.06-2.74 4.06s2.6 11.75 17.94 10.9c11.31-1.01 17.63-9.15 19.07-18.43 1.51-9.65-3.07-27.98-3.07-27.98Z"/><path fill="url(#b)" d="M81.58 71.13c-25.26 0-32.72 7.64-38.7 13.78-2.92 3-5.23 5.37-9.31 6.43-3.6.94-9.18 2.09-10.8 2.42-.02 0-.04.01-.06.01-7.86 1.36-12.54 6.85-12.54 14.68 0 3.93 1.31 7.35 3.79 9.87 1.95 1.99 5.64 4.35 12.1 4.35h.1l68.95-2.27s6.21-33.08-3.09-44.41c-2.62-3.18-6.23-4.86-10.44-4.86Z"/><path fill="#90A4AE" d="M76.08 80.35C58.7 77.27 51.93 86.21 42.5 93.56c-4.28 3.34-15.86 4.56-15.86 4.56-6.98 1.2-11.57 5.04-11.57 11.94 0 7.18 3.53 12.56 12.93 12.56l63.22-2.2c0 .01 4.23-36.64-15.14-40.07Z"/><path fill="#466B7D" d="M70.82 88.15c.03-4.01-.08-7.17-.16-9.47v-.12c-.1-2.86-.46-5.05-.93-6.75-.2.03-.41.05-.61.08-4.25-.27-8.48.6-8.48.6s4.87 1.23 5.41 9.04c.18 2.59.25 3.26.19 7.5-.47 34.51 27.89 31.43 27.89 31.43l.31-1.71c-16.92-3.08-23.76-11.94-23.62-30.6ZM35.69 110.96a7.42 7.42 0 1 1-14.84 0 7.42 7.42 0 1 1 14.84 0Z"/><path fill="#A38E7A" d="M35 109.74a6.55 6.55 0 1 1-13.1 0 6.55 6.55 0 1 1 13.1 0Z"/><path fill="url(#c)" d="M35 109.74a6.55 6.55 0 1 1-13.1 0 6.55 6.55 0 1 1 13.1 0Z"/><path fill="#C6B3A1" d="M34.78 110.16a5.39 5.39 0 1 1-10.78 0 5.39 5.39 0 1 1 10.78 0Z"/><path fill="#90A4AE" d="M121.79 88.89h.02c.01-17.13-14.62-28.3-31.06-27.66-15.19.6-23.27 10.67-23.27 10.67s4.67 4.46 2.5 16.15l.02.02c-.08.32-.15.65-.22.98-2.83 14.38 6.53 28.33 20.9 31.16 14.37 2.83 28.31-6.54 31.13-20.92.7-3.55.66-7.07-.02-10.4Z"/><path fill="url(#d)" d="m121.79 88.89 1.71.17c-.45-16.8-16.31-28.47-32.75-27.83-15.19.6-23.27 10.67-23.27 10.67s.83.66 1.19 7.76c.12 2.37.19 5.45.16 9.47-.12 16.06 7.49 28.25 21.86 31.08 14.37 2.83 29.3-6.08 32.12-20.46.69-3.55-.34-7.53-1.02-10.86Z"/><path fill="#90A4AE" d="M123.77 92.75a25.74 25.74 0 1 1-51.48 0 25.74 25.74 0 1 1 51.48 0Z"/><path fill="#466B7D" d="M115.92 94.98a15.37 15.37 0 1 1-30.74 0 15.37 15.37 0 1 1 30.74 0Z"/><path fill="#A38E7A" d="M115.31 92.86a14.25 14.25 0 1 1-28.5 0 14.25 14.25 0 1 1 28.5 0Z"/><path fill="url(#e)" d="M115.31 92.86a14.25 14.25 0 1 1-28.5 0 14.25 14.25 0 1 1 28.5 0Z"/><path fill="#C6B3A1" d="M115.32 93.28a12.5 12.5 0 1 1-25 0 12.5 12.5 0 1 1 25 0Z"/><path fill="#212121" d="m68.35 20.1-8.67-4.53-7.93 8.47-.25 6.79 12.76 4.65s6.56-3.38 6.83-3.51c.27-.13-.11-5.54-.11-5.54l-2.63-6.33Z"/><path fill="#466B7D" d="M57.25 22.24c1.38-3.39 2.68-3.27 4.19-2.84 1.54.44 2.57 2.24 1.38 4.89l-2.05 6.11 6.88-2.1 2.88 2.99 1.65 3.62s-6.4 2.36-10.42 2.52c-4.02.16-6.23-3.14-6.23-3.14l-2.82-1.3c.01 0 4.12-9.7 4.54-10.75Z"/><path fill="#6D94A5" d="M64.23 13.41c.12-2.62.26-5.99.26-6.06l-.06-.02c-.4-.08-3.03-.59-6.42-.98-3.92-.45-6.04.24-7.96 2.45L38.9 20.09c-3.13 3.9-.64 9.19-.64 9.19l14.1 2.44s8.82-11.54 11.13-14.57c.13-.63.42-2.11.74-3.74Z"/><path fill="#D3CAC3" d="M38.26 29.28s-2.48-5.29.64-9.19l11.16-11.3c1.91-2.21 4.04-2.9 7.96-2.45 3.68.43 6.47.99 6.47.99s-.35 8.92-.45 9.08c-.11.16-11.68 15.3-11.68 15.3l-14.1-2.43Z"/><path fill="#90A4AE" d="m45.97 22.63 14.59-14.7 1.65 11.34-8.8 11.13-4.92-4.76Z"/><path fill="#90A4AE" d="M68.4 11.42c-.81-2.65-1.68-3.47-3.91-4.08-4.32-1.19-7.45 3.49-4.81 8.23 2.87 5.16 7 13.66 7 13.66l6.36 5.09c.92-.34 1.97-1.95 1.19-4.57L68.4 11.42Z"/><path fill="#466B7D" d="M67.33 9.54c-.12-.11-.03-.76-.95-1.42-.56-.4-1.24-.61-1.9-.79-4.32-1.19-7.45 3.49-4.81 8.23 2.34 4.21 6.89 13.56 6.89 13.56s.68 2.4 1.12 2.52c.54.14 1.11-.2 1.39-.68.28-.48.08-.95.05-1.5 0 0-6.37-13.02-7-14.21-.63-1.19 4.22-6.61 5.21-5.71Z"/><path fill="#466B7D" d="M69.15 12.72a4.6 4.6 0 1 1-9.2 0 4.6 4.6 0 1 1 9.2 0Z"/><path fill="#A38E7A" d="M69.23 12.22a4.29 4.29 0 1 1-8.58 0 4.29 4.29 0 1 1 8.58 0Z"/><path fill="url(#f)" d="M69.23 12.22a4.29 4.29 0 1 1-8.58 0 4.29 4.29 0 1 1 8.58 0Z"/><path fill="#C6B3A1" d="M69.16 12.25a3.46 3.46 0 1 1-6.92 0 3.46 3.46 0 1 1 6.92 0Z"/><path fill="#466B7D" d="M74.62 31.29a3.96 3.96 0 1 1-7.92 0 3.96 3.96 0 1 1 7.92 0Z"/><path fill="#A38E7A" d="M74.38 31.11a3.52 3.52 0 1 1-7.04 0 3.52 3.52 0 1 1 7.04 0Z"/><path fill="url(#g)" d="M74.38 31.11a3.52 3.52 0 1 1-7.04 0 3.52 3.52 0 1 1 7.04 0Z"/><path fill="#C6B3A1" d="M74.42 31.3a2.84 2.84 0 1 1-5.68 0 2.84 2.84 0 1 1 5.68 0Z"/><path fill="#D9C6B6" d="M27.73 27.46c1.25-6.16 6.84-8.05 12.21-7.55 4.69.43 7.59 1.15 7.59 1.15-.57 2.14-.59 17.32-1.83 19.16-1.38 2.03-8.15.61-12.48-2.65-2.57-1.93-4.07-1.47-4.07-1.47s-2.19-4.88-1.42-8.64Z"/><path fill="#90A4AE" d="M46.201 20.597c5.261 1.403 8.323 7.056 6.837 12.627-1.485 5.571-6.954 8.95-12.216 7.547-5.261-1.402-8.323-7.056-6.837-12.627 1.485-5.571 6.954-8.95 12.216-7.547Z"/><path fill="#466B7D" d="M38.13 29.42c.8-3.18 4.02-5.63 8.01-4.38 3.17.99 18.86 6.8 18.86 6.8l.36 7.67s-18.16-.72-19.9-.92c-7.53-.87-8.14-5.95-7.33-9.17Z"/><path fill="#90A4AE" d="M67.91 36.95c.39-1.8-.69-3.56-2.42-4.08v-.03s-14.51-5.46-17.76-6.17a6.013 6.013 0 0 0-7.15 4.61 6.013 6.013 0 0 0 4.61 7.15c1.59.34 16.94 1.16 19.15 1.28.04 0 .09.01.13.01.09 0 .14.01.14.01v-.02c1.58-.08 2.95-1.17 3.3-2.76Z"/><path fill="#466B7D" d="M51.89 33.09a4.6 4.6 0 1 1-9.2 0 4.6 4.6 0 1 1 9.2 0Z"/><path fill="#A38E7A" d="M51.97 32.6a4.29 4.29 0 1 1-8.58 0 4.29 4.29 0 1 1 8.58 0Z"/><path fill="url(#h)" d="M51.97 32.6a4.29 4.29 0 1 1-8.58 0 4.29 4.29 0 1 1 8.58 0Z"/><path fill="#C6B3A1" d="M51.88 32.86a3.46 3.46 0 1 1-6.92 0 3.46 3.46 0 1 1 6.92 0Z"/></svg>