<svg xmlns="http://www.w3.org/2000/svg" viewBox="0 0 128 128"><defs><radialGradient id="b" cx="69.438" cy="70.01" r="67.101" gradientTransform="matrix(.9469 .3217 -.2221 .6538 0 0)" gradientUnits="userSpaceOnUse"><stop offset="0" stop-color="#C48C63"/><stop offset="1" stop-color="#EEB68E"/></radialGradient><radialGradient id="c" cx="86.055" cy="86.774" r="5.668" gradientTransform="scale(1 .9699)" gradientUnits="userSpaceOnUse"><stop offset="0" stop-color="#6D4C41"/><stop offset=".999" stop-color="#3D3832"/></radialGradient><radialGradient id="d" cx="70.289" cy="85.442" r="5.668" gradientTransform="scale(1 .9699)" gradientUnits="userSpaceOnUse"><stop offset="0" stop-color="#6D4C41"/><stop offset=".999" stop-color="#3D3832"/></radialGradient><radialGradient id="e" cx="60.776" cy="106.444" r="5.668" gradientTransform="scale(1 .9699)" gradientUnits="userSpaceOnUse"><stop offset="0" stop-color="#6D4C41"/><stop offset=".999" stop-color="#3D3832"/></radialGradient><radialGradient id="f" cx="74.424" cy="105.763" r="5.668" gradientTransform="scale(1 .9699)" gradientUnits="userSpaceOnUse"><stop offset="0" stop-color="#6D4C41"/><stop offset=".999" stop-color="#3D3832"/></radialGradient><radialGradient id="g" cx="73.936" cy="108.319" r="5.638" gradientTransform="scale(1 .9699)" gradientUnits="userSpaceOnUse"><stop offset=".528" stop-color="#F5CEA7" stop-opacity="0"/><stop offset="1" stop-color="#F5CEA7"/></radialGradient><radialGradient id="h" cx="69.424" cy="88.106" r="5.668" gradientTransform="scale(1 .9699)" gradientUnits="userSpaceOnUse"><stop offset=".567" stop-color="#F5CEA7" stop-opacity="0"/><stop offset="1" stop-color="#F5CEA7"/></radialGradient><radialGradient id="i" cx="85.189" cy="89.438" r="5.668" gradientTransform="scale(1 .9699)" gradientUnits="userSpaceOnUse"><stop offset=".567" stop-color="#F5CEA7" stop-opacity="0"/><stop offset="1" stop-color="#F5CEA7"/></radialGradient><radialGradient id="j" cx="44.286" cy="105.985" r="5.22" gradientTransform="scale(1 .9699)" gradientUnits="userSpaceOnUse"><stop offset="0" stop-color="#6D4C41"/><stop offset=".999" stop-color="#3D3832"/></radialGradient><radialGradient id="k" cx="43.366" cy="114.22" r="5.522" gradientTransform="scale(1 .9179)" gradientUnits="userSpaceOnUse"><stop offset=".567" stop-color="#F5CEA7" stop-opacity="0"/><stop offset="1" stop-color="#F5CEA7"/></radialGradient><radialGradient id="l" cx="83.471" cy="112.368" r="5.22" gradientTransform="scale(1 .9699)" gradientUnits="userSpaceOnUse"><stop offset="0" stop-color="#6D4C41"/><stop offset=".999" stop-color="#3D3832"/></radialGradient><radialGradient id="m" cx="82.551" cy="120.966" r="5.522" gradientTransform="scale(1 .9179)" gradientUnits="userSpaceOnUse"><stop offset=".567" stop-color="#F5CEA7" stop-opacity="0"/><stop offset="1" stop-color="#F5CEA7"/></radialGradient><radialGradient id="n" cx="59.568" cy="115.743" r="6.038" gradientTransform="scale(1 .9179)" gradientUnits="userSpaceOnUse"><stop offset=".567" stop-color="#F5CEA7" stop-opacity="0"/><stop offset="1" stop-color="#F5CEA7"/></radialGradient><radialGradient id="o" cx="66.854" cy="117.964" r="5.668" gradientTransform="scale(1 .9699)" gradientUnits="userSpaceOnUse"><stop offset="0" stop-color="#6D4C41"/><stop offset=".999" stop-color="#3D3832"/></radialGradient><radialGradient id="p" cx="65.645" cy="126.461" r="5.785" gradientTransform="scale(1 .9284)" gradientUnits="userSpaceOnUse"><stop offset=".567" stop-color="#F5CEA7" stop-opacity="0"/><stop offset="1" stop-color="#F5CEA7"/></radialGradient><radialGradient id="q" cx="53.402" cy="97.585" r="5.668" gradientTransform="scale(1 .9699)" gradientUnits="userSpaceOnUse"><stop offset="0" stop-color="#6D4C41"/><stop offset=".999" stop-color="#3D3832"/></radialGradient><radialGradient id="r" cx="52.194" cy="106.38" r="6.038" gradientTransform="scale(1 .9179)" gradientUnits="userSpaceOnUse"><stop offset=".567" stop-color="#F5CEA7" stop-opacity="0"/><stop offset="1" stop-color="#F5CEA7"/></radialGradient><radialGradient id="s" cx="65.533" cy="95.827" r="5.668" gradientTransform="scale(1 .9699)" gradientUnits="userSpaceOnUse"><stop offset="0" stop-color="#6D4C41"/><stop offset=".999" stop-color="#3D3832"/></radialGradient><radialGradient id="t" cx="64.325" cy="100.305" r="5.725" gradientTransform="scale(1 .9565)" gradientUnits="userSpaceOnUse"><stop offset=".567" stop-color="#F5CEA7" stop-opacity="0"/><stop offset="1" stop-color="#F5CEA7"/></radialGradient><radialGradient id="u" cx="80.097" cy="99.774" r="5.668" gradientTransform="scale(1 .9699)" gradientUnits="userSpaceOnUse"><stop offset="0" stop-color="#6D4C41"/><stop offset=".999" stop-color="#3D3832"/></radialGradient><radialGradient id="v" cx="78.7" cy="108.009" r="5.928" gradientTransform="scale(1 .9179)" gradientUnits="userSpaceOnUse"><stop offset=".507" stop-color="#F5CEA7" stop-opacity="0"/><stop offset="1" stop-color="#F5CEA7"/></radialGradient><radialGradient id="w" cx="43.954" cy="89.284" r="5.668" gradientTransform="scale(1 .9699)" gradientUnits="userSpaceOnUse"><stop offset="0" stop-color="#6D4C41"/><stop offset=".999" stop-color="#3D3832"/></radialGradient><radialGradient id="x" cx="42.746" cy="92.545" r="6.038" gradientTransform="scale(1 .9681)" gradientUnits="userSpaceOnUse"><stop offset=".567" stop-color="#F5CEA7" stop-opacity="0"/><stop offset="1" stop-color="#F5CEA7"/></radialGradient><radialGradient id="y" cx="52.757" cy="114.907" r="5.668" gradientTransform="scale(1 .9699)" gradientUnits="userSpaceOnUse"><stop offset="0" stop-color="#6D4C41"/><stop offset=".999" stop-color="#3D3832"/></radialGradient><radialGradient id="z" cx="51.549" cy="118.287" r="5.985" gradientTransform="scale(1 .9702)" gradientUnits="userSpaceOnUse"><stop offset=".567" stop-color="#F5CEA7" stop-opacity="0"/><stop offset="1" stop-color="#F5CEA7"/></radialGradient><linearGradient id="a" x1="63.85" x2="63.85" y1="71.279" y2="93.528" gradientUnits="userSpaceOnUse"><stop offset="0" stop-color="#EEB68E"/><stop offset="1" stop-color="#F5CEA7"/></linearGradient></defs><path fill="#BAE2FD" d="M63.93 25.32c-34.12.31-37.92 9.54-37.92 9.54s9.7 68.61 10.71 75.34c1.01 6.73 12.54 13.51 27.21 13.51 14.67 0 26.2-6.79 27.21-13.51 1.01-6.73 10.83-74.88 10.83-74.88s-3.92-9.69-38.04-10Z" opacity=".85"/><path fill="url(#a)" d="M30.3 64.3c2.61 18.75 5.83 41.86 6.43 45.89 1.01 6.73 12.54 13.51 27.21 13.51 14.67 0 26.2-6.79 27.21-13.51.59-3.95 3.68-26.07 6.26-44.66 0 0-24.45-9.08-39.2-7.27-14.75 1.8-27.91 6.04-27.91 6.04Z"/><path fill="url(#b)" d="M97.22 64.04c1.81 4.57-7.43 19.27-33.89 8.04C38.24 61.42 30.3 64.3 30.3 64.3c3.68-3.67 11.07-8.7 29.26-8.7 20.63 0 35.48 2.92 37.66 8.44Z"/><path fill="#9575CD" d="M70.5 38.41c-2.3 8.03-8.97 29.65-8.97 29.65s2.94 2.3 7.83 2.31c5.33 0 6.17-2.09 6.17-2.09s6.55-21.27 8.78-29.18c0 0-2.12.37-7.41.33-5.31-.03-6.4-1.02-6.4-1.02Z"/><path fill="url(#c)" d="M89.68 86.88a4.76 4.61 0 1 1-9.52 0 4.76 4.61 0 1 1 9.52 0Z"/><path fill="url(#d)" d="M73.92 85.58a4.76 4.61 0 1 1-9.52 0 4.76 4.61 0 1 1 9.52 0Z"/><path fill="url(#e)" d="M64.4 105.96a4.76 4.61 0 1 1-9.52 0 4.76 4.61 0 1 1 9.52 0Z"/><path fill="url(#f)" d="M78.05 105.3a4.76 4.61 0 1 1-9.52 0 4.76 4.61 0 1 1 9.52 0Z"/><path fill="url(#g)" d="M78.05 105.3a4.76 4.61 0 1 1-9.52 0 4.76 4.61 0 1 1 9.52 0Z"/><path fill="url(#h)" d="M73.92 85.58a4.76 4.61 0 1 1-9.52 0 4.76 4.61 0 1 1 9.52 0Z"/><path fill="url(#i)" d="M89.68 86.88a4.76 4.61 0 1 1-9.52 0 4.76 4.61 0 1 1 9.52 0Z"/><path fill="url(#j)" d="M47.62 105.3a4.38 4.25 0 1 1-8.76 0 4.38 4.25 0 1 1 8.76 0Z"/><path fill="url(#k)" d="M47.62 105.3a4.38 4.25 0 1 1-8.76 0 4.38 4.25 0 1 1 8.76 0Z"/><path fill="url(#l)" d="M86.81 111.49a4.38 4.25 0 1 1-8.76 0 4.38 4.25 0 1 1 8.76 0Z"/><path fill="url(#m)" d="M86.81 111.49a4.38 4.25 0 1 1-8.76 0 4.38 4.25 0 1 1 8.76 0Z"/><path fill="url(#n)" d="M54.84 105.96c0-2.55 1.94-4.46 4.56-4.61 2.61-.15 5.04 1.81 5.04 4.36 0 2.55-1.64 5-4.85 4.87-2.62-.12-4.75-2.08-4.75-4.62Z"/><path fill="url(#o)" d="M70.48 117.13a4.76 4.61 0 1 1-9.52 0 4.76 4.61 0 1 1 9.52 0Z"/><path fill="url(#p)" d="M60.92 117.13c0-2.55 1.94-4.46 4.56-4.61 2.61-.15 5.04 1.81 5.04 4.36 0 2.55-1.64 5-4.85 4.87-2.62-.11-4.75-2.07-4.75-4.62Z"/><path fill="url(#q)" d="M57.03 97.36a4.76 4.61 0 1 1-9.52 0 4.76 4.61 0 1 1 9.52 0Z"/><path fill="url(#r)" d="M47.47 97.36c0-2.55 1.94-4.46 4.56-4.61 2.61-.15 5.04 1.81 5.04 4.36 0 2.55-1.64 5-4.85 4.87-2.62-.11-4.75-2.07-4.75-4.62Z"/><path fill="url(#s)" d="M69.16 95.66a4.76 4.61 0 1 1-9.52 0 4.76 4.61 0 1 1 9.52 0Z"/><path fill="url(#t)" d="M59.6 95.66c0-2.55 1.94-4.46 4.56-4.61 2.61-.15 5.04 1.81 5.04 4.36 0 2.55-1.64 5-4.85 4.87-2.62-.12-4.75-2.07-4.75-4.62Z"/><path fill="url(#u)" d="M83.72 99.49a4.76 4.61 0 1 1-9.52 0 4.76 4.61 0 1 1 9.52 0Z"/><path fill="url(#v)" d="M74.16 99.49c0-2.55 1.94-4.46 4.56-4.61 2.61-.15 5.04 1.81 5.04 4.36 0 2.55-1.64 5-4.85 4.87-2.62-.12-4.75-2.07-4.75-4.62Z"/><path fill="url(#w)" d="M47.58 89.31a4.76 4.61 0 1 1-9.52 0 4.76 4.61 0 1 1 9.52 0Z"/><path fill="url(#x)" d="M38.02 89.31c0-2.55 1.94-4.46 4.56-4.61 2.61-.15 5.04 1.81 5.04 4.36 0 2.55-1.64 5-4.85 4.87-2.62-.11-4.75-2.07-4.75-4.62Z"/><path fill="url(#y)" d="M56.38 114.16a4.76 4.61 0 1 1-9.52 0 4.76 4.61 0 1 1 9.52 0Z"/><path fill="url(#z)" d="M46.82 114.17c0-2.55 1.94-4.46 4.56-4.61 2.61-.15 5.04 1.81 5.04 4.36 0 2.55-1.64 5-4.85 4.87-2.62-.12-4.75-2.08-4.75-4.62Z"/><path fill="#33AC71" d="M101.31 40.11c.16-.93 1.09-3.65.52-5.62 0 0-2.08 9.1-37.83 9.1s-38.01-9-38.01-9c-.21 1.81.55 4.58.7 5.52.51 3.05-1.66 3.01-1.66 3.01s.35 3.34 6.35 2.73c1.1-.11 3.97-.76 5.52 1 1.48 1.68 2.77 3.23 5.32 4.01 3.64 1.1 6.46-1.71 10.94-.75 2.76.59 4.52 2.3 9.23 2.8 5.21.56 7-2.19 9.8-2.6 5.06-.74 6.76 1.14 10.94 1.02 4.82-.13 6.4-2.45 8.24-3.71 2.72-1.86 4.97-.71 6.08-.6 6 .62 5.53-3.88 5.53-3.88s-2.18.01-1.67-3.03Z"/><path fill="#72E6AC" d="M63.92 23.35c-21.49 0-37.91 5.15-37.91 11.5s16.41 11.5 37.91 11.5c21.5 0 37.91-5.15 37.91-11.5s-16.42-11.5-37.91-11.5Zm12.84 15.29c-4.76 0-8.61-1.38-8.61-3.07 0-1.7 3.86-3.07 8.61-3.07s8.61 1.38 8.61 3.07c0 1.7-3.86 3.07-8.61 3.07Z"/><path fill="#B39DDB" d="M87.81 4.7c-3.95-1.06-7.16.05-8.06 2.61l-9.07 30.52s1.85.96 7.42.96c4.55 0 7.03-2.25 7.03-2.25s7.07-25 7.36-25.98c.68-2.24-1.23-4.93-4.68-5.86Z"/><path fill="#9575CD" d="M78.1 38.79c4.55 0 7.03-2.25 7.03-2.25l1.1-3.89s-3.83 2.92-7.91 3.87c-4.38 1.02-7.64 1.31-7.64 1.31s1.85.96 7.42.96Z"/><path fill="#7E57C2" d="M87.188 5.715c2.748.757 4.558 2.882 4.044 4.745-.514 1.864-3.157 2.76-5.904 2.003-2.747-.758-4.558-2.882-4.044-4.746.514-1.863 3.157-2.76 5.904-2.002Z"/><path fill="#33AC71" d="m71.73 34.3.45-1.51c-.59.16-1.22.36-1.83.62-1.32.55-2.03 1.02-2.21 1.97-.15.8.63 1.4.63 1.4s-.04-.67.33-1.05c.76-.79 1.2-.96 2.63-1.43Z"/><path fill="#FFF" d="M33.33 57.21c-.86-6.66 5.83-7.34 6.93 5.14l.4 13.92s.52 3.99-1.44 4.42c-2.93.64-3.26-3.68-3.26-3.68S34 62.34 33.33 57.21Z" opacity=".79"/></svg>