<svg xmlns="http://www.w3.org/2000/svg" viewBox="0 0 128 128"><path fill="#E2A610" d="M120.27 7.69A12.527 12.527 0 0 0 111.36 4c-3.36 0-6.53 1.31-8.91 3.69-4.91 4.92-4.91 12.92 0 17.84 2.38 2.38 5.55 3.69 8.91 3.69 3.37 0 6.53-1.31 8.92-3.69 4.91-4.92 4.91-12.92-.01-17.84Zm-13.89 3.94a6.99 6.99 0 0 1 4.97-2.06c1.87 0 3.65.73 4.98 2.06 2.75 2.75 2.75 7.22 0 9.96a6.997 6.997 0 0 1-4.98 2.06c-1.88 0-3.65-.73-4.97-2.06-2.74-2.74-2.74-7.21 0-9.96Z"/><path fill="#FFCA28" d="m105.51 30.95-8.47-8.48 6.04-6.05a3.44 3.44 0 0 1 4.86 0l3.62 3.62a3.428 3.428 0 0 1 0 4.85l-6.05 6.06Z"/><path fill="#E2A610" d="M107.69 28.76s1.33-2.67-2.24-6.24c-3.57-3.57-6.27-2.2-6.27-2.2l-2.14 2.15 8.47 8.48 2.18-2.19Z"/><path fill="#FFCA28" d="M120.7 65.63a58.33 58.37 0 1 1-116.66 0 58.33 58.37 0 1 1 116.66 0Z"/><path fill="#FFF" d="M109.66 65.63a47.29 47.32 0 1 1-94.58 0 47.29 47.32 0 1 1 94.58 0Z"/><path fill="#E0C3AB" d="m68.78 72.05-6.41 27.71-6.41-27.71-27.7-6.42 27.7-6.41 6.41-27.72 6.41 27.72 27.7 6.41Z"/><path fill="#B2947C" d="m71.43 65.63 15.06 24.14L62.37 74.7 38.25 89.77l15.06-24.14L38.25 41.5l24.12 15.06L86.49 41.5Z"/><path fill="#212121" d="M50.45 86.94s12.82-9.09 17.68-13.95C73 68.14 83.26 53.87 83.26 53.87c2.75-3.05 5.84-10.76 6.7-13 .09-.24-.14-.48-.38-.39-1.96.75-8.17 3.2-12.5 5.96-5.41 3.46-15.09 11.37-19.6 15.88-4.51 4.51-10.37 13.2-13.7 17.93-2.78 3.96-6.26 11.32-7.31 13.61-.12.25.14.51.39.4 2.36-.99 10.01-4.36 13.59-7.32Z" opacity=".32"/><path fill="#F44336" d="M82.66 52.46c2.86-3.65 5.57-10.84 6.37-13.07.1-.27-.16-.53-.44-.44-2.23.8-9.41 3.52-13.06 6.38-4.35 3.41-18.82 15.3-18.82 15.3l10.65 10.66c.01 0 11.89-14.48 15.3-18.83Z"/><path fill="#2F7889" d="M41.41 79.48c-2.86 3.65-5.57 10.84-6.37 13.07-.1.27.16.53.44.44 2.23-.8 9.41-3.52 13.06-6.38 4.35-3.41 18.82-15.3 18.82-15.3L56.7 60.65S44.82 75.12 41.41 79.48Z"/><path fill="#94D1E0" d="M69.59 65.98a7.56 7.57 0 1 1-15.12 0 7.56 7.57 0 1 1 15.12 0Z"/><path fill="#F44336" d="M90.46 37.52a3.44 3.44 0 0 1 0-4.86l3.56-3.56 4.86 4.86-3.55 3.56a3.434 3.434 0 0 1-4.87 0Z"/><path fill="#B2947C" d="M34.28 93.74a3.44 3.44 0 0 1 0 4.86l-3.56 3.56-4.86-4.86 3.55-3.56a3.452 3.452 0 0 1 4.87 0Z"/><path fill="#E0C3AB" d="M102.1 65.63c0-1.9 1.54-3.44 3.44-3.44h5.02v6.88h-5.02a3.44 3.44 0 0 1-3.44-3.44ZM22.65 65.63c0 1.9-1.54 3.44-3.44 3.44h-5.02v-6.88h5.02c1.9 0 3.44 1.54 3.44 3.44Z"/><path fill="#B2947C" d="M90.46 93.74a3.44 3.44 0 0 1 4.86 0l3.55 3.56-4.86 4.86-3.56-3.56a3.45 3.45 0 0 1 .01-4.86ZM34.28 37.52a3.44 3.44 0 0 1-4.86 0l-3.55-3.56 4.86-4.86 3.56 3.56a3.45 3.45 0 0 1-.01 4.86Z"/><path fill="#E0C3AB" d="M62.37 105.38c1.9 0 3.44 1.54 3.44 3.44v5.03h-6.87v-5.03a3.425 3.425 0 0 1 3.43-3.44ZM62.37 25.88a3.44 3.44 0 0 1-3.44-3.44v-5.03h6.87v5.03c.01 1.9-1.53 3.44-3.43 3.44Z"/><path fill="#E2A610" d="M111.16 65.63q0 20.222-14.29 34.521t-34.5 14.299q-20.21 0-34.5-14.299T13.58 65.63q0-20.222 14.29-34.521t34.5-14.299q20.21 0 34.5 14.299t14.29 34.521Zm-3 0q0-18.98-13.412-32.4Q81.337 19.81 62.37 19.81T29.992 33.23Q16.58 46.65 16.58 65.63q0 18.979 13.412 32.4 13.411 13.42 32.378 13.42t32.378-13.42q13.412-13.421 13.412-32.4Z"/><path fill="#FFF59D" d="M8.72 64.92S6.6 54.18 12.25 40.88C20.59 21.26 38.6 10.46 57.97 9.62c14.53-.63 22.91 4.16 22.91 4.16s-11.82-.97-19.97-.61c-19.66.87-33.32 9.84-42.68 25.18-7.7 12.64-9.51 26.57-9.51 26.57Z"/></svg>