<svg xmlns="http://www.w3.org/2000/svg" viewBox="0 0 128 128"><path fill="#AD7146" d="M19.25 17.49h92.54v2.54H19.25v-2.54ZM19.25 37.44h92.54v2.54H19.25v-2.54ZM19.25 57.05h92.54v2.54H19.25v-2.54ZM19.25 76.38h92.54v2.54H19.25v-2.54ZM19.25 95.71h92.54v2.54H19.25v-2.54Z"/><path fill="#D99B61" d="M19.25 114.85h-4.07c-1.12 0-2.03-.92-2.03-2.03V6.03c0-1.12.92-2.03 2.03-2.03h4.07c1.12 0 2.03.92 2.03 2.03v106.78c.01 1.12-.91 2.04-2.03 2.04ZM112.81 114.85h-4.07c-1.12 0-2.03-.92-2.03-2.03V6.03c0-1.12.92-2.03 2.03-2.03h4.07c1.12 0 2.03.92 2.03 2.03v106.78c.01 1.12-.91 2.04-2.03 2.04Z"/><path fill="#BF7C4E" d="M13.15 108.09v4.72c0 1.12.92 2.03 2.03 2.03h4.07c1.12 0 2.03-.92 2.03-2.03v-4.72h-8.13ZM106.71 108.09v4.72c0 1.12.92 2.03 2.03 2.03h4.07c1.12 0 2.03-.92 2.03-2.03v-4.72h-8.13Z"/><path fill="#D99B61" d="M118.92 124H9.08c-1.12 0-2.03-.92-2.03-2.03v-8.14c0-1.12.92-2.03 2.03-2.03h109.83c1.12 0 2.03.92 2.03 2.03v8.14a2.03 2.03 0 0 1-2.02 2.03Z"/><path fill="#AD7146" d="M19.25 17.49h92.54v2.54H19.25v-2.54ZM19.25 37.44h92.54v2.54H19.25v-2.54ZM19.25 57.05h92.54v2.54H19.25v-2.54ZM19.25 76.38h92.54v2.54H19.25v-2.54ZM19.25 95.71h92.54v2.54H19.25v-2.54Z"/><path fill="#D99B61" d="M19.25 114.85h-4.07c-1.12 0-2.03-.92-2.03-2.03V6.03c0-1.12.92-2.03 2.03-2.03h4.07c1.12 0 2.03.92 2.03 2.03v106.78c.01 1.12-.91 2.04-2.03 2.04ZM112.81 114.85h-4.07c-1.12 0-2.03-.92-2.03-2.03V6.03c0-1.12.92-2.03 2.03-2.03h4.07c1.12 0 2.03.92 2.03 2.03v106.78c.01 1.12-.91 2.04-2.03 2.04Z"/><path fill="#BF7C4E" d="M13.15 108.09v4.72c0 1.12.92 2.03 2.03 2.03h4.07c1.12 0 2.03-.92 2.03-2.03v-4.72h-8.13ZM106.71 108.09v4.72c0 1.12.92 2.03 2.03 2.03h4.07c1.12 0 2.03-.92 2.03-2.03v-4.72h-8.13Z"/><path fill="#D99B61" d="M118.92 124H9.08c-1.12 0-2.03-.92-2.03-2.03v-8.14c0-1.12.92-2.03 2.03-2.03h109.83c1.12 0 2.03.92 2.03 2.03v8.14a2.03 2.03 0 0 1-2.02 2.03Z"/><path fill="#1976D2" d="M24.85 90.37c-1.96 0-3.56 1.61-3.56 3.56v6.1c0 1.95 1.6 3.56 3.56 3.56s3.56-1.61 3.56-3.56v-6.1c0-1.96-1.61-3.56-3.56-3.56ZM32.98 90.37c-1.96 0-3.56 1.61-3.56 3.56v6.1c0 1.95 1.6 3.56 3.56 3.56s3.56-1.61 3.56-3.56v-6.1c0-1.96-1.6-3.56-3.56-3.56ZM41.12 90.37c-1.96 0-3.56 1.61-3.56 3.56v6.1c0 1.95 1.6 3.56 3.56 3.56s3.56-1.61 3.56-3.56v-6.1c0-1.96-1.61-3.56-3.56-3.56ZM51.29 90.37c-1.96 0-3.56 1.61-3.56 3.56v6.1c0 1.95 1.6 3.56 3.56 3.56s3.56-1.61 3.56-3.56v-6.1c0-1.96-1.61-3.56-3.56-3.56ZM59.42 90.37c-1.96 0-3.56 1.61-3.56 3.56v6.1c0 1.95 1.6 3.56 3.56 3.56s3.56-1.61 3.56-3.56v-6.1c0-1.96-1.6-3.56-3.56-3.56ZM67.56 90.37c-1.96 0-3.56 1.61-3.56 3.56v6.1c0 1.95 1.6 3.56 3.56 3.56s3.56-1.61 3.56-3.56v-6.1c0-1.96-1.61-3.56-3.56-3.56ZM79.25 90.37c-1.96 0-3.56 1.61-3.56 3.56v6.1c0 1.95 1.6 3.56 3.56 3.56s3.56-1.61 3.56-3.56v-6.1c0-1.96-1.6-3.56-3.56-3.56ZM86.88 90.37c-1.96 0-3.56 1.61-3.56 3.56v6.1c0 1.95 1.6 3.56 3.56 3.56s3.56-1.61 3.56-3.56v-6.1c0-1.96-1.61-3.56-3.56-3.56ZM94.51 90.37c-1.96 0-3.56 1.61-3.56 3.56v6.1c0 1.95 1.6 3.56 3.56 3.56s3.56-1.61 3.56-3.56v-6.1c0-1.96-1.61-3.56-3.56-3.56ZM102.14 90.37c-1.96 0-3.56 1.61-3.56 3.56v6.1c0 1.95 1.6 3.56 3.56 3.56s3.56-1.61 3.56-3.56v-6.1c-.01-1.96-1.61-3.56-3.56-3.56Z"/><path fill="#689F38" d="M24.85 71.12c-1.96 0-3.56 1.61-3.56 3.56v6.1c0 1.95 1.6 3.56 3.56 3.56s3.56-1.61 3.56-3.56v-6.1c0-1.96-1.61-3.56-3.56-3.56ZM32.98 71.12c-1.96 0-3.56 1.61-3.56 3.56v6.1c0 1.95 1.6 3.56 3.56 3.56s3.56-1.61 3.56-3.56v-6.1c0-1.96-1.6-3.56-3.56-3.56ZM41.12 71.12c-1.96 0-3.56 1.61-3.56 3.56v6.1c0 1.95 1.6 3.56 3.56 3.56s3.56-1.61 3.56-3.56v-6.1c0-1.96-1.61-3.56-3.56-3.56ZM49.25 71.12c-1.96 0-3.56 1.61-3.56 3.56v6.1c0 1.95 1.6 3.56 3.56 3.56s3.56-1.61 3.56-3.56v-6.1c0-1.96-1.6-3.56-3.56-3.56ZM62.47 71.12c-1.96 0-3.56 1.61-3.56 3.56v6.1c0 1.95 1.6 3.56 3.56 3.56s3.56-1.61 3.56-3.56v-6.1c0-1.96-1.6-3.56-3.56-3.56ZM70.41 71.12c-1.96 0-3.56 1.61-3.56 3.56v6.1c0 1.95 1.6 3.56 3.56 3.56s3.56-1.61 3.56-3.56v-6.1c0-1.96-1.61-3.56-3.56-3.56ZM78.34 71.12c-1.96 0-3.56 1.61-3.56 3.56v6.1c0 1.95 1.6 3.56 3.56 3.56s3.56-1.61 3.56-3.56v-6.1c0-1.96-1.61-3.56-3.56-3.56ZM86.27 71.12c-1.96 0-3.56 1.61-3.56 3.56v6.1c0 1.95 1.6 3.56 3.56 3.56s3.56-1.61 3.56-3.56v-6.1c0-1.96-1.61-3.56-3.56-3.56ZM94.2 71.12c-1.96 0-3.56 1.61-3.56 3.56v6.1c0 1.95 1.6 3.56 3.56 3.56s3.56-1.61 3.56-3.56v-6.1c0-1.96-1.6-3.56-3.56-3.56ZM102.14 71.12c-1.96 0-3.56 1.61-3.56 3.56v6.1c0 1.95 1.6 3.56 3.56 3.56s3.56-1.61 3.56-3.56v-6.1c-.01-1.96-1.61-3.56-3.56-3.56Z"/><path fill="#FFCA28" d="M24.85 51.72c-1.96 0-3.56 1.61-3.56 3.56v6.1c0 1.95 1.6 3.56 3.56 3.56s3.56-1.61 3.56-3.56v-6.1c0-1.97-1.61-3.56-3.56-3.56ZM32.98 51.72c-1.96 0-3.56 1.61-3.56 3.56v6.1c0 1.95 1.6 3.56 3.56 3.56s3.56-1.61 3.56-3.56v-6.1c0-1.97-1.6-3.56-3.56-3.56ZM41.12 51.72c-1.96 0-3.56 1.61-3.56 3.56v6.1c0 1.95 1.6 3.56 3.56 3.56s3.56-1.61 3.56-3.56v-6.1c0-1.97-1.61-3.56-3.56-3.56ZM49.25 51.72c-1.96 0-3.56 1.61-3.56 3.56v6.1c0 1.95 1.6 3.56 3.56 3.56s3.56-1.61 3.56-3.56v-6.1c0-1.97-1.6-3.56-3.56-3.56ZM57.39 51.72c-1.96 0-3.56 1.61-3.56 3.56v6.1c0 1.95 1.6 3.56 3.56 3.56s3.56-1.61 3.56-3.56v-6.1c0-1.97-1.61-3.56-3.56-3.56ZM65.53 51.72c-1.96 0-3.56 1.61-3.56 3.56v6.1c0 1.95 1.6 3.56 3.56 3.56s3.56-1.61 3.56-3.56v-6.1c0-1.97-1.61-3.56-3.56-3.56ZM73.66 51.72c-1.96 0-3.56 1.61-3.56 3.56v6.1c0 1.95 1.6 3.56 3.56 3.56s3.56-1.61 3.56-3.56v-6.1c0-1.97-1.61-3.56-3.56-3.56ZM81.8 51.72c-1.96 0-3.56 1.61-3.56 3.56v6.1c0 1.95 1.6 3.56 3.56 3.56s3.56-1.61 3.56-3.56v-6.1c0-1.97-1.61-3.56-3.56-3.56ZM89.93 51.72c-1.96 0-3.56 1.61-3.56 3.56v6.1c0 1.95 1.6 3.56 3.56 3.56s3.56-1.61 3.56-3.56v-6.1c0-1.97-1.6-3.56-3.56-3.56ZM102.14 51.72c-1.96 0-3.56 1.61-3.56 3.56v6.1c0 1.95 1.6 3.56 3.56 3.56s3.56-1.61 3.56-3.56v-6.1c-.01-1.97-1.61-3.56-3.56-3.56Z"/><path fill="#F57C00" d="M24.85 32.1c-1.96 0-3.56 1.61-3.56 3.56v6.1c0 1.95 1.6 3.56 3.56 3.56s3.56-1.61 3.56-3.56v-6.1c0-1.97-1.61-3.56-3.56-3.56ZM32.9 32.1c-1.96 0-3.56 1.61-3.56 3.56v6.1c0 1.95 1.6 3.56 3.56 3.56s3.56-1.61 3.56-3.56v-6.1c0-1.97-1.61-3.56-3.56-3.56ZM43.07 32.1c-1.96 0-3.56 1.61-3.56 3.56v6.1c0 1.95 1.6 3.56 3.56 3.56s3.56-1.61 3.56-3.56v-6.1c0-1.97-1.61-3.56-3.56-3.56ZM56.37 32.1c-1.96 0-3.56 1.61-3.56 3.56v6.1c0 1.95 1.6 3.56 3.56 3.56s3.56-1.61 3.56-3.56v-6.1c0-1.97-1.6-3.56-3.56-3.56ZM64.17 32.1c-1.96 0-3.56 1.61-3.56 3.56v6.1c0 1.95 1.6 3.56 3.56 3.56s3.56-1.61 3.56-3.56v-6.1c0-1.97-1.61-3.56-3.56-3.56ZM71.97 32.1c-1.96 0-3.56 1.61-3.56 3.56v6.1c0 1.95 1.6 3.56 3.56 3.56s3.56-1.61 3.56-3.56v-6.1c0-1.97-1.61-3.56-3.56-3.56ZM79.76 32.1c-1.96 0-3.56 1.61-3.56 3.56v6.1c0 1.95 1.6 3.56 3.56 3.56s3.56-1.61 3.56-3.56v-6.1c0-1.97-1.6-3.56-3.56-3.56ZM87.56 32.1c-1.96 0-3.56 1.61-3.56 3.56v6.1c0 1.95 1.6 3.56 3.56 3.56s3.56-1.61 3.56-3.56v-6.1c0-1.97-1.61-3.56-3.56-3.56ZM95.36 32.1c-1.96 0-3.56 1.61-3.56 3.56v6.1c0 1.95 1.6 3.56 3.56 3.56s3.56-1.61 3.56-3.56v-6.1c0-1.97-1.61-3.56-3.56-3.56ZM103.15 32.1c-1.96 0-3.56 1.61-3.56 3.56v6.1c0 1.95 1.6 3.56 3.56 3.56s3.56-1.61 3.56-3.56v-6.1c0-1.97-1.6-3.56-3.56-3.56Z"/><path fill="#D82521" d="M24.85 12.16c-1.96 0-3.56 1.61-3.56 3.56v6.1c0 1.95 1.6 3.56 3.56 3.56s3.56-1.61 3.56-3.56v-6.1c0-1.97-1.61-3.56-3.56-3.56ZM32.48 12.16c-1.96 0-3.56 1.61-3.56 3.56v6.1c0 1.95 1.6 3.56 3.56 3.56s3.56-1.61 3.56-3.56v-6.1c-.01-1.97-1.61-3.56-3.56-3.56ZM40.1 12.16c-1.96 0-3.56 1.61-3.56 3.56v6.1c0 1.95 1.6 3.56 3.56 3.56s3.56-1.61 3.56-3.56v-6.1c0-1.97-1.61-3.56-3.56-3.56ZM47.73 12.16c-1.96 0-3.56 1.61-3.56 3.56v6.1c0 1.95 1.6 3.56 3.56 3.56s3.56-1.61 3.56-3.56v-6.1c0-1.97-1.61-3.56-3.56-3.56ZM55.36 12.16c-1.96 0-3.56 1.61-3.56 3.56v6.1c0 1.95 1.6 3.56 3.56 3.56s3.56-1.61 3.56-3.56v-6.1c0-1.97-1.61-3.56-3.56-3.56ZM65.53 12.16c-1.96 0-3.56 1.61-3.56 3.56v6.1c0 1.95 1.6 3.56 3.56 3.56s3.56-1.61 3.56-3.56v-6.1c0-1.97-1.61-3.56-3.56-3.56ZM73.66 12.16c-1.96 0-3.56 1.61-3.56 3.56v6.1c0 1.95 1.6 3.56 3.56 3.56s3.56-1.61 3.56-3.56v-6.1c0-1.97-1.61-3.56-3.56-3.56ZM86.88 12.16c-1.96 0-3.56 1.61-3.56 3.56v6.1c0 1.95 1.6 3.56 3.56 3.56s3.56-1.61 3.56-3.56v-6.1c0-1.97-1.61-3.56-3.56-3.56ZM95.02 12.16c-1.96 0-3.56 1.61-3.56 3.56v6.1c0 1.95 1.6 3.56 3.56 3.56s3.56-1.61 3.56-3.56v-6.1c0-1.97-1.61-3.56-3.56-3.56ZM103.15 12.16c-1.96 0-3.56 1.61-3.56 3.56v6.1c0 1.95 1.6 3.56 3.56 3.56s3.56-1.61 3.56-3.56v-6.1c0-1.97-1.6-3.56-3.56-3.56Z"/><path fill="#2196F3" d="M22.48 93.7c-.04.7-.37 3.82 2.32 3.82s2.19-3.02 2.17-3.77c-.02-.58-.06-1.17-.37-1.68s-1.36-1.24-2.61-.81c-1.26.43-1.48 1.94-1.51 2.44ZM30.65 94.16c-.04.7.15 3.33 2.36 3.08 2.66-.3 2.48-2.73 2.46-3.49-.02-.58-.14-1.36-.66-1.97-.4-.46-1.54-1.08-2.79-.45-1.18.6-1.34 2.33-1.37 2.83ZM38.66 94.04c-.04.7.15 2.83 2.36 3.08 2.47.28 2.6-2.29 2.46-3.49-.07-.57-.65-2.73-2.73-2.48-2.09.25-2.06 2.39-2.09 2.89ZM65.31 93.7c-.04.7-.37 3.82 2.32 3.82s2.19-3.02 2.17-3.77c-.02-.58-.06-1.17-.37-1.68s-1.36-1.24-2.61-.81c-1.27.43-1.48 1.94-1.51 2.44ZM84.63 93.7c-.04.7-.37 3.82 2.32 3.82s2.19-3.02 2.17-3.77c-.02-.58-.06-1.17-.37-1.68s-1.36-1.24-2.61-.81c-1.27.43-1.48 1.94-1.51 2.44ZM57.09 94.16c-.04.7.15 2.83 2.36 3.08 2.52.28 2.48-2.73 2.46-3.49-.02-.58-.14-1.36-.66-1.97-.4-.46-1.54-1.08-2.79-.45-1.18.6-1.34 2.33-1.37 2.83ZM76.85 94.16c-.04.7.15 2.83 2.36 3.08 2.52.28 2.48-2.73 2.46-3.49-.02-.58-.14-1.36-.66-1.97-.4-.46-1.54-1.08-2.79-.45-1.18.6-1.34 2.33-1.37 2.83Z"/><path fill="#8BC34A" d="M46.85 74.75c-.04.64.15 2.61 2.36 2.83 2.52.26 2.48-2.51 2.46-3.21-.02-.53-.14-1.25-.66-1.81-.4-.43-1.54-.99-2.79-.41-1.18.55-1.34 2.15-1.37 2.6Z"/><path fill="#2196F3" d="M48.86 94.04c-.04.7.15 2.83 2.36 3.08 2.47.28 2.6-2.29 2.46-3.49-.07-.57-.65-2.73-2.73-2.48s-2.06 2.39-2.09 2.89Z"/><path fill="#8BC34A" d="M38.86 74.33c-.2.98-.08 3.56 2.32 3.59 2.67.03 2.27-2.84 2.17-3.54-.3-2.13-1.73-2.74-2.99-2.33-1.26.39-1.41 1.82-1.5 2.28Z"/><path fill="#FFEB3B" d="M38.87 54.94c-.2.98-.08 3.56 2.32 3.59 2.67.03 2.27-2.84 2.17-3.54-.3-2.13-1.73-2.74-2.99-2.33-1.26.39-1.41 1.82-1.5 2.28ZM47 54.94c-.2.98-.08 3.56 2.32 3.59 2.67.03 2.24-2.84 2.17-3.54-.16-1.72-.93-2.43-2.24-2.45-1.96-.03-2.15 1.94-2.25 2.4Z"/><path fill="#8BC34A" d="M30.64 74.99c-.04.7.13 3.06 2.36 3.07 2.48.02 2.48-2.72 2.46-3.48-.02-.57-.14-1.35-.66-1.96-.4-.46-1.54-1.08-2.79-.44-1.18.59-1.34 2.32-1.37 2.81ZM22.41 74.84c-.04.7.15 2.83 2.36 3.08 2.47.28 2.6-2.29 2.46-3.49-.07-.57-.65-2.73-2.73-2.48-2.09.25-2.06 2.39-2.09 2.89Z"/><path fill="#F44336" d="M45.32 15.94c-.04.64.15 2.61 2.36 2.83 2.52.26 2.48-2.51 2.46-3.21-.02-.53-.14-1.25-.66-1.81-.4-.43-1.54-.99-2.79-.41-1.18.55-1.34 2.14-1.37 2.6ZM63.12 15.94c-.04.64.15 2.61 2.36 2.83 2.52.26 2.48-2.51 2.46-3.21-.02-.53-.14-1.25-.66-1.81-.4-.43-1.54-.99-2.79-.41-1.18.55-1.34 2.14-1.37 2.6ZM76.49 15.94c.04.64-.15 2.61-2.45 2.83-2.62.26-2.58-2.51-2.56-3.21.02-.53.15-1.25.69-1.81.41-.43 1.6-.99 2.9-.41 1.22.55 1.39 2.14 1.42 2.6ZM37.65 15.5c-.2.98-.08 3.56 2.32 3.59 2.67.03 2.27-2.84 2.17-3.54-.3-2.13-1.73-2.74-2.99-2.33-1.26.4-1.41 1.83-1.5 2.28ZM30.02 16.17c-.04.7.13 3.06 2.36 3.07 2.48.02 2.48-2.72 2.46-3.48-.02-.57-.14-1.35-.66-1.96-.4-.46-1.54-1.08-2.79-.44-1.18.59-1.34 2.32-1.37 2.81ZM92.85 15.27c-.32.95-.52 3.53 1.86 3.81 2.65.31 2.6-2.58 2.59-3.29-.04-2.15-1.39-2.9-2.68-2.63-1.29.26-1.62 1.66-1.77 2.11ZM84.34 16.17c-.04.7.13 3.06 2.36 3.07 2.48.02 2.48-2.72 2.46-3.48-.02-.57-.14-1.35-.66-1.96-.4-.46-1.54-1.08-2.79-.44-1.17.59-1.34 2.32-1.37 2.81ZM100.98 16.33c.01.7.36 3.04 2.58 2.92 2.47-.14 2.27-2.88 2.19-3.62-.06-.57-.24-1.34-.81-1.91-.43-.44-1.61-.98-2.82-.27-1.11.65-1.14 2.38-1.14 2.88ZM53.27 16.45c.05.7.54 3.02 2.75 2.78 2.46-.26 2.1-2.99 1.98-3.73-.09-.57-.32-1.33-.92-1.87-.45-.41-1.67-.89-2.83-.12-1.09.71-1.02 2.44-.98 2.94ZM22.41 16.01c-.04.7.15 2.83 2.36 3.08 2.47.28 2.6-2.29 2.46-3.49-.07-.57-.65-2.73-2.73-2.48-2.09.25-2.06 2.39-2.09 2.89Z"/><path fill="#FFEB3B" d="M30.41 55.46c-.04.7.13 3.06 2.36 3.07 2.48.02 2.48-2.72 2.46-3.48-.02-.57-.14-1.35-.66-1.96-.4-.46-1.54-1.08-2.79-.44-1.17.59-1.34 2.31-1.37 2.81ZM79.58 54.94c-.2.98-.08 3.56 2.32 3.59 2.67.03 2.27-2.84 2.17-3.54-.3-2.13-1.73-2.74-2.99-2.33-1.26.39-1.41 1.82-1.5 2.28ZM71.12 55.46c-.04.7.13 3.06 2.36 3.07 2.48.02 2.48-2.72 2.46-3.48-.02-.57-.14-1.35-.66-1.96-.4-.46-1.54-1.08-2.79-.44-1.17.59-1.34 2.31-1.37 2.81ZM87.53 55.46c-.04.7.13 3.06 2.36 3.07 2.48.02 2.48-2.72 2.46-3.48-.02-.57-.14-1.35-.66-1.96-.4-.46-1.54-1.08-2.79-.44-1.18.59-1.34 2.31-1.37 2.81ZM54.99 55.65c.03.7.42 2.86 2.64 2.87 2.3.01 2.21-2.92 2.12-3.66-.07-.57-.27-1.34-.85-1.9-.44-.43-1.63-.95-2.82-.21-1.11.68-1.1 2.41-1.09 2.9ZM22.47 55.43c-.04.7.15 2.83 2.36 3.08 2.47.28 2.6-2.29 2.46-3.49-.07-.57-.65-2.73-2.73-2.48s-2.06 2.39-2.09 2.89ZM63.1 55.43c-.04.7.13 3.07 2.36 3.08 2.54.01 2.6-2.29 2.46-3.49-.07-.57-.65-2.73-2.73-2.48-2.09.25-2.06 2.39-2.09 2.89ZM99.71 55.43c-.04.7.13 3.07 2.36 3.08 2.54.01 2.6-2.29 2.46-3.49-.07-.57-.65-2.73-2.73-2.48-2.1.25-2.06 2.39-2.09 2.89Z"/><path fill="#FF9800" d="M61.92 35.05c-.2.98-.08 3.56 2.32 3.59 2.67.03 2.27-2.84 2.17-3.54-.3-2.13-1.73-2.74-2.99-2.33-1.26.39-1.41 1.82-1.5 2.28ZM77.36 35.72c-.04.7.13 3.06 2.36 3.07 2.48.02 2.48-2.72 2.46-3.48-.02-.57-.14-1.35-.66-1.96-.4-.46-1.54-1.08-2.79-.44-1.18.59-1.34 2.31-1.37 2.81ZM92.92 35.72c-.04.7.13 3.06 2.36 3.07 2.48.02 2.48-2.72 2.46-3.48-.02-.57-.14-1.35-.66-1.96-.4-.46-1.54-1.08-2.79-.44-1.18.59-1.34 2.31-1.37 2.81ZM85.11 35.72c-.04.7.13 3.06 2.36 3.07 2.48.02 2.48-2.72 2.46-3.48-.02-.57-.14-1.35-.66-1.96-.4-.46-1.54-1.08-2.79-.44-1.17.59-1.34 2.31-1.37 2.81ZM53.95 35.55c-.04.7.13 3.07 2.36 3.08 2.54.01 2.6-2.29 2.46-3.49-.07-.57-.65-2.73-2.73-2.48s-2.06 2.39-2.09 2.89ZM40.64 35.63c-.04.7.13 3.07 2.36 3.08 2.54.01 2.6-2.29 2.46-3.49-.07-.57-.65-2.73-2.73-2.48-2.09.25-2.06 2.39-2.09 2.89ZM69.54 35.55c-.04.7.13 3.07 2.36 3.08 2.54.01 2.6-2.29 2.46-3.49-.07-.57-.65-2.73-2.73-2.48s-2.06 2.39-2.09 2.89ZM100.73 35.55c-.04.7.13 3.07 2.36 3.08 2.54.01 2.6-2.29 2.46-3.49-.07-.57-.65-2.73-2.73-2.48s-2.07 2.39-2.09 2.89ZM22.43 35.72c-.04.7.13 3.06 2.36 3.07 2.48.02 2.48-2.72 2.46-3.48-.02-.57-.14-1.35-.66-1.96-.4-.46-1.54-1.08-2.79-.44-1.18.59-1.34 2.31-1.37 2.81ZM30.52 35.21c-.16.69-.37 3.06 1.83 3.37 2.51.36 2.95-1.9 3-3.11.02-.58-.19-2.79-2.3-2.83-2.11-.04-2.42 2.08-2.53 2.57Z"/><path fill="#8BC34A" d="M68 74.75c-.04.64.15 2.61 2.36 2.83 2.52.26 2.48-2.51 2.46-3.21-.02-.53-.14-1.25-.66-1.81-.4-.43-1.54-.99-2.79-.41-1.18.55-1.34 2.15-1.37 2.6ZM83.86 74.75c-.04.64.15 2.61 2.36 2.83 2.52.26 2.48-2.51 2.46-3.21-.02-.53-.14-1.25-.66-1.81-.4-.43-1.54-.99-2.79-.41-1.17.55-1.34 2.15-1.37 2.6ZM76.09 74.17c-.2.98-.08 3.56 2.32 3.59 2.67.03 2.27-2.84 2.17-3.54-.3-2.13-1.73-2.74-2.99-2.33-1.26.41-1.41 1.82-1.5 2.28ZM91.8 74.99c-.04.7.13 3.06 2.36 3.07 2.48.02 2.48-2.72 2.46-3.48-.02-.57-.14-1.35-.66-1.96-.4-.46-1.54-1.08-2.79-.44-1.18.59-1.34 2.32-1.37 2.81ZM60.16 74.84c-.04.7.15 2.83 2.36 3.08 2.47.28 2.6-2.29 2.46-3.49-.07-.57-.65-2.73-2.73-2.48-2.1.25-2.06 2.39-2.09 2.89ZM99.71 74.84c-.04.7.15 2.83 2.36 3.08 2.47.28 2.6-2.29 2.46-3.49-.07-.57-.65-2.73-2.73-2.48-2.09.25-2.06 2.39-2.09 2.89Z"/><path fill="#2196F3" d="M92.08 94.04c-.04.7 0 3.73 2.43 3.48 2.47-.25 2.53-2.69 2.39-3.89-.07-.57-.65-2.73-2.73-2.48s-2.06 2.39-2.09 2.89ZM99.71 94.06c-.04.7.15 2.83 2.36 3.08 2.47.28 2.6-2.29 2.46-3.49-.07-.57-.65-2.73-2.73-2.48-2.09.26-2.06 2.4-2.09 2.89Z"/></svg>