<svg xmlns="http://www.w3.org/2000/svg" viewBox="0 0 128 128"><defs><radialGradient id="a" cx="42.391" cy="37.173" r="16.66" gradientTransform="matrix(.9796 .2007 -.2025 .9884 0 0)" gradientUnits="userSpaceOnUse"><stop offset=".376" stop-color="#80DEEA" stop-opacity="0"/><stop offset="1" stop-color="#80DEEA" stop-opacity=".8"/></radialGradient><radialGradient id="b" cx="37.636" cy="11.803" r="6.956" gradientTransform="rotate(5.315)" gradientUnits="userSpaceOnUse"><stop offset=".376" stop-color="#80DEEA" stop-opacity="0"/><stop offset="1" stop-color="#80DEEA" stop-opacity=".8"/></radialGradient><radialGradient id="c" cx="21.077" cy="30.096" r="8.834" gradientTransform="rotate(5.315)" gradientUnits="userSpaceOnUse"><stop offset=".376" stop-color="#80DEEA" stop-opacity="0"/><stop offset="1" stop-color="#80DEEA" stop-opacity=".8"/></radialGradient><radialGradient id="d" cx="106.944" cy="75.894" r="11.395" gradientTransform="rotate(11.579)" gradientUnits="userSpaceOnUse"><stop offset=".2" stop-color="#80DEEA" stop-opacity="0"/><stop offset="1" stop-color="#80DEEA" stop-opacity=".8"/></radialGradient><radialGradient id="e" cx="125.169" cy="78.846" r="6.027" gradientTransform="rotate(11.579)" gradientUnits="userSpaceOnUse"><stop offset=".312" stop-color="#80DEEA" stop-opacity="0"/><stop offset="1" stop-color="#80DEEA"/></radialGradient></defs><path fill="#EEBD1C" d="m122.68 46.87-41.8-14.44L4.03 66.57c-.17 4.45.38 15.13 1.12 16.2.78 1.12 3.86 3.63 3.43 4.92-.33.99-1.4 1.51-2.1 2.29-2.36 2.63 1.05 7.91 2.78 10.1 1.91 2.42 4.4 4.36 7.01 5.98 2.6 1.62 9.26 6.18 12.38 4.85.45-.19.82-.53 1.22-.81.81-.57 1.78-.96 2.77-.93.99.02 1.99.49 2.53 1.32 1.56 2.41 1.99 3.49 4.98 4.25 3.12.8 6.43 1.21 9.63 1.52 4.97.48 10.09.49 14.98-.66 6.68-1.57 12.55-5.64 14.57-12.44 3.33-11.19 19.65-15.81 26.57-17.11 1.42-.27 2.83-.56 4.23-.9.88-.22 3.58-.48 4.1-1.23.19-.28.24-.63.31-.96.25-1.16.89-2.28 1.91-2.88 1.02-.6 2.44-.58 3.31.23.09.08.17.17.28.23.79.37 2.31-1.85 2.64-2.38a8.558 8.558 0 0 0 1.3-4.4c.16-8.35-1.3-26.89-1.3-26.89Z"/><path fill="#FFEB3B" d="M102.71 29.18c-16.67-6.8-28.58-7.83-37.05-6.06a.66.66 0 0 0-.49.84c.06.19.1.41.11.66.01 1.21-2.09 2.62-4.92 2.84-1.07.08-2.07-.03-2.91-.28-.75-.22-1.57-.04-2.21.42-3.84 2.78-6.23 6.24-7.66 9.26-1.19 2.51-3.5 4.2-5.91 5.46-4.77 2.49-10.08 3.91-15.15 5.66-13.6 4.69-15.94 7.55-16.42 8.87-.2.55-.32 1.13-.61 1.63-.77 1.31-2.45 1.7-3.74 2.5-.59.37-1.58 2.48-1.72 5.17-.48 9.75 9.69 15.87 17.23 19.05 21.96 9.29 36.02 12.57 47.86-.62 4.97-5.53 8.51-10.61 11.72-12.19-1.24-.41-2.99-1.53-2.39-2.79 1.83-3.85 10.8-1.45 10.98-1.41.29.07 3.06-2.47 16.07-3.02 10.99-.46 34.37-20.83-2.79-35.99Z"/><path fill="#D19600" d="M28.19 88.01c.18 2.41-1.31 4.11-3.33 3.81-2.02-.31-3.81-2.51-3.99-4.91a4.4 4.4 0 0 1 .16-1.65s5.18-2.56 8.72-.82c3.54 1.74-1.56 3.57-1.56 3.57Z"/><path fill="#EEBD1C" d="M28.19 87.98c-1.23.4-2.57.45-3.8.05-.69-.22-1.33-.57-1.91-1.01-.3-.23-1.53-1.15-1.49-1.56.04-.43 1.23-.7 1.61-.83 2.23-.76 4.95-1.27 7.15-.19 1.76.86 1.31 2.04-.14 2.9-.45.27-.93.48-1.42.64Z"/><path fill="#D19600" d="M19.23 99.91c.16 2.19-1.19 3.72-3.02 3.45-1.83-.28-3.45-2.27-3.61-4.45-.16-2.18 1.19-3.72 3.02-3.45s3.45 2.28 3.61 4.45ZM42.84 101.6c.19 2.49-1.18 4.29-3.07 4.01-1.88-.28-3.55-2.51-3.74-4.99-.19-2.48 1.18-4.29 3.07-4.01 1.88.27 3.55 2.5 3.74 4.99ZM53.33 109.71c.11 1.51-.73 2.61-1.87 2.45-1.14-.16-2.17-1.53-2.28-3.05-.11-1.51.73-2.61 1.87-2.45 1.14.16 2.17 1.52 2.28 3.05ZM69.85 93.43c.04 2.62-1.31 5.34-3.01 6.08-1.7.74-3.12-.78-3.16-3.41-.04-2.62 1.31-5.34 3.01-6.08 1.7-.73 3.11.8 3.16 3.41ZM110.7 79.26c-.05 2.01-1.17 4.05-2.49 4.56-1.33.51-2.37-.69-2.32-2.71.05-2.01 1.17-4.05 2.49-4.56 1.33-.51 2.37.71 2.32 2.71ZM120.22 68.23c-.05 2.01-1.17 4.05-2.49 4.56-1.32.51-2.37-.69-2.32-2.71.05-2.01 1.17-4.05 2.49-4.56 1.33-.51 2.37.71 2.32 2.71ZM100.22 74.1c-.07 2.95-1.84 5.99-3.94 6.8-2.1.81-3.75-.9-3.68-3.85.07-2.95 1.84-5.99 3.94-6.8 2.1-.81 3.76.91 3.68 3.85Z"/><path fill="#EEBD1C" d="M30.663 59.08c.158 2.093-2.803 4.023-6.614 4.311-3.811.288-7.029-1.176-7.187-3.269-.158-2.092 2.803-4.022 6.615-4.31 3.811-.288 7.028 1.176 7.186 3.268ZM61.904 61.268c.215 2.841-4.312 5.5-10.112 5.938-5.799.438-10.674-1.511-10.889-4.353-.214-2.841 4.313-5.5 10.112-5.938 5.8-.438 10.675 1.511 10.889 4.353ZM69.953 35.522c.169 2.241-3.002 4.308-7.083 4.616-4.081.308-7.526-1.259-7.696-3.501-.169-2.241 3.002-4.308 7.083-4.616 4.081-.308 7.527 1.259 7.696 3.501ZM46.292 51.068c.094 1.256-1.681 2.414-3.967 2.586-2.286.173-4.215-.705-4.31-1.961-.095-1.255 1.681-2.413 3.967-2.586 2.285-.172 4.215.706 4.31 1.961ZM42.762 72.719c.095 1.256-1.681 2.414-3.967 2.586-2.285.173-4.215-.705-4.31-1.961-.095-1.255 1.681-2.413 3.967-2.586 2.286-.172 4.215.706 4.31 1.961ZM56.778 79.829c.134 1.774-2.378 3.409-5.611 3.653-3.233.245-5.962-.995-6.096-2.769-.134-1.773 2.378-3.408 5.611-3.653 3.233-.244 5.962.996 6.096 2.769ZM66.633 47.823c.087 1.151-1.544 2.212-3.642 2.371-2.098.158-3.87-.646-3.957-1.798-.086-1.151 1.544-2.212 3.642-2.371 2.099-.158 3.87.647 3.957 1.798ZM64.553 71.224c.087 1.151-1.543 2.212-3.642 2.371-2.098.158-3.869-.646-3.956-1.797-.087-1.151 1.543-2.213 3.642-2.371 2.098-.159 3.87.646 3.956 1.797ZM81.793 30.382c.087 1.151-1.544 2.212-3.642 2.371-2.098.158-3.87-.646-3.957-1.797-.086-1.151 1.544-2.213 3.642-2.371 2.099-.159 3.87.646 3.957 1.797ZM114.729 52.557c.072 2.064-2.921 3.844-6.685 3.976-3.764.131-6.874-1.436-6.947-3.5-.072-2.064 2.922-3.844 6.686-3.976 3.764-.131 6.874 1.436 6.946 3.5ZM102.521 45.753c.034.982-1.383 1.829-3.166 1.891-1.783.063-3.256-.683-3.29-1.666-.034-.982 1.383-1.829 3.166-1.892 1.783-.062 3.256.684 3.29 1.667ZM86.495 38.106c.074.98-1.308 1.884-3.086 2.018-1.779.134-3.281-.551-3.355-1.532-.074-.98 1.308-1.884 3.086-2.018 1.779-.134 3.281.551 3.355 1.532ZM88.284 52.821c.169 2.242-3.002 4.309-7.083 4.617-4.081.308-7.526-1.259-7.696-3.501-.169-2.241 3.002-4.308 7.083-4.616 4.081-.309 7.527 1.259 7.696 3.5Z"/><path fill="#D19600" d="M83.94 69.59c1.66-.03 3.28-.53 4.8-1.19.11.95-.3 1.87-.7 2.74-.39.83-.8 1.69-1.53 2.24-.88.66-2.09.74-3.16.47-1.07-.27-2.02-.86-2.95-1.46-.89-.57-3.16-2.69-1.33-3.7.58-.32 1.22.1 1.76.3 1.02.38 2.01.62 3.11.6Z"/><path fill="url(#a)" d="M50.23 43.62a16.49 16.49 0 1 1-32.98 0 16.49 16.49 0 1 1 32.98 0Z"/><path fill="url(#b)" d="M42.19 14.24a6.72 6.72 0 1 1-13.44 0 6.72 6.72 0 1 1 13.44 0Z"/><path fill="url(#c)" d="M25.94 31.79a7.96 7.96 0 1 1-15.92 0 7.96 7.96 0 1 1 15.92 0Z"/><path fill="#FFF" d="M27.61 32.31c.02.5.55.84 1.04.94 1.56.31 3.7-.22 5.3-.11 1.69.12 2.72.24 4.56.83 1.07.34 3.22.4 2.8-1.3-.36-1.47-2.91-2.56-4.17-2.87-2.93-.74-5.91-.6-8.03.45-1.4.69-1.51 1.79-1.5 2.06Z" opacity=".8"/><path fill="url(#d)" d="M98.74 92.88a10.93 10.93 0 1 1-21.86 0 10.93 10.93 0 1 1 21.86 0Z"/><path fill="url(#e)" d="M111.7 102.66a5.32 5.32 0 1 1-10.64 0 5.32 5.32 0 1 1 10.64 0Z" opacity=".7"/><path fill="#FFF" d="M96.07 91.48c.14.72.17 1.51-.17 2.17-.34.66-1.12 1.13-1.82.9-.59-.19-.95-.77-1.3-1.29-1.16-1.67-2.84-2.9-4.75-3.57-1.18-.42-3.88-.97-3.45-2.84.64-2.74 5.77-1.85 7.88-.47 1.8 1.18 3.2 2.99 3.61 5.1ZM30.66 13.41c.56-.02 1.02-.87 2.03-1.64.91-.7 2.25-1.03 3.06-1.08.44-.03 1.09-.17 1.35-.64.14-.26-.09-1.59-1.96-1.34-2.22.3-4.16 1.76-4.65 3.08-.33.9-.36 1.64.17 1.62Z" opacity=".8"/></svg>