<svg xmlns="http://www.w3.org/2000/svg" viewBox="0 0 128 128"><path fill="#CA8865" d="M22.44 6.22S25.26 2 37.95 4.25C50.07 6.4 52.38 9.79 51.43 12.1c-.94 2.29-14.29 7.28-14.29 7.28l-9.67 1.88s-.41 1.07-.65 2.66c-.24 1.58-.54 6.11-.54 6.11l-5.44-9.49 1.6-14.32Z"/><path fill="#E4BF8F" d="M51.91 60.74s2.95-.63 4.83-2.86c1.84-2.19 3.61-5.55 3.67-7.16.09-2.24-.54-3.22-.98-3.58-1.05-.84-6.8 5.55-6.8 5.55l-.72 8.05Z"/><path fill="#CA8865" d="m83.16 16.52-11.28 8.42s-1.97 2.69 5.01 3.94c6.98 1.25 13.16 1.34 13.16 1.34s12.8-5.64 12.62-6.54c-.18-.9-1.16-6.27-1.61-6.18-.44.09-17.9-.98-17.9-.98Z"/><path fill="#EFC2A2" d="M74.47 87.87c-.27 1.07-1.07 2.69-2.06 3.94-.79 1-2.38 1.34-2.33 2.24.09 1.52 3.49 4.12 4.57 4.12s2.78-1.7 2.6-4.03c-.18-2.33-.18-6.54-.18-6.54l-2.6.27Z"/><path fill="#CA8865" d="m48.69 41.32 1.34-4.12 2.15-3.04 3.49 2.33 3.4 9.22-.07 4.73s-1.27 2.87-4.23 7.08c-2.96 4.21-3.88 6.01-5.73 9.58-1.34 2.6-2.96 6.73-3.67 12.18-1.07 8.24 0 14.86-.18 22.74-.18 7.88-1.15 15.72-3.74 18.49-2.34 2.5-5.57 3.98-12.37 4.07-6.8.09-7.31-1.63-7.31-1.63l-3.43-39.64 20.32-42.44 10.03.45Z"/><path fill="#865C52" d="M47.22 42.52s-2.42-.38-5.68 2.42c-2.64 2.27-4.47 7.34-7.64 15.59-3.03 7.86-5.75 14.15-8.02 18.16-2.27 4.01-3.94 7.04-4.99 9.16-.91 1.82-4.31 1.14-4.31.83 0-.31-3.63-4.09-3.63-4.09l-.3-4.62s5.22-7.49 5.22-7.72c0-.23 5.98-13.09 5.98-13.09s4.77-18.54 4.92-19.07c.15-.53 6.58-9.16 6.58-9.16l12.26-1.89s.98 6.81.98 7.11c0 .3-.15 6.21-.15 6.21l-1.22.16Z"/><path fill="#DCA282" d="M48.7 28.53s1.58.39 3.64 1.94c2.46 1.86 4.11 4.07 5.37 6.33 1.13 2.03 1.86 4.99 2.1 7.75s-.42 5.34-.84 5.88-1.68-6.96-3.12-10.07c-1.41-3.05-2.7-4.02-4.5-3.84-1.87.19-1.74.72-1.74.72l-.91-8.71ZM28.01 85.62l3.06-.22s2.5 9.02 3.34 17.63c.84 8.61.83 13.23.74 15.27-.09 2.04-.65 3.79-2.96 5-2.31 1.2-6.66 1.02-8.79.65-2.13-.37-3.84-2.7-5.5-5.57-1.66-2.87-4.04-8.26-5.6-15.07-2.41-10.46-1.57-18.32-1.57-18.32l8.61 4.53 8.67-3.9Z"/><path fill="#F8E2D5" d="M25.93 43.16s-1.55 10.51-2.84 14.58c-1.3 4.07-2.66 8.09-6.45 13.64-2.5 3.67-5.18 5.92-6.11 8.42-.93 2.5-.83 4.9.09 6.85.92 1.95 1.9 2.44 1.9 2.44s-.72 1.2-1.77 2.14c-.95.84-2.2 1.3-2.2 1.85s.8 1.83 2.25 2.9c.98.72 2.45 1.45 2.85 1.45.4 0 2.85-4.51 2.85-4.36 0 .15 2.31 5.32 2.76 5.37 2.25.25 5.5-3.35 5.5-4.22 0-.55-3.69-3.71-3.69-3.71s4.79.3 9.25-4 10.52-14.29 14.93-26.15 6.32-22.23 5.19-27.68c-1.13-5.45-2.6-5.8-2.6-5.8l-1.64 2.25s1.82 4.67.78 11.25-4.84 19.73-9 28.03c-3.59 7.17-8.65 15.05-14.88 17.91-6.23 2.85-11.16-3.05-8.65-7.09 1.56-2.51 4.41-5.45 7.09-10.99 3.06-6.32 5.1-14.97 5.71-18 .61-3.03 1.3-6.14 1.3-6.14l-2.62-.94Z"/><path fill="#CA8865" d="M18.81 40.79s-3.64 9.64-3.5 10.66c.14 1.02 2.03 5.08 3.42 7.03 2.38 3.34 4.23 5.58 4.67 5.58.44 0 2.92-9.48 2.92-9.48s-1.9-2.7-3.19-5.05c-2.33-4.23-1.33-7.35-1.47-7.57-.15-.22-2.85-1.17-2.85-1.17Z"/><path fill="#FDE1CC" d="M14.97 101.56c-1.08.36-.6 2.01.42 5.2 1.02 3.19 3.94 10.37 7.59 12.83 2.46 1.66 6.56 1.82 6.32-1.13-.15-1.9-3.03-1.95-5.29-4.16-3.06-2.98-4.81-5.56-6.24-8.23-.82-1.52-1.66-4.89-2.8-4.51Z"/><path fill="#E7AC84" d="M35.48 14.24c-12.52-1.9-12.77-7.46-12.81-7.72-.11-.77-.35-.18-.45.15-.1.33-1.75 8.46-2.15 10.34-.41 1.88-2.64 10.14-2.61 10.61.03.47.35 2.13.92 3.23.57 1.09 1.96 3.85 1.96 3.85s-1.77 1.21-3.17 2.3c-1.4 1.09-2.75 3.09-2.75 3.09s-.34.64-.26 4.04c.08 3.4 1.17 7.36 1.17 7.36s.93-2.31 3.79-4.99c2.87-2.68 5.53-4.11 5.53-4.11s3.32 5.17 6.53 9.32c3.21 4.15 9.62 10.19 9.62 10.19s1.28-3.28 1.7-4.53c.42-1.25 1.41-4.54 1.41-4.54s-2.2-2.28-6.12-6.2c-3.92-3.92-5.79-8-5.79-8s4.6-1.88 8.97-4.41c5.6-3.23 8.44-5.43 8.44-5.43s.72-2.98 1.23-7.41c.58-5 1.02-10.16 1.02-10.16s-2.97 5.02-16.18 3.02Zm.91 12.35c-3.17 1.41-8.51 3.62-8.51 3.62L23.7 19.64s2.32 1.7 7.12 3c4.81 1.3 12.21.96 12.21.96s-3.48 1.57-6.64 2.99ZM74.92 9.64l-3.04 15.29s6.35-2 14.56-2.77 14.95-.47 14.95.65-8.45 1.95-16.54 5.55c-8.09 3.6-14.06 8.45-14.06 8.45s-.18 4.78.18 8.8c.36 4.02.95 7.03.95 7.03s4.43 3.01 7.8 4.73c3.37 1.71 5.32 2.48 5.32 2.48l3.25-8.8s-4.31-2.01-6.2-3.25c-1.89-1.24-3.72-1.95-3.84-3.43-.12-1.48 5.08-4.96 11.76-7.97s10.81-3.66 10.81-3.66 4.37-2.95 4.31-3.19c-.06-.24-1.06-4.67-1-10.16.06-5.49.12-9.51.12-9.51s-3.43-3.19-14.71-2.72c-11.31.48-14.62 2.48-14.62 2.48Z"/><path fill="#DDA281" d="m108.09 32.52.99 11.68-8.2 43.47 7.45 31.5s-2.19 5.6-11.67 5.76c-5.84.1-7.93-2.43-8.82-3.11-.89-.68-6.09-10.68-8.14-16.34-4.55-12.55-5.23-17.62-5.23-17.62l3.93-9.27 8.82-25.96 8.32-14.41 8.07-7.45 4.48 1.75Z"/><path fill="#CA8865" d="m109.08 29.79-4.47 1.86s3.07 1.37 3.11 6.09c.07 9.91-4.98 17.96-9.31 25.87-2.78 5.08-5.17 7.09-7.58 7.79-1.67.49-3.44.02-3.28 1.23.21 1.61 4 2.46 4 2.46s-1.87 2.8-4.2 4.4c-2.33 1.6-5.46 2.46-4.93 3.53.53 1.07 6.73-.2 6.73-.2s-1.4 2.66-2.73 3.8c-1.33 1.14-2.66 1.6-2 2.6.67 1 3.6-.07 4.4-.4.8-.33 2-1 2-1s-1.02 9 0 16.06c.87 6 3.14 13.56 7.58 16.5 2.41 1.6 7.08 1.46 9.01.01 1.45-1.09 2.93-5.09 3.13-7.29.2-2.2-11.12-23.55-11.12-23.55l7.53-24.85 10.93-11.66s1.73-2.4 1.8-7.53c.07-5.13-3.53-10.86-5.73-12.92-2.22-2.07-4.87-2.8-4.87-2.8Z"/><path fill="#F8E2D5" d="m112.26 55.51-1.87-5.67s2.13-8.19.73-12.79-3.6-5.36-5.73-5.46c-1.25-.06-11.03 8.41-16.88 22.97-5.85 14.55-8.47 26.48-10.86 29.94-2.39 3.46-3.9 4.11-4.53 3.1-1.19-1.91.84-4.06 2.15-6.44 1.31-2.39 7.47-21.87 10.5-28.87 3.46-7.99 9.99-17.6 15.48-21.77 3.31-2.52 5.76-2.44 5.76-2.44s5.06 1.49 7.92 5.31c2.86 3.82 2.57 9.37 1.62 15.81-.95 6.44-4.29 6.31-4.29 6.31ZM79.34 87.85c-1.65.48-1.19 3.37.85 10.14 2.5 8.28 6.42 16.3 7.11 17.57.69 1.27 1.33 2.44 2.28 1.96.96-.48-.42-2.81-1.17-4.67-.87-2.17-2.79-7.58-5.1-15.56-1.26-4.4-1.95-10.02-3.97-9.44Z"/><path fill="#F8E2D5" d="M101.8 36.94c-.81-.19-3.77 1.96-5.95 8.39-2.18 6.42-1.92 11.85-.11 11.89 2.12.05 1.7-6.69 3.34-11.31 1.9-5.28 3.84-8.71 2.72-8.97Z"/><path fill="#E4BF8C" d="M116.21 48.09c-4.62-2.27-15.18 7.7-20.73 31.77-5.55 24.07-.01 41.7 10.84 38.35 11.62-3.58-2.51-30.95.4-41.79 1.15-4.3 1.9-6.33 2.81-8.59 1.19-2.95 2.93-5.87 3.37-6.56 1.66-2.59 8.95-10.41 3.31-13.18Z"/><path fill="#DDA281" d="m97.9 70.96 11.69-3.12s-2.24 5.54-2.84 8.4c-.5 2.39-.34 4.14-.34 4.14L94.5 83.89s.91-4.31 1.65-7.04c.74-2.73 1.75-5.89 1.75-5.89Z"/></svg>