<svg xmlns="http://www.w3.org/2000/svg" viewBox="0 0 128 128"><path fill="#B0BEC5" d="m99.88 12.81 1.37 1.96c.45.65.24 1.81-.21 2.2-.45.39-1.62.86-2.27.49l-2.12-1.2a1.65 1.65 0 0 1-.36-2.59l1.06-1.08c.73-.73 1.94-.63 2.53.22ZM109.44 5.06l1.37 1.96c.45.65.26 1.62-.14 2.2-.4.58-1.69.85-2.33.49l-2.12-1.2a1.65 1.65 0 0 1-.36-2.59l1.06-1.08c.72-.73 1.93-.63 2.52.22Z"/><path fill="#784D30" d="M98.85 30.8c3.42-2.95 6.38-2.31 7.98-2.67 1.93-.43 3.35-1 4.63-2.52-.5-.97-.66-2.19-.13-3.14.72-1.29 2.4-1.64 3.88-1.64 1.5 0 3.22.25 4.58-.58 1.48-.9 1.77-2.84 1.9-4.43l-.02-3.27s-3.78-1.99-4.99-1.86L98.85 30.8Z"/><path fill="#B0BEC5" d="m110.17 29.63-1.37-1.96c-.45-.65-.38-1.53.18-2.1l.31-.31c.52-.53 1.34-.64 1.99-.28l2.12 1.2c.94.53 1.12 1.82.36 2.59l-1.06 1.08c-.73.73-1.94.63-2.53-.22ZM120.16 22.3l-1.37-1.96c-.45-.65-.38-1.53.18-2.1l.31-.31c.52-.53 1.34-.64 1.99-.28l2.12 1.2c.94.53 1.12 1.82.36 2.59l-1.06 1.08c-.73.73-1.94.63-2.53-.22Z"/><path fill="#784D30" d="M107.77 21.69C94.52 35.37 80.75 48.78 67.76 62.6c-.32.55-.36 1.24-.23 1.85.18.86.62 1.66.75 2.54.31 2.48-1.47 4.78-3.46 6.06-.19.18-.2.37-.1.61.25.59.7 1.14 1.03 1.69 6.61 11.18 6.62 25.97-1.69 36.27-19.87 24.84-48.2 3.82-49.54 1.96l32.93-42.79 54.56-52.11 5.76 3.01Z"/><path fill="#C87D5E" d="M120.12 8.74c-2.18-2.91-6.3-4.42-9.48-3.09-.88.37-1.7.96-2.14 1.8-.44.84-.47 1.84-.57 2.8-.13 1.26-.28 2.72-1.27 3.46-2.34 1.72-4.25-.12-4.25-.12s-2.03.36-3.25 2.84c-.52 1.07-.77 2.59-1.22 3.7-.16.42-.64.87-.64.87L46.89 64.63l7.77 6.91 47.31-45.25c1.82-1.53 2.61-1.19 4.26-1.51a8.815 8.815 0 0 0 5.06-2.96c-.54-1.02-.76-2.28-.24-3.25.7-1.3 2.43-1.62 3.95-1.57 1.52.05 3.14.31 4.48-.33 1.34-.64 2.13-2.12 2.17-3.64.04-1.51-.59-3.04-1.53-4.29Z"/><path fill="#C87D5E" d="M66.82 90.01a31.47 31.47 0 1 1-62.94 0 31.47 31.47 0 1 1 62.94 0Z"/><path fill="#B0BEC5" d="m54.92 114.66 3.8-3.58-4.01-4.47-3.74 3.64ZM66.77 91.77l-4.66-.43-1.45 5.11 5.45.51ZM35.35 121.48l5.22-.49.05-5.99-5.23.55ZM18.23 116.42l4.58 2.64 1.81-4.26c-1.38-.67-3.26-1.61-4.66-2.38l-1.73 4ZM65.12 79.78l-2.01-4.85-4.33 1.32 1.5 5.01Z"/><path fill="#FFCC80" d="M33.6 116.5c-10.27 0-19.54-5.25-24.82-14.04C.57 88.79 5.02 71 18.69 62.79c4.5-2.7 9.64-4.13 14.86-4.13 10.27 0 19.54 5.25 24.82 14.04 8.21 13.67 3.76 31.47-9.91 39.68-4.5 2.7-9.64 4.12-14.86 4.12Z"/><path fill="#B0BEC5" d="M33.55 57.79v1.74c9.96 0 18.96 5.09 24.07 13.62 3.86 6.42 4.98 13.96 3.17 21.23-1.82 7.27-6.35 13.4-12.78 17.25a28.01 28.01 0 0 1-14.41 4.01c-9.96 0-18.96-5.09-24.08-13.62-3.86-6.42-4.98-13.96-3.16-21.23 1.82-7.27 6.35-13.4 12.78-17.25 4.36-2.62 9.35-4 14.41-4.01v-1.74m0 0c-5.22 0-10.5 1.37-15.3 4.25C4.14 70.51-.43 88.81 8.03 102.91c5.59 9.31 15.45 14.46 25.57 14.46 5.22 0 10.5-1.37 15.3-4.25 14.11-8.47 18.68-26.77 10.21-40.87-5.58-9.31-15.45-14.46-25.56-14.46Z"/><path fill="#FEF6E0" d="M57.96 86.31a25.53 25.53 0 1 1-51.06 0 25.53 25.53 0 1 1 51.06 0Z"/><path fill="#B0BEC5" d="M9.17 88.83c-.28-4.38.97-10.33 5.33-16.28 1.77-2.41 2.48-4.81.01-6.49l-.96-.65c-9.13 8.4-11.18 20.38-8.59 29.88l1.59-.42c2.67-.71 2.79-3.28 2.62-6.04Z"/><path fill="#CFD8DC" d="m23.988 87.733-5.94 7.71-.396-.306 5.94-7.71.396.306ZM21.252 98.175l6.91-6.27.336.37-6.91 6.27-.336-.37ZM20.184 96.782l6.45-6.37.352.356-6.45 6.37-.352-.356ZM18.853 96.005l6.26-7.09.374.33-6.26 7.09-.374-.33Z"/><path fill="#B0BEC5" d="m15.18 109.22-5.66-5.23 1.3-4.08 5.63-5.99a.978.978 0 0 1 1.43-.06l4.81 4.74c.4.39.38 1.04-.03 1.42l-6.61 5.92-.87 3.28Z"/><path fill="#CFD8DC" d="m23.625 87.392 77.358-68.155.492-2.319.49.104-.528 2.481-77.482 68.265Z"/><path fill="#CFD8DC" d="m25.133 88.894 77.499-69.24 9.5-10.799.376.33-9.52 10.821-77.521 69.26ZM26.642 90.405l76.852-69.77 13.606-7.464.24.438-13.554 7.436-76.808 69.73Z"/><path fill="#CFD8DC" d="m28.161 91.906 76.349-70.095 2.605-.585.11.488-2.475.555-76.251 70.005Z"/><path fill="#784D30" d="m22.301 84.254 10.1 10.05-1.842 1.852-10.1-10.05 1.842-1.852Z"/><path fill="#B0BEC5" d="M103.25 16.97a1.53 1.53 0 1 1-3.06 0 1.53 1.53 0 1 1 3.06 0ZM108.7 21.47a1.53 1.53 0 1 1-3.06 0 1.53 1.53 0 1 1 3.06 0ZM113.85 9.02a1.53 1.53 0 1 1-3.06 0 1.53 1.53 0 1 1 3.06 0ZM118.75 13.39a1.53 1.53 0 1 1-3.06 0 1.53 1.53 0 1 1 3.06 0Z"/></svg>