<svg xmlns="http://www.w3.org/2000/svg" viewBox="0 0 128 128"><defs><linearGradient id="a" x1="41.441" x2="39.066" y1="113.507" y2="116.674" gradientUnits="userSpaceOnUse"><stop offset=".083"/><stop offset="1" stop-opacity="0"/></linearGradient><linearGradient id="b" x1="41.441" x2="39.066" y1="83.465" y2="86.632" gradientUnits="userSpaceOnUse"><stop offset=".083"/><stop offset="1" stop-opacity="0"/></linearGradient><linearGradient id="c" x1="41.441" x2="39.066" y1="53.423" y2="56.59" gradientUnits="userSpaceOnUse"><stop offset=".083"/><stop offset="1" stop-opacity="0"/></linearGradient><linearGradient id="d" x1="41.441" x2="39.066" y1="23.382" y2="26.549" gradientUnits="userSpaceOnUse"><stop offset=".083"/><stop offset="1" stop-opacity="0"/></linearGradient></defs><path fill="url(#a)" d="m35.54 113.91 7.22 5.45v-6l-6.59-.43Z" opacity=".6"/><path fill="url(#b)" d="m35.54 83.87 7.22 5.45v-6l-6.59-.44Z" opacity=".6"/><path fill="url(#c)" d="m35.54 53.83 7.22 5.45v-6l-6.59-.44Z" opacity=".6"/><path fill="url(#d)" d="m35.54 23.79 7.22 5.45v-6l-6.59-.44Z" opacity=".6"/><path fill="#9E673C" d="M95.207 124.011h-9.97V3.991h9.97v120.02Z"/><path fill="#E6A467" d="M100.756 3.991v120h-6.61v-120h6.61Z"/><path fill="#784D30" d="m92.46 113.91-7.22 5.45v-6l6.6-.43ZM92.46 83.87l-7.22 5.45v-6l6.6-.44ZM92.46 53.83l-7.22 5.45v-6l6.6-.44ZM92.46 23.79l-7.22 5.45v-6l6.6-.44Z" opacity=".6"/><path fill="#FFCC80" d="m92.63 19.25-57.51.21.62-1.54 4.99-3.67c.21-.16.47-.25.73-.25l43.39.38c.28 0 .56.1.78.28l6.52 3.3.48 1.29Z"/><path fill="#E6A467" d="M91.61 24.03H36.17c-.58 0-1.04-.47-1.04-1.04v-4.13c0-.58.47-1.04 1.04-1.04h55.44c.58 0 1.04.47 1.04 1.04v4.13c0 .58-.47 1.04-1.04 1.04Z"/><path fill="#FFCC80" d="m92.63 109.18-57.51.21.62-1.54 4.99-3.67c.22-.16.47-.24.73-.24l43.39.38c.28 0 .56.1.78.28l6.52 3.3.48 1.28Z"/><path fill="#E6A467" d="M91.61 113.97H36.17c-.58 0-1.04-.47-1.04-1.04v-4.13c0-.58.47-1.04 1.04-1.04h55.44c.58 0 1.04.47 1.04 1.04v4.13c0 .58-.47 1.04-1.04 1.04Z"/><path fill="#FFCC80" d="m92.63 79.21-57.51.21.62-1.54 4.99-3.67c.22-.16.47-.24.73-.24l43.39.38c.28 0 .56.1.78.28l6.52 3.3.48 1.28Z"/><path fill="#E6A467" d="M91.61 83.99H36.17c-.58 0-1.04-.47-1.04-1.04v-4.13c0-.58.47-1.04 1.04-1.04h55.44c.58 0 1.04.47 1.04 1.04v4.13c0 .58-.47 1.04-1.04 1.04Z"/><path fill="#FFCC80" d="m92.63 49.23-57.51.21.62-1.54 4.99-3.67c.22-.16.47-.24.73-.24l43.39.38c.28 0 .56.1.78.28l6.52 3.3.48 1.28Z"/><path fill="#E6A467" d="M91.61 54.01H36.17c-.58 0-1.04-.47-1.04-1.04v-4.13c0-.58.47-1.04 1.04-1.04h55.44c.58 0 1.04.47 1.04 1.04v4.13c0 .58-.47 1.04-1.04 1.04Z"/><path fill="#9E673C" d="M37.207 124.011h-9.97V3.991h9.97v120.02Z"/><path fill="#E6A467" d="M42.756 3.991v120h-6.61v-120h6.61Z"/></svg>