<svg xmlns="http://www.w3.org/2000/svg" viewBox="0 0 750.75 845.37"><path d="M823.14,98.35c-3.58-3.81-16.81,1-23,.16,3.18-5.71,9.34-6,14.46-9.75-10.35-7.94-20.81-15.14-31.5-22.44-23-.88-48.1,38-62.47,54.36-2.16-5.38-7.1-9.15-5.82-15,4.2-19.21,5.53-40.54-5-58-2.56-4.52-5.61,1.53-8.16,2.9-8.09,4.81-16.09,9.89-24.66,13.82-6.18,3-3.52-10.71-5.25-14.08-.94-4.41-3.86-13-9.84-10.88-39,20.25-65.68,59.27-74.14,101.92C454,27.59,236.89,151.54,265.55,321.66c-17.89,3.31-7.77-1.8-19.36-17.48a6.08,6.08,0,0,1-.58-4,56.17,56.17,0,0,0,.39-27.92,4.71,4.71,0,0,1,.78-3.43c32.16-32.76,46.1-98.54,2.92-127.94-22.3-12.58-54-9.43-72.23,9.16-14.87,11.63-25.28-25.58-37.54-29.43-17.43,1.11-25.42,40-25.78,54.72-3.51,46.2-5.58,92.75-15.24,138.19-.25,12-13.7,56.88,3,59.06,11.74,1.53,30.26-12.7,36.44,2.21,8.93,27.23,38.78,31.44,63.38,24.32,1,7.49,2.61,14.05,7,20,4.56-4.7,9.81-12.51,17-8.12,8.27,4,4.45,14.8,2.24,21.55-2.23,5.64,5.85,4.33,10.58,4.47a62,62,0,0,0,18-2.3c4-1.15,7.81-2,11.1-1,4.63,3.27,32.79,25.16,27.76,29.85-11.78,0-23.72,5-31.1,14.4-4.75,4.63-13.5-1.29-18.93-2.64-29.23-12-44.08-42-54.91-69.86C129.17,461.52,178,428,170.6,482.74c-.15,6.32-.07,6.16-6.56,6.63-3.14,1.15-30.66.17-25.63,5.39,23.55,34,11.66,31.46,43.12,17.21,2.47-.74,6.72-2.91,8.88-.87-.68,8-17.92,18.77-24.49,23.61-2.56,1.58-2.74,2.34-.42,4.25,34.81,26.67,18.12,25.12,43.79-5.29,3.2,11.85-2.6,24.67-5.39,36.29-.39,1.42,0,2,1.41,1.94,39.81-6,33.16,11.27,29.32-32.85-.4-3.81-.07-4.08,3.45-2.83,8.95,3.19,18,5.69,27.67,5.48,24.49,14.44,15.82,1.15,27.19,29.85,2.52,6.09,7.93,11.11,9.57,17.55C313.05,636.21,342.43,687.28,393,698c4.72,3.12,2.53,10.75,10.84,12.24,1.36,1,3.14,1.7,2.7,3.91-.91,7.33-10.27,7.33-15.81,7.06-6.89.73-3.83,14.37-4.09,19.16,2.16,8.27-1.9,11-7.17,16.76-44.39,43-5,140.5,59.77,125.9,40.08-18.35,59.79-63.14,93.83-89.92,71.16-44,138.33-139.18,61.09-210.26-40.88-31.46-65-6.51-28.89-37.05,2.14-2,1.86-2.76-.69-4.3-26.64-13.11-34.25-36.63-33.54-64.76-.26-18.94.45-38.1,4.92-56.57,5-19.44,25.1-14.5,21.26-29.25-.75-6.57-.49-5.73,5.61-6.57,5.2-.77,16.36-2.39,11.19-9.95-1.4-2.13-5.11-4.47-2.42-7.07,4.69-10.45,32-10.24,28.55-22.22-1.71-3.54-.7-6,1.61-8.83a128,128,0,0,0,17.46-27.91c5.24-11.5,7.65-23.84,10.21-36.13,1.59-5.61,7.3-9,11.26-12.92,20-17.14,40.6-35.34,64-47.42,38.62-10.42,84.16-12.84,116.82,14.06,2.22,6.71,22.5-37.89,16.65-36.44-7.23-7.72-16.78-11.81-26.49-15.72-9.76-5.24-21.55-2.84-31.32-7,0-.28.11-.55.17-.82,19.64-4.83,41.6-2.73,61,3,1.7.58,2.43,0,2.44-1.74C845.72,140.38,840.34,119.32,823.14,98.35ZM290.89,378.13c-.31-4.53,2.15-9.15-4.1-8.91C275,370.07,269,358,269.94,347.93c4,1.75,5.77,6.58,9.14,9.31,4.79,5.15,10.83,8.15,17,11.42C294.87,372.06,295.31,375.9,290.89,378.13Zm24.37,49.46,12.95-5.37.68.66C322.59,429.93,325,436.44,315.26,427.59ZM371,566.08c-8.41,11.57-22.28,19.64-36.27,22.49-4-.15-4.81-1.33-3.17-5,4-8.88,11-14.5,19.68-18.38C354.71,563.81,374.75,557.7,371,566.08Zm65.5-122.52c-6.23,1.93-13.26,8.94-19.77,6.55-12.9-9.4-33-3.14-33.66,14.09-9,8.46-12.49-32.17,1.79-37.08,3.07-2.19,6.57-5.14,10.57-3.79.89,8.75-1.47,18.71,11,12.56,10.47-1.29,15.71-11,23.71-16.18,6.41,3.52,2.93,13.25,7.95,18.31C439.85,440.73,439.48,442.15,436.52,443.56Zm10.91-5.69-.71-.65c1.73-3.46,4.83-5.81,7.74-8.25,2.39-1.92,3.85.82,5.35,2.36A32.44,32.44,0,0,1,447.43,437.87Zm215.5-258c-11.3,8.37-22.42,16.64-32.82,26.08-.52-2.33-1.17-4.05-1-6.14-1.57-3.46.67-4.35,3.29-5,13.27-2.94,21.66-13.68,32.65-20.29C665.78,177.18,664.62,178.64,662.93,179.91Z" transform="translate(-93.55 -39.12)" fill="#3b2449"/><path d="M149.6,499.36l19.31-3.61c.38,6.06,2.71,8.58,8.45,11.46C157.23,516,162.72,516,149.6,499.36Z" transform="translate(-93.55 -39.12)" fill="#fae6be"/><path d="M175,449.24c-2-2.63-8.18-7.3-6.14-10.84,5.36-5.14,10.17-11.33,16-15.75,12.75,24.51,31.21,43.46,54.78,57.86C214.23,484.93,193.3,464.19,175,449.24Z" transform="translate(-93.55 -39.12)" fill="#fae6be"/><path d="M186.27,545.62c-4.65-3.11-7.28-5.08-11.8-8.37,7.65-7.51,15.33-15.49,22.47-23.55,4-2.44,9-.13,13.76-.28C210.71,517,188,555.14,186.27,545.62Z" transform="translate(-93.55 -39.12)" fill="#fae6be"/><path d="M214.31,561.52c1.78-15.68-1.17-32,2.52-47.31,7.24-9.61,12.28,44.08,12.93,48.59C226.07,562.18,214.12,566.59,214.31,561.52Z" transform="translate(-93.55 -39.12)" fill="#fae6be"/><path d="M221.57,505c-3.9-2.7-9.79-1.06-14.39-1.64-7.3.54-13.77-2.65-20.73-4.24-7.44-.72-4.22-16-4.1-21.48,13,4,26.08,7.81,39.47,9.8,12.26,1.12,24.33-.53,36.81-.05-5.52,9.74-4,18.86-4.36,29.65C245.41,530.06,227.57,514.11,221.57,505Z" transform="translate(-93.55 -39.12)" fill="#fae6be"/><path d="M247.11,534.26l-.12-.71C263.88,525,263.77,540.09,247.11,534.26Z" transform="translate(-93.55 -39.12)" fill="#fae6be"/><path d="M282.81,536.12c-.15,5.39-6.14.89-9,.17-19.43-15.42-14.2-61.21,14.8-62C283.6,494.63,279.2,515.29,282.81,536.12Z" transform="translate(-93.55 -39.12)" fill="#9ecc5f"/><path d="M809.56,105.85c5.87-1.31,6.39-1.26,9.92,3.63,2.34,3.48,5.27,6.56,7.08,10.36-25,4.53-49.07,12.73-70.64,26.35-4.67.05-8.14-4.47-13.08-6.75C761.61,122.28,785.16,112,809.56,105.85Z" transform="translate(-93.55 -39.12)" fill="#fae6be"/><path d="M776,79.39c4.59-4.86,17.82,6.13,22.59,9.17-15.83,10.61-32.46,19.48-46.12,32.83a186.47,186.47,0,0,0-18.24,18.41c-3.93,3.27-8.22-2.65-12.25-4.09C735.09,109.79,752,94.89,776,79.39Z" transform="translate(-93.55 -39.12)" fill="#fae6be"/><path d="M721.64,142.77c4.07,3.07-2.53,4.49-5.3,3.87C717.23,143.47,717.61,140.87,721.64,142.77Z" transform="translate(-93.55 -39.12)" fill="#fae6be"/><path d="M671.56,89.51c14.63,18.73,2.72,46.05-12.57,60.68-3.24,2-3.28-7.6-4.48-10.1a11.54,11.54,0,0,0-1.82-3.46c-.24-2,.83-3.95,1.85-6.08C660.57,116.85,667.84,104.17,671.56,89.51Z" transform="translate(-93.55 -39.12)" fill="#fff"/><path d="M664.94,164.1a15.41,15.41,0,0,1-5.45,4.66c-.23.17-.83.36-1.77.84.15-6.56-.82-12.27,7.46-12.13,1.29,1.37.84,4.2.16,6A3.23,3.23,0,0,1,664.94,164.1Z" transform="translate(-93.55 -39.12)" fill="#fff"/><path d="M660.58,49.52c2.49,4.88,2.26,11,3.43,16.39a3.86,3.86,0,0,1-2.42,4.5c-1.76.82-2.82,3.24-4,5.06.37,4.1,8.7,3.06,6.57,9.81-3.84,15.44-9.42,30.61-19.17,43.35-10.8-1.7-25.88-3.9-31,8.93-1.19,3.54-2.8,7-3.73,10.56-2.3,9.44,8.26,20.38,17.75,16.95l.38-.9c-4.44-5-12.59-10.8-10.31-18.74,2.1-5,7.43-8.39,12.63-7.86,18.57,1,25.66,26.16,14.8,37.83-1.55,2.43-4.11,4.22-6.57,5.68C591,206.65,579.61,97.48,660.58,49.52Z" transform="translate(-93.55 -39.12)" fill="#fff"/><path d="M505.88,111.07c31.92,3.58,59.48,25.27,82.74,46.16a126.59,126.59,0,0,0,9,24.37c7,13.94,31.21,16.07,20.85,36.15-1-1.12-1.56-1.72-1.91-2.12,1.65-4.54.66-8.7-.52-12.94-9.31-.87-15,9.17-23.44,11.45,1.37-22.88-3.31-58-22.95-18.91-4.89,6.63-9.69,13.4-15.3,19.45-13.26,10.66-32.58,18.34-49.67,15-23.14-13.4-53.11-11.46-78.83-8.82-23.8,4.33-53.63,25.82-62.24,48.63-7.09,14.61-6.86,32.49-5.33,48.19-16.63,17.09-40.58,24.11-63.8,22-11.15,1.06-14.57-11.81-17-20.46-.2-1-.38-1.93-.5-2.9-1.42-3.48-.66-7.52-2.15-11,1.84-3.69,7-.63,10.28-1,57.5-3.35,79.49-78.71,80.62-127.16,30.39,22.11,97.94,23.7,127.61,0,25.94-13.58,33.12-43.85,12.09-65.15Z" transform="translate(-93.55 -39.12)" fill="#e24751"/><path d="M552.78,292.8l.39.78-5.84,8.55-1.1-.16C546.38,293.9,542.63,292.09,552.78,292.8Z" transform="translate(-93.55 -39.12)" fill="#fae6be"/><path d="M555,298.4l.62.27c-.76,2.61-3.08,14.31-7.05,10.34C549.75,305.35,552.79,301.7,555,298.4Z" transform="translate(-93.55 -39.12)" fill="#f6e23e"/><path d="M478.58,238.16l.39-.88c47.09,6.93,85.41,1,103.74-48.52,3.57,14.61,4.2,29-2.16,43.36,11.39-1.54,19-8.57,28.84-14.09,1,12.37-8.72,18.63-15.44,27.24-9.57,11.11-17.55,23.44-26.36,35.11C533.89,287,496.43,267.36,478.58,238.16Z" transform="translate(-93.55 -39.12)" fill="#f6e23e"/><path d="M521.12,402.6c-2.69,32.31,10.31,13.56,4.59,37.29-4-1.23-6.79-4-11.14-3.91-12.31-.63,6.66-8,4.08-25.5.46-8-7.54-16.55-15.82-12.79-3.36,1.35-11,4.84-14.58,9.48-2.4,4.69-4.09.23-9.51,1.53.12-2.72.71-5.79-.51-8.44-4.08.86-7.68,10.68-9.36,14.51-2,7.48-11.67,2.28-17.73,2.94,2.43-30.49,25.6-57.67,56.84-57.46,3.83-.78,16.65.75,21.13,2.61-6.94,25.88.79,22.94-22.58,22-2.64.52-8,.41-8.53,3.79C504.13,394.92,522.66,389.54,521.12,402.6Z" transform="translate(-93.55 -39.12)" fill="#45a5e6"/><path d="M520,445.74c6,3.94,4.8,4,3.67,10.3-19.47-12.54-43.12-4.57-60.35,8.25-2.13-5-.07-9.21,0-13.43,4.18.22,5.27,2.09,6.4-3.41,1.84-4.34,6.35-39,12.24-33.85,10.14,9.61,4.35-4.34,22.13-9.08,9.75-2,11.8,11.37,5.72,16.86-3.65,4.9-11.78,12.12-12.82,12.92-6.7,5.16-19.21,10.91-18.92,17.88C491.3,448.23,506.26,437.59,520,445.74Z" transform="translate(-93.55 -39.12)" fill="#dd7f97"/><path d="M453.36,606.3c1.9,2.41,2,3.21-.56,4.85-4.29,1.26-6.51-5.19-9.57-7.41-3.82-3.48-5.45-9.11-11.25-5.19-32.88,16.22-71.13,13.45-106,5.17L326,603c28.2-2.17,58.11.59,84.66-11,9.49-5.86-4.53-8.32-8.35-15.11-28.91-37.07,23.85-51.33,36.31-14.5,21.95-16.43,26-1.83,34.69,16.88C464.59,602.9,436.79,587.66,453.36,606.3Z" transform="translate(-93.55 -39.12)" fill="#dd7f97"/><path d="M462,599.24c-1.27,1.32-2.53,2.65-3.8,4l-.73-.06c-1.29-4.43.64-4.11,4.13-4.85C461.69,598.62,461.82,598.93,462,599.24Z" transform="translate(-93.55 -39.12)" fill="#f6e23e"/><path d="M428.57,671.25c-.41,4.73-4.8,6.32-7.53,9.43-3.93,4.34-5.14,10.51-8.25,15.23-3.11-11.17,5.06-30.66,17.5-39.65.1,1,.51,1.91.21,2.41C428.12,662.61,428.39,667,428.57,671.25Z" transform="translate(-93.55 -39.12)" fill="#fff"/><path d="M423.67,693.75c-1.33,4.36,0,9.36-3.61,11.93C416.23,702.44,419.6,695.77,423.67,693.75Z" transform="translate(-93.55 -39.12)" fill="#f6e23e"/><path d="M424.17,629.07h-.1c.28-12.37-3-14.07,10.61-17.75,4.25-1,6.31,7,9.06,9.55,1.69,2.65-3.52,11.41-5.28,13.92C424.5,646.43,424.56,648.48,424.17,629.07Z" transform="translate(-93.55 -39.12)" fill="#fae6be"/><path d="M375.17,489.23c0-1,.68-2.7,1-2.69,1.32,0,3.32.21,3.82,1.06,2.36,5.2,7.92,8,10.35,12.89,4,17.72,23.2,27.42,39.91,29.35,9.4,3.43,17,10.85,23.13,18.38-6.16-2.76-12.17,9.57-14.44,1.8-6.67-19.45-31.94-18.56-47-10.56-1.65-9.71-1.34-20.14-7.87-28.26-2.17.84-2.31,2.23-2.23,3.75,1,13.51,2.63,26.92-2.42,39.9-4.37,2-10.41-1-15.26-.79-12.53,1.51-24.36,5-34.38,13-2.12,1.36-3.63,0-4.61-1.37-14.14-19.47-12.46-45.66-9.79-68.32C331.32,537.41,384.76,541.89,375.17,489.23Z" transform="translate(-93.55 -39.12)" fill="#f6e23e"/><path d="M320.06,419.43c2.2-10,4.81-19.57,3.93-29.26-10.65,1.22-20.78,2.32-31.09-.19a263.68,263.68,0,0,0,13.66-22.71c2.65-3.7-2.49-3.38-4.93-4.68-8.38-2-17.89-5.88-21.15-14.7,31.43,5.7,66.45-4,87.23-29.34C377.93,357.85,354.16,400.23,320.06,419.43Z" transform="translate(-93.55 -39.12)" fill="#f6e23e"/><path d="M313.29,401.69c-3.87,3.14-8.9,4.36-12.29.87C304,398.83,308.88,401.87,313.29,401.69Z" transform="translate(-93.55 -39.12)" fill="#f6e23e"/><path d="M463.87,235.67c8,1,10.28,12.87,15.48,18.22-13.59-3.23-31.31-2.45-40.23,9.47a92.85,92.85,0,0,0-15.19-20.71c19.84-9.05,9.44-3.59,14.09,4.8,4.82-8.8,11-13.68,19.9-5.66C457.7,235.66,457.66,235,463.87,235.67Z" transform="translate(-93.55 -39.12)" fill="#fae6be"/><path d="M432.22,267.91c-7.41-.6-14.4-9.67-18.3-15.82-1-1.59-1.39-3.26.23-4.63C420,239.32,433.08,262.26,432.22,267.91Z" transform="translate(-93.55 -39.12)" fill="#f6e23e"/><path d="M437.65,230.45c-29.93,3.2-53.53,25.17-67.7,50.51a25.81,25.81,0,0,0-3.38,8.46c.05-.27-.53-.12-.8-.18,3.3-40.17,47.56-64.26,84.61-63.13C448.72,229.09,441.3,229,437.65,230.45Z" transform="translate(-93.55 -39.12)" fill="#e24751"/><path d="M411.82,266.45c-.9,6.82-.41,14.34-4.93,20-2.83,1.3-6.53-2.35-6.81-5.51-1.34-5.64-2.54-11.32-3.54-17-.9-5.21,2.43-8.11,6.47-10.28C412.59,247.09,410.56,261.53,411.82,266.45Z" transform="translate(-93.55 -39.12)" fill="#f6e23e"/><path d="M383,292.38l-.94-.2c-.63-10-.92-22.86,8.07-29.33C391.57,273.07,389.73,284.25,383,292.38Z" transform="translate(-93.55 -39.12)" fill="#f6e23e"/><path d="M377.25,281.43V288C374.37,285.76,374.48,284.33,377.25,281.43Z" transform="translate(-93.55 -39.12)" fill="#fae6be"/><path d="M367.47,384.88c-1-2.4,1.87-4.92,2.57-7.23l.93,0c5.29,8.4,12.59,14.77,20.49,20.66C381.51,399.55,374.43,390.62,367.47,384.88Z" transform="translate(-93.55 -39.12)" fill="#fae6be"/><path d="M396,407.13c15.11-1.83,29.78-.28,45,1.21l1.8,25.15-.89.18c-8.29-41.65-15.64-13.91-38.68-1.9-1.9-18.64.43-27.11-18.77-12.17l-.69-.6C383.64,416.54,393.43,406.17,396,407.13Z" transform="translate(-93.55 -39.12)" fill="#f6e23e"/><path d="M362.71,390.6l12.5,12.63c-12.79,1.14-23.87,7.27-35.42,13.14Z" transform="translate(-93.55 -39.12)" fill="#f6e23e"/><path d="M393.34,461.06c11.42-10.68,21.42-3.05,20.29,11.2-.67,5.13-11.1-3.4-20.84,11C388.34,479.89,391.38,464.75,393.34,461.06Z" transform="translate(-93.55 -39.12)" fill="#e24751"/><path d="M384.76,561.37a146.52,146.52,0,0,0,16.52,26.44c-17.8,4.7-36.64,7.43-54.95,6.42C361.33,585.68,375,575.77,384.76,561.37Z" transform="translate(-93.55 -39.12)" fill="#f6e23e"/><path d="M464.56,526.73c7,1,9.49,11,2.33,13.52C457.85,541.05,455.57,526.93,464.56,526.73Z" transform="translate(-93.55 -39.12)" fill="#fff"/><path d="M462.44,545.09c6.81.31,13.27.06,14.75-8.53l1-.21c2.37,4.28,12.41,14.07,1.14,13.14a50.25,50.25,0,0,0-4.52,5.93c-.21,1.4-.42,2.8-.72,4.83C468.29,557.2,466.69,550.34,462.44,545.09Z" transform="translate(-93.55 -39.12)" fill="#e24751"/><path d="M490.27,561.41c-.6,4-3.37,9.94-8.32,6.17C473.21,558.91,486.33,545.61,490.27,561.41Z" transform="translate(-93.55 -39.12)" fill="#fff"/><path d="M492.64,571.5a3.7,3.7,0,0,1,2.55-1.59c1.67.65,2.58,4.77-.18,5.26-4.92.19-8.29,3.13-12.26,5.66A22.08,22.08,0,0,1,480.2,574C484.15,573.12,490.56,576.11,492.64,571.5Z" transform="translate(-93.55 -39.12)" fill="#e24751"/><path d="M492.64,544.94c-6.78-10.33-14.07-18.91-21.84-28.28-6.92-7.09-14-7.69-14.22-19.31-1.42-.63-4,1.74-4.53,1.15-1.94-2.13-4.37-4.06-5.18-7.55,18.72-1,34,10.3,48.5,20.63a4.76,4.76,0,0,1,2.24,4.86C495.76,526,496.58,535.89,492.64,544.94Z" transform="translate(-93.55 -39.12)" fill="#fae6be"/><path d="M455,515l7.63,6.22c-8.41.23-7.43,6.26-9.83,11.72-3.1-.65-5.64-3.68-8.34-5.36C442.64,523.43,452,517.44,455,515Z" transform="translate(-93.55 -39.12)" fill="#e24751"/><path d="M401.7,487.59c7.62-7.69,20.65-3,29.58-.15,8.59,3.14,12.46,13.1,14.72,20.94C440.77,534.66,386.31,511.43,401.7,487.59Z" transform="translate(-93.55 -39.12)" fill="#fff"/><path d="M433.18,451.82l28.38-14.58c-3.55,11.43-17.07,17.05-28.39,15.19Z" transform="translate(-93.55 -39.12)" fill="#fae6be"/><path d="M442.38,371.48c-5.93-5.34-13.32-16.49-9.7-19.59,13.21-6.75,23.59-16.89,28.91-30.79a53,53,0,0,1,25.15,32.47c.46,1.21.27,2.11-1.38,2.33a65.39,65.39,0,0,0-18.52,9.48c-4.47,2.83-8.48,9.72-13.39,10.91C451.48,376.77,444.18,373.11,442.38,371.48Z" transform="translate(-93.55 -39.12)" fill="#dd7f97"/><path d="M518.31,353c-8.15-1-16.11.26-24.08,1.64-2.9.5-3.9-.26-4.29-3.2-2.91-15.81-15.22-28.5-29.3-35.31-3.22-1.7-3.67,3.17-4.69,5.17-4.2,11.6-13.45,22.25-25.22,26.47-2.77,1.06-7,.11-8.78,2.87,0,.46,1.33,2.29,2.3,2.25,7.82-.42,3.88,20.58,26.51,27.94-3.5,4.68-5.91,16.64-11.11,17.1-23,1.62-45.53-5.06-62-21.8,8.19-4.67,8.17-17.17,2-23.78-2-2.11-1.73-4.8-1.11-7.32,1.61-4.27,7.39,7.44,11.19,6-.12-.94.11-2.23-.42-2.78-4.26-4.38-6.75-9.84-9.24-15.23-1.19-4.94-2.57-20.28,6.3-17.12.5.27,1,1.61.79,1.88-5.54,11,5.74,30.76,15.89,36.62,23.79,8.76-2.5-64.14-30.35-41.2-4.37-4.16-.44-11.39-.72-16.76,1.11-3.09.65-7.26,5.05-5.23,3.91,25.41,13.68-3.91,16.87-12.58,2.91,5.63,5.88,25.88,14.67,18.54,8.13-7.58,8-18.88,10.45-28.86,4.64,4.44,9.93,6.31,16.06,5.29,1.25,1.73-.51,4.68,2.57,5.54,1.77-2.42-.38-6.13,3-8.51,1.36,7.34-1.93,19.9,9.55,19-1.6-7.5-3.19-15.83,1.88-22.43,4.67-6.2,17.45-11.12,26.64-6,11.95,6.53,12.61,11.61,17.83,22.7,4-2.46,2.23-9.16,1.79-13.36,10.92,7.65,21.66,14.66,34.7,18.18,2.08.64,2.93,1.74,3.23,4C539.05,313.38,536.09,340.37,518.31,353Z" transform="translate(-93.55 -39.12)" fill="#fae6be"/><path d="M395.3,332.15c-4.84-1.27-4.75-6-3.22-10C396.16,315.86,400.6,328.85,395.3,332.15Z" transform="translate(-93.55 -39.12)" fill="#fff"/><path d="M403.15,330.8c6.52,9.34,5.53,27.2-6.32,9.63C394.21,336.07,401.1,340.57,403.15,330.8Z" transform="translate(-93.55 -39.12)" fill="#9ecc5f"/><path d="M445.06,110.43c19.69,1.24,33.31,25.19,12.09,35.06-16.8,8.26-69.42,10.66-70.09-15.55C392,115.05,430.5,109.92,445.06,110.43Z" transform="translate(-93.55 -39.12)" fill="#483495"/><path d="M374.36,129.7c5.22,54.39,136.48,35.45,96-18.76-1.92-4.41,9.21-1.13,11.34-.84,42.71,9.86,29.14,51.12-.65,63.78C449.43,197,362,192,357.17,144.11,359.47,136.57,368.17,134.33,374.36,129.7Z" transform="translate(-93.55 -39.12)" fill="#fff"/><path d="M348.12,143.35l2.81,3.35c-2.24,2.1-2.93.09-4.19-1.46C346.58,145,347.63,144,348.12,143.35Z" transform="translate(-93.55 -39.12)" fill="#e24751"/><path d="M283.17,232.94c4.52-18.16,16.75-47.73,36.57-52.29C351.56,202.56,281.63,295.47,283.17,232.94Z" transform="translate(-93.55 -39.12)" fill="#483495"/><path d="M274.45,255.16l1-.09c28.11,51.45,88.94-77.15,45.14-84,13.78-25.08,29.51-23.32,35.79,4.49C374.54,244.24,263.48,356.22,274.45,255.16Z" transform="translate(-93.55 -39.12)" fill="#fff"/><path d="M103.72,365.2c-8.73-8.13-1.6-26.37.1-36.74,6.05-25.93,10.79-52.16,13-78.72,3.83-35.94,2.34-73.4,14.15-107.92,8.68-14.66,13.24-.69,12.54,9.09-.85,25.18-11.26,48.72-16,73.29-2.63,16.55-3.71,33.48-5.79,50.14-1.35,13.32-2.45,26.67-3.83,40C114.73,329.55,118.62,356.46,103.72,365.2Z" transform="translate(-93.55 -39.12)" fill="#fff"/><path d="M118.38,359.76c2.75-11.22,4.75-22.53,4.25-34.21a702.38,702.38,0,0,1,32.61-173.63c7.29,4.73,14.48,10.36,23.13,12.18,22.81,20-6.7,91.79-10.26,119.44-5.79,25-2.83,61.08-23.72,77.85C136.42,355.37,127.27,359.31,118.38,359.76Z" transform="translate(-93.55 -39.12)" fill="#fff"/><path d="M200.58,388.3c-10.63,9.5-30.92,6.82-42.32-.95-23.95-14.33-4.77-11.11.63-27.49,15.4-32.34,14-69.08,22.93-103.17,9.67-29.59,20.51-61.2,11-92.23-3.41-9.11-3.17-12.68,6.73-16,39.53-16.36,72.33,13.14,68.86,53.84l-.16.18c-2.82,19.41-10.7,38.09-24.66,51.8-1.43,1.4-6.32,6.21-7.32,6.73-4.64,2.41-10.34-2.28-17.13-.36-32.39,9.75-22.66,53.15,3.33,44.69,1.76-.8,3.51-2.39,5.72-1,4.58-2.95,9.94,1.68,12.72,5.08,3.81,5.32,2.74,4.71,3.24,10.84.36,3.74-1.32,5.49-4.78,7.38C215.8,338.62,201.33,362.45,200.58,388.3Z" transform="translate(-93.55 -39.12)" fill="#e24751"/><path d="M224.62,291.28c-.88,9.89-21.27,5.79-18.86-5.49.85-7,3.44-15.13,11.34-16.61,7.22-1.76,16.1-.15,20.07,6.64,3.72,6.46,4.46,18.28-4.88,20-1.18-8.1-1.9-19.76-12.25-19.37-2.31-.83-3.51.32-4.74,1.81C211.28,283.41,226,279.23,224.62,291.28Z" transform="translate(-93.55 -39.12)" fill="#f6e23e"/><path d="M237.64,431.4c4.13-20.43-4.44-37.46-26.83-26.38-3.39-30.59,16.85-65.43,48.4-71-5.14,36,23.3,39.53,23.18,51.85C279.18,410.28,260.11,425.18,237.64,431.4Z" transform="translate(-93.55 -39.12)" fill="#fff"/><path d="M285.42,406.92C287,401,296.37,417.44,298.86,419c5.19,6.15,10.42,12.26,15.64,18.4-3.42,6.12-9,10.5-13.28,16-1.63,1.93-3,.57-3.83-.36C267.26,417,269.35,434.16,285.42,406.92Z" transform="translate(-93.55 -39.12)" fill="#fae6be"/><path d="M316.23,581.89c-43.54-54.47-13.21-146.2,53.52-165.77l.51.55c-1.77,3.32-1.73,9.28-4.92,11.21-9.83.94-18.23,8.52-22.18,17.45,30.95,3.19,16.73,2.2,29.22,31.76-4.74-.89-7.16-4.57-10.75-6.6-4.2,3.36,3.47,11,4.29,15.23,16.65,49.66-40.11,44-49.05-11.33l-.75-.17c-12.09,31.26-13.77,70.79,4.59,99.9C322.64,576.8,320.57,586,316.23,581.89Z" transform="translate(-93.55 -39.12)" fill="#dd7f97"/><path d="M366,434.58c-1.19,2.14,0,4.84-2.93,5.22a3.2,3.2,0,0,1-3.45-3.08C359.88,434.11,363.69,432.27,366,434.58Z" transform="translate(-93.55 -39.12)" fill="#f6e23e"/><path d="M405.44,669.7c-1.37,4.54-1.5,13.56-7.5,14.07-37.12-9-62.7-41.37-76.56-75.19,28.58,11.95,57.68,15.21,87.51,11.36C411.72,636.43,409.1,653.42,405.44,669.7Z" transform="translate(-93.55 -39.12)" fill="#cd8e11"/><path d="M408.71,730.07l.56.73c-7.56,7.83-9.76,14.35-14.39-.2C395.11,727.45,405.94,730.5,408.71,730.07Z" transform="translate(-93.55 -39.12)" fill="#fff"/><path d="M567.58,752.88c-18.07,20.23-45.29,33.28-64.53,53C473.72,829.74,444,901.34,399.19,864c-19.08-27,14.05-62.26,31.37-81.89,33.33-43.79,14.13-103.81,89.72-114.43C565.67,665.47,602.55,715.32,567.58,752.88Z" transform="translate(-93.55 -39.12)" fill="#fff"/><path d="M591.63,706.33c-13.76-56.89-99.7-65.51-129.31-17.26-17,26.65-17.84,60.5-35.15,86.65-15.95,18.28-32.58,36.93-41.71,59.72l-.88,0c-7.24-43,43.51-59.55,54.71-94.77,4.29-14.31,8.64-28.64,12-43.18C470.18,604,603,599,591.63,706.33Z" transform="translate(-93.55 -39.12)" fill="#fff"/><path d="M605,694.36l-1.42-.46c1.5-35.82-19.68-73.22-57.63-77.43-29.12-5.2-57.47,1.24-77,23.62-33.13,34.66-22,93.59-57.85,125.81-14.36,12.9-27.77,27.22-37.08,45-3.37-14,2.19-28.57,9.63-40.12,10-17.84,28.45-29.32,39.7-46.41,17.38-27.08,11.3-62.49,28.2-90.32,9.87-16.62,23.32-30.88,40.81-39.05C560.82,555.38,639.11,620.8,605,694.36Z" transform="translate(-93.55 -39.12)" fill="#e24751"/><path d="M547.27,547.84l-.28.73c-.9-.09-7.28,3.9-9.89,5.49-10.34,6.29-22.08,9.68-34.4,6.23-1.49-.57-2-.95-1.81-2.63,1.59-11.88,2.57-23.14,4.48-35.09,7.57,6.85,12.16,16.16,17.23,24.91.79,1.49,1.34,4.07,3.64,3.06s.75-3.17.42-4.83c-11.33-28.09-34-52.9-63.76-61.28-11.35-3.17-24.47-.87-34.78-6.85-2.44-2-8.21-.56-7.19-5.4.91-2.68-.82-7.59,2.53-8.67,12.41.79,22.74-5.47,34-9,1.59,7.25-3.07,14.68-1.14,21.86C475,466,496.59,451.11,518.72,461.14,531.46,474.72,507.57,524.25,547.27,547.84Z" transform="translate(-93.55 -39.12)" fill="#45a5e6"/><path d="M546.94,396.56c-5.66,2.28,1.46-7.71,2.09-9.47l.62.28c.26,2.52.52,5,.8,7.81Z" transform="translate(-93.55 -39.12)" fill="#45a5e6"/><path d="M560,364.14c2.87,4.39,5.46,8.36,8.1,12.42C554.6,384.21,550.87,374.09,560,364.14Z" transform="translate(-93.55 -39.12)" fill="#f6e23e"/><path d="M588.58,347c-7.74,2.9-13.8,6.54-22.45,7.1,4.4-7.17,8.48-13.79,12.9-21C580.55,336,593.37,345.43,588.58,347Z" transform="translate(-93.55 -39.12)" fill="#f6e23e"/><path d="M590.74,336.35c-2.53-2.48-7.5-6.35-1.86-8.45,3.77-1.76,6.89-5.19,11-6C600.34,327.81,595.81,333.62,590.74,336.35Z" transform="translate(-93.55 -39.12)" fill="#e24751"/><path d="M592.71,317.31l-.62-.44c2.7-4.44,6.13-8.34,9.28-12.46,2.65-4.84,6-2.19,9.74-.1C605.87,310.61,599.13,313.72,592.71,317.31Z" transform="translate(-93.55 -39.12)" fill="#f6e23e"/><path d="M611.31,296.76c-2-2.64-1.83-3.47.49-5.88,1.43-1.57,2.27-3.59,4.43-4.34C617.89,290.58,617.49,302.27,611.31,296.76Z" transform="translate(-93.55 -39.12)" fill="#e24751"/><path d="M794.22,175.1c12.41,2.06,23.13,9.66,34.18,15.27,2.84,1.55,2.8,2.7,1.19,5.66-2.8,3.06-5.14,15.86-9.58,14.46C787.6,180.38,739.56,195,700.38,200.13c-76.9,52.52-138.47,128.07-170.15,215.43C518.41,347.39,615,220.69,670.81,184.49c2.85-2.22,1.19-6.22,1.59-9.27.48-7.79.8-15.6,1.75-23.34,12.74-28.48,40.78-53.26,3.63-77.82,6.07-5.45,13.63-8.16,20.68-12.05,1.84-1,2.61.18,3.5,1.46,9.81,13.76,4.44,30.92,4.14,46.47,4.88,12.53,10.49,17.43,3.72,32-3.62,7.55-5.67,16.58-13.27,21.32-2.33,3.42-5.85,6.55-8.2,10-1.14,2.08-5.71,12.38.23,9.51,18.21-25.93,56-49,75.78-11.38.33.72,1.75,1.24,2.71,1.33C776.12,173.51,785.22,173.93,794.22,175.1Z" transform="translate(-93.55 -39.12)" fill="#fae6be"/><path d="M684.05,95.71c6.35,5.81,6.94,17.48,1.25,21.77C684.87,110,684.46,102.83,684.05,95.71Z" transform="translate(-93.55 -39.12)" fill="#fff"/><path d="M798.16,155.15c-7.29-1.9-32,9.7-33.16,4.22-1-3.15-5.69-6.56-2-9.63,15-12.6,34.21-17.57,53.17-20.29,4.16,0,11-1.36,13.33,3.1,2.37,7.75,4.95,15.64,5,23.8C821.79,154.74,810.45,155.11,798.16,155.15Z" transform="translate(-93.55 -39.12)" fill="#fae6be"/><path d="M469.93,262.6c22-1.19,37,43.25,11.28,43.89C457.57,307.53,448.18,262.92,469.93,262.6Z" transform="translate(-93.55 -39.12)" fill="#3b2449"/><path d="M467.51,288.9c8.48,22.81,33.14,2.72,15.38-12.92C481.71,285.51,475.42,288.33,467.51,288.9Z" transform="translate(-93.55 -39.12)" fill="#9ecc5f"/><path d="M473.12,281c2.43-3.63,6.57-8.8,1.37-12.42C465.1,264.09,460.29,284.9,473.12,281Z" transform="translate(-93.55 -39.12)" fill="#fff"/><path d="M497,308.86c0-5.36,3.47-9.69,6.14-14.06.52-.74,2.56-.43,3.9-.61.15,5.36-5.45,11.48-9.18,15.05Z" transform="translate(-93.55 -39.12)" fill="#3b2449"/><path d="M501.65,309.27c3.3-2.1,9.19-8.8,12.93-5.95,2.17,4-6.73,6.07-9.13,8.24C502.84,312.93,501.62,312,501.65,309.27Z" transform="translate(-93.55 -39.12)" fill="#3b2449"/><path d="M420.84,338.54c1,2.47,3.89,4.34,2.57,6.42C420.08,345.7,418.89,342.87,420.84,338.54Z" transform="translate(-93.55 -39.12)" fill="#3b2449"/><path d="M413.4,487c13.63,1.83,27.35,4.86,28.66,21.47.3,14.94-29.72,6-35-2.11-5.54-5.19-6.28-20.08,3.67-19.3C411,487.11,412.85,486.94,413.4,487Z" transform="translate(-93.55 -39.12)" fill="#3b2449"/><path d="M437.5,506.46c-1-10.09-9.78-14.43-18.86-15.56-3.54-.81-9.11-1.33-10.74,2.58-1,7.07,5.43,15,12.64,15.75.64.07,4.24.78,5.18,1C430.5,511.26,432.12,509.58,437.5,506.46Z" transform="translate(-93.55 -39.12)" fill="#e24751"/></svg>